<?xml version="1.0" encoding="utf-8" standalone="no"?>
<!DOCTYPE svg PUBLIC "-//W3C//DTD SVG 1.1//EN"
  "http://www.w3.org/Graphics/SVG/1.1/DTD/svg11.dtd">
<svg xmlns:xlink="http://www.w3.org/1999/xlink" width="422.804375pt" height="312.30825pt" viewBox="0 0 422.804375 312.30825" xmlns="http://www.w3.org/2000/svg" version="1.1">
 <metadata>
  <rdf:RDF xmlns:dc="http://purl.org/dc/elements/1.1/" xmlns:cc="http://creativecommons.org/ns#" xmlns:rdf="http://www.w3.org/1999/02/22-rdf-syntax-ns#">
   <cc:Work>
    <dc:type rdf:resource="http://purl.org/dc/dcmitype/StillImage"/>
    <dc:date>2024-11-06T21:51:33.934673</dc:date>
    <dc:format>image/svg+xml</dc:format>
    <dc:creator>
     <cc:Agent>
      <dc:title>Matplotlib v3.9.0, https://matplotlib.org/</dc:title>
     </cc:Agent>
    </dc:creator>
   </cc:Work>
  </rdf:RDF>
 </metadata>
 <defs>
  <style type="text/css">*{stroke-linejoin: round; stroke-linecap: butt}</style>
 </defs>
 <g id="figure_1">
  <g id="patch_1">
   <path d="M 0 312.30825 
L 422.804375 312.30825 
L 422.804375 0 
L 0 0 
z
" style="fill: #ffffff"/>
  </g>
  <g id="axes_1">
   <g id="patch_2">
    <path d="M 58.484375 288.430125 
L 415.604375 288.430125 
L 415.604375 22.318125 
L 58.484375 22.318125 
z
" style="fill: #ffffff"/>
   </g>
   <g id="patch_3">
    <path d="M -514.860625 288.430125 
L -506.490625 288.430125 
L -506.490625 22.318125 
L -514.860625 22.318125 
z
" clip-path="url(#pdb39f1d634)" style="fill: #d3d3d3"/>
   </g>
   <g id="patch_4">
    <path d="M -496.725625 288.430125 
L -491.145625 288.430125 
L -491.145625 22.318125 
L -496.725625 22.318125 
z
" clip-path="url(#pdb39f1d634)" style="fill: #d3d3d3"/>
   </g>
   <g id="patch_5">
    <path d="M -471.615625 288.430125 
L -460.455625 288.430125 
L -460.455625 22.318125 
L -471.615625 22.318125 
z
" clip-path="url(#pdb39f1d634)" style="fill: #d3d3d3"/>
   </g>
   <g id="patch_6">
    <path d="M -447.900625 288.430125 
L -439.530625 288.430125 
L -439.530625 22.318125 
L -447.900625 22.318125 
z
" clip-path="url(#pdb39f1d634)" style="fill: #d3d3d3"/>
   </g>
   <g id="patch_7">
    <path d="M -424.185625 288.430125 
L -393.495625 288.430125 
L -393.495625 22.318125 
L -424.185625 22.318125 
z
" clip-path="url(#pdb39f1d634)" style="fill: #d3d3d3"/>
   </g>
   <g id="patch_8">
    <path d="M -376.755625 288.430125 
L -358.620625 288.430125 
L -358.620625 22.318125 
L -376.755625 22.318125 
z
" clip-path="url(#pdb39f1d634)" style="fill: #d3d3d3"/>
   </g>
   <g id="patch_9">
    <path d="M -347.460625 288.430125 
L -343.275625 288.430125 
L -343.275625 22.318125 
L -347.460625 22.318125 
z
" clip-path="url(#pdb39f1d634)" style="fill: #d3d3d3"/>
   </g>
   <g id="patch_10">
    <path d="M -329.325625 288.430125 
L -325.140625 288.430125 
L -325.140625 22.318125 
L -329.325625 22.318125 
z
" clip-path="url(#pdb39f1d634)" style="fill: #d3d3d3"/>
   </g>
   <g id="patch_11">
    <path d="M -315.375625 288.430125 
L -308.400625 288.430125 
L -308.400625 22.318125 
L -315.375625 22.318125 
z
" clip-path="url(#pdb39f1d634)" style="fill: #d3d3d3"/>
   </g>
   <g id="patch_12">
    <path d="M -300.030625 288.430125 
L -291.660625 288.430125 
L -291.660625 22.318125 
L -300.030625 22.318125 
z
" clip-path="url(#pdb39f1d634)" style="fill: #d3d3d3"/>
   </g>
   <g id="patch_13">
    <path d="M -279.105625 288.430125 
L -272.130625 288.430125 
L -272.130625 22.318125 
L -279.105625 22.318125 
z
" clip-path="url(#pdb39f1d634)" style="fill: #d3d3d3"/>
   </g>
   <g id="patch_14">
    <path d="M -260.970625 288.430125 
L -251.205625 288.430125 
L -251.205625 22.318125 
L -260.970625 22.318125 
z
" clip-path="url(#pdb39f1d634)" style="fill: #d3d3d3"/>
   </g>
   <g id="patch_15">
    <path d="M -235.860625 288.430125 
L -230.280625 288.430125 
L -230.280625 22.318125 
L -235.860625 22.318125 
z
" clip-path="url(#pdb39f1d634)" style="fill: #d3d3d3"/>
   </g>
   <g id="patch_16">
    <path d="M -220.515625 288.430125 
L -210.750625 288.430125 
L -210.750625 22.318125 
L -220.515625 22.318125 
z
" clip-path="url(#pdb39f1d634)" style="fill: #d3d3d3"/>
   </g>
   <g id="patch_17">
    <path d="M -203.775625 288.430125 
L -194.010625 288.430125 
L -194.010625 22.318125 
L -203.775625 22.318125 
z
" clip-path="url(#pdb39f1d634)" style="fill: #d3d3d3"/>
   </g>
   <g id="patch_18">
    <path d="M -173.085625 288.430125 
L -170.295625 288.430125 
L -170.295625 22.318125 
L -173.085625 22.318125 
z
" clip-path="url(#pdb39f1d634)" style="fill: #d3d3d3"/>
   </g>
   <g id="patch_19">
    <path d="M -164.715625 288.430125 
L -156.345625 288.430125 
L -156.345625 22.318125 
L -164.715625 22.318125 
z
" clip-path="url(#pdb39f1d634)" style="fill: #d3d3d3"/>
   </g>
   <g id="patch_20">
    <path d="M -146.580625 288.430125 
L -139.605625 288.430125 
L -139.605625 22.318125 
L -146.580625 22.318125 
z
" clip-path="url(#pdb39f1d634)" style="fill: #d3d3d3"/>
   </g>
   <g id="patch_21">
    <path d="M -128.445625 288.430125 
L -121.470625 288.430125 
L -121.470625 22.318125 
L -128.445625 22.318125 
z
" clip-path="url(#pdb39f1d634)" style="fill: #d3d3d3"/>
   </g>
   <g id="patch_22">
    <path d="M -111.705625 288.430125 
L -92.175625 288.430125 
L -92.175625 22.318125 
L -111.705625 22.318125 
z
" clip-path="url(#pdb39f1d634)" style="fill: #d3d3d3"/>
   </g>
   <g id="patch_23">
    <path d="M -68.460625 288.430125 
L -62.880625 288.430125 
L -62.880625 22.318125 
L -68.460625 22.318125 
z
" clip-path="url(#pdb39f1d634)" style="fill: #d3d3d3"/>
   </g>
   <g id="patch_24">
    <path d="M -25.215625 288.430125 
L -21.030625 288.430125 
L -21.030625 22.318125 
L -25.215625 22.318125 
z
" clip-path="url(#pdb39f1d634)" style="fill: #d3d3d3"/>
   </g>
   <g id="patch_25">
    <path d="M -4.290625 288.430125 
L 1.289375 288.430125 
L 1.289375 22.318125 
L -4.290625 22.318125 
z
" clip-path="url(#pdb39f1d634)" style="fill: #d3d3d3"/>
   </g>
   <g id="patch_26">
    <path d="M 20.819375 288.430125 
L 26.399375 288.430125 
L 26.399375 22.318125 
L 20.819375 22.318125 
z
" clip-path="url(#pdb39f1d634)" style="fill: #d3d3d3"/>
   </g>
   <g id="patch_27">
    <path d="M 44.534375 288.430125 
L 48.719375 288.430125 
L 48.719375 22.318125 
L 44.534375 22.318125 
z
" clip-path="url(#pdb39f1d634)" style="fill: #d3d3d3"/>
   </g>
   <g id="patch_28">
    <path d="M 59.879375 288.430125 
L 64.064375 288.430125 
L 64.064375 22.318125 
L 59.879375 22.318125 
z
" clip-path="url(#pdb39f1d634)" style="fill: #d3d3d3"/>
   </g>
   <g id="patch_29">
    <path d="M 112.889375 288.430125 
L 118.469375 288.430125 
L 118.469375 22.318125 
L 112.889375 22.318125 
z
" clip-path="url(#pdb39f1d634)" style="fill: #d3d3d3"/>
   </g>
   <g id="patch_30">
    <path d="M 135.209375 288.430125 
L 142.184375 288.430125 
L 142.184375 22.318125 
L 135.209375 22.318125 
z
" clip-path="url(#pdb39f1d634)" style="fill: #d3d3d3"/>
   </g>
   <g id="patch_31">
    <path d="M 170.084375 288.430125 
L 172.874375 288.430125 
L 172.874375 22.318125 
L 170.084375 22.318125 
z
" clip-path="url(#pdb39f1d634)" style="fill: #d3d3d3"/>
   </g>
   <g id="patch_32">
    <path d="M 178.454375 288.430125 
L 185.429375 288.430125 
L 185.429375 22.318125 
L 178.454375 22.318125 
z
" clip-path="url(#pdb39f1d634)" style="fill: #d3d3d3"/>
   </g>
   <g id="patch_33">
    <path d="M 228.674375 288.430125 
L 231.464375 288.430125 
L 231.464375 22.318125 
L 228.674375 22.318125 
z
" clip-path="url(#pdb39f1d634)" style="fill: #d3d3d3"/>
   </g>
   <g id="patch_34">
    <path d="M 287.264375 288.430125 
L 291.449375 288.430125 
L 291.449375 22.318125 
L 287.264375 22.318125 
z
" clip-path="url(#pdb39f1d634)" style="fill: #d3d3d3"/>
   </g>
   <g id="patch_35">
    <path d="M 324.929375 288.430125 
L 333.299375 288.430125 
L 333.299375 22.318125 
L 324.929375 22.318125 
z
" clip-path="url(#pdb39f1d634)" style="fill: #d3d3d3"/>
   </g>
   <g id="patch_36">
    <path d="M 391.889375 288.430125 
L 394.679375 288.430125 
L 394.679375 22.318125 
L 391.889375 22.318125 
z
" clip-path="url(#pdb39f1d634)" style="fill: #d3d3d3"/>
   </g>
   <g id="matplotlib.axis_1">
    <g id="xtick_1">
     <g id="line2d_1">
      <defs>
       <path id="m121ed5e755" d="M 0 0 
L 0 3.5 
" style="stroke: #000000; stroke-width: 0.8"/>
      </defs>
      <g>
       <use xlink:href="#m121ed5e755" x="108.704375" y="288.430125" style="stroke: #000000; stroke-width: 0.8"/>
      </g>
     </g>
     <g id="text_1">
      <!-- 1969 -->
      <g transform="translate(95.979375 303.028562) scale(0.1 -0.1)">
       <defs>
        <path id="DejaVuSerif-31" d="M 909 0 
L 909 331 
L 1722 331 
L 1722 4213 
L 781 3603 
L 781 4013 
L 1919 4750 
L 2350 4750 
L 2350 331 
L 3163 331 
L 3163 0 
L 909 0 
z
" transform="scale(0.015625)"/>
        <path id="DejaVuSerif-39" d="M 2994 2091 
Q 2784 1856 2512 1740 
Q 2241 1625 1900 1625 
Q 1206 1625 804 2044 
Q 403 2463 403 3188 
Q 403 3897 839 4323 
Q 1275 4750 2003 4750 
Q 2794 4750 3217 4161 
Q 3641 3572 3641 2478 
Q 3641 1253 3137 581 
Q 2634 -91 1722 -91 
Q 1475 -91 1203 -44 
Q 931 3 647 97 
L 647 872 
L 997 872 
Q 1038 556 1241 387 
Q 1444 219 1784 219 
Q 2391 219 2687 676 
Q 2984 1134 2994 2091 
z
M 1978 4441 
Q 1534 4441 1298 4117 
Q 1063 3794 1063 3188 
Q 1063 2581 1298 2256 
Q 1534 1931 1978 1931 
Q 2422 1931 2658 2245 
Q 2894 2559 2894 3150 
Q 2894 3772 2656 4106 
Q 2419 4441 1978 4441 
z
" transform="scale(0.015625)"/>
        <path id="DejaVuSerif-36" d="M 2094 219 
Q 2534 219 2771 542 
Q 3009 866 3009 1472 
Q 3009 2078 2771 2401 
Q 2534 2725 2094 2725 
Q 1647 2725 1412 2412 
Q 1178 2100 1178 1509 
Q 1178 888 1415 553 
Q 1653 219 2094 219 
z
M 1075 2569 
Q 1288 2803 1556 2918 
Q 1825 3034 2163 3034 
Q 2859 3034 3264 2615 
Q 3669 2197 3669 1472 
Q 3669 763 3233 336 
Q 2797 -91 2069 -91 
Q 1278 -91 853 498 
Q 428 1088 428 2181 
Q 428 3406 931 4078 
Q 1434 4750 2350 4750 
Q 2597 4750 2869 4703 
Q 3141 4656 3425 4563 
L 3425 3794 
L 3072 3794 
Q 3034 4109 2831 4275 
Q 2628 4441 2284 4441 
Q 1678 4441 1381 3981 
Q 1084 3522 1075 2569 
z
" transform="scale(0.015625)"/>
       </defs>
       <use xlink:href="#DejaVuSerif-31"/>
       <use xlink:href="#DejaVuSerif-39" x="63.623047"/>
       <use xlink:href="#DejaVuSerif-36" x="127.246094"/>
       <use xlink:href="#DejaVuSerif-39" x="190.869141"/>
      </g>
     </g>
    </g>
    <g id="xtick_2">
     <g id="line2d_2">
      <g>
       <use xlink:href="#m121ed5e755" x="164.504375" y="288.430125" style="stroke: #000000; stroke-width: 0.8"/>
      </g>
     </g>
     <g id="text_2">
      <!-- 1979 -->
      <g transform="translate(151.779375 303.028562) scale(0.1 -0.1)">
       <defs>
        <path id="DejaVuSerif-37" d="M 3609 4347 
L 1784 0 
L 1319 0 
L 3059 4153 
L 903 4153 
L 903 3578 
L 538 3578 
L 538 4666 
L 3609 4666 
L 3609 4347 
z
" transform="scale(0.015625)"/>
       </defs>
       <use xlink:href="#DejaVuSerif-31"/>
       <use xlink:href="#DejaVuSerif-39" x="63.623047"/>
       <use xlink:href="#DejaVuSerif-37" x="127.246094"/>
       <use xlink:href="#DejaVuSerif-39" x="190.869141"/>
      </g>
     </g>
    </g>
    <g id="xtick_3">
     <g id="line2d_3">
      <g>
       <use xlink:href="#m121ed5e755" x="220.304375" y="288.430125" style="stroke: #000000; stroke-width: 0.8"/>
      </g>
     </g>
     <g id="text_3">
      <!-- 1989 -->
      <g transform="translate(207.579375 303.028562) scale(0.1 -0.1)">
       <defs>
        <path id="DejaVuSerif-38" d="M 2981 1275 
Q 2981 1775 2732 2051 
Q 2484 2328 2034 2328 
Q 1584 2328 1336 2051 
Q 1088 1775 1088 1275 
Q 1088 772 1336 495 
Q 1584 219 2034 219 
Q 2484 219 2732 495 
Q 2981 772 2981 1275 
z
M 2853 3541 
Q 2853 3966 2637 4203 
Q 2422 4441 2034 4441 
Q 1650 4441 1433 4203 
Q 1216 3966 1216 3541 
Q 1216 3113 1433 2875 
Q 1650 2638 2034 2638 
Q 2422 2638 2637 2875 
Q 2853 3113 2853 3541 
z
M 2516 2484 
Q 3047 2413 3344 2092 
Q 3641 1772 3641 1275 
Q 3641 619 3225 264 
Q 2809 -91 2034 -91 
Q 1263 -91 845 264 
Q 428 619 428 1275 
Q 428 1772 725 2092 
Q 1022 2413 1556 2484 
Q 1084 2569 832 2842 
Q 581 3116 581 3541 
Q 581 4103 968 4426 
Q 1356 4750 2034 4750 
Q 2713 4750 3100 4426 
Q 3488 4103 3488 3541 
Q 3488 3116 3236 2842 
Q 2984 2569 2516 2484 
z
" transform="scale(0.015625)"/>
       </defs>
       <use xlink:href="#DejaVuSerif-31"/>
       <use xlink:href="#DejaVuSerif-39" x="63.623047"/>
       <use xlink:href="#DejaVuSerif-38" x="127.246094"/>
       <use xlink:href="#DejaVuSerif-39" x="190.869141"/>
      </g>
     </g>
    </g>
    <g id="xtick_4">
     <g id="line2d_4">
      <g>
       <use xlink:href="#m121ed5e755" x="276.104375" y="288.430125" style="stroke: #000000; stroke-width: 0.8"/>
      </g>
     </g>
     <g id="text_4">
      <!-- 1999 -->
      <g transform="translate(263.379375 303.028562) scale(0.1 -0.1)">
       <use xlink:href="#DejaVuSerif-31"/>
       <use xlink:href="#DejaVuSerif-39" x="63.623047"/>
       <use xlink:href="#DejaVuSerif-39" x="127.246094"/>
       <use xlink:href="#DejaVuSerif-39" x="190.869141"/>
      </g>
     </g>
    </g>
    <g id="xtick_5">
     <g id="line2d_5">
      <g>
       <use xlink:href="#m121ed5e755" x="331.904375" y="288.430125" style="stroke: #000000; stroke-width: 0.8"/>
      </g>
     </g>
     <g id="text_5">
      <!-- 2009 -->
      <g transform="translate(319.179375 303.028562) scale(0.1 -0.1)">
       <defs>
        <path id="DejaVuSerif-32" d="M 819 3553 
L 469 3553 
L 469 4384 
Q 803 4563 1142 4656 
Q 1481 4750 1806 4750 
Q 2534 4750 2956 4397 
Q 3378 4044 3378 3438 
Q 3378 2753 2422 1800 
Q 2347 1728 2309 1691 
L 1131 513 
L 3078 513 
L 3078 1088 
L 3444 1088 
L 3444 0 
L 434 0 
L 434 341 
L 1850 1753 
Q 2319 2222 2519 2614 
Q 2719 3006 2719 3438 
Q 2719 3909 2473 4175 
Q 2228 4441 1797 4441 
Q 1350 4441 1106 4219 
Q 863 3997 819 3553 
z
" transform="scale(0.015625)"/>
        <path id="DejaVuSerif-30" d="M 2034 219 
Q 2513 219 2750 744 
Q 2988 1269 2988 2328 
Q 2988 3391 2750 3916 
Q 2513 4441 2034 4441 
Q 1556 4441 1318 3916 
Q 1081 3391 1081 2328 
Q 1081 1269 1318 744 
Q 1556 219 2034 219 
z
M 2034 -91 
Q 1275 -91 848 546 
Q 422 1184 422 2328 
Q 422 3475 848 4112 
Q 1275 4750 2034 4750 
Q 2797 4750 3222 4112 
Q 3647 3475 3647 2328 
Q 3647 1184 3222 546 
Q 2797 -91 2034 -91 
z
" transform="scale(0.015625)"/>
       </defs>
       <use xlink:href="#DejaVuSerif-32"/>
       <use xlink:href="#DejaVuSerif-30" x="63.623047"/>
       <use xlink:href="#DejaVuSerif-30" x="127.246094"/>
       <use xlink:href="#DejaVuSerif-39" x="190.869141"/>
      </g>
     </g>
    </g>
    <g id="xtick_6">
     <g id="line2d_6">
      <g>
       <use xlink:href="#m121ed5e755" x="387.704375" y="288.430125" style="stroke: #000000; stroke-width: 0.8"/>
      </g>
     </g>
     <g id="text_6">
      <!-- 2019 -->
      <g transform="translate(374.979375 303.028562) scale(0.1 -0.1)">
       <use xlink:href="#DejaVuSerif-32"/>
       <use xlink:href="#DejaVuSerif-30" x="63.623047"/>
       <use xlink:href="#DejaVuSerif-31" x="127.246094"/>
       <use xlink:href="#DejaVuSerif-39" x="190.869141"/>
      </g>
     </g>
    </g>
    <g id="xtick_7">
     <g id="line2d_7">
      <defs>
       <path id="m4910573d4f" d="M 0 0 
L 0 2 
" style="stroke: #000000; stroke-width: 0.6"/>
      </defs>
      <g>
       <use xlink:href="#m4910573d4f" x="80.804375" y="288.430125" style="stroke: #000000; stroke-width: 0.6"/>
      </g>
     </g>
    </g>
    <g id="xtick_8">
     <g id="line2d_8">
      <g>
       <use xlink:href="#m4910573d4f" x="136.604375" y="288.430125" style="stroke: #000000; stroke-width: 0.6"/>
      </g>
     </g>
    </g>
    <g id="xtick_9">
     <g id="line2d_9">
      <g>
       <use xlink:href="#m4910573d4f" x="192.404375" y="288.430125" style="stroke: #000000; stroke-width: 0.6"/>
      </g>
     </g>
    </g>
    <g id="xtick_10">
     <g id="line2d_10">
      <g>
       <use xlink:href="#m4910573d4f" x="248.204375" y="288.430125" style="stroke: #000000; stroke-width: 0.6"/>
      </g>
     </g>
    </g>
    <g id="xtick_11">
     <g id="line2d_11">
      <g>
       <use xlink:href="#m4910573d4f" x="304.004375" y="288.430125" style="stroke: #000000; stroke-width: 0.6"/>
      </g>
     </g>
    </g>
    <g id="xtick_12">
     <g id="line2d_12">
      <g>
       <use xlink:href="#m4910573d4f" x="359.804375" y="288.430125" style="stroke: #000000; stroke-width: 0.6"/>
      </g>
     </g>
    </g>
    <g id="xtick_13">
     <g id="line2d_13">
      <g>
       <use xlink:href="#m4910573d4f" x="415.604375" y="288.430125" style="stroke: #000000; stroke-width: 0.6"/>
      </g>
     </g>
    </g>
   </g>
   <g id="matplotlib.axis_2">
    <g id="ytick_1">
     <g id="line2d_14">
      <path d="M 58.484375 284.430739 
L 415.604375 284.430739 
" clip-path="url(#pdb39f1d634)" style="fill: none; stroke-dasharray: 2.96,1.28; stroke-dashoffset: 0; stroke: #b0b0b0; stroke-width: 0.8"/>
     </g>
     <g id="line2d_15">
      <defs>
       <path id="m3743a27905" d="M 0 0 
L -3.5 0 
" style="stroke: #000000; stroke-width: 0.8"/>
      </defs>
      <g>
       <use xlink:href="#m3743a27905" x="58.484375" y="284.430739" style="stroke: #000000; stroke-width: 0.8"/>
      </g>
     </g>
     <g id="text_7">
      <!-- −20% -->
      <g transform="translate(20.878125 288.229957) scale(0.1 -0.1)">
       <defs>
        <path id="DejaVuSerif-2212" d="M 678 2259 
L 4684 2259 
L 4684 1753 
L 678 1753 
L 678 2259 
z
" transform="scale(0.015625)"/>
        <path id="DejaVuSerif-25" d="M 1434 4459 
Q 1159 4459 1004 4200 
Q 850 3941 850 3475 
Q 850 3016 1008 2753 
Q 1166 2491 1434 2491 
Q 1700 2491 1854 2752 
Q 2009 3013 2009 3475 
Q 2009 3938 1854 4198 
Q 1700 4459 1434 4459 
z
M 4653 2169 
Q 4381 2169 4226 1906 
Q 4072 1644 4072 1178 
Q 4072 719 4228 458 
Q 4384 197 4653 197 
Q 4922 197 5075 458 
Q 5228 719 5228 1178 
Q 5228 1641 5073 1905 
Q 4919 2169 4653 2169 
z
M 4653 2450 
Q 5147 2450 5437 2106 
Q 5728 1763 5728 1178 
Q 5728 594 5436 251 
Q 5144 -91 4653 -91 
Q 4153 -91 3862 251 
Q 3572 594 3572 1178 
Q 3572 1766 3864 2108 
Q 4156 2450 4653 2450 
z
M 4263 4750 
L 4738 4750 
L 1819 -91 
L 1344 -91 
L 4263 4750 
z
M 1428 4750 
Q 1922 4750 2215 4408 
Q 2509 4066 2509 3481 
Q 2509 2891 2217 2550 
Q 1925 2209 1428 2209 
Q 931 2209 642 2551 
Q 353 2894 353 3481 
Q 353 4063 643 4406 
Q 934 4750 1428 4750 
z
" transform="scale(0.015625)"/>
       </defs>
       <use xlink:href="#DejaVuSerif-2212"/>
       <use xlink:href="#DejaVuSerif-32" x="83.789062"/>
       <use xlink:href="#DejaVuSerif-30" x="147.412109"/>
       <use xlink:href="#DejaVuSerif-25" x="211.035156"/>
      </g>
     </g>
    </g>
    <g id="ytick_2">
     <g id="line2d_16">
      <path d="M 58.484375 246.738816 
L 415.604375 246.738816 
" clip-path="url(#pdb39f1d634)" style="fill: none; stroke-dasharray: 2.96,1.28; stroke-dashoffset: 0; stroke: #b0b0b0; stroke-width: 0.8"/>
     </g>
     <g id="line2d_17">
      <g>
       <use xlink:href="#m3743a27905" x="58.484375" y="246.738816" style="stroke: #000000; stroke-width: 0.8"/>
      </g>
     </g>
     <g id="text_8">
      <!-- 0% -->
      <g transform="translate(35.620313 250.538035) scale(0.1 -0.1)">
       <use xlink:href="#DejaVuSerif-30"/>
       <use xlink:href="#DejaVuSerif-25" x="63.623047"/>
      </g>
     </g>
    </g>
    <g id="ytick_3">
     <g id="line2d_18">
      <path d="M 58.484375 209.046894 
L 415.604375 209.046894 
" clip-path="url(#pdb39f1d634)" style="fill: none; stroke-dasharray: 2.96,1.28; stroke-dashoffset: 0; stroke: #b0b0b0; stroke-width: 0.8"/>
     </g>
     <g id="line2d_19">
      <g>
       <use xlink:href="#m3743a27905" x="58.484375" y="209.046894" style="stroke: #000000; stroke-width: 0.8"/>
      </g>
     </g>
     <g id="text_9">
      <!-- 20% -->
      <g transform="translate(29.257813 212.846112) scale(0.1 -0.1)">
       <use xlink:href="#DejaVuSerif-32"/>
       <use xlink:href="#DejaVuSerif-30" x="63.623047"/>
       <use xlink:href="#DejaVuSerif-25" x="127.246094"/>
      </g>
     </g>
    </g>
    <g id="ytick_4">
     <g id="line2d_20">
      <path d="M 58.484375 171.354971 
L 415.604375 171.354971 
" clip-path="url(#pdb39f1d634)" style="fill: none; stroke-dasharray: 2.96,1.28; stroke-dashoffset: 0; stroke: #b0b0b0; stroke-width: 0.8"/>
     </g>
     <g id="line2d_21">
      <g>
       <use xlink:href="#m3743a27905" x="58.484375" y="171.354971" style="stroke: #000000; stroke-width: 0.8"/>
      </g>
     </g>
     <g id="text_10">
      <!-- 40% -->
      <g transform="translate(29.257813 175.15419) scale(0.1 -0.1)">
       <defs>
        <path id="DejaVuSerif-34" d="M 2234 1581 
L 2234 4063 
L 641 1581 
L 2234 1581 
z
M 3609 0 
L 1484 0 
L 1484 331 
L 2234 331 
L 2234 1247 
L 197 1247 
L 197 1588 
L 2241 4750 
L 2859 4750 
L 2859 1581 
L 3750 1581 
L 3750 1247 
L 2859 1247 
L 2859 331 
L 3609 331 
L 3609 0 
z
" transform="scale(0.015625)"/>
       </defs>
       <use xlink:href="#DejaVuSerif-34"/>
       <use xlink:href="#DejaVuSerif-30" x="63.623047"/>
       <use xlink:href="#DejaVuSerif-25" x="127.246094"/>
      </g>
     </g>
    </g>
    <g id="ytick_5">
     <g id="line2d_22">
      <path d="M 58.484375 133.663049 
L 415.604375 133.663049 
" clip-path="url(#pdb39f1d634)" style="fill: none; stroke-dasharray: 2.96,1.28; stroke-dashoffset: 0; stroke: #b0b0b0; stroke-width: 0.8"/>
     </g>
     <g id="line2d_23">
      <g>
       <use xlink:href="#m3743a27905" x="58.484375" y="133.663049" style="stroke: #000000; stroke-width: 0.8"/>
      </g>
     </g>
     <g id="text_11">
      <!-- 60% -->
      <g transform="translate(29.257813 137.462267) scale(0.1 -0.1)">
       <use xlink:href="#DejaVuSerif-36"/>
       <use xlink:href="#DejaVuSerif-30" x="63.623047"/>
       <use xlink:href="#DejaVuSerif-25" x="127.246094"/>
      </g>
     </g>
    </g>
    <g id="ytick_6">
     <g id="line2d_24">
      <path d="M 58.484375 95.971126 
L 415.604375 95.971126 
" clip-path="url(#pdb39f1d634)" style="fill: none; stroke-dasharray: 2.96,1.28; stroke-dashoffset: 0; stroke: #b0b0b0; stroke-width: 0.8"/>
     </g>
     <g id="line2d_25">
      <g>
       <use xlink:href="#m3743a27905" x="58.484375" y="95.971126" style="stroke: #000000; stroke-width: 0.8"/>
      </g>
     </g>
     <g id="text_12">
      <!-- 80% -->
      <g transform="translate(29.257813 99.770345) scale(0.1 -0.1)">
       <use xlink:href="#DejaVuSerif-38"/>
       <use xlink:href="#DejaVuSerif-30" x="63.623047"/>
       <use xlink:href="#DejaVuSerif-25" x="127.246094"/>
      </g>
     </g>
    </g>
    <g id="ytick_7">
     <g id="line2d_26">
      <path d="M 58.484375 58.279204 
L 415.604375 58.279204 
" clip-path="url(#pdb39f1d634)" style="fill: none; stroke-dasharray: 2.96,1.28; stroke-dashoffset: 0; stroke: #b0b0b0; stroke-width: 0.8"/>
     </g>
     <g id="line2d_27">
      <g>
       <use xlink:href="#m3743a27905" x="58.484375" y="58.279204" style="stroke: #000000; stroke-width: 0.8"/>
      </g>
     </g>
     <g id="text_13">
      <!-- 100% -->
      <g transform="translate(22.895313 62.078422) scale(0.1 -0.1)">
       <use xlink:href="#DejaVuSerif-31"/>
       <use xlink:href="#DejaVuSerif-30" x="63.623047"/>
       <use xlink:href="#DejaVuSerif-30" x="127.246094"/>
       <use xlink:href="#DejaVuSerif-25" x="190.869141"/>
      </g>
     </g>
    </g>
    <g id="text_14">
     <!-- Cambio anual -->
     <g transform="translate(14.798438 190.324125) rotate(-90) scale(0.1 -0.1)">
      <defs>
       <path id="DejaVuSerif-43" d="M 4513 1234 
Q 4306 581 3820 245 
Q 3334 -91 2591 -91 
Q 2134 -91 1743 65 
Q 1353 222 1050 525 
Q 700 875 529 1320 
Q 359 1766 359 2328 
Q 359 3416 987 4083 
Q 1616 4750 2644 4750 
Q 3025 4750 3456 4650 
Q 3888 4550 4384 4347 
L 4384 3272 
L 4031 3272 
Q 3916 3859 3567 4137 
Q 3219 4416 2591 4416 
Q 1844 4416 1459 3886 
Q 1075 3356 1075 2328 
Q 1075 1303 1459 773 
Q 1844 244 2591 244 
Q 3113 244 3450 492 
Q 3788 741 3938 1234 
L 4513 1234 
z
" transform="scale(0.015625)"/>
       <path id="DejaVuSerif-61" d="M 2547 1044 
L 2547 1747 
L 1806 1747 
Q 1378 1747 1168 1562 
Q 959 1378 959 997 
Q 959 650 1171 447 
Q 1384 244 1747 244 
Q 2106 244 2326 466 
Q 2547 688 2547 1044 
z
M 3122 2075 
L 3122 331 
L 3634 331 
L 3634 0 
L 2547 0 
L 2547 359 
Q 2356 128 2106 18 
Q 1856 -91 1522 -91 
Q 969 -91 644 203 
Q 319 497 319 997 
Q 319 1513 691 1797 
Q 1063 2081 1741 2081 
L 2547 2081 
L 2547 2309 
Q 2547 2688 2317 2895 
Q 2088 3103 1672 3103 
Q 1328 3103 1125 2947 
Q 922 2791 872 2484 
L 575 2484 
L 575 3156 
Q 875 3284 1158 3348 
Q 1441 3413 1709 3413 
Q 2400 3413 2761 3070 
Q 3122 2728 3122 2075 
z
" transform="scale(0.015625)"/>
       <path id="DejaVuSerif-6d" d="M 3316 2675 
Q 3481 3041 3739 3227 
Q 3997 3413 4341 3413 
Q 4863 3413 5119 3089 
Q 5375 2766 5375 2113 
L 5375 331 
L 5894 331 
L 5894 0 
L 4300 0 
L 4300 331 
L 4800 331 
L 4800 2047 
Q 4800 2556 4650 2772 
Q 4500 2988 4153 2988 
Q 3769 2988 3567 2697 
Q 3366 2406 3366 1850 
L 3366 331 
L 3866 331 
L 3866 0 
L 2291 0 
L 2291 331 
L 2791 331 
L 2791 2069 
Q 2791 2566 2641 2777 
Q 2491 2988 2144 2988 
Q 1759 2988 1557 2697 
Q 1356 2406 1356 1850 
L 1356 331 
L 1856 331 
L 1856 0 
L 263 0 
L 263 331 
L 781 331 
L 781 2994 
L 231 2994 
L 231 3322 
L 1356 3322 
L 1356 2731 
Q 1516 3063 1762 3238 
Q 2009 3413 2322 3413 
Q 2709 3413 2968 3220 
Q 3228 3028 3316 2675 
z
" transform="scale(0.015625)"/>
       <path id="DejaVuSerif-62" d="M 738 331 
L 738 4531 
L 184 4531 
L 184 4863 
L 1313 4863 
L 1313 2803 
Q 1481 3116 1742 3264 
Q 2003 3413 2388 3413 
Q 3000 3413 3387 2928 
Q 3775 2444 3775 1663 
Q 3775 881 3387 395 
Q 3000 -91 2388 -91 
Q 2003 -91 1742 57 
Q 1481 206 1313 519 
L 1313 0 
L 184 0 
L 184 331 
L 738 331 
z
M 1313 1497 
Q 1313 897 1542 583 
Q 1772 269 2209 269 
Q 2650 269 2876 622 
Q 3103 975 3103 1663 
Q 3103 2353 2876 2703 
Q 2650 3053 2209 3053 
Q 1772 3053 1542 2737 
Q 1313 2422 1313 1825 
L 1313 1497 
z
" transform="scale(0.015625)"/>
       <path id="DejaVuSerif-69" d="M 622 4353 
Q 622 4497 726 4603 
Q 831 4709 978 4709 
Q 1122 4709 1226 4603 
Q 1331 4497 1331 4353 
Q 1331 4206 1228 4103 
Q 1125 4000 978 4000 
Q 831 4000 726 4103 
Q 622 4206 622 4353 
z
M 1356 331 
L 1900 331 
L 1900 0 
L 231 0 
L 231 331 
L 781 331 
L 781 2988 
L 231 2988 
L 231 3322 
L 1356 3322 
L 1356 331 
z
" transform="scale(0.015625)"/>
       <path id="DejaVuSerif-6f" d="M 1925 219 
Q 2388 219 2623 584 
Q 2859 950 2859 1663 
Q 2859 2375 2623 2739 
Q 2388 3103 1925 3103 
Q 1463 3103 1227 2739 
Q 991 2375 991 1663 
Q 991 950 1228 584 
Q 1466 219 1925 219 
z
M 1925 -91 
Q 1200 -91 759 389 
Q 319 869 319 1663 
Q 319 2456 758 2934 
Q 1197 3413 1925 3413 
Q 2653 3413 3092 2934 
Q 3531 2456 3531 1663 
Q 3531 869 3092 389 
Q 2653 -91 1925 -91 
z
" transform="scale(0.015625)"/>
       <path id="DejaVuSerif-20" transform="scale(0.015625)"/>
       <path id="DejaVuSerif-6e" d="M 263 0 
L 263 331 
L 781 331 
L 781 2988 
L 231 2988 
L 231 3322 
L 1356 3322 
L 1356 2731 
Q 1516 3069 1770 3241 
Q 2025 3413 2363 3413 
Q 2913 3413 3172 3097 
Q 3431 2781 3431 2113 
L 3431 331 
L 3944 331 
L 3944 0 
L 2356 0 
L 2356 331 
L 2853 331 
L 2853 1931 
Q 2853 2541 2703 2767 
Q 2553 2994 2175 2994 
Q 1775 2994 1565 2701 
Q 1356 2409 1356 1850 
L 1356 331 
L 1856 331 
L 1856 0 
L 263 0 
z
" transform="scale(0.015625)"/>
       <path id="DejaVuSerif-75" d="M 2266 3322 
L 3341 3322 
L 3341 331 
L 3884 331 
L 3884 0 
L 2766 0 
L 2766 588 
Q 2606 256 2353 82 
Q 2100 -91 1766 -91 
Q 1213 -91 952 223 
Q 691 538 691 1209 
L 691 2988 
L 172 2988 
L 172 3322 
L 1269 3322 
L 1269 1388 
Q 1269 781 1417 556 
Q 1566 331 1947 331 
Q 2347 331 2556 625 
Q 2766 919 2766 1478 
L 2766 2988 
L 2266 2988 
L 2266 3322 
z
" transform="scale(0.015625)"/>
       <path id="DejaVuSerif-6c" d="M 1313 331 
L 1856 331 
L 1856 0 
L 184 0 
L 184 331 
L 738 331 
L 738 4531 
L 184 4531 
L 184 4863 
L 1313 4863 
L 1313 331 
z
" transform="scale(0.015625)"/>
      </defs>
      <use xlink:href="#DejaVuSerif-43"/>
      <use xlink:href="#DejaVuSerif-61" x="76.513672"/>
      <use xlink:href="#DejaVuSerif-6d" x="136.132812"/>
      <use xlink:href="#DejaVuSerif-62" x="230.957031"/>
      <use xlink:href="#DejaVuSerif-69" x="294.970703"/>
      <use xlink:href="#DejaVuSerif-6f" x="326.953125"/>
      <use xlink:href="#DejaVuSerif-20" x="387.158203"/>
      <use xlink:href="#DejaVuSerif-61" x="418.945312"/>
      <use xlink:href="#DejaVuSerif-6e" x="478.564453"/>
      <use xlink:href="#DejaVuSerif-75" x="542.96875"/>
      <use xlink:href="#DejaVuSerif-61" x="607.373047"/>
      <use xlink:href="#DejaVuSerif-6c" x="666.992188"/>
     </g>
    </g>
   </g>
   <g id="line2d_28">
    <path d="M 58.484375 245.992441 
L 58.949375 247.495682 
L 59.414375 247.497205 
L 59.879375 248.243484 
L 60.344375 248.243484 
L 60.809375 247.86283 
L 61.274375 247.851767 
L 61.739375 248.225677 
L 62.204375 249.712538 
L 62.669375 248.969107 
L 63.134375 248.960344 
L 63.599375 252.959813 
L 64.064375 252.686259 
L 64.529375 251.298323 
L 64.994375 250.926807 
L 65.459375 251.289149 
L 65.924375 251.289149 
L 66.389375 250.884928 
L 66.854375 251.590252 
L 67.319375 250.485528 
L 67.784375 247.87184 
L 68.249375 247.114983 
L 68.714375 245.989474 
L 69.179375 241.062322 
L 69.644375 240.981394 
L 70.109375 241.287505 
L 70.574375 240.508746 
L 71.039375 239.355862 
L 71.504375 238.967286 
L 71.969375 239.030856 
L 72.434375 238.694808 
L 73.364375 240.279515 
L 73.829375 240.708108 
L 74.294375 243.753317 
L 74.759375 243.065139 
L 75.224375 243.014318 
L 75.689375 242.197621 
L 76.154375 242.215785 
L 76.619375 242.62561 
L 77.549375 241.925506 
L 78.014375 241.228301 
L 78.479375 241.585624 
L 78.944375 240.860933 
L 79.409375 241.260339 
L 79.874375 237.554624 
L 80.804375 237.242789 
L 81.269375 237.5006 
L 81.734375 237.168601 
L 82.664375 237.261157 
L 83.129375 236.990905 
L 83.594375 237.458608 
L 84.524375 236.051125 
L 84.989375 235.736466 
L 85.454375 236.229916 
L 85.919375 237.127033 
L 86.849375 236.170987 
L 87.314375 236.580212 
L 87.779375 236.288191 
L 88.244375 236.673754 
L 88.709375 236.783755 
L 89.174375 236.533422 
L 89.639375 237.213781 
L 90.104375 237.636116 
L 90.569375 237.014032 
L 91.034375 237.448553 
L 91.499375 235.960363 
L 91.964375 235.517053 
L 92.429375 235.73144 
L 92.894375 236.102647 
L 93.359375 235.517053 
L 93.824375 235.536671 
L 94.289375 235.979011 
L 94.754375 234.798738 
L 95.219375 235.405334 
L 95.684375 234.517886 
L 96.149375 235.577925 
L 96.614375 235.987764 
L 97.079375 236.85241 
L 97.544375 236.459201 
L 98.009375 235.708571 
L 98.474375 236.356233 
L 98.939375 238.016718 
L 99.404375 238.031111 
L 99.869375 237.793924 
L 100.334375 238.54492 
L 100.799375 237.575464 
L 101.264375 238.282295 
L 101.729375 236.804044 
L 102.194375 236.268838 
L 102.659375 236.170987 
L 103.124375 235.218558 
L 103.589375 235.12756 
L 104.519375 232.745764 
L 104.984375 232.767835 
L 105.449375 232.309877 
L 105.914375 232.488012 
L 106.379375 231.592139 
L 106.844375 232.864489 
L 107.309375 232.725886 
L 107.774375 232.002125 
L 108.239375 232.006722 
L 108.704375 232.263336 
L 109.169375 233.277415 
L 109.634375 234.733241 
L 110.099375 234.544371 
L 110.564375 232.071622 
L 111.494375 235.923343 
L 112.424375 236.508151 
L 112.889375 237.156124 
L 113.354375 236.487875 
L 113.819375 237.199821 
L 114.284375 237.690687 
L 114.749375 238.362833 
L 115.679375 236.586986 
L 116.144375 238.522593 
L 116.609375 238.020956 
L 117.074375 235.743208 
L 117.539375 235.502742 
L 118.004375 234.225915 
L 118.469375 235.846661 
L 118.934375 237.016693 
L 119.399375 236.432431 
L 120.329375 233.205812 
L 120.794375 232.973506 
L 121.259375 233.647912 
L 121.724375 232.469028 
L 122.189375 232.034555 
L 122.654375 231.758693 
L 123.584375 233.089263 
L 124.049375 232.370866 
L 124.514375 232.515449 
L 124.979375 233.244177 
L 125.444375 232.813229 
L 125.909375 233.878669 
L 126.839375 232.188625 
L 127.304375 232.787316 
L 128.234375 233.533214 
L 128.699375 233.293422 
L 129.164375 233.7878 
L 129.629375 231.831149 
L 130.094375 235.717786 
L 130.559375 236.751325 
L 131.024375 237.013263 
L 131.489375 237.545664 
L 132.419375 236.661908 
L 132.884375 236.943175 
L 133.349375 236.563269 
L 133.814375 235.234622 
L 134.279375 234.816288 
L 134.744375 234.2027 
L 135.209375 234.161096 
L 135.674375 230.495888 
L 136.139375 228.8001 
L 136.604375 228.858787 
L 137.069375 228.372874 
L 137.534375 229.154769 
L 138.464375 227.103389 
L 138.929375 226.826861 
L 139.394375 228.011135 
L 139.859375 228.640398 
L 140.324375 228.911555 
L 140.789375 230.888879 
L 141.254375 230.250996 
L 141.719375 230.735752 
L 142.184375 233.036075 
L 142.649375 234.567862 
L 143.114375 235.196611 
L 144.044375 239.039104 
L 144.509375 238.007097 
L 144.974375 238.848975 
L 145.904375 239.75883 
L 146.369375 239.606948 
L 146.834375 239.334416 
L 147.299375 238.929716 
L 147.764375 239.389416 
L 148.229375 237.628446 
L 148.694375 236.754201 
L 149.159375 235.621816 
L 149.624375 235.114204 
L 150.089375 236.307472 
L 150.554375 236.240153 
L 151.019375 235.68344 
L 151.484375 235.693564 
L 151.949375 234.88493 
L 152.414375 234.525412 
L 152.879375 234.741387 
L 153.344375 233.602221 
L 153.809375 234.470198 
L 154.274375 234.208707 
L 154.739375 234.241494 
L 155.204375 234.462398 
L 155.669375 234.548247 
L 156.134375 232.881492 
L 156.599375 232.543157 
L 157.064375 232.39241 
L 157.529375 232.030562 
L 157.994375 231.92331 
L 158.459375 231.699645 
L 158.924375 230.207271 
L 159.389375 229.300703 
L 159.854375 230.226769 
L 160.319375 230.174373 
L 160.784375 229.138869 
L 161.249375 228.480824 
L 161.714375 229.12293 
L 162.179375 230.047546 
L 162.644375 228.862422 
L 163.109375 228.897373 
L 163.574375 227.39069 
L 164.039375 225.266897 
L 164.504375 226.329595 
L 164.969375 227.848925 
L 165.434375 227.469514 
L 165.899375 227.77794 
L 166.364375 229.360076 
L 167.294375 229.517746 
L 167.759375 228.060127 
L 168.224375 228.197268 
L 168.689375 227.701108 
L 169.154375 229.192114 
L 169.619375 231.109823 
L 170.084375 231.458307 
L 170.549375 230.368384 
L 171.014375 229.91916 
L 171.479375 229.119669 
L 171.944375 229.262285 
L 172.409375 229.946664 
L 172.874375 231.723128 
L 173.339375 234.31012 
L 173.804375 234.3932 
L 174.269375 235.045612 
L 175.199375 238.680875 
L 175.664375 240.577636 
L 176.129375 240.493566 
L 177.059375 241.367896 
L 177.524375 240.413066 
L 177.989375 240.808684 
L 178.454375 239.5493 
L 178.919375 237.577585 
L 179.384375 240.472593 
L 179.849375 241.936551 
L 180.314375 240.689495 
L 180.779375 238.319262 
L 181.244375 236.561295 
L 181.709375 236.663931 
L 182.174375 239.190997 
L 182.639375 239.427883 
L 183.104375 238.886332 
L 183.569375 237.770024 
L 184.034375 238.337604 
L 184.499375 237.775355 
L 184.964375 236.783755 
L 185.429375 235.317021 
L 185.894375 235.129163 
L 186.359375 235.698417 
L 186.824375 236.638801 
L 187.289375 236.050062 
L 187.754375 234.152163 
L 189.149375 234.006542 
L 189.614375 233.805313 
L 190.079375 234.391462 
L 190.544375 234.240053 
L 191.009375 234.462018 
L 191.474375 234.422582 
L 191.939375 234.744983 
L 192.404375 233.676216 
L 192.869375 236.304329 
L 193.334375 234.196101 
L 193.799375 233.965442 
L 194.264375 234.895158 
L 194.729375 233.989775 
L 195.194375 234.33079 
L 195.659375 235.252335 
L 196.124375 233.488546 
L 196.589375 234.909538 
L 197.054375 235.277761 
L 197.519375 234.384024 
L 197.984375 235.015505 
L 198.449375 233.219765 
L 198.914375 233.184872 
L 199.379375 233.697646 
L 200.309375 232.775278 
L 200.774375 232.616273 
L 201.239375 231.313296 
L 201.704375 230.740223 
L 202.169375 229.709906 
L 203.099375 228.426578 
L 203.564375 229.58083 
L 204.029375 230.170938 
L 204.494375 229.352557 
L 204.959375 228.764079 
L 205.889375 228.897016 
L 206.354375 228.363338 
L 206.819375 228.672199 
L 207.284375 228.832081 
L 207.749375 228.416354 
L 208.214375 227.420633 
L 208.679375 226.69349 
L 209.144375 225.232149 
L 209.609375 225.366215 
L 210.074375 226.82032 
L 210.539375 226.226775 
L 211.004375 226.594282 
L 211.469375 228.064852 
L 211.934375 229.106114 
L 212.864375 229.744585 
L 213.329375 229.960344 
L 213.794375 230.852138 
L 214.259375 232.865884 
L 214.724375 232.013024 
L 215.189375 232.594631 
L 215.654375 232.419581 
L 216.119375 232.543941 
L 216.584375 233.051805 
L 217.049375 231.685893 
L 217.514375 231.20643 
L 217.979375 231.786404 
L 218.909375 234.106692 
L 219.374375 234.672804 
L 219.839375 234.80563 
L 220.769375 236.184499 
L 221.234375 235.720297 
L 221.699375 237.470311 
L 222.629375 239.424016 
L 223.559375 240.497977 
L 224.024375 240.712491 
L 224.489375 240.716868 
L 224.954375 240.933828 
L 225.419375 239.766209 
L 225.884375 239.459547 
L 226.349375 238.250261 
L 226.814375 237.545664 
L 227.279375 236.164733 
L 228.209375 234.781562 
L 228.674375 234.733338 
L 229.604375 230.812652 
L 230.069375 230.425985 
L 230.534375 229.778761 
L 231.464375 236.129524 
L 231.929375 234.161741 
L 232.394375 234.686166 
L 232.859375 236.156181 
L 233.324375 235.962451 
L 233.789375 236.494409 
L 234.254375 236.754612 
L 235.184375 238.294846 
L 235.649375 238.011574 
L 236.114375 237.907588 
L 236.579375 234.72474 
L 237.044375 232.433904 
L 237.509375 231.816794 
L 237.974375 231.897092 
L 238.439375 235.338839 
L 238.904375 234.626553 
L 239.369375 235.48219 
L 239.834375 234.724516 
L 241.229375 231.165088 
L 241.694375 230.957332 
L 242.159375 231.848596 
L 243.089375 230.635534 
L 243.554375 231.520534 
L 244.019375 226.540653 
L 244.484375 226.287145 
L 244.949375 225.103138 
L 245.414375 225.312885 
L 246.344375 226.203292 
L 246.809375 226.050282 
L 247.274375 227.622795 
L 247.739375 227.627272 
L 248.204375 227.297059 
L 248.669375 226.608499 
L 249.599375 227.269425 
L 250.064375 228.289291 
L 250.529375 228.785505 
L 250.994375 228.892074 
L 251.459375 229.718573 
L 252.389375 231.931969 
L 252.854375 231.787046 
L 253.784375 233.284183 
L 254.249375 234.897926 
L 254.714375 234.090204 
L 255.179375 234.418773 
L 255.644375 234.285946 
L 256.109375 236.116214 
L 256.574375 237.247717 
L 257.504375 237.969048 
L 257.969375 238.681909 
L 258.434375 239.612005 
L 258.899375 239.130062 
L 259.364375 239.884935 
L 259.829375 241.034671 
L 260.294375 241.098687 
L 260.759375 242.434894 
L 261.224375 242.830667 
L 262.154375 240.729207 
L 262.619375 240.074573 
L 263.549375 239.875537 
L 264.014375 239.056222 
L 264.479375 238.622117 
L 264.944375 237.864105 
L 265.409375 236.271241 
L 265.874375 237.412097 
L 266.339375 237.345588 
L 266.804375 236.528814 
L 267.269375 236.859885 
L 267.734375 236.976457 
L 268.664375 236.982279 
L 269.594375 235.35701 
L 270.059375 235.350181 
L 270.524375 235.044133 
L 271.919375 235.159987 
L 272.384375 235.3586 
L 272.849375 235.386311 
L 273.314375 235.067147 
L 273.779375 234.580131 
L 274.244375 233.577564 
L 274.709375 232.970257 
L 275.174375 233.632978 
L 275.639375 234.011773 
L 276.104375 232.658059 
L 277.499375 231.062455 
L 277.964375 229.460814 
L 278.894375 229.33331 
L 279.359375 229.382167 
L 279.824375 228.878507 
L 280.289375 227.584025 
L 280.754375 223.285903 
L 281.219375 215.91364 
L 281.684375 220.320912 
L 282.149375 228.265191 
L 282.614375 230.377256 
L 284.939375 235.801733 
L 285.404375 237.60015 
L 285.869375 239.863895 
L 286.334375 244.313547 
L 286.799375 251.108002 
L 287.264375 247.740761 
L 287.729375 240.902437 
L 288.194375 239.554426 
L 288.659375 239.214763 
L 289.589375 237.963463 
L 290.054375 236.480316 
L 290.519375 234.140385 
L 290.984375 226.272322 
L 291.449375 230.671612 
L 291.914375 231.031188 
L 292.844375 229.394362 
L 293.309375 228.174327 
L 293.774375 227.896001 
L 294.239375 227.413641 
L 294.704375 227.236559 
L 295.169375 226.658322 
L 295.634375 227.372755 
L 296.099375 229.358383 
L 296.564375 237.071234 
L 297.029375 232.883237 
L 297.494375 232.298596 
L 297.959375 232.723074 
L 298.424375 233.623318 
L 298.889375 233.380237 
L 299.819375 233.614255 
L 300.284375 234.026389 
L 300.749375 235.274656 
L 301.214375 236.113167 
L 301.679375 235.344744 
L 302.144375 235.465585 
L 302.609375 234.88236 
L 303.074375 235.214997 
L 304.004375 236.740458 
L 304.934375 238.321862 
L 305.864375 238.473738 
L 306.794375 236.312608 
L 307.259375 237.249173 
L 307.724375 235.997324 
L 308.189375 236.57219 
L 308.654375 236.446538 
L 309.119375 237.333677 
L 309.584375 236.809113 
L 310.514375 237.351645 
L 311.909375 239.207461 
L 312.374375 240.36807 
L 313.304375 240.3843 
L 313.769375 240.990539 
L 314.234375 241.113156 
L 314.699375 240.232675 
L 315.164375 239.688598 
L 315.629375 238.936115 
L 316.094375 237.821399 
L 316.559375 238.549146 
L 317.024375 237.951802 
L 317.489375 239.086492 
L 317.954375 239.854227 
L 318.419375 240.237718 
L 318.884375 241.356989 
L 320.279375 241.200718 
L 321.209375 243.203296 
L 321.674375 244.226331 
L 322.139375 243.524848 
L 322.604375 243.700641 
L 323.069375 243.305529 
L 323.999375 242.107043 
L 324.464375 242.785443 
L 324.929375 242.270522 
L 325.394375 242.701055 
L 325.859375 244.345172 
L 326.324375 244.998484 
L 327.254375 243.960937 
L 327.719375 245.090081 
L 328.184375 244.684636 
L 328.649375 243.777047 
L 329.114375 242.62358 
L 329.579375 242.649769 
L 330.044375 227.993075 
L 330.509375 176.856446 
L 330.974375 109.397998 
L 331.439375 60.08006 
L 331.904375 46.752899 
L 332.369375 80.385437 
L 332.834375 62.50993 
L 333.299375 37.213133 
L 333.764375 34.414125 
L 334.229375 57.539003 
L 334.694375 62.818254 
L 335.159375 54.810622 
L 335.624375 62.049639 
L 337.019375 206.047644 
L 337.484375 215.585738 
L 337.949375 179.944684 
L 338.879375 218.661215 
L 339.344375 221.55566 
L 339.809375 211.066144 
L 340.274375 210.625648 
L 340.739375 215.574902 
L 341.669375 244.26664 
L 342.134375 251.532686 
L 342.599375 247.594521 
L 343.064375 241.741566 
L 343.529375 238.149791 
L 344.459375 201.626016 
L 344.924375 194.770303 
L 345.389375 185.929909 
L 345.854375 181.487168 
L 346.319375 183.972511 
L 346.784375 181.731204 
L 347.249375 181.786201 
L 348.179375 190.434521 
L 348.644375 192.176726 
L 349.109375 205.597425 
L 349.574375 226.290165 
L 350.039375 235.929148 
L 350.969375 248.852182 
L 351.434375 249.336032 
L 351.899375 247.235192 
L 352.364375 249.79681 
L 352.829375 248.596406 
L 353.294375 243.744179 
L 353.759375 242.688474 
L 354.689375 236.184127 
L 355.154375 226.879295 
L 355.619375 220.188271 
L 356.084375 210.69632 
L 356.549375 204.805329 
L 357.014375 200.965579 
L 357.479375 193.543252 
L 357.944375 181.955597 
L 358.409375 176.190932 
L 358.874375 172.844534 
L 359.339375 173.380495 
L 359.804375 178.907928 
L 360.269375 181.291607 
L 361.199375 189.231633 
L 361.664375 198.694282 
L 362.594375 206.755073 
L 363.059375 209.250939 
L 363.989375 225.107569 
L 364.454375 239.28145 
L 365.384375 232.151329 
L 365.849375 246.389762 
L 366.314375 239.721109 
L 366.779375 240.568222 
L 367.244375 244.91276 
L 367.709375 248.127672 
L 368.174375 248.056914 
L 368.639375 250.947362 
L 369.569375 243.960079 
L 370.034375 238.064675 
L 370.499375 251.466472 
L 370.964375 257.266395 
L 371.429375 245.168524 
L 371.894375 252.920119 
L 372.359375 255.397169 
L 372.824375 252.12624 
L 373.289375 251.26327 
L 373.754375 255.716482 
L 374.219375 254.652795 
L 374.684375 260.427108 
L 375.149375 269.40688 
L 375.614375 264.466729 
L 376.079375 261.684698 
L 376.544375 256.537702 
L 377.474375 248.774048 
L 378.404375 249.789342 
L 378.869375 249.827672 
L 379.799375 242.131883 
L 380.264375 239.74706 
L 380.729375 233.137604 
L 381.194375 232.310218 
L 381.659375 229.694417 
L 382.124375 234.719962 
L 382.589375 241.270751 
L 383.054375 249.460907 
L 383.519375 251.403829 
L 383.984375 251.711945 
L 384.449375 252.363355 
L 384.914375 255.532671 
L 385.379375 262.427717 
L 385.844375 262.046143 
L 386.309375 261.943918 
L 386.774375 267.544271 
L 388.169375 271.259929 
L 388.634375 267.520646 
L 389.099375 269.0075 
L 389.564375 268.806458 
L 390.029375 266.134591 
L 390.494375 265.385291 
L 390.959375 263.200444 
L 391.424375 265.644071 
L 392.354375 255.450797 
L 392.819375 245.309035 
L 393.284375 241.350073 
L 393.749375 241.06283 
L 394.214375 218.78337 
L 394.679375 157.391517 
L 395.144375 136.091038 
L 395.609375 147.35267 
L 396.074375 163.500512 
L 396.539375 158.252552 
L 397.004375 148.022156 
L 397.469375 150.313173 
L 397.934375 145.710913 
L 398.399375 148.837719 
L 398.864375 147.90509 
L 399.329375 138.049256 
L 399.794375 151.812557 
L 400.259375 200.169465 
L 400.724375 214.074777 
L 401.189375 208.110963 
L 401.654375 189.406646 
L 402.119375 187.100839 
L 402.584375 188.485978 
L 403.049375 192.551551 
L 403.514375 198.571159 
L 403.979375 203.063532 
L 404.909375 226.21752 
L 405.374375 237.207711 
L 405.839375 251.638934 
L 406.304375 260.793981 
L 407.234375 264.978529 
L 407.699375 268.974472 
L 408.164375 275.579438 
L 408.629375 276.227213 
L 409.094375 275.482097 
L 409.559375 276.334125 
L 410.024375 270.664069 
L 410.489375 269.151528 
L 410.954375 264.029309 
L 411.884375 247.470233 
L 412.349375 243.240901 
L 412.814375 247.388923 
L 413.279375 247.515343 
L 413.744375 241.302113 
L 414.209375 237.528105 
L 414.674375 235.889017 
L 415.604375 228.540033 
L 416.069375 226.368632 
L 416.534375 236.205508 
L 416.999375 240.606323 
L 417.464375 241.477133 
L 417.929375 242.595628 
L 418.394375 242.093757 
L 418.859375 242.968946 
L 419.324375 246.021158 
L 419.324375 246.021158 
" clip-path="url(#pdb39f1d634)" style="fill: none; stroke: #1f77b4; stroke-width: 1.5; stroke-linecap: square"/>
   </g>
   <g id="line2d_29">
    <path d="M 58.484375 239.364877 
L 58.949375 239.912925 
L 59.414375 240.271431 
L 59.879375 240.355819 
L 60.344375 241.233542 
L 60.809375 241.523261 
L 61.274375 241.0356 
L 62.204375 239.044013 
L 62.669375 238.089246 
L 63.599375 236.991989 
L 64.064375 236.062997 
L 64.529375 234.505253 
L 65.459375 233.268506 
L 65.924375 232.122311 
L 66.389375 231.63729 
L 66.854375 231.915459 
L 67.319375 232.48096 
L 68.249375 232.070115 
L 68.714375 231.59474 
L 69.644375 231.345868 
L 70.109375 231.303862 
L 70.574375 230.638663 
L 71.039375 230.267516 
L 71.504375 230.750053 
L 71.969375 231.038623 
L 72.434375 231.057608 
L 72.899375 231.217946 
L 73.364375 231.146429 
L 73.829375 230.721149 
L 74.294375 230.496134 
L 74.759375 229.872566 
L 75.224375 229.596134 
L 76.619375 230.146234 
L 77.084375 229.712538 
L 77.549375 229.548422 
L 78.479375 228.735454 
L 78.944375 228.646693 
L 79.409375 228.723915 
L 79.874375 228.404973 
L 80.339375 229.176999 
L 81.269375 229.701508 
L 82.199375 230.6526 
L 82.664375 230.781723 
L 84.059375 230.162014 
L 84.524375 229.804489 
L 84.989375 229.824566 
L 85.454375 230.170425 
L 86.384375 229.530631 
L 87.779375 229.198203 
L 88.244375 229.867879 
L 88.709375 229.861836 
L 90.104375 230.156111 
L 90.569375 229.877323 
L 91.034375 230.007824 
L 91.499375 229.826866 
L 92.429375 230.498809 
L 92.894375 230.561309 
L 93.359375 230.360038 
L 93.824375 230.634686 
L 94.289375 231.494855 
L 94.754375 232.705022 
L 95.684375 234.257517 
L 96.149375 236.22254 
L 96.614375 237.40055 
L 97.079375 237.630521 
L 97.544375 237.414902 
L 98.474375 235.564866 
L 98.939375 235.827996 
L 100.799375 230.556035 
L 101.264375 230.042713 
L 101.729375 228.396516 
L 102.194375 227.254645 
L 102.659375 227.161987 
L 103.124375 227.748484 
L 104.054375 229.665441 
L 104.519375 229.93396 
L 105.449375 231.608313 
L 106.379375 231.766264 
L 106.844375 231.642746 
L 108.239375 230.085188 
L 110.099375 232.733472 
L 111.029375 234.892596 
L 111.959375 239.626525 
L 112.889375 242.595109 
L 113.354375 243.042915 
L 113.819375 244.038555 
L 114.284375 244.196673 
L 114.749375 245.439308 
L 115.214375 245.226943 
L 115.679375 244.273277 
L 116.144375 242.825413 
L 116.609375 242.120463 
L 118.004375 232.523046 
L 118.469375 230.211072 
L 118.934375 229.597746 
L 119.399375 228.012191 
L 119.864375 225.509962 
L 120.329375 221.387572 
L 120.794375 218.945844 
L 121.259375 218.082003 
L 122.189375 215.784678 
L 122.654375 216.322022 
L 123.119375 217.74503 
L 123.584375 218.717544 
L 124.049375 218.881054 
L 124.514375 218.862674 
L 124.979375 219.211633 
L 125.444375 219.7139 
L 125.909375 220.438976 
L 126.374375 221.637543 
L 126.839375 221.864365 
L 127.304375 222.559289 
L 127.769375 222.345673 
L 128.234375 221.927392 
L 128.699375 220.749628 
L 129.164375 220.489353 
L 129.629375 220.559738 
L 130.094375 220.369679 
L 131.024375 219.688923 
L 131.489375 219.832992 
L 131.954375 219.809289 
L 132.419375 220.029291 
L 132.884375 219.905086 
L 133.349375 220.204544 
L 133.814375 220.843946 
L 135.209375 223.622148 
L 135.674375 224.89747 
L 136.604375 226.217051 
L 137.069375 226.709392 
L 137.534375 227.027794 
L 137.999375 226.634278 
L 138.464375 227.150983 
L 138.929375 227.285825 
L 140.324375 229.742717 
L 141.719375 230.494937 
L 142.184375 231.266128 
L 143.114375 231.952186 
L 143.579375 232.892352 
L 144.044375 232.69407 
L 144.974375 231.429519 
L 145.439375 231.192605 
L 145.904375 230.092654 
L 146.369375 229.771219 
L 146.834375 229.003734 
L 147.299375 229.071278 
L 148.229375 227.452472 
L 148.694375 226.924622 
L 149.159375 225.946001 
L 149.624375 225.999568 
L 150.089375 226.961254 
L 150.554375 227.169873 
L 151.019375 226.134607 
L 151.484375 226.624835 
L 151.949375 225.994865 
L 152.414375 225.57395 
L 152.879375 224.240262 
L 155.204375 224.263672 
L 155.669375 223.64066 
L 156.134375 223.368553 
L 156.599375 223.390897 
L 157.064375 222.991894 
L 157.994375 223.066716 
L 158.459375 223.647154 
L 158.924375 223.3969 
L 159.389375 223.793453 
L 159.854375 223.733438 
L 160.319375 223.468777 
L 160.784375 223.380248 
L 161.249375 223.94873 
L 161.714375 224.318528 
L 162.644375 224.408728 
L 163.109375 224.609386 
L 163.574375 224.350264 
L 164.039375 224.424603 
L 164.504375 225.119786 
L 164.969375 225.214592 
L 165.434375 225.538667 
L 165.899375 225.508445 
L 166.364375 226.395478 
L 166.829375 225.813668 
L 167.294375 225.535606 
L 167.759375 225.502589 
L 168.224375 224.803779 
L 168.689375 225.028119 
L 169.154375 227.236217 
L 169.619375 227.921505 
L 170.084375 227.833705 
L 170.549375 227.26285 
L 171.014375 228.040649 
L 171.479375 229.741106 
L 171.944375 229.556058 
L 172.409375 229.693369 
L 172.874375 229.452811 
L 173.339375 229.707271 
L 173.804375 230.663045 
L 174.269375 230.281248 
L 174.734375 228.25848 
L 175.664375 226.311159 
L 176.129375 226.498108 
L 176.594375 225.56232 
L 177.059375 223.138168 
L 177.524375 222.946673 
L 177.989375 223.336381 
L 178.919375 223.554202 
L 179.849375 222.515736 
L 180.314375 222.753221 
L 180.779375 222.27826 
L 181.244375 222.94586 
L 181.709375 224.108878 
L 182.174375 224.313395 
L 182.639375 224.870492 
L 183.104375 225.19238 
L 183.569375 225.271999 
L 184.034375 226.084863 
L 184.499375 225.814391 
L 184.964375 226.538685 
L 185.429375 227.052578 
L 185.894375 228.059588 
L 186.359375 229.510372 
L 186.824375 229.082891 
L 187.289375 227.483662 
L 187.754375 227.827389 
L 188.219375 228.495828 
L 188.684375 228.52907 
L 189.614375 228.959008 
L 190.079375 229.97357 
L 190.544375 230.079705 
L 191.009375 230.40049 
L 191.474375 229.297408 
L 191.939375 228.602087 
L 192.404375 229.626087 
L 192.869375 229.912332 
L 193.334375 229.053762 
L 193.799375 228.489839 
L 194.264375 227.749832 
L 194.729375 227.404391 
L 195.194375 226.716797 
L 196.124375 226.761222 
L 196.589375 226.504745 
L 197.054375 226.722162 
L 197.984375 225.69859 
L 198.449375 226.254673 
L 198.914375 227.382255 
L 199.379375 229.15903 
L 199.844375 230.05437 
L 200.309375 229.983618 
L 200.774375 230.929943 
L 201.239375 230.713872 
L 201.704375 230.84299 
L 202.169375 231.502285 
L 202.634375 232.441397 
L 203.099375 233.032548 
L 204.029375 233.723221 
L 204.494375 233.137367 
L 204.959375 231.649739 
L 205.424375 231.301141 
L 205.889375 231.594523 
L 206.354375 230.439999 
L 207.284375 229.650184 
L 207.749375 229.571503 
L 208.214375 229.872619 
L 208.679375 229.644041 
L 209.144375 229.722186 
L 209.609375 230.297082 
L 210.074375 231.476647 
L 211.004375 232.752861 
L 211.469375 233.22683 
L 211.934375 234.629566 
L 212.864375 235.371881 
L 213.329375 235.160515 
L 213.794375 235.084771 
L 214.259375 236.645555 
L 214.724375 236.879267 
L 215.654375 235.061832 
L 216.119375 234.794453 
L 216.584375 234.287904 
L 217.049375 234.109809 
L 217.514375 233.590836 
L 217.979375 234.015541 
L 218.909375 235.322004 
L 219.374375 235.092867 
L 219.839375 234.352063 
L 220.304375 235.159202 
L 220.769375 236.47167 
L 221.234375 236.750021 
L 222.164375 238.819224 
L 222.629375 238.825301 
L 223.094375 238.559817 
L 224.024375 239.013348 
L 224.954375 239.30939 
L 225.419375 239.625051 
L 226.349375 239.335865 
L 226.814375 240.230858 
L 227.744375 240.437706 
L 228.674375 241.559859 
L 229.139375 241.27805 
L 229.604375 241.307151 
L 230.069375 241.691497 
L 230.534375 242.624626 
L 230.999375 243.151839 
L 231.929375 242.215528 
L 232.394375 241.993182 
L 232.859375 242.001851 
L 233.324375 242.123441 
L 233.789375 242.42931 
L 235.184375 244.936613 
L 235.649375 244.94759 
L 236.114375 244.496438 
L 236.579375 244.216768 
L 237.044375 244.997329 
L 237.509375 244.837998 
L 237.974375 245.083655 
L 238.439375 245.973157 
L 239.369375 246.31347 
L 239.834375 246.003364 
L 240.764375 244.737849 
L 241.229375 244.964455 
L 241.694375 245.411004 
L 242.159375 246.188249 
L 242.624375 247.243962 
L 243.089375 248.006721 
L 243.554375 247.952705 
L 244.019375 247.340838 
L 244.484375 245.783234 
L 244.949375 245.693481 
L 245.414375 245.84541 
L 245.879375 246.145853 
L 246.344375 246.120361 
L 246.809375 245.777583 
L 247.739375 243.927052 
L 248.204375 243.24708 
L 248.669375 244.006673 
L 249.599375 243.258268 
L 250.064375 244.122 
L 250.529375 244.2865 
L 250.994375 243.208727 
L 251.924375 243.199877 
L 252.389375 243.055076 
L 252.854375 243.207926 
L 253.319375 243.036114 
L 253.784375 241.840732 
L 254.249375 241.096551 
L 255.179375 240.321244 
L 255.644375 239.061611 
L 256.109375 237.209048 
L 256.574375 237.054638 
L 257.039375 235.578789 
L 257.504375 235.116255 
L 257.969375 234.844195 
L 258.899375 235.245272 
L 259.364375 234.874572 
L 259.829375 233.703318 
L 260.294375 233.124074 
L 260.759375 233.294103 
L 261.224375 233.598011 
L 261.689375 234.365753 
L 262.154375 234.402312 
L 262.619375 235.131796 
L 263.084375 234.889363 
L 263.549375 233.994018 
L 264.014375 233.620325 
L 264.479375 232.544287 
L 264.944375 232.909917 
L 265.874375 233.002484 
L 266.339375 232.159266 
L 266.804375 232.620384 
L 267.269375 232.405544 
L 268.199375 229.89218 
L 268.664375 229.445157 
L 269.129375 229.498297 
L 269.594375 228.796995 
L 270.059375 228.767961 
L 270.524375 228.107142 
L 270.989375 228.054595 
L 271.454375 227.042527 
L 271.919375 227.365461 
L 272.849375 226.662037 
L 273.314375 228.221162 
L 273.779375 228.104767 
L 274.709375 226.49839 
L 275.174375 226.10539 
L 275.639375 226.342978 
L 276.104375 227.159352 
L 276.569375 226.735691 
L 277.034375 229.218625 
L 277.499375 229.198066 
L 277.964375 229.725423 
L 278.429375 229.989848 
L 278.894375 229.723826 
L 279.824375 232.67457 
L 280.289375 233.291886 
L 280.754375 232.481194 
L 281.219375 231.180988 
L 281.684375 230.480382 
L 282.149375 231.128322 
L 282.614375 229.169167 
L 283.079375 228.584996 
L 283.544375 229.216242 
L 284.009375 229.030411 
L 284.474375 228.50525 
L 285.404375 226.456234 
L 285.869375 227.574934 
L 286.334375 230.02669 
L 286.799375 230.454456 
L 287.264375 228.715966 
L 287.729375 227.833839 
L 288.194375 227.960322 
L 288.659375 226.116952 
L 289.124375 224.847478 
L 289.589375 224.061023 
L 290.054375 224.351836 
L 290.519375 226.351529 
L 290.984375 223.873944 
L 291.449375 223.384521 
L 291.914375 221.711011 
L 292.379375 222.437333 
L 292.844375 225.211214 
L 293.309375 226.089099 
L 293.774375 227.685784 
L 294.239375 230.804166 
L 294.704375 231.515746 
L 295.169375 233.276183 
L 295.634375 233.206887 
L 296.099375 232.002515 
L 296.564375 235.260663 
L 297.029375 235.49729 
L 297.494375 234.310362 
L 297.959375 234.247392 
L 298.889375 234.667993 
L 299.819375 234.161881 
L 300.284375 233.672443 
L 301.214375 232.005765 
L 301.679375 232.655616 
L 302.609375 234.851014 
L 303.074375 238.279111 
L 303.539375 240.045508 
L 304.469375 238.622693 
L 304.934375 237.327602 
L 305.864375 235.918756 
L 306.329375 236.36149 
L 306.794375 238.385166 
L 307.259375 238.366308 
L 307.724375 237.316364 
L 308.189375 236.939628 
L 309.119375 234.828792 
L 309.584375 234.984096 
L 310.049375 235.613788 
L 310.514375 236.681494 
L 310.979375 237.031177 
L 311.444375 238.151526 
L 312.374375 236.999831 
L 312.839375 235.606539 
L 313.304375 234.667631 
L 313.769375 233.195433 
L 314.234375 233.030255 
L 315.164375 231.72911 
L 315.629375 230.73529 
L 316.559375 229.969047 
L 317.489375 229.323553 
L 317.954375 227.885905 
L 318.419375 228.352512 
L 318.884375 228.15573 
L 319.349375 227.295465 
L 319.814375 225.992084 
L 320.279375 225.134819 
L 320.744375 225.778416 
L 321.209375 226.054002 
L 321.674375 225.343555 
L 322.139375 223.930112 
L 322.604375 222.984755 
L 323.069375 223.039452 
L 323.534375 223.363436 
L 323.999375 221.133931 
L 324.464375 219.690414 
L 325.394375 217.732072 
L 325.859375 218.564787 
L 326.324375 217.91188 
L 326.789375 215.175608 
L 327.254375 213.912258 
L 327.719375 215.336904 
L 328.184375 216.215121 
L 328.649375 216.48443 
L 329.114375 217.106114 
L 329.579375 220.043691 
L 330.044375 221.517399 
L 330.974375 228.870918 
L 331.439375 226.531194 
L 331.904375 225.642484 
L 332.369375 229.577992 
L 332.834375 232.108581 
L 333.299375 233.534815 
L 333.764375 232.914437 
L 334.229375 234.396612 
L 335.159375 238.953447 
L 335.624375 241.978795 
L 336.089375 242.748282 
L 336.554375 243.205365 
L 337.484375 251.582042 
L 337.949375 252.385643 
L 338.879375 255.864878 
L 339.344375 258.21846 
L 339.809375 258.220465 
L 340.274375 256.902988 
L 340.739375 254.937196 
L 341.669375 253.082459 
L 342.134375 252.419174 
L 342.599375 252.027526 
L 343.064375 251.073506 
L 343.529375 250.632939 
L 343.994375 248.212203 
L 344.459375 245.050352 
L 344.924375 243.011907 
L 345.389375 242.749248 
L 345.854375 242.327714 
L 346.319375 242.614914 
L 346.784375 242.1692 
L 347.249375 242.1692 
L 347.714375 241.516197 
L 348.644375 239.42566 
L 349.109375 239.111949 
L 349.574375 239.597331 
L 350.504375 241.967855 
L 350.969375 241.210738 
L 351.434375 241.436985 
L 351.899375 240.751366 
L 352.829375 240.013756 
L 353.294375 239.818651 
L 353.759375 238.087867 
L 354.224375 237.935588 
L 354.689375 238.078204 
L 355.154375 238.089106 
L 355.619375 238.393118 
L 356.549375 238.411891 
L 357.014375 238.572876 
L 357.479375 239.376314 
L 357.944375 239.127629 
L 358.409375 238.657074 
L 358.874375 238.898471 
L 359.339375 240.347381 
L 359.804375 240.537106 
L 360.269375 239.780538 
L 360.734375 239.500892 
L 361.664375 238.038198 
L 362.129375 238.442785 
L 362.594375 238.332704 
L 363.524375 239.117243 
L 363.989375 238.867548 
L 364.454375 237.873991 
L 365.849375 235.939459 
L 366.314375 236.259523 
L 366.779375 236.796674 
L 367.244375 237.579809 
L 367.709375 237.288598 
L 368.174375 236.85094 
L 368.639375 236.074852 
L 369.104375 236.697357 
L 369.569375 236.750328 
L 370.034375 237.43604 
L 370.499375 238.663788 
L 371.429375 239.675419 
L 371.894375 239.341569 
L 372.359375 239.16329 
L 373.289375 238.247308 
L 373.754375 239.003115 
L 374.219375 238.923548 
L 374.684375 239.259374 
L 375.149375 240.374264 
L 375.614375 240.286387 
L 376.079375 239.957943 
L 376.544375 240.14824 
L 377.009375 240.687059 
L 377.474375 240.85457 
L 377.939375 240.174517 
L 378.404375 239.87213 
L 378.869375 240.609697 
L 379.334375 240.363497 
L 379.799375 239.813622 
L 380.729375 237.691895 
L 381.194375 238.092211 
L 381.659375 238.121994 
L 382.124375 237.974986 
L 382.589375 238.262276 
L 383.054375 238.312018 
L 383.519375 239.32246 
L 383.984375 240.050729 
L 384.449375 239.235128 
L 384.914375 239.374183 
L 385.379375 240.245201 
L 385.844375 240.458888 
L 386.309375 240.894948 
L 386.774375 241.080628 
L 387.239375 239.877199 
L 388.634375 238.500421 
L 389.099375 238.459548 
L 390.029375 237.331414 
L 390.494375 236.463211 
L 391.424375 234.404654 
L 391.889375 232.469106 
L 392.354375 231.143118 
L 392.819375 230.936149 
L 393.284375 230.859975 
L 393.749375 231.002141 
L 394.214375 224.757848 
L 394.679375 209.440528 
L 395.144375 199.575639 
L 395.609375 197.994145 
L 396.074375 198.863382 
L 396.539375 201.605392 
L 397.004375 202.274915 
L 397.469375 204.567199 
L 397.934375 204.89458 
L 398.399375 205.825455 
L 398.864375 205.351784 
L 399.329375 204.283629 
L 399.794375 210.307638 
L 400.259375 223.60729 
L 400.724375 230.869752 
L 401.189375 233.337717 
L 401.654375 232.881046 
L 402.119375 230.634666 
L 402.584375 230.646095 
L 403.514375 229.021225 
L 403.979375 228.709906 
L 404.909375 231.497434 
L 405.374375 232.005959 
L 405.839375 233.799023 
L 406.304375 236.361429 
L 406.769375 236.655826 
L 407.234375 237.516384 
L 407.699375 238.977396 
L 408.629375 242.795827 
L 409.094375 245.41439 
L 409.559375 246.445711 
L 410.024375 247.048564 
L 410.489375 247.309926 
L 410.954375 250.550313 
L 411.419375 251.447271 
L 411.884375 250.363948 
L 412.814375 249.39128 
L 413.279375 249.443399 
L 414.209375 247.268254 
L 414.674375 245.996044 
L 415.139375 245.132646 
L 415.604375 244.86363 
L 416.069375 244.842968 
L 416.534375 242.669308 
L 416.999375 242.082674 
L 417.929375 243.936315 
L 418.394375 244.601575 
L 419.324375 244.718899 
L 419.324375 244.718899 
" clip-path="url(#pdb39f1d634)" style="fill: none; stroke: #ff7f0e; stroke-width: 1.5; stroke-linecap: square"/>
   </g>
   <g id="patch_37">
    <path d="M 58.484375 288.430125 
L 58.484375 22.318125 
" style="fill: none; stroke: #000000; stroke-width: 0.8; stroke-linejoin: miter; stroke-linecap: square"/>
   </g>
   <g id="patch_38">
    <path d="M 415.604375 288.430125 
L 415.604375 22.318125 
" style="fill: none; stroke: #000000; stroke-width: 0.8; stroke-linejoin: miter; stroke-linecap: square"/>
   </g>
   <g id="patch_39">
    <path d="M 58.484375 288.430125 
L 415.604375 288.430125 
" style="fill: none; stroke: #000000; stroke-width: 0.8; stroke-linejoin: miter; stroke-linecap: square"/>
   </g>
   <g id="patch_40">
    <path d="M 58.484375 22.318125 
L 415.604375 22.318125 
" style="fill: none; stroke: #000000; stroke-width: 0.8; stroke-linejoin: miter; stroke-linecap: square"/>
   </g>
   <g id="text_15">
    <!-- Monetary aggregates in the U.S., 1959-2024 -->
    <g transform="translate(101.653437 16.318125) scale(0.12 -0.12)">
     <defs>
      <path id="DejaVuSerif-4d" d="M 353 0 
L 353 331 
L 947 331 
L 947 4331 
L 319 4331 
L 319 4666 
L 1678 4666 
L 3316 1344 
L 4953 4666 
L 6228 4666 
L 6228 4331 
L 5606 4331 
L 5606 331 
L 6203 331 
L 6203 0 
L 4378 0 
L 4378 331 
L 4972 331 
L 4972 3938 
L 3372 684 
L 2931 684 
L 1331 3938 
L 1331 331 
L 1925 331 
L 1925 0 
L 353 0 
z
" transform="scale(0.015625)"/>
      <path id="DejaVuSerif-65" d="M 3469 1600 
L 991 1600 
L 991 1575 
Q 991 903 1244 561 
Q 1497 219 1991 219 
Q 2369 219 2611 417 
Q 2853 616 2950 1006 
L 3413 1006 
Q 3275 459 2904 184 
Q 2534 -91 1931 -91 
Q 1203 -91 761 389 
Q 319 869 319 1663 
Q 319 2450 753 2931 
Q 1188 3413 1894 3413 
Q 2647 3413 3050 2948 
Q 3453 2484 3469 1600 
z
M 2791 1931 
Q 2772 2513 2545 2808 
Q 2319 3103 1894 3103 
Q 1497 3103 1269 2806 
Q 1041 2509 991 1931 
L 2791 1931 
z
" transform="scale(0.015625)"/>
      <path id="DejaVuSerif-74" d="M 691 2988 
L 184 2988 
L 184 3322 
L 691 3322 
L 691 4353 
L 1269 4353 
L 1269 3322 
L 2350 3322 
L 2350 2988 
L 1269 2988 
L 1269 878 
Q 1269 456 1350 337 
Q 1431 219 1650 219 
Q 1875 219 1978 351 
Q 2081 484 2088 781 
L 2522 781 
Q 2497 328 2275 118 
Q 2053 -91 1600 -91 
Q 1103 -91 897 129 
Q 691 350 691 878 
L 691 2988 
z
" transform="scale(0.015625)"/>
      <path id="DejaVuSerif-72" d="M 3059 3328 
L 3059 2497 
L 2728 2497 
Q 2713 2744 2591 2866 
Q 2469 2988 2234 2988 
Q 1809 2988 1582 2694 
Q 1356 2400 1356 1850 
L 1356 331 
L 2022 331 
L 2022 0 
L 263 0 
L 263 331 
L 781 331 
L 781 2994 
L 231 2994 
L 231 3322 
L 1356 3322 
L 1356 2731 
Q 1525 3078 1790 3245 
Q 2056 3413 2438 3413 
Q 2578 3413 2733 3391 
Q 2888 3369 3059 3328 
z
" transform="scale(0.015625)"/>
      <path id="DejaVuSerif-79" d="M 1381 -609 
L 1600 -56 
L 359 2988 
L -19 2988 
L -19 3322 
L 1509 3322 
L 1509 2988 
L 978 2988 
L 1913 703 
L 2847 2988 
L 2350 2988 
L 2350 3322 
L 3597 3322 
L 3597 2988 
L 3225 2988 
L 1703 -750 
Q 1547 -1138 1356 -1280 
Q 1166 -1422 819 -1422 
Q 672 -1422 517 -1397 
Q 363 -1372 206 -1325 
L 206 -691 
L 500 -691 
Q 519 -903 608 -995 
Q 697 -1088 884 -1088 
Q 1056 -1088 1161 -992 
Q 1266 -897 1381 -609 
z
" transform="scale(0.015625)"/>
      <path id="DejaVuSerif-67" d="M 3359 2988 
L 3359 72 
Q 3359 -644 2965 -1033 
Q 2572 -1422 1844 -1422 
Q 1516 -1422 1216 -1362 
Q 916 -1303 641 -1184 
L 641 -488 
L 941 -488 
Q 997 -813 1206 -963 
Q 1416 -1113 1806 -1113 
Q 2313 -1113 2548 -827 
Q 2784 -541 2784 72 
L 2784 519 
Q 2616 206 2355 57 
Q 2094 -91 1709 -91 
Q 1097 -91 708 395 
Q 319 881 319 1663 
Q 319 2444 706 2928 
Q 1094 3413 1709 3413 
Q 2094 3413 2355 3264 
Q 2616 3116 2784 2803 
L 2784 3322 
L 3909 3322 
L 3909 2988 
L 3359 2988 
z
M 2784 1825 
Q 2784 2422 2554 2737 
Q 2325 3053 1888 3053 
Q 1444 3053 1217 2703 
Q 991 2353 991 1663 
Q 991 975 1217 622 
Q 1444 269 1888 269 
Q 2325 269 2554 583 
Q 2784 897 2784 1497 
L 2784 1825 
z
" transform="scale(0.015625)"/>
      <path id="DejaVuSerif-73" d="M 359 184 
L 359 959 
L 691 959 
Q 703 588 923 403 
Q 1144 219 1575 219 
Q 1963 219 2166 364 
Q 2369 509 2369 788 
Q 2369 1006 2220 1140 
Q 2072 1275 1594 1428 
L 1178 1569 
Q 750 1706 558 1912 
Q 366 2119 366 2438 
Q 366 2894 700 3153 
Q 1034 3413 1625 3413 
Q 1888 3413 2178 3344 
Q 2469 3275 2778 3144 
L 2778 2419 
L 2447 2419 
Q 2434 2741 2221 2922 
Q 2009 3103 1644 3103 
Q 1281 3103 1095 2975 
Q 909 2847 909 2591 
Q 909 2381 1050 2254 
Q 1191 2128 1613 1997 
L 2069 1856 
Q 2541 1709 2748 1489 
Q 2956 1269 2956 922 
Q 2956 450 2595 179 
Q 2234 -91 1600 -91 
Q 1278 -91 972 -22 
Q 666 47 359 184 
z
" transform="scale(0.015625)"/>
      <path id="DejaVuSerif-68" d="M 263 0 
L 263 331 
L 781 331 
L 781 4531 
L 231 4531 
L 231 4863 
L 1356 4863 
L 1356 2731 
Q 1516 3069 1770 3241 
Q 2025 3413 2363 3413 
Q 2913 3413 3172 3097 
Q 3431 2781 3431 2113 
L 3431 331 
L 3944 331 
L 3944 0 
L 2356 0 
L 2356 331 
L 2853 331 
L 2853 1931 
Q 2853 2541 2704 2764 
Q 2556 2988 2175 2988 
Q 1775 2988 1565 2697 
Q 1356 2406 1356 1850 
L 1356 331 
L 1856 331 
L 1856 0 
L 263 0 
z
" transform="scale(0.015625)"/>
      <path id="DejaVuSerif-55" d="M 897 4331 
L 300 4331 
L 300 4666 
L 2125 4666 
L 2125 4331 
L 1528 4331 
L 1528 1919 
Q 1528 1025 1820 672 
Q 2113 319 2828 319 
Q 3544 319 3836 672 
Q 4128 1025 4128 1919 
L 4128 4331 
L 3531 4331 
L 3531 4666 
L 5106 4666 
L 5106 4331 
L 4513 4331 
L 4513 1856 
Q 4513 791 4103 350 
Q 3694 -91 2713 -91 
Q 1731 -91 1314 353 
Q 897 797 897 1856 
L 897 4331 
z
" transform="scale(0.015625)"/>
      <path id="DejaVuSerif-2e" d="M 603 325 
Q 603 500 722 622 
Q 841 744 1019 744 
Q 1191 744 1312 622 
Q 1434 500 1434 325 
Q 1434 153 1312 31 
Q 1191 -91 1019 -91 
Q 841 -91 722 29 
Q 603 150 603 325 
z
" transform="scale(0.015625)"/>
      <path id="DejaVuSerif-53" d="M 594 225 
L 594 1288 
L 953 1284 
Q 969 753 1261 498 
Q 1553 244 2150 244 
Q 2706 244 2998 464 
Q 3291 684 3291 1106 
Q 3291 1444 3114 1625 
Q 2938 1806 2369 1978 
L 1753 2163 
Q 1084 2366 811 2669 
Q 538 2972 538 3500 
Q 538 4094 959 4422 
Q 1381 4750 2144 4750 
Q 2469 4750 2856 4679 
Q 3244 4609 3681 4475 
L 3681 3481 
L 3328 3481 
Q 3275 3975 2998 4195 
Q 2722 4416 2156 4416 
Q 1663 4416 1405 4214 
Q 1147 4013 1147 3628 
Q 1147 3294 1340 3103 
Q 1534 2913 2163 2725 
L 2741 2553 
Q 3375 2363 3645 2067 
Q 3916 1772 3916 1275 
Q 3916 597 3481 253 
Q 3047 -91 2188 -91 
Q 1803 -91 1404 -12 
Q 1006 66 594 225 
z
" transform="scale(0.015625)"/>
      <path id="DejaVuSerif-2c" d="M 231 -622 
Q 525 -406 662 -114 
Q 800 178 800 594 
L 800 709 
L 1416 709 
Q 1391 175 1164 -208 
Q 938 -591 481 -872 
L 231 -622 
z
" transform="scale(0.015625)"/>
      <path id="DejaVuSerif-35" d="M 3219 4666 
L 3219 4153 
L 1081 4153 
L 1081 2816 
Q 1244 2928 1461 2984 
Q 1678 3041 1947 3041 
Q 2703 3041 3140 2622 
Q 3578 2203 3578 1478 
Q 3578 738 3136 323 
Q 2694 -91 1894 -91 
Q 1572 -91 1234 -12 
Q 897 66 544 225 
L 544 1131 
L 897 1131 
Q 925 688 1179 453 
Q 1434 219 1894 219 
Q 2388 219 2653 544 
Q 2919 869 2919 1478 
Q 2919 2084 2655 2407 
Q 2391 2731 1894 2731 
Q 1613 2731 1398 2631 
Q 1184 2531 1019 2322 
L 750 2322 
L 750 4666 
L 3219 4666 
z
" transform="scale(0.015625)"/>
      <path id="DejaVuSerif-2d" d="M 281 1959 
L 1881 1959 
L 1881 1472 
L 281 1472 
L 281 1959 
z
" transform="scale(0.015625)"/>
     </defs>
     <use xlink:href="#DejaVuSerif-4d"/>
     <use xlink:href="#DejaVuSerif-6f" x="102.392578"/>
     <use xlink:href="#DejaVuSerif-6e" x="162.597656"/>
     <use xlink:href="#DejaVuSerif-65" x="227.001953"/>
     <use xlink:href="#DejaVuSerif-74" x="286.181641"/>
     <use xlink:href="#DejaVuSerif-61" x="326.367188"/>
     <use xlink:href="#DejaVuSerif-72" x="385.986328"/>
     <use xlink:href="#DejaVuSerif-79" x="433.789062"/>
     <use xlink:href="#DejaVuSerif-20" x="490.283203"/>
     <use xlink:href="#DejaVuSerif-61" x="522.070312"/>
     <use xlink:href="#DejaVuSerif-67" x="581.689453"/>
     <use xlink:href="#DejaVuSerif-67" x="645.703125"/>
     <use xlink:href="#DejaVuSerif-72" x="709.716797"/>
     <use xlink:href="#DejaVuSerif-65" x="757.519531"/>
     <use xlink:href="#DejaVuSerif-67" x="816.699219"/>
     <use xlink:href="#DejaVuSerif-61" x="880.712891"/>
     <use xlink:href="#DejaVuSerif-74" x="940.332031"/>
     <use xlink:href="#DejaVuSerif-65" x="980.517578"/>
     <use xlink:href="#DejaVuSerif-73" x="1039.697266"/>
     <use xlink:href="#DejaVuSerif-20" x="1091.015625"/>
     <use xlink:href="#DejaVuSerif-69" x="1122.802734"/>
     <use xlink:href="#DejaVuSerif-6e" x="1154.785156"/>
     <use xlink:href="#DejaVuSerif-20" x="1219.189453"/>
     <use xlink:href="#DejaVuSerif-74" x="1250.976562"/>
     <use xlink:href="#DejaVuSerif-68" x="1291.162109"/>
     <use xlink:href="#DejaVuSerif-65" x="1355.566406"/>
     <use xlink:href="#DejaVuSerif-20" x="1414.746094"/>
     <use xlink:href="#DejaVuSerif-55" x="1446.533203"/>
     <use xlink:href="#DejaVuSerif-2e" x="1521.685547"/>
     <use xlink:href="#DejaVuSerif-53" x="1553.472656"/>
     <use xlink:href="#DejaVuSerif-2e" x="1618.353516"/>
     <use xlink:href="#DejaVuSerif-2c" x="1650.140625"/>
     <use xlink:href="#DejaVuSerif-20" x="1681.927734"/>
     <use xlink:href="#DejaVuSerif-31" x="1713.714844"/>
     <use xlink:href="#DejaVuSerif-39" x="1777.337891"/>
     <use xlink:href="#DejaVuSerif-35" x="1840.960938"/>
     <use xlink:href="#DejaVuSerif-39" x="1904.583984"/>
     <use xlink:href="#DejaVuSerif-2d" x="1968.207031"/>
     <use xlink:href="#DejaVuSerif-32" x="2001.996094"/>
     <use xlink:href="#DejaVuSerif-30" x="2065.619141"/>
     <use xlink:href="#DejaVuSerif-32" x="2129.242188"/>
     <use xlink:href="#DejaVuSerif-34" x="2192.865234"/>
    </g>
   </g>
   <g id="legend_1">
    <g id="patch_41">
     <path d="M 182.76 59.816562 
L 291.32875 59.816562 
Q 293.32875 59.816562 293.32875 57.816562 
L 293.32875 29.318125 
Q 293.32875 27.318125 291.32875 27.318125 
L 182.76 27.318125 
Q 180.76 27.318125 180.76 29.318125 
L 180.76 57.816562 
Q 180.76 59.816562 182.76 59.816562 
z
" style="fill: #ffffff; opacity: 0.8; stroke: #cccccc; stroke-linejoin: miter"/>
    </g>
    <g id="line2d_30">
     <path d="M 184.76 35.416562 
L 194.76 35.416562 
L 204.76 35.416562 
" style="fill: none; stroke: #1f77b4; stroke-width: 1.5; stroke-linecap: square"/>
    </g>
    <g id="text_16">
     <!-- Monetary Base -->
     <g transform="translate(212.76 38.916562) scale(0.1 -0.1)">
      <defs>
       <path id="DejaVuSerif-42" d="M 1581 331 
L 2516 331 
Q 3078 331 3337 575 
Q 3597 819 3597 1350 
Q 3597 1878 3339 2120 
Q 3081 2363 2516 2363 
L 1581 2363 
L 1581 331 
z
M 1581 2694 
L 2375 2694 
Q 2888 2694 3123 2891 
Q 3359 3088 3359 3513 
Q 3359 3941 3123 4136 
Q 2888 4331 2375 4331 
L 1581 4331 
L 1581 2694 
z
M 353 0 
L 353 331 
L 947 331 
L 947 4331 
L 353 4331 
L 353 4666 
L 2656 4666 
Q 3363 4666 3720 4377 
Q 4078 4088 4078 3513 
Q 4078 3097 3829 2850 
Q 3581 2603 3103 2547 
Q 3697 2472 4005 2167 
Q 4313 1863 4313 1350 
Q 4313 656 3875 328 
Q 3438 0 2509 0 
L 353 0 
z
" transform="scale(0.015625)"/>
      </defs>
      <use xlink:href="#DejaVuSerif-4d"/>
      <use xlink:href="#DejaVuSerif-6f" x="102.392578"/>
      <use xlink:href="#DejaVuSerif-6e" x="162.597656"/>
      <use xlink:href="#DejaVuSerif-65" x="227.001953"/>
      <use xlink:href="#DejaVuSerif-74" x="286.181641"/>
      <use xlink:href="#DejaVuSerif-61" x="326.367188"/>
      <use xlink:href="#DejaVuSerif-72" x="385.986328"/>
      <use xlink:href="#DejaVuSerif-79" x="433.789062"/>
      <use xlink:href="#DejaVuSerif-20" x="490.283203"/>
      <use xlink:href="#DejaVuSerif-42" x="522.070312"/>
      <use xlink:href="#DejaVuSerif-61" x="595.556641"/>
      <use xlink:href="#DejaVuSerif-73" x="655.175781"/>
      <use xlink:href="#DejaVuSerif-65" x="706.494141"/>
     </g>
    </g>
    <g id="line2d_31">
     <path d="M 184.76 50.236875 
L 194.76 50.236875 
L 204.76 50.236875 
" style="fill: none; stroke: #ff7f0e; stroke-width: 1.5; stroke-linecap: square"/>
    </g>
    <g id="text_17">
     <!-- M3 -->
     <g transform="translate(212.76 53.736875) scale(0.1 -0.1)">
      <defs>
       <path id="DejaVuSerif-33" d="M 622 4469 
Q 988 4606 1323 4678 
Q 1659 4750 1953 4750 
Q 2638 4750 3022 4454 
Q 3406 4159 3406 3634 
Q 3406 3213 3140 2930 
Q 2875 2647 2388 2547 
Q 2963 2466 3280 2130 
Q 3597 1794 3597 1259 
Q 3597 606 3158 257 
Q 2719 -91 1894 -91 
Q 1528 -91 1179 -12 
Q 831 66 488 225 
L 488 1131 
L 838 1131 
Q 869 681 1141 450 
Q 1413 219 1906 219 
Q 2384 219 2661 495 
Q 2938 772 2938 1253 
Q 2938 1803 2653 2086 
Q 2369 2369 1819 2369 
L 1522 2369 
L 1522 2688 
L 1678 2688 
Q 2225 2688 2498 2914 
Q 2772 3141 2772 3597 
Q 2772 4006 2547 4223 
Q 2322 4441 1900 4441 
Q 1478 4441 1245 4241 
Q 1013 4041 972 3647 
L 622 3647 
L 622 4469 
z
" transform="scale(0.015625)"/>
      </defs>
      <use xlink:href="#DejaVuSerif-4d"/>
      <use xlink:href="#DejaVuSerif-33" x="102.392578"/>
     </g>
    </g>
   </g>
  </g>
 </g>
 <defs>
  <clipPath id="pdb39f1d634">
   <rect x="58.484375" y="22.318125" width="357.12" height="266.112"/>
  </clipPath>
 </defs>
</svg>
