<?xml version="1.0" encoding="utf-8" standalone="no"?>
<!DOCTYPE svg PUBLIC "-//W3C//DTD SVG 1.1//EN"
  "http://www.w3.org/Graphics/SVG/1.1/DTD/svg11.dtd">
<svg xmlns:xlink="http://www.w3.org/1999/xlink" width="453.6pt" height="338.4pt" viewBox="0 0 453.6 338.4" xmlns="http://www.w3.org/2000/svg" version="1.1">
 <metadata>
  <rdf:RDF xmlns:dc="http://purl.org/dc/elements/1.1/" xmlns:cc="http://creativecommons.org/ns#" xmlns:rdf="http://www.w3.org/1999/02/22-rdf-syntax-ns#">
   <cc:Work>
    <dc:type rdf:resource="http://purl.org/dc/dcmitype/StillImage"/>
    <dc:date>2026-05-19T20:42:53.966281</dc:date>
    <dc:format>image/svg+xml</dc:format>
    <dc:creator>
     <cc:Agent>
      <dc:title>Matplotlib v3.10.3, https://matplotlib.org/</dc:title>
     </cc:Agent>
    </dc:creator>
   </cc:Work>
  </rdf:RDF>
 </metadata>
 <defs>
  <style type="text/css">*{stroke-linejoin: round; stroke-linecap: butt}</style>
 </defs>
 <g id="figure_1">
  <g id="patch_1">
   <path d="M 0 338.4 
L 453.6 338.4 
L 453.6 0 
L 0 0 
z
" style="fill: #ffffff"/>
  </g>
  <g id="axes_1">
   <g id="patch_2">
    <path d="M 58.626563 314.521875 
L 446.4 314.521875 
L 446.4 22.318125 
L 58.626563 22.318125 
z
" style="fill: #ffffff"/>
   </g>
   <g id="patch_3">
    <path d="M -568.273828 314.521875 
L -567.776683 314.521875 
L -567.776683 22.318125 
L -568.273828 22.318125 
z
" clip-path="url(#p24029a2b34)" style="fill: #d3d3d3"/>
   </g>
   <g id="patch_4">
    <path d="M -552.86232 314.521875 
L -543.913702 314.521875 
L -543.913702 22.318125 
L -552.86232 22.318125 
z
" clip-path="url(#p24029a2b34)" style="fill: #d3d3d3"/>
   </g>
   <g id="patch_5">
    <path d="M -532.976502 314.521875 
L -528.999339 314.521875 
L -528.999339 22.318125 
L -532.976502 22.318125 
z
" clip-path="url(#p24029a2b34)" style="fill: #d3d3d3"/>
   </g>
   <g id="patch_6">
    <path d="M -506.130649 314.521875 
L -490.221995 314.521875 
L -490.221995 22.318125 
L -506.130649 22.318125 
z
" clip-path="url(#p24029a2b34)" style="fill: #d3d3d3"/>
   </g>
   <g id="patch_7">
    <path d="M -481.273377 314.521875 
L -472.32476 314.521875 
L -472.32476 22.318125 
L -481.273377 22.318125 
z
" clip-path="url(#p24029a2b34)" style="fill: #d3d3d3"/>
   </g>
   <g id="patch_8">
    <path d="M -455.421815 314.521875 
L -423.107362 314.521875 
L -423.107362 22.318125 
L -455.421815 22.318125 
z
" clip-path="url(#p24029a2b34)" style="fill: #d3d3d3"/>
   </g>
   <g id="patch_9">
    <path d="M -405.210126 314.521875 
L -386.3186 314.521875 
L -386.3186 22.318125 
L -405.210126 22.318125 
z
" clip-path="url(#p24029a2b34)" style="fill: #d3d3d3"/>
   </g>
   <g id="patch_10">
    <path d="M -375.3814 314.521875 
L -368.91851 314.521875 
L -368.91851 22.318125 
L -375.3814 22.318125 
z
" clip-path="url(#p24029a2b34)" style="fill: #d3d3d3"/>
   </g>
   <g id="patch_11">
    <path d="M -355.495583 314.521875 
L -350.524129 314.521875 
L -350.524129 22.318125 
L -355.495583 22.318125 
z
" clip-path="url(#p24029a2b34)" style="fill: #d3d3d3"/>
   </g>
   <g id="patch_12">
    <path d="M -340.58122 314.521875 
L -332.129748 314.521875 
L -332.129748 22.318125 
L -340.58122 22.318125 
z
" clip-path="url(#p24029a2b34)" style="fill: #d3d3d3"/>
   </g>
   <g id="patch_13">
    <path d="M -323.18113 314.521875 
L -314.232512 314.521875 
L -314.232512 22.318125 
L -323.18113 22.318125 
z
" clip-path="url(#p24029a2b34)" style="fill: #d3d3d3"/>
   </g>
   <g id="patch_14">
    <path d="M -302.301022 314.521875 
L -293.352404 314.521875 
L -293.352404 22.318125 
L -302.301022 22.318125 
z
" clip-path="url(#p24029a2b34)" style="fill: #d3d3d3"/>
   </g>
   <g id="patch_15">
    <path d="M -282.91235 314.521875 
L -271.478005 314.521875 
L -271.478005 22.318125 
L -282.91235 22.318125 
z
" clip-path="url(#p24029a2b34)" style="fill: #d3d3d3"/>
   </g>
   <g id="patch_16">
    <path d="M -255.072206 314.521875 
L -248.609315 314.521875 
L -248.609315 22.318125 
L -255.072206 22.318125 
z
" clip-path="url(#p24029a2b34)" style="fill: #d3d3d3"/>
   </g>
   <g id="patch_17">
    <path d="M -239.163552 314.521875 
L -227.232061 314.521875 
L -227.232061 22.318125 
L -239.163552 22.318125 
z
" clip-path="url(#p24029a2b34)" style="fill: #d3d3d3"/>
   </g>
   <g id="patch_18">
    <path d="M -221.266316 314.521875 
L -209.831971 314.521875 
L -209.831971 22.318125 
L -221.266316 22.318125 
z
" clip-path="url(#p24029a2b34)" style="fill: #d3d3d3"/>
   </g>
   <g id="patch_19">
    <path d="M -187.957572 314.521875 
L -184.477554 314.521875 
L -184.477554 22.318125 
L -187.957572 22.318125 
z
" clip-path="url(#p24029a2b34)" style="fill: #d3d3d3"/>
   </g>
   <g id="patch_20">
    <path d="M -179.5061 314.521875 
L -170.557482 314.521875 
L -170.557482 22.318125 
L -179.5061 22.318125 
z
" clip-path="url(#p24029a2b34)" style="fill: #d3d3d3"/>
   </g>
   <g id="patch_21">
    <path d="M -159.620282 314.521875 
L -152.660246 314.521875 
L -152.660246 22.318125 
L -159.620282 22.318125 
z
" clip-path="url(#p24029a2b34)" style="fill: #d3d3d3"/>
   </g>
   <g id="patch_22">
    <path d="M -139.23732 314.521875 
L -132.774429 314.521875 
L -132.774429 22.318125 
L -139.23732 22.318125 
z
" clip-path="url(#p24029a2b34)" style="fill: #d3d3d3"/>
   </g>
   <g id="patch_23">
    <path d="M -122.334375 314.521875 
L -100.957121 314.521875 
L -100.957121 22.318125 
L -122.334375 22.318125 
z
" clip-path="url(#p24029a2b34)" style="fill: #d3d3d3"/>
   </g>
   <g id="patch_24">
    <path d="M -76.09985 314.521875 
L -69.636959 314.521875 
L -69.636959 22.318125 
L -76.09985 22.318125 
z
" clip-path="url(#p24029a2b34)" style="fill: #d3d3d3"/>
   </g>
   <g id="patch_25">
    <path d="M -29.865325 314.521875 
L -25.888161 314.521875 
L -25.888161 22.318125 
L -29.865325 22.318125 
z
" clip-path="url(#p24029a2b34)" style="fill: #d3d3d3"/>
   </g>
   <g id="patch_26">
    <path d="M -7.49378 314.521875 
L -2.02518 314.521875 
L -2.02518 22.318125 
L -7.49378 22.318125 
z
" clip-path="url(#p24029a2b34)" style="fill: #d3d3d3"/>
   </g>
   <g id="patch_27">
    <path d="M 20.346364 314.521875 
L 25.317819 314.521875 
L 25.317819 22.318125 
L 20.346364 22.318125 
z
" clip-path="url(#p24029a2b34)" style="fill: #d3d3d3"/>
   </g>
   <g id="patch_28">
    <path d="M 44.70649 314.521875 
L 48.683654 314.521875 
L 48.683654 22.318125 
L 44.70649 22.318125 
z
" clip-path="url(#p24029a2b34)" style="fill: #d3d3d3"/>
   </g>
   <g id="patch_29">
    <path d="M 60.615144 314.521875 
L 65.586599 314.521875 
L 65.586599 22.318125 
L 60.615144 22.318125 
z
" clip-path="url(#p24029a2b34)" style="fill: #d3d3d3"/>
   </g>
   <g id="patch_30">
    <path d="M 118.284014 314.521875 
L 123.752614 314.521875 
L 123.752614 22.318125 
L 118.284014 22.318125 
z
" clip-path="url(#p24029a2b34)" style="fill: #d3d3d3"/>
   </g>
   <g id="patch_31">
    <path d="M 141.64985 314.521875 
L 149.604177 314.521875 
L 149.604177 22.318125 
L 141.64985 22.318125 
z
" clip-path="url(#p24029a2b34)" style="fill: #d3d3d3"/>
   </g>
   <g id="patch_32">
    <path d="M 178.438612 314.521875 
L 181.421484 314.521875 
L 181.421484 22.318125 
L 178.438612 22.318125 
z
" clip-path="url(#p24029a2b34)" style="fill: #d3d3d3"/>
   </g>
   <g id="patch_33">
    <path d="M 187.38723 314.521875 
L 195.341556 314.521875 
L 195.341556 22.318125 
L 187.38723 22.318125 
z
" clip-path="url(#p24029a2b34)" style="fill: #d3d3d3"/>
   </g>
   <g id="patch_34">
    <path d="M 241.078936 314.521875 
L 245.0561 314.521875 
L 245.0561 22.318125 
L 241.078936 22.318125 
z
" clip-path="url(#p24029a2b34)" style="fill: #d3d3d3"/>
   </g>
   <g id="patch_35">
    <path d="M 304.713552 314.521875 
L 308.690715 314.521875 
L 308.690715 22.318125 
L 304.713552 22.318125 
z
" clip-path="url(#p24029a2b34)" style="fill: #d3d3d3"/>
   </g>
   <g id="patch_36">
    <path d="M 344.982332 314.521875 
L 353.93095 314.521875 
L 353.93095 22.318125 
L 344.982332 22.318125 
z
" clip-path="url(#p24029a2b34)" style="fill: #d3d3d3"/>
   </g>
   <g id="patch_37">
    <path d="M 417.565565 314.521875 
L 418.559856 314.521875 
L 418.559856 22.318125 
L 417.565565 22.318125 
z
" clip-path="url(#p24029a2b34)" style="fill: #d3d3d3"/>
   </g>
   <g id="matplotlib.axis_1">
    <g id="xtick_1">
     <g id="line2d_1">
      <path d="M 112.318269 314.521875 
L 112.318269 22.318125 
" clip-path="url(#p24029a2b34)" style="fill: none; stroke: #b0b0b0; stroke-width: 0.8; stroke-linecap: square"/>
     </g>
     <g id="line2d_2">
      <defs>
       <path id="m78c09acc95" d="M 0 0 
L 0 3.5 
" style="stroke: #000000; stroke-width: 0.8"/>
      </defs>
      <g>
       <use xlink:href="#m78c09acc95" x="112.318269" y="314.521875" style="stroke: #000000; stroke-width: 0.8"/>
      </g>
     </g>
     <g id="text_1">
      <!-- 1969 -->
      <g transform="translate(99.593269 329.120312) scale(0.1 -0.1)">
       <defs>
        <path id="DejaVuSerif-31" d="M 909 0 
L 909 331 
L 1722 331 
L 1722 4213 
L 781 3603 
L 781 4013 
L 1919 4750 
L 2350 4750 
L 2350 331 
L 3163 331 
L 3163 0 
L 909 0 
z
" transform="scale(0.015625)"/>
        <path id="DejaVuSerif-39" d="M 2994 2091 
Q 2784 1856 2512 1740 
Q 2241 1625 1900 1625 
Q 1206 1625 804 2044 
Q 403 2463 403 3188 
Q 403 3897 839 4323 
Q 1275 4750 2003 4750 
Q 2794 4750 3217 4161 
Q 3641 3572 3641 2478 
Q 3641 1253 3137 581 
Q 2634 -91 1722 -91 
Q 1475 -91 1203 -44 
Q 931 3 647 97 
L 647 872 
L 997 872 
Q 1038 556 1241 387 
Q 1444 219 1784 219 
Q 2391 219 2687 676 
Q 2984 1134 2994 2091 
z
M 1978 4441 
Q 1534 4441 1298 4117 
Q 1063 3794 1063 3188 
Q 1063 2581 1298 2256 
Q 1534 1931 1978 1931 
Q 2422 1931 2658 2245 
Q 2894 2559 2894 3150 
Q 2894 3772 2656 4106 
Q 2419 4441 1978 4441 
z
" transform="scale(0.015625)"/>
        <path id="DejaVuSerif-36" d="M 2094 219 
Q 2534 219 2771 542 
Q 3009 866 3009 1472 
Q 3009 2078 2771 2401 
Q 2534 2725 2094 2725 
Q 1647 2725 1412 2412 
Q 1178 2100 1178 1509 
Q 1178 888 1415 553 
Q 1653 219 2094 219 
z
M 1075 2569 
Q 1288 2803 1556 2918 
Q 1825 3034 2163 3034 
Q 2859 3034 3264 2615 
Q 3669 2197 3669 1472 
Q 3669 763 3233 336 
Q 2797 -91 2069 -91 
Q 1278 -91 853 498 
Q 428 1088 428 2181 
Q 428 3406 931 4078 
Q 1434 4750 2350 4750 
Q 2597 4750 2869 4703 
Q 3141 4656 3425 4563 
L 3425 3794 
L 3072 3794 
Q 3034 4109 2831 4275 
Q 2628 4441 2284 4441 
Q 1678 4441 1381 3981 
Q 1084 3522 1075 2569 
z
" transform="scale(0.015625)"/>
       </defs>
       <use xlink:href="#DejaVuSerif-31"/>
       <use xlink:href="#DejaVuSerif-39" transform="translate(63.623047 0)"/>
       <use xlink:href="#DejaVuSerif-36" transform="translate(127.246094 0)"/>
       <use xlink:href="#DejaVuSerif-39" transform="translate(190.869141 0)"/>
      </g>
     </g>
    </g>
    <g id="xtick_2">
     <g id="line2d_3">
      <path d="M 171.975721 314.521875 
L 171.975721 22.318125 
" clip-path="url(#p24029a2b34)" style="fill: none; stroke: #b0b0b0; stroke-width: 0.8; stroke-linecap: square"/>
     </g>
     <g id="line2d_4">
      <g>
       <use xlink:href="#m78c09acc95" x="171.975721" y="314.521875" style="stroke: #000000; stroke-width: 0.8"/>
      </g>
     </g>
     <g id="text_2">
      <!-- 1979 -->
      <g transform="translate(159.250721 329.120312) scale(0.1 -0.1)">
       <defs>
        <path id="DejaVuSerif-37" d="M 3609 4347 
L 1784 0 
L 1319 0 
L 3059 4153 
L 903 4153 
L 903 3578 
L 538 3578 
L 538 4666 
L 3609 4666 
L 3609 4347 
z
" transform="scale(0.015625)"/>
       </defs>
       <use xlink:href="#DejaVuSerif-31"/>
       <use xlink:href="#DejaVuSerif-39" transform="translate(63.623047 0)"/>
       <use xlink:href="#DejaVuSerif-37" transform="translate(127.246094 0)"/>
       <use xlink:href="#DejaVuSerif-39" transform="translate(190.869141 0)"/>
      </g>
     </g>
    </g>
    <g id="xtick_3">
     <g id="line2d_5">
      <path d="M 231.633173 314.521875 
L 231.633173 22.318125 
" clip-path="url(#p24029a2b34)" style="fill: none; stroke: #b0b0b0; stroke-width: 0.8; stroke-linecap: square"/>
     </g>
     <g id="line2d_6">
      <g>
       <use xlink:href="#m78c09acc95" x="231.633173" y="314.521875" style="stroke: #000000; stroke-width: 0.8"/>
      </g>
     </g>
     <g id="text_3">
      <!-- 1989 -->
      <g transform="translate(218.908173 329.120312) scale(0.1 -0.1)">
       <defs>
        <path id="DejaVuSerif-38" d="M 2981 1275 
Q 2981 1775 2732 2051 
Q 2484 2328 2034 2328 
Q 1584 2328 1336 2051 
Q 1088 1775 1088 1275 
Q 1088 772 1336 495 
Q 1584 219 2034 219 
Q 2484 219 2732 495 
Q 2981 772 2981 1275 
z
M 2853 3541 
Q 2853 3966 2637 4203 
Q 2422 4441 2034 4441 
Q 1650 4441 1433 4203 
Q 1216 3966 1216 3541 
Q 1216 3113 1433 2875 
Q 1650 2638 2034 2638 
Q 2422 2638 2637 2875 
Q 2853 3113 2853 3541 
z
M 2516 2484 
Q 3047 2413 3344 2092 
Q 3641 1772 3641 1275 
Q 3641 619 3225 264 
Q 2809 -91 2034 -91 
Q 1263 -91 845 264 
Q 428 619 428 1275 
Q 428 1772 725 2092 
Q 1022 2413 1556 2484 
Q 1084 2569 832 2842 
Q 581 3116 581 3541 
Q 581 4103 968 4426 
Q 1356 4750 2034 4750 
Q 2713 4750 3100 4426 
Q 3488 4103 3488 3541 
Q 3488 3116 3236 2842 
Q 2984 2569 2516 2484 
z
" transform="scale(0.015625)"/>
       </defs>
       <use xlink:href="#DejaVuSerif-31"/>
       <use xlink:href="#DejaVuSerif-39" transform="translate(63.623047 0)"/>
       <use xlink:href="#DejaVuSerif-38" transform="translate(127.246094 0)"/>
       <use xlink:href="#DejaVuSerif-39" transform="translate(190.869141 0)"/>
      </g>
     </g>
    </g>
    <g id="xtick_4">
     <g id="line2d_7">
      <path d="M 291.290625 314.521875 
L 291.290625 22.318125 
" clip-path="url(#p24029a2b34)" style="fill: none; stroke: #b0b0b0; stroke-width: 0.8; stroke-linecap: square"/>
     </g>
     <g id="line2d_8">
      <g>
       <use xlink:href="#m78c09acc95" x="291.290625" y="314.521875" style="stroke: #000000; stroke-width: 0.8"/>
      </g>
     </g>
     <g id="text_4">
      <!-- 1999 -->
      <g transform="translate(278.565625 329.120312) scale(0.1 -0.1)">
       <use xlink:href="#DejaVuSerif-31"/>
       <use xlink:href="#DejaVuSerif-39" transform="translate(63.623047 0)"/>
       <use xlink:href="#DejaVuSerif-39" transform="translate(127.246094 0)"/>
       <use xlink:href="#DejaVuSerif-39" transform="translate(190.869141 0)"/>
      </g>
     </g>
    </g>
    <g id="xtick_5">
     <g id="line2d_9">
      <path d="M 350.948077 314.521875 
L 350.948077 22.318125 
" clip-path="url(#p24029a2b34)" style="fill: none; stroke: #b0b0b0; stroke-width: 0.8; stroke-linecap: square"/>
     </g>
     <g id="line2d_10">
      <g>
       <use xlink:href="#m78c09acc95" x="350.948077" y="314.521875" style="stroke: #000000; stroke-width: 0.8"/>
      </g>
     </g>
     <g id="text_5">
      <!-- 2009 -->
      <g transform="translate(338.223077 329.120312) scale(0.1 -0.1)">
       <defs>
        <path id="DejaVuSerif-32" d="M 819 3553 
L 469 3553 
L 469 4384 
Q 803 4563 1142 4656 
Q 1481 4750 1806 4750 
Q 2534 4750 2956 4397 
Q 3378 4044 3378 3438 
Q 3378 2753 2422 1800 
Q 2347 1728 2309 1691 
L 1131 513 
L 3078 513 
L 3078 1088 
L 3444 1088 
L 3444 0 
L 434 0 
L 434 341 
L 1850 1753 
Q 2319 2222 2519 2614 
Q 2719 3006 2719 3438 
Q 2719 3909 2473 4175 
Q 2228 4441 1797 4441 
Q 1350 4441 1106 4219 
Q 863 3997 819 3553 
z
" transform="scale(0.015625)"/>
        <path id="DejaVuSerif-30" d="M 2034 219 
Q 2513 219 2750 744 
Q 2988 1269 2988 2328 
Q 2988 3391 2750 3916 
Q 2513 4441 2034 4441 
Q 1556 4441 1318 3916 
Q 1081 3391 1081 2328 
Q 1081 1269 1318 744 
Q 1556 219 2034 219 
z
M 2034 -91 
Q 1275 -91 848 546 
Q 422 1184 422 2328 
Q 422 3475 848 4112 
Q 1275 4750 2034 4750 
Q 2797 4750 3222 4112 
Q 3647 3475 3647 2328 
Q 3647 1184 3222 546 
Q 2797 -91 2034 -91 
z
" transform="scale(0.015625)"/>
       </defs>
       <use xlink:href="#DejaVuSerif-32"/>
       <use xlink:href="#DejaVuSerif-30" transform="translate(63.623047 0)"/>
       <use xlink:href="#DejaVuSerif-30" transform="translate(127.246094 0)"/>
       <use xlink:href="#DejaVuSerif-39" transform="translate(190.869141 0)"/>
      </g>
     </g>
    </g>
    <g id="xtick_6">
     <g id="line2d_11">
      <path d="M 410.605529 314.521875 
L 410.605529 22.318125 
" clip-path="url(#p24029a2b34)" style="fill: none; stroke: #b0b0b0; stroke-width: 0.8; stroke-linecap: square"/>
     </g>
     <g id="line2d_12">
      <g>
       <use xlink:href="#m78c09acc95" x="410.605529" y="314.521875" style="stroke: #000000; stroke-width: 0.8"/>
      </g>
     </g>
     <g id="text_6">
      <!-- 2019 -->
      <g transform="translate(397.880529 329.120312) scale(0.1 -0.1)">
       <use xlink:href="#DejaVuSerif-32"/>
       <use xlink:href="#DejaVuSerif-30" transform="translate(63.623047 0)"/>
       <use xlink:href="#DejaVuSerif-31" transform="translate(127.246094 0)"/>
       <use xlink:href="#DejaVuSerif-39" transform="translate(190.869141 0)"/>
      </g>
     </g>
    </g>
    <g id="xtick_7">
     <g id="line2d_13">
      <defs>
       <path id="m226e1eef4a" d="M 0 0 
L 0 2 
" style="stroke: #000000; stroke-width: 0.6"/>
      </defs>
      <g>
       <use xlink:href="#m226e1eef4a" x="82.489543" y="314.521875" style="stroke: #000000; stroke-width: 0.6"/>
      </g>
     </g>
    </g>
    <g id="xtick_8">
     <g id="line2d_14">
      <g>
       <use xlink:href="#m226e1eef4a" x="142.146995" y="314.521875" style="stroke: #000000; stroke-width: 0.6"/>
      </g>
     </g>
    </g>
    <g id="xtick_9">
     <g id="line2d_15">
      <g>
       <use xlink:href="#m226e1eef4a" x="201.804447" y="314.521875" style="stroke: #000000; stroke-width: 0.6"/>
      </g>
     </g>
    </g>
    <g id="xtick_10">
     <g id="line2d_16">
      <g>
       <use xlink:href="#m226e1eef4a" x="261.461899" y="314.521875" style="stroke: #000000; stroke-width: 0.6"/>
      </g>
     </g>
    </g>
    <g id="xtick_11">
     <g id="line2d_17">
      <g>
       <use xlink:href="#m226e1eef4a" x="321.119351" y="314.521875" style="stroke: #000000; stroke-width: 0.6"/>
      </g>
     </g>
    </g>
    <g id="xtick_12">
     <g id="line2d_18">
      <g>
       <use xlink:href="#m226e1eef4a" x="380.776803" y="314.521875" style="stroke: #000000; stroke-width: 0.6"/>
      </g>
     </g>
    </g>
    <g id="xtick_13">
     <g id="line2d_19">
      <g>
       <use xlink:href="#m226e1eef4a" x="440.434255" y="314.521875" style="stroke: #000000; stroke-width: 0.6"/>
      </g>
     </g>
    </g>
   </g>
   <g id="matplotlib.axis_2">
    <g id="ytick_1">
     <g id="line2d_20">
      <path d="M 58.626563 310.130357 
L 446.4 310.130357 
" clip-path="url(#p24029a2b34)" style="fill: none; stroke-dasharray: 2.96,1.28; stroke-dashoffset: 0; stroke: #b0b0b0; stroke-width: 0.8"/>
     </g>
     <g id="line2d_21">
      <defs>
       <path id="m7cd21c541d" d="M 0 0 
L -3.5 0 
" style="stroke: #000000; stroke-width: 0.8"/>
      </defs>
      <g>
       <use xlink:href="#m7cd21c541d" x="58.626563" y="310.130357" style="stroke: #000000; stroke-width: 0.8"/>
      </g>
     </g>
     <g id="text_7">
      <!-- −20% -->
      <g transform="translate(21.020313 313.929575) scale(0.1 -0.1)">
       <defs>
        <path id="DejaVuSerif-2212" d="M 678 2259 
L 4684 2259 
L 4684 1753 
L 678 1753 
L 678 2259 
z
" transform="scale(0.015625)"/>
        <path id="DejaVuSerif-25" d="M 1434 4459 
Q 1159 4459 1004 4200 
Q 850 3941 850 3475 
Q 850 3016 1008 2753 
Q 1166 2491 1434 2491 
Q 1700 2491 1854 2752 
Q 2009 3013 2009 3475 
Q 2009 3938 1854 4198 
Q 1700 4459 1434 4459 
z
M 4653 2169 
Q 4381 2169 4226 1906 
Q 4072 1644 4072 1178 
Q 4072 719 4228 458 
Q 4384 197 4653 197 
Q 4922 197 5075 458 
Q 5228 719 5228 1178 
Q 5228 1641 5073 1905 
Q 4919 2169 4653 2169 
z
M 4653 2450 
Q 5147 2450 5437 2106 
Q 5728 1763 5728 1178 
Q 5728 594 5436 251 
Q 5144 -91 4653 -91 
Q 4153 -91 3862 251 
Q 3572 594 3572 1178 
Q 3572 1766 3864 2108 
Q 4156 2450 4653 2450 
z
M 4263 4750 
L 4738 4750 
L 1819 -91 
L 1344 -91 
L 4263 4750 
z
M 1428 4750 
Q 1922 4750 2215 4408 
Q 2509 4066 2509 3481 
Q 2509 2891 2217 2550 
Q 1925 2209 1428 2209 
Q 931 2209 642 2551 
Q 353 2894 353 3481 
Q 353 4063 643 4406 
Q 934 4750 1428 4750 
z
" transform="scale(0.015625)"/>
       </defs>
       <use xlink:href="#DejaVuSerif-2212"/>
       <use xlink:href="#DejaVuSerif-32" transform="translate(83.789062 0)"/>
       <use xlink:href="#DejaVuSerif-30" transform="translate(147.412109 0)"/>
       <use xlink:href="#DejaVuSerif-25" transform="translate(211.035156 0)"/>
      </g>
     </g>
    </g>
    <g id="ytick_2">
     <g id="line2d_22">
      <path d="M 58.626563 268.742817 
L 446.4 268.742817 
" clip-path="url(#p24029a2b34)" style="fill: none; stroke-dasharray: 2.96,1.28; stroke-dashoffset: 0; stroke: #b0b0b0; stroke-width: 0.8"/>
     </g>
     <g id="line2d_23">
      <g>
       <use xlink:href="#m7cd21c541d" x="58.626563" y="268.742817" style="stroke: #000000; stroke-width: 0.8"/>
      </g>
     </g>
     <g id="text_8">
      <!-- 0% -->
      <g transform="translate(35.7625 272.542035) scale(0.1 -0.1)">
       <use xlink:href="#DejaVuSerif-30"/>
       <use xlink:href="#DejaVuSerif-25" transform="translate(63.623047 0)"/>
      </g>
     </g>
    </g>
    <g id="ytick_3">
     <g id="line2d_24">
      <path d="M 58.626563 227.355276 
L 446.4 227.355276 
" clip-path="url(#p24029a2b34)" style="fill: none; stroke-dasharray: 2.96,1.28; stroke-dashoffset: 0; stroke: #b0b0b0; stroke-width: 0.8"/>
     </g>
     <g id="line2d_25">
      <g>
       <use xlink:href="#m7cd21c541d" x="58.626563" y="227.355276" style="stroke: #000000; stroke-width: 0.8"/>
      </g>
     </g>
     <g id="text_9">
      <!-- 20% -->
      <g transform="translate(29.4 231.154495) scale(0.1 -0.1)">
       <use xlink:href="#DejaVuSerif-32"/>
       <use xlink:href="#DejaVuSerif-30" transform="translate(63.623047 0)"/>
       <use xlink:href="#DejaVuSerif-25" transform="translate(127.246094 0)"/>
      </g>
     </g>
    </g>
    <g id="ytick_4">
     <g id="line2d_26">
      <path d="M 58.626563 185.967736 
L 446.4 185.967736 
" clip-path="url(#p24029a2b34)" style="fill: none; stroke-dasharray: 2.96,1.28; stroke-dashoffset: 0; stroke: #b0b0b0; stroke-width: 0.8"/>
     </g>
     <g id="line2d_27">
      <g>
       <use xlink:href="#m7cd21c541d" x="58.626563" y="185.967736" style="stroke: #000000; stroke-width: 0.8"/>
      </g>
     </g>
     <g id="text_10">
      <!-- 40% -->
      <g transform="translate(29.4 189.766955) scale(0.1 -0.1)">
       <defs>
        <path id="DejaVuSerif-34" d="M 2234 1581 
L 2234 4063 
L 641 1581 
L 2234 1581 
z
M 3609 0 
L 1484 0 
L 1484 331 
L 2234 331 
L 2234 1247 
L 197 1247 
L 197 1588 
L 2241 4750 
L 2859 4750 
L 2859 1581 
L 3750 1581 
L 3750 1247 
L 2859 1247 
L 2859 331 
L 3609 331 
L 3609 0 
z
" transform="scale(0.015625)"/>
       </defs>
       <use xlink:href="#DejaVuSerif-34"/>
       <use xlink:href="#DejaVuSerif-30" transform="translate(63.623047 0)"/>
       <use xlink:href="#DejaVuSerif-25" transform="translate(127.246094 0)"/>
      </g>
     </g>
    </g>
    <g id="ytick_5">
     <g id="line2d_28">
      <path d="M 58.626563 144.580196 
L 446.4 144.580196 
" clip-path="url(#p24029a2b34)" style="fill: none; stroke-dasharray: 2.96,1.28; stroke-dashoffset: 0; stroke: #b0b0b0; stroke-width: 0.8"/>
     </g>
     <g id="line2d_29">
      <g>
       <use xlink:href="#m7cd21c541d" x="58.626563" y="144.580196" style="stroke: #000000; stroke-width: 0.8"/>
      </g>
     </g>
     <g id="text_11">
      <!-- 60% -->
      <g transform="translate(29.4 148.379415) scale(0.1 -0.1)">
       <use xlink:href="#DejaVuSerif-36"/>
       <use xlink:href="#DejaVuSerif-30" transform="translate(63.623047 0)"/>
       <use xlink:href="#DejaVuSerif-25" transform="translate(127.246094 0)"/>
      </g>
     </g>
    </g>
    <g id="ytick_6">
     <g id="line2d_30">
      <path d="M 58.626563 103.192656 
L 446.4 103.192656 
" clip-path="url(#p24029a2b34)" style="fill: none; stroke-dasharray: 2.96,1.28; stroke-dashoffset: 0; stroke: #b0b0b0; stroke-width: 0.8"/>
     </g>
     <g id="line2d_31">
      <g>
       <use xlink:href="#m7cd21c541d" x="58.626563" y="103.192656" style="stroke: #000000; stroke-width: 0.8"/>
      </g>
     </g>
     <g id="text_12">
      <!-- 80% -->
      <g transform="translate(29.4 106.991874) scale(0.1 -0.1)">
       <use xlink:href="#DejaVuSerif-38"/>
       <use xlink:href="#DejaVuSerif-30" transform="translate(63.623047 0)"/>
       <use xlink:href="#DejaVuSerif-25" transform="translate(127.246094 0)"/>
      </g>
     </g>
    </g>
    <g id="ytick_7">
     <g id="line2d_32">
      <path d="M 58.626563 61.805115 
L 446.4 61.805115 
" clip-path="url(#p24029a2b34)" style="fill: none; stroke-dasharray: 2.96,1.28; stroke-dashoffset: 0; stroke: #b0b0b0; stroke-width: 0.8"/>
     </g>
     <g id="line2d_33">
      <g>
       <use xlink:href="#m7cd21c541d" x="58.626563" y="61.805115" style="stroke: #000000; stroke-width: 0.8"/>
      </g>
     </g>
     <g id="text_13">
      <!-- 100% -->
      <g transform="translate(23.0375 65.604334) scale(0.1 -0.1)">
       <use xlink:href="#DejaVuSerif-31"/>
       <use xlink:href="#DejaVuSerif-30" transform="translate(63.623047 0)"/>
       <use xlink:href="#DejaVuSerif-30" transform="translate(127.246094 0)"/>
       <use xlink:href="#DejaVuSerif-25" transform="translate(190.869141 0)"/>
      </g>
     </g>
    </g>
    <g id="text_14">
     <!-- Annual change [%] -->
     <g transform="translate(14.798437 216.484844) rotate(-90) scale(0.1 -0.1)">
      <defs>
       <path id="DejaVuSerif-41" d="M 1281 1691 
L 2994 1691 
L 2138 3909 
L 1281 1691 
z
M -38 0 
L -38 331 
L 372 331 
L 2034 4666 
L 2559 4666 
L 4225 331 
L 4684 331 
L 4684 0 
L 2988 0 
L 2988 331 
L 3506 331 
L 3116 1356 
L 1153 1356 
L 763 331 
L 1275 331 
L 1275 0 
L -38 0 
z
" transform="scale(0.015625)"/>
       <path id="DejaVuSerif-6e" d="M 263 0 
L 263 331 
L 781 331 
L 781 2988 
L 231 2988 
L 231 3322 
L 1356 3322 
L 1356 2731 
Q 1516 3069 1770 3241 
Q 2025 3413 2363 3413 
Q 2913 3413 3172 3097 
Q 3431 2781 3431 2113 
L 3431 331 
L 3944 331 
L 3944 0 
L 2356 0 
L 2356 331 
L 2853 331 
L 2853 1931 
Q 2853 2541 2703 2767 
Q 2553 2994 2175 2994 
Q 1775 2994 1565 2701 
Q 1356 2409 1356 1850 
L 1356 331 
L 1856 331 
L 1856 0 
L 263 0 
z
" transform="scale(0.015625)"/>
       <path id="DejaVuSerif-75" d="M 2266 3322 
L 3341 3322 
L 3341 331 
L 3884 331 
L 3884 0 
L 2766 0 
L 2766 588 
Q 2606 256 2353 82 
Q 2100 -91 1766 -91 
Q 1213 -91 952 223 
Q 691 538 691 1209 
L 691 2988 
L 172 2988 
L 172 3322 
L 1269 3322 
L 1269 1388 
Q 1269 781 1417 556 
Q 1566 331 1947 331 
Q 2347 331 2556 625 
Q 2766 919 2766 1478 
L 2766 2988 
L 2266 2988 
L 2266 3322 
z
" transform="scale(0.015625)"/>
       <path id="DejaVuSerif-61" d="M 2547 1044 
L 2547 1747 
L 1806 1747 
Q 1378 1747 1168 1562 
Q 959 1378 959 997 
Q 959 650 1171 447 
Q 1384 244 1747 244 
Q 2106 244 2326 466 
Q 2547 688 2547 1044 
z
M 3122 2075 
L 3122 331 
L 3634 331 
L 3634 0 
L 2547 0 
L 2547 359 
Q 2356 128 2106 18 
Q 1856 -91 1522 -91 
Q 969 -91 644 203 
Q 319 497 319 997 
Q 319 1513 691 1797 
Q 1063 2081 1741 2081 
L 2547 2081 
L 2547 2309 
Q 2547 2688 2317 2895 
Q 2088 3103 1672 3103 
Q 1328 3103 1125 2947 
Q 922 2791 872 2484 
L 575 2484 
L 575 3156 
Q 875 3284 1158 3348 
Q 1441 3413 1709 3413 
Q 2400 3413 2761 3070 
Q 3122 2728 3122 2075 
z
" transform="scale(0.015625)"/>
       <path id="DejaVuSerif-6c" d="M 1313 331 
L 1856 331 
L 1856 0 
L 184 0 
L 184 331 
L 738 331 
L 738 4531 
L 184 4531 
L 184 4863 
L 1313 4863 
L 1313 331 
z
" transform="scale(0.015625)"/>
       <path id="DejaVuSerif-20" transform="scale(0.015625)"/>
       <path id="DejaVuSerif-63" d="M 3291 997 
Q 3169 466 2822 187 
Q 2475 -91 1925 -91 
Q 1200 -91 759 389 
Q 319 869 319 1663 
Q 319 2459 759 2936 
Q 1200 3413 1925 3413 
Q 2241 3413 2553 3339 
Q 2866 3266 3181 3116 
L 3181 2266 
L 2847 2266 
Q 2781 2703 2561 2903 
Q 2341 3103 1931 3103 
Q 1466 3103 1228 2742 
Q 991 2381 991 1663 
Q 991 944 1227 581 
Q 1463 219 1931 219 
Q 2303 219 2525 412 
Q 2747 606 2828 997 
L 3291 997 
z
" transform="scale(0.015625)"/>
       <path id="DejaVuSerif-68" d="M 263 0 
L 263 331 
L 781 331 
L 781 4531 
L 231 4531 
L 231 4863 
L 1356 4863 
L 1356 2731 
Q 1516 3069 1770 3241 
Q 2025 3413 2363 3413 
Q 2913 3413 3172 3097 
Q 3431 2781 3431 2113 
L 3431 331 
L 3944 331 
L 3944 0 
L 2356 0 
L 2356 331 
L 2853 331 
L 2853 1931 
Q 2853 2541 2704 2764 
Q 2556 2988 2175 2988 
Q 1775 2988 1565 2697 
Q 1356 2406 1356 1850 
L 1356 331 
L 1856 331 
L 1856 0 
L 263 0 
z
" transform="scale(0.015625)"/>
       <path id="DejaVuSerif-67" d="M 3359 2988 
L 3359 72 
Q 3359 -644 2965 -1033 
Q 2572 -1422 1844 -1422 
Q 1516 -1422 1216 -1362 
Q 916 -1303 641 -1184 
L 641 -488 
L 941 -488 
Q 997 -813 1206 -963 
Q 1416 -1113 1806 -1113 
Q 2313 -1113 2548 -827 
Q 2784 -541 2784 72 
L 2784 519 
Q 2616 206 2355 57 
Q 2094 -91 1709 -91 
Q 1097 -91 708 395 
Q 319 881 319 1663 
Q 319 2444 706 2928 
Q 1094 3413 1709 3413 
Q 2094 3413 2355 3264 
Q 2616 3116 2784 2803 
L 2784 3322 
L 3909 3322 
L 3909 2988 
L 3359 2988 
z
M 2784 1825 
Q 2784 2422 2554 2737 
Q 2325 3053 1888 3053 
Q 1444 3053 1217 2703 
Q 991 2353 991 1663 
Q 991 975 1217 622 
Q 1444 269 1888 269 
Q 2325 269 2554 583 
Q 2784 897 2784 1497 
L 2784 1825 
z
" transform="scale(0.015625)"/>
       <path id="DejaVuSerif-65" d="M 3469 1600 
L 991 1600 
L 991 1575 
Q 991 903 1244 561 
Q 1497 219 1991 219 
Q 2369 219 2611 417 
Q 2853 616 2950 1006 
L 3413 1006 
Q 3275 459 2904 184 
Q 2534 -91 1931 -91 
Q 1203 -91 761 389 
Q 319 869 319 1663 
Q 319 2450 753 2931 
Q 1188 3413 1894 3413 
Q 2647 3413 3050 2948 
Q 3453 2484 3469 1600 
z
M 2791 1931 
Q 2772 2513 2545 2808 
Q 2319 3103 1894 3103 
Q 1497 3103 1269 2806 
Q 1041 2509 991 1931 
L 2791 1931 
z
" transform="scale(0.015625)"/>
       <path id="DejaVuSerif-5b" d="M 550 4863 
L 2003 4863 
L 2003 4531 
L 1147 4531 
L 1147 -513 
L 2003 -513 
L 2003 -844 
L 550 -844 
L 550 4863 
z
" transform="scale(0.015625)"/>
       <path id="DejaVuSerif-5d" d="M 1947 4863 
L 1947 -844 
L 494 -844 
L 494 -513 
L 1350 -513 
L 1350 4531 
L 494 4531 
L 494 4863 
L 1947 4863 
z
" transform="scale(0.015625)"/>
      </defs>
      <use xlink:href="#DejaVuSerif-41"/>
      <use xlink:href="#DejaVuSerif-6e" transform="translate(72.216797 0)"/>
      <use xlink:href="#DejaVuSerif-6e" transform="translate(136.621094 0)"/>
      <use xlink:href="#DejaVuSerif-75" transform="translate(201.025391 0)"/>
      <use xlink:href="#DejaVuSerif-61" transform="translate(265.429688 0)"/>
      <use xlink:href="#DejaVuSerif-6c" transform="translate(325.048828 0)"/>
      <use xlink:href="#DejaVuSerif-20" transform="translate(357.03125 0)"/>
      <use xlink:href="#DejaVuSerif-63" transform="translate(388.818359 0)"/>
      <use xlink:href="#DejaVuSerif-68" transform="translate(444.824219 0)"/>
      <use xlink:href="#DejaVuSerif-61" transform="translate(509.228516 0)"/>
      <use xlink:href="#DejaVuSerif-6e" transform="translate(568.847656 0)"/>
      <use xlink:href="#DejaVuSerif-67" transform="translate(633.251953 0)"/>
      <use xlink:href="#DejaVuSerif-65" transform="translate(697.265625 0)"/>
      <use xlink:href="#DejaVuSerif-20" transform="translate(756.445312 0)"/>
      <use xlink:href="#DejaVuSerif-5b" transform="translate(788.232422 0)"/>
      <use xlink:href="#DejaVuSerif-25" transform="translate(827.246094 0)"/>
      <use xlink:href="#DejaVuSerif-5d" transform="translate(922.265625 0)"/>
     </g>
    </g>
   </g>
   <g id="line2d_34">
    <path d="M 58.626563 267.923261 
L 59.123708 269.573892 
L 59.620853 269.575564 
L 60.117999 270.395014 
L 60.615144 270.395014 
L 61.11229 269.977037 
L 61.609435 269.96489 
L 62.106581 270.375461 
L 62.603726 272.008106 
L 63.100871 271.191783 
L 63.598017 271.182161 
L 64.095162 275.57377 
L 64.592308 275.273395 
L 65.089453 273.749374 
L 65.586599 273.341432 
L 66.083744 273.7393 
L 66.580889 273.7393 
L 67.078035 273.295446 
L 67.57518 274.069926 
L 68.072326 272.856886 
L 68.569471 269.986931 
L 69.066617 269.155866 
L 69.563762 267.920003 
L 70.060907 262.509753 
L 70.558053 262.420891 
L 71.055198 262.757015 
L 71.552344 261.901901 
L 72.049489 260.635979 
L 72.546635 260.209303 
L 73.04378 260.279107 
L 73.540925 259.91011 
L 74.535216 261.650194 
L 75.032362 262.12081 
L 75.529507 265.464595 
L 76.026653 264.708943 
L 76.523798 264.653139 
L 77.020944 263.756366 
L 77.518089 263.776312 
L 78.015234 264.226319 
L 79.009525 263.457571 
L 79.506671 262.692007 
L 80.003816 263.084364 
L 80.500962 262.288619 
L 80.998107 262.727186 
L 81.495252 258.658133 
L 82.489543 258.315723 
L 82.986689 258.598812 
L 83.483834 258.234261 
L 84.478125 258.335891 
L 84.97527 258.039142 
L 85.472416 258.552702 
L 86.466707 257.007219 
L 86.963852 256.661708 
L 87.460998 257.203539 
L 87.958143 258.188617 
L 88.952434 257.138833 
L 89.449579 257.588182 
L 89.946725 257.267528 
L 90.44387 257.690895 
L 90.941016 257.811681 
L 91.438161 257.536804 
L 91.935306 258.283871 
L 92.432452 258.747614 
L 92.929597 258.064537 
L 93.426743 258.541662 
L 93.923888 256.907558 
L 94.421034 256.420782 
L 94.918179 256.65619 
L 95.415325 257.063793 
L 95.91247 256.420782 
L 96.409615 256.442324 
L 96.906761 256.928034 
L 97.403906 255.632037 
L 97.901052 256.298109 
L 98.398197 255.323648 
L 98.895343 256.487623 
L 99.392488 256.937646 
L 99.889633 257.887068 
L 100.386779 257.455306 
L 100.883924 256.631078 
L 101.38107 257.342242 
L 101.878215 259.165534 
L 102.375361 259.181339 
L 102.872506 258.920896 
L 103.369651 259.745525 
L 103.866797 258.681016 
L 104.363942 259.45715 
L 104.861088 257.83396 
L 105.358233 257.246278 
L 105.855379 257.138833 
L 106.352524 256.09302 
L 106.849669 255.9931 
L 107.84396 253.377774 
L 108.341106 253.402009 
L 108.838251 252.899149 
L 109.335397 253.09475 
L 109.832542 252.111038 
L 110.329688 253.508139 
L 110.826833 253.355946 
L 111.323978 252.561222 
L 111.821124 252.566271 
L 112.318269 252.848045 
L 112.815415 253.961552 
L 113.31256 255.560119 
L 113.809706 255.35273 
L 114.306851 252.637533 
L 115.301142 256.866908 
L 116.295433 257.509056 
L 116.792578 258.220561 
L 117.289724 257.486791 
L 117.786869 258.268542 
L 118.284014 258.807536 
L 118.78116 259.545585 
L 119.775451 257.59562 
L 120.272596 259.721009 
L 120.769742 259.170188 
L 121.266887 256.669111 
L 121.764032 256.405067 
L 122.261178 255.00305 
L 122.758323 256.782707 
L 123.255469 258.067459 
L 123.752614 257.425911 
L 124.746905 253.882928 
L 125.24405 253.627845 
L 125.741196 254.368376 
L 126.238341 253.073904 
L 126.735487 252.596832 
L 127.232632 252.293922 
L 128.226923 253.754953 
L 128.724069 252.966118 
L 129.221214 253.124877 
L 129.718359 253.925055 
L 130.215505 253.451853 
L 130.71265 254.621757 
L 131.706941 252.766009 
L 132.204087 253.423399 
L 132.701232 253.76542 
L 133.198377 254.242431 
L 133.695523 253.979128 
L 134.192668 254.521979 
L 134.689814 252.373482 
L 135.186959 256.641197 
L 135.684105 257.776072 
L 136.18125 258.063692 
L 136.678395 258.648294 
L 137.175541 258.240788 
L 137.672686 257.677888 
L 138.169832 257.986733 
L 138.666977 257.569577 
L 139.164123 256.110659 
L 139.661268 255.651308 
L 140.158413 254.977559 
L 140.655559 254.931876 
L 141.152704 250.907302 
L 141.64985 249.045245 
L 142.146995 249.109687 
L 142.644141 248.57613 
L 143.141286 249.434689 
L 144.135577 247.182175 
L 144.632722 246.878534 
L 145.129868 248.178924 
L 145.627013 248.869885 
L 146.124159 249.167629 
L 146.621304 251.338825 
L 147.11845 250.638399 
L 147.615595 251.170684 
L 148.11274 253.696549 
L 148.609886 255.378525 
L 149.107031 256.068921 
L 150.101322 260.288163 
L 150.598468 259.154969 
L 151.095613 260.079392 
L 152.089904 261.078457 
L 152.587049 260.911683 
L 153.084195 260.61243 
L 153.58134 260.16805 
L 154.078486 260.672823 
L 154.575631 258.739193 
L 155.072776 257.77923 
L 155.569922 256.535817 
L 156.067067 255.978435 
L 156.564213 257.2887 
L 157.061358 257.21478 
L 157.558504 256.603483 
L 158.055649 256.6146 
L 158.552794 255.72668 
L 159.04994 255.331912 
L 159.547085 255.569064 
L 160.044231 254.318205 
L 160.541376 255.271284 
L 161.038522 254.984155 
L 161.535667 255.020157 
L 162.032813 255.26272 
L 162.529958 255.356986 
L 163.027103 253.526809 
L 163.524249 253.155301 
L 164.021394 252.989774 
L 164.51854 252.592447 
L 165.015685 252.474679 
L 165.512831 252.229085 
L 166.009976 250.590387 
L 166.507121 249.594931 
L 167.004267 250.611796 
L 167.501412 250.554262 
L 167.998558 249.41723 
L 168.495703 248.694665 
L 168.992849 249.399728 
L 169.489994 250.415001 
L 169.987139 249.113678 
L 170.484285 249.152056 
L 170.98143 247.497645 
L 171.478576 245.165619 
L 171.975721 246.332512 
L 172.472867 248.000809 
L 172.970012 247.584198 
L 173.467157 247.922865 
L 173.964303 249.660126 
L 174.461448 249.690917 
L 174.958594 249.833255 
L 175.455739 248.232719 
L 175.952885 248.383307 
L 176.45003 247.838499 
L 176.947175 249.475696 
L 177.444321 251.581431 
L 177.941466 251.964084 
L 178.438612 250.767296 
L 178.935757 250.274027 
L 179.432903 249.396148 
L 179.930048 249.552746 
L 180.427194 250.304228 
L 180.924339 252.25487 
L 181.421484 255.095512 
L 181.91863 255.186737 
L 182.415775 255.903118 
L 183.410066 259.89481 
L 183.907212 261.977546 
L 184.404357 261.885232 
L 185.398648 262.845289 
L 185.895793 261.796839 
L 186.392939 262.231246 
L 186.890084 260.848383 
L 187.38723 258.683345 
L 187.884375 261.862203 
L 188.38152 263.469699 
L 188.878666 262.100372 
L 189.375811 259.497742 
L 189.872957 257.56741 
L 190.370102 257.680109 
L 190.867248 260.454949 
L 191.364393 260.715061 
L 191.861538 260.120412 
L 192.358684 258.894653 
L 192.855829 259.517883 
L 193.352975 258.900506 
L 193.85012 257.811681 
L 194.347266 256.201138 
L 194.844411 255.99486 
L 195.341556 256.619928 
L 195.838702 257.652516 
L 196.335847 257.006051 
L 196.832993 254.922068 
L 198.324429 254.762168 
L 198.821575 254.54121 
L 199.31872 255.184829 
L 199.815865 255.018575 
L 200.313011 255.262303 
L 200.810156 255.219001 
L 201.307302 255.573013 
L 201.804447 254.399454 
L 202.301593 257.285249 
L 202.798738 254.970313 
L 203.295883 254.717039 
L 203.793029 255.737911 
L 204.290174 254.743758 
L 204.78732 255.118208 
L 205.284465 256.130109 
L 205.781611 254.193384 
L 206.278756 255.753701 
L 206.775901 256.158028 
L 207.273047 255.176661 
L 207.770192 255.870058 
L 208.267338 253.898249 
L 208.764483 253.859936 
L 209.261629 254.422986 
L 209.758774 253.823553 
L 210.255919 253.410182 
L 210.753065 253.235586 
L 211.25021 251.804855 
L 211.747356 251.175594 
L 212.244501 250.044256 
L 213.238792 248.6351 
L 213.735938 249.902524 
L 214.233083 250.550491 
L 214.730228 249.651869 
L 215.227374 249.005693 
L 215.724519 249.020162 
L 216.221665 249.151664 
L 216.71881 248.56566 
L 217.215956 248.904804 
L 217.713101 249.080361 
L 218.210246 248.623873 
L 218.707392 247.530524 
L 219.204537 246.732086 
L 219.701683 245.127463 
L 220.198828 245.274675 
L 220.695974 246.871352 
L 221.193119 246.21961 
L 221.690264 246.623151 
L 222.18741 248.237907 
L 222.684555 249.381263 
L 223.678846 250.082335 
L 224.175992 250.319249 
L 224.673137 251.298481 
L 225.170282 253.509671 
L 225.667428 252.57319 
L 226.164573 253.211822 
L 226.661719 253.019609 
L 227.158864 253.156163 
L 227.65601 253.713821 
L 228.153155 252.213985 
L 228.6503 251.687511 
L 229.147446 252.32435 
L 230.141737 254.872138 
L 230.638882 255.493756 
L 231.136028 255.639605 
L 232.130319 257.15367 
L 232.627464 256.643953 
L 233.124609 258.565553 
L 234.1189 260.710815 
L 235.113191 261.890076 
L 235.610337 262.125623 
L 236.107482 262.130428 
L 236.604627 262.368661 
L 237.101773 261.086559 
L 237.598918 260.749829 
L 238.096064 259.421976 
L 238.593209 258.648294 
L 239.090355 257.131965 
L 240.084645 255.613177 
L 240.581791 255.560226 
L 241.576082 251.255123 
L 242.073227 250.830545 
L 242.570373 250.119861 
L 243.564663 257.093304 
L 244.061809 254.932584 
L 244.558954 255.508429 
L 245.0561 257.122576 
L 245.553245 256.90985 
L 246.050391 257.493966 
L 246.547536 257.779681 
L 247.541827 259.470932 
L 248.038972 259.159885 
L 248.536118 259.045704 
L 249.033263 255.550784 
L 249.530409 253.035336 
L 250.027554 252.35772 
L 250.5247 252.445891 
L 251.021845 256.225095 
L 251.51899 255.442971 
L 252.016136 256.382501 
L 252.513281 255.550538 
L 253.507572 252.601933 
L 254.004718 251.642115 
L 254.501863 251.41399 
L 254.999008 252.39264 
L 255.993299 251.06064 
L 256.490445 252.032412 
L 256.98759 246.564264 
L 257.484736 246.2859 
L 257.981881 244.985804 
L 258.479026 245.216115 
L 259.473317 246.193825 
L 259.970463 246.025813 
L 260.467608 247.752507 
L 260.964754 247.757424 
L 261.461899 247.394834 
L 261.959044 246.638762 
L 262.953335 247.364491 
L 263.450481 248.484352 
L 263.947626 249.02922 
L 264.444772 249.146237 
L 264.941917 250.053772 
L 265.936208 252.484187 
L 266.433353 252.325055 
L 267.427644 253.968984 
L 267.92479 255.74095 
L 268.421935 254.854034 
L 268.919081 255.214817 
L 269.416226 255.068967 
L 269.913371 257.07869 
L 270.410517 258.321135 
L 271.404808 259.11319 
L 271.901953 259.895946 
L 272.399099 260.917236 
L 272.896244 260.388039 
L 273.393389 261.216926 
L 273.890535 262.479391 
L 274.38768 262.549684 
L 274.884826 264.016904 
L 275.381971 264.451482 
L 276.376262 262.143977 
L 276.873407 261.425157 
L 277.867698 261.206606 
L 278.364844 260.306959 
L 278.861989 259.830291 
L 279.359135 258.997958 
L 279.85628 257.248916 
L 280.353425 258.501632 
L 280.850571 258.428601 
L 281.347716 257.531745 
L 281.844862 257.895276 
L 282.342007 258.023278 
L 283.336298 258.02967 
L 284.330589 256.245047 
L 284.827734 256.237549 
L 285.32488 255.901493 
L 286.816316 256.028706 
L 287.313462 256.246793 
L 287.810607 256.277221 
L 288.307752 255.926764 
L 288.804898 255.391997 
L 289.302043 254.29113 
L 289.799189 253.624278 
L 290.296334 254.351978 
L 290.79348 254.767912 
L 291.290625 253.28147 
L 292.782061 251.529419 
L 293.279207 249.770741 
L 294.273498 249.630736 
L 294.770643 249.684383 
L 295.267788 249.13134 
L 295.764934 247.709937 
L 296.262079 242.990392 
L 296.759225 234.895294 
L 297.25637 239.73469 
L 297.753516 248.45789 
L 298.250661 250.777039 
L 300.736388 256.733374 
L 301.233534 258.708122 
L 301.730679 261.193823 
L 302.227825 266.079754 
L 302.72497 273.540393 
L 303.222115 269.843 
L 303.719261 262.334192 
L 304.216406 260.854011 
L 304.713552 260.481045 
L 305.707843 259.107058 
L 306.204988 257.478491 
L 306.702133 254.909134 
L 307.199279 246.269623 
L 307.696424 251.100255 
L 308.19357 251.495087 
L 309.187861 249.697773 
L 309.685006 248.358116 
L 310.182151 248.052501 
L 310.679297 247.522846 
L 311.176442 247.328402 
L 311.673588 246.69347 
L 312.170733 247.477952 
L 312.667879 249.658266 
L 313.165024 258.127347 
L 313.662169 253.528725 
L 314.159315 252.886761 
L 314.65646 253.352858 
L 315.153606 254.34137 
L 315.650751 254.074455 
L 316.645042 254.331418 
L 317.142188 254.783962 
L 317.639333 256.154618 
L 318.136478 257.075344 
L 318.633624 256.231579 
L 319.130769 256.364268 
L 319.627915 255.723859 
L 320.12506 256.08911 
L 321.119351 257.76414 
L 322.113642 259.500597 
L 322.610787 259.52744 
L 323.107933 259.667365 
L 324.102224 257.29434 
L 324.599369 258.322733 
L 325.096514 256.948142 
L 325.59366 257.579373 
L 326.090805 257.441401 
L 326.587951 258.415523 
L 327.085096 257.839526 
L 328.079387 258.435252 
L 329.570823 260.473027 
L 330.067969 261.747431 
L 331.06226 261.765253 
L 331.559405 262.430932 
L 332.05655 262.565572 
L 332.553696 261.598761 
L 333.050841 261.001339 
L 333.547987 260.175076 
L 334.045132 258.951065 
L 334.542278 259.750166 
L 335.039423 259.094253 
L 335.536569 260.340197 
L 336.033714 261.183207 
L 336.530859 261.604299 
L 337.028005 262.833312 
L 338.519441 262.661719 
L 339.513732 264.860646 
L 340.010877 265.983988 
L 340.508023 265.213726 
L 341.005168 265.406755 
L 341.502314 264.972903 
L 342.496605 263.656908 
L 342.99375 264.401823 
L 343.490895 263.836415 
L 343.988041 264.309161 
L 344.485186 266.11448 
L 344.982332 266.831849 
L 345.479477 266.345368 
L 345.976623 265.692571 
L 346.473768 266.932426 
L 346.970913 266.487228 
L 347.468059 265.490652 
L 347.965204 264.22409 
L 348.46235 264.252847 
L 348.959495 248.159093 
L 349.456641 192.00862 
L 349.953786 117.936006 
L 350.450931 63.782542 
L 350.948077 49.14868 
L 351.445222 86.07882 
L 351.942368 66.450656 
L 352.439513 38.673558 
L 352.936659 35.600114 
L 353.433804 60.992339 
L 353.93095 66.789211 
L 354.428095 57.996446 
L 354.92524 65.945234 
L 355.919531 185.195827 
L 356.416677 224.061957 
L 356.913822 234.535241 
L 357.410968 195.399654 
L 357.908113 214.436274 
L 358.405258 237.912262 
L 358.902404 241.090502 
L 359.399549 229.57251 
L 359.896695 229.088825 
L 360.39384 234.523343 
L 361.388131 266.028249 
L 361.885276 274.006716 
L 362.382422 269.682421 
L 362.879567 263.255596 
L 363.376713 259.311654 
L 364.371004 219.206796 
L 364.868149 211.678894 
L 365.365294 201.971717 
L 365.86244 197.093374 
L 366.359585 199.8224 
L 366.856731 197.361338 
L 367.353876 197.421728 
L 368.348167 206.917998 
L 368.845313 208.831022 
L 369.342458 223.567594 
L 369.839603 246.289216 
L 370.336749 256.873282 
L 371.33104 271.063394 
L 371.828185 271.594684 
L 372.325331 269.287861 
L 372.822476 272.100641 
L 373.319621 270.782539 
L 373.816767 265.454561 
L 374.313912 264.295346 
L 375.308203 257.153261 
L 375.805349 246.936109 
L 376.302494 239.589043 
L 376.799639 229.166426 
L 377.296785 222.697835 
L 377.79393 218.481605 
L 378.291076 210.331533 
L 378.788221 197.607733 
L 379.285367 191.277854 
L 379.782512 187.603348 
L 380.279657 188.191858 
L 380.776803 194.261245 
L 381.273948 196.87864 
L 382.268239 205.597169 
L 382.765385 215.987612 
L 383.759675 224.838747 
L 384.256821 227.579328 
L 384.753966 235.371894 
L 385.251112 244.990669 
L 385.748257 260.55427 
L 386.742548 252.725056 
L 387.239694 268.359539 
L 387.736839 261.037038 
L 388.233984 261.967209 
L 388.73113 266.737719 
L 389.228275 270.267847 
L 389.725421 270.190151 
L 390.222566 273.364002 
L 391.216857 265.69163 
L 391.714002 259.218193 
L 392.211148 273.93401 
L 392.708293 280.302603 
L 393.205439 267.01856 
L 393.702584 275.530184 
L 394.19973 278.250104 
L 394.696875 274.658466 
L 395.19402 273.710884 
L 395.691166 278.600724 
L 396.188311 277.432746 
L 396.685457 283.773218 
L 397.182602 293.633439 
L 397.679748 288.208916 
L 398.176893 285.154112 
L 398.674038 279.502464 
L 399.668329 270.977599 
L 400.66262 272.09244 
L 401.159766 272.134528 
L 402.154056 263.684183 
L 402.651202 261.065532 
L 403.148347 253.808033 
L 403.645493 252.899523 
L 404.142638 250.027248 
L 404.639784 255.545538 
L 405.136929 262.738618 
L 405.634075 271.731803 
L 406.13122 273.865224 
L 406.628365 274.203551 
L 407.125511 274.91883 
L 407.622656 278.398891 
L 408.119802 285.969983 
L 408.616947 285.550997 
L 409.114093 285.438748 
L 409.611238 291.588205 
L 411.102674 295.668175 
L 411.59982 291.562264 
L 412.096965 293.194901 
L 412.594111 292.974147 
L 413.091256 290.040308 
L 413.588401 289.217541 
L 414.085547 286.818474 
L 414.582692 289.501694 
L 415.079838 284.500151 
L 415.576983 278.30899 
L 416.074129 267.172848 
L 416.571274 262.825718 
L 417.068419 262.510311 
L 417.565565 238.046395 
L 418.06271 170.635193 
L 418.559856 147.246245 
L 419.057001 159.612057 
L 419.554147 177.343163 
L 420.051292 171.580651 
L 420.548438 160.347186 
L 421.045583 162.862831 
L 421.542728 157.809329 
L 422.039874 161.242712 
L 422.537019 160.218641 
L 423.034165 149.396462 
L 423.53131 164.509227 
L 424.028456 217.607434 
L 424.525601 232.876133 
L 425.022746 226.32758 
L 425.519892 205.789341 
L 426.017037 203.257455 
L 426.514183 204.778404 
L 427.011328 209.242599 
L 427.508474 215.852417 
L 428.005619 220.785258 
L 428.99991 246.209448 
L 429.497055 258.277205 
L 429.994201 274.123382 
L 430.491346 284.176062 
L 431.485637 288.770897 
L 431.982782 293.158634 
L 432.479928 300.411203 
L 432.977073 301.122492 
L 433.474219 300.304319 
L 433.971364 301.239886 
L 434.46851 295.013893 
L 434.965655 293.35305 
L 435.4628 287.728608 
L 436.457091 269.545948 
L 436.954237 264.901937 
L 437.451382 269.456665 
L 437.948528 269.59548 
L 438.445673 262.773055 
L 438.942819 258.632889 
L 439.439964 256.833035 
L 440.434255 248.771328 
L 440.9314 246.390932 
L 441.428546 257.191596 
L 441.925691 262.023844 
L 442.422837 262.983813 
L 442.919982 264.208156 
L 443.417127 263.66107 
L 443.914273 264.625653 
L 444.411418 267.977096 
L 444.908564 270.021122 
L 445.405709 272.909517 
L 445.902855 276.686934 
L 446.4 276.881075 
L 446.897145 278.678381 
L 447.394291 272.531544 
L 447.891436 270.258647 
L 448.388582 271.508203 
L 448.885727 268.136236 
L 449.382873 265.569184 
L 449.880018 268.140574 
L 450.377163 272.809132 
L 451.371454 280.305888 
L 451.8686 277.229349 
L 452.365745 276.524868 
L 452.862891 277.048637 
L 453.360036 280.07372 
L 453.360036 280.07372 
" clip-path="url(#p24029a2b34)" style="fill: none; stroke: #1f77b4; stroke-width: 1.5; stroke-linecap: square"/>
   </g>
   <g id="line2d_35">
    <path d="M 58.626563 260.645877 
L 59.123708 261.24766 
L 59.620853 261.641317 
L 60.117999 261.733979 
L 60.615144 262.697761 
L 61.11229 263.015887 
L 61.609435 262.480411 
L 62.603726 260.293553 
L 63.100871 259.245173 
L 64.095162 258.040333 
L 64.592308 257.020254 
L 65.089453 255.309777 
L 66.083744 253.95177 
L 66.580889 252.693193 
L 67.078035 252.160616 
L 67.57518 252.466059 
L 68.072326 253.087006 
L 69.066617 252.635878 
L 69.563762 252.113894 
L 70.558053 251.84062 
L 71.055198 251.794496 
L 71.552344 251.064075 
L 72.049489 250.656538 
L 72.546635 251.186387 
L 73.04378 251.503251 
L 73.540925 251.524097 
L 74.038071 251.700156 
L 74.535216 251.621627 
L 75.032362 251.154649 
L 75.529507 250.907572 
L 76.026653 250.222864 
L 76.523798 249.919329 
L 77.020944 250.147721 
L 77.518089 250.501027 
L 78.015234 250.523365 
L 78.51238 250.047146 
L 79.009525 249.866939 
L 80.003816 248.974261 
L 80.500962 248.876797 
L 80.998107 248.96159 
L 81.495252 248.611377 
L 81.992398 249.459099 
L 82.986689 250.035034 
L 83.98098 251.079379 
L 84.478125 251.221162 
L 85.969561 250.540692 
L 86.466707 250.148112 
L 86.963852 250.170158 
L 87.460998 250.549928 
L 88.455288 249.847403 
L 89.946725 249.482381 
L 90.44387 250.217718 
L 90.941016 250.211082 
L 91.935306 250.614071 
L 92.432452 250.53421 
L 92.929597 250.228088 
L 93.426743 250.371384 
L 93.923888 250.172684 
L 94.918179 250.91051 
L 95.415325 250.979138 
L 95.91247 250.758132 
L 96.409615 251.059709 
L 96.906761 252.004216 
L 97.403906 253.333037 
L 98.398197 255.037751 
L 98.895343 257.19544 
L 99.392488 258.488952 
L 99.889633 258.741471 
L 100.386779 258.504711 
L 101.38107 256.473283 
L 101.878215 256.762213 
L 103.866797 250.973346 
L 104.363942 250.409693 
L 104.861088 248.602091 
L 105.358233 247.348261 
L 105.855379 247.246518 
L 106.352524 247.89052 
L 107.346815 249.995431 
L 107.84396 250.290278 
L 108.838251 252.128797 
L 109.832542 252.302236 
L 110.329688 252.166607 
L 111.821124 250.456334 
L 113.809706 253.364277 
L 114.803996 255.735099 
L 115.798287 260.93318 
L 116.792578 264.192827 
L 117.289724 264.68454 
L 117.786869 265.7778 
L 118.284014 265.951421 
L 118.78116 267.315894 
L 119.278305 267.082707 
L 119.775451 266.035537 
L 120.272596 264.445713 
L 120.769742 263.671643 
L 122.261178 253.133218 
L 122.758323 250.59456 
L 123.255469 249.921099 
L 123.752614 248.180083 
L 124.24976 245.432515 
L 124.746905 240.905934 
L 125.24405 238.224799 
L 125.741196 237.276261 
L 126.735487 234.753687 
L 127.232632 235.343716 
L 127.729778 236.906247 
L 128.226923 237.974115 
L 128.724069 238.153656 
L 129.221214 238.133475 
L 129.718359 238.516648 
L 130.215505 239.068161 
L 130.71265 239.86433 
L 131.209796 241.180414 
L 131.706941 241.429476 
L 132.204087 242.192535 
L 132.701232 241.957975 
L 133.198377 241.498682 
L 133.695523 240.20544 
L 134.192668 239.919646 
L 134.689814 239.996932 
L 135.186959 239.788238 
L 136.18125 239.040735 
L 136.678395 239.19893 
L 137.175541 239.172903 
L 137.672686 239.414475 
L 138.169832 239.278093 
L 138.666977 239.606912 
L 139.164123 240.309007 
L 140.655559 243.359606 
L 141.152704 244.75997 
L 141.64985 245.594012 
L 142.644141 246.749548 
L 143.141286 247.099168 
L 143.638431 246.667069 
L 144.135577 247.234436 
L 144.632722 247.382499 
L 146.124159 250.080284 
L 146.621304 250.327064 
L 147.11845 250.448109 
L 147.615595 250.906257 
L 148.11274 251.753063 
L 149.107031 252.506387 
L 149.604177 253.538734 
L 150.101322 253.321012 
L 151.095613 251.932474 
L 151.592758 251.672331 
L 152.089904 250.464532 
L 152.587049 250.111581 
L 153.084195 249.268845 
L 153.58134 249.343011 
L 154.575631 247.565485 
L 155.072776 246.98588 
L 155.569922 245.911307 
L 156.067067 245.970126 
L 156.564213 247.026104 
L 157.061358 247.255177 
L 157.558504 246.118406 
L 158.055649 246.6567 
L 158.552794 245.964962 
L 159.04994 245.502777 
L 159.547085 244.038324 
L 161.038522 244.039478 
L 161.535667 244.268143 
L 162.032813 244.064029 
L 162.529958 243.379932 
L 163.027103 243.081146 
L 163.524249 243.105681 
L 164.021394 242.667557 
L 165.015685 242.749715 
L 165.512831 243.387063 
L 166.009976 243.112272 
L 166.507121 243.547706 
L 167.004267 243.481807 
L 167.501412 243.191197 
L 167.998558 243.093988 
L 168.495703 243.718208 
L 168.992849 244.124264 
L 169.987139 244.223307 
L 170.484285 244.44364 
L 170.98143 244.159112 
L 171.478576 244.24074 
L 171.975721 245.004084 
L 172.472867 245.108186 
L 172.970012 245.464035 
L 173.467157 245.43085 
L 173.964303 246.404854 
L 174.461448 245.766 
L 174.958594 245.460674 
L 175.455739 245.42442 
L 175.952885 244.657092 
L 176.45003 244.903429 
L 176.947175 247.328027 
L 177.444321 248.080505 
L 177.941466 247.984097 
L 178.438612 247.35727 
L 178.935757 248.211331 
L 179.432903 250.078515 
L 179.930048 249.875323 
L 180.427194 250.026097 
L 180.924339 249.761954 
L 181.421484 250.041362 
L 181.91863 251.090848 
L 182.415775 250.671616 
L 182.912921 248.450521 
L 183.907212 246.312268 
L 184.404357 246.517548 
L 184.901502 245.490007 
L 185.398648 242.828172 
L 185.895793 242.617902 
L 186.392939 243.045819 
L 187.38723 243.284997 
L 188.38152 242.144712 
L 188.878666 242.405481 
L 189.375811 241.883952 
L 189.872957 242.617009 
L 190.370102 243.894058 
L 190.867248 244.118628 
L 191.364393 244.730346 
L 191.861538 245.083796 
L 192.358684 245.171221 
L 192.855829 246.063784 
L 193.352975 245.766793 
L 193.85012 246.562103 
L 194.347266 247.126382 
L 194.844411 248.232128 
L 195.341556 249.825158 
L 195.838702 249.355763 
L 196.335847 247.599733 
L 196.832993 247.977162 
L 197.330138 248.71114 
L 197.827284 248.747641 
L 198.821575 249.219733 
L 199.31872 250.333771 
L 199.815865 250.450313 
L 200.313011 250.80255 
L 200.810156 249.591313 
L 201.307302 248.827817 
L 201.804447 249.952218 
L 202.301593 250.26653 
L 202.798738 249.323778 
L 203.295883 248.704564 
L 203.793029 247.892001 
L 204.290174 247.512689 
L 204.78732 246.757679 
L 205.284465 246.842214 
L 205.781611 246.806459 
L 206.278756 246.524835 
L 206.775901 246.76357 
L 207.770192 245.639639 
L 208.267338 246.250244 
L 208.764483 247.488383 
L 209.261629 249.439368 
L 209.758774 250.422494 
L 210.255919 250.344805 
L 210.753065 251.383915 
L 211.25021 251.146659 
L 211.747356 251.288437 
L 212.244501 252.012374 
L 212.741647 253.043564 
L 213.238792 253.692676 
L 214.233083 254.451069 
L 214.730228 253.807772 
L 215.227374 252.174286 
L 215.724519 251.791508 
L 216.221665 252.113656 
L 216.71881 250.845933 
L 217.713101 249.978678 
L 218.210246 249.892282 
L 218.707392 250.222923 
L 219.204537 249.971933 
L 219.701683 250.05774 
L 220.198828 250.689003 
L 220.695974 251.984222 
L 221.690264 253.385567 
L 222.18741 253.906007 
L 222.684555 255.446278 
L 223.678846 256.261376 
L 224.175992 256.029287 
L 224.673137 255.946115 
L 225.170282 257.659931 
L 225.667428 257.916558 
L 226.661719 255.920927 
L 227.158864 255.627333 
L 227.65601 255.071118 
L 228.153155 254.87556 
L 228.6503 254.305704 
L 229.147446 254.772049 
L 230.141737 256.206609 
L 230.638882 255.955005 
L 231.136028 255.141567 
L 231.633173 256.027845 
L 232.130319 257.468998 
L 232.627464 257.77464 
L 233.621755 260.046724 
L 234.1189 260.053398 
L 234.616046 259.761883 
L 235.610337 260.259882 
L 236.604627 260.58495 
L 237.101773 260.931561 
L 238.096064 260.614021 
L 238.593209 261.596766 
L 239.5875 261.823895 
L 240.581791 263.056073 
L 241.078936 262.746633 
L 241.576082 262.778588 
L 242.073227 263.200618 
L 242.570373 264.225238 
L 243.067518 264.804143 
L 244.061809 263.776029 
L 244.558954 263.531883 
L 245.0561 263.541401 
L 245.553245 263.674913 
L 246.050391 264.010772 
L 247.541827 266.763911 
L 248.038972 266.775965 
L 248.536118 266.280578 
L 249.033263 265.973486 
L 249.530409 266.83058 
L 250.027554 266.655627 
L 250.5247 266.92537 
L 251.021845 267.902086 
L 252.016136 268.275766 
L 252.513281 267.935255 
L 253.507572 266.545659 
L 254.004718 266.794483 
L 254.501863 267.284815 
L 254.999008 268.138267 
L 255.496154 269.297491 
L 255.993299 270.135037 
L 256.490445 270.075725 
L 256.98759 269.403865 
L 257.484736 267.693541 
L 257.981881 267.594988 
L 258.479026 267.761813 
L 258.976172 268.091715 
L 259.473317 268.063724 
L 259.970463 267.687336 
L 260.964754 265.655364 
L 261.461899 264.908723 
L 261.959044 265.742793 
L 262.953335 264.921007 
L 263.450481 265.869427 
L 263.947626 266.050056 
L 264.444772 264.86661 
L 265.439063 264.856891 
L 265.936208 264.697893 
L 266.433353 264.86573 
L 266.930499 264.677072 
L 267.427644 263.364485 
L 267.92479 262.547338 
L 268.919081 261.696015 
L 269.416226 260.312877 
L 269.913371 258.278673 
L 270.410517 258.109124 
L 270.907662 256.488571 
L 271.404808 255.980686 
L 271.901953 255.681951 
L 272.896244 256.122354 
L 273.393389 255.715307 
L 273.890535 254.429214 
L 274.38768 253.793176 
L 274.884826 253.979877 
L 275.381971 254.313581 
L 275.879117 255.1566 
L 276.376262 255.196743 
L 276.873407 255.997752 
L 277.370553 255.731548 
L 277.867698 254.748417 
L 278.364844 254.338084 
L 278.861989 253.156542 
L 279.359135 253.558021 
L 280.353425 253.659664 
L 280.850571 252.733771 
L 281.347716 253.240101 
L 281.844862 253.004196 
L 282.839153 250.244402 
L 283.336298 249.753548 
L 283.833444 249.811899 
L 284.330589 249.041835 
L 284.827734 249.009955 
L 285.32488 248.284344 
L 285.822025 248.226645 
L 286.319171 247.115346 
L 286.816316 247.469943 
L 287.810607 246.69755 
L 288.307752 248.409543 
L 288.804898 248.281736 
L 289.799189 246.517857 
L 290.296334 246.086324 
L 290.79348 246.347207 
L 291.290625 247.243625 
L 291.78777 246.778425 
L 292.284916 249.504806 
L 292.782061 249.48223 
L 293.279207 250.061294 
L 293.776352 250.351646 
L 294.273498 250.059541 
L 294.770643 251.500084 
L 295.267788 253.299599 
L 295.764934 253.977442 
L 296.262079 253.087263 
L 296.759225 251.659574 
L 297.25637 250.890275 
L 297.753516 251.601745 
L 298.250661 249.450498 
L 298.747806 248.809051 
L 299.244952 249.502189 
L 299.742097 249.298137 
L 300.239243 248.721486 
L 301.233534 246.471568 
L 301.730679 247.699954 
L 302.227825 250.3921 
L 302.72497 250.861807 
L 303.222115 248.952862 
L 303.719261 247.984244 
L 304.216406 248.123129 
L 304.713552 246.099019 
L 305.210697 244.705077 
L 305.707843 243.841511 
L 306.204988 244.160838 
L 306.702133 246.356597 
L 307.199279 243.636089 
L 307.696424 243.09868 
L 308.19357 241.261085 
L 308.690715 242.058622 
L 309.187861 245.104476 
L 309.685006 246.068436 
L 310.182151 247.821673 
L 310.679297 251.245806 
L 311.176442 252.027155 
L 311.673588 253.960199 
L 312.170733 253.884109 
L 312.667879 252.56165 
L 313.165024 256.139253 
L 313.662169 256.399081 
L 314.159315 255.095777 
L 314.65646 255.026633 
L 315.650751 255.488474 
L 316.645042 254.932738 
L 317.142188 254.395311 
L 318.136478 252.565219 
L 318.633624 253.278786 
L 319.627915 255.689439 
L 320.12506 259.453654 
L 320.622206 261.393243 
L 321.616496 259.830924 
L 322.113642 258.408852 
L 323.107933 256.861872 
L 323.605078 257.348015 
L 324.102224 259.570108 
L 324.599369 259.549401 
L 325.096514 258.396512 
L 325.59366 257.982838 
L 326.587951 255.665039 
L 327.085096 255.835569 
L 327.582242 256.527001 
L 328.079387 257.699394 
L 328.576532 258.083363 
L 329.073678 259.31356 
L 330.067969 258.048943 
L 330.565114 256.519042 
L 331.06226 255.488076 
L 331.559405 253.871532 
L 332.05655 253.690159 
L 333.050841 252.261439 
L 333.547987 251.170177 
L 334.542278 250.328805 
L 335.536569 249.620022 
L 336.033714 248.041415 
L 336.530859 248.553772 
L 337.028005 248.337696 
L 337.52515 247.393084 
L 338.022296 245.961909 
L 338.519441 245.02059 
L 339.016587 245.727291 
L 339.513732 246.029898 
L 340.010877 245.249793 
L 340.508023 243.697765 
L 341.005168 242.659717 
L 341.502314 242.719777 
L 341.999459 243.075527 
L 342.496605 240.627424 
L 342.99375 239.042373 
L 343.988041 236.892019 
L 344.485186 237.80638 
L 344.982332 237.089457 
L 345.479477 234.084899 
L 345.976623 232.69768 
L 346.473768 234.262009 
L 346.970913 235.226334 
L 347.468059 235.522048 
L 347.965204 236.204687 
L 348.46235 239.430288 
L 348.959495 241.04849 
L 349.953786 249.123007 
L 350.450931 246.553878 
L 350.948077 245.578031 
L 351.445222 249.899407 
L 351.942368 252.678116 
L 352.439513 254.244189 
L 352.936659 253.562985 
L 353.433804 255.190484 
L 354.428095 260.194108 
L 354.92524 263.516085 
L 355.422386 264.361019 
L 355.919531 264.862918 
L 356.913822 274.060911 
L 357.410968 274.943303 
L 358.405258 278.763671 
L 358.902404 281.348017 
L 359.399549 281.350219 
L 359.896695 279.903565 
L 360.39384 277.745031 
L 361.388131 275.708441 
L 361.885276 274.980122 
L 362.382422 274.550073 
L 362.879567 273.502515 
L 363.376713 273.018751 
L 363.873858 270.360666 
L 364.371004 266.888802 
L 364.868149 264.650492 
L 365.365294 264.362079 
L 365.86244 263.899214 
L 366.359585 264.214574 
L 366.856731 263.725158 
L 367.353876 263.725158 
L 367.851022 263.00813 
L 368.845313 260.712621 
L 369.342458 260.36815 
L 369.839603 260.901123 
L 370.833894 263.504072 
L 371.33104 262.672722 
L 371.828185 262.921151 
L 372.325331 262.168309 
L 373.319621 261.358378 
L 373.816767 261.144143 
L 374.313912 259.243659 
L 374.811058 259.076449 
L 375.308203 259.233049 
L 375.805349 259.24502 
L 376.302494 259.57884 
L 377.296785 259.599453 
L 377.79393 259.776222 
L 378.291076 260.658435 
L 378.788221 260.385368 
L 379.285367 259.868676 
L 379.782512 260.133741 
L 380.279657 261.724714 
L 380.776803 261.933041 
L 381.273948 261.102293 
L 381.771094 260.795229 
L 382.765385 259.18912 
L 383.26253 259.633376 
L 383.759675 259.512502 
L 384.753966 260.373963 
L 385.251112 260.099786 
L 385.748257 259.008813 
L 387.239694 256.884604 
L 387.736839 257.236049 
L 388.233984 257.825868 
L 388.73113 258.685788 
L 389.228275 258.366023 
L 389.725421 257.885454 
L 390.222566 257.033272 
L 390.719712 257.716812 
L 391.216857 257.774977 
L 391.714002 258.527922 
L 392.211148 259.876048 
L 393.205439 260.986868 
L 393.702584 260.620284 
L 394.19973 260.424525 
L 395.19402 259.418733 
L 395.691166 260.248646 
L 396.188311 260.161277 
L 396.685457 260.53003 
L 397.182602 261.754233 
L 397.679748 261.65774 
L 398.176893 261.297092 
L 398.674038 261.506048 
L 399.171184 262.097697 
L 399.668329 262.281632 
L 400.165475 261.534901 
L 400.66262 261.202866 
L 401.159766 262.01275 
L 401.656911 261.74241 
L 402.154056 261.138621 
L 403.148347 258.808863 
L 403.645493 259.248429 
L 404.142638 259.281132 
L 404.639784 259.119711 
L 405.136929 259.435169 
L 405.634075 259.489788 
L 406.13122 260.599301 
L 406.628365 261.398976 
L 407.125511 260.503407 
L 407.622656 260.656096 
L 408.119802 261.612515 
L 408.616947 261.847154 
L 409.114093 262.325969 
L 409.611238 262.529854 
L 410.108383 261.208432 
L 410.605529 260.720503 
L 411.102674 260.070185 
L 411.59982 259.696664 
L 412.096965 259.651783 
L 413.091256 258.413037 
L 413.588401 257.459709 
L 414.582692 255.199315 
L 415.079838 253.07399 
L 415.576983 251.617991 
L 416.074129 251.390729 
L 416.571274 251.307086 
L 417.068419 251.463192 
L 417.565565 244.606659 
L 418.06271 227.787505 
L 418.559856 216.955385 
L 419.057001 215.218827 
L 419.554147 216.173292 
L 420.051292 219.18415 
L 420.548438 219.919319 
L 421.045583 222.436357 
L 421.542728 222.795837 
L 422.039874 223.817982 
L 422.537019 223.297869 
L 423.034165 222.124983 
L 423.53131 228.739635 
L 424.028456 243.343291 
L 424.525601 251.317823 
L 425.022746 254.027766 
L 425.519892 253.526319 
L 426.017037 251.059687 
L 426.514183 251.072236 
L 427.508474 249.288051 
L 428.005619 248.946208 
L 428.99991 251.651998 
L 429.497055 252.373416 
L 429.994201 254.178101 
L 430.491346 257.136787 
L 430.988492 257.795959 
L 431.982782 260.535764 
L 432.977073 264.11647 
L 433.474219 267.243323 
L 433.971364 268.787725 
L 434.46851 269.235774 
L 434.965655 269.316753 
L 435.4628 272.902182 
L 435.959946 273.941587 
L 436.457091 272.771378 
L 437.451382 271.728385 
L 437.948528 271.857499 
L 438.445673 271.09514 
L 439.937109 267.7097 
L 440.434255 267.395176 
L 440.9314 267.517006 
L 441.428546 264.505701 
L 442.919982 262.716236 
L 443.417127 263.105211 
L 443.914273 262.358169 
L 444.411418 262.137623 
L 444.908564 262.456102 
L 445.405709 261.710227 
L 445.902855 262.262046 
L 446.4 261.419388 
L 446.897145 261.125816 
L 446.897145 261.125816 
" clip-path="url(#p24029a2b34)" style="fill: none; stroke: #ff7f0e; stroke-width: 1.5; stroke-linecap: square"/>
   </g>
   <g id="patch_38">
    <path d="M 58.626563 314.521875 
L 58.626563 22.318125 
" style="fill: none; stroke: #000000; stroke-width: 0.8; stroke-linejoin: miter; stroke-linecap: square"/>
   </g>
   <g id="patch_39">
    <path d="M 446.4 314.521875 
L 446.4 22.318125 
" style="fill: none; stroke: #000000; stroke-width: 0.8; stroke-linejoin: miter; stroke-linecap: square"/>
   </g>
   <g id="patch_40">
    <path d="M 58.626563 314.521875 
L 446.4 314.521875 
" style="fill: none; stroke: #000000; stroke-width: 0.8; stroke-linejoin: miter; stroke-linecap: square"/>
   </g>
   <g id="patch_41">
    <path d="M 58.626563 22.318125 
L 446.4 22.318125 
" style="fill: none; stroke: #000000; stroke-width: 0.8; stroke-linejoin: miter; stroke-linecap: square"/>
   </g>
   <g id="text_15">
    <!-- Monetary aggregates in the U.S., 1959-2024 -->
    <g transform="translate(117.122344 16.318125) scale(0.12 -0.12)">
     <defs>
      <path id="DejaVuSerif-4d" d="M 353 0 
L 353 331 
L 947 331 
L 947 4331 
L 319 4331 
L 319 4666 
L 1678 4666 
L 3316 1344 
L 4953 4666 
L 6228 4666 
L 6228 4331 
L 5606 4331 
L 5606 331 
L 6203 331 
L 6203 0 
L 4378 0 
L 4378 331 
L 4972 331 
L 4972 3938 
L 3372 684 
L 2931 684 
L 1331 3938 
L 1331 331 
L 1925 331 
L 1925 0 
L 353 0 
z
" transform="scale(0.015625)"/>
      <path id="DejaVuSerif-6f" d="M 1925 219 
Q 2388 219 2623 584 
Q 2859 950 2859 1663 
Q 2859 2375 2623 2739 
Q 2388 3103 1925 3103 
Q 1463 3103 1227 2739 
Q 991 2375 991 1663 
Q 991 950 1228 584 
Q 1466 219 1925 219 
z
M 1925 -91 
Q 1200 -91 759 389 
Q 319 869 319 1663 
Q 319 2456 758 2934 
Q 1197 3413 1925 3413 
Q 2653 3413 3092 2934 
Q 3531 2456 3531 1663 
Q 3531 869 3092 389 
Q 2653 -91 1925 -91 
z
" transform="scale(0.015625)"/>
      <path id="DejaVuSerif-74" d="M 691 2988 
L 184 2988 
L 184 3322 
L 691 3322 
L 691 4353 
L 1269 4353 
L 1269 3322 
L 2350 3322 
L 2350 2988 
L 1269 2988 
L 1269 878 
Q 1269 456 1350 337 
Q 1431 219 1650 219 
Q 1875 219 1978 351 
Q 2081 484 2088 781 
L 2522 781 
Q 2497 328 2275 118 
Q 2053 -91 1600 -91 
Q 1103 -91 897 129 
Q 691 350 691 878 
L 691 2988 
z
" transform="scale(0.015625)"/>
      <path id="DejaVuSerif-72" d="M 3059 3328 
L 3059 2497 
L 2728 2497 
Q 2713 2744 2591 2866 
Q 2469 2988 2234 2988 
Q 1809 2988 1582 2694 
Q 1356 2400 1356 1850 
L 1356 331 
L 2022 331 
L 2022 0 
L 263 0 
L 263 331 
L 781 331 
L 781 2994 
L 231 2994 
L 231 3322 
L 1356 3322 
L 1356 2731 
Q 1525 3078 1790 3245 
Q 2056 3413 2438 3413 
Q 2578 3413 2733 3391 
Q 2888 3369 3059 3328 
z
" transform="scale(0.015625)"/>
      <path id="DejaVuSerif-79" d="M 1381 -609 
L 1600 -56 
L 359 2988 
L -19 2988 
L -19 3322 
L 1509 3322 
L 1509 2988 
L 978 2988 
L 1913 703 
L 2847 2988 
L 2350 2988 
L 2350 3322 
L 3597 3322 
L 3597 2988 
L 3225 2988 
L 1703 -750 
Q 1547 -1138 1356 -1280 
Q 1166 -1422 819 -1422 
Q 672 -1422 517 -1397 
Q 363 -1372 206 -1325 
L 206 -691 
L 500 -691 
Q 519 -903 608 -995 
Q 697 -1088 884 -1088 
Q 1056 -1088 1161 -992 
Q 1266 -897 1381 -609 
z
" transform="scale(0.015625)"/>
      <path id="DejaVuSerif-73" d="M 359 184 
L 359 959 
L 691 959 
Q 703 588 923 403 
Q 1144 219 1575 219 
Q 1963 219 2166 364 
Q 2369 509 2369 788 
Q 2369 1006 2220 1140 
Q 2072 1275 1594 1428 
L 1178 1569 
Q 750 1706 558 1912 
Q 366 2119 366 2438 
Q 366 2894 700 3153 
Q 1034 3413 1625 3413 
Q 1888 3413 2178 3344 
Q 2469 3275 2778 3144 
L 2778 2419 
L 2447 2419 
Q 2434 2741 2221 2922 
Q 2009 3103 1644 3103 
Q 1281 3103 1095 2975 
Q 909 2847 909 2591 
Q 909 2381 1050 2254 
Q 1191 2128 1613 1997 
L 2069 1856 
Q 2541 1709 2748 1489 
Q 2956 1269 2956 922 
Q 2956 450 2595 179 
Q 2234 -91 1600 -91 
Q 1278 -91 972 -22 
Q 666 47 359 184 
z
" transform="scale(0.015625)"/>
      <path id="DejaVuSerif-69" d="M 622 4353 
Q 622 4497 726 4603 
Q 831 4709 978 4709 
Q 1122 4709 1226 4603 
Q 1331 4497 1331 4353 
Q 1331 4206 1228 4103 
Q 1125 4000 978 4000 
Q 831 4000 726 4103 
Q 622 4206 622 4353 
z
M 1356 331 
L 1900 331 
L 1900 0 
L 231 0 
L 231 331 
L 781 331 
L 781 2988 
L 231 2988 
L 231 3322 
L 1356 3322 
L 1356 331 
z
" transform="scale(0.015625)"/>
      <path id="DejaVuSerif-55" d="M 897 4331 
L 300 4331 
L 300 4666 
L 2125 4666 
L 2125 4331 
L 1528 4331 
L 1528 1919 
Q 1528 1025 1820 672 
Q 2113 319 2828 319 
Q 3544 319 3836 672 
Q 4128 1025 4128 1919 
L 4128 4331 
L 3531 4331 
L 3531 4666 
L 5106 4666 
L 5106 4331 
L 4513 4331 
L 4513 1856 
Q 4513 791 4103 350 
Q 3694 -91 2713 -91 
Q 1731 -91 1314 353 
Q 897 797 897 1856 
L 897 4331 
z
" transform="scale(0.015625)"/>
      <path id="DejaVuSerif-2e" d="M 603 325 
Q 603 500 722 622 
Q 841 744 1019 744 
Q 1191 744 1312 622 
Q 1434 500 1434 325 
Q 1434 153 1312 31 
Q 1191 -91 1019 -91 
Q 841 -91 722 29 
Q 603 150 603 325 
z
" transform="scale(0.015625)"/>
      <path id="DejaVuSerif-53" d="M 594 225 
L 594 1288 
L 953 1284 
Q 969 753 1261 498 
Q 1553 244 2150 244 
Q 2706 244 2998 464 
Q 3291 684 3291 1106 
Q 3291 1444 3114 1625 
Q 2938 1806 2369 1978 
L 1753 2163 
Q 1084 2366 811 2669 
Q 538 2972 538 3500 
Q 538 4094 959 4422 
Q 1381 4750 2144 4750 
Q 2469 4750 2856 4679 
Q 3244 4609 3681 4475 
L 3681 3481 
L 3328 3481 
Q 3275 3975 2998 4195 
Q 2722 4416 2156 4416 
Q 1663 4416 1405 4214 
Q 1147 4013 1147 3628 
Q 1147 3294 1340 3103 
Q 1534 2913 2163 2725 
L 2741 2553 
Q 3375 2363 3645 2067 
Q 3916 1772 3916 1275 
Q 3916 597 3481 253 
Q 3047 -91 2188 -91 
Q 1803 -91 1404 -12 
Q 1006 66 594 225 
z
" transform="scale(0.015625)"/>
      <path id="DejaVuSerif-2c" d="M 231 -622 
Q 525 -406 662 -114 
Q 800 178 800 594 
L 800 709 
L 1416 709 
Q 1391 175 1164 -208 
Q 938 -591 481 -872 
L 231 -622 
z
" transform="scale(0.015625)"/>
      <path id="DejaVuSerif-35" d="M 3219 4666 
L 3219 4153 
L 1081 4153 
L 1081 2816 
Q 1244 2928 1461 2984 
Q 1678 3041 1947 3041 
Q 2703 3041 3140 2622 
Q 3578 2203 3578 1478 
Q 3578 738 3136 323 
Q 2694 -91 1894 -91 
Q 1572 -91 1234 -12 
Q 897 66 544 225 
L 544 1131 
L 897 1131 
Q 925 688 1179 453 
Q 1434 219 1894 219 
Q 2388 219 2653 544 
Q 2919 869 2919 1478 
Q 2919 2084 2655 2407 
Q 2391 2731 1894 2731 
Q 1613 2731 1398 2631 
Q 1184 2531 1019 2322 
L 750 2322 
L 750 4666 
L 3219 4666 
z
" transform="scale(0.015625)"/>
      <path id="DejaVuSerif-2d" d="M 281 1959 
L 1881 1959 
L 1881 1472 
L 281 1472 
L 281 1959 
z
" transform="scale(0.015625)"/>
     </defs>
     <use xlink:href="#DejaVuSerif-4d"/>
     <use xlink:href="#DejaVuSerif-6f" transform="translate(102.392578 0)"/>
     <use xlink:href="#DejaVuSerif-6e" transform="translate(162.597656 0)"/>
     <use xlink:href="#DejaVuSerif-65" transform="translate(227.001953 0)"/>
     <use xlink:href="#DejaVuSerif-74" transform="translate(286.181641 0)"/>
     <use xlink:href="#DejaVuSerif-61" transform="translate(326.367188 0)"/>
     <use xlink:href="#DejaVuSerif-72" transform="translate(385.986328 0)"/>
     <use xlink:href="#DejaVuSerif-79" transform="translate(433.789062 0)"/>
     <use xlink:href="#DejaVuSerif-20" transform="translate(490.283203 0)"/>
     <use xlink:href="#DejaVuSerif-61" transform="translate(522.070312 0)"/>
     <use xlink:href="#DejaVuSerif-67" transform="translate(581.689453 0)"/>
     <use xlink:href="#DejaVuSerif-67" transform="translate(645.703125 0)"/>
     <use xlink:href="#DejaVuSerif-72" transform="translate(709.716797 0)"/>
     <use xlink:href="#DejaVuSerif-65" transform="translate(757.519531 0)"/>
     <use xlink:href="#DejaVuSerif-67" transform="translate(816.699219 0)"/>
     <use xlink:href="#DejaVuSerif-61" transform="translate(880.712891 0)"/>
     <use xlink:href="#DejaVuSerif-74" transform="translate(940.332031 0)"/>
     <use xlink:href="#DejaVuSerif-65" transform="translate(980.517578 0)"/>
     <use xlink:href="#DejaVuSerif-73" transform="translate(1039.697266 0)"/>
     <use xlink:href="#DejaVuSerif-20" transform="translate(1091.015625 0)"/>
     <use xlink:href="#DejaVuSerif-69" transform="translate(1122.802734 0)"/>
     <use xlink:href="#DejaVuSerif-6e" transform="translate(1154.785156 0)"/>
     <use xlink:href="#DejaVuSerif-20" transform="translate(1219.189453 0)"/>
     <use xlink:href="#DejaVuSerif-74" transform="translate(1250.976562 0)"/>
     <use xlink:href="#DejaVuSerif-68" transform="translate(1291.162109 0)"/>
     <use xlink:href="#DejaVuSerif-65" transform="translate(1355.566406 0)"/>
     <use xlink:href="#DejaVuSerif-20" transform="translate(1414.746094 0)"/>
     <use xlink:href="#DejaVuSerif-55" transform="translate(1446.533203 0)"/>
     <use xlink:href="#DejaVuSerif-2e" transform="translate(1521.685547 0)"/>
     <use xlink:href="#DejaVuSerif-53" transform="translate(1553.472656 0)"/>
     <use xlink:href="#DejaVuSerif-2e" transform="translate(1618.353516 0)"/>
     <use xlink:href="#DejaVuSerif-2c" transform="translate(1650.140625 0)"/>
     <use xlink:href="#DejaVuSerif-20" transform="translate(1681.927734 0)"/>
     <use xlink:href="#DejaVuSerif-31" transform="translate(1713.714844 0)"/>
     <use xlink:href="#DejaVuSerif-39" transform="translate(1777.337891 0)"/>
     <use xlink:href="#DejaVuSerif-35" transform="translate(1840.960938 0)"/>
     <use xlink:href="#DejaVuSerif-39" transform="translate(1904.583984 0)"/>
     <use xlink:href="#DejaVuSerif-2d" transform="translate(1968.207031 0)"/>
     <use xlink:href="#DejaVuSerif-32" transform="translate(2001.996094 0)"/>
     <use xlink:href="#DejaVuSerif-30" transform="translate(2065.619141 0)"/>
     <use xlink:href="#DejaVuSerif-32" transform="translate(2129.242188 0)"/>
     <use xlink:href="#DejaVuSerif-34" transform="translate(2192.865234 0)"/>
    </g>
   </g>
   <g id="legend_1">
    <g id="patch_42">
     <path d="M 198.228906 309.521875 
L 306.797656 309.521875 
Q 308.797656 309.521875 308.797656 307.521875 
L 308.797656 279.023437 
Q 308.797656 277.023437 306.797656 277.023437 
L 198.228906 277.023437 
Q 196.228906 277.023437 196.228906 279.023437 
L 196.228906 307.521875 
Q 196.228906 309.521875 198.228906 309.521875 
z
" style="fill: #ffffff; opacity: 0.8; stroke: #cccccc; stroke-linejoin: miter"/>
    </g>
    <g id="line2d_36">
     <path d="M 200.228906 285.121875 
L 210.228906 285.121875 
L 220.228906 285.121875 
" style="fill: none; stroke: #1f77b4; stroke-width: 1.5; stroke-linecap: square"/>
    </g>
    <g id="text_16">
     <!-- Monetary Base -->
     <g transform="translate(228.228906 288.621875) scale(0.1 -0.1)">
      <defs>
       <path id="DejaVuSerif-42" d="M 1581 331 
L 2516 331 
Q 3078 331 3337 575 
Q 3597 819 3597 1350 
Q 3597 1878 3339 2120 
Q 3081 2363 2516 2363 
L 1581 2363 
L 1581 331 
z
M 1581 2694 
L 2375 2694 
Q 2888 2694 3123 2891 
Q 3359 3088 3359 3513 
Q 3359 3941 3123 4136 
Q 2888 4331 2375 4331 
L 1581 4331 
L 1581 2694 
z
M 353 0 
L 353 331 
L 947 331 
L 947 4331 
L 353 4331 
L 353 4666 
L 2656 4666 
Q 3363 4666 3720 4377 
Q 4078 4088 4078 3513 
Q 4078 3097 3829 2850 
Q 3581 2603 3103 2547 
Q 3697 2472 4005 2167 
Q 4313 1863 4313 1350 
Q 4313 656 3875 328 
Q 3438 0 2509 0 
L 353 0 
z
" transform="scale(0.015625)"/>
      </defs>
      <use xlink:href="#DejaVuSerif-4d"/>
      <use xlink:href="#DejaVuSerif-6f" transform="translate(102.392578 0)"/>
      <use xlink:href="#DejaVuSerif-6e" transform="translate(162.597656 0)"/>
      <use xlink:href="#DejaVuSerif-65" transform="translate(227.001953 0)"/>
      <use xlink:href="#DejaVuSerif-74" transform="translate(286.181641 0)"/>
      <use xlink:href="#DejaVuSerif-61" transform="translate(326.367188 0)"/>
      <use xlink:href="#DejaVuSerif-72" transform="translate(385.986328 0)"/>
      <use xlink:href="#DejaVuSerif-79" transform="translate(433.789062 0)"/>
      <use xlink:href="#DejaVuSerif-20" transform="translate(490.283203 0)"/>
      <use xlink:href="#DejaVuSerif-42" transform="translate(522.070312 0)"/>
      <use xlink:href="#DejaVuSerif-61" transform="translate(595.556641 0)"/>
      <use xlink:href="#DejaVuSerif-73" transform="translate(655.175781 0)"/>
      <use xlink:href="#DejaVuSerif-65" transform="translate(706.494141 0)"/>
     </g>
    </g>
    <g id="line2d_37">
     <path d="M 200.228906 299.942187 
L 210.228906 299.942187 
L 220.228906 299.942187 
" style="fill: none; stroke: #ff7f0e; stroke-width: 1.5; stroke-linecap: square"/>
    </g>
    <g id="text_17">
     <!-- M3 -->
     <g transform="translate(228.228906 303.442187) scale(0.1 -0.1)">
      <defs>
       <path id="DejaVuSerif-33" d="M 622 4469 
Q 988 4606 1323 4678 
Q 1659 4750 1953 4750 
Q 2638 4750 3022 4454 
Q 3406 4159 3406 3634 
Q 3406 3213 3140 2930 
Q 2875 2647 2388 2547 
Q 2963 2466 3280 2130 
Q 3597 1794 3597 1259 
Q 3597 606 3158 257 
Q 2719 -91 1894 -91 
Q 1528 -91 1179 -12 
Q 831 66 488 225 
L 488 1131 
L 838 1131 
Q 869 681 1141 450 
Q 1413 219 1906 219 
Q 2384 219 2661 495 
Q 2938 772 2938 1253 
Q 2938 1803 2653 2086 
Q 2369 2369 1819 2369 
L 1522 2369 
L 1522 2688 
L 1678 2688 
Q 2225 2688 2498 2914 
Q 2772 3141 2772 3597 
Q 2772 4006 2547 4223 
Q 2322 4441 1900 4441 
Q 1478 4441 1245 4241 
Q 1013 4041 972 3647 
L 622 3647 
L 622 4469 
z
" transform="scale(0.015625)"/>
      </defs>
      <use xlink:href="#DejaVuSerif-4d"/>
      <use xlink:href="#DejaVuSerif-33" transform="translate(102.392578 0)"/>
     </g>
    </g>
   </g>
  </g>
 </g>
 <defs>
  <clipPath id="p24029a2b34">
   <rect x="58.626563" y="22.318125" width="387.773438" height="292.20375"/>
  </clipPath>
 </defs>
</svg>
