<?xml version="1.0" encoding="utf-8" standalone="no"?>
<!DOCTYPE svg PUBLIC "-//W3C//DTD SVG 1.1//EN"
  "http://www.w3.org/Graphics/SVG/1.1/DTD/svg11.dtd">
<svg xmlns:xlink="http://www.w3.org/1999/xlink" width="453.6pt" height="338.4pt" viewBox="0 0 453.6 338.4" xmlns="http://www.w3.org/2000/svg" version="1.1">
 <metadata>
  <rdf:RDF xmlns:dc="http://purl.org/dc/elements/1.1/" xmlns:cc="http://creativecommons.org/ns#" xmlns:rdf="http://www.w3.org/1999/02/22-rdf-syntax-ns#">
   <cc:Work>
    <dc:type rdf:resource="http://purl.org/dc/dcmitype/StillImage"/>
    <dc:date>2026-05-19T20:43:01.965097</dc:date>
    <dc:format>image/svg+xml</dc:format>
    <dc:creator>
     <cc:Agent>
      <dc:title>Matplotlib v3.10.3, https://matplotlib.org/</dc:title>
     </cc:Agent>
    </dc:creator>
   </cc:Work>
  </rdf:RDF>
 </metadata>
 <defs>
  <style type="text/css">*{stroke-linejoin: round; stroke-linecap: butt}</style>
 </defs>
 <g id="figure_1">
  <g id="patch_1">
   <path d="M 0 338.4 
L 453.6 338.4 
L 453.6 0 
L 0 0 
z
" style="fill: #ffffff"/>
  </g>
  <g id="axes_1">
   <g id="patch_2">
    <path d="M 61.6625 314.521875 
L 446.4 314.521875 
L 446.4 22.318125 
L 61.6625 22.318125 
z
" style="fill: #ffffff"/>
   </g>
   <g id="patch_3">
    <path d="M -6478.875 314.521875 
L -6475.470243 314.521875 
L -6475.470243 22.318125 
L -6478.875 22.318125 
z
" clip-path="url(#p61cfb78104)" style="fill: #d3d3d3"/>
   </g>
   <g id="patch_4">
    <path d="M -6373.327544 314.521875 
L -6312.041925 314.521875 
L -6312.041925 22.318125 
L -6373.327544 22.318125 
z
" clip-path="url(#p61cfb78104)" style="fill: #d3d3d3"/>
   </g>
   <g id="patch_5">
    <path d="M -6237.137279 314.521875 
L -6209.899226 314.521875 
L -6209.899226 22.318125 
L -6237.137279 22.318125 
z
" clip-path="url(#p61cfb78104)" style="fill: #d3d3d3"/>
   </g>
   <g id="patch_6">
    <path d="M -6053.28042 314.521875 
L -5944.328208 314.521875 
L -5944.328208 22.318125 
L -6053.28042 22.318125 
z
" clip-path="url(#p61cfb78104)" style="fill: #d3d3d3"/>
   </g>
   <g id="patch_7">
    <path d="M -5883.042588 314.521875 
L -5821.756969 314.521875 
L -5821.756969 22.318125 
L -5883.042588 22.318125 
z
" clip-path="url(#p61cfb78104)" style="fill: #d3d3d3"/>
   </g>
   <g id="patch_8">
    <path d="M -5705.995243 314.521875 
L -5484.686062 314.521875 
L -5484.686062 22.318125 
L -5705.995243 22.318125 
z
" clip-path="url(#p61cfb78104)" style="fill: #d3d3d3"/>
   </g>
   <g id="patch_9">
    <path d="M -5362.114823 314.521875 
L -5232.734071 314.521875 
L -5232.734071 22.318125 
L -5362.114823 22.318125 
z
" clip-path="url(#p61cfb78104)" style="fill: #d3d3d3"/>
   </g>
   <g id="patch_10">
    <path d="M -5157.829425 314.521875 
L -5113.567588 314.521875 
L -5113.567588 22.318125 
L -5157.829425 22.318125 
z
" clip-path="url(#p61cfb78104)" style="fill: #d3d3d3"/>
   </g>
   <g id="patch_11">
    <path d="M -5021.639159 314.521875 
L -4987.591593 314.521875 
L -4987.591593 22.318125 
L -5021.639159 22.318125 
z
" clip-path="url(#p61cfb78104)" style="fill: #d3d3d3"/>
   </g>
   <g id="patch_12">
    <path d="M -4919.49646 314.521875 
L -4861.615597 314.521875 
L -4861.615597 22.318125 
L -4919.49646 22.318125 
z
" clip-path="url(#p61cfb78104)" style="fill: #d3d3d3"/>
   </g>
   <g id="patch_13">
    <path d="M -4800.329978 314.521875 
L -4739.044358 314.521875 
L -4739.044358 22.318125 
L -4800.329978 22.318125 
z
" clip-path="url(#p61cfb78104)" style="fill: #d3d3d3"/>
   </g>
   <g id="patch_14">
    <path d="M -4657.330199 314.521875 
L -4596.04458 314.521875 
L -4596.04458 22.318125 
L -4657.330199 22.318125 
z
" clip-path="url(#p61cfb78104)" style="fill: #d3d3d3"/>
   </g>
   <g id="patch_15">
    <path d="M -4524.54469 314.521875 
L -4446.235288 314.521875 
L -4446.235288 22.318125 
L -4524.54469 22.318125 
z
" clip-path="url(#p61cfb78104)" style="fill: #d3d3d3"/>
   </g>
   <g id="patch_16">
    <path d="M -4333.878319 314.521875 
L -4289.616482 314.521875 
L -4289.616482 22.318125 
L -4333.878319 22.318125 
z
" clip-path="url(#p61cfb78104)" style="fill: #d3d3d3"/>
   </g>
   <g id="patch_17">
    <path d="M -4224.926106 314.521875 
L -4143.211947 314.521875 
L -4143.211947 22.318125 
L -4224.926106 22.318125 
z
" clip-path="url(#p61cfb78104)" style="fill: #d3d3d3"/>
   </g>
   <g id="patch_18">
    <path d="M -4102.354867 314.521875 
L -4024.045465 314.521875 
L -4024.045465 22.318125 
L -4102.354867 22.318125 
z
" clip-path="url(#p61cfb78104)" style="fill: #d3d3d3"/>
   </g>
   <g id="patch_19">
    <path d="M -3874.236173 314.521875 
L -3850.402876 314.521875 
L -3850.402876 22.318125 
L -3874.236173 22.318125 
z
" clip-path="url(#p61cfb78104)" style="fill: #d3d3d3"/>
   </g>
   <g id="patch_20">
    <path d="M -3816.35531 314.521875 
L -3755.06969 314.521875 
L -3755.06969 22.318125 
L -3816.35531 22.318125 
z
" clip-path="url(#p61cfb78104)" style="fill: #d3d3d3"/>
   </g>
   <g id="patch_21">
    <path d="M -3680.165044 314.521875 
L -3632.498451 314.521875 
L -3632.498451 22.318125 
L -3680.165044 22.318125 
z
" clip-path="url(#p61cfb78104)" style="fill: #d3d3d3"/>
   </g>
   <g id="patch_22">
    <path d="M -3540.570022 314.521875 
L -3496.308186 314.521875 
L -3496.308186 22.318125 
L -3540.570022 22.318125 
z
" clip-path="url(#p61cfb78104)" style="fill: #d3d3d3"/>
   </g>
   <g id="patch_23">
    <path d="M -3424.808296 314.521875 
L -3278.403761 314.521875 
L -3278.403761 22.318125 
L -3424.808296 22.318125 
z
" clip-path="url(#p61cfb78104)" style="fill: #d3d3d3"/>
   </g>
   <g id="patch_24">
    <path d="M -3108.165929 314.521875 
L -3063.904093 314.521875 
L -3063.904093 22.318125 
L -3108.165929 22.318125 
z
" clip-path="url(#p61cfb78104)" style="fill: #d3d3d3"/>
   </g>
   <g id="patch_25">
    <path d="M -2791.523562 314.521875 
L -2764.285509 314.521875 
L -2764.285509 22.318125 
L -2791.523562 22.318125 
z
" clip-path="url(#p61cfb78104)" style="fill: #d3d3d3"/>
   </g>
   <g id="patch_26">
    <path d="M -2638.309513 314.521875 
L -2600.85719 314.521875 
L -2600.85719 22.318125 
L -2638.309513 22.318125 
z
" clip-path="url(#p61cfb78104)" style="fill: #d3d3d3"/>
   </g>
   <g id="patch_27">
    <path d="M -2447.643142 314.521875 
L -2413.595575 314.521875 
L -2413.595575 22.318125 
L -2447.643142 22.318125 
z
" clip-path="url(#p61cfb78104)" style="fill: #d3d3d3"/>
   </g>
   <g id="patch_28">
    <path d="M -2280.810066 314.521875 
L -2253.572013 314.521875 
L -2253.572013 22.318125 
L -2280.810066 22.318125 
z
" clip-path="url(#p61cfb78104)" style="fill: #d3d3d3"/>
   </g>
   <g id="patch_29">
    <path d="M -2171.857854 314.521875 
L -2137.810288 314.521875 
L -2137.810288 22.318125 
L -2171.857854 22.318125 
z
" clip-path="url(#p61cfb78104)" style="fill: #d3d3d3"/>
   </g>
   <g id="patch_30">
    <path d="M -1776.906084 314.521875 
L -1739.453761 314.521875 
L -1739.453761 22.318125 
L -1776.906084 22.318125 
z
" clip-path="url(#p61cfb78104)" style="fill: #d3d3d3"/>
   </g>
   <g id="patch_31">
    <path d="M -1616.882522 314.521875 
L -1562.406416 314.521875 
L -1562.406416 22.318125 
L -1616.882522 22.318125 
z
" clip-path="url(#p61cfb78104)" style="fill: #d3d3d3"/>
   </g>
   <g id="patch_32">
    <path d="M -1364.930531 314.521875 
L -1344.501991 314.521875 
L -1344.501991 22.318125 
L -1364.930531 22.318125 
z
" clip-path="url(#p61cfb78104)" style="fill: #d3d3d3"/>
   </g>
   <g id="patch_33">
    <path d="M -1303.644912 314.521875 
L -1249.168805 314.521875 
L -1249.168805 22.318125 
L -1303.644912 22.318125 
z
" clip-path="url(#p61cfb78104)" style="fill: #d3d3d3"/>
   </g>
   <g id="patch_34">
    <path d="M -935.931195 314.521875 
L -908.693142 314.521875 
L -908.693142 22.318125 
L -935.931195 22.318125 
z
" clip-path="url(#p61cfb78104)" style="fill: #d3d3d3"/>
   </g>
   <g id="patch_35">
    <path d="M -500.122345 314.521875 
L -472.884292 314.521875 
L -472.884292 22.318125 
L -500.122345 22.318125 
z
" clip-path="url(#p61cfb78104)" style="fill: #d3d3d3"/>
   </g>
   <g id="patch_36">
    <path d="M -224.337058 314.521875 
L -163.051438 314.521875 
L -163.051438 22.318125 
L -224.337058 22.318125 
z
" clip-path="url(#p61cfb78104)" style="fill: #d3d3d3"/>
   </g>
   <g id="patch_37">
    <path d="M 272.757412 314.521875 
L 279.566925 314.521875 
L 279.566925 22.318125 
L 272.757412 22.318125 
z
" clip-path="url(#p61cfb78104)" style="fill: #d3d3d3"/>
   </g>
   <g id="matplotlib.axis_1">
    <g id="xtick_1">
     <g id="line2d_1">
      <path d="M 61.6625 314.521875 
L 61.6625 22.318125 
" clip-path="url(#p61cfb78104)" style="fill: none; stroke: #b0b0b0; stroke-width: 0.8; stroke-linecap: square"/>
     </g>
     <g id="line2d_2">
      <defs>
       <path id="m804da0bde5" d="M 0 0 
L 0 3.5 
" style="stroke: #000000; stroke-width: 0.8"/>
      </defs>
      <g>
       <use xlink:href="#m804da0bde5" x="61.6625" y="314.521875" style="stroke: #000000; stroke-width: 0.8"/>
      </g>
     </g>
     <g id="text_1">
      <!-- 2015 -->
      <g transform="translate(48.9375 329.120312) scale(0.1 -0.1)">
       <defs>
        <path id="DejaVuSerif-32" d="M 819 3553 
L 469 3553 
L 469 4384 
Q 803 4563 1142 4656 
Q 1481 4750 1806 4750 
Q 2534 4750 2956 4397 
Q 3378 4044 3378 3438 
Q 3378 2753 2422 1800 
Q 2347 1728 2309 1691 
L 1131 513 
L 3078 513 
L 3078 1088 
L 3444 1088 
L 3444 0 
L 434 0 
L 434 341 
L 1850 1753 
Q 2319 2222 2519 2614 
Q 2719 3006 2719 3438 
Q 2719 3909 2473 4175 
Q 2228 4441 1797 4441 
Q 1350 4441 1106 4219 
Q 863 3997 819 3553 
z
" transform="scale(0.015625)"/>
        <path id="DejaVuSerif-30" d="M 2034 219 
Q 2513 219 2750 744 
Q 2988 1269 2988 2328 
Q 2988 3391 2750 3916 
Q 2513 4441 2034 4441 
Q 1556 4441 1318 3916 
Q 1081 3391 1081 2328 
Q 1081 1269 1318 744 
Q 1556 219 2034 219 
z
M 2034 -91 
Q 1275 -91 848 546 
Q 422 1184 422 2328 
Q 422 3475 848 4112 
Q 1275 4750 2034 4750 
Q 2797 4750 3222 4112 
Q 3647 3475 3647 2328 
Q 3647 1184 3222 546 
Q 2797 -91 2034 -91 
z
" transform="scale(0.015625)"/>
        <path id="DejaVuSerif-31" d="M 909 0 
L 909 331 
L 1722 331 
L 1722 4213 
L 781 3603 
L 781 4013 
L 1919 4750 
L 2350 4750 
L 2350 331 
L 3163 331 
L 3163 0 
L 909 0 
z
" transform="scale(0.015625)"/>
        <path id="DejaVuSerif-35" d="M 3219 4666 
L 3219 4153 
L 1081 4153 
L 1081 2816 
Q 1244 2928 1461 2984 
Q 1678 3041 1947 3041 
Q 2703 3041 3140 2622 
Q 3578 2203 3578 1478 
Q 3578 738 3136 323 
Q 2694 -91 1894 -91 
Q 1572 -91 1234 -12 
Q 897 66 544 225 
L 544 1131 
L 897 1131 
Q 925 688 1179 453 
Q 1434 219 1894 219 
Q 2388 219 2653 544 
Q 2919 869 2919 1478 
Q 2919 2084 2655 2407 
Q 2391 2731 1894 2731 
Q 1613 2731 1398 2631 
Q 1184 2531 1019 2322 
L 750 2322 
L 750 4666 
L 3219 4666 
z
" transform="scale(0.015625)"/>
       </defs>
       <use xlink:href="#DejaVuSerif-32"/>
       <use xlink:href="#DejaVuSerif-30" transform="translate(63.623047 0)"/>
       <use xlink:href="#DejaVuSerif-31" transform="translate(127.246094 0)"/>
       <use xlink:href="#DejaVuSerif-35" transform="translate(190.869141 0)"/>
      </g>
     </g>
    </g>
    <g id="xtick_2">
     <g id="line2d_3">
      <path d="M 102.51958 314.521875 
L 102.51958 22.318125 
" clip-path="url(#p61cfb78104)" style="fill: none; stroke: #b0b0b0; stroke-width: 0.8; stroke-linecap: square"/>
     </g>
     <g id="line2d_4">
      <g>
       <use xlink:href="#m804da0bde5" x="102.51958" y="314.521875" style="stroke: #000000; stroke-width: 0.8"/>
      </g>
     </g>
     <g id="text_2">
      <!-- 2016 -->
      <g transform="translate(89.79458 329.120312) scale(0.1 -0.1)">
       <defs>
        <path id="DejaVuSerif-36" d="M 2094 219 
Q 2534 219 2771 542 
Q 3009 866 3009 1472 
Q 3009 2078 2771 2401 
Q 2534 2725 2094 2725 
Q 1647 2725 1412 2412 
Q 1178 2100 1178 1509 
Q 1178 888 1415 553 
Q 1653 219 2094 219 
z
M 1075 2569 
Q 1288 2803 1556 2918 
Q 1825 3034 2163 3034 
Q 2859 3034 3264 2615 
Q 3669 2197 3669 1472 
Q 3669 763 3233 336 
Q 2797 -91 2069 -91 
Q 1278 -91 853 498 
Q 428 1088 428 2181 
Q 428 3406 931 4078 
Q 1434 4750 2350 4750 
Q 2597 4750 2869 4703 
Q 3141 4656 3425 4563 
L 3425 3794 
L 3072 3794 
Q 3034 4109 2831 4275 
Q 2628 4441 2284 4441 
Q 1678 4441 1381 3981 
Q 1084 3522 1075 2569 
z
" transform="scale(0.015625)"/>
       </defs>
       <use xlink:href="#DejaVuSerif-32"/>
       <use xlink:href="#DejaVuSerif-30" transform="translate(63.623047 0)"/>
       <use xlink:href="#DejaVuSerif-31" transform="translate(127.246094 0)"/>
       <use xlink:href="#DejaVuSerif-36" transform="translate(190.869141 0)"/>
      </g>
     </g>
    </g>
    <g id="xtick_3">
     <g id="line2d_5">
      <path d="M 143.376659 314.521875 
L 143.376659 22.318125 
" clip-path="url(#p61cfb78104)" style="fill: none; stroke: #b0b0b0; stroke-width: 0.8; stroke-linecap: square"/>
     </g>
     <g id="line2d_6">
      <g>
       <use xlink:href="#m804da0bde5" x="143.376659" y="314.521875" style="stroke: #000000; stroke-width: 0.8"/>
      </g>
     </g>
     <g id="text_3">
      <!-- 2017 -->
      <g transform="translate(130.651659 329.120312) scale(0.1 -0.1)">
       <defs>
        <path id="DejaVuSerif-37" d="M 3609 4347 
L 1784 0 
L 1319 0 
L 3059 4153 
L 903 4153 
L 903 3578 
L 538 3578 
L 538 4666 
L 3609 4666 
L 3609 4347 
z
" transform="scale(0.015625)"/>
       </defs>
       <use xlink:href="#DejaVuSerif-32"/>
       <use xlink:href="#DejaVuSerif-30" transform="translate(63.623047 0)"/>
       <use xlink:href="#DejaVuSerif-31" transform="translate(127.246094 0)"/>
       <use xlink:href="#DejaVuSerif-37" transform="translate(190.869141 0)"/>
      </g>
     </g>
    </g>
    <g id="xtick_4">
     <g id="line2d_7">
      <path d="M 184.233739 314.521875 
L 184.233739 22.318125 
" clip-path="url(#p61cfb78104)" style="fill: none; stroke: #b0b0b0; stroke-width: 0.8; stroke-linecap: square"/>
     </g>
     <g id="line2d_8">
      <g>
       <use xlink:href="#m804da0bde5" x="184.233739" y="314.521875" style="stroke: #000000; stroke-width: 0.8"/>
      </g>
     </g>
     <g id="text_4">
      <!-- 2018 -->
      <g transform="translate(171.508739 329.120312) scale(0.1 -0.1)">
       <defs>
        <path id="DejaVuSerif-38" d="M 2981 1275 
Q 2981 1775 2732 2051 
Q 2484 2328 2034 2328 
Q 1584 2328 1336 2051 
Q 1088 1775 1088 1275 
Q 1088 772 1336 495 
Q 1584 219 2034 219 
Q 2484 219 2732 495 
Q 2981 772 2981 1275 
z
M 2853 3541 
Q 2853 3966 2637 4203 
Q 2422 4441 2034 4441 
Q 1650 4441 1433 4203 
Q 1216 3966 1216 3541 
Q 1216 3113 1433 2875 
Q 1650 2638 2034 2638 
Q 2422 2638 2637 2875 
Q 2853 3113 2853 3541 
z
M 2516 2484 
Q 3047 2413 3344 2092 
Q 3641 1772 3641 1275 
Q 3641 619 3225 264 
Q 2809 -91 2034 -91 
Q 1263 -91 845 264 
Q 428 619 428 1275 
Q 428 1772 725 2092 
Q 1022 2413 1556 2484 
Q 1084 2569 832 2842 
Q 581 3116 581 3541 
Q 581 4103 968 4426 
Q 1356 4750 2034 4750 
Q 2713 4750 3100 4426 
Q 3488 4103 3488 3541 
Q 3488 3116 3236 2842 
Q 2984 2569 2516 2484 
z
" transform="scale(0.015625)"/>
       </defs>
       <use xlink:href="#DejaVuSerif-32"/>
       <use xlink:href="#DejaVuSerif-30" transform="translate(63.623047 0)"/>
       <use xlink:href="#DejaVuSerif-31" transform="translate(127.246094 0)"/>
       <use xlink:href="#DejaVuSerif-38" transform="translate(190.869141 0)"/>
      </g>
     </g>
    </g>
    <g id="xtick_5">
     <g id="line2d_9">
      <path d="M 225.090819 314.521875 
L 225.090819 22.318125 
" clip-path="url(#p61cfb78104)" style="fill: none; stroke: #b0b0b0; stroke-width: 0.8; stroke-linecap: square"/>
     </g>
     <g id="line2d_10">
      <g>
       <use xlink:href="#m804da0bde5" x="225.090819" y="314.521875" style="stroke: #000000; stroke-width: 0.8"/>
      </g>
     </g>
     <g id="text_5">
      <!-- 2019 -->
      <g transform="translate(212.365819 329.120312) scale(0.1 -0.1)">
       <defs>
        <path id="DejaVuSerif-39" d="M 2994 2091 
Q 2784 1856 2512 1740 
Q 2241 1625 1900 1625 
Q 1206 1625 804 2044 
Q 403 2463 403 3188 
Q 403 3897 839 4323 
Q 1275 4750 2003 4750 
Q 2794 4750 3217 4161 
Q 3641 3572 3641 2478 
Q 3641 1253 3137 581 
Q 2634 -91 1722 -91 
Q 1475 -91 1203 -44 
Q 931 3 647 97 
L 647 872 
L 997 872 
Q 1038 556 1241 387 
Q 1444 219 1784 219 
Q 2391 219 2687 676 
Q 2984 1134 2994 2091 
z
M 1978 4441 
Q 1534 4441 1298 4117 
Q 1063 3794 1063 3188 
Q 1063 2581 1298 2256 
Q 1534 1931 1978 1931 
Q 2422 1931 2658 2245 
Q 2894 2559 2894 3150 
Q 2894 3772 2656 4106 
Q 2419 4441 1978 4441 
z
" transform="scale(0.015625)"/>
       </defs>
       <use xlink:href="#DejaVuSerif-32"/>
       <use xlink:href="#DejaVuSerif-30" transform="translate(63.623047 0)"/>
       <use xlink:href="#DejaVuSerif-31" transform="translate(127.246094 0)"/>
       <use xlink:href="#DejaVuSerif-39" transform="translate(190.869141 0)"/>
      </g>
     </g>
    </g>
    <g id="xtick_6">
     <g id="line2d_11">
      <path d="M 265.947898 314.521875 
L 265.947898 22.318125 
" clip-path="url(#p61cfb78104)" style="fill: none; stroke: #b0b0b0; stroke-width: 0.8; stroke-linecap: square"/>
     </g>
     <g id="line2d_12">
      <g>
       <use xlink:href="#m804da0bde5" x="265.947898" y="314.521875" style="stroke: #000000; stroke-width: 0.8"/>
      </g>
     </g>
     <g id="text_6">
      <!-- 2020 -->
      <g transform="translate(253.222898 329.120312) scale(0.1 -0.1)">
       <use xlink:href="#DejaVuSerif-32"/>
       <use xlink:href="#DejaVuSerif-30" transform="translate(63.623047 0)"/>
       <use xlink:href="#DejaVuSerif-32" transform="translate(127.246094 0)"/>
       <use xlink:href="#DejaVuSerif-30" transform="translate(190.869141 0)"/>
      </g>
     </g>
    </g>
    <g id="xtick_7">
     <g id="line2d_13">
      <path d="M 306.804978 314.521875 
L 306.804978 22.318125 
" clip-path="url(#p61cfb78104)" style="fill: none; stroke: #b0b0b0; stroke-width: 0.8; stroke-linecap: square"/>
     </g>
     <g id="line2d_14">
      <g>
       <use xlink:href="#m804da0bde5" x="306.804978" y="314.521875" style="stroke: #000000; stroke-width: 0.8"/>
      </g>
     </g>
     <g id="text_7">
      <!-- 2021 -->
      <g transform="translate(294.079978 329.120312) scale(0.1 -0.1)">
       <use xlink:href="#DejaVuSerif-32"/>
       <use xlink:href="#DejaVuSerif-30" transform="translate(63.623047 0)"/>
       <use xlink:href="#DejaVuSerif-32" transform="translate(127.246094 0)"/>
       <use xlink:href="#DejaVuSerif-31" transform="translate(190.869141 0)"/>
      </g>
     </g>
    </g>
    <g id="xtick_8">
     <g id="line2d_15">
      <path d="M 347.662058 314.521875 
L 347.662058 22.318125 
" clip-path="url(#p61cfb78104)" style="fill: none; stroke: #b0b0b0; stroke-width: 0.8; stroke-linecap: square"/>
     </g>
     <g id="line2d_16">
      <g>
       <use xlink:href="#m804da0bde5" x="347.662058" y="314.521875" style="stroke: #000000; stroke-width: 0.8"/>
      </g>
     </g>
     <g id="text_8">
      <!-- 2022 -->
      <g transform="translate(334.937058 329.120312) scale(0.1 -0.1)">
       <use xlink:href="#DejaVuSerif-32"/>
       <use xlink:href="#DejaVuSerif-30" transform="translate(63.623047 0)"/>
       <use xlink:href="#DejaVuSerif-32" transform="translate(127.246094 0)"/>
       <use xlink:href="#DejaVuSerif-32" transform="translate(190.869141 0)"/>
      </g>
     </g>
    </g>
    <g id="xtick_9">
     <g id="line2d_17">
      <path d="M 388.519137 314.521875 
L 388.519137 22.318125 
" clip-path="url(#p61cfb78104)" style="fill: none; stroke: #b0b0b0; stroke-width: 0.8; stroke-linecap: square"/>
     </g>
     <g id="line2d_18">
      <g>
       <use xlink:href="#m804da0bde5" x="388.519137" y="314.521875" style="stroke: #000000; stroke-width: 0.8"/>
      </g>
     </g>
     <g id="text_9">
      <!-- 2023 -->
      <g transform="translate(375.794137 329.120312) scale(0.1 -0.1)">
       <defs>
        <path id="DejaVuSerif-33" d="M 622 4469 
Q 988 4606 1323 4678 
Q 1659 4750 1953 4750 
Q 2638 4750 3022 4454 
Q 3406 4159 3406 3634 
Q 3406 3213 3140 2930 
Q 2875 2647 2388 2547 
Q 2963 2466 3280 2130 
Q 3597 1794 3597 1259 
Q 3597 606 3158 257 
Q 2719 -91 1894 -91 
Q 1528 -91 1179 -12 
Q 831 66 488 225 
L 488 1131 
L 838 1131 
Q 869 681 1141 450 
Q 1413 219 1906 219 
Q 2384 219 2661 495 
Q 2938 772 2938 1253 
Q 2938 1803 2653 2086 
Q 2369 2369 1819 2369 
L 1522 2369 
L 1522 2688 
L 1678 2688 
Q 2225 2688 2498 2914 
Q 2772 3141 2772 3597 
Q 2772 4006 2547 4223 
Q 2322 4441 1900 4441 
Q 1478 4441 1245 4241 
Q 1013 4041 972 3647 
L 622 3647 
L 622 4469 
z
" transform="scale(0.015625)"/>
       </defs>
       <use xlink:href="#DejaVuSerif-32"/>
       <use xlink:href="#DejaVuSerif-30" transform="translate(63.623047 0)"/>
       <use xlink:href="#DejaVuSerif-32" transform="translate(127.246094 0)"/>
       <use xlink:href="#DejaVuSerif-33" transform="translate(190.869141 0)"/>
      </g>
     </g>
    </g>
    <g id="xtick_10">
     <g id="line2d_19">
      <path d="M 429.376217 314.521875 
L 429.376217 22.318125 
" clip-path="url(#p61cfb78104)" style="fill: none; stroke: #b0b0b0; stroke-width: 0.8; stroke-linecap: square"/>
     </g>
     <g id="line2d_20">
      <g>
       <use xlink:href="#m804da0bde5" x="429.376217" y="314.521875" style="stroke: #000000; stroke-width: 0.8"/>
      </g>
     </g>
     <g id="text_10">
      <!-- 2024 -->
      <g transform="translate(416.651217 329.120312) scale(0.1 -0.1)">
       <defs>
        <path id="DejaVuSerif-34" d="M 2234 1581 
L 2234 4063 
L 641 1581 
L 2234 1581 
z
M 3609 0 
L 1484 0 
L 1484 331 
L 2234 331 
L 2234 1247 
L 197 1247 
L 197 1588 
L 2241 4750 
L 2859 4750 
L 2859 1581 
L 3750 1581 
L 3750 1247 
L 2859 1247 
L 2859 331 
L 3609 331 
L 3609 0 
z
" transform="scale(0.015625)"/>
       </defs>
       <use xlink:href="#DejaVuSerif-32"/>
       <use xlink:href="#DejaVuSerif-30" transform="translate(63.623047 0)"/>
       <use xlink:href="#DejaVuSerif-32" transform="translate(127.246094 0)"/>
       <use xlink:href="#DejaVuSerif-34" transform="translate(190.869141 0)"/>
      </g>
     </g>
    </g>
    <g id="xtick_11">
     <g id="line2d_21">
      <defs>
       <path id="m9f2bfe3dcd" d="M 0 0 
L 0 2 
" style="stroke: #000000; stroke-width: 0.6"/>
      </defs>
      <g>
       <use xlink:href="#m9f2bfe3dcd" x="71.87677" y="314.521875" style="stroke: #000000; stroke-width: 0.6"/>
      </g>
     </g>
    </g>
    <g id="xtick_12">
     <g id="line2d_22">
      <g>
       <use xlink:href="#m9f2bfe3dcd" x="82.09104" y="314.521875" style="stroke: #000000; stroke-width: 0.6"/>
      </g>
     </g>
    </g>
    <g id="xtick_13">
     <g id="line2d_23">
      <g>
       <use xlink:href="#m9f2bfe3dcd" x="92.30531" y="314.521875" style="stroke: #000000; stroke-width: 0.6"/>
      </g>
     </g>
    </g>
    <g id="xtick_14">
     <g id="line2d_24">
      <g>
       <use xlink:href="#m9f2bfe3dcd" x="112.73385" y="314.521875" style="stroke: #000000; stroke-width: 0.6"/>
      </g>
     </g>
    </g>
    <g id="xtick_15">
     <g id="line2d_25">
      <g>
       <use xlink:href="#m9f2bfe3dcd" x="122.948119" y="314.521875" style="stroke: #000000; stroke-width: 0.6"/>
      </g>
     </g>
    </g>
    <g id="xtick_16">
     <g id="line2d_26">
      <g>
       <use xlink:href="#m9f2bfe3dcd" x="133.162389" y="314.521875" style="stroke: #000000; stroke-width: 0.6"/>
      </g>
     </g>
    </g>
    <g id="xtick_17">
     <g id="line2d_27">
      <g>
       <use xlink:href="#m9f2bfe3dcd" x="153.590929" y="314.521875" style="stroke: #000000; stroke-width: 0.6"/>
      </g>
     </g>
    </g>
    <g id="xtick_18">
     <g id="line2d_28">
      <g>
       <use xlink:href="#m9f2bfe3dcd" x="163.805199" y="314.521875" style="stroke: #000000; stroke-width: 0.6"/>
      </g>
     </g>
    </g>
    <g id="xtick_19">
     <g id="line2d_29">
      <g>
       <use xlink:href="#m9f2bfe3dcd" x="174.019469" y="314.521875" style="stroke: #000000; stroke-width: 0.6"/>
      </g>
     </g>
    </g>
    <g id="xtick_20">
     <g id="line2d_30">
      <g>
       <use xlink:href="#m9f2bfe3dcd" x="194.448009" y="314.521875" style="stroke: #000000; stroke-width: 0.6"/>
      </g>
     </g>
    </g>
    <g id="xtick_21">
     <g id="line2d_31">
      <g>
       <use xlink:href="#m9f2bfe3dcd" x="204.662279" y="314.521875" style="stroke: #000000; stroke-width: 0.6"/>
      </g>
     </g>
    </g>
    <g id="xtick_22">
     <g id="line2d_32">
      <g>
       <use xlink:href="#m9f2bfe3dcd" x="214.876549" y="314.521875" style="stroke: #000000; stroke-width: 0.6"/>
      </g>
     </g>
    </g>
    <g id="xtick_23">
     <g id="line2d_33">
      <g>
       <use xlink:href="#m9f2bfe3dcd" x="235.305088" y="314.521875" style="stroke: #000000; stroke-width: 0.6"/>
      </g>
     </g>
    </g>
    <g id="xtick_24">
     <g id="line2d_34">
      <g>
       <use xlink:href="#m9f2bfe3dcd" x="245.519358" y="314.521875" style="stroke: #000000; stroke-width: 0.6"/>
      </g>
     </g>
    </g>
    <g id="xtick_25">
     <g id="line2d_35">
      <g>
       <use xlink:href="#m9f2bfe3dcd" x="255.733628" y="314.521875" style="stroke: #000000; stroke-width: 0.6"/>
      </g>
     </g>
    </g>
    <g id="xtick_26">
     <g id="line2d_36">
      <g>
       <use xlink:href="#m9f2bfe3dcd" x="276.162168" y="314.521875" style="stroke: #000000; stroke-width: 0.6"/>
      </g>
     </g>
    </g>
    <g id="xtick_27">
     <g id="line2d_37">
      <g>
       <use xlink:href="#m9f2bfe3dcd" x="286.376438" y="314.521875" style="stroke: #000000; stroke-width: 0.6"/>
      </g>
     </g>
    </g>
    <g id="xtick_28">
     <g id="line2d_38">
      <g>
       <use xlink:href="#m9f2bfe3dcd" x="296.590708" y="314.521875" style="stroke: #000000; stroke-width: 0.6"/>
      </g>
     </g>
    </g>
    <g id="xtick_29">
     <g id="line2d_39">
      <g>
       <use xlink:href="#m9f2bfe3dcd" x="317.019248" y="314.521875" style="stroke: #000000; stroke-width: 0.6"/>
      </g>
     </g>
    </g>
    <g id="xtick_30">
     <g id="line2d_40">
      <g>
       <use xlink:href="#m9f2bfe3dcd" x="327.233518" y="314.521875" style="stroke: #000000; stroke-width: 0.6"/>
      </g>
     </g>
    </g>
    <g id="xtick_31">
     <g id="line2d_41">
      <g>
       <use xlink:href="#m9f2bfe3dcd" x="337.447788" y="314.521875" style="stroke: #000000; stroke-width: 0.6"/>
      </g>
     </g>
    </g>
    <g id="xtick_32">
     <g id="line2d_42">
      <g>
       <use xlink:href="#m9f2bfe3dcd" x="357.876327" y="314.521875" style="stroke: #000000; stroke-width: 0.6"/>
      </g>
     </g>
    </g>
    <g id="xtick_33">
     <g id="line2d_43">
      <g>
       <use xlink:href="#m9f2bfe3dcd" x="368.090597" y="314.521875" style="stroke: #000000; stroke-width: 0.6"/>
      </g>
     </g>
    </g>
    <g id="xtick_34">
     <g id="line2d_44">
      <g>
       <use xlink:href="#m9f2bfe3dcd" x="378.304867" y="314.521875" style="stroke: #000000; stroke-width: 0.6"/>
      </g>
     </g>
    </g>
    <g id="xtick_35">
     <g id="line2d_45">
      <g>
       <use xlink:href="#m9f2bfe3dcd" x="398.733407" y="314.521875" style="stroke: #000000; stroke-width: 0.6"/>
      </g>
     </g>
    </g>
    <g id="xtick_36">
     <g id="line2d_46">
      <g>
       <use xlink:href="#m9f2bfe3dcd" x="408.947677" y="314.521875" style="stroke: #000000; stroke-width: 0.6"/>
      </g>
     </g>
    </g>
    <g id="xtick_37">
     <g id="line2d_47">
      <g>
       <use xlink:href="#m9f2bfe3dcd" x="419.161947" y="314.521875" style="stroke: #000000; stroke-width: 0.6"/>
      </g>
     </g>
    </g>
    <g id="xtick_38">
     <g id="line2d_48">
      <g>
       <use xlink:href="#m9f2bfe3dcd" x="439.590487" y="314.521875" style="stroke: #000000; stroke-width: 0.6"/>
      </g>
     </g>
    </g>
   </g>
   <g id="matplotlib.axis_2">
    <g id="ytick_1">
     <g id="line2d_49">
      <path d="M 61.6625 306.173196 
L 446.4 306.173196 
" clip-path="url(#p61cfb78104)" style="fill: none; stroke-dasharray: 2.96,1.28; stroke-dashoffset: 0; stroke: #b0b0b0; stroke-width: 0.8"/>
     </g>
     <g id="line2d_50">
      <defs>
       <path id="m195e270f7e" d="M 0 0 
L -3.5 0 
" style="stroke: #000000; stroke-width: 0.8"/>
      </defs>
      <g>
       <use xlink:href="#m195e270f7e" x="61.6625" y="306.173196" style="stroke: #000000; stroke-width: 0.8"/>
      </g>
     </g>
     <g id="text_11">
      <!-- −2.0% -->
      <g transform="translate(20.878125 309.972415) scale(0.1 -0.1)">
       <defs>
        <path id="DejaVuSerif-2212" d="M 678 2259 
L 4684 2259 
L 4684 1753 
L 678 1753 
L 678 2259 
z
" transform="scale(0.015625)"/>
        <path id="DejaVuSerif-2e" d="M 603 325 
Q 603 500 722 622 
Q 841 744 1019 744 
Q 1191 744 1312 622 
Q 1434 500 1434 325 
Q 1434 153 1312 31 
Q 1191 -91 1019 -91 
Q 841 -91 722 29 
Q 603 150 603 325 
z
" transform="scale(0.015625)"/>
        <path id="DejaVuSerif-25" d="M 1434 4459 
Q 1159 4459 1004 4200 
Q 850 3941 850 3475 
Q 850 3016 1008 2753 
Q 1166 2491 1434 2491 
Q 1700 2491 1854 2752 
Q 2009 3013 2009 3475 
Q 2009 3938 1854 4198 
Q 1700 4459 1434 4459 
z
M 4653 2169 
Q 4381 2169 4226 1906 
Q 4072 1644 4072 1178 
Q 4072 719 4228 458 
Q 4384 197 4653 197 
Q 4922 197 5075 458 
Q 5228 719 5228 1178 
Q 5228 1641 5073 1905 
Q 4919 2169 4653 2169 
z
M 4653 2450 
Q 5147 2450 5437 2106 
Q 5728 1763 5728 1178 
Q 5728 594 5436 251 
Q 5144 -91 4653 -91 
Q 4153 -91 3862 251 
Q 3572 594 3572 1178 
Q 3572 1766 3864 2108 
Q 4156 2450 4653 2450 
z
M 4263 4750 
L 4738 4750 
L 1819 -91 
L 1344 -91 
L 4263 4750 
z
M 1428 4750 
Q 1922 4750 2215 4408 
Q 2509 4066 2509 3481 
Q 2509 2891 2217 2550 
Q 1925 2209 1428 2209 
Q 931 2209 642 2551 
Q 353 2894 353 3481 
Q 353 4063 643 4406 
Q 934 4750 1428 4750 
z
" transform="scale(0.015625)"/>
       </defs>
       <use xlink:href="#DejaVuSerif-2212"/>
       <use xlink:href="#DejaVuSerif-32" transform="translate(83.789062 0)"/>
       <use xlink:href="#DejaVuSerif-2e" transform="translate(147.412109 0)"/>
       <use xlink:href="#DejaVuSerif-30" transform="translate(179.199219 0)"/>
       <use xlink:href="#DejaVuSerif-25" transform="translate(242.822266 0)"/>
      </g>
     </g>
    </g>
    <g id="ytick_2">
     <g id="line2d_51">
      <path d="M 61.6625 272.778482 
L 446.4 272.778482 
" clip-path="url(#p61cfb78104)" style="fill: none; stroke-dasharray: 2.96,1.28; stroke-dashoffset: 0; stroke: #b0b0b0; stroke-width: 0.8"/>
     </g>
     <g id="line2d_52">
      <g>
       <use xlink:href="#m195e270f7e" x="61.6625" y="272.778482" style="stroke: #000000; stroke-width: 0.8"/>
      </g>
     </g>
     <g id="text_12">
      <!-- 0.0% -->
      <g transform="translate(29.257813 276.577701) scale(0.1 -0.1)">
       <use xlink:href="#DejaVuSerif-30"/>
       <use xlink:href="#DejaVuSerif-2e" transform="translate(63.623047 0)"/>
       <use xlink:href="#DejaVuSerif-30" transform="translate(95.410156 0)"/>
       <use xlink:href="#DejaVuSerif-25" transform="translate(159.033203 0)"/>
      </g>
     </g>
    </g>
    <g id="ytick_3">
     <g id="line2d_53">
      <path d="M 61.6625 239.383768 
L 446.4 239.383768 
" clip-path="url(#p61cfb78104)" style="fill: none; stroke-dasharray: 2.96,1.28; stroke-dashoffset: 0; stroke: #b0b0b0; stroke-width: 0.8"/>
     </g>
     <g id="line2d_54">
      <g>
       <use xlink:href="#m195e270f7e" x="61.6625" y="239.383768" style="stroke: #000000; stroke-width: 0.8"/>
      </g>
     </g>
     <g id="text_13">
      <!-- 2.0% -->
      <g transform="translate(29.257813 243.182987) scale(0.1 -0.1)">
       <use xlink:href="#DejaVuSerif-32"/>
       <use xlink:href="#DejaVuSerif-2e" transform="translate(63.623047 0)"/>
       <use xlink:href="#DejaVuSerif-30" transform="translate(95.410156 0)"/>
       <use xlink:href="#DejaVuSerif-25" transform="translate(159.033203 0)"/>
      </g>
     </g>
    </g>
    <g id="ytick_4">
     <g id="line2d_55">
      <path d="M 61.6625 205.989054 
L 446.4 205.989054 
" clip-path="url(#p61cfb78104)" style="fill: none; stroke-dasharray: 2.96,1.28; stroke-dashoffset: 0; stroke: #b0b0b0; stroke-width: 0.8"/>
     </g>
     <g id="line2d_56">
      <g>
       <use xlink:href="#m195e270f7e" x="61.6625" y="205.989054" style="stroke: #000000; stroke-width: 0.8"/>
      </g>
     </g>
     <g id="text_14">
      <!-- 4.0% -->
      <g transform="translate(29.257813 209.788272) scale(0.1 -0.1)">
       <use xlink:href="#DejaVuSerif-34"/>
       <use xlink:href="#DejaVuSerif-2e" transform="translate(63.623047 0)"/>
       <use xlink:href="#DejaVuSerif-30" transform="translate(95.410156 0)"/>
       <use xlink:href="#DejaVuSerif-25" transform="translate(159.033203 0)"/>
      </g>
     </g>
    </g>
    <g id="ytick_5">
     <g id="line2d_57">
      <path d="M 61.6625 172.594339 
L 446.4 172.594339 
" clip-path="url(#p61cfb78104)" style="fill: none; stroke-dasharray: 2.96,1.28; stroke-dashoffset: 0; stroke: #b0b0b0; stroke-width: 0.8"/>
     </g>
     <g id="line2d_58">
      <g>
       <use xlink:href="#m195e270f7e" x="61.6625" y="172.594339" style="stroke: #000000; stroke-width: 0.8"/>
      </g>
     </g>
     <g id="text_15">
      <!-- 6.0% -->
      <g transform="translate(29.257813 176.393558) scale(0.1 -0.1)">
       <use xlink:href="#DejaVuSerif-36"/>
       <use xlink:href="#DejaVuSerif-2e" transform="translate(63.623047 0)"/>
       <use xlink:href="#DejaVuSerif-30" transform="translate(95.410156 0)"/>
       <use xlink:href="#DejaVuSerif-25" transform="translate(159.033203 0)"/>
      </g>
     </g>
    </g>
    <g id="ytick_6">
     <g id="line2d_59">
      <path d="M 61.6625 139.199625 
L 446.4 139.199625 
" clip-path="url(#p61cfb78104)" style="fill: none; stroke-dasharray: 2.96,1.28; stroke-dashoffset: 0; stroke: #b0b0b0; stroke-width: 0.8"/>
     </g>
     <g id="line2d_60">
      <g>
       <use xlink:href="#m195e270f7e" x="61.6625" y="139.199625" style="stroke: #000000; stroke-width: 0.8"/>
      </g>
     </g>
     <g id="text_16">
      <!-- 8.0% -->
      <g transform="translate(29.257813 142.998844) scale(0.1 -0.1)">
       <use xlink:href="#DejaVuSerif-38"/>
       <use xlink:href="#DejaVuSerif-2e" transform="translate(63.623047 0)"/>
       <use xlink:href="#DejaVuSerif-30" transform="translate(95.410156 0)"/>
       <use xlink:href="#DejaVuSerif-25" transform="translate(159.033203 0)"/>
      </g>
     </g>
    </g>
    <g id="ytick_7">
     <g id="line2d_61">
      <path d="M 61.6625 105.804911 
L 446.4 105.804911 
" clip-path="url(#p61cfb78104)" style="fill: none; stroke-dasharray: 2.96,1.28; stroke-dashoffset: 0; stroke: #b0b0b0; stroke-width: 0.8"/>
     </g>
     <g id="line2d_62">
      <g>
       <use xlink:href="#m195e270f7e" x="61.6625" y="105.804911" style="stroke: #000000; stroke-width: 0.8"/>
      </g>
     </g>
     <g id="text_17">
      <!-- 10.0% -->
      <g transform="translate(22.895313 109.604129) scale(0.1 -0.1)">
       <use xlink:href="#DejaVuSerif-31"/>
       <use xlink:href="#DejaVuSerif-30" transform="translate(63.623047 0)"/>
       <use xlink:href="#DejaVuSerif-2e" transform="translate(127.246094 0)"/>
       <use xlink:href="#DejaVuSerif-30" transform="translate(159.033203 0)"/>
       <use xlink:href="#DejaVuSerif-25" transform="translate(222.65625 0)"/>
      </g>
     </g>
    </g>
    <g id="ytick_8">
     <g id="line2d_63">
      <path d="M 61.6625 72.410196 
L 446.4 72.410196 
" clip-path="url(#p61cfb78104)" style="fill: none; stroke-dasharray: 2.96,1.28; stroke-dashoffset: 0; stroke: #b0b0b0; stroke-width: 0.8"/>
     </g>
     <g id="line2d_64">
      <g>
       <use xlink:href="#m195e270f7e" x="61.6625" y="72.410196" style="stroke: #000000; stroke-width: 0.8"/>
      </g>
     </g>
     <g id="text_18">
      <!-- 12.0% -->
      <g transform="translate(22.895313 76.209415) scale(0.1 -0.1)">
       <use xlink:href="#DejaVuSerif-31"/>
       <use xlink:href="#DejaVuSerif-32" transform="translate(63.623047 0)"/>
       <use xlink:href="#DejaVuSerif-2e" transform="translate(127.246094 0)"/>
       <use xlink:href="#DejaVuSerif-30" transform="translate(159.033203 0)"/>
       <use xlink:href="#DejaVuSerif-25" transform="translate(222.65625 0)"/>
      </g>
     </g>
    </g>
    <g id="ytick_9">
     <g id="line2d_65">
      <path d="M 61.6625 39.015482 
L 446.4 39.015482 
" clip-path="url(#p61cfb78104)" style="fill: none; stroke-dasharray: 2.96,1.28; stroke-dashoffset: 0; stroke: #b0b0b0; stroke-width: 0.8"/>
     </g>
     <g id="line2d_66">
      <g>
       <use xlink:href="#m195e270f7e" x="61.6625" y="39.015482" style="stroke: #000000; stroke-width: 0.8"/>
      </g>
     </g>
     <g id="text_19">
      <!-- 14.0% -->
      <g transform="translate(22.895313 42.814701) scale(0.1 -0.1)">
       <use xlink:href="#DejaVuSerif-31"/>
       <use xlink:href="#DejaVuSerif-34" transform="translate(63.623047 0)"/>
       <use xlink:href="#DejaVuSerif-2e" transform="translate(127.246094 0)"/>
       <use xlink:href="#DejaVuSerif-30" transform="translate(159.033203 0)"/>
       <use xlink:href="#DejaVuSerif-25" transform="translate(222.65625 0)"/>
      </g>
     </g>
    </g>
    <g id="text_20">
     <!-- CPI [%] -->
     <g transform="translate(14.798438 187.82625) rotate(-90) scale(0.1 -0.1)">
      <defs>
       <path id="DejaVuSerif-43" d="M 4513 1234 
Q 4306 581 3820 245 
Q 3334 -91 2591 -91 
Q 2134 -91 1743 65 
Q 1353 222 1050 525 
Q 700 875 529 1320 
Q 359 1766 359 2328 
Q 359 3416 987 4083 
Q 1616 4750 2644 4750 
Q 3025 4750 3456 4650 
Q 3888 4550 4384 4347 
L 4384 3272 
L 4031 3272 
Q 3916 3859 3567 4137 
Q 3219 4416 2591 4416 
Q 1844 4416 1459 3886 
Q 1075 3356 1075 2328 
Q 1075 1303 1459 773 
Q 1844 244 2591 244 
Q 3113 244 3450 492 
Q 3788 741 3938 1234 
L 4513 1234 
z
" transform="scale(0.015625)"/>
       <path id="DejaVuSerif-50" d="M 1581 2375 
L 2406 2375 
Q 2872 2375 3115 2626 
Q 3359 2878 3359 3353 
Q 3359 3831 3115 4081 
Q 2872 4331 2406 4331 
L 1581 4331 
L 1581 2375 
z
M 353 0 
L 353 331 
L 947 331 
L 947 4331 
L 353 4331 
L 353 4666 
L 2559 4666 
Q 3259 4666 3668 4311 
Q 4078 3956 4078 3353 
Q 4078 2753 3668 2397 
Q 3259 2041 2559 2041 
L 1581 2041 
L 1581 331 
L 2303 331 
L 2303 0 
L 353 0 
z
" transform="scale(0.015625)"/>
       <path id="DejaVuSerif-49" d="M 1581 331 
L 2175 331 
L 2175 0 
L 353 0 
L 353 331 
L 947 331 
L 947 4331 
L 353 4331 
L 353 4666 
L 2175 4666 
L 2175 4331 
L 1581 4331 
L 1581 331 
z
" transform="scale(0.015625)"/>
       <path id="DejaVuSerif-20" transform="scale(0.015625)"/>
       <path id="DejaVuSerif-5b" d="M 550 4863 
L 2003 4863 
L 2003 4531 
L 1147 4531 
L 1147 -513 
L 2003 -513 
L 2003 -844 
L 550 -844 
L 550 4863 
z
" transform="scale(0.015625)"/>
       <path id="DejaVuSerif-5d" d="M 1947 4863 
L 1947 -844 
L 494 -844 
L 494 -513 
L 1350 -513 
L 1350 4531 
L 494 4531 
L 494 4863 
L 1947 4863 
z
" transform="scale(0.015625)"/>
      </defs>
      <use xlink:href="#DejaVuSerif-43"/>
      <use xlink:href="#DejaVuSerif-50" transform="translate(76.513672 0)"/>
      <use xlink:href="#DejaVuSerif-49" transform="translate(143.798828 0)"/>
      <use xlink:href="#DejaVuSerif-20" transform="translate(183.300781 0)"/>
      <use xlink:href="#DejaVuSerif-5b" transform="translate(215.087891 0)"/>
      <use xlink:href="#DejaVuSerif-25" transform="translate(254.101562 0)"/>
      <use xlink:href="#DejaVuSerif-5d" transform="translate(349.121094 0)"/>
     </g>
    </g>
   </g>
   <g id="line2d_67">
    <path d="M 58.257743 261.873081 
L 61.6625 276.617722 
L 65.067257 274.231678 
L 68.472013 273.146346 
L 71.87677 274.515525 
L 75.281527 272.19352 
L 78.686283 269.780108 
L 82.09104 269.010121 
L 85.495796 268.749346 
L 88.900553 272.630828 
L 92.30531 270.647623 
L 95.710066 265.493121 
L 99.114823 262.113467 
L 102.51958 252.115461 
L 105.924336 258.631186 
L 109.329093 257.89085 
L 112.73385 253.198731 
L 116.138606 254.770775 
L 119.543363 254.757249 
L 122.948119 258.279109 
L 126.352876 255.157496 
L 129.757633 246.92021 
L 133.162389 244.627991 
L 136.567146 244.654565 
L 139.971903 238.53556 
L 143.376659 230.861548 
L 146.781416 225.852869 
L 150.186173 232.016957 
L 153.590929 236.441302 
L 156.995686 241.782457 
L 160.400442 245.385369 
L 163.805199 243.973749 
L 167.209956 240.583948 
L 170.614712 236.368806 
L 174.019469 239.037168 
L 177.424226 236.503576 
L 180.828982 237.214268 
L 184.233739 236.857143 
L 187.638496 234.984533 
L 191.043252 233.857781 
L 194.448009 231.519374 
L 197.852765 226.327744 
L 201.257522 225.899806 
L 204.662279 225.122141 
L 208.067035 228.648639 
L 211.471792 233.839325 
L 214.876549 231.168126 
L 218.281305 236.92377 
L 221.686062 239.344013 
L 225.090819 247.939671 
L 228.495575 247.417509 
L 231.900332 241.334247 
L 235.305088 239.374025 
L 238.709845 242.791522 
L 242.114602 244.873944 
L 245.519358 242.283576 
L 248.924115 243.764466 
L 252.328872 244.651822 
L 255.733628 243.825704 
L 259.138385 237.842762 
L 262.543142 234.048504 
L 265.947898 229.369228 
L 269.352655 233.684681 
L 272.757412 247.831963 
L 276.162168 267.55142 
L 279.566925 269.469044 
L 282.971681 260.812216 
L 286.376438 256.133475 
L 289.781195 251.388001 
L 293.185951 249.552076 
L 296.590708 252.234282 
L 299.995465 253.146644 
L 303.400221 250.730972 
L 306.804978 249.838923 
L 310.209735 244.896955 
L 313.614491 228.232959 
L 317.019248 203.767017 
L 320.424004 190.656587 
L 323.828761 184.355413 
L 327.233518 185.198016 
L 330.638274 186.753443 
L 334.043031 183.427324 
L 337.447788 168.669753 
L 340.852544 157.533817 
L 344.257301 152.98596 
L 347.662058 146.566403 
L 351.066814 140.246904 
L 354.471571 129.645314 
L 357.876327 135.33 
L 361.281084 130.213588 
L 364.685841 122.846883 
L 368.090597 131.475816 
L 371.495354 135.483141 
L 374.900111 135.991948 
L 378.304867 143.226794 
L 381.709624 153.845604 
L 385.114381 165.838582 
L 388.519137 167.131323 
L 391.923894 173.298621 
L 395.32865 190.665566 
L 398.733407 190.125231 
L 402.138164 203.787486 
L 405.54292 221.507292 
L 408.947677 217.881758 
L 412.352434 210.62249 
L 415.75719 211.211876 
L 419.161947 218.490934 
L 422.566704 220.45988 
L 425.97146 217.41155 
L 429.376217 221.211316 
L 432.780973 220.063688 
L 436.18573 214.557554 
L 439.590487 216.662086 
L 442.995243 218.607604 
L 446.4 223.183024 
L 449.804757 223.66361 
" clip-path="url(#p61cfb78104)" style="fill: none; stroke: #1f77b4; stroke-width: 1.5; stroke-linecap: square"/>
   </g>
   <g id="line2d_68">
    <path d="M 58.257743 275.618453 
L 61.6625 282.746549 
L 65.067257 277.66272 
L 68.472013 273.94648 
L 71.87677 269.279734 
L 75.281527 262.771076 
L 78.686283 264.44813 
L 82.09104 263.722971 
L 85.495796 265.40806 
L 88.900553 269.443013 
L 92.30531 266.270418 
L 95.710066 270.605218 
L 99.114823 268.594939 
L 102.51958 267.339604 
L 105.924336 274.805475 
L 109.329093 273.446376 
L 112.73385 277.101207 
L 116.138606 274.768039 
L 119.543363 271.949582 
L 122.948119 269.94305 
L 126.352876 269.109466 
L 129.757633 266.120844 
L 133.162389 264.300979 
L 136.567146 262.928026 
L 139.971903 254.416898 
L 143.376659 243.978252 
L 146.781416 240.138049 
L 150.186173 247.221303 
L 153.590929 241.107345 
L 156.995686 249.705288 
L 160.400442 251.072084 
L 163.805199 250.466497 
L 167.209956 246.985275 
L 170.614712 246.751029 
L 174.019469 249.955232 
L 177.424226 247.217916 
L 180.828982 250.323814 
L 184.233739 251.128209 
L 187.638496 254.20006 
L 191.043252 249.416331 
L 194.448009 252.330068 
L 197.852765 240.195877 
L 201.257522 239.900653 
L 204.662279 236.136968 
L 208.067035 238.036705 
L 211.471792 238.009325 
L 214.876549 234.600042 
L 218.281305 240.737343 
L 221.686062 247.36344 
L 225.090819 249.596842 
L 228.495575 247.842362 
L 231.900332 249.414189 
L 235.305088 244.012226 
L 238.709845 252.382557 
L 242.114602 251.604007 
L 245.519358 255.735441 
L 248.924115 255.922194 
L 252.328872 258.866683 
L 255.733628 260.655831 
L 259.138385 256.738754 
L 262.543142 250.63302 
L 265.947898 250.076433 
L 269.352655 252.411909 
L 272.757412 260.297468 
L 276.162168 267.535734 
L 279.566925 271.350544 
L 282.971681 268.343172 
L 286.376438 266.252968 
L 289.781195 275.639251 
L 293.185951 278.011769 
L 296.590708 277.370889 
L 299.995465 277.544616 
L 303.400221 277.212951 
L 306.804978 257.58016 
L 310.209735 257.128702 
L 313.614491 250.542869 
L 317.019248 245.69655 
L 320.424004 239.646918 
L 323.828761 241.023645 
L 327.233518 236.631526 
L 330.638274 223.425119 
L 334.043031 216.622165 
L 337.447788 205.131557 
L 340.852544 191.522259 
L 344.257301 189.88718 
L 347.662058 187.484349 
L 351.066814 174.689024 
L 354.471571 148.484816 
L 357.876327 148.569096 
L 361.281084 138.322944 
L 364.685841 128.44014 
L 368.090597 124.736858 
L 371.495354 120.154927 
L 374.900111 107.020775 
L 378.304867 95.442507 
L 381.709624 104.893317 
L 385.114381 119.223916 
L 388.519137 128.430056 
L 391.923894 130.819566 
L 395.32865 157.825508 
L 398.733407 156.588898 
L 402.138164 170.928488 
L 405.54292 180.594116 
L 408.947677 184.117426 
L 412.352434 185.218306 
L 415.75719 200.394333 
L 419.161947 224.354353 
L 422.566704 232.743479 
L 425.97146 223.87235 
L 429.376217 226.547336 
L 432.780973 229.671646 
L 436.18573 232.242966 
L 439.590487 233.177863 
L 442.995243 229.933457 
L 446.4 230.72067 
L 449.804757 229.735684 
" clip-path="url(#p61cfb78104)" style="fill: none; stroke: #ff7f0e; stroke-width: 1.5; stroke-linecap: square"/>
   </g>
   <g id="line2d_69">
    <path d="M 58.257743 264.396275 
L 61.6625 267.718677 
L 65.067257 272.778482 
L 68.472013 272.778482 
L 71.87677 276.114617 
L 75.281527 271.108746 
L 78.686283 272.778482 
L 82.09104 271.107075 
L 85.495796 271.112079 
L 88.900553 274.443224 
L 92.30531 274.441566 
L 95.710066 269.442347 
L 99.114823 269.442347 
L 102.51958 269.41547 
L 105.924336 267.744103 
L 109.329093 264.404682 
L 112.73385 267.764261 
L 116.138606 267.774279 
L 119.543363 266.112871 
L 122.948119 262.760068 
L 126.352876 262.790033 
L 129.757633 257.780856 
L 133.162389 257.795809 
L 136.567146 254.466326 
L 139.971903 246.142618 
L 143.376659 240.894082 
L 146.781416 234.297599 
L 150.186173 234.451215 
L 153.590929 227.785604 
L 156.995686 224.549064 
L 160.400442 227.964502 
L 163.805199 229.624279 
L 167.209956 224.78806 
L 170.614712 223.231428 
L 174.019469 223.280388 
L 177.424226 220.084653 
L 180.828982 223.620414 
L 184.233739 223.378017 
L 187.638496 226.987493 
L 191.043252 232.053221 
L 194.448009 232.211531 
L 197.852765 232.368615 
L 201.257522 232.368615 
L 204.662279 230.711497 
L 208.067035 229.34605 
L 211.471792 232.679161 
L 214.876549 232.717644 
L 218.281305 234.467146 
L 221.686062 237.760193 
L 225.090819 242.390572 
L 228.495575 242.535414 
L 231.900332 240.973992 
L 235.305088 237.926314 
L 238.709845 239.63628 
L 242.114602 239.63628 
L 245.519358 239.63628 
L 248.924115 242.98977 
L 252.328872 243.017714 
L 255.733628 247.740271 
L 259.138385 249.370972 
L 262.543142 250.951871 
L 265.947898 242.933723 
L 269.352655 244.636869 
L 272.757412 247.810471 
L 276.162168 258.812291 
L 279.566925 263.493575 
L 282.971681 261.946091 
L 286.376438 254.208669 
L 289.781195 269.697789 
L 293.185951 263.544921 
L 296.590708 260.444331 
L 299.995465 266.622774 
L 303.400221 262.005994 
L 306.804978 260.432932 
L 310.209735 265.090933 
L 313.614491 260.478403 
L 317.019248 248.155651 
L 320.424004 237.383163 
L 323.828761 231.265716 
L 327.233518 239.108284 
L 330.638274 218.965637 
L 334.043031 222.273186 
L 337.447788 203.907623 
L 340.852544 186.915121 
L 344.257301 182.563824 
L 347.662058 182.398292 
L 351.066814 170.237425 
L 354.471571 155.25595 
L 357.876327 122.638759 
L 361.281084 122.080313 
L 364.685841 115.256245 
L 368.090597 104.754762 
L 371.495354 108.932872 
L 374.900111 103.428063 
L 378.304867 87.578922 
L 381.709624 94.867777 
L 385.114381 97.245883 
L 388.519137 105.65959 
L 391.923894 98.306961 
L 395.32865 104.521595 
L 398.733407 128.068054 
L 402.138164 127.644169 
L 405.54292 139.802814 
L 408.947677 158.282319 
L 412.352434 161.553195 
L 415.75719 162.182094 
L 419.161947 196.03944 
L 422.566704 206.885202 
L 425.97146 207.144217 
L 429.376217 205.407816 
L 432.780973 215.33644 
L 436.18573 219.668192 
L 439.590487 233.083845 
L 442.995243 239.714409 
L 446.4 239.764696 
L 449.804757 235.786629 
" clip-path="url(#p61cfb78104)" style="fill: none; stroke: #2ca02c; stroke-width: 1.5; stroke-linecap: square"/>
   </g>
   <g id="line2d_70">
    <path d="M 58.257743 278.261395 
L 61.6625 280.880641 
L 65.067257 286.798108 
L 68.472013 287.384136 
L 71.87677 291.523059 
L 75.281527 292.513095 
L 78.686283 290.099604 
L 82.09104 294.082953 
L 85.495796 296.194753 
L 88.900553 296.884777 
L 92.30531 295.485055 
L 95.710066 296.02978 
L 99.114823 294.62598 
L 102.51958 293.927889 
L 105.924336 286.612576 
L 109.329093 287.150903 
L 112.73385 278.654416 
L 116.138606 280.124171 
L 119.543363 279.024861 
L 122.948119 276.166574 
L 126.352876 275.168318 
L 129.757633 275.808107 
L 133.162389 276.330715 
L 136.567146 278.428128 
L 139.971903 272.89014 
L 143.376659 266.95323 
L 146.781416 261.990497 
L 150.186173 263.296009 
L 153.590929 265.468601 
L 156.995686 264.77355 
L 160.400442 269.484405 
L 163.805199 267.280051 
L 167.209956 265.052078 
L 170.614712 261.892261 
L 174.019469 261.743443 
L 177.424226 259.635803 
L 180.828982 258.775241 
L 184.233739 260.418984 
L 187.638496 262.291051 
L 191.043252 259.497473 
L 194.448009 259.368786 
L 197.852765 256.09467 
L 201.257522 253.634779 
L 204.662279 252.235546 
L 208.067035 253.05835 
L 211.471792 256.254983 
L 214.876549 254.302309 
L 218.281305 257.383272 
L 221.686062 261.231468 
L 225.090819 263.42674 
L 228.495575 263.117355 
L 231.900332 260.606956 
L 235.305088 260.954701 
L 238.709845 262.187136 
L 242.114602 262.753998 
L 245.519358 267.573403 
L 248.924115 267.469956 
L 252.328872 270.303472 
L 255.733628 277.005054 
L 259.138385 274.968826 
L 262.543142 270.17807 
L 265.947898 269.401154 
L 269.352655 273.816633 
L 272.757412 281.379808 
L 276.162168 290.529278 
L 279.566925 294.895546 
L 282.971681 294.06367 
L 286.376438 288.137144 
L 289.781195 287.241175 
L 293.185951 286.134348 
L 296.590708 282.300459 
L 299.995465 284.212286 
L 303.400221 286.366024 
L 306.804978 281.865904 
L 310.209735 281.195214 
L 313.614491 276.872027 
L 317.019248 267.304644 
L 320.424004 263.578685 
L 323.828761 262.685156 
L 327.233518 261.44483 
L 330.638274 258.057798 
L 334.043031 257.042526 
L 337.447788 252.043442 
L 340.852544 247.184535 
L 344.257301 247.214242 
L 347.662058 245.249247 
L 351.066814 236.86534 
L 354.471571 232.935692 
L 357.876327 230.231271 
L 361.281084 223.647141 
L 364.685841 216.259226 
L 368.090597 215.449449 
L 371.495354 215.136759 
L 374.900111 218.47157 
L 378.304867 222.753391 
L 381.709624 223.350718 
L 385.114381 225.350922 
L 388.519137 217.968723 
L 391.923894 216.477089 
L 395.32865 223.600664 
L 398.733407 229.944143 
L 402.138164 236.732585 
L 405.54292 244.2125 
L 408.947677 245.977132 
L 412.352434 246.826514 
L 415.75719 245.148629 
L 419.161947 244.501333 
L 422.566704 248.672769 
L 425.97146 244.146497 
L 429.376217 251.428298 
L 432.780973 253.26864 
L 436.18573 255.330228 
L 439.590487 249.94017 
L 442.995243 249.568826 
L 446.4 250.602984 
L 449.804757 251.229089 
" clip-path="url(#p61cfb78104)" style="fill: none; stroke: #d62728; stroke-width: 1.5; stroke-linecap: square"/>
   </g>
   <g id="line2d_71">
    <path d="M 58.257743 232.607016 
L 61.6625 232.564952 
L 65.067257 236.061781 
L 68.472013 234.393753 
L 71.87677 260.815176 
L 75.281527 262.566031 
L 78.686283 265.963234 
L 82.09104 269.374332 
L 85.495796 271.07987 
L 88.900553 272.778482 
L 92.30531 267.677457 
L 95.710066 269.367378 
L 99.114823 269.367378 
L 102.51958 274.485778 
L 105.924336 269.356893 
L 109.329093 272.778482 
L 112.73385 277.86914 
L 116.138606 281.237123 
L 119.543363 277.86914 
L 122.948119 279.572931 
L 126.352876 281.262912 
L 129.757633 281.254298 
L 133.162389 271.083319 
L 136.567146 264.268106 
L 139.971903 267.672257 
L 143.376659 264.233264 
L 146.781416 267.656593 
L 150.186173 269.367378 
L 153.590929 265.970182 
L 156.995686 265.977115 
L 160.400442 265.970182 
L 163.805199 265.956273 
L 167.209956 262.545168 
L 170.614712 259.147987 
L 174.019469 269.391594 
L 177.424226 264.311262 
L 180.828982 255.809623 
L 184.233739 250.674038 
L 187.638496 248.94943 
L 191.043252 254.055656 
L 194.448009 262.607503 
L 197.852765 260.924375 
L 201.257522 260.91234 
L 204.662279 257.490973 
L 208.067035 250.741361 
L 211.471792 254.188307 
L 214.876549 249.118259 
L 218.281305 257.614384 
L 221.686062 267.739038 
L 225.090819 269.422229 
L 228.495575 269.422229 
L 231.900332 264.362476 
L 235.305088 257.614384 
L 238.709845 261.007938 
L 242.114602 262.679274 
L 245.519358 262.679274 
L 248.924115 269.432318 
L 252.328872 269.435668 
L 255.733628 269.445676 
L 259.138385 264.429804 
L 262.543142 259.380402 
L 265.947898 259.380402 
L 269.352655 262.729922 
L 272.757412 262.729922 
L 276.162168 269.439011 
L 279.566925 271.108746 
L 282.971681 271.1054 
L 286.376438 269.432318 
L 289.781195 271.108746 
L 293.185951 276.114617 
L 296.590708 282.756982 
L 299.995465 289.392768 
L 303.400221 292.715625 
L 306.804978 284.408482 
L 310.209735 281.10219 
L 313.614491 279.437448 
L 317.019248 291.108914 
L 320.424004 284.454956 
L 323.828761 279.464111 
L 327.233518 277.787689 
L 330.638274 279.450753 
L 334.043031 269.435668 
L 337.447788 271.1054 
L 340.852544 262.709724 
L 344.257301 259.326432 
L 347.662058 264.413073 
L 351.066814 257.720745 
L 354.471571 252.721597 
L 357.876327 232.340887 
L 361.281084 232.462932 
L 364.685841 234.181576 
L 368.090597 229.234722 
L 371.495354 222.535682 
L 374.900111 222.736453 
L 378.304867 209.265012 
L 381.709624 209.391912 
L 385.114381 206.055776 
L 388.519137 199.529857 
L 391.923894 218.060231 
L 395.32865 218.276723 
L 398.733407 213.556329 
L 402.138164 218.651489 
L 405.54292 217.011278 
L 408.947677 217.283845 
L 412.352434 220.751663 
L 415.75719 222.573044 
L 419.161947 218.033049 
L 422.566704 224.566671 
L 425.97146 229.471216 
L 429.376217 237.6933 
L 432.780973 226.218544 
L 436.18573 227.996298 
L 439.590487 231.471985 
L 442.995243 225.117139 
L 446.4 225.162445 
L 449.804757 226.967379 
" clip-path="url(#p61cfb78104)" style="fill: none; stroke: #9467bd; stroke-width: 1.5; stroke-linecap: square"/>
   </g>
   <g id="patch_38">
    <path d="M 61.6625 314.521875 
L 61.6625 22.318125 
" style="fill: none; stroke: #000000; stroke-width: 0.8; stroke-linejoin: miter; stroke-linecap: square"/>
   </g>
   <g id="patch_39">
    <path d="M 446.4 314.521875 
L 446.4 22.318125 
" style="fill: none; stroke: #000000; stroke-width: 0.8; stroke-linejoin: miter; stroke-linecap: square"/>
   </g>
   <g id="patch_40">
    <path d="M 61.6625 314.521875 
L 446.4 314.521875 
" style="fill: none; stroke: #000000; stroke-width: 0.8; stroke-linejoin: miter; stroke-linecap: square"/>
   </g>
   <g id="patch_41">
    <path d="M 61.6625 22.318125 
L 446.4 22.318125 
" style="fill: none; stroke: #000000; stroke-width: 0.8; stroke-linejoin: miter; stroke-linecap: square"/>
   </g>
   <g id="text_21">
    <!-- Annual inflation rate (monthly, YoY) -->
    <g transform="translate(145.711563 16.318125) scale(0.12 -0.12)">
     <defs>
      <path id="DejaVuSerif-41" d="M 1281 1691 
L 2994 1691 
L 2138 3909 
L 1281 1691 
z
M -38 0 
L -38 331 
L 372 331 
L 2034 4666 
L 2559 4666 
L 4225 331 
L 4684 331 
L 4684 0 
L 2988 0 
L 2988 331 
L 3506 331 
L 3116 1356 
L 1153 1356 
L 763 331 
L 1275 331 
L 1275 0 
L -38 0 
z
" transform="scale(0.015625)"/>
      <path id="DejaVuSerif-6e" d="M 263 0 
L 263 331 
L 781 331 
L 781 2988 
L 231 2988 
L 231 3322 
L 1356 3322 
L 1356 2731 
Q 1516 3069 1770 3241 
Q 2025 3413 2363 3413 
Q 2913 3413 3172 3097 
Q 3431 2781 3431 2113 
L 3431 331 
L 3944 331 
L 3944 0 
L 2356 0 
L 2356 331 
L 2853 331 
L 2853 1931 
Q 2853 2541 2703 2767 
Q 2553 2994 2175 2994 
Q 1775 2994 1565 2701 
Q 1356 2409 1356 1850 
L 1356 331 
L 1856 331 
L 1856 0 
L 263 0 
z
" transform="scale(0.015625)"/>
      <path id="DejaVuSerif-75" d="M 2266 3322 
L 3341 3322 
L 3341 331 
L 3884 331 
L 3884 0 
L 2766 0 
L 2766 588 
Q 2606 256 2353 82 
Q 2100 -91 1766 -91 
Q 1213 -91 952 223 
Q 691 538 691 1209 
L 691 2988 
L 172 2988 
L 172 3322 
L 1269 3322 
L 1269 1388 
Q 1269 781 1417 556 
Q 1566 331 1947 331 
Q 2347 331 2556 625 
Q 2766 919 2766 1478 
L 2766 2988 
L 2266 2988 
L 2266 3322 
z
" transform="scale(0.015625)"/>
      <path id="DejaVuSerif-61" d="M 2547 1044 
L 2547 1747 
L 1806 1747 
Q 1378 1747 1168 1562 
Q 959 1378 959 997 
Q 959 650 1171 447 
Q 1384 244 1747 244 
Q 2106 244 2326 466 
Q 2547 688 2547 1044 
z
M 3122 2075 
L 3122 331 
L 3634 331 
L 3634 0 
L 2547 0 
L 2547 359 
Q 2356 128 2106 18 
Q 1856 -91 1522 -91 
Q 969 -91 644 203 
Q 319 497 319 997 
Q 319 1513 691 1797 
Q 1063 2081 1741 2081 
L 2547 2081 
L 2547 2309 
Q 2547 2688 2317 2895 
Q 2088 3103 1672 3103 
Q 1328 3103 1125 2947 
Q 922 2791 872 2484 
L 575 2484 
L 575 3156 
Q 875 3284 1158 3348 
Q 1441 3413 1709 3413 
Q 2400 3413 2761 3070 
Q 3122 2728 3122 2075 
z
" transform="scale(0.015625)"/>
      <path id="DejaVuSerif-6c" d="M 1313 331 
L 1856 331 
L 1856 0 
L 184 0 
L 184 331 
L 738 331 
L 738 4531 
L 184 4531 
L 184 4863 
L 1313 4863 
L 1313 331 
z
" transform="scale(0.015625)"/>
      <path id="DejaVuSerif-69" d="M 622 4353 
Q 622 4497 726 4603 
Q 831 4709 978 4709 
Q 1122 4709 1226 4603 
Q 1331 4497 1331 4353 
Q 1331 4206 1228 4103 
Q 1125 4000 978 4000 
Q 831 4000 726 4103 
Q 622 4206 622 4353 
z
M 1356 331 
L 1900 331 
L 1900 0 
L 231 0 
L 231 331 
L 781 331 
L 781 2988 
L 231 2988 
L 231 3322 
L 1356 3322 
L 1356 331 
z
" transform="scale(0.015625)"/>
      <path id="DejaVuSerif-66" d="M 2753 4078 
L 2450 4078 
Q 2447 4313 2317 4434 
Q 2188 4556 1941 4556 
Q 1619 4556 1487 4379 
Q 1356 4203 1356 3750 
L 1356 3322 
L 2284 3322 
L 2284 2988 
L 1356 2988 
L 1356 331 
L 2094 331 
L 2094 0 
L 231 0 
L 231 331 
L 781 331 
L 781 2988 
L 231 2988 
L 231 3322 
L 781 3322 
L 781 3738 
Q 781 4294 1070 4578 
Q 1359 4863 1919 4863 
Q 2128 4863 2337 4825 
Q 2547 4788 2753 4709 
L 2753 4078 
z
" transform="scale(0.015625)"/>
      <path id="DejaVuSerif-74" d="M 691 2988 
L 184 2988 
L 184 3322 
L 691 3322 
L 691 4353 
L 1269 4353 
L 1269 3322 
L 2350 3322 
L 2350 2988 
L 1269 2988 
L 1269 878 
Q 1269 456 1350 337 
Q 1431 219 1650 219 
Q 1875 219 1978 351 
Q 2081 484 2088 781 
L 2522 781 
Q 2497 328 2275 118 
Q 2053 -91 1600 -91 
Q 1103 -91 897 129 
Q 691 350 691 878 
L 691 2988 
z
" transform="scale(0.015625)"/>
      <path id="DejaVuSerif-6f" d="M 1925 219 
Q 2388 219 2623 584 
Q 2859 950 2859 1663 
Q 2859 2375 2623 2739 
Q 2388 3103 1925 3103 
Q 1463 3103 1227 2739 
Q 991 2375 991 1663 
Q 991 950 1228 584 
Q 1466 219 1925 219 
z
M 1925 -91 
Q 1200 -91 759 389 
Q 319 869 319 1663 
Q 319 2456 758 2934 
Q 1197 3413 1925 3413 
Q 2653 3413 3092 2934 
Q 3531 2456 3531 1663 
Q 3531 869 3092 389 
Q 2653 -91 1925 -91 
z
" transform="scale(0.015625)"/>
      <path id="DejaVuSerif-72" d="M 3059 3328 
L 3059 2497 
L 2728 2497 
Q 2713 2744 2591 2866 
Q 2469 2988 2234 2988 
Q 1809 2988 1582 2694 
Q 1356 2400 1356 1850 
L 1356 331 
L 2022 331 
L 2022 0 
L 263 0 
L 263 331 
L 781 331 
L 781 2994 
L 231 2994 
L 231 3322 
L 1356 3322 
L 1356 2731 
Q 1525 3078 1790 3245 
Q 2056 3413 2438 3413 
Q 2578 3413 2733 3391 
Q 2888 3369 3059 3328 
z
" transform="scale(0.015625)"/>
      <path id="DejaVuSerif-65" d="M 3469 1600 
L 991 1600 
L 991 1575 
Q 991 903 1244 561 
Q 1497 219 1991 219 
Q 2369 219 2611 417 
Q 2853 616 2950 1006 
L 3413 1006 
Q 3275 459 2904 184 
Q 2534 -91 1931 -91 
Q 1203 -91 761 389 
Q 319 869 319 1663 
Q 319 2450 753 2931 
Q 1188 3413 1894 3413 
Q 2647 3413 3050 2948 
Q 3453 2484 3469 1600 
z
M 2791 1931 
Q 2772 2513 2545 2808 
Q 2319 3103 1894 3103 
Q 1497 3103 1269 2806 
Q 1041 2509 991 1931 
L 2791 1931 
z
" transform="scale(0.015625)"/>
      <path id="DejaVuSerif-28" d="M 2041 -997 
Q 1281 -656 893 83 
Q 506 822 506 1931 
Q 506 3044 893 3783 
Q 1281 4522 2041 4863 
L 2041 4556 
Q 1559 4225 1350 3623 
Q 1141 3022 1141 1931 
Q 1141 844 1350 242 
Q 1559 -359 2041 -691 
L 2041 -997 
z
" transform="scale(0.015625)"/>
      <path id="DejaVuSerif-6d" d="M 3316 2675 
Q 3481 3041 3739 3227 
Q 3997 3413 4341 3413 
Q 4863 3413 5119 3089 
Q 5375 2766 5375 2113 
L 5375 331 
L 5894 331 
L 5894 0 
L 4300 0 
L 4300 331 
L 4800 331 
L 4800 2047 
Q 4800 2556 4650 2772 
Q 4500 2988 4153 2988 
Q 3769 2988 3567 2697 
Q 3366 2406 3366 1850 
L 3366 331 
L 3866 331 
L 3866 0 
L 2291 0 
L 2291 331 
L 2791 331 
L 2791 2069 
Q 2791 2566 2641 2777 
Q 2491 2988 2144 2988 
Q 1759 2988 1557 2697 
Q 1356 2406 1356 1850 
L 1356 331 
L 1856 331 
L 1856 0 
L 263 0 
L 263 331 
L 781 331 
L 781 2994 
L 231 2994 
L 231 3322 
L 1356 3322 
L 1356 2731 
Q 1516 3063 1762 3238 
Q 2009 3413 2322 3413 
Q 2709 3413 2968 3220 
Q 3228 3028 3316 2675 
z
" transform="scale(0.015625)"/>
      <path id="DejaVuSerif-68" d="M 263 0 
L 263 331 
L 781 331 
L 781 4531 
L 231 4531 
L 231 4863 
L 1356 4863 
L 1356 2731 
Q 1516 3069 1770 3241 
Q 2025 3413 2363 3413 
Q 2913 3413 3172 3097 
Q 3431 2781 3431 2113 
L 3431 331 
L 3944 331 
L 3944 0 
L 2356 0 
L 2356 331 
L 2853 331 
L 2853 1931 
Q 2853 2541 2704 2764 
Q 2556 2988 2175 2988 
Q 1775 2988 1565 2697 
Q 1356 2406 1356 1850 
L 1356 331 
L 1856 331 
L 1856 0 
L 263 0 
z
" transform="scale(0.015625)"/>
      <path id="DejaVuSerif-79" d="M 1381 -609 
L 1600 -56 
L 359 2988 
L -19 2988 
L -19 3322 
L 1509 3322 
L 1509 2988 
L 978 2988 
L 1913 703 
L 2847 2988 
L 2350 2988 
L 2350 3322 
L 3597 3322 
L 3597 2988 
L 3225 2988 
L 1703 -750 
Q 1547 -1138 1356 -1280 
Q 1166 -1422 819 -1422 
Q 672 -1422 517 -1397 
Q 363 -1372 206 -1325 
L 206 -691 
L 500 -691 
Q 519 -903 608 -995 
Q 697 -1088 884 -1088 
Q 1056 -1088 1161 -992 
Q 1266 -897 1381 -609 
z
" transform="scale(0.015625)"/>
      <path id="DejaVuSerif-2c" d="M 231 -622 
Q 525 -406 662 -114 
Q 800 178 800 594 
L 800 709 
L 1416 709 
Q 1391 175 1164 -208 
Q 938 -591 481 -872 
L 231 -622 
z
" transform="scale(0.015625)"/>
      <path id="DejaVuSerif-59" d="M 1209 0 
L 1209 331 
L 1806 331 
L 1806 2009 
L 366 4331 
L -72 4331 
L -72 4666 
L 1663 4666 
L 1663 4331 
L 1119 4331 
L 2284 2444 
L 3450 4331 
L 2925 4331 
L 2925 4666 
L 4281 4666 
L 4281 4331 
L 3841 4331 
L 2438 2069 
L 2438 331 
L 3034 331 
L 3034 0 
L 1209 0 
z
" transform="scale(0.015625)"/>
      <path id="DejaVuSerif-29" d="M 453 -997 
L 453 -691 
Q 934 -359 1145 242 
Q 1356 844 1356 1931 
Q 1356 3022 1145 3623 
Q 934 4225 453 4556 
L 453 4863 
Q 1216 4522 1603 3783 
Q 1991 3044 1991 1931 
Q 1991 822 1603 83 
Q 1216 -656 453 -997 
z
" transform="scale(0.015625)"/>
     </defs>
     <use xlink:href="#DejaVuSerif-41"/>
     <use xlink:href="#DejaVuSerif-6e" transform="translate(72.216797 0)"/>
     <use xlink:href="#DejaVuSerif-6e" transform="translate(136.621094 0)"/>
     <use xlink:href="#DejaVuSerif-75" transform="translate(201.025391 0)"/>
     <use xlink:href="#DejaVuSerif-61" transform="translate(265.429688 0)"/>
     <use xlink:href="#DejaVuSerif-6c" transform="translate(325.048828 0)"/>
     <use xlink:href="#DejaVuSerif-20" transform="translate(357.03125 0)"/>
     <use xlink:href="#DejaVuSerif-69" transform="translate(388.818359 0)"/>
     <use xlink:href="#DejaVuSerif-6e" transform="translate(420.800781 0)"/>
     <use xlink:href="#DejaVuSerif-66" transform="translate(485.205078 0)"/>
     <use xlink:href="#DejaVuSerif-6c" transform="translate(522.216797 0)"/>
     <use xlink:href="#DejaVuSerif-61" transform="translate(554.199219 0)"/>
     <use xlink:href="#DejaVuSerif-74" transform="translate(613.818359 0)"/>
     <use xlink:href="#DejaVuSerif-69" transform="translate(654.003906 0)"/>
     <use xlink:href="#DejaVuSerif-6f" transform="translate(685.986328 0)"/>
     <use xlink:href="#DejaVuSerif-6e" transform="translate(746.191406 0)"/>
     <use xlink:href="#DejaVuSerif-20" transform="translate(810.595703 0)"/>
     <use xlink:href="#DejaVuSerif-72" transform="translate(842.382812 0)"/>
     <use xlink:href="#DejaVuSerif-61" transform="translate(890.185547 0)"/>
     <use xlink:href="#DejaVuSerif-74" transform="translate(949.804688 0)"/>
     <use xlink:href="#DejaVuSerif-65" transform="translate(989.990234 0)"/>
     <use xlink:href="#DejaVuSerif-20" transform="translate(1049.169922 0)"/>
     <use xlink:href="#DejaVuSerif-28" transform="translate(1080.957031 0)"/>
     <use xlink:href="#DejaVuSerif-6d" transform="translate(1119.970703 0)"/>
     <use xlink:href="#DejaVuSerif-6f" transform="translate(1214.794922 0)"/>
     <use xlink:href="#DejaVuSerif-6e" transform="translate(1275 0)"/>
     <use xlink:href="#DejaVuSerif-74" transform="translate(1339.404297 0)"/>
     <use xlink:href="#DejaVuSerif-68" transform="translate(1379.589844 0)"/>
     <use xlink:href="#DejaVuSerif-6c" transform="translate(1443.994141 0)"/>
     <use xlink:href="#DejaVuSerif-79" transform="translate(1475.976562 0)"/>
     <use xlink:href="#DejaVuSerif-2c" transform="translate(1519.220703 0)"/>
     <use xlink:href="#DejaVuSerif-20" transform="translate(1551.007812 0)"/>
     <use xlink:href="#DejaVuSerif-59" transform="translate(1582.794922 0)"/>
     <use xlink:href="#DejaVuSerif-6f" transform="translate(1640.060547 0)"/>
     <use xlink:href="#DejaVuSerif-59" transform="translate(1700.265625 0)"/>
     <use xlink:href="#DejaVuSerif-29" transform="translate(1766.28125 0)"/>
    </g>
   </g>
   <g id="legend_1">
    <g id="patch_42">
     <path d="M 68.6625 103.70875 
L 117.034375 103.70875 
Q 119.034375 103.70875 119.034375 101.70875 
L 119.034375 29.318125 
Q 119.034375 27.318125 117.034375 27.318125 
L 68.6625 27.318125 
Q 66.6625 27.318125 66.6625 29.318125 
L 66.6625 101.70875 
Q 66.6625 103.70875 68.6625 103.70875 
z
" style="fill: #ffffff; opacity: 0.8; stroke: #cccccc; stroke-linejoin: miter"/>
    </g>
    <g id="line2d_72">
     <path d="M 70.6625 35.416562 
L 80.6625 35.416562 
L 90.6625 35.416562 
" style="fill: none; stroke: #1f77b4; stroke-width: 1.5; stroke-linecap: square"/>
    </g>
    <g id="text_22">
     <!-- US -->
     <g transform="translate(98.6625 38.916562) scale(0.1 -0.1)">
      <defs>
       <path id="DejaVuSerif-55" d="M 897 4331 
L 300 4331 
L 300 4666 
L 2125 4666 
L 2125 4331 
L 1528 4331 
L 1528 1919 
Q 1528 1025 1820 672 
Q 2113 319 2828 319 
Q 3544 319 3836 672 
Q 4128 1025 4128 1919 
L 4128 4331 
L 3531 4331 
L 3531 4666 
L 5106 4666 
L 5106 4331 
L 4513 4331 
L 4513 1856 
Q 4513 791 4103 350 
Q 3694 -91 2713 -91 
Q 1731 -91 1314 353 
Q 897 797 897 1856 
L 897 4331 
z
" transform="scale(0.015625)"/>
       <path id="DejaVuSerif-53" d="M 594 225 
L 594 1288 
L 953 1284 
Q 969 753 1261 498 
Q 1553 244 2150 244 
Q 2706 244 2998 464 
Q 3291 684 3291 1106 
Q 3291 1444 3114 1625 
Q 2938 1806 2369 1978 
L 1753 2163 
Q 1084 2366 811 2669 
Q 538 2972 538 3500 
Q 538 4094 959 4422 
Q 1381 4750 2144 4750 
Q 2469 4750 2856 4679 
Q 3244 4609 3681 4475 
L 3681 3481 
L 3328 3481 
Q 3275 3975 2998 4195 
Q 2722 4416 2156 4416 
Q 1663 4416 1405 4214 
Q 1147 4013 1147 3628 
Q 1147 3294 1340 3103 
Q 1534 2913 2163 2725 
L 2741 2553 
Q 3375 2363 3645 2067 
Q 3916 1772 3916 1275 
Q 3916 597 3481 253 
Q 3047 -91 2188 -91 
Q 1803 -91 1404 -12 
Q 1006 66 594 225 
z
" transform="scale(0.015625)"/>
      </defs>
      <use xlink:href="#DejaVuSerif-55"/>
      <use xlink:href="#DejaVuSerif-53" transform="translate(84.277344 0)"/>
     </g>
    </g>
    <g id="line2d_73">
     <path d="M 70.6625 50.094687 
L 80.6625 50.094687 
L 90.6625 50.094687 
" style="fill: none; stroke: #ff7f0e; stroke-width: 1.5; stroke-linecap: square"/>
    </g>
    <g id="text_23">
     <!-- EU -->
     <g transform="translate(98.6625 53.594687) scale(0.1 -0.1)">
      <defs>
       <path id="DejaVuSerif-45" d="M 353 0 
L 353 331 
L 947 331 
L 947 4331 
L 353 4331 
L 353 4666 
L 4109 4666 
L 4109 3628 
L 3725 3628 
L 3725 4281 
L 1581 4281 
L 1581 2719 
L 3109 2719 
L 3109 3303 
L 3494 3303 
L 3494 1753 
L 3109 1753 
L 3109 2338 
L 1581 2338 
L 1581 384 
L 3775 384 
L 3775 1038 
L 4159 1038 
L 4159 0 
L 353 0 
z
" transform="scale(0.015625)"/>
      </defs>
      <use xlink:href="#DejaVuSerif-45"/>
      <use xlink:href="#DejaVuSerif-55" transform="translate(72.998047 0)"/>
     </g>
    </g>
    <g id="line2d_74">
     <path d="M 70.6625 64.772812 
L 80.6625 64.772812 
L 90.6625 64.772812 
" style="fill: none; stroke: #2ca02c; stroke-width: 1.5; stroke-linecap: square"/>
    </g>
    <g id="text_24">
     <!-- UK -->
     <g transform="translate(98.6625 68.272812) scale(0.1 -0.1)">
      <defs>
       <path id="DejaVuSerif-4b" d="M 353 0 
L 353 331 
L 947 331 
L 947 4331 
L 353 4331 
L 353 4666 
L 2175 4666 
L 2175 4331 
L 1581 4331 
L 1581 2566 
L 3591 4331 
L 3084 4331 
L 3084 4666 
L 4634 4666 
L 4634 4331 
L 4109 4331 
L 2106 2572 
L 4347 331 
L 4878 331 
L 4878 0 
L 3794 0 
L 1581 2216 
L 1581 331 
L 2175 331 
L 2175 0 
L 353 0 
z
" transform="scale(0.015625)"/>
      </defs>
      <use xlink:href="#DejaVuSerif-55"/>
      <use xlink:href="#DejaVuSerif-4b" transform="translate(84.277344 0)"/>
     </g>
    </g>
    <g id="line2d_75">
     <path d="M 70.6625 79.450937 
L 80.6625 79.450937 
L 90.6625 79.450937 
" style="fill: none; stroke: #d62728; stroke-width: 1.5; stroke-linecap: square"/>
    </g>
    <g id="text_25">
     <!-- CH -->
     <g transform="translate(98.6625 82.950937) scale(0.1 -0.1)">
      <defs>
       <path id="DejaVuSerif-48" d="M 353 0 
L 353 331 
L 947 331 
L 947 4331 
L 353 4331 
L 353 4666 
L 2175 4666 
L 2175 4331 
L 1581 4331 
L 1581 2719 
L 4000 2719 
L 4000 4331 
L 3406 4331 
L 3406 4666 
L 5228 4666 
L 5228 4331 
L 4634 4331 
L 4634 331 
L 5228 331 
L 5228 0 
L 3406 0 
L 3406 331 
L 4000 331 
L 4000 2338 
L 1581 2338 
L 1581 331 
L 2175 331 
L 2175 0 
L 353 0 
z
" transform="scale(0.015625)"/>
      </defs>
      <use xlink:href="#DejaVuSerif-43"/>
      <use xlink:href="#DejaVuSerif-48" transform="translate(76.513672 0)"/>
     </g>
    </g>
    <g id="line2d_76">
     <path d="M 70.6625 94.129062 
L 80.6625 94.129062 
L 90.6625 94.129062 
" style="fill: none; stroke: #9467bd; stroke-width: 1.5; stroke-linecap: square"/>
    </g>
    <g id="text_26">
     <!-- JP -->
     <g transform="translate(98.6625 97.629062) scale(0.1 -0.1)">
      <defs>
       <path id="DejaVuSerif-4a" d="M -538 -1119 
L -538 -384 
L -181 -384 
Q -172 -694 -34 -845 
Q 103 -997 378 -997 
Q 750 -997 897 -762 
Q 1044 -528 1044 153 
L 1044 4331 
L 319 4331 
L 319 4666 
L 2272 4666 
L 2272 4331 
L 1678 4331 
L 1678 128 
Q 1678 -644 1368 -987 
Q 1059 -1331 372 -1331 
Q 150 -1331 -79 -1278 
Q -309 -1225 -538 -1119 
z
" transform="scale(0.015625)"/>
      </defs>
      <use xlink:href="#DejaVuSerif-4a"/>
      <use xlink:href="#DejaVuSerif-50" transform="translate(40.087891 0)"/>
     </g>
    </g>
   </g>
  </g>
 </g>
 <defs>
  <clipPath id="p61cfb78104">
   <rect x="61.6625" y="22.318125" width="384.7375" height="292.20375"/>
  </clipPath>
 </defs>
</svg>
