<?xml version="1.0" encoding="utf-8" standalone="no"?>
<!DOCTYPE svg PUBLIC "-//W3C//DTD SVG 1.1//EN"
  "http://www.w3.org/Graphics/SVG/1.1/DTD/svg11.dtd">
<svg xmlns:xlink="http://www.w3.org/1999/xlink" width="425.9825pt" height="292.632627pt" viewBox="0 0 425.9825 292.632627" xmlns="http://www.w3.org/2000/svg" version="1.1">
 <metadata>
  <rdf:RDF xmlns:dc="http://purl.org/dc/elements/1.1/" xmlns:cc="http://creativecommons.org/ns#" xmlns:rdf="http://www.w3.org/1999/02/22-rdf-syntax-ns#">
   <cc:Work>
    <dc:type rdf:resource="http://purl.org/dc/dcmitype/StillImage"/>
    <dc:date>2024-11-06T21:53:33.308675</dc:date>
    <dc:format>image/svg+xml</dc:format>
    <dc:creator>
     <cc:Agent>
      <dc:title>Matplotlib v3.9.0, https://matplotlib.org/</dc:title>
     </cc:Agent>
    </dc:creator>
   </cc:Work>
  </rdf:RDF>
 </metadata>
 <defs>
  <style type="text/css">*{stroke-linejoin: round; stroke-linecap: butt}</style>
 </defs>
 <g id="figure_1">
  <g id="patch_1">
   <path d="M 0 292.632627 
L 425.9825 292.632627 
L 425.9825 0 
L 0 0 
z
" style="fill: #ffffff"/>
  </g>
  <g id="axes_1">
   <g id="patch_2">
    <path d="M 61.6625 257.326125 
L 418.7825 257.326125 
L 418.7825 22.318125 
L 61.6625 22.318125 
z
" style="fill: #ffffff"/>
   </g>
   <g id="patch_3">
    <path d="M -5921.629201 257.326125 
L -5864.722612 257.326125 
L -5864.722612 22.318125 
L -5921.629201 22.318125 
z
" clip-path="url(#pb74c3e0f80)" style="fill: #d3d3d3"/>
   </g>
   <g id="patch_4">
    <path d="M -5798.366206 257.326125 
L -5760.463095 257.326125 
L -5760.463095 22.318125 
L -5798.366206 22.318125 
z
" clip-path="url(#pb74c3e0f80)" style="fill: #d3d3d3"/>
   </g>
   <g id="patch_5">
    <path d="M -5627.542595 257.326125 
L -5551.736372 257.326125 
L -5551.736372 22.318125 
L -5627.542595 22.318125 
z
" clip-path="url(#pb74c3e0f80)" style="fill: #d3d3d3"/>
   </g>
   <g id="patch_6">
    <path d="M -5466.480332 257.326125 
L -5409.573743 257.326125 
L -5409.573743 22.318125 
L -5466.480332 22.318125 
z
" clip-path="url(#pb74c3e0f80)" style="fill: #d3d3d3"/>
   </g>
   <g id="patch_7">
    <path d="M -5305.314226 257.326125 
L -5096.587503 257.326125 
L -5096.587503 22.318125 
L -5305.314226 22.318125 
z
" clip-path="url(#pb74c3e0f80)" style="fill: #d3d3d3"/>
   </g>
   <g id="patch_8">
    <path d="M -4982.774325 257.326125 
L -4859.615174 257.326125 
L -4859.615174 22.318125 
L -4982.774325 22.318125 
z
" clip-path="url(#pb74c3e0f80)" style="fill: #d3d3d3"/>
   </g>
   <g id="patch_9">
    <path d="M -4783.808951 257.326125 
L -4755.251812 257.326125 
L -4755.251812 22.318125 
L -4783.808951 22.318125 
z
" clip-path="url(#pb74c3e0f80)" style="fill: #d3d3d3"/>
   </g>
   <g id="patch_10">
    <path d="M -4660.545956 257.326125 
L -4632.092661 257.326125 
L -4632.092661 22.318125 
L -4660.545956 22.318125 
z
" clip-path="url(#pb74c3e0f80)" style="fill: #d3d3d3"/>
   </g>
   <g id="patch_11">
    <path d="M -4565.528567 257.326125 
L -4518.279483 257.326125 
L -4518.279483 22.318125 
L -4565.528567 22.318125 
z
" clip-path="url(#pb74c3e0f80)" style="fill: #d3d3d3"/>
   </g>
   <g id="patch_12">
    <path d="M -4461.372894 257.326125 
L -4404.466305 257.326125 
L -4404.466305 22.318125 
L -4461.372894 22.318125 
z
" clip-path="url(#pb74c3e0f80)" style="fill: #d3d3d3"/>
   </g>
   <g id="patch_13">
    <path d="M -4319.210265 257.326125 
L -4271.753493 257.326125 
L -4271.753493 22.318125 
L -4319.210265 22.318125 
z
" clip-path="url(#pb74c3e0f80)" style="fill: #d3d3d3"/>
   </g>
   <g id="patch_14">
    <path d="M -4195.94727 257.326125 
L -4129.590864 257.326125 
L -4129.590864 22.318125 
L -4195.94727 22.318125 
z
" clip-path="url(#pb74c3e0f80)" style="fill: #d3d3d3"/>
   </g>
   <g id="patch_15">
    <path d="M -4025.331347 257.326125 
L -3987.324392 257.326125 
L -3987.324392 22.318125 
L -4025.331347 22.318125 
z
" clip-path="url(#pb74c3e0f80)" style="fill: #d3d3d3"/>
   </g>
   <g id="patch_16">
    <path d="M -3920.864141 257.326125 
L -3854.61158 257.326125 
L -3854.61158 22.318125 
L -3920.864141 22.318125 
z
" clip-path="url(#pb74c3e0f80)" style="fill: #d3d3d3"/>
   </g>
   <g id="patch_17">
    <path d="M -3807.050963 257.326125 
L -3740.798401 257.326125 
L -3740.798401 22.318125 
L -3807.050963 22.318125 
z
" clip-path="url(#pb74c3e0f80)" style="fill: #d3d3d3"/>
   </g>
   <g id="patch_18">
    <path d="M -3598.635773 257.326125 
L -3579.528451 257.326125 
L -3579.528451 22.318125 
L -3598.635773 22.318125 
z
" clip-path="url(#pb74c3e0f80)" style="fill: #d3d3d3"/>
   </g>
   <g id="patch_19">
    <path d="M -3541.625339 257.326125 
L -3484.822595 257.326125 
L -3484.822595 22.318125 
L -3541.625339 22.318125 
z
" clip-path="url(#pb74c3e0f80)" style="fill: #d3d3d3"/>
   </g>
   <g id="patch_20">
    <path d="M -3418.466189 257.326125 
L -3371.009416 257.326125 
L -3371.009416 22.318125 
L -3418.466189 22.318125 
z
" clip-path="url(#pb74c3e0f80)" style="fill: #d3d3d3"/>
   </g>
   <g id="patch_21">
    <path d="M -3295.203194 257.326125 
L -3247.746421 257.326125 
L -3247.746421 22.318125 
L -3295.203194 22.318125 
z
" clip-path="url(#pb74c3e0f80)" style="fill: #d3d3d3"/>
   </g>
   <g id="patch_22">
    <path d="M -3181.390015 257.326125 
L -3048.469515 257.326125 
L -3048.469515 22.318125 
L -3181.390015 22.318125 
z
" clip-path="url(#pb74c3e0f80)" style="fill: #d3d3d3"/>
   </g>
   <g id="patch_23">
    <path d="M -2887.407253 257.326125 
L -2849.504141 257.326125 
L -2849.504141 22.318125 
L -2887.407253 22.318125 
z
" clip-path="url(#pb74c3e0f80)" style="fill: #d3d3d3"/>
   </g>
   <g id="patch_24">
    <path d="M -2593.320646 257.326125 
L -2564.971196 257.326125 
L -2564.971196 22.318125 
L -2593.320646 22.318125 
z
" clip-path="url(#pb74c3e0f80)" style="fill: #d3d3d3"/>
   </g>
   <g id="patch_25">
    <path d="M -2451.158018 257.326125 
L -2413.254906 257.326125 
L -2413.254906 22.318125 
L -2451.158018 22.318125 
z
" clip-path="url(#pb74c3e0f80)" style="fill: #d3d3d3"/>
   </g>
   <g id="patch_26">
    <path d="M -2280.542094 257.326125 
L -2242.638983 257.326125 
L -2242.638983 22.318125 
L -2280.542094 22.318125 
z
" clip-path="url(#pb74c3e0f80)" style="fill: #d3d3d3"/>
   </g>
   <g id="patch_27">
    <path d="M -2119.375988 257.326125 
L -2090.922693 257.326125 
L -2090.922693 22.318125 
L -2119.375988 22.318125 
z
" clip-path="url(#pb74c3e0f80)" style="fill: #d3d3d3"/>
   </g>
   <g id="patch_28">
    <path d="M -2015.012626 257.326125 
L -1986.455488 257.326125 
L -1986.455488 22.318125 
L -2015.012626 22.318125 
z
" clip-path="url(#pb74c3e0f80)" style="fill: #d3d3d3"/>
   </g>
   <g id="patch_29">
    <path d="M -1654.673458 257.326125 
L -1616.770347 257.326125 
L -1616.770347 22.318125 
L -1654.673458 22.318125 
z
" clip-path="url(#pb74c3e0f80)" style="fill: #d3d3d3"/>
   </g>
   <g id="patch_30">
    <path d="M -1502.957169 257.326125 
L -1455.500396 257.326125 
L -1455.500396 22.318125 
L -1502.957169 22.318125 
z
" clip-path="url(#pb74c3e0f80)" style="fill: #d3d3d3"/>
   </g>
   <g id="patch_31">
    <path d="M -1265.880995 257.326125 
L -1246.981362 257.326125 
L -1246.981362 22.318125 
L -1265.880995 22.318125 
z
" clip-path="url(#pb74c3e0f80)" style="fill: #d3d3d3"/>
   </g>
   <g id="patch_32">
    <path d="M -1209.07825 257.326125 
L -1161.621478 257.326125 
L -1161.621478 22.318125 
L -1209.07825 22.318125 
z
" clip-path="url(#pb74c3e0f80)" style="fill: #d3d3d3"/>
   </g>
   <g id="patch_33">
    <path d="M -867.74256 257.326125 
L -848.635238 257.326125 
L -848.635238 22.318125 
L -867.74256 22.318125 
z
" clip-path="url(#pb74c3e0f80)" style="fill: #d3d3d3"/>
   </g>
   <g id="patch_34">
    <path d="M -469.292592 257.326125 
L -440.943141 257.326125 
L -440.943141 22.318125 
L -469.292592 22.318125 
z
" clip-path="url(#pb74c3e0f80)" style="fill: #d3d3d3"/>
   </g>
   <g id="patch_35">
    <path d="M -213.420629 257.326125 
L -156.51404 257.326125 
L -156.51404 22.318125 
L -213.420629 22.318125 
z
" clip-path="url(#pb74c3e0f80)" style="fill: #d3d3d3"/>
   </g>
   <g id="patch_36">
    <path d="M 241.72824 257.326125 
L 260.731718 257.326125 
L 260.731718 22.318125 
L 241.72824 22.318125 
z
" clip-path="url(#pb74c3e0f80)" style="fill: #d3d3d3"/>
   </g>
   <g id="matplotlib.axis_1">
    <g id="xtick_1">
     <g id="line2d_1">
      <defs>
       <path id="me385ebd146" d="M 0 0 
L 0 3.5 
" style="stroke: #000000; stroke-width: 0.8"/>
      </defs>
      <g>
       <use xlink:href="#me385ebd146" x="61.6625" y="257.326125" style="stroke: #000000; stroke-width: 0.8"/>
      </g>
     </g>
     <g id="text_1">
      <!-- 2015 -->
      <g transform="translate(38.58231 283.631565) rotate(-30) scale(0.1 -0.1)">
       <defs>
        <path id="DejaVuSerif-32" d="M 819 3553 
L 469 3553 
L 469 4384 
Q 803 4563 1142 4656 
Q 1481 4750 1806 4750 
Q 2534 4750 2956 4397 
Q 3378 4044 3378 3438 
Q 3378 2753 2422 1800 
Q 2347 1728 2309 1691 
L 1131 513 
L 3078 513 
L 3078 1088 
L 3444 1088 
L 3444 0 
L 434 0 
L 434 341 
L 1850 1753 
Q 2319 2222 2519 2614 
Q 2719 3006 2719 3438 
Q 2719 3909 2473 4175 
Q 2228 4441 1797 4441 
Q 1350 4441 1106 4219 
Q 863 3997 819 3553 
z
" transform="scale(0.015625)"/>
        <path id="DejaVuSerif-30" d="M 2034 219 
Q 2513 219 2750 744 
Q 2988 1269 2988 2328 
Q 2988 3391 2750 3916 
Q 2513 4441 2034 4441 
Q 1556 4441 1318 3916 
Q 1081 3391 1081 2328 
Q 1081 1269 1318 744 
Q 1556 219 2034 219 
z
M 2034 -91 
Q 1275 -91 848 546 
Q 422 1184 422 2328 
Q 422 3475 848 4112 
Q 1275 4750 2034 4750 
Q 2797 4750 3222 4112 
Q 3647 3475 3647 2328 
Q 3647 1184 3222 546 
Q 2797 -91 2034 -91 
z
" transform="scale(0.015625)"/>
        <path id="DejaVuSerif-31" d="M 909 0 
L 909 331 
L 1722 331 
L 1722 4213 
L 781 3603 
L 781 4013 
L 1919 4750 
L 2350 4750 
L 2350 331 
L 3163 331 
L 3163 0 
L 909 0 
z
" transform="scale(0.015625)"/>
        <path id="DejaVuSerif-35" d="M 3219 4666 
L 3219 4153 
L 1081 4153 
L 1081 2816 
Q 1244 2928 1461 2984 
Q 1678 3041 1947 3041 
Q 2703 3041 3140 2622 
Q 3578 2203 3578 1478 
Q 3578 738 3136 323 
Q 2694 -91 1894 -91 
Q 1572 -91 1234 -12 
Q 897 66 544 225 
L 544 1131 
L 897 1131 
Q 925 688 1179 453 
Q 1434 219 1894 219 
Q 2388 219 2653 544 
Q 2919 869 2919 1478 
Q 2919 2084 2655 2407 
Q 2391 2731 1894 2731 
Q 1613 2731 1398 2631 
Q 1184 2531 1019 2322 
L 750 2322 
L 750 4666 
L 3219 4666 
z
" transform="scale(0.015625)"/>
       </defs>
       <use xlink:href="#DejaVuSerif-32"/>
       <use xlink:href="#DejaVuSerif-30" x="63.623047"/>
       <use xlink:href="#DejaVuSerif-31" x="127.246094"/>
       <use xlink:href="#DejaVuSerif-35" x="190.869141"/>
      </g>
     </g>
    </g>
    <g id="xtick_2">
     <g id="line2d_2">
      <g>
       <use xlink:href="#me385ebd146" x="99.565611" y="257.326125" style="stroke: #000000; stroke-width: 0.8"/>
      </g>
     </g>
     <g id="text_2">
      <!-- 2016 -->
      <g transform="translate(76.485421 283.631565) rotate(-30) scale(0.1 -0.1)">
       <defs>
        <path id="DejaVuSerif-36" d="M 2094 219 
Q 2534 219 2771 542 
Q 3009 866 3009 1472 
Q 3009 2078 2771 2401 
Q 2534 2725 2094 2725 
Q 1647 2725 1412 2412 
Q 1178 2100 1178 1509 
Q 1178 888 1415 553 
Q 1653 219 2094 219 
z
M 1075 2569 
Q 1288 2803 1556 2918 
Q 1825 3034 2163 3034 
Q 2859 3034 3264 2615 
Q 3669 2197 3669 1472 
Q 3669 763 3233 336 
Q 2797 -91 2069 -91 
Q 1278 -91 853 498 
Q 428 1088 428 2181 
Q 428 3406 931 4078 
Q 1434 4750 2350 4750 
Q 2597 4750 2869 4703 
Q 3141 4656 3425 4563 
L 3425 3794 
L 3072 3794 
Q 3034 4109 2831 4275 
Q 2628 4441 2284 4441 
Q 1678 4441 1381 3981 
Q 1084 3522 1075 2569 
z
" transform="scale(0.015625)"/>
       </defs>
       <use xlink:href="#DejaVuSerif-32"/>
       <use xlink:href="#DejaVuSerif-30" x="63.623047"/>
       <use xlink:href="#DejaVuSerif-31" x="127.246094"/>
       <use xlink:href="#DejaVuSerif-36" x="190.869141"/>
      </g>
     </g>
    </g>
    <g id="xtick_3">
     <g id="line2d_3">
      <g>
       <use xlink:href="#me385ebd146" x="137.572567" y="257.326125" style="stroke: #000000; stroke-width: 0.8"/>
      </g>
     </g>
     <g id="text_3">
      <!-- 2017 -->
      <g transform="translate(114.492377 283.631565) rotate(-30) scale(0.1 -0.1)">
       <defs>
        <path id="DejaVuSerif-37" d="M 3609 4347 
L 1784 0 
L 1319 0 
L 3059 4153 
L 903 4153 
L 903 3578 
L 538 3578 
L 538 4666 
L 3609 4666 
L 3609 4347 
z
" transform="scale(0.015625)"/>
       </defs>
       <use xlink:href="#DejaVuSerif-32"/>
       <use xlink:href="#DejaVuSerif-30" x="63.623047"/>
       <use xlink:href="#DejaVuSerif-31" x="127.246094"/>
       <use xlink:href="#DejaVuSerif-37" x="190.869141"/>
      </g>
     </g>
    </g>
    <g id="xtick_4">
     <g id="line2d_4">
      <g>
       <use xlink:href="#me385ebd146" x="175.475678" y="257.326125" style="stroke: #000000; stroke-width: 0.8"/>
      </g>
     </g>
     <g id="text_4">
      <!-- 2018 -->
      <g transform="translate(152.395488 283.631565) rotate(-30) scale(0.1 -0.1)">
       <defs>
        <path id="DejaVuSerif-38" d="M 2981 1275 
Q 2981 1775 2732 2051 
Q 2484 2328 2034 2328 
Q 1584 2328 1336 2051 
Q 1088 1775 1088 1275 
Q 1088 772 1336 495 
Q 1584 219 2034 219 
Q 2484 219 2732 495 
Q 2981 772 2981 1275 
z
M 2853 3541 
Q 2853 3966 2637 4203 
Q 2422 4441 2034 4441 
Q 1650 4441 1433 4203 
Q 1216 3966 1216 3541 
Q 1216 3113 1433 2875 
Q 1650 2638 2034 2638 
Q 2422 2638 2637 2875 
Q 2853 3113 2853 3541 
z
M 2516 2484 
Q 3047 2413 3344 2092 
Q 3641 1772 3641 1275 
Q 3641 619 3225 264 
Q 2809 -91 2034 -91 
Q 1263 -91 845 264 
Q 428 619 428 1275 
Q 428 1772 725 2092 
Q 1022 2413 1556 2484 
Q 1084 2569 832 2842 
Q 581 3116 581 3541 
Q 581 4103 968 4426 
Q 1356 4750 2034 4750 
Q 2713 4750 3100 4426 
Q 3488 4103 3488 3541 
Q 3488 3116 3236 2842 
Q 2984 2569 2516 2484 
z
" transform="scale(0.015625)"/>
       </defs>
       <use xlink:href="#DejaVuSerif-32"/>
       <use xlink:href="#DejaVuSerif-30" x="63.623047"/>
       <use xlink:href="#DejaVuSerif-31" x="127.246094"/>
       <use xlink:href="#DejaVuSerif-38" x="190.869141"/>
      </g>
     </g>
    </g>
    <g id="xtick_5">
     <g id="line2d_5">
      <g>
       <use xlink:href="#me385ebd146" x="213.37879" y="257.326125" style="stroke: #000000; stroke-width: 0.8"/>
      </g>
     </g>
     <g id="text_5">
      <!-- 2019 -->
      <g transform="translate(190.298599 283.631565) rotate(-30) scale(0.1 -0.1)">
       <defs>
        <path id="DejaVuSerif-39" d="M 2994 2091 
Q 2784 1856 2512 1740 
Q 2241 1625 1900 1625 
Q 1206 1625 804 2044 
Q 403 2463 403 3188 
Q 403 3897 839 4323 
Q 1275 4750 2003 4750 
Q 2794 4750 3217 4161 
Q 3641 3572 3641 2478 
Q 3641 1253 3137 581 
Q 2634 -91 1722 -91 
Q 1475 -91 1203 -44 
Q 931 3 647 97 
L 647 872 
L 997 872 
Q 1038 556 1241 387 
Q 1444 219 1784 219 
Q 2391 219 2687 676 
Q 2984 1134 2994 2091 
z
M 1978 4441 
Q 1534 4441 1298 4117 
Q 1063 3794 1063 3188 
Q 1063 2581 1298 2256 
Q 1534 1931 1978 1931 
Q 2422 1931 2658 2245 
Q 2894 2559 2894 3150 
Q 2894 3772 2656 4106 
Q 2419 4441 1978 4441 
z
" transform="scale(0.015625)"/>
       </defs>
       <use xlink:href="#DejaVuSerif-32"/>
       <use xlink:href="#DejaVuSerif-30" x="63.623047"/>
       <use xlink:href="#DejaVuSerif-31" x="127.246094"/>
       <use xlink:href="#DejaVuSerif-39" x="190.869141"/>
      </g>
     </g>
    </g>
    <g id="xtick_6">
     <g id="line2d_6">
      <g>
       <use xlink:href="#me385ebd146" x="251.281901" y="257.326125" style="stroke: #000000; stroke-width: 0.8"/>
      </g>
     </g>
     <g id="text_6">
      <!-- 2020 -->
      <g transform="translate(228.201711 283.631565) rotate(-30) scale(0.1 -0.1)">
       <use xlink:href="#DejaVuSerif-32"/>
       <use xlink:href="#DejaVuSerif-30" x="63.623047"/>
       <use xlink:href="#DejaVuSerif-32" x="127.246094"/>
       <use xlink:href="#DejaVuSerif-30" x="190.869141"/>
      </g>
     </g>
    </g>
    <g id="xtick_7">
     <g id="line2d_7">
      <g>
       <use xlink:href="#me385ebd146" x="289.288856" y="257.326125" style="stroke: #000000; stroke-width: 0.8"/>
      </g>
     </g>
     <g id="text_7">
      <!-- 2021 -->
      <g transform="translate(266.208666 283.631565) rotate(-30) scale(0.1 -0.1)">
       <use xlink:href="#DejaVuSerif-32"/>
       <use xlink:href="#DejaVuSerif-30" x="63.623047"/>
       <use xlink:href="#DejaVuSerif-32" x="127.246094"/>
       <use xlink:href="#DejaVuSerif-31" x="190.869141"/>
      </g>
     </g>
    </g>
    <g id="xtick_8">
     <g id="line2d_8">
      <g>
       <use xlink:href="#me385ebd146" x="327.191968" y="257.326125" style="stroke: #000000; stroke-width: 0.8"/>
      </g>
     </g>
     <g id="text_8">
      <!-- 2022 -->
      <g transform="translate(304.111778 283.631565) rotate(-30) scale(0.1 -0.1)">
       <use xlink:href="#DejaVuSerif-32"/>
       <use xlink:href="#DejaVuSerif-30" x="63.623047"/>
       <use xlink:href="#DejaVuSerif-32" x="127.246094"/>
       <use xlink:href="#DejaVuSerif-32" x="190.869141"/>
      </g>
     </g>
    </g>
    <g id="xtick_9">
     <g id="line2d_9">
      <g>
       <use xlink:href="#me385ebd146" x="365.095079" y="257.326125" style="stroke: #000000; stroke-width: 0.8"/>
      </g>
     </g>
     <g id="text_9">
      <!-- 2023 -->
      <g transform="translate(342.014889 283.631565) rotate(-30) scale(0.1 -0.1)">
       <defs>
        <path id="DejaVuSerif-33" d="M 622 4469 
Q 988 4606 1323 4678 
Q 1659 4750 1953 4750 
Q 2638 4750 3022 4454 
Q 3406 4159 3406 3634 
Q 3406 3213 3140 2930 
Q 2875 2647 2388 2547 
Q 2963 2466 3280 2130 
Q 3597 1794 3597 1259 
Q 3597 606 3158 257 
Q 2719 -91 1894 -91 
Q 1528 -91 1179 -12 
Q 831 66 488 225 
L 488 1131 
L 838 1131 
Q 869 681 1141 450 
Q 1413 219 1906 219 
Q 2384 219 2661 495 
Q 2938 772 2938 1253 
Q 2938 1803 2653 2086 
Q 2369 2369 1819 2369 
L 1522 2369 
L 1522 2688 
L 1678 2688 
Q 2225 2688 2498 2914 
Q 2772 3141 2772 3597 
Q 2772 4006 2547 4223 
Q 2322 4441 1900 4441 
Q 1478 4441 1245 4241 
Q 1013 4041 972 3647 
L 622 3647 
L 622 4469 
z
" transform="scale(0.015625)"/>
       </defs>
       <use xlink:href="#DejaVuSerif-32"/>
       <use xlink:href="#DejaVuSerif-30" x="63.623047"/>
       <use xlink:href="#DejaVuSerif-32" x="127.246094"/>
       <use xlink:href="#DejaVuSerif-33" x="190.869141"/>
      </g>
     </g>
    </g>
    <g id="xtick_10">
     <g id="line2d_10">
      <g>
       <use xlink:href="#me385ebd146" x="402.998191" y="257.326125" style="stroke: #000000; stroke-width: 0.8"/>
      </g>
     </g>
     <g id="text_10">
      <!-- 2024 -->
      <g transform="translate(379.918 283.631565) rotate(-30) scale(0.1 -0.1)">
       <defs>
        <path id="DejaVuSerif-34" d="M 2234 1581 
L 2234 4063 
L 641 1581 
L 2234 1581 
z
M 3609 0 
L 1484 0 
L 1484 331 
L 2234 331 
L 2234 1247 
L 197 1247 
L 197 1588 
L 2241 4750 
L 2859 4750 
L 2859 1581 
L 3750 1581 
L 3750 1247 
L 2859 1247 
L 2859 331 
L 3609 331 
L 3609 0 
z
" transform="scale(0.015625)"/>
       </defs>
       <use xlink:href="#DejaVuSerif-32"/>
       <use xlink:href="#DejaVuSerif-30" x="63.623047"/>
       <use xlink:href="#DejaVuSerif-32" x="127.246094"/>
       <use xlink:href="#DejaVuSerif-34" x="190.869141"/>
      </g>
     </g>
    </g>
   </g>
   <g id="matplotlib.axis_2">
    <g id="ytick_1">
     <g id="line2d_11">
      <path d="M 61.6625 250.611611 
L 418.7825 250.611611 
" clip-path="url(#pb74c3e0f80)" style="fill: none; stroke-dasharray: 2.96,1.28; stroke-dashoffset: 0; stroke: #b0b0b0; stroke-width: 0.8"/>
     </g>
     <g id="line2d_12">
      <defs>
       <path id="m59d98c3121" d="M 0 0 
L -3.5 0 
" style="stroke: #000000; stroke-width: 0.8"/>
      </defs>
      <g>
       <use xlink:href="#m59d98c3121" x="61.6625" y="250.611611" style="stroke: #000000; stroke-width: 0.8"/>
      </g>
     </g>
     <g id="text_11">
      <!-- −2.0% -->
      <g transform="translate(20.878125 254.410829) scale(0.1 -0.1)">
       <defs>
        <path id="DejaVuSerif-2212" d="M 678 2259 
L 4684 2259 
L 4684 1753 
L 678 1753 
L 678 2259 
z
" transform="scale(0.015625)"/>
        <path id="DejaVuSerif-2e" d="M 603 325 
Q 603 500 722 622 
Q 841 744 1019 744 
Q 1191 744 1312 622 
Q 1434 500 1434 325 
Q 1434 153 1312 31 
Q 1191 -91 1019 -91 
Q 841 -91 722 29 
Q 603 150 603 325 
z
" transform="scale(0.015625)"/>
        <path id="DejaVuSerif-25" d="M 1434 4459 
Q 1159 4459 1004 4200 
Q 850 3941 850 3475 
Q 850 3016 1008 2753 
Q 1166 2491 1434 2491 
Q 1700 2491 1854 2752 
Q 2009 3013 2009 3475 
Q 2009 3938 1854 4198 
Q 1700 4459 1434 4459 
z
M 4653 2169 
Q 4381 2169 4226 1906 
Q 4072 1644 4072 1178 
Q 4072 719 4228 458 
Q 4384 197 4653 197 
Q 4922 197 5075 458 
Q 5228 719 5228 1178 
Q 5228 1641 5073 1905 
Q 4919 2169 4653 2169 
z
M 4653 2450 
Q 5147 2450 5437 2106 
Q 5728 1763 5728 1178 
Q 5728 594 5436 251 
Q 5144 -91 4653 -91 
Q 4153 -91 3862 251 
Q 3572 594 3572 1178 
Q 3572 1766 3864 2108 
Q 4156 2450 4653 2450 
z
M 4263 4750 
L 4738 4750 
L 1819 -91 
L 1344 -91 
L 4263 4750 
z
M 1428 4750 
Q 1922 4750 2215 4408 
Q 2509 4066 2509 3481 
Q 2509 2891 2217 2550 
Q 1925 2209 1428 2209 
Q 931 2209 642 2551 
Q 353 2894 353 3481 
Q 353 4063 643 4406 
Q 934 4750 1428 4750 
z
" transform="scale(0.015625)"/>
       </defs>
       <use xlink:href="#DejaVuSerif-2212"/>
       <use xlink:href="#DejaVuSerif-32" x="83.789062"/>
       <use xlink:href="#DejaVuSerif-2e" x="147.412109"/>
       <use xlink:href="#DejaVuSerif-30" x="179.199219"/>
       <use xlink:href="#DejaVuSerif-25" x="242.822266"/>
      </g>
     </g>
    </g>
    <g id="ytick_2">
     <g id="line2d_13">
      <path d="M 61.6625 223.753554 
L 418.7825 223.753554 
" clip-path="url(#pb74c3e0f80)" style="fill: none; stroke-dasharray: 2.96,1.28; stroke-dashoffset: 0; stroke: #b0b0b0; stroke-width: 0.8"/>
     </g>
     <g id="line2d_14">
      <g>
       <use xlink:href="#m59d98c3121" x="61.6625" y="223.753554" style="stroke: #000000; stroke-width: 0.8"/>
      </g>
     </g>
     <g id="text_12">
      <!-- 0.0% -->
      <g transform="translate(29.257813 227.552772) scale(0.1 -0.1)">
       <use xlink:href="#DejaVuSerif-30"/>
       <use xlink:href="#DejaVuSerif-2e" x="63.623047"/>
       <use xlink:href="#DejaVuSerif-30" x="95.410156"/>
       <use xlink:href="#DejaVuSerif-25" x="159.033203"/>
      </g>
     </g>
    </g>
    <g id="ytick_3">
     <g id="line2d_15">
      <path d="M 61.6625 196.895496 
L 418.7825 196.895496 
" clip-path="url(#pb74c3e0f80)" style="fill: none; stroke-dasharray: 2.96,1.28; stroke-dashoffset: 0; stroke: #b0b0b0; stroke-width: 0.8"/>
     </g>
     <g id="line2d_16">
      <g>
       <use xlink:href="#m59d98c3121" x="61.6625" y="196.895496" style="stroke: #000000; stroke-width: 0.8"/>
      </g>
     </g>
     <g id="text_13">
      <!-- 2.0% -->
      <g transform="translate(29.257813 200.694715) scale(0.1 -0.1)">
       <use xlink:href="#DejaVuSerif-32"/>
       <use xlink:href="#DejaVuSerif-2e" x="63.623047"/>
       <use xlink:href="#DejaVuSerif-30" x="95.410156"/>
       <use xlink:href="#DejaVuSerif-25" x="159.033203"/>
      </g>
     </g>
    </g>
    <g id="ytick_4">
     <g id="line2d_17">
      <path d="M 61.6625 170.037439 
L 418.7825 170.037439 
" clip-path="url(#pb74c3e0f80)" style="fill: none; stroke-dasharray: 2.96,1.28; stroke-dashoffset: 0; stroke: #b0b0b0; stroke-width: 0.8"/>
     </g>
     <g id="line2d_18">
      <g>
       <use xlink:href="#m59d98c3121" x="61.6625" y="170.037439" style="stroke: #000000; stroke-width: 0.8"/>
      </g>
     </g>
     <g id="text_14">
      <!-- 4.0% -->
      <g transform="translate(29.257813 173.836658) scale(0.1 -0.1)">
       <use xlink:href="#DejaVuSerif-34"/>
       <use xlink:href="#DejaVuSerif-2e" x="63.623047"/>
       <use xlink:href="#DejaVuSerif-30" x="95.410156"/>
       <use xlink:href="#DejaVuSerif-25" x="159.033203"/>
      </g>
     </g>
    </g>
    <g id="ytick_5">
     <g id="line2d_19">
      <path d="M 61.6625 143.179382 
L 418.7825 143.179382 
" clip-path="url(#pb74c3e0f80)" style="fill: none; stroke-dasharray: 2.96,1.28; stroke-dashoffset: 0; stroke: #b0b0b0; stroke-width: 0.8"/>
     </g>
     <g id="line2d_20">
      <g>
       <use xlink:href="#m59d98c3121" x="61.6625" y="143.179382" style="stroke: #000000; stroke-width: 0.8"/>
      </g>
     </g>
     <g id="text_15">
      <!-- 6.0% -->
      <g transform="translate(29.257813 146.978601) scale(0.1 -0.1)">
       <use xlink:href="#DejaVuSerif-36"/>
       <use xlink:href="#DejaVuSerif-2e" x="63.623047"/>
       <use xlink:href="#DejaVuSerif-30" x="95.410156"/>
       <use xlink:href="#DejaVuSerif-25" x="159.033203"/>
      </g>
     </g>
    </g>
    <g id="ytick_6">
     <g id="line2d_21">
      <path d="M 61.6625 116.321325 
L 418.7825 116.321325 
" clip-path="url(#pb74c3e0f80)" style="fill: none; stroke-dasharray: 2.96,1.28; stroke-dashoffset: 0; stroke: #b0b0b0; stroke-width: 0.8"/>
     </g>
     <g id="line2d_22">
      <g>
       <use xlink:href="#m59d98c3121" x="61.6625" y="116.321325" style="stroke: #000000; stroke-width: 0.8"/>
      </g>
     </g>
     <g id="text_16">
      <!-- 8.0% -->
      <g transform="translate(29.257813 120.120544) scale(0.1 -0.1)">
       <use xlink:href="#DejaVuSerif-38"/>
       <use xlink:href="#DejaVuSerif-2e" x="63.623047"/>
       <use xlink:href="#DejaVuSerif-30" x="95.410156"/>
       <use xlink:href="#DejaVuSerif-25" x="159.033203"/>
      </g>
     </g>
    </g>
    <g id="ytick_7">
     <g id="line2d_23">
      <path d="M 61.6625 89.463268 
L 418.7825 89.463268 
" clip-path="url(#pb74c3e0f80)" style="fill: none; stroke-dasharray: 2.96,1.28; stroke-dashoffset: 0; stroke: #b0b0b0; stroke-width: 0.8"/>
     </g>
     <g id="line2d_24">
      <g>
       <use xlink:href="#m59d98c3121" x="61.6625" y="89.463268" style="stroke: #000000; stroke-width: 0.8"/>
      </g>
     </g>
     <g id="text_17">
      <!-- 10.0% -->
      <g transform="translate(22.895313 93.262487) scale(0.1 -0.1)">
       <use xlink:href="#DejaVuSerif-31"/>
       <use xlink:href="#DejaVuSerif-30" x="63.623047"/>
       <use xlink:href="#DejaVuSerif-2e" x="127.246094"/>
       <use xlink:href="#DejaVuSerif-30" x="159.033203"/>
       <use xlink:href="#DejaVuSerif-25" x="222.65625"/>
      </g>
     </g>
    </g>
    <g id="ytick_8">
     <g id="line2d_25">
      <path d="M 61.6625 62.605211 
L 418.7825 62.605211 
" clip-path="url(#pb74c3e0f80)" style="fill: none; stroke-dasharray: 2.96,1.28; stroke-dashoffset: 0; stroke: #b0b0b0; stroke-width: 0.8"/>
     </g>
     <g id="line2d_26">
      <g>
       <use xlink:href="#m59d98c3121" x="61.6625" y="62.605211" style="stroke: #000000; stroke-width: 0.8"/>
      </g>
     </g>
     <g id="text_18">
      <!-- 12.0% -->
      <g transform="translate(22.895313 66.404429) scale(0.1 -0.1)">
       <use xlink:href="#DejaVuSerif-31"/>
       <use xlink:href="#DejaVuSerif-32" x="63.623047"/>
       <use xlink:href="#DejaVuSerif-2e" x="127.246094"/>
       <use xlink:href="#DejaVuSerif-30" x="159.033203"/>
       <use xlink:href="#DejaVuSerif-25" x="222.65625"/>
      </g>
     </g>
    </g>
    <g id="ytick_9">
     <g id="line2d_27">
      <path d="M 61.6625 35.747154 
L 418.7825 35.747154 
" clip-path="url(#pb74c3e0f80)" style="fill: none; stroke-dasharray: 2.96,1.28; stroke-dashoffset: 0; stroke: #b0b0b0; stroke-width: 0.8"/>
     </g>
     <g id="line2d_28">
      <g>
       <use xlink:href="#m59d98c3121" x="61.6625" y="35.747154" style="stroke: #000000; stroke-width: 0.8"/>
      </g>
     </g>
     <g id="text_19">
      <!-- 14.0% -->
      <g transform="translate(22.895313 39.546372) scale(0.1 -0.1)">
       <use xlink:href="#DejaVuSerif-31"/>
       <use xlink:href="#DejaVuSerif-34" x="63.623047"/>
       <use xlink:href="#DejaVuSerif-2e" x="127.246094"/>
       <use xlink:href="#DejaVuSerif-30" x="159.033203"/>
       <use xlink:href="#DejaVuSerif-25" x="222.65625"/>
      </g>
     </g>
    </g>
    <g id="text_20">
     <!-- CPI [%] -->
     <g transform="translate(14.798438 159.228375) rotate(-90) scale(0.1 -0.1)">
      <defs>
       <path id="DejaVuSerif-43" d="M 4513 1234 
Q 4306 581 3820 245 
Q 3334 -91 2591 -91 
Q 2134 -91 1743 65 
Q 1353 222 1050 525 
Q 700 875 529 1320 
Q 359 1766 359 2328 
Q 359 3416 987 4083 
Q 1616 4750 2644 4750 
Q 3025 4750 3456 4650 
Q 3888 4550 4384 4347 
L 4384 3272 
L 4031 3272 
Q 3916 3859 3567 4137 
Q 3219 4416 2591 4416 
Q 1844 4416 1459 3886 
Q 1075 3356 1075 2328 
Q 1075 1303 1459 773 
Q 1844 244 2591 244 
Q 3113 244 3450 492 
Q 3788 741 3938 1234 
L 4513 1234 
z
" transform="scale(0.015625)"/>
       <path id="DejaVuSerif-50" d="M 1581 2375 
L 2406 2375 
Q 2872 2375 3115 2626 
Q 3359 2878 3359 3353 
Q 3359 3831 3115 4081 
Q 2872 4331 2406 4331 
L 1581 4331 
L 1581 2375 
z
M 353 0 
L 353 331 
L 947 331 
L 947 4331 
L 353 4331 
L 353 4666 
L 2559 4666 
Q 3259 4666 3668 4311 
Q 4078 3956 4078 3353 
Q 4078 2753 3668 2397 
Q 3259 2041 2559 2041 
L 1581 2041 
L 1581 331 
L 2303 331 
L 2303 0 
L 353 0 
z
" transform="scale(0.015625)"/>
       <path id="DejaVuSerif-49" d="M 1581 331 
L 2175 331 
L 2175 0 
L 353 0 
L 353 331 
L 947 331 
L 947 4331 
L 353 4331 
L 353 4666 
L 2175 4666 
L 2175 4331 
L 1581 4331 
L 1581 331 
z
" transform="scale(0.015625)"/>
       <path id="DejaVuSerif-20" transform="scale(0.015625)"/>
       <path id="DejaVuSerif-5b" d="M 550 4863 
L 2003 4863 
L 2003 4531 
L 1147 4531 
L 1147 -513 
L 2003 -513 
L 2003 -844 
L 550 -844 
L 550 4863 
z
" transform="scale(0.015625)"/>
       <path id="DejaVuSerif-5d" d="M 1947 4863 
L 1947 -844 
L 494 -844 
L 494 -513 
L 1350 -513 
L 1350 4531 
L 494 4531 
L 494 4863 
L 1947 4863 
z
" transform="scale(0.015625)"/>
      </defs>
      <use xlink:href="#DejaVuSerif-43"/>
      <use xlink:href="#DejaVuSerif-50" x="76.513672"/>
      <use xlink:href="#DejaVuSerif-49" x="143.798828"/>
      <use xlink:href="#DejaVuSerif-20" x="183.300781"/>
      <use xlink:href="#DejaVuSerif-5b" x="215.087891"/>
      <use xlink:href="#DejaVuSerif-25" x="254.101562"/>
      <use xlink:href="#DejaVuSerif-5d" x="349.121094"/>
     </g>
    </g>
   </g>
   <g id="line2d_29">
    <path d="M -1 204.155621 
L 1.536743 200.712113 
L 4.652067 198.433499 
L 7.871235 203.088837 
L 11.090403 209.052338 
L 14.205728 211.978993 
L 17.424896 207.197304 
L 20.54022 203.437604 
L 23.759389 202.834366 
L 26.978557 208.706668 
L 29.886193 202.096627 
L 33.105361 196.692378 
L 36.220686 194.653551 
L 39.439854 196.10343 
L 42.555178 197.241457 
L 45.774346 200.721449 
L 48.993515 201.138385 
L 52.108839 202.138972 
L 55.328007 207.215369 
L 58.443332 214.982768 
L 61.6625 226.841303 
L 64.881668 224.922302 
L 67.789304 224.049412 
L 71.008473 225.150589 
L 77.342965 221.342079 
L 80.458289 220.722808 
L 83.677458 220.513078 
L 86.896626 223.634801 
L 90.01195 222.039787 
L 93.231119 217.894224 
L 96.346443 215.176101 
L 99.565611 207.135097 
L 102.78478 212.375439 
L 105.79626 211.780016 
L 109.015428 208.006329 
L 112.130752 209.270662 
L 115.349921 209.259784 
L 118.465245 212.092277 
L 121.684413 209.581687 
L 124.903582 202.956761 
L 128.018906 201.113219 
L 131.238074 201.134591 
L 134.353399 196.213316 
L 137.572567 190.04141 
L 140.791735 186.013126 
L 143.699371 190.97066 
L 146.91854 194.528986 
L 150.033864 198.824668 
L 153.253032 201.722348 
L 156.368356 200.587038 
L 159.587525 197.860754 
L 162.806693 194.470681 
L 165.922017 196.61674 
L 169.141186 194.579071 
L 172.25651 195.150653 
L 175.475678 194.863431 
L 178.694847 193.357365 
L 181.602483 192.451163 
L 184.821651 190.570474 
L 187.936975 186.395049 
L 191.156144 186.050875 
L 194.271468 185.42543 
L 197.490636 188.261654 
L 200.709804 192.436319 
L 203.825129 190.287978 
L 207.044297 194.917017 
L 210.159621 196.863523 
L 213.37879 203.776674 
L 216.597958 203.356719 
L 219.505594 198.46419 
L 222.724762 196.887661 
L 225.840087 199.636219 
L 229.059255 201.31103 
L 232.174579 199.227698 
L 235.393747 200.41872 
L 238.612916 201.132386 
L 241.72824 200.467971 
L 244.947408 195.656126 
L 248.062733 192.604553 
L 251.281901 190.016284 
L 254.501069 192.33315 
L 257.512549 203.299235 
L 260.731718 219.055054 
L 263.847042 220.849934 
L 267.06621 214.329508 
L 270.181535 210.072641 
L 273.400703 206.287781 
L 276.619871 205.314366 
L 279.735196 207.596211 
L 282.954364 208.047757 
L 286.069688 206.229302 
L 289.288856 205.018703 
L 292.508025 201.28775 
L 295.415661 188.587862 
L 298.634829 168.040015 
L 301.750153 157.59729 
L 304.969322 152.377026 
L 308.084646 153.1494 
L 311.303814 154.254139 
L 314.522983 151.760392 
L 317.638307 140.237833 
L 320.857475 131.59643 
L 323.9728 127.379048 
L 330.411136 117.007289 
L 333.318772 108.969856 
L 336.537941 112.939098 
L 339.653265 109.163699 
L 342.872433 103.030028 
L 345.987757 110.280696 
L 349.206926 113.382967 
L 352.426094 113.658731 
L 355.541418 119.652519 
L 358.760587 128.146041 
L 361.875911 137.65336 
L 365.095079 138.316418 
L 368.314248 143.642379 
L 371.221884 157.480086 
L 374.441052 157.399929 
L 377.556376 168.416695 
L 380.775544 182.751214 
L 383.890869 179.81672 
L 387.110037 173.814739 
L 390.329205 174.145981 
L 393.44453 180.165781 
L 396.663698 181.593361 
L 399.779022 179.126747 
L 402.998191 182.043247 
L 406.217359 181.240701 
L 409.228839 177.085917 
L 415.563332 180.106389 
L 418.7825 183.793753 
L 421.897824 184.492905 
L 425.116993 188.955893 
L 426.9825 190.385573 
L 426.9825 190.385573 
" clip-path="url(#pb74c3e0f80)" style="fill: none; stroke: #1f77b4; stroke-width: 1.5; stroke-linecap: square"/>
   </g>
   <g id="line2d_30">
    <path d="M -1 204.087222 
L 1.536743 202.135759 
L 4.652067 202.158168 
L 7.871235 205.804337 
L 11.090403 209.062153 
L 14.205728 213.846337 
L 17.424896 212.331537 
L 20.54022 212.371873 
L 23.759389 213.484619 
L 26.978557 214.204265 
L 29.886193 217.416562 
L 33.105361 214.171994 
L 36.220686 217.148229 
L 39.439854 217.155515 
L 42.555178 218.744743 
L 45.774346 218.886004 
L 48.993515 219.447653 
L 52.108839 218.634141 
L 55.328007 219.978325 
L 58.443332 226.03763 
L 61.6625 231.770478 
L 64.881668 227.681754 
L 67.789304 224.692928 
L 71.008473 220.939648 
L 74.123797 215.70499 
L 77.342965 217.053779 
L 80.458289 216.470561 
L 83.677458 217.825812 
L 86.896626 221.070967 
L 90.01195 218.519373 
L 93.231119 222.005682 
L 96.346443 220.388894 
L 99.565611 219.379277 
L 102.78478 225.383785 
L 105.79626 224.290715 
L 109.015428 227.230152 
L 112.130752 225.353676 
L 115.349921 223.086902 
L 118.465245 221.473127 
L 121.684413 220.802708 
L 124.903582 218.399076 
L 128.018906 216.935431 
L 131.238074 215.831219 
L 134.353399 208.986052 
L 137.572567 200.590659 
L 140.791735 197.502135 
L 143.699371 203.198918 
L 146.91854 198.281701 
L 150.033864 205.196689 
L 153.253032 206.29595 
L 156.368356 205.8089 
L 159.587525 203.00909 
L 162.806693 202.820695 
L 165.922017 205.39771 
L 169.141186 203.196194 
L 172.25651 205.694146 
L 175.475678 206.341089 
L 178.694847 208.811658 
L 181.602483 204.964293 
L 184.821651 207.307697 
L 187.936975 197.548644 
L 191.156144 197.311207 
L 194.271468 194.284223 
L 197.490636 195.812106 
L 200.709804 195.790086 
L 203.825129 193.048134 
L 207.044297 197.984123 
L 210.159621 203.313233 
L 213.37879 205.109471 
L 216.597958 203.698412 
L 219.505594 204.96257 
L 222.724762 200.617984 
L 225.840087 207.349912 
L 229.059255 206.723755 
L 232.174579 210.046505 
L 235.393747 210.196703 
L 238.612916 212.56484 
L 241.72824 214.003781 
L 244.947408 210.85343 
L 248.062733 205.942829 
L 251.281901 205.495187 
L 254.501069 207.373519 
L 257.512549 213.715564 
L 260.731718 219.537017 
L 263.847042 222.605119 
L 267.06621 220.186408 
L 270.181535 218.505339 
L 273.400703 226.054358 
L 276.619871 227.962481 
L 279.735196 227.447046 
L 282.954364 227.586768 
L 286.069688 227.320022 
L 289.288856 211.53014 
L 292.508025 211.16705 
L 295.415661 205.870323 
L 298.634829 201.972619 
L 301.750153 197.107138 
L 304.969322 198.214385 
L 308.084646 194.681976 
L 311.303814 184.060582 
L 314.522983 178.589233 
L 317.638307 169.347789 
L 320.857475 158.402365 
L 323.9728 157.087335 
L 327.191968 155.154832 
L 330.411136 144.864055 
L 333.318772 123.78904 
L 336.537941 123.856822 
L 339.653265 115.616245 
L 342.872433 107.667893 
L 345.987757 104.68949 
L 349.206926 101.004422 
L 352.426094 90.44114 
L 355.541418 81.129194 
L 358.760587 88.730109 
L 361.875911 100.255647 
L 365.095079 107.659784 
L 368.314248 109.581573 
L 371.221884 131.301391 
L 374.441052 130.306834 
L 377.556376 141.839603 
L 380.775544 149.613288 
L 383.890869 152.446948 
L 387.110037 153.332343 
L 390.329205 165.537825 
L 393.44453 184.807928 
L 396.663698 191.554973 
L 399.779022 184.420272 
L 402.998191 186.571659 
L 406.217359 189.084418 
L 409.228839 191.15243 
L 412.448007 191.904331 
L 415.563332 189.294982 
L 418.7825 189.928107 
L 421.897824 189.135922 
L 426.9825 197.934721 
L 426.9825 197.934721 
" clip-path="url(#pb74c3e0f80)" style="fill: none; stroke: #ff7f0e; stroke-width: 1.5; stroke-linecap: square"/>
   </g>
   <g id="line2d_31">
    <path d="M -1 186.716828 
L 1.536743 184.380486 
L 7.871235 187.421114 
L 11.090403 187.571715 
L 14.205728 194.680399 
L 17.424896 196.121808 
L 20.54022 196.235052 
L 23.759389 197.476361 
L 26.978557 200.410661 
L 29.886193 201.850959 
L 33.105361 199.163267 
L 36.220686 203.303256 
L 39.439854 197.79714 
L 42.555178 201.895521 
L 45.774346 203.344696 
L 48.993515 207.492369 
L 52.108839 206.13727 
L 58.443332 217.012073 
L 61.6625 219.684151 
L 64.881668 223.753554 
L 67.789304 223.753554 
L 71.008473 226.436676 
L 74.123797 222.410651 
L 77.342965 223.753554 
L 80.458289 222.409306 
L 83.677458 222.413331 
L 86.896626 225.09244 
L 90.01195 225.091106 
L 93.231119 221.070431 
L 99.565611 221.048815 
L 102.78478 219.7046 
L 105.79626 217.018835 
L 109.015428 219.720812 
L 112.130752 219.72887 
L 115.349921 218.392664 
L 118.465245 215.696136 
L 121.684413 215.720236 
L 124.903582 211.691552 
L 128.018906 211.703578 
L 131.238074 209.025805 
L 134.353399 202.331374 
L 137.572567 198.110182 
L 140.791735 192.804891 
L 143.699371 192.928438 
L 146.91854 187.567548 
L 150.033864 184.964527 
L 153.253032 187.711429 
L 156.368356 189.046323 
L 159.587525 185.156742 
L 162.806693 183.904804 
L 165.922017 183.94418 
L 169.141186 181.373976 
L 172.25651 184.21765 
L 175.475678 184.0227 
L 178.694847 186.925659 
L 181.602483 190.999825 
L 187.936975 191.253484 
L 191.156144 191.253484 
L 194.271468 189.92073 
L 197.490636 188.822554 
L 200.709804 191.503245 
L 203.825129 191.534195 
L 207.044297 192.941251 
L 210.159621 195.589719 
L 213.37879 199.313751 
L 216.597958 199.430242 
L 219.505594 198.174452 
L 222.724762 195.723323 
L 225.840087 197.098582 
L 232.174579 197.098582 
L 235.393747 199.795662 
L 238.612916 199.818137 
L 241.72824 203.616304 
L 248.062733 206.199268 
L 251.281901 199.750586 
L 254.501069 201.120359 
L 257.512549 203.672763 
L 260.731718 212.521095 
L 263.847042 216.286068 
L 267.06621 215.041487 
L 270.181535 208.818582 
L 273.400703 221.275873 
L 276.619871 216.327363 
L 279.735196 213.83368 
L 282.954364 218.80276 
L 286.069688 215.089664 
L 289.288856 213.824512 
L 292.508025 217.57076 
L 295.415661 213.861083 
L 298.634829 203.950378 
L 301.750153 195.286488 
L 304.969322 190.366466 
L 308.084646 196.673936 
L 311.303814 180.473996 
L 314.522983 183.134127 
L 317.638307 168.363427 
L 320.857475 154.697025 
L 323.9728 151.197447 
L 327.191968 151.064316 
L 330.411136 141.283809 
L 333.318772 129.234797 
L 336.537941 103.002071 
L 339.653265 102.552935 
L 342.872433 97.064605 
L 345.987757 88.618675 
L 349.206926 91.978965 
L 352.426094 87.551662 
L 355.541418 74.804821 
L 358.760587 80.666961 
L 361.875911 82.579578 
L 365.095079 89.346392 
L 368.314248 83.432961 
L 371.221884 88.431148 
L 374.441052 107.368639 
L 377.556376 107.027726 
L 380.775544 116.806446 
L 383.890869 131.668786 
L 387.110037 134.299423 
L 390.329205 134.805222 
L 393.44453 162.035356 
L 396.663698 170.758176 
L 399.779022 170.966492 
L 402.998191 169.569973 
L 406.217359 177.555175 
L 409.228839 181.039033 
L 412.448007 191.828716 
L 415.563332 197.161418 
L 418.7825 197.201862 
L 421.897824 194.002459 
L 425.116993 198.184192 
L 426.9825 202.389651 
L 426.9825 202.389651 
" clip-path="url(#pb74c3e0f80)" style="fill: none; stroke: #2ca02c; stroke-width: 1.5; stroke-linecap: square"/>
   </g>
   <g id="line2d_32">
    <path d="M -1 229.48644 
L 1.536743 225.470547 
L 4.652067 223.790515 
L 7.871235 224.351714 
L 11.090403 224.497285 
L 14.205728 227.182331 
L 17.424896 222.681173 
L 23.759389 223.0233 
L 26.978557 225.649792 
L 29.886193 223.716634 
L 33.105361 223.243444 
L 36.220686 220.788425 
L 39.439854 223.08666 
L 42.555178 223.325848 
L 45.774346 222.790522 
L 48.993515 224.931013 
L 52.108839 223.923586 
L 55.328007 224.540393 
L 58.443332 228.164305 
L 61.6625 230.269284 
L 64.881668 235.027976 
L 67.789304 235.500244 
L 71.008473 238.828359 
L 74.123797 239.625131 
L 77.342965 237.684318 
L 80.458289 240.889318 
L 83.677458 242.58851 
L 86.896626 243.14068 
L 90.01195 242.01392 
L 93.231119 242.453593 
L 96.346443 241.323492 
L 99.565611 240.764539 
L 102.78478 234.880555 
L 105.79626 235.312598 
L 109.015428 228.480184 
L 112.130752 229.661747 
L 115.349921 228.776614 
L 118.465245 226.477779 
L 121.684413 225.674821 
L 128.018906 226.612156 
L 131.238074 228.29665 
L 137.572567 219.067418 
L 140.791735 215.078196 
L 143.699371 216.127312 
L 146.91854 217.874878 
L 150.033864 217.315824 
L 153.253032 221.105246 
L 159.587525 217.539036 
L 162.806693 214.996878 
L 165.922017 214.878206 
L 169.141186 213.183214 
L 172.25651 212.491216 
L 175.475678 213.81335 
L 178.694847 215.319724 
L 181.602483 213.072533 
L 184.821651 212.967479 
L 187.936975 210.334838 
L 191.156144 208.35679 
L 194.271468 207.231138 
L 197.490636 207.894451 
L 200.709804 210.466001 
L 203.825129 208.89345 
L 207.044297 211.372452 
L 210.159621 214.466749 
L 213.37879 216.232156 
L 216.597958 215.982216 
L 219.505594 213.962888 
L 222.724762 214.24482 
L 225.840087 215.236172 
L 229.059255 215.691781 
L 232.174579 219.567648 
L 235.393747 219.482544 
L 238.612916 221.761691 
L 241.72824 227.152565 
L 244.947408 225.514794 
L 248.062733 221.661079 
L 251.281901 221.036265 
L 254.501069 224.589757 
L 257.512549 230.671866 
L 260.731718 238.02982 
L 263.847042 241.541316 
L 267.06621 240.873001 
L 270.181535 236.106595 
L 273.400703 235.385991 
L 276.619871 234.495787 
L 279.735196 231.41183 
L 282.954364 232.94913 
L 286.069688 234.682994 
L 289.288856 231.063434 
L 292.508025 230.521505 
L 295.415661 227.046432 
L 298.634829 219.349768 
L 301.750153 216.354385 
L 304.969322 215.635979 
L 308.084646 214.637678 
L 311.303814 211.91431 
L 314.522983 211.097814 
L 317.638307 207.076502 
L 320.857475 203.169198 
L 323.9728 203.192368 
L 327.191968 201.611929 
L 330.411136 194.869427 
L 333.318772 191.70931 
L 336.537941 189.535801 
L 339.653265 184.238936 
L 342.872433 178.296684 
L 345.987757 177.645312 
L 349.206926 177.394934 
L 352.426094 180.075837 
L 355.541418 183.52016 
L 358.760587 184.000777 
L 361.875911 185.610923 
L 365.095079 179.672327 
L 368.314248 178.473473 
L 371.221884 184.201015 
L 374.441052 189.303486 
L 377.556376 194.764242 
L 380.775544 200.778141 
L 383.890869 202.198551 
L 387.110037 202.880751 
L 390.329205 201.533009 
L 393.44453 201.012326 
L 396.663698 204.3665 
L 399.779022 200.724255 
L 402.998191 206.583021 
L 406.217359 208.062901 
L 409.228839 209.721376 
L 412.448007 205.385031 
L 415.563332 205.085975 
L 418.7825 205.918847 
L 421.897824 206.422233 
L 426.9825 211.205512 
L 426.9825 211.205512 
" clip-path="url(#pb74c3e0f80)" style="fill: none; stroke: #d62728; stroke-width: 1.5; stroke-linecap: square"/>
   </g>
   <g id="line2d_33">
    <path d="M -1 226.495698 
L 1.536743 220.90842 
L 4.652067 213.763841 
L 7.871235 212.360952 
L 11.090403 209.527888 
L 14.205728 208.105321 
L 17.424896 203.774127 
L 20.54022 202.347026 
L 23.759389 205.220924 
L 26.978557 202.324253 
L 29.886193 202.36975 
L 33.105361 178.279594 
L 36.220686 174.068987 
L 39.439854 175.488546 
L 48.993515 180.116249 
L 52.108839 185.786667 
L 55.328007 190.00521 
L 58.443332 191.445221 
L 61.6625 191.411391 
L 64.881668 194.223753 
L 67.789304 192.882224 
L 71.008473 214.131936 
L 74.123797 215.54008 
L 80.458289 221.015729 
L 86.896626 223.753554 
L 90.01195 219.650999 
L 93.231119 221.010136 
L 96.346443 221.010136 
L 99.565611 225.126665 
L 102.78478 221.001703 
L 105.79626 223.753554 
L 109.015428 227.84777 
L 112.130752 230.556506 
L 115.349921 227.84777 
L 121.684413 230.577247 
L 124.903582 230.570319 
L 128.018906 222.3902 
L 131.238074 216.908993 
L 134.353399 219.646817 
L 137.572567 216.88097 
L 140.791735 219.63422 
L 143.699371 221.010136 
L 146.91854 218.277905 
L 156.368356 218.266719 
L 162.806693 212.791081 
L 165.922017 221.029613 
L 169.141186 216.943701 
L 172.25651 210.106167 
L 175.475678 205.975817 
L 178.694847 204.588783 
L 181.602483 208.695519 
L 184.821651 215.573435 
L 187.936975 214.21976 
L 191.156144 214.210081 
L 194.271468 211.45841 
L 197.490636 206.029963 
L 200.709804 208.802206 
L 203.825129 204.724566 
L 207.044297 211.557665 
L 210.159621 219.700527 
L 213.37879 221.054251 
L 216.597958 221.054251 
L 219.505594 216.98489 
L 222.724762 211.557665 
L 225.840087 214.286967 
L 229.059255 215.631157 
L 232.174579 215.631157 
L 235.393747 221.062365 
L 241.72824 221.073109 
L 248.062733 212.978004 
L 251.281901 212.978004 
L 254.501069 215.671891 
L 257.512549 215.671891 
L 260.731718 221.067748 
L 263.847042 222.410651 
L 267.06621 222.40796 
L 270.181535 221.062365 
L 273.400703 222.410651 
L 276.619871 226.436676 
L 282.954364 237.115771 
L 286.069688 239.788215 
L 289.288856 233.107106 
L 292.508025 230.447985 
L 295.415661 229.109098 
L 298.634829 238.496 
L 301.750153 233.144483 
L 304.969322 229.130542 
L 308.084646 227.782262 
L 311.303814 229.119799 
L 314.522983 221.065059 
L 317.638307 222.40796 
L 320.857475 215.655647 
L 323.9728 212.934598 
L 327.191968 217.025583 
L 330.411136 211.643207 
L 333.318772 207.622588 
L 336.537941 191.231184 
L 339.653265 191.32934 
L 342.872433 192.711578 
L 345.987757 188.733018 
L 349.206926 183.345243 
L 352.426094 183.506715 
L 355.541418 172.672164 
L 358.760587 172.774224 
L 361.875911 170.091102 
L 365.095079 164.842561 
L 368.314248 179.745813 
L 371.221884 179.919929 
L 374.441052 176.123501 
L 377.556376 180.221339 
L 380.775544 178.902181 
L 383.890869 179.121396 
L 387.110037 181.910427 
L 390.329205 183.375291 
L 393.44453 179.723952 
L 396.663698 184.978688 
L 399.779022 188.92322 
L 402.998191 195.53592 
L 406.217359 186.307224 
L 409.228839 187.737002 
L 412.448007 190.53236 
L 415.563332 185.421407 
L 418.7825 185.457845 
L 421.897824 186.909483 
L 421.897824 186.909483 
" clip-path="url(#pb74c3e0f80)" style="fill: none; stroke: #9467bd; stroke-width: 1.5; stroke-linecap: square"/>
   </g>
   <g id="patch_37">
    <path d="M 61.6625 257.326125 
L 61.6625 22.318125 
" style="fill: none; stroke: #000000; stroke-width: 0.8; stroke-linejoin: miter; stroke-linecap: square"/>
   </g>
   <g id="patch_38">
    <path d="M 418.7825 257.326125 
L 418.7825 22.318125 
" style="fill: none; stroke: #000000; stroke-width: 0.8; stroke-linejoin: miter; stroke-linecap: square"/>
   </g>
   <g id="patch_39">
    <path d="M 61.6625 257.326125 
L 418.7825 257.326125 
" style="fill: none; stroke: #000000; stroke-width: 0.8; stroke-linejoin: miter; stroke-linecap: square"/>
   </g>
   <g id="patch_40">
    <path d="M 61.6625 22.318125 
L 418.7825 22.318125 
" style="fill: none; stroke: #000000; stroke-width: 0.8; stroke-linejoin: miter; stroke-linecap: square"/>
   </g>
   <g id="text_21">
    <!-- Annual inflation rate (monthly, YoY) -->
    <g transform="translate(131.902813 16.318125) scale(0.12 -0.12)">
     <defs>
      <path id="DejaVuSerif-41" d="M 1281 1691 
L 2994 1691 
L 2138 3909 
L 1281 1691 
z
M -38 0 
L -38 331 
L 372 331 
L 2034 4666 
L 2559 4666 
L 4225 331 
L 4684 331 
L 4684 0 
L 2988 0 
L 2988 331 
L 3506 331 
L 3116 1356 
L 1153 1356 
L 763 331 
L 1275 331 
L 1275 0 
L -38 0 
z
" transform="scale(0.015625)"/>
      <path id="DejaVuSerif-6e" d="M 263 0 
L 263 331 
L 781 331 
L 781 2988 
L 231 2988 
L 231 3322 
L 1356 3322 
L 1356 2731 
Q 1516 3069 1770 3241 
Q 2025 3413 2363 3413 
Q 2913 3413 3172 3097 
Q 3431 2781 3431 2113 
L 3431 331 
L 3944 331 
L 3944 0 
L 2356 0 
L 2356 331 
L 2853 331 
L 2853 1931 
Q 2853 2541 2703 2767 
Q 2553 2994 2175 2994 
Q 1775 2994 1565 2701 
Q 1356 2409 1356 1850 
L 1356 331 
L 1856 331 
L 1856 0 
L 263 0 
z
" transform="scale(0.015625)"/>
      <path id="DejaVuSerif-75" d="M 2266 3322 
L 3341 3322 
L 3341 331 
L 3884 331 
L 3884 0 
L 2766 0 
L 2766 588 
Q 2606 256 2353 82 
Q 2100 -91 1766 -91 
Q 1213 -91 952 223 
Q 691 538 691 1209 
L 691 2988 
L 172 2988 
L 172 3322 
L 1269 3322 
L 1269 1388 
Q 1269 781 1417 556 
Q 1566 331 1947 331 
Q 2347 331 2556 625 
Q 2766 919 2766 1478 
L 2766 2988 
L 2266 2988 
L 2266 3322 
z
" transform="scale(0.015625)"/>
      <path id="DejaVuSerif-61" d="M 2547 1044 
L 2547 1747 
L 1806 1747 
Q 1378 1747 1168 1562 
Q 959 1378 959 997 
Q 959 650 1171 447 
Q 1384 244 1747 244 
Q 2106 244 2326 466 
Q 2547 688 2547 1044 
z
M 3122 2075 
L 3122 331 
L 3634 331 
L 3634 0 
L 2547 0 
L 2547 359 
Q 2356 128 2106 18 
Q 1856 -91 1522 -91 
Q 969 -91 644 203 
Q 319 497 319 997 
Q 319 1513 691 1797 
Q 1063 2081 1741 2081 
L 2547 2081 
L 2547 2309 
Q 2547 2688 2317 2895 
Q 2088 3103 1672 3103 
Q 1328 3103 1125 2947 
Q 922 2791 872 2484 
L 575 2484 
L 575 3156 
Q 875 3284 1158 3348 
Q 1441 3413 1709 3413 
Q 2400 3413 2761 3070 
Q 3122 2728 3122 2075 
z
" transform="scale(0.015625)"/>
      <path id="DejaVuSerif-6c" d="M 1313 331 
L 1856 331 
L 1856 0 
L 184 0 
L 184 331 
L 738 331 
L 738 4531 
L 184 4531 
L 184 4863 
L 1313 4863 
L 1313 331 
z
" transform="scale(0.015625)"/>
      <path id="DejaVuSerif-69" d="M 622 4353 
Q 622 4497 726 4603 
Q 831 4709 978 4709 
Q 1122 4709 1226 4603 
Q 1331 4497 1331 4353 
Q 1331 4206 1228 4103 
Q 1125 4000 978 4000 
Q 831 4000 726 4103 
Q 622 4206 622 4353 
z
M 1356 331 
L 1900 331 
L 1900 0 
L 231 0 
L 231 331 
L 781 331 
L 781 2988 
L 231 2988 
L 231 3322 
L 1356 3322 
L 1356 331 
z
" transform="scale(0.015625)"/>
      <path id="DejaVuSerif-66" d="M 2753 4078 
L 2450 4078 
Q 2447 4313 2317 4434 
Q 2188 4556 1941 4556 
Q 1619 4556 1487 4379 
Q 1356 4203 1356 3750 
L 1356 3322 
L 2284 3322 
L 2284 2988 
L 1356 2988 
L 1356 331 
L 2094 331 
L 2094 0 
L 231 0 
L 231 331 
L 781 331 
L 781 2988 
L 231 2988 
L 231 3322 
L 781 3322 
L 781 3738 
Q 781 4294 1070 4578 
Q 1359 4863 1919 4863 
Q 2128 4863 2337 4825 
Q 2547 4788 2753 4709 
L 2753 4078 
z
" transform="scale(0.015625)"/>
      <path id="DejaVuSerif-74" d="M 691 2988 
L 184 2988 
L 184 3322 
L 691 3322 
L 691 4353 
L 1269 4353 
L 1269 3322 
L 2350 3322 
L 2350 2988 
L 1269 2988 
L 1269 878 
Q 1269 456 1350 337 
Q 1431 219 1650 219 
Q 1875 219 1978 351 
Q 2081 484 2088 781 
L 2522 781 
Q 2497 328 2275 118 
Q 2053 -91 1600 -91 
Q 1103 -91 897 129 
Q 691 350 691 878 
L 691 2988 
z
" transform="scale(0.015625)"/>
      <path id="DejaVuSerif-6f" d="M 1925 219 
Q 2388 219 2623 584 
Q 2859 950 2859 1663 
Q 2859 2375 2623 2739 
Q 2388 3103 1925 3103 
Q 1463 3103 1227 2739 
Q 991 2375 991 1663 
Q 991 950 1228 584 
Q 1466 219 1925 219 
z
M 1925 -91 
Q 1200 -91 759 389 
Q 319 869 319 1663 
Q 319 2456 758 2934 
Q 1197 3413 1925 3413 
Q 2653 3413 3092 2934 
Q 3531 2456 3531 1663 
Q 3531 869 3092 389 
Q 2653 -91 1925 -91 
z
" transform="scale(0.015625)"/>
      <path id="DejaVuSerif-72" d="M 3059 3328 
L 3059 2497 
L 2728 2497 
Q 2713 2744 2591 2866 
Q 2469 2988 2234 2988 
Q 1809 2988 1582 2694 
Q 1356 2400 1356 1850 
L 1356 331 
L 2022 331 
L 2022 0 
L 263 0 
L 263 331 
L 781 331 
L 781 2994 
L 231 2994 
L 231 3322 
L 1356 3322 
L 1356 2731 
Q 1525 3078 1790 3245 
Q 2056 3413 2438 3413 
Q 2578 3413 2733 3391 
Q 2888 3369 3059 3328 
z
" transform="scale(0.015625)"/>
      <path id="DejaVuSerif-65" d="M 3469 1600 
L 991 1600 
L 991 1575 
Q 991 903 1244 561 
Q 1497 219 1991 219 
Q 2369 219 2611 417 
Q 2853 616 2950 1006 
L 3413 1006 
Q 3275 459 2904 184 
Q 2534 -91 1931 -91 
Q 1203 -91 761 389 
Q 319 869 319 1663 
Q 319 2450 753 2931 
Q 1188 3413 1894 3413 
Q 2647 3413 3050 2948 
Q 3453 2484 3469 1600 
z
M 2791 1931 
Q 2772 2513 2545 2808 
Q 2319 3103 1894 3103 
Q 1497 3103 1269 2806 
Q 1041 2509 991 1931 
L 2791 1931 
z
" transform="scale(0.015625)"/>
      <path id="DejaVuSerif-28" d="M 2041 -997 
Q 1281 -656 893 83 
Q 506 822 506 1931 
Q 506 3044 893 3783 
Q 1281 4522 2041 4863 
L 2041 4556 
Q 1559 4225 1350 3623 
Q 1141 3022 1141 1931 
Q 1141 844 1350 242 
Q 1559 -359 2041 -691 
L 2041 -997 
z
" transform="scale(0.015625)"/>
      <path id="DejaVuSerif-6d" d="M 3316 2675 
Q 3481 3041 3739 3227 
Q 3997 3413 4341 3413 
Q 4863 3413 5119 3089 
Q 5375 2766 5375 2113 
L 5375 331 
L 5894 331 
L 5894 0 
L 4300 0 
L 4300 331 
L 4800 331 
L 4800 2047 
Q 4800 2556 4650 2772 
Q 4500 2988 4153 2988 
Q 3769 2988 3567 2697 
Q 3366 2406 3366 1850 
L 3366 331 
L 3866 331 
L 3866 0 
L 2291 0 
L 2291 331 
L 2791 331 
L 2791 2069 
Q 2791 2566 2641 2777 
Q 2491 2988 2144 2988 
Q 1759 2988 1557 2697 
Q 1356 2406 1356 1850 
L 1356 331 
L 1856 331 
L 1856 0 
L 263 0 
L 263 331 
L 781 331 
L 781 2994 
L 231 2994 
L 231 3322 
L 1356 3322 
L 1356 2731 
Q 1516 3063 1762 3238 
Q 2009 3413 2322 3413 
Q 2709 3413 2968 3220 
Q 3228 3028 3316 2675 
z
" transform="scale(0.015625)"/>
      <path id="DejaVuSerif-68" d="M 263 0 
L 263 331 
L 781 331 
L 781 4531 
L 231 4531 
L 231 4863 
L 1356 4863 
L 1356 2731 
Q 1516 3069 1770 3241 
Q 2025 3413 2363 3413 
Q 2913 3413 3172 3097 
Q 3431 2781 3431 2113 
L 3431 331 
L 3944 331 
L 3944 0 
L 2356 0 
L 2356 331 
L 2853 331 
L 2853 1931 
Q 2853 2541 2704 2764 
Q 2556 2988 2175 2988 
Q 1775 2988 1565 2697 
Q 1356 2406 1356 1850 
L 1356 331 
L 1856 331 
L 1856 0 
L 263 0 
z
" transform="scale(0.015625)"/>
      <path id="DejaVuSerif-79" d="M 1381 -609 
L 1600 -56 
L 359 2988 
L -19 2988 
L -19 3322 
L 1509 3322 
L 1509 2988 
L 978 2988 
L 1913 703 
L 2847 2988 
L 2350 2988 
L 2350 3322 
L 3597 3322 
L 3597 2988 
L 3225 2988 
L 1703 -750 
Q 1547 -1138 1356 -1280 
Q 1166 -1422 819 -1422 
Q 672 -1422 517 -1397 
Q 363 -1372 206 -1325 
L 206 -691 
L 500 -691 
Q 519 -903 608 -995 
Q 697 -1088 884 -1088 
Q 1056 -1088 1161 -992 
Q 1266 -897 1381 -609 
z
" transform="scale(0.015625)"/>
      <path id="DejaVuSerif-2c" d="M 231 -622 
Q 525 -406 662 -114 
Q 800 178 800 594 
L 800 709 
L 1416 709 
Q 1391 175 1164 -208 
Q 938 -591 481 -872 
L 231 -622 
z
" transform="scale(0.015625)"/>
      <path id="DejaVuSerif-59" d="M 1209 0 
L 1209 331 
L 1806 331 
L 1806 2009 
L 366 4331 
L -72 4331 
L -72 4666 
L 1663 4666 
L 1663 4331 
L 1119 4331 
L 2284 2444 
L 3450 4331 
L 2925 4331 
L 2925 4666 
L 4281 4666 
L 4281 4331 
L 3841 4331 
L 2438 2069 
L 2438 331 
L 3034 331 
L 3034 0 
L 1209 0 
z
" transform="scale(0.015625)"/>
      <path id="DejaVuSerif-29" d="M 453 -997 
L 453 -691 
Q 934 -359 1145 242 
Q 1356 844 1356 1931 
Q 1356 3022 1145 3623 
Q 934 4225 453 4556 
L 453 4863 
Q 1216 4522 1603 3783 
Q 1991 3044 1991 1931 
Q 1991 822 1603 83 
Q 1216 -656 453 -997 
z
" transform="scale(0.015625)"/>
     </defs>
     <use xlink:href="#DejaVuSerif-41"/>
     <use xlink:href="#DejaVuSerif-6e" x="72.216797"/>
     <use xlink:href="#DejaVuSerif-6e" x="136.621094"/>
     <use xlink:href="#DejaVuSerif-75" x="201.025391"/>
     <use xlink:href="#DejaVuSerif-61" x="265.429688"/>
     <use xlink:href="#DejaVuSerif-6c" x="325.048828"/>
     <use xlink:href="#DejaVuSerif-20" x="357.03125"/>
     <use xlink:href="#DejaVuSerif-69" x="388.818359"/>
     <use xlink:href="#DejaVuSerif-6e" x="420.800781"/>
     <use xlink:href="#DejaVuSerif-66" x="485.205078"/>
     <use xlink:href="#DejaVuSerif-6c" x="522.216797"/>
     <use xlink:href="#DejaVuSerif-61" x="554.199219"/>
     <use xlink:href="#DejaVuSerif-74" x="613.818359"/>
     <use xlink:href="#DejaVuSerif-69" x="654.003906"/>
     <use xlink:href="#DejaVuSerif-6f" x="685.986328"/>
     <use xlink:href="#DejaVuSerif-6e" x="746.191406"/>
     <use xlink:href="#DejaVuSerif-20" x="810.595703"/>
     <use xlink:href="#DejaVuSerif-72" x="842.382812"/>
     <use xlink:href="#DejaVuSerif-61" x="890.185547"/>
     <use xlink:href="#DejaVuSerif-74" x="949.804688"/>
     <use xlink:href="#DejaVuSerif-65" x="989.990234"/>
     <use xlink:href="#DejaVuSerif-20" x="1049.169922"/>
     <use xlink:href="#DejaVuSerif-28" x="1080.957031"/>
     <use xlink:href="#DejaVuSerif-6d" x="1119.970703"/>
     <use xlink:href="#DejaVuSerif-6f" x="1214.794922"/>
     <use xlink:href="#DejaVuSerif-6e" x="1275"/>
     <use xlink:href="#DejaVuSerif-74" x="1339.404297"/>
     <use xlink:href="#DejaVuSerif-68" x="1379.589844"/>
     <use xlink:href="#DejaVuSerif-6c" x="1443.994141"/>
     <use xlink:href="#DejaVuSerif-79" x="1475.976562"/>
     <use xlink:href="#DejaVuSerif-2c" x="1519.220703"/>
     <use xlink:href="#DejaVuSerif-20" x="1551.007812"/>
     <use xlink:href="#DejaVuSerif-59" x="1582.794922"/>
     <use xlink:href="#DejaVuSerif-6f" x="1640.060547"/>
     <use xlink:href="#DejaVuSerif-59" x="1700.265625"/>
     <use xlink:href="#DejaVuSerif-29" x="1766.28125"/>
    </g>
   </g>
   <g id="legend_1">
    <g id="patch_41">
     <path d="M 68.6625 103.70875 
L 117.034375 103.70875 
Q 119.034375 103.70875 119.034375 101.70875 
L 119.034375 29.318125 
Q 119.034375 27.318125 117.034375 27.318125 
L 68.6625 27.318125 
Q 66.6625 27.318125 66.6625 29.318125 
L 66.6625 101.70875 
Q 66.6625 103.70875 68.6625 103.70875 
z
" style="fill: #ffffff; opacity: 0.8; stroke: #cccccc; stroke-linejoin: miter"/>
    </g>
    <g id="line2d_34">
     <path d="M 70.6625 35.416562 
L 80.6625 35.416562 
L 90.6625 35.416562 
" style="fill: none; stroke: #1f77b4; stroke-width: 1.5; stroke-linecap: square"/>
    </g>
    <g id="text_22">
     <!-- US -->
     <g transform="translate(98.6625 38.916562) scale(0.1 -0.1)">
      <defs>
       <path id="DejaVuSerif-55" d="M 897 4331 
L 300 4331 
L 300 4666 
L 2125 4666 
L 2125 4331 
L 1528 4331 
L 1528 1919 
Q 1528 1025 1820 672 
Q 2113 319 2828 319 
Q 3544 319 3836 672 
Q 4128 1025 4128 1919 
L 4128 4331 
L 3531 4331 
L 3531 4666 
L 5106 4666 
L 5106 4331 
L 4513 4331 
L 4513 1856 
Q 4513 791 4103 350 
Q 3694 -91 2713 -91 
Q 1731 -91 1314 353 
Q 897 797 897 1856 
L 897 4331 
z
" transform="scale(0.015625)"/>
       <path id="DejaVuSerif-53" d="M 594 225 
L 594 1288 
L 953 1284 
Q 969 753 1261 498 
Q 1553 244 2150 244 
Q 2706 244 2998 464 
Q 3291 684 3291 1106 
Q 3291 1444 3114 1625 
Q 2938 1806 2369 1978 
L 1753 2163 
Q 1084 2366 811 2669 
Q 538 2972 538 3500 
Q 538 4094 959 4422 
Q 1381 4750 2144 4750 
Q 2469 4750 2856 4679 
Q 3244 4609 3681 4475 
L 3681 3481 
L 3328 3481 
Q 3275 3975 2998 4195 
Q 2722 4416 2156 4416 
Q 1663 4416 1405 4214 
Q 1147 4013 1147 3628 
Q 1147 3294 1340 3103 
Q 1534 2913 2163 2725 
L 2741 2553 
Q 3375 2363 3645 2067 
Q 3916 1772 3916 1275 
Q 3916 597 3481 253 
Q 3047 -91 2188 -91 
Q 1803 -91 1404 -12 
Q 1006 66 594 225 
z
" transform="scale(0.015625)"/>
      </defs>
      <use xlink:href="#DejaVuSerif-55"/>
      <use xlink:href="#DejaVuSerif-53" x="84.277344"/>
     </g>
    </g>
    <g id="line2d_35">
     <path d="M 70.6625 50.094687 
L 80.6625 50.094687 
L 90.6625 50.094687 
" style="fill: none; stroke: #ff7f0e; stroke-width: 1.5; stroke-linecap: square"/>
    </g>
    <g id="text_23">
     <!-- EU -->
     <g transform="translate(98.6625 53.594687) scale(0.1 -0.1)">
      <defs>
       <path id="DejaVuSerif-45" d="M 353 0 
L 353 331 
L 947 331 
L 947 4331 
L 353 4331 
L 353 4666 
L 4109 4666 
L 4109 3628 
L 3725 3628 
L 3725 4281 
L 1581 4281 
L 1581 2719 
L 3109 2719 
L 3109 3303 
L 3494 3303 
L 3494 1753 
L 3109 1753 
L 3109 2338 
L 1581 2338 
L 1581 384 
L 3775 384 
L 3775 1038 
L 4159 1038 
L 4159 0 
L 353 0 
z
" transform="scale(0.015625)"/>
      </defs>
      <use xlink:href="#DejaVuSerif-45"/>
      <use xlink:href="#DejaVuSerif-55" x="72.998047"/>
     </g>
    </g>
    <g id="line2d_36">
     <path d="M 70.6625 64.772812 
L 80.6625 64.772812 
L 90.6625 64.772812 
" style="fill: none; stroke: #2ca02c; stroke-width: 1.5; stroke-linecap: square"/>
    </g>
    <g id="text_24">
     <!-- UK -->
     <g transform="translate(98.6625 68.272812) scale(0.1 -0.1)">
      <defs>
       <path id="DejaVuSerif-4b" d="M 353 0 
L 353 331 
L 947 331 
L 947 4331 
L 353 4331 
L 353 4666 
L 2175 4666 
L 2175 4331 
L 1581 4331 
L 1581 2566 
L 3591 4331 
L 3084 4331 
L 3084 4666 
L 4634 4666 
L 4634 4331 
L 4109 4331 
L 2106 2572 
L 4347 331 
L 4878 331 
L 4878 0 
L 3794 0 
L 1581 2216 
L 1581 331 
L 2175 331 
L 2175 0 
L 353 0 
z
" transform="scale(0.015625)"/>
      </defs>
      <use xlink:href="#DejaVuSerif-55"/>
      <use xlink:href="#DejaVuSerif-4b" x="84.277344"/>
     </g>
    </g>
    <g id="line2d_37">
     <path d="M 70.6625 79.450938 
L 80.6625 79.450938 
L 90.6625 79.450938 
" style="fill: none; stroke: #d62728; stroke-width: 1.5; stroke-linecap: square"/>
    </g>
    <g id="text_25">
     <!-- CH -->
     <g transform="translate(98.6625 82.950938) scale(0.1 -0.1)">
      <defs>
       <path id="DejaVuSerif-48" d="M 353 0 
L 353 331 
L 947 331 
L 947 4331 
L 353 4331 
L 353 4666 
L 2175 4666 
L 2175 4331 
L 1581 4331 
L 1581 2719 
L 4000 2719 
L 4000 4331 
L 3406 4331 
L 3406 4666 
L 5228 4666 
L 5228 4331 
L 4634 4331 
L 4634 331 
L 5228 331 
L 5228 0 
L 3406 0 
L 3406 331 
L 4000 331 
L 4000 2338 
L 1581 2338 
L 1581 331 
L 2175 331 
L 2175 0 
L 353 0 
z
" transform="scale(0.015625)"/>
      </defs>
      <use xlink:href="#DejaVuSerif-43"/>
      <use xlink:href="#DejaVuSerif-48" x="76.513672"/>
     </g>
    </g>
    <g id="line2d_38">
     <path d="M 70.6625 94.129063 
L 80.6625 94.129063 
L 90.6625 94.129063 
" style="fill: none; stroke: #9467bd; stroke-width: 1.5; stroke-linecap: square"/>
    </g>
    <g id="text_26">
     <!-- JP -->
     <g transform="translate(98.6625 97.629063) scale(0.1 -0.1)">
      <defs>
       <path id="DejaVuSerif-4a" d="M -538 -1119 
L -538 -384 
L -181 -384 
Q -172 -694 -34 -845 
Q 103 -997 378 -997 
Q 750 -997 897 -762 
Q 1044 -528 1044 153 
L 1044 4331 
L 319 4331 
L 319 4666 
L 2272 4666 
L 2272 4331 
L 1678 4331 
L 1678 128 
Q 1678 -644 1368 -987 
Q 1059 -1331 372 -1331 
Q 150 -1331 -79 -1278 
Q -309 -1225 -538 -1119 
z
" transform="scale(0.015625)"/>
      </defs>
      <use xlink:href="#DejaVuSerif-4a"/>
      <use xlink:href="#DejaVuSerif-50" x="40.087891"/>
     </g>
    </g>
   </g>
  </g>
 </g>
 <defs>
  <clipPath id="pb74c3e0f80">
   <rect x="61.6625" y="22.318125" width="357.12" height="235.008"/>
  </clipPath>
 </defs>
</svg>
