<?xml version="1.0" encoding="utf-8" standalone="no"?>
<!DOCTYPE svg PUBLIC "-//W3C//DTD SVG 1.1//EN"
  "http://www.w3.org/Graphics/SVG/1.1/DTD/svg11.dtd">
<svg xmlns:xlink="http://www.w3.org/1999/xlink" width="432.566875pt" height="312.30825pt" viewBox="0 0 432.566875 312.30825" xmlns="http://www.w3.org/2000/svg" version="1.1">
 <metadata>
  <rdf:RDF xmlns:dc="http://purl.org/dc/elements/1.1/" xmlns:cc="http://creativecommons.org/ns#" xmlns:rdf="http://www.w3.org/1999/02/22-rdf-syntax-ns#">
   <cc:Work>
    <dc:type rdf:resource="http://purl.org/dc/dcmitype/StillImage"/>
    <dc:date>2024-11-06T21:53:33.948289</dc:date>
    <dc:format>image/svg+xml</dc:format>
    <dc:creator>
     <cc:Agent>
      <dc:title>Matplotlib v3.9.0, https://matplotlib.org/</dc:title>
     </cc:Agent>
    </dc:creator>
   </cc:Work>
  </rdf:RDF>
 </metadata>
 <defs>
  <style type="text/css">*{stroke-linejoin: round; stroke-linecap: butt}</style>
 </defs>
 <g id="figure_1">
  <g id="patch_1">
   <path d="M 0 312.30825 
L 432.566875 312.30825 
L 432.566875 0 
L 0 0 
z
" style="fill: #ffffff"/>
  </g>
  <g id="axes_1">
   <g id="patch_2">
    <path d="M 68.246875 288.430125 
L 425.366875 288.430125 
L 425.366875 22.318125 
L 68.246875 22.318125 
z
" style="fill: #ffffff"/>
   </g>
   <g id="patch_3">
    <path d="M -1219.848022 288.430125 
L -1205.070642 288.430125 
L -1205.070642 22.318125 
L -1219.848022 22.318125 
z
" clip-path="url(#p785014f842)" style="fill: #d3d3d3"/>
   </g>
   <g id="patch_4">
    <path d="M -1187.830366 288.430125 
L -1177.97878 288.430125 
L -1177.97878 22.318125 
L -1187.830366 22.318125 
z
" clip-path="url(#p785014f842)" style="fill: #d3d3d3"/>
   </g>
   <g id="patch_5">
    <path d="M -1143.498228 288.430125 
L -1123.795056 288.430125 
L -1123.795056 22.318125 
L -1143.498228 22.318125 
z
" clip-path="url(#p785014f842)" style="fill: #d3d3d3"/>
   </g>
   <g id="patch_6">
    <path d="M -1101.628987 288.430125 
L -1086.851608 288.430125 
L -1086.851608 22.318125 
L -1101.628987 22.318125 
z
" clip-path="url(#p785014f842)" style="fill: #d3d3d3"/>
   </g>
   <g id="patch_7">
    <path d="M -1059.759746 288.430125 
L -1005.576022 288.430125 
L -1005.576022 22.318125 
L -1059.759746 22.318125 
z
" clip-path="url(#p785014f842)" style="fill: #d3d3d3"/>
   </g>
   <g id="patch_8">
    <path d="M -976.021263 288.430125 
L -944.003608 288.430125 
L -944.003608 22.318125 
L -976.021263 22.318125 
z
" clip-path="url(#p785014f842)" style="fill: #d3d3d3"/>
   </g>
   <g id="patch_9">
    <path d="M -924.300435 288.430125 
L -916.911746 288.430125 
L -916.911746 22.318125 
L -924.300435 22.318125 
z
" clip-path="url(#p785014f842)" style="fill: #d3d3d3"/>
   </g>
   <g id="patch_10">
    <path d="M -892.28278 288.430125 
L -884.894091 288.430125 
L -884.894091 22.318125 
L -892.28278 22.318125 
z
" clip-path="url(#p785014f842)" style="fill: #d3d3d3"/>
   </g>
   <g id="patch_11">
    <path d="M -867.653815 288.430125 
L -855.339332 288.430125 
L -855.339332 22.318125 
L -867.653815 22.318125 
z
" clip-path="url(#p785014f842)" style="fill: #d3d3d3"/>
   </g>
   <g id="patch_12">
    <path d="M -840.561953 288.430125 
L -825.784573 288.430125 
L -825.784573 22.318125 
L -840.561953 22.318125 
z
" clip-path="url(#p785014f842)" style="fill: #d3d3d3"/>
   </g>
   <g id="patch_13">
    <path d="M -803.618504 288.430125 
L -791.304022 288.430125 
L -791.304022 22.318125 
L -803.618504 22.318125 
z
" clip-path="url(#p785014f842)" style="fill: #d3d3d3"/>
   </g>
   <g id="patch_14">
    <path d="M -771.600849 288.430125 
L -754.360573 288.430125 
L -754.360573 22.318125 
L -771.600849 22.318125 
z
" clip-path="url(#p785014f842)" style="fill: #d3d3d3"/>
   </g>
   <g id="patch_15">
    <path d="M -727.268711 288.430125 
L -717.417125 288.430125 
L -717.417125 22.318125 
L -727.268711 22.318125 
z
" clip-path="url(#p785014f842)" style="fill: #d3d3d3"/>
   </g>
   <g id="patch_16">
    <path d="M -700.176849 288.430125 
L -682.936573 288.430125 
L -682.936573 22.318125 
L -700.176849 22.318125 
z
" clip-path="url(#p785014f842)" style="fill: #d3d3d3"/>
   </g>
   <g id="patch_17">
    <path d="M -670.622091 288.430125 
L -653.381815 288.430125 
L -653.381815 22.318125 
L -670.622091 22.318125 
z
" clip-path="url(#p785014f842)" style="fill: #d3d3d3"/>
   </g>
   <g id="patch_18">
    <path d="M -616.438366 288.430125 
L -611.512573 288.430125 
L -611.512573 22.318125 
L -616.438366 22.318125 
z
" clip-path="url(#p785014f842)" style="fill: #d3d3d3"/>
   </g>
   <g id="patch_19">
    <path d="M -601.660987 288.430125 
L -586.883608 288.430125 
L -586.883608 22.318125 
L -601.660987 22.318125 
z
" clip-path="url(#p785014f842)" style="fill: #d3d3d3"/>
   </g>
   <g id="patch_20">
    <path d="M -569.643332 288.430125 
L -557.328849 288.430125 
L -557.328849 22.318125 
L -569.643332 22.318125 
z
" clip-path="url(#p785014f842)" style="fill: #d3d3d3"/>
   </g>
   <g id="patch_21">
    <path d="M -537.625677 288.430125 
L -525.311194 288.430125 
L -525.311194 22.318125 
L -537.625677 22.318125 
z
" clip-path="url(#p785014f842)" style="fill: #d3d3d3"/>
   </g>
   <g id="patch_22">
    <path d="M -508.070918 288.430125 
L -473.590366 288.430125 
L -473.590366 22.318125 
L -508.070918 22.318125 
z
" clip-path="url(#p785014f842)" style="fill: #d3d3d3"/>
   </g>
   <g id="patch_23">
    <path d="M -431.721125 288.430125 
L -421.869539 288.430125 
L -421.869539 22.318125 
L -431.721125 22.318125 
z
" clip-path="url(#p785014f842)" style="fill: #d3d3d3"/>
   </g>
   <g id="patch_24">
    <path d="M -355.371332 288.430125 
L -347.982642 288.430125 
L -347.982642 22.318125 
L -355.371332 22.318125 
z
" clip-path="url(#p785014f842)" style="fill: #d3d3d3"/>
   </g>
   <g id="patch_25">
    <path d="M -318.427884 288.430125 
L -308.576297 288.430125 
L -308.576297 22.318125 
L -318.427884 22.318125 
z
" clip-path="url(#p785014f842)" style="fill: #d3d3d3"/>
   </g>
   <g id="patch_26">
    <path d="M -274.095746 288.430125 
L -264.244159 288.430125 
L -264.244159 22.318125 
L -274.095746 22.318125 
z
" clip-path="url(#p785014f842)" style="fill: #d3d3d3"/>
   </g>
   <g id="patch_27">
    <path d="M -232.226504 288.430125 
L -224.837815 288.430125 
L -224.837815 22.318125 
L -232.226504 22.318125 
z
" clip-path="url(#p785014f842)" style="fill: #d3d3d3"/>
   </g>
   <g id="patch_28">
    <path d="M -205.134642 288.430125 
L -197.745953 288.430125 
L -197.745953 22.318125 
L -205.134642 22.318125 
z
" clip-path="url(#p785014f842)" style="fill: #d3d3d3"/>
   </g>
   <g id="patch_29">
    <path d="M -111.544573 288.430125 
L -101.692987 288.430125 
L -101.692987 22.318125 
L -111.544573 22.318125 
z
" clip-path="url(#p785014f842)" style="fill: #d3d3d3"/>
   </g>
   <g id="patch_30">
    <path d="M -72.138228 288.430125 
L -59.823746 288.430125 
L -59.823746 22.318125 
L -72.138228 22.318125 
z
" clip-path="url(#p785014f842)" style="fill: #d3d3d3"/>
   </g>
   <g id="patch_31">
    <path d="M -10.565815 288.430125 
L -5.640022 288.430125 
L -5.640022 22.318125 
L -10.565815 22.318125 
z
" clip-path="url(#p785014f842)" style="fill: #d3d3d3"/>
   </g>
   <g id="patch_32">
    <path d="M 4.211565 288.430125 
L 16.526047 288.430125 
L 16.526047 22.318125 
L 4.211565 22.318125 
z
" clip-path="url(#p785014f842)" style="fill: #d3d3d3"/>
   </g>
   <g id="patch_33">
    <path d="M 92.875841 288.430125 
L 97.801634 288.430125 
L 97.801634 22.318125 
L 92.875841 22.318125 
z
" clip-path="url(#p785014f842)" style="fill: #d3d3d3"/>
   </g>
   <g id="patch_34">
    <path d="M 196.317496 288.430125 
L 203.706185 288.430125 
L 203.706185 22.318125 
L 196.317496 22.318125 
z
" clip-path="url(#p785014f842)" style="fill: #d3d3d3"/>
   </g>
   <g id="patch_35">
    <path d="M 262.815703 288.430125 
L 277.593082 288.430125 
L 277.593082 22.318125 
L 262.815703 22.318125 
z
" clip-path="url(#p785014f842)" style="fill: #d3d3d3"/>
   </g>
   <g id="patch_36">
    <path d="M 381.034737 288.430125 
L 385.96053 288.430125 
L 385.96053 22.318125 
L 381.034737 22.318125 
z
" clip-path="url(#p785014f842)" style="fill: #d3d3d3"/>
   </g>
   <g id="matplotlib.axis_1">
    <g id="xtick_1">
     <g id="line2d_1">
      <defs>
       <path id="m19b8e1447c" d="M 0 0 
L 0 3.5 
" style="stroke: #000000; stroke-width: 0.8"/>
      </defs>
      <g>
       <use xlink:href="#m19b8e1447c" x="87.950047" y="288.430125" style="stroke: #000000; stroke-width: 0.8"/>
      </g>
     </g>
     <g id="text_1">
      <!-- 1990 -->
      <g transform="translate(75.225047 303.028562) scale(0.1 -0.1)">
       <defs>
        <path id="DejaVuSerif-31" d="M 909 0 
L 909 331 
L 1722 331 
L 1722 4213 
L 781 3603 
L 781 4013 
L 1919 4750 
L 2350 4750 
L 2350 331 
L 3163 331 
L 3163 0 
L 909 0 
z
" transform="scale(0.015625)"/>
        <path id="DejaVuSerif-39" d="M 2994 2091 
Q 2784 1856 2512 1740 
Q 2241 1625 1900 1625 
Q 1206 1625 804 2044 
Q 403 2463 403 3188 
Q 403 3897 839 4323 
Q 1275 4750 2003 4750 
Q 2794 4750 3217 4161 
Q 3641 3572 3641 2478 
Q 3641 1253 3137 581 
Q 2634 -91 1722 -91 
Q 1475 -91 1203 -44 
Q 931 3 647 97 
L 647 872 
L 997 872 
Q 1038 556 1241 387 
Q 1444 219 1784 219 
Q 2391 219 2687 676 
Q 2984 1134 2994 2091 
z
M 1978 4441 
Q 1534 4441 1298 4117 
Q 1063 3794 1063 3188 
Q 1063 2581 1298 2256 
Q 1534 1931 1978 1931 
Q 2422 1931 2658 2245 
Q 2894 2559 2894 3150 
Q 2894 3772 2656 4106 
Q 2419 4441 1978 4441 
z
" transform="scale(0.015625)"/>
        <path id="DejaVuSerif-30" d="M 2034 219 
Q 2513 219 2750 744 
Q 2988 1269 2988 2328 
Q 2988 3391 2750 3916 
Q 2513 4441 2034 4441 
Q 1556 4441 1318 3916 
Q 1081 3391 1081 2328 
Q 1081 1269 1318 744 
Q 1556 219 2034 219 
z
M 2034 -91 
Q 1275 -91 848 546 
Q 422 1184 422 2328 
Q 422 3475 848 4112 
Q 1275 4750 2034 4750 
Q 2797 4750 3222 4112 
Q 3647 3475 3647 2328 
Q 3647 1184 3222 546 
Q 2797 -91 2034 -91 
z
" transform="scale(0.015625)"/>
       </defs>
       <use xlink:href="#DejaVuSerif-31"/>
       <use xlink:href="#DejaVuSerif-39" x="63.623047"/>
       <use xlink:href="#DejaVuSerif-39" x="127.246094"/>
       <use xlink:href="#DejaVuSerif-30" x="190.869141"/>
      </g>
     </g>
    </g>
    <g id="xtick_2">
     <g id="line2d_2">
      <g>
       <use xlink:href="#m19b8e1447c" x="137.207978" y="288.430125" style="stroke: #000000; stroke-width: 0.8"/>
      </g>
     </g>
     <g id="text_2">
      <!-- 1995 -->
      <g transform="translate(124.482978 303.028562) scale(0.1 -0.1)">
       <defs>
        <path id="DejaVuSerif-35" d="M 3219 4666 
L 3219 4153 
L 1081 4153 
L 1081 2816 
Q 1244 2928 1461 2984 
Q 1678 3041 1947 3041 
Q 2703 3041 3140 2622 
Q 3578 2203 3578 1478 
Q 3578 738 3136 323 
Q 2694 -91 1894 -91 
Q 1572 -91 1234 -12 
Q 897 66 544 225 
L 544 1131 
L 897 1131 
Q 925 688 1179 453 
Q 1434 219 1894 219 
Q 2388 219 2653 544 
Q 2919 869 2919 1478 
Q 2919 2084 2655 2407 
Q 2391 2731 1894 2731 
Q 1613 2731 1398 2631 
Q 1184 2531 1019 2322 
L 750 2322 
L 750 4666 
L 3219 4666 
z
" transform="scale(0.015625)"/>
       </defs>
       <use xlink:href="#DejaVuSerif-31"/>
       <use xlink:href="#DejaVuSerif-39" x="63.623047"/>
       <use xlink:href="#DejaVuSerif-39" x="127.246094"/>
       <use xlink:href="#DejaVuSerif-35" x="190.869141"/>
      </g>
     </g>
    </g>
    <g id="xtick_3">
     <g id="line2d_3">
      <g>
       <use xlink:href="#m19b8e1447c" x="186.465909" y="288.430125" style="stroke: #000000; stroke-width: 0.8"/>
      </g>
     </g>
     <g id="text_3">
      <!-- 2000 -->
      <g transform="translate(173.740909 303.028562) scale(0.1 -0.1)">
       <defs>
        <path id="DejaVuSerif-32" d="M 819 3553 
L 469 3553 
L 469 4384 
Q 803 4563 1142 4656 
Q 1481 4750 1806 4750 
Q 2534 4750 2956 4397 
Q 3378 4044 3378 3438 
Q 3378 2753 2422 1800 
Q 2347 1728 2309 1691 
L 1131 513 
L 3078 513 
L 3078 1088 
L 3444 1088 
L 3444 0 
L 434 0 
L 434 341 
L 1850 1753 
Q 2319 2222 2519 2614 
Q 2719 3006 2719 3438 
Q 2719 3909 2473 4175 
Q 2228 4441 1797 4441 
Q 1350 4441 1106 4219 
Q 863 3997 819 3553 
z
" transform="scale(0.015625)"/>
       </defs>
       <use xlink:href="#DejaVuSerif-32"/>
       <use xlink:href="#DejaVuSerif-30" x="63.623047"/>
       <use xlink:href="#DejaVuSerif-30" x="127.246094"/>
       <use xlink:href="#DejaVuSerif-30" x="190.869141"/>
      </g>
     </g>
    </g>
    <g id="xtick_4">
     <g id="line2d_4">
      <g>
       <use xlink:href="#m19b8e1447c" x="235.723841" y="288.430125" style="stroke: #000000; stroke-width: 0.8"/>
      </g>
     </g>
     <g id="text_4">
      <!-- 2005 -->
      <g transform="translate(222.998841 303.028562) scale(0.1 -0.1)">
       <use xlink:href="#DejaVuSerif-32"/>
       <use xlink:href="#DejaVuSerif-30" x="63.623047"/>
       <use xlink:href="#DejaVuSerif-30" x="127.246094"/>
       <use xlink:href="#DejaVuSerif-35" x="190.869141"/>
      </g>
     </g>
    </g>
    <g id="xtick_5">
     <g id="line2d_5">
      <g>
       <use xlink:href="#m19b8e1447c" x="284.981772" y="288.430125" style="stroke: #000000; stroke-width: 0.8"/>
      </g>
     </g>
     <g id="text_5">
      <!-- 2010 -->
      <g transform="translate(272.256772 303.028562) scale(0.1 -0.1)">
       <use xlink:href="#DejaVuSerif-32"/>
       <use xlink:href="#DejaVuSerif-30" x="63.623047"/>
       <use xlink:href="#DejaVuSerif-31" x="127.246094"/>
       <use xlink:href="#DejaVuSerif-30" x="190.869141"/>
      </g>
     </g>
    </g>
    <g id="xtick_6">
     <g id="line2d_6">
      <g>
       <use xlink:href="#m19b8e1447c" x="334.239703" y="288.430125" style="stroke: #000000; stroke-width: 0.8"/>
      </g>
     </g>
     <g id="text_6">
      <!-- 2015 -->
      <g transform="translate(321.514703 303.028562) scale(0.1 -0.1)">
       <use xlink:href="#DejaVuSerif-32"/>
       <use xlink:href="#DejaVuSerif-30" x="63.623047"/>
       <use xlink:href="#DejaVuSerif-31" x="127.246094"/>
       <use xlink:href="#DejaVuSerif-35" x="190.869141"/>
      </g>
     </g>
    </g>
    <g id="xtick_7">
     <g id="line2d_7">
      <g>
       <use xlink:href="#m19b8e1447c" x="383.497634" y="288.430125" style="stroke: #000000; stroke-width: 0.8"/>
      </g>
     </g>
     <g id="text_7">
      <!-- 2020 -->
      <g transform="translate(370.772634 303.028562) scale(0.1 -0.1)">
       <use xlink:href="#DejaVuSerif-32"/>
       <use xlink:href="#DejaVuSerif-30" x="63.623047"/>
       <use xlink:href="#DejaVuSerif-32" x="127.246094"/>
       <use xlink:href="#DejaVuSerif-30" x="190.869141"/>
      </g>
     </g>
    </g>
    <g id="xtick_8">
     <g id="line2d_8">
      <defs>
       <path id="mbbb93437cf" d="M 0 0 
L 0 2 
" style="stroke: #000000; stroke-width: 0.6"/>
      </defs>
      <g>
       <use xlink:href="#mbbb93437cf" x="68.246875" y="288.430125" style="stroke: #000000; stroke-width: 0.6"/>
      </g>
     </g>
    </g>
    <g id="xtick_9">
     <g id="line2d_9">
      <g>
       <use xlink:href="#mbbb93437cf" x="78.098461" y="288.430125" style="stroke: #000000; stroke-width: 0.6"/>
      </g>
     </g>
    </g>
    <g id="xtick_10">
     <g id="line2d_10">
      <g>
       <use xlink:href="#mbbb93437cf" x="97.801634" y="288.430125" style="stroke: #000000; stroke-width: 0.6"/>
      </g>
     </g>
    </g>
    <g id="xtick_11">
     <g id="line2d_11">
      <g>
       <use xlink:href="#mbbb93437cf" x="107.65322" y="288.430125" style="stroke: #000000; stroke-width: 0.6"/>
      </g>
     </g>
    </g>
    <g id="xtick_12">
     <g id="line2d_12">
      <g>
       <use xlink:href="#mbbb93437cf" x="117.504806" y="288.430125" style="stroke: #000000; stroke-width: 0.6"/>
      </g>
     </g>
    </g>
    <g id="xtick_13">
     <g id="line2d_13">
      <g>
       <use xlink:href="#mbbb93437cf" x="127.356392" y="288.430125" style="stroke: #000000; stroke-width: 0.6"/>
      </g>
     </g>
    </g>
    <g id="xtick_14">
     <g id="line2d_14">
      <g>
       <use xlink:href="#mbbb93437cf" x="147.059565" y="288.430125" style="stroke: #000000; stroke-width: 0.6"/>
      </g>
     </g>
    </g>
    <g id="xtick_15">
     <g id="line2d_15">
      <g>
       <use xlink:href="#mbbb93437cf" x="156.911151" y="288.430125" style="stroke: #000000; stroke-width: 0.6"/>
      </g>
     </g>
    </g>
    <g id="xtick_16">
     <g id="line2d_16">
      <g>
       <use xlink:href="#mbbb93437cf" x="166.762737" y="288.430125" style="stroke: #000000; stroke-width: 0.6"/>
      </g>
     </g>
    </g>
    <g id="xtick_17">
     <g id="line2d_17">
      <g>
       <use xlink:href="#mbbb93437cf" x="176.614323" y="288.430125" style="stroke: #000000; stroke-width: 0.6"/>
      </g>
     </g>
    </g>
    <g id="xtick_18">
     <g id="line2d_18">
      <g>
       <use xlink:href="#mbbb93437cf" x="196.317496" y="288.430125" style="stroke: #000000; stroke-width: 0.6"/>
      </g>
     </g>
    </g>
    <g id="xtick_19">
     <g id="line2d_19">
      <g>
       <use xlink:href="#mbbb93437cf" x="206.169082" y="288.430125" style="stroke: #000000; stroke-width: 0.6"/>
      </g>
     </g>
    </g>
    <g id="xtick_20">
     <g id="line2d_20">
      <g>
       <use xlink:href="#mbbb93437cf" x="216.020668" y="288.430125" style="stroke: #000000; stroke-width: 0.6"/>
      </g>
     </g>
    </g>
    <g id="xtick_21">
     <g id="line2d_21">
      <g>
       <use xlink:href="#mbbb93437cf" x="225.872254" y="288.430125" style="stroke: #000000; stroke-width: 0.6"/>
      </g>
     </g>
    </g>
    <g id="xtick_22">
     <g id="line2d_22">
      <g>
       <use xlink:href="#mbbb93437cf" x="245.575427" y="288.430125" style="stroke: #000000; stroke-width: 0.6"/>
      </g>
     </g>
    </g>
    <g id="xtick_23">
     <g id="line2d_23">
      <g>
       <use xlink:href="#mbbb93437cf" x="255.427013" y="288.430125" style="stroke: #000000; stroke-width: 0.6"/>
      </g>
     </g>
    </g>
    <g id="xtick_24">
     <g id="line2d_24">
      <g>
       <use xlink:href="#mbbb93437cf" x="265.278599" y="288.430125" style="stroke: #000000; stroke-width: 0.6"/>
      </g>
     </g>
    </g>
    <g id="xtick_25">
     <g id="line2d_25">
      <g>
       <use xlink:href="#mbbb93437cf" x="275.130185" y="288.430125" style="stroke: #000000; stroke-width: 0.6"/>
      </g>
     </g>
    </g>
    <g id="xtick_26">
     <g id="line2d_26">
      <g>
       <use xlink:href="#mbbb93437cf" x="294.833358" y="288.430125" style="stroke: #000000; stroke-width: 0.6"/>
      </g>
     </g>
    </g>
    <g id="xtick_27">
     <g id="line2d_27">
      <g>
       <use xlink:href="#mbbb93437cf" x="304.684944" y="288.430125" style="stroke: #000000; stroke-width: 0.6"/>
      </g>
     </g>
    </g>
    <g id="xtick_28">
     <g id="line2d_28">
      <g>
       <use xlink:href="#mbbb93437cf" x="314.53653" y="288.430125" style="stroke: #000000; stroke-width: 0.6"/>
      </g>
     </g>
    </g>
    <g id="xtick_29">
     <g id="line2d_29">
      <g>
       <use xlink:href="#mbbb93437cf" x="324.388116" y="288.430125" style="stroke: #000000; stroke-width: 0.6"/>
      </g>
     </g>
    </g>
    <g id="xtick_30">
     <g id="line2d_30">
      <g>
       <use xlink:href="#mbbb93437cf" x="344.091289" y="288.430125" style="stroke: #000000; stroke-width: 0.6"/>
      </g>
     </g>
    </g>
    <g id="xtick_31">
     <g id="line2d_31">
      <g>
       <use xlink:href="#mbbb93437cf" x="353.942875" y="288.430125" style="stroke: #000000; stroke-width: 0.6"/>
      </g>
     </g>
    </g>
    <g id="xtick_32">
     <g id="line2d_32">
      <g>
       <use xlink:href="#mbbb93437cf" x="363.794461" y="288.430125" style="stroke: #000000; stroke-width: 0.6"/>
      </g>
     </g>
    </g>
    <g id="xtick_33">
     <g id="line2d_33">
      <g>
       <use xlink:href="#mbbb93437cf" x="373.646047" y="288.430125" style="stroke: #000000; stroke-width: 0.6"/>
      </g>
     </g>
    </g>
    <g id="xtick_34">
     <g id="line2d_34">
      <g>
       <use xlink:href="#mbbb93437cf" x="393.34922" y="288.430125" style="stroke: #000000; stroke-width: 0.6"/>
      </g>
     </g>
    </g>
    <g id="xtick_35">
     <g id="line2d_35">
      <g>
       <use xlink:href="#mbbb93437cf" x="403.200806" y="288.430125" style="stroke: #000000; stroke-width: 0.6"/>
      </g>
     </g>
    </g>
    <g id="xtick_36">
     <g id="line2d_36">
      <g>
       <use xlink:href="#mbbb93437cf" x="413.052392" y="288.430125" style="stroke: #000000; stroke-width: 0.6"/>
      </g>
     </g>
    </g>
    <g id="xtick_37">
     <g id="line2d_37">
      <g>
       <use xlink:href="#mbbb93437cf" x="422.903978" y="288.430125" style="stroke: #000000; stroke-width: 0.6"/>
      </g>
     </g>
    </g>
   </g>
   <g id="matplotlib.axis_2">
    <g id="ytick_1">
     <g id="line2d_38">
      <path d="M 68.246875 255.399468 
L 425.366875 255.399468 
" clip-path="url(#p785014f842)" style="fill: none; stroke-dasharray: 2.96,1.28; stroke-dashoffset: 0; stroke: #b0b0b0; stroke-width: 0.8"/>
     </g>
     <g id="line2d_39">
      <defs>
       <path id="m0be988008b" d="M 0 0 
L -3.5 0 
" style="stroke: #000000; stroke-width: 0.8"/>
      </defs>
      <g>
       <use xlink:href="#m0be988008b" x="68.246875" y="255.399468" style="stroke: #000000; stroke-width: 0.8"/>
      </g>
     </g>
     <g id="text_8">
      <!-- −20.0% -->
      <g transform="translate(21.1 259.198687) scale(0.1 -0.1)">
       <defs>
        <path id="DejaVuSerif-2212" d="M 678 2259 
L 4684 2259 
L 4684 1753 
L 678 1753 
L 678 2259 
z
" transform="scale(0.015625)"/>
        <path id="DejaVuSerif-2e" d="M 603 325 
Q 603 500 722 622 
Q 841 744 1019 744 
Q 1191 744 1312 622 
Q 1434 500 1434 325 
Q 1434 153 1312 31 
Q 1191 -91 1019 -91 
Q 841 -91 722 29 
Q 603 150 603 325 
z
" transform="scale(0.015625)"/>
        <path id="DejaVuSerif-25" d="M 1434 4459 
Q 1159 4459 1004 4200 
Q 850 3941 850 3475 
Q 850 3016 1008 2753 
Q 1166 2491 1434 2491 
Q 1700 2491 1854 2752 
Q 2009 3013 2009 3475 
Q 2009 3938 1854 4198 
Q 1700 4459 1434 4459 
z
M 4653 2169 
Q 4381 2169 4226 1906 
Q 4072 1644 4072 1178 
Q 4072 719 4228 458 
Q 4384 197 4653 197 
Q 4922 197 5075 458 
Q 5228 719 5228 1178 
Q 5228 1641 5073 1905 
Q 4919 2169 4653 2169 
z
M 4653 2450 
Q 5147 2450 5437 2106 
Q 5728 1763 5728 1178 
Q 5728 594 5436 251 
Q 5144 -91 4653 -91 
Q 4153 -91 3862 251 
Q 3572 594 3572 1178 
Q 3572 1766 3864 2108 
Q 4156 2450 4653 2450 
z
M 4263 4750 
L 4738 4750 
L 1819 -91 
L 1344 -91 
L 4263 4750 
z
M 1428 4750 
Q 1922 4750 2215 4408 
Q 2509 4066 2509 3481 
Q 2509 2891 2217 2550 
Q 1925 2209 1428 2209 
Q 931 2209 642 2551 
Q 353 2894 353 3481 
Q 353 4063 643 4406 
Q 934 4750 1428 4750 
z
" transform="scale(0.015625)"/>
       </defs>
       <use xlink:href="#DejaVuSerif-2212"/>
       <use xlink:href="#DejaVuSerif-32" x="83.789062"/>
       <use xlink:href="#DejaVuSerif-30" x="147.412109"/>
       <use xlink:href="#DejaVuSerif-2e" x="211.035156"/>
       <use xlink:href="#DejaVuSerif-30" x="242.822266"/>
       <use xlink:href="#DejaVuSerif-25" x="306.445312"/>
      </g>
     </g>
    </g>
    <g id="ytick_2">
     <g id="line2d_40">
      <path d="M 68.246875 196.788303 
L 425.366875 196.788303 
" clip-path="url(#p785014f842)" style="fill: none; stroke-dasharray: 2.96,1.28; stroke-dashoffset: 0; stroke: #b0b0b0; stroke-width: 0.8"/>
     </g>
     <g id="line2d_41">
      <g>
       <use xlink:href="#m0be988008b" x="68.246875" y="196.788303" style="stroke: #000000; stroke-width: 0.8"/>
      </g>
     </g>
     <g id="text_9">
      <!-- −10.0% -->
      <g transform="translate(21.1 200.587521) scale(0.1 -0.1)">
       <use xlink:href="#DejaVuSerif-2212"/>
       <use xlink:href="#DejaVuSerif-31" x="83.789062"/>
       <use xlink:href="#DejaVuSerif-30" x="147.412109"/>
       <use xlink:href="#DejaVuSerif-2e" x="211.035156"/>
       <use xlink:href="#DejaVuSerif-30" x="242.822266"/>
       <use xlink:href="#DejaVuSerif-25" x="306.445312"/>
      </g>
     </g>
    </g>
    <g id="ytick_3">
     <g id="line2d_42">
      <path d="M 68.246875 138.177137 
L 425.366875 138.177137 
" clip-path="url(#p785014f842)" style="fill: none; stroke-dasharray: 2.96,1.28; stroke-dashoffset: 0; stroke: #b0b0b0; stroke-width: 0.8"/>
     </g>
     <g id="line2d_43">
      <g>
       <use xlink:href="#m0be988008b" x="68.246875" y="138.177137" style="stroke: #000000; stroke-width: 0.8"/>
      </g>
     </g>
     <g id="text_10">
      <!-- 0.0% -->
      <g transform="translate(35.842188 141.976356) scale(0.1 -0.1)">
       <use xlink:href="#DejaVuSerif-30"/>
       <use xlink:href="#DejaVuSerif-2e" x="63.623047"/>
       <use xlink:href="#DejaVuSerif-30" x="95.410156"/>
       <use xlink:href="#DejaVuSerif-25" x="159.033203"/>
      </g>
     </g>
    </g>
    <g id="ytick_4">
     <g id="line2d_44">
      <path d="M 68.246875 79.565972 
L 425.366875 79.565972 
" clip-path="url(#p785014f842)" style="fill: none; stroke-dasharray: 2.96,1.28; stroke-dashoffset: 0; stroke: #b0b0b0; stroke-width: 0.8"/>
     </g>
     <g id="line2d_45">
      <g>
       <use xlink:href="#m0be988008b" x="68.246875" y="79.565972" style="stroke: #000000; stroke-width: 0.8"/>
      </g>
     </g>
     <g id="text_11">
      <!-- 10.0% -->
      <g transform="translate(29.479688 83.365191) scale(0.1 -0.1)">
       <use xlink:href="#DejaVuSerif-31"/>
       <use xlink:href="#DejaVuSerif-30" x="63.623047"/>
       <use xlink:href="#DejaVuSerif-2e" x="127.246094"/>
       <use xlink:href="#DejaVuSerif-30" x="159.033203"/>
       <use xlink:href="#DejaVuSerif-25" x="222.65625"/>
      </g>
     </g>
    </g>
    <g id="text_12">
     <!-- $\Delta\log(x_i)$ -->
     <g transform="translate(14.8 174.774125) rotate(-90) scale(0.1 -0.1)">
      <defs>
       <path id="DejaVuSerif-394" d="M 4350 0 
L 244 0 
L 2034 4666 
L 2559 4666 
L 4350 0 
z
M 3506 331 
L 2138 3909 
L 763 331 
L 3506 331 
z
" transform="scale(0.015625)"/>
       <path id="DejaVuSerif-6c" d="M 1313 331 
L 1856 331 
L 1856 0 
L 184 0 
L 184 331 
L 738 331 
L 738 4531 
L 184 4531 
L 184 4863 
L 1313 4863 
L 1313 331 
z
" transform="scale(0.015625)"/>
       <path id="DejaVuSerif-6f" d="M 1925 219 
Q 2388 219 2623 584 
Q 2859 950 2859 1663 
Q 2859 2375 2623 2739 
Q 2388 3103 1925 3103 
Q 1463 3103 1227 2739 
Q 991 2375 991 1663 
Q 991 950 1228 584 
Q 1466 219 1925 219 
z
M 1925 -91 
Q 1200 -91 759 389 
Q 319 869 319 1663 
Q 319 2456 758 2934 
Q 1197 3413 1925 3413 
Q 2653 3413 3092 2934 
Q 3531 2456 3531 1663 
Q 3531 869 3092 389 
Q 2653 -91 1925 -91 
z
" transform="scale(0.015625)"/>
       <path id="DejaVuSerif-67" d="M 3359 2988 
L 3359 72 
Q 3359 -644 2965 -1033 
Q 2572 -1422 1844 -1422 
Q 1516 -1422 1216 -1362 
Q 916 -1303 641 -1184 
L 641 -488 
L 941 -488 
Q 997 -813 1206 -963 
Q 1416 -1113 1806 -1113 
Q 2313 -1113 2548 -827 
Q 2784 -541 2784 72 
L 2784 519 
Q 2616 206 2355 57 
Q 2094 -91 1709 -91 
Q 1097 -91 708 395 
Q 319 881 319 1663 
Q 319 2444 706 2928 
Q 1094 3413 1709 3413 
Q 2094 3413 2355 3264 
Q 2616 3116 2784 2803 
L 2784 3322 
L 3909 3322 
L 3909 2988 
L 3359 2988 
z
M 2784 1825 
Q 2784 2422 2554 2737 
Q 2325 3053 1888 3053 
Q 1444 3053 1217 2703 
Q 991 2353 991 1663 
Q 991 975 1217 622 
Q 1444 269 1888 269 
Q 2325 269 2554 583 
Q 2784 897 2784 1497 
L 2784 1825 
z
" transform="scale(0.015625)"/>
       <path id="DejaVuSerif-28" d="M 2041 -997 
Q 1281 -656 893 83 
Q 506 822 506 1931 
Q 506 3044 893 3783 
Q 1281 4522 2041 4863 
L 2041 4556 
Q 1559 4225 1350 3623 
Q 1141 3022 1141 1931 
Q 1141 844 1350 242 
Q 1559 -359 2041 -691 
L 2041 -997 
z
" transform="scale(0.015625)"/>
       <path id="DejaVuSerif-Italic-78" d="M 409 0 
L 19 0 
L 1484 1594 
L 747 2988 
L 338 2988 
L 400 3322 
L 1244 3322 
L 1934 2028 
L 3125 3322 
L 3516 3322 
L 2078 1759 
L 2838 331 
L 3272 331 
L 3209 0 
L 2338 0 
L 1631 1325 
L 409 0 
z
" transform="scale(0.015625)"/>
       <path id="DejaVuSerif-Italic-69" d="M 1009 4353 
Q 1038 4497 1163 4603 
Q 1288 4709 1434 4709 
Q 1578 4709 1663 4603 
Q 1728 4522 1728 4422 
Q 1728 4388 1719 4353 
Q 1691 4206 1567 4103 
Q 1444 4000 1297 4000 
Q 1150 4000 1066 4103 
Q 1003 4181 1003 4281 
Q 1003 4316 1009 4353 
z
M 963 331 
L 1506 331 
L 1444 0 
L 325 0 
L 903 2988 
L 353 2988 
L 419 3322 
L 1544 3322 
L 963 331 
z
" transform="scale(0.015625)"/>
       <path id="DejaVuSerif-29" d="M 453 -997 
L 453 -691 
Q 934 -359 1145 242 
Q 1356 844 1356 1931 
Q 1356 3022 1145 3623 
Q 934 4225 453 4556 
L 453 4863 
Q 1216 4522 1603 3783 
Q 1991 3044 1991 1931 
Q 1991 822 1603 83 
Q 1216 -656 453 -997 
z
" transform="scale(0.015625)"/>
      </defs>
      <use xlink:href="#DejaVuSerif-394" transform="translate(0 0.015625)"/>
      <use xlink:href="#DejaVuSerif-6c" transform="translate(72.216797 0.015625)"/>
      <use xlink:href="#DejaVuSerif-6f" transform="translate(104.199219 0.015625)"/>
      <use xlink:href="#DejaVuSerif-67" transform="translate(164.404297 0.015625)"/>
      <use xlink:href="#DejaVuSerif-28" transform="translate(228.417969 0.015625)"/>
      <use xlink:href="#DejaVuSerif-Italic-78" transform="translate(267.431641 0.015625)"/>
      <use xlink:href="#DejaVuSerif-Italic-69" transform="translate(323.828125 -15.55625) scale(0.7)"/>
      <use xlink:href="#DejaVuSerif-29" transform="translate(348.811133 0.015625)"/>
     </g>
    </g>
   </g>
   <g id="line2d_46">
    <path d="M 78.098461 43.709297 
L 80.561358 44.854608 
L 83.024254 38.819733 
L 85.487151 42.157323 
L 87.950047 36.098233 
L 90.412944 37.63525 
L 92.875841 43.989015 
L 95.338737 58.652325 
L 100.26453 84.341864 
L 102.727427 94.606113 
L 105.190323 99.631234 
L 107.65322 105.381809 
L 110.116116 109.00071 
L 112.579013 112.854349 
L 115.041909 113.277091 
L 117.504806 122.838808 
L 119.967703 123.293439 
L 122.430599 124.88777 
L 124.893496 123.924219 
L 127.356392 110.285888 
L 129.819289 105.566935 
L 134.745082 109.120513 
L 137.207978 113.336448 
L 139.670875 110.030524 
L 142.133772 101.275701 
L 144.596668 91.546761 
L 147.059565 83.291561 
L 149.522461 83.916896 
L 154.448254 81.462776 
L 156.911151 84.97525 
L 159.374047 73.932843 
L 161.836944 74.039785 
L 164.299841 104.558975 
L 166.762737 106.056487 
L 169.225634 113.196093 
L 171.68853 116.198773 
L 174.151427 86.929245 
L 176.614323 90.300477 
L 179.07722 99.887356 
L 181.540116 104.998891 
L 184.003013 120.179014 
L 186.465909 114.582324 
L 188.928806 107.891132 
L 191.391703 99.682329 
L 193.854599 87.789356 
L 196.317496 90.872124 
L 198.780392 91.372962 
L 201.243289 95.007607 
L 203.706185 92.332418 
L 206.169082 100.500712 
L 208.631978 107.090828 
L 211.094875 104.342709 
L 213.557772 105.734917 
L 216.020668 98.628891 
L 218.483565 97.461209 
L 220.946461 95.205824 
L 223.409358 102.91885 
L 225.872254 97.746488 
L 228.335151 93.023579 
L 230.798047 92.520525 
L 233.260944 86.751346 
L 235.723841 88.138824 
L 238.186737 80.568368 
L 240.649634 80.905172 
L 243.11253 76.289308 
L 245.575427 68.318247 
L 248.038323 70.472379 
L 250.50122 63.83304 
L 252.964116 59.548479 
L 255.427013 67.051279 
L 257.889909 66.758556 
L 260.352806 68.084657 
L 262.815703 67.554583 
L 265.278599 72.503777 
L 267.741496 75.045469 
L 270.204392 79.034072 
L 272.667289 78.085599 
L 275.130185 52.090055 
L 277.593082 45.848218 
L 280.055978 69.402039 
L 282.518875 81.58647 
L 284.981772 105.97988 
L 287.444668 76.991214 
L 289.907565 74.243857 
L 292.370461 89.977358 
L 294.833358 106.919102 
L 297.296254 153.384275 
L 299.759151 150.430607 
L 302.222047 151.979758 
L 304.684944 157.076549 
L 307.147841 164.688129 
L 309.610737 163.648934 
L 312.073634 152.755433 
L 314.53653 137.187029 
L 316.999427 131.506935 
L 319.462323 130.215928 
L 321.92522 120.399284 
L 324.388116 134.134199 
L 326.851013 132.725583 
L 329.313909 134.350642 
L 331.776806 147.244577 
L 334.239703 138.529518 
L 336.702599 139.59533 
L 339.165496 138.387277 
L 341.628392 141.534481 
L 344.091289 134.93017 
L 346.554185 131.453984 
L 349.017082 116.917744 
L 351.479978 103.094203 
L 353.942875 102.925964 
L 356.405772 96.412695 
L 358.868668 105.666756 
L 361.331565 105.7478 
L 363.794461 110.453411 
L 366.257358 121.350058 
L 368.720254 122.838683 
L 371.183151 131.396803 
L 373.646047 124.415574 
L 376.108944 123.889382 
L 378.571841 124.541379 
L 381.034737 115.969187 
L 383.497634 116.53015 
L 388.423427 65.455817 
L 390.886323 69.496311 
L 393.34922 69.691744 
L 395.812116 83.457604 
L 398.275013 103.994595 
L 400.737909 104.363845 
L 403.200806 102.327472 
L 405.663703 107.516875 
L 408.126599 115.264768 
L 410.589496 107.255229 
L 413.052392 129.060795 
L 415.515289 136.689657 
L 417.978185 138.053894 
L 420.441082 162.73148 
L 422.903978 145.146205 
L 425.366875 137.44599 
L 425.366875 137.44599 
" clip-path="url(#p785014f842)" style="fill: none; stroke: #1f77b4; stroke-width: 1.5; stroke-linecap: square"/>
   </g>
   <g id="line2d_47">
    <path d="M 78.098461 74.327182 
L 80.561358 78.54367 
L 83.024254 80.471678 
L 85.487151 82.645248 
L 87.950047 83.855839 
L 90.412944 81.150626 
L 92.875841 85.199098 
L 95.338737 97.074109 
L 97.801634 102.83044 
L 100.26453 107.021393 
L 102.727427 113.831415 
L 105.190323 109.292406 
L 107.65322 110.915213 
L 110.116116 118.290264 
L 112.579013 120.985377 
L 115.041909 120.816575 
L 117.504806 112.451626 
L 119.967703 113.214594 
L 122.430599 103.902336 
L 124.893496 101.541484 
L 127.356392 107.408604 
L 129.819289 105.486914 
L 132.282185 109.40072 
L 134.745082 108.878224 
L 137.207978 112.745809 
L 142.133772 106.405774 
L 144.596668 108.346315 
L 147.059565 103.345515 
L 149.522461 96.739639 
L 151.985358 97.823003 
L 154.448254 100.061845 
L 156.911151 109.015371 
L 159.374047 113.34475 
L 161.836944 104.662187 
L 164.299841 116.406261 
L 166.762737 106.04503 
L 169.225634 108.918214 
L 171.68853 120.752554 
L 174.151427 108.440751 
L 176.614323 114.971134 
L 179.07722 114.488261 
L 181.540116 113.660096 
L 184.003013 106.983916 
L 186.465909 101.837872 
L 188.928806 103.665851 
L 191.391703 105.986573 
L 193.854599 115.173588 
L 196.317496 115.376497 
L 198.780392 111.62088 
L 201.243289 113.255966 
L 203.706185 117.717302 
L 208.631978 119.863558 
L 211.094875 116.386417 
L 213.557772 106.937078 
L 216.020668 108.814951 
L 218.483565 104.754321 
L 220.946461 103.369513 
L 223.409358 107.734518 
L 225.872254 109.649195 
L 228.335151 107.966048 
L 230.798047 112.820306 
L 233.260944 105.49113 
L 235.723841 105.339358 
L 238.186737 105.38831 
L 240.649634 103.157883 
L 243.11253 107.60891 
L 245.575427 105.008131 
L 248.038323 108.019401 
L 250.50122 107.449681 
L 252.964116 112.369477 
L 255.427013 113.117882 
L 257.889909 108.18165 
L 260.352806 109.880463 
L 262.815703 108.746371 
L 265.278599 107.148076 
L 267.741496 116.481216 
L 270.204392 122.220685 
L 272.667289 133.480762 
L 275.130185 154.333677 
L 277.593082 159.492367 
L 282.518875 150.657126 
L 284.981772 124.14007 
L 287.444668 116.233559 
L 289.907565 115.145859 
L 292.370461 108.555326 
L 294.833358 111.255268 
L 297.296254 122.249778 
L 299.759151 121.241024 
L 302.222047 120.42589 
L 304.684944 124.251167 
L 307.147841 120.479886 
L 309.610737 117.570116 
L 312.073634 119.44219 
L 314.53653 119.971579 
L 316.999427 114.823923 
L 319.462323 114.467293 
L 321.92522 112.776083 
L 324.388116 112.155143 
L 326.851013 113.101272 
L 329.313909 110.463726 
L 331.776806 112.560862 
L 334.239703 117.129073 
L 336.702599 119.476413 
L 339.165496 126.543814 
L 341.628392 122.516337 
L 344.091289 119.954254 
L 346.554185 117.208242 
L 349.017082 113.349001 
L 351.479978 112.098759 
L 353.942875 109.911863 
L 356.405772 110.794561 
L 358.868668 114.578497 
L 361.331565 112.800336 
L 363.794461 118.727871 
L 366.257358 118.092598 
L 368.720254 117.295976 
L 371.183151 121.237213 
L 373.646047 118.511324 
L 378.571841 114.082283 
L 381.034737 116.565865 
L 383.497634 130.983008 
L 385.96053 229.48663 
L 388.423427 169.318793 
L 390.886323 166.939702 
L 393.34922 157.641507 
L 395.812116 34.414125 
L 398.275013 87.860995 
L 400.737909 78.262923 
L 403.200806 66.182118 
L 405.663703 85.517037 
L 408.126599 90.695757 
L 410.589496 91.800056 
L 413.052392 92.358188 
L 415.515289 90.506615 
L 417.978185 95.407216 
L 420.441082 110.381805 
L 422.903978 111.744025 
L 425.366875 120.68979 
L 425.366875 120.68979 
" clip-path="url(#p785014f842)" style="fill: none; stroke: #ff7f0e; stroke-width: 1.5; stroke-linecap: square"/>
   </g>
   <g id="line2d_48">
    <path d="M 78.098461 168.795022 
L 80.561358 171.866199 
L 83.024254 179.829082 
L 85.487151 178.665062 
L 87.950047 185.934744 
L 90.412944 181.692513 
L 92.875841 179.38722 
L 95.338737 176.598922 
L 97.801634 169.695072 
L 100.26453 160.856666 
L 102.727427 157.402439 
L 105.190323 147.838309 
L 107.65322 143.710542 
L 110.116116 147.466691 
L 112.579013 146.308165 
L 115.041909 145.716621 
L 117.504806 127.789956 
L 119.967703 128.098293 
L 122.430599 117.191704 
L 124.893496 115.794402 
L 127.356392 135.299853 
L 129.819289 138.097116 
L 132.282185 140.171926 
L 134.745082 137.934848 
L 137.207978 137.586498 
L 139.670875 137.661908 
L 142.133772 143.30721 
L 144.596668 154.976691 
L 147.059565 158.231091 
L 149.522461 150.99988 
L 151.985358 153.254511 
L 154.448254 156.776206 
L 156.911151 162.217258 
L 159.374047 177.589045 
L 161.836944 168.799539 
L 164.299841 150.024423 
L 166.762737 138.16568 
L 169.225634 133.899258 
L 171.68853 142.730918 
L 174.151427 159.688643 
L 176.614323 162.847795 
L 179.07722 152.778042 
L 181.540116 146.838343 
L 184.003013 124.982039 
L 186.465909 125.432685 
L 188.928806 133.951857 
L 191.391703 144.481381 
L 193.854599 165.56137 
L 196.317496 162.68151 
L 198.780392 158.425055 
L 201.243289 156.425496 
L 203.706185 163.562022 
L 206.169082 156.488602 
L 208.631978 150.949867 
L 211.094875 150.220845 
L 213.557772 139.379298 
L 216.020668 148.363198 
L 218.483565 145.470249 
L 220.946461 146.340826 
L 223.409358 142.992805 
L 225.872254 150.079844 
L 228.335151 153.119606 
L 230.798047 158.476919 
L 235.723841 155.377672 
L 238.186737 162.997079 
L 240.649634 160.429848 
L 243.11253 169.49674 
L 245.575427 174.867021 
L 248.038323 175.72416 
L 250.50122 181.793778 
L 252.964116 190.998135 
L 255.427013 184.24374 
L 257.889909 179.600231 
L 260.352806 179.972944 
L 262.815703 179.368925 
L 265.278599 172.821436 
L 267.741496 179.612884 
L 270.204392 181.36375 
L 272.667289 193.5723 
L 275.130185 240.420759 
L 277.593082 251.821286 
L 280.055978 223.818916 
L 282.518875 207.247794 
L 284.981772 156.337327 
L 287.444668 177.419482 
L 289.907565 179.079139 
L 292.370461 156.755105 
L 294.833358 142.513303 
L 297.296254 107.04264 
L 299.759151 108.987554 
L 302.222047 106.62327 
L 304.684944 105.351755 
L 307.147841 93.968894 
L 309.610737 92.09832 
L 312.073634 104.863894 
L 314.53653 120.961687 
L 316.999427 121.494126 
L 319.462323 122.428502 
L 321.92522 130.553937 
L 324.388116 116.198081 
L 326.851013 118.552826 
L 329.313909 114.290222 
L 331.776806 103.493423 
L 334.239703 116.776692 
L 336.702599 118.05822 
L 339.165496 126.333674 
L 341.628392 119.158993 
L 344.091289 123.201222 
L 346.554185 123.931396 
L 349.017082 134.608394 
L 351.479978 147.181694 
L 353.942875 145.163036 
L 356.405772 152.559003 
L 358.868668 147.088879 
L 361.331565 145.229673 
L 363.794461 146.451598 
L 366.257358 134.919677 
L 368.720254 132.63443 
L 371.183151 128.017548 
L 373.646047 132.272887 
L 376.108944 130.619213 
L 378.571841 127.718042 
L 381.034737 138.773816 
L 383.497634 152.629996 
L 385.96053 276.334125 
L 388.423427 242.040113 
L 390.886323 235.620529 
L 393.34922 226.1269 
L 395.812116 89.133658 
L 398.275013 122.043537 
L 403.200806 102.031784 
L 405.663703 116.177298 
L 408.126599 113.608126 
L 410.589496 122.721965 
L 413.052392 101.474531 
L 415.515289 91.994095 
L 417.978185 95.53046 
L 420.441082 85.827462 
L 422.903978 104.774958 
L 425.366875 121.420938 
L 425.366875 121.420938 
" clip-path="url(#p785014f842)" style="fill: none; stroke: #2ca02c; stroke-width: 1.5; stroke-linecap: square"/>
   </g>
   <g id="line2d_49">
    <path d="M 78.098461 109.811361 
L 80.561358 108.054099 
L 83.024254 108.290461 
L 85.487151 106.426384 
L 87.950047 106.730657 
L 90.412944 102.046775 
L 92.875841 100.210291 
L 95.338737 92.538161 
L 97.801634 98.031282 
L 100.26453 90.283872 
L 102.727427 90.778583 
L 105.190323 99.648771 
L 107.65322 98.693414 
L 110.116116 111.40066 
L 112.579013 118.177886 
L 115.041909 121.214523 
L 117.504806 124.96311 
L 119.967703 123.408188 
L 122.430599 123.384891 
L 124.893496 123.500648 
L 127.356392 122.522007 
L 129.819289 127.339633 
L 132.282185 127.322908 
L 134.745082 129.187518 
L 137.207978 124.702713 
L 139.670875 124.906118 
L 144.596668 121.467646 
L 147.059565 122.406366 
L 149.522461 123.491184 
L 151.985358 125.219093 
L 154.448254 123.619927 
L 159.374047 128.866865 
L 161.836944 127.173996 
L 164.299841 127.284112 
L 166.762737 128.933608 
L 169.225634 127.361427 
L 174.151427 130.752682 
L 176.614323 129.077126 
L 179.07722 129.178736 
L 181.540116 130.794248 
L 184.003013 131.655661 
L 186.465909 134.087018 
L 188.928806 134.938943 
L 193.854599 131.727425 
L 196.317496 132.498502 
L 198.780392 131.753932 
L 201.243289 129.351196 
L 203.706185 131.797628 
L 206.169082 129.363262 
L 208.631978 130.245871 
L 211.094875 131.840733 
L 213.557772 130.299174 
L 216.020668 130.277939 
L 218.483565 129.574944 
L 220.946461 131.129618 
L 223.409358 129.631952 
L 225.872254 129.60924 
L 228.335151 131.231691 
L 230.798047 129.677017 
L 233.260944 131.277117 
L 235.723841 128.971006 
L 238.186737 127.534091 
L 240.649634 124.528384 
L 243.11253 124.616108 
L 245.575427 126.869166 
L 248.038323 126.245699 
L 250.50122 124.839002 
L 252.964116 124.195154 
L 255.427013 122.703775 
L 257.889909 122.158182 
L 260.352806 127.289301 
L 262.815703 125.943546 
L 265.278599 125.231814 
L 267.741496 121.187204 
L 270.204392 112.843038 
L 272.667289 113.084102 
L 275.130185 120.659047 
L 277.593082 124.385638 
L 280.055978 127.259724 
L 282.518875 129.373446 
L 284.981772 118.491166 
L 287.444668 116.764285 
L 289.907565 120.858942 
L 292.370461 119.652879 
L 294.833358 115.266451 
L 297.296254 112.466364 
L 299.759151 112.494533 
L 302.222047 109.580653 
L 304.684944 117.366253 
L 307.147841 120.827957 
L 309.610737 123.903729 
L 312.073634 122.873091 
L 314.53653 122.88906 
L 316.999427 124.300454 
L 319.462323 121.85322 
L 321.92522 125.623527 
L 324.388116 126.819187 
L 326.851013 127.541755 
L 329.313909 128.713979 
L 331.776806 130.538481 
L 334.239703 136.403727 
L 336.702599 139.349361 
L 339.165496 137.590732 
L 341.628392 138.761205 
L 344.091289 136.997838 
L 346.554185 136.41968 
L 351.479978 132.941366 
L 353.942875 127.090573 
L 356.405772 122.592748 
L 358.868668 123.221563 
L 361.331565 121.054839 
L 363.794461 121.088123 
L 366.257358 124.107531 
L 368.720254 123.593703 
L 371.183151 124.280999 
L 373.646047 127.606256 
L 376.108944 126.069236 
L 378.571841 126.657492 
L 381.034737 129.453454 
L 383.497634 127.793536 
L 385.96053 133.295105 
L 388.423427 131.69473 
L 390.886323 133.863509 
L 393.34922 133.859536 
L 395.812116 129.597124 
L 398.275013 126.47579 
L 400.737909 114.487317 
L 403.200806 107.28067 
L 405.663703 87.711342 
L 410.589496 76.527309 
L 413.052392 82.268359 
L 415.515289 89.462522 
L 417.978185 99.304663 
L 420.441082 111.840812 
L 422.903978 114.993274 
L 425.366875 124.406545 
L 425.366875 124.406545 
" clip-path="url(#p785014f842)" style="fill: none; stroke: #d62728; stroke-width: 1.5; stroke-linecap: square"/>
   </g>
   <g id="patch_37">
    <path d="M 68.246875 288.430125 
L 68.246875 22.318125 
" style="fill: none; stroke: #000000; stroke-width: 0.8; stroke-linejoin: miter; stroke-linecap: square"/>
   </g>
   <g id="patch_38">
    <path d="M 425.366875 288.430125 
L 425.366875 22.318125 
" style="fill: none; stroke: #000000; stroke-width: 0.8; stroke-linejoin: miter; stroke-linecap: square"/>
   </g>
   <g id="patch_39">
    <path d="M 68.246875 288.430125 
L 425.366875 288.430125 
" style="fill: none; stroke: #000000; stroke-width: 0.8; stroke-linejoin: miter; stroke-linecap: square"/>
   </g>
   <g id="patch_40">
    <path d="M 68.246875 22.318125 
L 425.366875 22.318125 
" style="fill: none; stroke: #000000; stroke-width: 0.8; stroke-linejoin: miter; stroke-linecap: square"/>
   </g>
   <g id="text_13">
    <!-- United Kingdom -->
    <g transform="translate(197.006875 16.318125) scale(0.12 -0.12)">
     <defs>
      <path id="DejaVuSerif-55" d="M 897 4331 
L 300 4331 
L 300 4666 
L 2125 4666 
L 2125 4331 
L 1528 4331 
L 1528 1919 
Q 1528 1025 1820 672 
Q 2113 319 2828 319 
Q 3544 319 3836 672 
Q 4128 1025 4128 1919 
L 4128 4331 
L 3531 4331 
L 3531 4666 
L 5106 4666 
L 5106 4331 
L 4513 4331 
L 4513 1856 
Q 4513 791 4103 350 
Q 3694 -91 2713 -91 
Q 1731 -91 1314 353 
Q 897 797 897 1856 
L 897 4331 
z
" transform="scale(0.015625)"/>
      <path id="DejaVuSerif-6e" d="M 263 0 
L 263 331 
L 781 331 
L 781 2988 
L 231 2988 
L 231 3322 
L 1356 3322 
L 1356 2731 
Q 1516 3069 1770 3241 
Q 2025 3413 2363 3413 
Q 2913 3413 3172 3097 
Q 3431 2781 3431 2113 
L 3431 331 
L 3944 331 
L 3944 0 
L 2356 0 
L 2356 331 
L 2853 331 
L 2853 1931 
Q 2853 2541 2703 2767 
Q 2553 2994 2175 2994 
Q 1775 2994 1565 2701 
Q 1356 2409 1356 1850 
L 1356 331 
L 1856 331 
L 1856 0 
L 263 0 
z
" transform="scale(0.015625)"/>
      <path id="DejaVuSerif-69" d="M 622 4353 
Q 622 4497 726 4603 
Q 831 4709 978 4709 
Q 1122 4709 1226 4603 
Q 1331 4497 1331 4353 
Q 1331 4206 1228 4103 
Q 1125 4000 978 4000 
Q 831 4000 726 4103 
Q 622 4206 622 4353 
z
M 1356 331 
L 1900 331 
L 1900 0 
L 231 0 
L 231 331 
L 781 331 
L 781 2988 
L 231 2988 
L 231 3322 
L 1356 3322 
L 1356 331 
z
" transform="scale(0.015625)"/>
      <path id="DejaVuSerif-74" d="M 691 2988 
L 184 2988 
L 184 3322 
L 691 3322 
L 691 4353 
L 1269 4353 
L 1269 3322 
L 2350 3322 
L 2350 2988 
L 1269 2988 
L 1269 878 
Q 1269 456 1350 337 
Q 1431 219 1650 219 
Q 1875 219 1978 351 
Q 2081 484 2088 781 
L 2522 781 
Q 2497 328 2275 118 
Q 2053 -91 1600 -91 
Q 1103 -91 897 129 
Q 691 350 691 878 
L 691 2988 
z
" transform="scale(0.015625)"/>
      <path id="DejaVuSerif-65" d="M 3469 1600 
L 991 1600 
L 991 1575 
Q 991 903 1244 561 
Q 1497 219 1991 219 
Q 2369 219 2611 417 
Q 2853 616 2950 1006 
L 3413 1006 
Q 3275 459 2904 184 
Q 2534 -91 1931 -91 
Q 1203 -91 761 389 
Q 319 869 319 1663 
Q 319 2450 753 2931 
Q 1188 3413 1894 3413 
Q 2647 3413 3050 2948 
Q 3453 2484 3469 1600 
z
M 2791 1931 
Q 2772 2513 2545 2808 
Q 2319 3103 1894 3103 
Q 1497 3103 1269 2806 
Q 1041 2509 991 1931 
L 2791 1931 
z
" transform="scale(0.015625)"/>
      <path id="DejaVuSerif-64" d="M 3359 331 
L 3909 331 
L 3909 0 
L 2784 0 
L 2784 519 
Q 2616 206 2355 57 
Q 2094 -91 1709 -91 
Q 1097 -91 708 395 
Q 319 881 319 1663 
Q 319 2444 706 2928 
Q 1094 3413 1709 3413 
Q 2094 3413 2355 3264 
Q 2616 3116 2784 2803 
L 2784 4531 
L 2241 4531 
L 2241 4863 
L 3359 4863 
L 3359 331 
z
M 2784 1497 
L 2784 1825 
Q 2784 2422 2554 2737 
Q 2325 3053 1888 3053 
Q 1444 3053 1217 2703 
Q 991 2353 991 1663 
Q 991 975 1217 622 
Q 1444 269 1888 269 
Q 2325 269 2554 583 
Q 2784 897 2784 1497 
z
" transform="scale(0.015625)"/>
      <path id="DejaVuSerif-20" transform="scale(0.015625)"/>
      <path id="DejaVuSerif-4b" d="M 353 0 
L 353 331 
L 947 331 
L 947 4331 
L 353 4331 
L 353 4666 
L 2175 4666 
L 2175 4331 
L 1581 4331 
L 1581 2566 
L 3591 4331 
L 3084 4331 
L 3084 4666 
L 4634 4666 
L 4634 4331 
L 4109 4331 
L 2106 2572 
L 4347 331 
L 4878 331 
L 4878 0 
L 3794 0 
L 1581 2216 
L 1581 331 
L 2175 331 
L 2175 0 
L 353 0 
z
" transform="scale(0.015625)"/>
      <path id="DejaVuSerif-6d" d="M 3316 2675 
Q 3481 3041 3739 3227 
Q 3997 3413 4341 3413 
Q 4863 3413 5119 3089 
Q 5375 2766 5375 2113 
L 5375 331 
L 5894 331 
L 5894 0 
L 4300 0 
L 4300 331 
L 4800 331 
L 4800 2047 
Q 4800 2556 4650 2772 
Q 4500 2988 4153 2988 
Q 3769 2988 3567 2697 
Q 3366 2406 3366 1850 
L 3366 331 
L 3866 331 
L 3866 0 
L 2291 0 
L 2291 331 
L 2791 331 
L 2791 2069 
Q 2791 2566 2641 2777 
Q 2491 2988 2144 2988 
Q 1759 2988 1557 2697 
Q 1356 2406 1356 1850 
L 1356 331 
L 1856 331 
L 1856 0 
L 263 0 
L 263 331 
L 781 331 
L 781 2994 
L 231 2994 
L 231 3322 
L 1356 3322 
L 1356 2731 
Q 1516 3063 1762 3238 
Q 2009 3413 2322 3413 
Q 2709 3413 2968 3220 
Q 3228 3028 3316 2675 
z
" transform="scale(0.015625)"/>
     </defs>
     <use xlink:href="#DejaVuSerif-55"/>
     <use xlink:href="#DejaVuSerif-6e" x="84.277344"/>
     <use xlink:href="#DejaVuSerif-69" x="148.681641"/>
     <use xlink:href="#DejaVuSerif-74" x="180.664062"/>
     <use xlink:href="#DejaVuSerif-65" x="220.849609"/>
     <use xlink:href="#DejaVuSerif-64" x="280.029297"/>
     <use xlink:href="#DejaVuSerif-20" x="344.042969"/>
     <use xlink:href="#DejaVuSerif-4b" x="375.830078"/>
     <use xlink:href="#DejaVuSerif-69" x="450.537109"/>
     <use xlink:href="#DejaVuSerif-6e" x="482.519531"/>
     <use xlink:href="#DejaVuSerif-67" x="546.923828"/>
     <use xlink:href="#DejaVuSerif-64" x="610.9375"/>
     <use xlink:href="#DejaVuSerif-6f" x="674.951172"/>
     <use xlink:href="#DejaVuSerif-6d" x="735.15625"/>
    </g>
   </g>
   <g id="legend_1">
    <g id="patch_41">
     <path d="M 75.246875 283.430125 
L 126.451563 283.430125 
Q 128.451563 283.430125 128.451563 281.430125 
L 128.451563 223.575437 
Q 128.451563 221.575437 126.451563 221.575437 
L 75.246875 221.575437 
Q 73.246875 221.575437 73.246875 223.575437 
L 73.246875 281.430125 
Q 73.246875 283.430125 75.246875 283.430125 
z
" style="fill: #ffffff; opacity: 0.8; stroke: #cccccc; stroke-linejoin: miter"/>
    </g>
    <g id="line2d_50">
     <path d="M 77.246875 229.673875 
L 87.246875 229.673875 
L 97.246875 229.673875 
" style="fill: none; stroke: #1f77b4; stroke-width: 1.5; stroke-linecap: square"/>
    </g>
    <g id="text_14">
     <!-- m3 -->
     <g transform="translate(105.246875 233.173875) scale(0.1 -0.1)">
      <defs>
       <path id="DejaVuSerif-33" d="M 622 4469 
Q 988 4606 1323 4678 
Q 1659 4750 1953 4750 
Q 2638 4750 3022 4454 
Q 3406 4159 3406 3634 
Q 3406 3213 3140 2930 
Q 2875 2647 2388 2547 
Q 2963 2466 3280 2130 
Q 3597 1794 3597 1259 
Q 3597 606 3158 257 
Q 2719 -91 1894 -91 
Q 1528 -91 1179 -12 
Q 831 66 488 225 
L 488 1131 
L 838 1131 
Q 869 681 1141 450 
Q 1413 219 1906 219 
Q 2384 219 2661 495 
Q 2938 772 2938 1253 
Q 2938 1803 2653 2086 
Q 2369 2369 1819 2369 
L 1522 2369 
L 1522 2688 
L 1678 2688 
Q 2225 2688 2498 2914 
Q 2772 3141 2772 3597 
Q 2772 4006 2547 4223 
Q 2322 4441 1900 4441 
Q 1478 4441 1245 4241 
Q 1013 4041 972 3647 
L 622 3647 
L 622 4469 
z
" transform="scale(0.015625)"/>
      </defs>
      <use xlink:href="#DejaVuSerif-6d"/>
      <use xlink:href="#DejaVuSerif-33" x="94.824219"/>
     </g>
    </g>
    <g id="line2d_51">
     <path d="M 77.246875 244.352 
L 87.246875 244.352 
L 97.246875 244.352 
" style="fill: none; stroke: #ff7f0e; stroke-width: 1.5; stroke-linecap: square"/>
    </g>
    <g id="text_15">
     <!-- gdp -->
     <g transform="translate(105.246875 247.852) scale(0.1 -0.1)">
      <defs>
       <path id="DejaVuSerif-70" d="M 1313 1825 
L 1313 1497 
Q 1313 897 1542 583 
Q 1772 269 2209 269 
Q 2650 269 2876 622 
Q 3103 975 3103 1663 
Q 3103 2353 2876 2703 
Q 2650 3053 2209 3053 
Q 1772 3053 1542 2737 
Q 1313 2422 1313 1825 
z
M 738 2988 
L 184 2988 
L 184 3322 
L 1313 3322 
L 1313 2803 
Q 1481 3116 1742 3264 
Q 2003 3413 2388 3413 
Q 3000 3413 3387 2928 
Q 3775 2444 3775 1663 
Q 3775 881 3387 395 
Q 3000 -91 2388 -91 
Q 2003 -91 1742 57 
Q 1481 206 1313 519 
L 1313 -997 
L 1856 -997 
L 1856 -1331 
L 184 -1331 
L 184 -997 
L 738 -997 
L 738 2988 
z
" transform="scale(0.015625)"/>
      </defs>
      <use xlink:href="#DejaVuSerif-67"/>
      <use xlink:href="#DejaVuSerif-64" x="64.013672"/>
      <use xlink:href="#DejaVuSerif-70" x="128.027344"/>
     </g>
    </g>
    <g id="line2d_52">
     <path d="M 77.246875 259.172312 
L 87.246875 259.172312 
L 97.246875 259.172312 
" style="fill: none; stroke: #2ca02c; stroke-width: 1.5; stroke-linecap: square"/>
    </g>
    <g id="text_16">
     <!-- v -->
     <g transform="translate(105.246875 262.672312) scale(0.1 -0.1)">
      <defs>
       <path id="DejaVuSerif-76" d="M 1581 0 
L 359 2988 
L -19 2988 
L -19 3322 
L 1509 3322 
L 1509 2988 
L 978 2988 
L 1913 703 
L 2847 2988 
L 2350 2988 
L 2350 3322 
L 3597 3322 
L 3597 2988 
L 3225 2988 
L 2003 0 
L 1581 0 
z
" transform="scale(0.015625)"/>
      </defs>
      <use xlink:href="#DejaVuSerif-76"/>
     </g>
    </g>
    <g id="line2d_53">
     <path d="M 77.246875 273.850437 
L 87.246875 273.850437 
L 97.246875 273.850437 
" style="fill: none; stroke: #d62728; stroke-width: 1.5; stroke-linecap: square"/>
    </g>
    <g id="text_17">
     <!-- cpi -->
     <g transform="translate(105.246875 277.350437) scale(0.1 -0.1)">
      <defs>
       <path id="DejaVuSerif-63" d="M 3291 997 
Q 3169 466 2822 187 
Q 2475 -91 1925 -91 
Q 1200 -91 759 389 
Q 319 869 319 1663 
Q 319 2459 759 2936 
Q 1200 3413 1925 3413 
Q 2241 3413 2553 3339 
Q 2866 3266 3181 3116 
L 3181 2266 
L 2847 2266 
Q 2781 2703 2561 2903 
Q 2341 3103 1931 3103 
Q 1466 3103 1228 2742 
Q 991 2381 991 1663 
Q 991 944 1227 581 
Q 1463 219 1931 219 
Q 2303 219 2525 412 
Q 2747 606 2828 997 
L 3291 997 
z
" transform="scale(0.015625)"/>
      </defs>
      <use xlink:href="#DejaVuSerif-63"/>
      <use xlink:href="#DejaVuSerif-70" x="56.005859"/>
      <use xlink:href="#DejaVuSerif-69" x="120.019531"/>
     </g>
    </g>
   </g>
  </g>
 </g>
 <defs>
  <clipPath id="p785014f842">
   <rect x="68.246875" y="22.318125" width="357.12" height="266.112"/>
  </clipPath>
 </defs>
</svg>
