<?xml version="1.0" encoding="utf-8" standalone="no"?>
<!DOCTYPE svg PUBLIC "-//W3C//DTD SVG 1.1//EN"
  "http://www.w3.org/Graphics/SVG/1.1/DTD/svg11.dtd">
<svg xmlns:xlink="http://www.w3.org/1999/xlink" width="443.017225pt" height="312.30825pt" viewBox="0 0 443.017225 312.30825" xmlns="http://www.w3.org/2000/svg" version="1.1">
 <metadata>
  <rdf:RDF xmlns:dc="http://purl.org/dc/elements/1.1/" xmlns:cc="http://creativecommons.org/ns#" xmlns:rdf="http://www.w3.org/1999/02/22-rdf-syntax-ns#">
   <cc:Work>
    <dc:type rdf:resource="http://purl.org/dc/dcmitype/StillImage"/>
    <dc:date>2024-11-06T21:53:10.670872</dc:date>
    <dc:format>image/svg+xml</dc:format>
    <dc:creator>
     <cc:Agent>
      <dc:title>Matplotlib v3.9.0, https://matplotlib.org/</dc:title>
     </cc:Agent>
    </dc:creator>
   </cc:Work>
  </rdf:RDF>
 </metadata>
 <defs>
  <style type="text/css">*{stroke-linejoin: round; stroke-linecap: butt}</style>
 </defs>
 <g id="figure_1">
  <g id="patch_1">
   <path d="M 0 312.30825 
L 443.017225 312.30825 
L 443.017225 0 
L 0 0 
z
" style="fill: #ffffff"/>
  </g>
  <g id="axes_1">
   <g id="patch_2">
    <path d="M 68.246875 288.430125 
L 425.366875 288.430125 
L 425.366875 22.318125 
L 68.246875 22.318125 
z
" style="fill: #ffffff"/>
   </g>
   <g id="patch_3">
    <path d="M -1094.099112 288.430125 
L -1080.451214 288.430125 
L -1080.451214 22.318125 
L -1094.099112 22.318125 
z
" clip-path="url(#p2833d3c055)" style="fill: #d3d3d3"/>
   </g>
   <g id="patch_4">
    <path d="M -1064.528666 288.430125 
L -1055.430068 288.430125 
L -1055.430068 22.318125 
L -1064.528666 22.318125 
z
" clip-path="url(#p2833d3c055)" style="fill: #d3d3d3"/>
   </g>
   <g id="patch_5">
    <path d="M -1023.584972 288.430125 
L -1005.387775 288.430125 
L -1005.387775 22.318125 
L -1023.584972 22.318125 
z
" clip-path="url(#p2833d3c055)" style="fill: #d3d3d3"/>
   </g>
   <g id="patch_6">
    <path d="M -984.915928 288.430125 
L -971.268029 288.430125 
L -971.268029 22.318125 
L -984.915928 22.318125 
z
" clip-path="url(#p2833d3c055)" style="fill: #d3d3d3"/>
   </g>
   <g id="patch_7">
    <path d="M -946.246883 288.430125 
L -896.20459 288.430125 
L -896.20459 22.318125 
L -946.246883 22.318125 
z
" clip-path="url(#p2833d3c055)" style="fill: #d3d3d3"/>
   </g>
   <g id="patch_8">
    <path d="M -868.908794 288.430125 
L -839.338348 288.430125 
L -839.338348 22.318125 
L -868.908794 22.318125 
z
" clip-path="url(#p2833d3c055)" style="fill: #d3d3d3"/>
   </g>
   <g id="patch_9">
    <path d="M -821.14115 288.430125 
L -814.317201 288.430125 
L -814.317201 22.318125 
L -821.14115 22.318125 
z
" clip-path="url(#p2833d3c055)" style="fill: #d3d3d3"/>
   </g>
   <g id="patch_10">
    <path d="M -791.570705 288.430125 
L -784.746756 288.430125 
L -784.746756 22.318125 
L -791.570705 22.318125 
z
" clip-path="url(#p2833d3c055)" style="fill: #d3d3d3"/>
   </g>
   <g id="patch_11">
    <path d="M -768.824208 288.430125 
L -757.450959 288.430125 
L -757.450959 22.318125 
L -768.824208 22.318125 
z
" clip-path="url(#p2833d3c055)" style="fill: #d3d3d3"/>
   </g>
   <g id="patch_12">
    <path d="M -743.803061 288.430125 
L -730.155163 288.430125 
L -730.155163 22.318125 
L -743.803061 22.318125 
z
" clip-path="url(#p2833d3c055)" style="fill: #d3d3d3"/>
   </g>
   <g id="patch_13">
    <path d="M -709.683316 288.430125 
L -698.310068 288.430125 
L -698.310068 22.318125 
L -709.683316 22.318125 
z
" clip-path="url(#p2833d3c055)" style="fill: #d3d3d3"/>
   </g>
   <g id="patch_14">
    <path d="M -680.11287 288.430125 
L -664.190322 288.430125 
L -664.190322 22.318125 
L -680.11287 22.318125 
z
" clip-path="url(#p2833d3c055)" style="fill: #d3d3d3"/>
   </g>
   <g id="patch_15">
    <path d="M -639.169176 288.430125 
L -630.070577 288.430125 
L -630.070577 22.318125 
L -639.169176 22.318125 
z
" clip-path="url(#p2833d3c055)" style="fill: #d3d3d3"/>
   </g>
   <g id="patch_16">
    <path d="M -614.148029 288.430125 
L -598.225482 288.430125 
L -598.225482 22.318125 
L -614.148029 22.318125 
z
" clip-path="url(#p2833d3c055)" style="fill: #d3d3d3"/>
   </g>
   <g id="patch_17">
    <path d="M -586.852233 288.430125 
L -570.929686 288.430125 
L -570.929686 22.318125 
L -586.852233 22.318125 
z
" clip-path="url(#p2833d3c055)" style="fill: #d3d3d3"/>
   </g>
   <g id="patch_18">
    <path d="M -536.80994 288.430125 
L -532.260641 288.430125 
L -532.260641 22.318125 
L -536.80994 22.318125 
z
" clip-path="url(#p2833d3c055)" style="fill: #d3d3d3"/>
   </g>
   <g id="patch_19">
    <path d="M -523.162042 288.430125 
L -509.514144 288.430125 
L -509.514144 22.318125 
L -523.162042 22.318125 
z
" clip-path="url(#p2833d3c055)" style="fill: #d3d3d3"/>
   </g>
   <g id="patch_20">
    <path d="M -493.591596 288.430125 
L -482.218348 288.430125 
L -482.218348 22.318125 
L -493.591596 22.318125 
z
" clip-path="url(#p2833d3c055)" style="fill: #d3d3d3"/>
   </g>
   <g id="patch_21">
    <path d="M -464.02115 288.430125 
L -452.647902 288.430125 
L -452.647902 22.318125 
L -464.02115 22.318125 
z
" clip-path="url(#p2833d3c055)" style="fill: #d3d3d3"/>
   </g>
   <g id="patch_22">
    <path d="M -436.725354 288.430125 
L -404.880259 288.430125 
L -404.880259 22.318125 
L -436.725354 22.318125 
z
" clip-path="url(#p2833d3c055)" style="fill: #d3d3d3"/>
   </g>
   <g id="patch_23">
    <path d="M -366.211214 288.430125 
L -357.112615 288.430125 
L -357.112615 22.318125 
L -366.211214 22.318125 
z
" clip-path="url(#p2833d3c055)" style="fill: #d3d3d3"/>
   </g>
   <g id="patch_24">
    <path d="M -295.697074 288.430125 
L -288.873125 288.430125 
L -288.873125 22.318125 
L -295.697074 22.318125 
z
" clip-path="url(#p2833d3c055)" style="fill: #d3d3d3"/>
   </g>
   <g id="patch_25">
    <path d="M -261.577329 288.430125 
L -252.47873 288.430125 
L -252.47873 22.318125 
L -261.577329 22.318125 
z
" clip-path="url(#p2833d3c055)" style="fill: #d3d3d3"/>
   </g>
   <g id="patch_26">
    <path d="M -220.633635 288.430125 
L -211.535036 288.430125 
L -211.535036 22.318125 
L -220.633635 22.318125 
z
" clip-path="url(#p2833d3c055)" style="fill: #d3d3d3"/>
   </g>
   <g id="patch_27">
    <path d="M -181.96459 288.430125 
L -175.140641 288.430125 
L -175.140641 22.318125 
L -181.96459 22.318125 
z
" clip-path="url(#p2833d3c055)" style="fill: #d3d3d3"/>
   </g>
   <g id="patch_28">
    <path d="M -156.943443 288.430125 
L -150.119494 288.430125 
L -150.119494 22.318125 
L -156.943443 22.318125 
z
" clip-path="url(#p2833d3c055)" style="fill: #d3d3d3"/>
   </g>
   <g id="patch_29">
    <path d="M -70.506756 288.430125 
L -61.408157 288.430125 
L -61.408157 22.318125 
L -70.506756 22.318125 
z
" clip-path="url(#p2833d3c055)" style="fill: #d3d3d3"/>
   </g>
   <g id="patch_30">
    <path d="M -34.112361 288.430125 
L -22.739112 288.430125 
L -22.739112 22.318125 
L -34.112361 22.318125 
z
" clip-path="url(#p2833d3c055)" style="fill: #d3d3d3"/>
   </g>
   <g id="patch_31">
    <path d="M 22.753881 288.430125 
L 27.303181 288.430125 
L 27.303181 22.318125 
L 22.753881 22.318125 
z
" clip-path="url(#p2833d3c055)" style="fill: #d3d3d3"/>
   </g>
   <g id="patch_32">
    <path d="M 36.401779 288.430125 
L 47.775028 288.430125 
L 47.775028 22.318125 
L 36.401779 22.318125 
z
" clip-path="url(#p2833d3c055)" style="fill: #d3d3d3"/>
   </g>
   <g id="patch_33">
    <path d="M 118.289168 288.430125 
L 122.838467 288.430125 
L 122.838467 22.318125 
L 118.289168 22.318125 
z
" clip-path="url(#p2833d3c055)" style="fill: #d3d3d3"/>
   </g>
   <g id="patch_34">
    <path d="M 213.824455 288.430125 
L 220.648404 288.430125 
L 220.648404 22.318125 
L 213.824455 22.318125 
z
" clip-path="url(#p2833d3c055)" style="fill: #d3d3d3"/>
   </g>
   <g id="patch_35">
    <path d="M 275.239996 288.430125 
L 288.887894 288.430125 
L 288.887894 22.318125 
L 275.239996 22.318125 
z
" clip-path="url(#p2833d3c055)" style="fill: #d3d3d3"/>
   </g>
   <g id="patch_36">
    <path d="M 384.423181 288.430125 
L 388.97248 288.430125 
L 388.97248 22.318125 
L 384.423181 22.318125 
z
" clip-path="url(#p2833d3c055)" style="fill: #d3d3d3"/>
   </g>
   <g id="matplotlib.axis_1">
    <g id="xtick_1">
     <g id="line2d_1">
      <defs>
       <path id="mcf28ce60f3" d="M 0 0 
L 0 3.5 
" style="stroke: #000000; stroke-width: 0.8"/>
      </defs>
      <g>
       <use xlink:href="#mcf28ce60f3" x="104.64127" y="288.430125" style="stroke: #000000; stroke-width: 0.8"/>
      </g>
     </g>
     <g id="text_1">
      <!-- 1989 -->
      <g transform="translate(91.91627 303.028562) scale(0.1 -0.1)">
       <defs>
        <path id="DejaVuSerif-31" d="M 909 0 
L 909 331 
L 1722 331 
L 1722 4213 
L 781 3603 
L 781 4013 
L 1919 4750 
L 2350 4750 
L 2350 331 
L 3163 331 
L 3163 0 
L 909 0 
z
" transform="scale(0.015625)"/>
        <path id="DejaVuSerif-39" d="M 2994 2091 
Q 2784 1856 2512 1740 
Q 2241 1625 1900 1625 
Q 1206 1625 804 2044 
Q 403 2463 403 3188 
Q 403 3897 839 4323 
Q 1275 4750 2003 4750 
Q 2794 4750 3217 4161 
Q 3641 3572 3641 2478 
Q 3641 1253 3137 581 
Q 2634 -91 1722 -91 
Q 1475 -91 1203 -44 
Q 931 3 647 97 
L 647 872 
L 997 872 
Q 1038 556 1241 387 
Q 1444 219 1784 219 
Q 2391 219 2687 676 
Q 2984 1134 2994 2091 
z
M 1978 4441 
Q 1534 4441 1298 4117 
Q 1063 3794 1063 3188 
Q 1063 2581 1298 2256 
Q 1534 1931 1978 1931 
Q 2422 1931 2658 2245 
Q 2894 2559 2894 3150 
Q 2894 3772 2656 4106 
Q 2419 4441 1978 4441 
z
" transform="scale(0.015625)"/>
        <path id="DejaVuSerif-38" d="M 2981 1275 
Q 2981 1775 2732 2051 
Q 2484 2328 2034 2328 
Q 1584 2328 1336 2051 
Q 1088 1775 1088 1275 
Q 1088 772 1336 495 
Q 1584 219 2034 219 
Q 2484 219 2732 495 
Q 2981 772 2981 1275 
z
M 2853 3541 
Q 2853 3966 2637 4203 
Q 2422 4441 2034 4441 
Q 1650 4441 1433 4203 
Q 1216 3966 1216 3541 
Q 1216 3113 1433 2875 
Q 1650 2638 2034 2638 
Q 2422 2638 2637 2875 
Q 2853 3113 2853 3541 
z
M 2516 2484 
Q 3047 2413 3344 2092 
Q 3641 1772 3641 1275 
Q 3641 619 3225 264 
Q 2809 -91 2034 -91 
Q 1263 -91 845 264 
Q 428 619 428 1275 
Q 428 1772 725 2092 
Q 1022 2413 1556 2484 
Q 1084 2569 832 2842 
Q 581 3116 581 3541 
Q 581 4103 968 4426 
Q 1356 4750 2034 4750 
Q 2713 4750 3100 4426 
Q 3488 4103 3488 3541 
Q 3488 3116 3236 2842 
Q 2984 2569 2516 2484 
z
" transform="scale(0.015625)"/>
       </defs>
       <use xlink:href="#DejaVuSerif-31"/>
       <use xlink:href="#DejaVuSerif-39" x="63.623047"/>
       <use xlink:href="#DejaVuSerif-38" x="127.246094"/>
       <use xlink:href="#DejaVuSerif-39" x="190.869141"/>
      </g>
     </g>
    </g>
    <g id="xtick_2">
     <g id="line2d_2">
      <g>
       <use xlink:href="#mcf28ce60f3" x="150.134264" y="288.430125" style="stroke: #000000; stroke-width: 0.8"/>
      </g>
     </g>
     <g id="text_2">
      <!-- 1994 -->
      <g transform="translate(137.409264 303.028562) scale(0.1 -0.1)">
       <defs>
        <path id="DejaVuSerif-34" d="M 2234 1581 
L 2234 4063 
L 641 1581 
L 2234 1581 
z
M 3609 0 
L 1484 0 
L 1484 331 
L 2234 331 
L 2234 1247 
L 197 1247 
L 197 1588 
L 2241 4750 
L 2859 4750 
L 2859 1581 
L 3750 1581 
L 3750 1247 
L 2859 1247 
L 2859 331 
L 3609 331 
L 3609 0 
z
" transform="scale(0.015625)"/>
       </defs>
       <use xlink:href="#DejaVuSerif-31"/>
       <use xlink:href="#DejaVuSerif-39" x="63.623047"/>
       <use xlink:href="#DejaVuSerif-39" x="127.246094"/>
       <use xlink:href="#DejaVuSerif-34" x="190.869141"/>
      </g>
     </g>
    </g>
    <g id="xtick_3">
     <g id="line2d_3">
      <g>
       <use xlink:href="#mcf28ce60f3" x="195.627257" y="288.430125" style="stroke: #000000; stroke-width: 0.8"/>
      </g>
     </g>
     <g id="text_3">
      <!-- 1999 -->
      <g transform="translate(182.902257 303.028562) scale(0.1 -0.1)">
       <use xlink:href="#DejaVuSerif-31"/>
       <use xlink:href="#DejaVuSerif-39" x="63.623047"/>
       <use xlink:href="#DejaVuSerif-39" x="127.246094"/>
       <use xlink:href="#DejaVuSerif-39" x="190.869141"/>
      </g>
     </g>
    </g>
    <g id="xtick_4">
     <g id="line2d_4">
      <g>
       <use xlink:href="#mcf28ce60f3" x="241.120251" y="288.430125" style="stroke: #000000; stroke-width: 0.8"/>
      </g>
     </g>
     <g id="text_4">
      <!-- 2004 -->
      <g transform="translate(228.395251 303.028562) scale(0.1 -0.1)">
       <defs>
        <path id="DejaVuSerif-32" d="M 819 3553 
L 469 3553 
L 469 4384 
Q 803 4563 1142 4656 
Q 1481 4750 1806 4750 
Q 2534 4750 2956 4397 
Q 3378 4044 3378 3438 
Q 3378 2753 2422 1800 
Q 2347 1728 2309 1691 
L 1131 513 
L 3078 513 
L 3078 1088 
L 3444 1088 
L 3444 0 
L 434 0 
L 434 341 
L 1850 1753 
Q 2319 2222 2519 2614 
Q 2719 3006 2719 3438 
Q 2719 3909 2473 4175 
Q 2228 4441 1797 4441 
Q 1350 4441 1106 4219 
Q 863 3997 819 3553 
z
" transform="scale(0.015625)"/>
        <path id="DejaVuSerif-30" d="M 2034 219 
Q 2513 219 2750 744 
Q 2988 1269 2988 2328 
Q 2988 3391 2750 3916 
Q 2513 4441 2034 4441 
Q 1556 4441 1318 3916 
Q 1081 3391 1081 2328 
Q 1081 1269 1318 744 
Q 1556 219 2034 219 
z
M 2034 -91 
Q 1275 -91 848 546 
Q 422 1184 422 2328 
Q 422 3475 848 4112 
Q 1275 4750 2034 4750 
Q 2797 4750 3222 4112 
Q 3647 3475 3647 2328 
Q 3647 1184 3222 546 
Q 2797 -91 2034 -91 
z
" transform="scale(0.015625)"/>
       </defs>
       <use xlink:href="#DejaVuSerif-32"/>
       <use xlink:href="#DejaVuSerif-30" x="63.623047"/>
       <use xlink:href="#DejaVuSerif-30" x="127.246094"/>
       <use xlink:href="#DejaVuSerif-34" x="190.869141"/>
      </g>
     </g>
    </g>
    <g id="xtick_5">
     <g id="line2d_5">
      <g>
       <use xlink:href="#mcf28ce60f3" x="286.613244" y="288.430125" style="stroke: #000000; stroke-width: 0.8"/>
      </g>
     </g>
     <g id="text_5">
      <!-- 2009 -->
      <g transform="translate(273.888244 303.028562) scale(0.1 -0.1)">
       <use xlink:href="#DejaVuSerif-32"/>
       <use xlink:href="#DejaVuSerif-30" x="63.623047"/>
       <use xlink:href="#DejaVuSerif-30" x="127.246094"/>
       <use xlink:href="#DejaVuSerif-39" x="190.869141"/>
      </g>
     </g>
    </g>
    <g id="xtick_6">
     <g id="line2d_6">
      <g>
       <use xlink:href="#mcf28ce60f3" x="332.106238" y="288.430125" style="stroke: #000000; stroke-width: 0.8"/>
      </g>
     </g>
     <g id="text_6">
      <!-- 2014 -->
      <g transform="translate(319.381238 303.028562) scale(0.1 -0.1)">
       <use xlink:href="#DejaVuSerif-32"/>
       <use xlink:href="#DejaVuSerif-30" x="63.623047"/>
       <use xlink:href="#DejaVuSerif-31" x="127.246094"/>
       <use xlink:href="#DejaVuSerif-34" x="190.869141"/>
      </g>
     </g>
    </g>
    <g id="xtick_7">
     <g id="line2d_7">
      <g>
       <use xlink:href="#mcf28ce60f3" x="377.599232" y="288.430125" style="stroke: #000000; stroke-width: 0.8"/>
      </g>
     </g>
     <g id="text_7">
      <!-- 2019 -->
      <g transform="translate(364.874232 303.028562) scale(0.1 -0.1)">
       <use xlink:href="#DejaVuSerif-32"/>
       <use xlink:href="#DejaVuSerif-30" x="63.623047"/>
       <use xlink:href="#DejaVuSerif-31" x="127.246094"/>
       <use xlink:href="#DejaVuSerif-39" x="190.869141"/>
      </g>
     </g>
    </g>
    <g id="xtick_8">
     <g id="line2d_8">
      <g>
       <use xlink:href="#mcf28ce60f3" x="423.092225" y="288.430125" style="stroke: #000000; stroke-width: 0.8"/>
      </g>
     </g>
     <g id="text_8">
      <!-- 2024 -->
      <g transform="translate(410.367225 303.028562) scale(0.1 -0.1)">
       <use xlink:href="#DejaVuSerif-32"/>
       <use xlink:href="#DejaVuSerif-30" x="63.623047"/>
       <use xlink:href="#DejaVuSerif-32" x="127.246094"/>
       <use xlink:href="#DejaVuSerif-34" x="190.869141"/>
      </g>
     </g>
    </g>
    <g id="xtick_9">
     <g id="line2d_9">
      <defs>
       <path id="ma4c920840c" d="M 0 0 
L 0 2 
" style="stroke: #000000; stroke-width: 0.6"/>
      </defs>
      <g>
       <use xlink:href="#ma4c920840c" x="68.246875" y="288.430125" style="stroke: #000000; stroke-width: 0.6"/>
      </g>
     </g>
    </g>
    <g id="xtick_10">
     <g id="line2d_10">
      <g>
       <use xlink:href="#ma4c920840c" x="77.345474" y="288.430125" style="stroke: #000000; stroke-width: 0.6"/>
      </g>
     </g>
    </g>
    <g id="xtick_11">
     <g id="line2d_11">
      <g>
       <use xlink:href="#ma4c920840c" x="86.444072" y="288.430125" style="stroke: #000000; stroke-width: 0.6"/>
      </g>
     </g>
    </g>
    <g id="xtick_12">
     <g id="line2d_12">
      <g>
       <use xlink:href="#ma4c920840c" x="95.542671" y="288.430125" style="stroke: #000000; stroke-width: 0.6"/>
      </g>
     </g>
    </g>
    <g id="xtick_13">
     <g id="line2d_13">
      <g>
       <use xlink:href="#ma4c920840c" x="113.739869" y="288.430125" style="stroke: #000000; stroke-width: 0.6"/>
      </g>
     </g>
    </g>
    <g id="xtick_14">
     <g id="line2d_14">
      <g>
       <use xlink:href="#ma4c920840c" x="122.838467" y="288.430125" style="stroke: #000000; stroke-width: 0.6"/>
      </g>
     </g>
    </g>
    <g id="xtick_15">
     <g id="line2d_15">
      <g>
       <use xlink:href="#ma4c920840c" x="131.937066" y="288.430125" style="stroke: #000000; stroke-width: 0.6"/>
      </g>
     </g>
    </g>
    <g id="xtick_16">
     <g id="line2d_16">
      <g>
       <use xlink:href="#ma4c920840c" x="141.035665" y="288.430125" style="stroke: #000000; stroke-width: 0.6"/>
      </g>
     </g>
    </g>
    <g id="xtick_17">
     <g id="line2d_17">
      <g>
       <use xlink:href="#ma4c920840c" x="159.232862" y="288.430125" style="stroke: #000000; stroke-width: 0.6"/>
      </g>
     </g>
    </g>
    <g id="xtick_18">
     <g id="line2d_18">
      <g>
       <use xlink:href="#ma4c920840c" x="168.331461" y="288.430125" style="stroke: #000000; stroke-width: 0.6"/>
      </g>
     </g>
    </g>
    <g id="xtick_19">
     <g id="line2d_19">
      <g>
       <use xlink:href="#ma4c920840c" x="177.43006" y="288.430125" style="stroke: #000000; stroke-width: 0.6"/>
      </g>
     </g>
    </g>
    <g id="xtick_20">
     <g id="line2d_20">
      <g>
       <use xlink:href="#ma4c920840c" x="186.528658" y="288.430125" style="stroke: #000000; stroke-width: 0.6"/>
      </g>
     </g>
    </g>
    <g id="xtick_21">
     <g id="line2d_21">
      <g>
       <use xlink:href="#ma4c920840c" x="204.725856" y="288.430125" style="stroke: #000000; stroke-width: 0.6"/>
      </g>
     </g>
    </g>
    <g id="xtick_22">
     <g id="line2d_22">
      <g>
       <use xlink:href="#ma4c920840c" x="213.824455" y="288.430125" style="stroke: #000000; stroke-width: 0.6"/>
      </g>
     </g>
    </g>
    <g id="xtick_23">
     <g id="line2d_23">
      <g>
       <use xlink:href="#ma4c920840c" x="222.923053" y="288.430125" style="stroke: #000000; stroke-width: 0.6"/>
      </g>
     </g>
    </g>
    <g id="xtick_24">
     <g id="line2d_24">
      <g>
       <use xlink:href="#ma4c920840c" x="232.021652" y="288.430125" style="stroke: #000000; stroke-width: 0.6"/>
      </g>
     </g>
    </g>
    <g id="xtick_25">
     <g id="line2d_25">
      <g>
       <use xlink:href="#ma4c920840c" x="250.21885" y="288.430125" style="stroke: #000000; stroke-width: 0.6"/>
      </g>
     </g>
    </g>
    <g id="xtick_26">
     <g id="line2d_26">
      <g>
       <use xlink:href="#ma4c920840c" x="259.317448" y="288.430125" style="stroke: #000000; stroke-width: 0.6"/>
      </g>
     </g>
    </g>
    <g id="xtick_27">
     <g id="line2d_27">
      <g>
       <use xlink:href="#ma4c920840c" x="268.416047" y="288.430125" style="stroke: #000000; stroke-width: 0.6"/>
      </g>
     </g>
    </g>
    <g id="xtick_28">
     <g id="line2d_28">
      <g>
       <use xlink:href="#ma4c920840c" x="277.514646" y="288.430125" style="stroke: #000000; stroke-width: 0.6"/>
      </g>
     </g>
    </g>
    <g id="xtick_29">
     <g id="line2d_29">
      <g>
       <use xlink:href="#ma4c920840c" x="295.711843" y="288.430125" style="stroke: #000000; stroke-width: 0.6"/>
      </g>
     </g>
    </g>
    <g id="xtick_30">
     <g id="line2d_30">
      <g>
       <use xlink:href="#ma4c920840c" x="304.810442" y="288.430125" style="stroke: #000000; stroke-width: 0.6"/>
      </g>
     </g>
    </g>
    <g id="xtick_31">
     <g id="line2d_31">
      <g>
       <use xlink:href="#ma4c920840c" x="313.909041" y="288.430125" style="stroke: #000000; stroke-width: 0.6"/>
      </g>
     </g>
    </g>
    <g id="xtick_32">
     <g id="line2d_32">
      <g>
       <use xlink:href="#ma4c920840c" x="323.007639" y="288.430125" style="stroke: #000000; stroke-width: 0.6"/>
      </g>
     </g>
    </g>
    <g id="xtick_33">
     <g id="line2d_33">
      <g>
       <use xlink:href="#ma4c920840c" x="341.204837" y="288.430125" style="stroke: #000000; stroke-width: 0.6"/>
      </g>
     </g>
    </g>
    <g id="xtick_34">
     <g id="line2d_34">
      <g>
       <use xlink:href="#ma4c920840c" x="350.303436" y="288.430125" style="stroke: #000000; stroke-width: 0.6"/>
      </g>
     </g>
    </g>
    <g id="xtick_35">
     <g id="line2d_35">
      <g>
       <use xlink:href="#ma4c920840c" x="359.402034" y="288.430125" style="stroke: #000000; stroke-width: 0.6"/>
      </g>
     </g>
    </g>
    <g id="xtick_36">
     <g id="line2d_36">
      <g>
       <use xlink:href="#ma4c920840c" x="368.500633" y="288.430125" style="stroke: #000000; stroke-width: 0.6"/>
      </g>
     </g>
    </g>
    <g id="xtick_37">
     <g id="line2d_37">
      <g>
       <use xlink:href="#ma4c920840c" x="386.69783" y="288.430125" style="stroke: #000000; stroke-width: 0.6"/>
      </g>
     </g>
    </g>
    <g id="xtick_38">
     <g id="line2d_38">
      <g>
       <use xlink:href="#ma4c920840c" x="395.796429" y="288.430125" style="stroke: #000000; stroke-width: 0.6"/>
      </g>
     </g>
    </g>
    <g id="xtick_39">
     <g id="line2d_39">
      <g>
       <use xlink:href="#ma4c920840c" x="404.895028" y="288.430125" style="stroke: #000000; stroke-width: 0.6"/>
      </g>
     </g>
    </g>
    <g id="xtick_40">
     <g id="line2d_40">
      <g>
       <use xlink:href="#ma4c920840c" x="413.993627" y="288.430125" style="stroke: #000000; stroke-width: 0.6"/>
      </g>
     </g>
    </g>
   </g>
   <g id="matplotlib.axis_2">
    <g id="ytick_1">
     <g id="line2d_41">
      <path d="M 68.246875 272.828856 
L 425.366875 272.828856 
" clip-path="url(#p2833d3c055)" style="fill: none; stroke-dasharray: 2.96,1.28; stroke-dashoffset: 0; stroke: #b0b0b0; stroke-width: 0.8"/>
     </g>
     <g id="line2d_42">
      <defs>
       <path id="m5c8b7b53ca" d="M 0 0 
L -3.5 0 
" style="stroke: #000000; stroke-width: 0.8"/>
      </defs>
      <g>
       <use xlink:href="#m5c8b7b53ca" x="68.246875" y="272.828856" style="stroke: #000000; stroke-width: 0.8"/>
      </g>
     </g>
     <g id="text_9">
      <!-- −10.0% -->
      <g transform="translate(21.1 276.628075) scale(0.1 -0.1)">
       <defs>
        <path id="DejaVuSerif-2212" d="M 678 2259 
L 4684 2259 
L 4684 1753 
L 678 1753 
L 678 2259 
z
" transform="scale(0.015625)"/>
        <path id="DejaVuSerif-2e" d="M 603 325 
Q 603 500 722 622 
Q 841 744 1019 744 
Q 1191 744 1312 622 
Q 1434 500 1434 325 
Q 1434 153 1312 31 
Q 1191 -91 1019 -91 
Q 841 -91 722 29 
Q 603 150 603 325 
z
" transform="scale(0.015625)"/>
        <path id="DejaVuSerif-25" d="M 1434 4459 
Q 1159 4459 1004 4200 
Q 850 3941 850 3475 
Q 850 3016 1008 2753 
Q 1166 2491 1434 2491 
Q 1700 2491 1854 2752 
Q 2009 3013 2009 3475 
Q 2009 3938 1854 4198 
Q 1700 4459 1434 4459 
z
M 4653 2169 
Q 4381 2169 4226 1906 
Q 4072 1644 4072 1178 
Q 4072 719 4228 458 
Q 4384 197 4653 197 
Q 4922 197 5075 458 
Q 5228 719 5228 1178 
Q 5228 1641 5073 1905 
Q 4919 2169 4653 2169 
z
M 4653 2450 
Q 5147 2450 5437 2106 
Q 5728 1763 5728 1178 
Q 5728 594 5436 251 
Q 5144 -91 4653 -91 
Q 4153 -91 3862 251 
Q 3572 594 3572 1178 
Q 3572 1766 3864 2108 
Q 4156 2450 4653 2450 
z
M 4263 4750 
L 4738 4750 
L 1819 -91 
L 1344 -91 
L 4263 4750 
z
M 1428 4750 
Q 1922 4750 2215 4408 
Q 2509 4066 2509 3481 
Q 2509 2891 2217 2550 
Q 1925 2209 1428 2209 
Q 931 2209 642 2551 
Q 353 2894 353 3481 
Q 353 4063 643 4406 
Q 934 4750 1428 4750 
z
" transform="scale(0.015625)"/>
       </defs>
       <use xlink:href="#DejaVuSerif-2212"/>
       <use xlink:href="#DejaVuSerif-31" x="83.789062"/>
       <use xlink:href="#DejaVuSerif-30" x="147.412109"/>
       <use xlink:href="#DejaVuSerif-2e" x="211.035156"/>
       <use xlink:href="#DejaVuSerif-30" x="242.822266"/>
       <use xlink:href="#DejaVuSerif-25" x="306.445312"/>
      </g>
     </g>
    </g>
    <g id="ytick_2">
     <g id="line2d_43">
      <path d="M 68.246875 216.807801 
L 425.366875 216.807801 
" clip-path="url(#p2833d3c055)" style="fill: none; stroke-dasharray: 2.96,1.28; stroke-dashoffset: 0; stroke: #b0b0b0; stroke-width: 0.8"/>
     </g>
     <g id="line2d_44">
      <g>
       <use xlink:href="#m5c8b7b53ca" x="68.246875" y="216.807801" style="stroke: #000000; stroke-width: 0.8"/>
      </g>
     </g>
     <g id="text_10">
      <!-- −5.0% -->
      <g transform="translate(27.4625 220.607019) scale(0.1 -0.1)">
       <defs>
        <path id="DejaVuSerif-35" d="M 3219 4666 
L 3219 4153 
L 1081 4153 
L 1081 2816 
Q 1244 2928 1461 2984 
Q 1678 3041 1947 3041 
Q 2703 3041 3140 2622 
Q 3578 2203 3578 1478 
Q 3578 738 3136 323 
Q 2694 -91 1894 -91 
Q 1572 -91 1234 -12 
Q 897 66 544 225 
L 544 1131 
L 897 1131 
Q 925 688 1179 453 
Q 1434 219 1894 219 
Q 2388 219 2653 544 
Q 2919 869 2919 1478 
Q 2919 2084 2655 2407 
Q 2391 2731 1894 2731 
Q 1613 2731 1398 2631 
Q 1184 2531 1019 2322 
L 750 2322 
L 750 4666 
L 3219 4666 
z
" transform="scale(0.015625)"/>
       </defs>
       <use xlink:href="#DejaVuSerif-2212"/>
       <use xlink:href="#DejaVuSerif-35" x="83.789062"/>
       <use xlink:href="#DejaVuSerif-2e" x="147.412109"/>
       <use xlink:href="#DejaVuSerif-30" x="179.199219"/>
       <use xlink:href="#DejaVuSerif-25" x="242.822266"/>
      </g>
     </g>
    </g>
    <g id="ytick_3">
     <g id="line2d_45">
      <path d="M 68.246875 160.786745 
L 425.366875 160.786745 
" clip-path="url(#p2833d3c055)" style="fill: none; stroke-dasharray: 2.96,1.28; stroke-dashoffset: 0; stroke: #b0b0b0; stroke-width: 0.8"/>
     </g>
     <g id="line2d_46">
      <g>
       <use xlink:href="#m5c8b7b53ca" x="68.246875" y="160.786745" style="stroke: #000000; stroke-width: 0.8"/>
      </g>
     </g>
     <g id="text_11">
      <!-- 0.0% -->
      <g transform="translate(35.842188 164.585964) scale(0.1 -0.1)">
       <use xlink:href="#DejaVuSerif-30"/>
       <use xlink:href="#DejaVuSerif-2e" x="63.623047"/>
       <use xlink:href="#DejaVuSerif-30" x="95.410156"/>
       <use xlink:href="#DejaVuSerif-25" x="159.033203"/>
      </g>
     </g>
    </g>
    <g id="ytick_4">
     <g id="line2d_47">
      <path d="M 68.246875 104.765689 
L 425.366875 104.765689 
" clip-path="url(#p2833d3c055)" style="fill: none; stroke-dasharray: 2.96,1.28; stroke-dashoffset: 0; stroke: #b0b0b0; stroke-width: 0.8"/>
     </g>
     <g id="line2d_48">
      <g>
       <use xlink:href="#m5c8b7b53ca" x="68.246875" y="104.765689" style="stroke: #000000; stroke-width: 0.8"/>
      </g>
     </g>
     <g id="text_12">
      <!-- 5.0% -->
      <g transform="translate(35.842188 108.564908) scale(0.1 -0.1)">
       <use xlink:href="#DejaVuSerif-35"/>
       <use xlink:href="#DejaVuSerif-2e" x="63.623047"/>
       <use xlink:href="#DejaVuSerif-30" x="95.410156"/>
       <use xlink:href="#DejaVuSerif-25" x="159.033203"/>
      </g>
     </g>
    </g>
    <g id="ytick_5">
     <g id="line2d_49">
      <path d="M 68.246875 48.744634 
L 425.366875 48.744634 
" clip-path="url(#p2833d3c055)" style="fill: none; stroke-dasharray: 2.96,1.28; stroke-dashoffset: 0; stroke: #b0b0b0; stroke-width: 0.8"/>
     </g>
     <g id="line2d_50">
      <g>
       <use xlink:href="#m5c8b7b53ca" x="68.246875" y="48.744634" style="stroke: #000000; stroke-width: 0.8"/>
      </g>
     </g>
     <g id="text_13">
      <!-- 10.0% -->
      <g transform="translate(29.479688 52.543852) scale(0.1 -0.1)">
       <use xlink:href="#DejaVuSerif-31"/>
       <use xlink:href="#DejaVuSerif-30" x="63.623047"/>
       <use xlink:href="#DejaVuSerif-2e" x="127.246094"/>
       <use xlink:href="#DejaVuSerif-30" x="159.033203"/>
       <use xlink:href="#DejaVuSerif-25" x="222.65625"/>
      </g>
     </g>
    </g>
    <g id="text_14">
     <!-- $\Delta\log(x_i)$ -->
     <g transform="translate(14.8 174.774125) rotate(-90) scale(0.1 -0.1)">
      <defs>
       <path id="DejaVuSerif-394" d="M 4350 0 
L 244 0 
L 2034 4666 
L 2559 4666 
L 4350 0 
z
M 3506 331 
L 2138 3909 
L 763 331 
L 3506 331 
z
" transform="scale(0.015625)"/>
       <path id="DejaVuSerif-6c" d="M 1313 331 
L 1856 331 
L 1856 0 
L 184 0 
L 184 331 
L 738 331 
L 738 4531 
L 184 4531 
L 184 4863 
L 1313 4863 
L 1313 331 
z
" transform="scale(0.015625)"/>
       <path id="DejaVuSerif-6f" d="M 1925 219 
Q 2388 219 2623 584 
Q 2859 950 2859 1663 
Q 2859 2375 2623 2739 
Q 2388 3103 1925 3103 
Q 1463 3103 1227 2739 
Q 991 2375 991 1663 
Q 991 950 1228 584 
Q 1466 219 1925 219 
z
M 1925 -91 
Q 1200 -91 759 389 
Q 319 869 319 1663 
Q 319 2456 758 2934 
Q 1197 3413 1925 3413 
Q 2653 3413 3092 2934 
Q 3531 2456 3531 1663 
Q 3531 869 3092 389 
Q 2653 -91 1925 -91 
z
" transform="scale(0.015625)"/>
       <path id="DejaVuSerif-67" d="M 3359 2988 
L 3359 72 
Q 3359 -644 2965 -1033 
Q 2572 -1422 1844 -1422 
Q 1516 -1422 1216 -1362 
Q 916 -1303 641 -1184 
L 641 -488 
L 941 -488 
Q 997 -813 1206 -963 
Q 1416 -1113 1806 -1113 
Q 2313 -1113 2548 -827 
Q 2784 -541 2784 72 
L 2784 519 
Q 2616 206 2355 57 
Q 2094 -91 1709 -91 
Q 1097 -91 708 395 
Q 319 881 319 1663 
Q 319 2444 706 2928 
Q 1094 3413 1709 3413 
Q 2094 3413 2355 3264 
Q 2616 3116 2784 2803 
L 2784 3322 
L 3909 3322 
L 3909 2988 
L 3359 2988 
z
M 2784 1825 
Q 2784 2422 2554 2737 
Q 2325 3053 1888 3053 
Q 1444 3053 1217 2703 
Q 991 2353 991 1663 
Q 991 975 1217 622 
Q 1444 269 1888 269 
Q 2325 269 2554 583 
Q 2784 897 2784 1497 
L 2784 1825 
z
" transform="scale(0.015625)"/>
       <path id="DejaVuSerif-28" d="M 2041 -997 
Q 1281 -656 893 83 
Q 506 822 506 1931 
Q 506 3044 893 3783 
Q 1281 4522 2041 4863 
L 2041 4556 
Q 1559 4225 1350 3623 
Q 1141 3022 1141 1931 
Q 1141 844 1350 242 
Q 1559 -359 2041 -691 
L 2041 -997 
z
" transform="scale(0.015625)"/>
       <path id="DejaVuSerif-Italic-78" d="M 409 0 
L 19 0 
L 1484 1594 
L 747 2988 
L 338 2988 
L 400 3322 
L 1244 3322 
L 1934 2028 
L 3125 3322 
L 3516 3322 
L 2078 1759 
L 2838 331 
L 3272 331 
L 3209 0 
L 2338 0 
L 1631 1325 
L 409 0 
z
" transform="scale(0.015625)"/>
       <path id="DejaVuSerif-Italic-69" d="M 1009 4353 
Q 1038 4497 1163 4603 
Q 1288 4709 1434 4709 
Q 1578 4709 1663 4603 
Q 1728 4522 1728 4422 
Q 1728 4388 1719 4353 
Q 1691 4206 1567 4103 
Q 1444 4000 1297 4000 
Q 1150 4000 1066 4103 
Q 1003 4181 1003 4281 
Q 1003 4316 1009 4353 
z
M 963 331 
L 1506 331 
L 1444 0 
L 325 0 
L 903 2988 
L 353 2988 
L 419 3322 
L 1544 3322 
L 963 331 
z
" transform="scale(0.015625)"/>
       <path id="DejaVuSerif-29" d="M 453 -997 
L 453 -691 
Q 934 -359 1145 242 
Q 1356 844 1356 1931 
Q 1356 3022 1145 3623 
Q 934 4225 453 4556 
L 453 4863 
Q 1216 4522 1603 3783 
Q 1991 3044 1991 1931 
Q 1991 822 1603 83 
Q 1216 -656 453 -997 
z
" transform="scale(0.015625)"/>
      </defs>
      <use xlink:href="#DejaVuSerif-394" transform="translate(0 0.015625)"/>
      <use xlink:href="#DejaVuSerif-6c" transform="translate(72.216797 0.015625)"/>
      <use xlink:href="#DejaVuSerif-6f" transform="translate(104.199219 0.015625)"/>
      <use xlink:href="#DejaVuSerif-67" transform="translate(164.404297 0.015625)"/>
      <use xlink:href="#DejaVuSerif-28" transform="translate(228.417969 0.015625)"/>
      <use xlink:href="#DejaVuSerif-Italic-78" transform="translate(267.431641 0.015625)"/>
      <use xlink:href="#DejaVuSerif-Italic-69" transform="translate(323.828125 -15.55625) scale(0.7)"/>
      <use xlink:href="#DejaVuSerif-29" transform="translate(348.811133 0.015625)"/>
     </g>
    </g>
   </g>
   <g id="line2d_51">
    <path d="M 77.345474 96.484796 
L 79.620123 98.290062 
L 81.894773 80.599366 
L 84.169423 80.226055 
L 86.444072 80.316067 
L 88.718722 67.291077 
L 90.993372 66.251561 
L 93.268021 48.273654 
L 95.542671 42.899064 
L 97.817321 40.963568 
L 100.091971 49.459586 
L 102.36662 79.449879 
L 104.64127 91.864852 
L 106.91592 100.691586 
L 109.190569 104.350849 
L 111.465219 97.719934 
L 113.739869 109.921679 
L 116.014518 136.707973 
L 118.289168 153.72993 
L 120.563818 144.591128 
L 122.838467 136.512202 
L 125.113117 127.879285 
L 127.387767 121.234081 
L 129.662416 132.378431 
L 131.937066 141.56001 
L 134.211716 131.381778 
L 136.486365 138.766911 
L 138.761015 145.312141 
L 141.035665 127.755846 
L 145.584964 118.01014 
L 147.859614 100.635692 
L 150.134264 94.749652 
L 152.408913 96.116172 
L 154.683563 107.889737 
L 156.958213 120.583204 
L 159.232862 132.183356 
L 161.507512 152.584345 
L 163.782162 134.413381 
L 166.056811 125.879803 
L 168.331461 106.892068 
L 170.606111 77.058195 
L 172.88076 80.968381 
L 175.15541 83.98195 
L 177.43006 83.383465 
L 179.704709 98.004655 
L 181.979359 105.88795 
L 184.254009 118.083858 
L 186.528658 142.773474 
L 188.803308 143.574587 
L 191.077958 147.582192 
L 193.352607 153.380883 
L 195.627257 151.292563 
L 197.901907 148.552461 
L 200.176557 144.63512 
L 202.451206 147.303407 
L 204.725856 155.038499 
L 207.000506 180.417767 
L 209.275155 186.664153 
L 211.549805 180.755617 
L 213.824455 158.585144 
L 216.099104 134.160519 
L 218.373754 124.536364 
L 220.648404 104.980869 
L 222.923053 119.971271 
L 225.197703 122.44163 
L 227.472353 104.038879 
L 229.747002 113.762582 
L 232.021652 92.894148 
L 234.296302 56.061875 
L 236.570951 71.966615 
L 238.845601 52.861871 
L 241.120251 74.650932 
L 243.3949 120.843046 
L 245.66955 127.12806 
L 247.9442 146.140947 
L 250.21885 127.823798 
L 252.493499 129.97567 
L 254.768149 86.069552 
L 257.042799 98.022573 
L 259.317448 126.139755 
L 261.592098 114.023496 
L 263.866748 145.666475 
L 266.141397 131.629163 
L 268.416047 119.564711 
L 270.690697 134.125099 
L 272.965346 143.597034 
L 275.239996 145.343344 
L 277.514646 142.013471 
L 279.789295 112.3121 
L 282.063945 137.227945 
L 284.338595 129.786355 
L 286.613244 121.393476 
L 288.887894 125.392845 
L 291.162544 80.885588 
L 293.437193 81.111141 
L 295.711843 91.622964 
L 297.986493 95.074136 
L 300.261143 83.302671 
L 302.535792 86.573367 
L 304.810442 81.893616 
L 307.085092 83.101842 
L 309.359741 92.330592 
L 311.634391 72.34481 
L 313.909041 78.305218 
L 316.18369 88.229141 
L 318.45834 58.694843 
L 320.73299 64.193854 
L 323.007639 61.854978 
L 325.282289 53.709839 
L 327.556939 92.562123 
L 329.831588 111.49566 
L 332.106238 115.228702 
L 334.380888 120.665936 
L 336.655537 121.940029 
L 338.930187 123.689975 
L 341.204837 129.53737 
L 343.479486 143.851065 
L 345.754136 139.388368 
L 348.028786 144.669412 
L 350.303436 144.980516 
L 352.578085 134.317648 
L 354.852735 130.583348 
L 357.127385 127.791665 
L 359.402034 127.317852 
L 361.676684 125.371312 
L 363.951334 117.978268 
L 366.225983 115.669508 
L 368.500633 117.861783 
L 370.775283 125.137906 
L 373.049932 134.600382 
L 375.324582 133.048506 
L 377.599232 124.218639 
L 379.873881 120.473088 
L 382.148531 124.633507 
L 384.423181 139.497527 
L 386.69783 159.975046 
L 388.97248 137.941603 
L 393.521779 100.451051 
L 395.796429 84.543092 
L 398.071079 106.95898 
L 400.345729 124.634341 
L 402.620378 132.696922 
L 404.895028 148.622027 
L 407.169678 159.295729 
L 409.444327 163.139013 
L 411.718977 161.970323 
L 413.993627 161.439181 
L 416.268276 162.62922 
L 418.542926 178.355245 
L 420.817576 189.707882 
L 423.092225 183.938723 
L 425.366875 170.63735 
L 425.366875 170.63735 
" clip-path="url(#p2833d3c055)" style="fill: none; stroke: #1f77b4; stroke-width: 1.5; stroke-linecap: square"/>
   </g>
   <g id="line2d_52">
    <path d="M 77.345474 100.513403 
L 79.620123 101.41083 
L 81.894773 102.608006 
L 84.169423 121.60632 
L 86.444072 130.658496 
L 88.718722 130.781433 
L 90.993372 116.600679 
L 93.268021 100.963308 
L 95.542671 98.814943 
L 97.817321 97.794525 
L 100.091971 95.651273 
L 102.36662 83.816115 
L 104.64127 77.892833 
L 106.91592 66.69437 
L 109.190569 72.602043 
L 111.465219 79.001907 
L 113.739869 57.285119 
L 118.289168 71.781518 
L 120.563818 83.789647 
L 122.838467 98.685254 
L 125.113117 117.0942 
L 127.387767 115.512378 
L 129.662416 117.433404 
L 131.937066 126.709603 
L 134.211716 125.023792 
L 136.486365 145.967608 
L 138.761015 157.202511 
L 141.035665 164.2461 
L 143.310314 145.181282 
L 145.584964 124.376144 
L 147.859614 113.813895 
L 150.134264 109.305367 
L 152.408913 139.407095 
L 154.683563 140.09261 
L 156.958213 142.837687 
L 159.232862 156.313087 
L 161.507512 140.893766 
L 163.782162 140.752033 
L 166.056811 147.676605 
L 168.331461 142.353012 
L 170.606111 144.11015 
L 172.88076 163.343833 
L 175.15541 158.958493 
L 177.43006 149.223253 
L 179.704709 153.439503 
L 181.979359 132.328861 
L 184.254009 129.526118 
L 186.528658 129.320456 
L 188.803308 117.801413 
L 191.077958 131.477277 
L 193.352607 144.337574 
L 195.627257 152.778677 
L 197.901907 158.917882 
L 200.176557 143.845751 
L 202.451206 110.244367 
L 204.725856 102.925046 
L 207.000506 101.758351 
L 209.275155 99.440826 
L 211.549805 108.151344 
L 213.824455 113.466814 
L 216.099104 117.43401 
L 218.373754 131.478233 
L 220.648404 155.580887 
L 222.923053 162.645249 
L 225.197703 167.449586 
L 227.472353 166.119857 
L 229.747002 161.378873 
L 232.021652 158.985653 
L 234.296302 154.578077 
L 236.570951 147.904778 
L 238.845601 132.31806 
L 241.120251 129.164667 
L 243.3949 121.088852 
L 245.66955 138.086532 
L 247.9442 138.755695 
L 250.21885 130.643478 
L 252.493499 128.581565 
L 254.768149 104.851145 
L 257.042799 101.692799 
L 259.317448 92.923126 
L 261.592098 91.368128 
L 263.866748 93.260257 
L 266.141397 91.019956 
L 268.416047 93.608197 
L 270.690697 85.268162 
L 272.965346 87.449809 
L 275.239996 95.444974 
L 277.514646 97.313661 
L 279.789295 108.834279 
L 282.063945 115.160543 
L 286.613244 182.697151 
L 288.887894 193.243642 
L 291.162544 185.620408 
L 295.711843 125.457847 
L 297.986493 116.432686 
L 300.261143 125.887384 
L 302.535792 122.416028 
L 304.810442 128.770047 
L 307.085092 131.670194 
L 309.359741 141.050296 
L 311.634391 151.727099 
L 313.909041 152.050105 
L 316.18369 157.728705 
L 318.45834 150.094521 
L 320.73299 144.317045 
L 323.007639 144.034234 
L 325.282289 135.598098 
L 327.556939 133.081716 
L 329.831588 136.123232 
L 332.106238 140.163336 
L 334.380888 145.531765 
L 336.655537 146.166138 
L 338.930187 145.351409 
L 341.204837 151.434746 
L 343.479486 155.888302 
L 345.754136 156.896996 
L 348.028786 157.637587 
L 350.303436 150.719613 
L 352.578085 145.037722 
L 354.852735 145.856853 
L 357.127385 149.973481 
L 359.402034 149.660288 
L 361.676684 154.238003 
L 363.951334 144.609527 
L 366.225983 132.283671 
L 368.500633 128.058427 
L 370.775283 112.445772 
L 373.049932 125.635996 
L 377.599232 137.635827 
L 379.873881 149.905077 
L 382.148531 147.384641 
L 384.423181 147.140837 
L 386.69783 168.629112 
L 388.97248 253.488983 
L 391.24713 177.861514 
L 393.521779 176.902586 
L 395.796429 148.927256 
L 398.071079 34.414125 
L 400.345729 87.426571 
L 402.620378 82.336612 
L 404.895028 73.014314 
L 407.169678 86.127883 
L 409.444327 105.971504 
L 411.718977 113.72809 
L 413.993627 119.000399 
L 416.268276 143.920139 
L 418.542926 144.207253 
L 420.817576 143.671839 
L 423.092225 140.920253 
L 425.366875 130.392808 
L 425.366875 130.392808 
" clip-path="url(#p2833d3c055)" style="fill: none; stroke: #ff7f0e; stroke-width: 1.5; stroke-linecap: square"/>
   </g>
   <g id="line2d_53">
    <path d="M 77.345474 164.815351 
L 79.620123 163.907514 
L 84.169423 202.16701 
L 86.444072 211.129173 
L 88.718722 224.277101 
L 90.993372 211.135864 
L 93.268021 213.4764 
L 95.542671 216.702624 
L 97.817321 217.617701 
L 100.091971 206.978432 
L 102.36662 165.15298 
L 104.64127 146.814726 
L 106.91592 126.78953 
L 109.190569 129.037939 
L 111.465219 142.068718 
L 113.739869 108.150185 
L 116.014518 88.599103 
L 118.289168 78.838333 
L 120.563818 99.985264 
L 122.838467 122.959798 
L 125.113117 150.00166 
L 127.387767 155.065042 
L 129.662416 145.841718 
L 131.937066 145.936338 
L 134.211716 154.428758 
L 136.486365 167.987443 
L 138.761015 172.677115 
L 141.035665 197.276999 
L 143.310314 183.218874 
L 145.584964 167.15275 
L 147.859614 173.964948 
L 150.134264 175.34246 
L 152.408913 204.077668 
L 154.683563 192.989618 
L 156.958213 183.041228 
L 159.232862 184.916476 
L 161.507512 149.096166 
L 163.782162 167.125397 
L 166.056811 182.583547 
L 168.331461 196.247689 
L 170.606111 227.8387 
L 172.88076 243.162197 
L 175.15541 235.763287 
L 177.43006 226.626532 
L 179.704709 216.221592 
L 181.979359 187.227655 
L 184.254009 172.229005 
L 186.528658 147.333727 
L 188.803308 135.013571 
L 191.077958 144.68183 
L 193.352607 151.743436 
L 195.627257 162.27286 
L 197.901907 171.152165 
L 200.176557 159.997375 
L 202.451206 123.727705 
L 204.725856 108.673292 
L 207.000506 82.127329 
L 209.275155 73.563418 
L 211.549805 88.182472 
L 216.099104 144.060237 
L 218.373754 167.728614 
L 220.648404 211.386763 
L 222.923053 203.460723 
L 225.197703 205.794701 
L 227.472353 222.867723 
L 229.747002 208.403036 
L 232.021652 226.87825 
L 234.296302 259.302947 
L 236.570951 236.724908 
L 238.845601 240.242934 
L 241.120251 215.30048 
L 243.3949 161.03255 
L 245.66955 171.745217 
L 247.9442 153.401493 
L 250.21885 163.606425 
L 252.493499 159.39264 
L 254.768149 179.568337 
L 257.042799 164.456971 
L 259.317448 127.570116 
L 261.592098 138.131376 
L 263.866748 108.380527 
L 266.141397 120.177538 
L 268.416047 134.830231 
L 270.690697 111.929808 
L 272.965346 104.63952 
L 275.239996 110.888376 
L 277.514646 116.086935 
L 279.789295 157.308924 
L 282.063945 138.719343 
L 286.613244 222.09042 
L 288.887894 228.637543 
L 291.162544 265.521565 
L 293.437193 235.60405 
L 295.711843 194.621628 
L 297.986493 182.145295 
L 300.261143 203.371458 
L 302.535792 196.629407 
L 304.810442 207.663176 
L 307.085092 209.355097 
L 309.359741 209.506449 
L 311.634391 240.169034 
L 313.909041 234.531632 
L 316.18369 230.286309 
L 318.45834 252.186422 
L 320.73299 240.909936 
L 323.007639 242.966001 
L 325.282289 242.675004 
L 327.556939 201.306338 
L 329.831588 185.414317 
L 332.106238 185.721379 
L 334.380888 185.652574 
L 336.655537 185.012854 
L 338.930187 182.44818 
L 341.204837 182.684121 
L 343.479486 172.823981 
L 345.754136 178.295373 
L 348.028786 173.75492 
L 350.303436 166.525841 
L 352.578085 171.506819 
L 354.852735 176.06025 
L 357.127385 182.968561 
L 359.402034 183.129181 
L 361.676684 189.653436 
L 363.951334 187.418004 
L 366.225983 177.400909 
L 368.500633 170.983389 
L 370.775283 148.094611 
L 373.049932 151.822359 
L 375.324582 159.522869 
L 377.599232 174.203933 
L 379.873881 190.218735 
L 382.148531 183.537879 
L 384.423181 168.430056 
L 386.69783 169.440811 
L 388.97248 276.334125 
L 391.24713 219.179419 
L 393.521779 237.23828 
L 395.796429 225.170909 
L 398.071079 88.24189 
L 400.345729 123.578976 
L 402.620378 110.426435 
L 404.895028 85.179032 
L 407.169678 87.6189 
L 409.444327 103.619235 
L 411.718977 112.544512 
L 413.993627 118.347963 
L 416.268276 142.077664 
L 418.542926 126.638753 
L 420.817576 114.750701 
L 423.092225 117.768275 
L 425.366875 120.542202 
L 425.366875 120.542202 
" clip-path="url(#p2833d3c055)" style="fill: none; stroke: #2ca02c; stroke-width: 1.5; stroke-linecap: square"/>
   </g>
   <g id="line2d_54">
    <path d="M 77.345474 136.45905 
L 79.620123 149.917247 
L 81.894773 155.141248 
L 84.169423 156.752877 
L 86.444072 153.397558 
L 88.718722 147.642362 
L 90.993372 141.057799 
L 93.268021 138.829305 
L 95.542671 143.447918 
L 97.817321 139.50619 
L 100.091971 140.677918 
L 102.36662 141.308691 
L 104.64127 135.893947 
L 106.91592 131.577274 
L 109.190569 127.835712 
L 111.465219 120.820063 
L 113.739869 105.43865 
L 116.014518 110.162751 
L 118.289168 102.818408 
L 120.563818 91.785648 
L 122.838467 100.698868 
L 125.113117 96.536204 
L 127.387767 89.688277 
L 129.662416 104.74535 
L 131.937066 107.502368 
L 134.211716 108.424018 
L 136.486365 118.803465 
L 138.761015 121.904026 
L 141.035665 122.624074 
L 143.310314 119.128644 
L 145.584964 123.468422 
L 147.859614 123.68427 
L 150.134264 137.736419 
L 152.408913 149.112891 
L 154.683563 154.198299 
L 156.958213 155.931381 
L 161.507512 143.041007 
L 163.782162 138.278607 
L 166.056811 138.914949 
L 168.331461 143.902649 
L 170.606111 150.622186 
L 172.88076 153.457123 
L 175.15541 151.413679 
L 177.43006 151.524968 
L 179.704709 154.950801 
L 181.979359 155.05492 
L 186.528658 160.614731 
L 188.803308 161.040222 
L 191.077958 159.946046 
L 193.352607 160.40384 
L 195.627257 159.968514 
L 197.901907 154.151917 
L 200.176557 152.581589 
L 202.451206 147.01634 
L 204.725856 143.164371 
L 207.000506 145.184132 
L 209.275155 139.82224 
L 211.549805 145.958699 
L 213.824455 146.364143 
L 216.099104 147.792212 
L 218.373754 145.743009 
L 220.648404 153.74798 
L 222.923053 154.96063 
L 225.197703 148.560185 
L 227.472353 161.365788 
L 229.747002 147.009649 
L 232.021652 151.338898 
L 234.296302 153.283858 
L 236.570951 157.758599 
L 238.845601 155.715233 
L 241.120251 158.855602 
L 243.3949 154.686745 
L 245.66955 151.166644 
L 247.9442 146.395072 
L 250.21885 147.369215 
L 252.493499 145.032192 
L 254.768149 147.541286 
L 257.042799 145.947192 
L 259.317448 146.416779 
L 261.592098 148.983048 
L 263.866748 144.938818 
L 266.141397 157.893961 
L 268.416047 159.642524 
L 270.690697 155.711708 
L 272.965346 152.744322 
L 275.239996 146.710154 
L 277.514646 133.927718 
L 279.789295 135.4855 
L 282.063945 126.855373 
L 284.338595 132.048031 
L 286.613244 159.228436 
L 288.887894 164.531349 
L 291.162544 174.060365 
L 293.437193 170.165246 
L 295.711843 149.374791 
L 297.986493 145.511792 
L 300.261143 156.107743 
L 302.535792 158.616759 
L 304.810442 157.670889 
L 307.085092 157.889874 
L 309.359741 155.509214 
L 311.634391 162.047955 
L 313.909041 169.66738 
L 316.18369 171.928684 
L 318.45834 168.816466 
L 320.73299 163.278331 
L 323.007639 163.812426 
L 325.282289 167.917801 
L 327.556939 160.817583 
L 329.831588 163.651128 
L 332.106238 160.177639 
L 334.380888 160.361227 
L 336.655537 160.429955 
L 338.930187 160.928617 
L 341.204837 166.236231 
L 343.479486 173.4352 
L 345.754136 175.175588 
L 348.028786 176.126406 
L 350.303436 175.070141 
L 352.578085 164.737261 
L 354.852735 163.061951 
L 357.127385 163.174298 
L 359.402034 156.883778 
L 361.676684 155.892707 
L 363.951334 157.103853 
L 366.225983 153.406159 
L 368.500633 152.523901 
L 370.775283 151.823572 
L 373.049932 147.085749 
L 375.324582 148.456644 
L 377.599232 154.528943 
L 379.873881 152.8813 
L 382.148531 157.29976 
L 384.423181 163.626229 
L 386.69783 158.521926 
L 388.97248 172.761595 
L 391.24713 171.140926 
L 393.521779 167.194546 
L 395.796429 166.90224 
L 398.071079 157.118556 
L 400.345729 153.206815 
L 402.620378 146.958307 
L 404.895028 142.464014 
L 409.444327 122.963041 
L 411.718977 127.711932 
L 413.993627 124.59929 
L 416.268276 132.406585 
L 418.542926 142.945613 
L 420.817576 141.97197 
L 423.092225 146.551706 
L 425.366875 145.565243 
L 425.366875 145.565243 
" clip-path="url(#p2833d3c055)" style="fill: none; stroke: #d62728; stroke-width: 1.5; stroke-linecap: square"/>
   </g>
   <g id="patch_37">
    <path d="M 68.246875 288.430125 
L 68.246875 22.318125 
" style="fill: none; stroke: #000000; stroke-width: 0.8; stroke-linejoin: miter; stroke-linecap: square"/>
   </g>
   <g id="patch_38">
    <path d="M 425.366875 288.430125 
L 425.366875 22.318125 
" style="fill: none; stroke: #000000; stroke-width: 0.8; stroke-linejoin: miter; stroke-linecap: square"/>
   </g>
   <g id="patch_39">
    <path d="M 68.246875 288.430125 
L 425.366875 288.430125 
" style="fill: none; stroke: #000000; stroke-width: 0.8; stroke-linejoin: miter; stroke-linecap: square"/>
   </g>
   <g id="patch_40">
    <path d="M 68.246875 22.318125 
L 425.366875 22.318125 
" style="fill: none; stroke: #000000; stroke-width: 0.8; stroke-linejoin: miter; stroke-linecap: square"/>
   </g>
   <g id="text_15">
    <!-- Switzerland -->
    <g transform="translate(210.44875 16.318125) scale(0.12 -0.12)">
     <defs>
      <path id="DejaVuSerif-53" d="M 594 225 
L 594 1288 
L 953 1284 
Q 969 753 1261 498 
Q 1553 244 2150 244 
Q 2706 244 2998 464 
Q 3291 684 3291 1106 
Q 3291 1444 3114 1625 
Q 2938 1806 2369 1978 
L 1753 2163 
Q 1084 2366 811 2669 
Q 538 2972 538 3500 
Q 538 4094 959 4422 
Q 1381 4750 2144 4750 
Q 2469 4750 2856 4679 
Q 3244 4609 3681 4475 
L 3681 3481 
L 3328 3481 
Q 3275 3975 2998 4195 
Q 2722 4416 2156 4416 
Q 1663 4416 1405 4214 
Q 1147 4013 1147 3628 
Q 1147 3294 1340 3103 
Q 1534 2913 2163 2725 
L 2741 2553 
Q 3375 2363 3645 2067 
Q 3916 1772 3916 1275 
Q 3916 597 3481 253 
Q 3047 -91 2188 -91 
Q 1803 -91 1404 -12 
Q 1006 66 594 225 
z
" transform="scale(0.015625)"/>
      <path id="DejaVuSerif-77" d="M 3072 3322 
L 3922 728 
L 4672 2988 
L 4191 2988 
L 4191 3322 
L 5394 3322 
L 5394 2988 
L 5025 2988 
L 4038 0 
L 3559 0 
L 2741 2484 
L 1919 0 
L 1459 0 
L 475 2988 
L 103 2988 
L 103 3322 
L 1606 3322 
L 1606 2988 
L 1069 2988 
L 1813 728 
L 2669 3322 
L 3072 3322 
z
" transform="scale(0.015625)"/>
      <path id="DejaVuSerif-69" d="M 622 4353 
Q 622 4497 726 4603 
Q 831 4709 978 4709 
Q 1122 4709 1226 4603 
Q 1331 4497 1331 4353 
Q 1331 4206 1228 4103 
Q 1125 4000 978 4000 
Q 831 4000 726 4103 
Q 622 4206 622 4353 
z
M 1356 331 
L 1900 331 
L 1900 0 
L 231 0 
L 231 331 
L 781 331 
L 781 2988 
L 231 2988 
L 231 3322 
L 1356 3322 
L 1356 331 
z
" transform="scale(0.015625)"/>
      <path id="DejaVuSerif-74" d="M 691 2988 
L 184 2988 
L 184 3322 
L 691 3322 
L 691 4353 
L 1269 4353 
L 1269 3322 
L 2350 3322 
L 2350 2988 
L 1269 2988 
L 1269 878 
Q 1269 456 1350 337 
Q 1431 219 1650 219 
Q 1875 219 1978 351 
Q 2081 484 2088 781 
L 2522 781 
Q 2497 328 2275 118 
Q 2053 -91 1600 -91 
Q 1103 -91 897 129 
Q 691 350 691 878 
L 691 2988 
z
" transform="scale(0.015625)"/>
      <path id="DejaVuSerif-7a" d="M 256 0 
L 256 269 
L 2338 2988 
L 691 2988 
L 691 2413 
L 359 2413 
L 359 3322 
L 3078 3322 
L 3078 3053 
L 997 331 
L 2803 331 
L 2803 934 
L 3138 934 
L 3138 0 
L 256 0 
z
" transform="scale(0.015625)"/>
      <path id="DejaVuSerif-65" d="M 3469 1600 
L 991 1600 
L 991 1575 
Q 991 903 1244 561 
Q 1497 219 1991 219 
Q 2369 219 2611 417 
Q 2853 616 2950 1006 
L 3413 1006 
Q 3275 459 2904 184 
Q 2534 -91 1931 -91 
Q 1203 -91 761 389 
Q 319 869 319 1663 
Q 319 2450 753 2931 
Q 1188 3413 1894 3413 
Q 2647 3413 3050 2948 
Q 3453 2484 3469 1600 
z
M 2791 1931 
Q 2772 2513 2545 2808 
Q 2319 3103 1894 3103 
Q 1497 3103 1269 2806 
Q 1041 2509 991 1931 
L 2791 1931 
z
" transform="scale(0.015625)"/>
      <path id="DejaVuSerif-72" d="M 3059 3328 
L 3059 2497 
L 2728 2497 
Q 2713 2744 2591 2866 
Q 2469 2988 2234 2988 
Q 1809 2988 1582 2694 
Q 1356 2400 1356 1850 
L 1356 331 
L 2022 331 
L 2022 0 
L 263 0 
L 263 331 
L 781 331 
L 781 2994 
L 231 2994 
L 231 3322 
L 1356 3322 
L 1356 2731 
Q 1525 3078 1790 3245 
Q 2056 3413 2438 3413 
Q 2578 3413 2733 3391 
Q 2888 3369 3059 3328 
z
" transform="scale(0.015625)"/>
      <path id="DejaVuSerif-61" d="M 2547 1044 
L 2547 1747 
L 1806 1747 
Q 1378 1747 1168 1562 
Q 959 1378 959 997 
Q 959 650 1171 447 
Q 1384 244 1747 244 
Q 2106 244 2326 466 
Q 2547 688 2547 1044 
z
M 3122 2075 
L 3122 331 
L 3634 331 
L 3634 0 
L 2547 0 
L 2547 359 
Q 2356 128 2106 18 
Q 1856 -91 1522 -91 
Q 969 -91 644 203 
Q 319 497 319 997 
Q 319 1513 691 1797 
Q 1063 2081 1741 2081 
L 2547 2081 
L 2547 2309 
Q 2547 2688 2317 2895 
Q 2088 3103 1672 3103 
Q 1328 3103 1125 2947 
Q 922 2791 872 2484 
L 575 2484 
L 575 3156 
Q 875 3284 1158 3348 
Q 1441 3413 1709 3413 
Q 2400 3413 2761 3070 
Q 3122 2728 3122 2075 
z
" transform="scale(0.015625)"/>
      <path id="DejaVuSerif-6e" d="M 263 0 
L 263 331 
L 781 331 
L 781 2988 
L 231 2988 
L 231 3322 
L 1356 3322 
L 1356 2731 
Q 1516 3069 1770 3241 
Q 2025 3413 2363 3413 
Q 2913 3413 3172 3097 
Q 3431 2781 3431 2113 
L 3431 331 
L 3944 331 
L 3944 0 
L 2356 0 
L 2356 331 
L 2853 331 
L 2853 1931 
Q 2853 2541 2703 2767 
Q 2553 2994 2175 2994 
Q 1775 2994 1565 2701 
Q 1356 2409 1356 1850 
L 1356 331 
L 1856 331 
L 1856 0 
L 263 0 
z
" transform="scale(0.015625)"/>
      <path id="DejaVuSerif-64" d="M 3359 331 
L 3909 331 
L 3909 0 
L 2784 0 
L 2784 519 
Q 2616 206 2355 57 
Q 2094 -91 1709 -91 
Q 1097 -91 708 395 
Q 319 881 319 1663 
Q 319 2444 706 2928 
Q 1094 3413 1709 3413 
Q 2094 3413 2355 3264 
Q 2616 3116 2784 2803 
L 2784 4531 
L 2241 4531 
L 2241 4863 
L 3359 4863 
L 3359 331 
z
M 2784 1497 
L 2784 1825 
Q 2784 2422 2554 2737 
Q 2325 3053 1888 3053 
Q 1444 3053 1217 2703 
Q 991 2353 991 1663 
Q 991 975 1217 622 
Q 1444 269 1888 269 
Q 2325 269 2554 583 
Q 2784 897 2784 1497 
z
" transform="scale(0.015625)"/>
     </defs>
     <use xlink:href="#DejaVuSerif-53"/>
     <use xlink:href="#DejaVuSerif-77" x="68.505859"/>
     <use xlink:href="#DejaVuSerif-69" x="154.101562"/>
     <use xlink:href="#DejaVuSerif-74" x="186.083984"/>
     <use xlink:href="#DejaVuSerif-7a" x="226.269531"/>
     <use xlink:href="#DejaVuSerif-65" x="278.955078"/>
     <use xlink:href="#DejaVuSerif-72" x="338.134766"/>
     <use xlink:href="#DejaVuSerif-6c" x="385.9375"/>
     <use xlink:href="#DejaVuSerif-61" x="417.919922"/>
     <use xlink:href="#DejaVuSerif-6e" x="477.539062"/>
     <use xlink:href="#DejaVuSerif-64" x="541.943359"/>
    </g>
   </g>
   <g id="legend_1">
    <g id="patch_41">
     <path d="M 75.246875 283.430125 
L 126.451563 283.430125 
Q 128.451563 283.430125 128.451563 281.430125 
L 128.451563 223.575437 
Q 128.451563 221.575437 126.451563 221.575437 
L 75.246875 221.575437 
Q 73.246875 221.575437 73.246875 223.575437 
L 73.246875 281.430125 
Q 73.246875 283.430125 75.246875 283.430125 
z
" style="fill: #ffffff; opacity: 0.8; stroke: #cccccc; stroke-linejoin: miter"/>
    </g>
    <g id="line2d_55">
     <path d="M 77.246875 229.673875 
L 87.246875 229.673875 
L 97.246875 229.673875 
" style="fill: none; stroke: #1f77b4; stroke-width: 1.5; stroke-linecap: square"/>
    </g>
    <g id="text_16">
     <!-- m3 -->
     <g transform="translate(105.246875 233.173875) scale(0.1 -0.1)">
      <defs>
       <path id="DejaVuSerif-6d" d="M 3316 2675 
Q 3481 3041 3739 3227 
Q 3997 3413 4341 3413 
Q 4863 3413 5119 3089 
Q 5375 2766 5375 2113 
L 5375 331 
L 5894 331 
L 5894 0 
L 4300 0 
L 4300 331 
L 4800 331 
L 4800 2047 
Q 4800 2556 4650 2772 
Q 4500 2988 4153 2988 
Q 3769 2988 3567 2697 
Q 3366 2406 3366 1850 
L 3366 331 
L 3866 331 
L 3866 0 
L 2291 0 
L 2291 331 
L 2791 331 
L 2791 2069 
Q 2791 2566 2641 2777 
Q 2491 2988 2144 2988 
Q 1759 2988 1557 2697 
Q 1356 2406 1356 1850 
L 1356 331 
L 1856 331 
L 1856 0 
L 263 0 
L 263 331 
L 781 331 
L 781 2994 
L 231 2994 
L 231 3322 
L 1356 3322 
L 1356 2731 
Q 1516 3063 1762 3238 
Q 2009 3413 2322 3413 
Q 2709 3413 2968 3220 
Q 3228 3028 3316 2675 
z
" transform="scale(0.015625)"/>
       <path id="DejaVuSerif-33" d="M 622 4469 
Q 988 4606 1323 4678 
Q 1659 4750 1953 4750 
Q 2638 4750 3022 4454 
Q 3406 4159 3406 3634 
Q 3406 3213 3140 2930 
Q 2875 2647 2388 2547 
Q 2963 2466 3280 2130 
Q 3597 1794 3597 1259 
Q 3597 606 3158 257 
Q 2719 -91 1894 -91 
Q 1528 -91 1179 -12 
Q 831 66 488 225 
L 488 1131 
L 838 1131 
Q 869 681 1141 450 
Q 1413 219 1906 219 
Q 2384 219 2661 495 
Q 2938 772 2938 1253 
Q 2938 1803 2653 2086 
Q 2369 2369 1819 2369 
L 1522 2369 
L 1522 2688 
L 1678 2688 
Q 2225 2688 2498 2914 
Q 2772 3141 2772 3597 
Q 2772 4006 2547 4223 
Q 2322 4441 1900 4441 
Q 1478 4441 1245 4241 
Q 1013 4041 972 3647 
L 622 3647 
L 622 4469 
z
" transform="scale(0.015625)"/>
      </defs>
      <use xlink:href="#DejaVuSerif-6d"/>
      <use xlink:href="#DejaVuSerif-33" x="94.824219"/>
     </g>
    </g>
    <g id="line2d_56">
     <path d="M 77.246875 244.352 
L 87.246875 244.352 
L 97.246875 244.352 
" style="fill: none; stroke: #ff7f0e; stroke-width: 1.5; stroke-linecap: square"/>
    </g>
    <g id="text_17">
     <!-- gdp -->
     <g transform="translate(105.246875 247.852) scale(0.1 -0.1)">
      <defs>
       <path id="DejaVuSerif-70" d="M 1313 1825 
L 1313 1497 
Q 1313 897 1542 583 
Q 1772 269 2209 269 
Q 2650 269 2876 622 
Q 3103 975 3103 1663 
Q 3103 2353 2876 2703 
Q 2650 3053 2209 3053 
Q 1772 3053 1542 2737 
Q 1313 2422 1313 1825 
z
M 738 2988 
L 184 2988 
L 184 3322 
L 1313 3322 
L 1313 2803 
Q 1481 3116 1742 3264 
Q 2003 3413 2388 3413 
Q 3000 3413 3387 2928 
Q 3775 2444 3775 1663 
Q 3775 881 3387 395 
Q 3000 -91 2388 -91 
Q 2003 -91 1742 57 
Q 1481 206 1313 519 
L 1313 -997 
L 1856 -997 
L 1856 -1331 
L 184 -1331 
L 184 -997 
L 738 -997 
L 738 2988 
z
" transform="scale(0.015625)"/>
      </defs>
      <use xlink:href="#DejaVuSerif-67"/>
      <use xlink:href="#DejaVuSerif-64" x="64.013672"/>
      <use xlink:href="#DejaVuSerif-70" x="128.027344"/>
     </g>
    </g>
    <g id="line2d_57">
     <path d="M 77.246875 259.172312 
L 87.246875 259.172312 
L 97.246875 259.172312 
" style="fill: none; stroke: #2ca02c; stroke-width: 1.5; stroke-linecap: square"/>
    </g>
    <g id="text_18">
     <!-- v -->
     <g transform="translate(105.246875 262.672312) scale(0.1 -0.1)">
      <defs>
       <path id="DejaVuSerif-76" d="M 1581 0 
L 359 2988 
L -19 2988 
L -19 3322 
L 1509 3322 
L 1509 2988 
L 978 2988 
L 1913 703 
L 2847 2988 
L 2350 2988 
L 2350 3322 
L 3597 3322 
L 3597 2988 
L 3225 2988 
L 2003 0 
L 1581 0 
z
" transform="scale(0.015625)"/>
      </defs>
      <use xlink:href="#DejaVuSerif-76"/>
     </g>
    </g>
    <g id="line2d_58">
     <path d="M 77.246875 273.850437 
L 87.246875 273.850437 
L 97.246875 273.850437 
" style="fill: none; stroke: #d62728; stroke-width: 1.5; stroke-linecap: square"/>
    </g>
    <g id="text_19">
     <!-- cpi -->
     <g transform="translate(105.246875 277.350437) scale(0.1 -0.1)">
      <defs>
       <path id="DejaVuSerif-63" d="M 3291 997 
Q 3169 466 2822 187 
Q 2475 -91 1925 -91 
Q 1200 -91 759 389 
Q 319 869 319 1663 
Q 319 2459 759 2936 
Q 1200 3413 1925 3413 
Q 2241 3413 2553 3339 
Q 2866 3266 3181 3116 
L 3181 2266 
L 2847 2266 
Q 2781 2703 2561 2903 
Q 2341 3103 1931 3103 
Q 1466 3103 1228 2742 
Q 991 2381 991 1663 
Q 991 944 1227 581 
Q 1463 219 1931 219 
Q 2303 219 2525 412 
Q 2747 606 2828 997 
L 3291 997 
z
" transform="scale(0.015625)"/>
      </defs>
      <use xlink:href="#DejaVuSerif-63"/>
      <use xlink:href="#DejaVuSerif-70" x="56.005859"/>
      <use xlink:href="#DejaVuSerif-69" x="120.019531"/>
     </g>
    </g>
   </g>
  </g>
 </g>
 <defs>
  <clipPath id="p2833d3c055">
   <rect x="68.246875" y="22.318125" width="357.12" height="266.112"/>
  </clipPath>
 </defs>
</svg>
