<?xml version="1.0" encoding="utf-8" standalone="no"?>
<!DOCTYPE svg PUBLIC "-//W3C//DTD SVG 1.1//EN"
  "http://www.w3.org/Graphics/SVG/1.1/DTD/svg11.dtd">
<svg xmlns:xlink="http://www.w3.org/1999/xlink" width="441.040446pt" height="312.30825pt" viewBox="0 0 441.040446 312.30825" xmlns="http://www.w3.org/2000/svg" version="1.1">
 <metadata>
  <rdf:RDF xmlns:dc="http://purl.org/dc/elements/1.1/" xmlns:cc="http://creativecommons.org/ns#" xmlns:rdf="http://www.w3.org/1999/02/22-rdf-syntax-ns#">
   <cc:Work>
    <dc:type rdf:resource="http://purl.org/dc/dcmitype/StillImage"/>
    <dc:date>2024-11-06T21:53:19.509353</dc:date>
    <dc:format>image/svg+xml</dc:format>
    <dc:creator>
     <cc:Agent>
      <dc:title>Matplotlib v3.9.0, https://matplotlib.org/</dc:title>
     </cc:Agent>
    </dc:creator>
   </cc:Work>
  </rdf:RDF>
 </metadata>
 <defs>
  <style type="text/css">*{stroke-linejoin: round; stroke-linecap: butt}</style>
 </defs>
 <g id="figure_1">
  <g id="patch_1">
   <path d="M 0 312.30825 
L 441.040446 312.30825 
L 441.040446 0 
L 0 0 
z
" style="fill: #ffffff"/>
  </g>
  <g id="axes_1">
   <g id="patch_2">
    <path d="M 68.246875 288.430125 
L 425.366875 288.430125 
L 425.366875 22.318125 
L 68.246875 22.318125 
z
" style="fill: #ffffff"/>
   </g>
   <g id="patch_3">
    <path d="M -2414.587411 288.430125 
L -2389.078839 288.430125 
L -2389.078839 22.318125 
L -2414.587411 22.318125 
z
" clip-path="url(#pe388efa43c)" style="fill: #d3d3d3"/>
   </g>
   <g id="patch_4">
    <path d="M -2359.318839 288.430125 
L -2342.313125 288.430125 
L -2342.313125 22.318125 
L -2359.318839 22.318125 
z
" clip-path="url(#pe388efa43c)" style="fill: #d3d3d3"/>
   </g>
   <g id="patch_5">
    <path d="M -2282.793125 288.430125 
L -2248.781696 288.430125 
L -2248.781696 22.318125 
L -2282.793125 22.318125 
z
" clip-path="url(#pe388efa43c)" style="fill: #d3d3d3"/>
   </g>
   <g id="patch_6">
    <path d="M -2210.518839 288.430125 
L -2185.010268 288.430125 
L -2185.010268 22.318125 
L -2210.518839 22.318125 
z
" clip-path="url(#pe388efa43c)" style="fill: #d3d3d3"/>
   </g>
   <g id="patch_7">
    <path d="M -2138.244554 288.430125 
L -2044.713125 288.430125 
L -2044.713125 22.318125 
L -2138.244554 22.318125 
z
" clip-path="url(#pe388efa43c)" style="fill: #d3d3d3"/>
   </g>
   <g id="patch_8">
    <path d="M -1993.695982 288.430125 
L -1938.427411 288.430125 
L -1938.427411 22.318125 
L -1993.695982 22.318125 
z
" clip-path="url(#pe388efa43c)" style="fill: #d3d3d3"/>
   </g>
   <g id="patch_9">
    <path d="M -1904.415982 288.430125 
L -1891.661696 288.430125 
L -1891.661696 22.318125 
L -1904.415982 22.318125 
z
" clip-path="url(#pe388efa43c)" style="fill: #d3d3d3"/>
   </g>
   <g id="patch_10">
    <path d="M -1849.147411 288.430125 
L -1836.393125 288.430125 
L -1836.393125 22.318125 
L -1849.147411 22.318125 
z
" clip-path="url(#pe388efa43c)" style="fill: #d3d3d3"/>
   </g>
   <g id="patch_11">
    <path d="M -1806.633125 288.430125 
L -1785.375982 288.430125 
L -1785.375982 22.318125 
L -1806.633125 22.318125 
z
" clip-path="url(#pe388efa43c)" style="fill: #d3d3d3"/>
   </g>
   <g id="patch_12">
    <path d="M -1759.867411 288.430125 
L -1734.358839 288.430125 
L -1734.358839 22.318125 
L -1759.867411 22.318125 
z
" clip-path="url(#pe388efa43c)" style="fill: #d3d3d3"/>
   </g>
   <g id="patch_13">
    <path d="M -1696.095982 288.430125 
L -1674.838839 288.430125 
L -1674.838839 22.318125 
L -1696.095982 22.318125 
z
" clip-path="url(#pe388efa43c)" style="fill: #d3d3d3"/>
   </g>
   <g id="patch_14">
    <path d="M -1640.827411 288.430125 
L -1611.067411 288.430125 
L -1611.067411 22.318125 
L -1640.827411 22.318125 
z
" clip-path="url(#pe388efa43c)" style="fill: #d3d3d3"/>
   </g>
   <g id="patch_15">
    <path d="M -1564.301696 288.430125 
L -1547.295982 288.430125 
L -1547.295982 22.318125 
L -1564.301696 22.318125 
z
" clip-path="url(#pe388efa43c)" style="fill: #d3d3d3"/>
   </g>
   <g id="patch_16">
    <path d="M -1517.535982 288.430125 
L -1487.775982 288.430125 
L -1487.775982 22.318125 
L -1517.535982 22.318125 
z
" clip-path="url(#pe388efa43c)" style="fill: #d3d3d3"/>
   </g>
   <g id="patch_17">
    <path d="M -1466.518839 288.430125 
L -1436.758839 288.430125 
L -1436.758839 22.318125 
L -1466.518839 22.318125 
z
" clip-path="url(#pe388efa43c)" style="fill: #d3d3d3"/>
   </g>
   <g id="patch_18">
    <path d="M -1372.987411 288.430125 
L -1364.484554 288.430125 
L -1364.484554 22.318125 
L -1372.987411 22.318125 
z
" clip-path="url(#pe388efa43c)" style="fill: #d3d3d3"/>
   </g>
   <g id="patch_19">
    <path d="M -1347.478839 288.430125 
L -1321.970268 288.430125 
L -1321.970268 22.318125 
L -1347.478839 22.318125 
z
" clip-path="url(#pe388efa43c)" style="fill: #d3d3d3"/>
   </g>
   <g id="patch_20">
    <path d="M -1292.210268 288.430125 
L -1270.953125 288.430125 
L -1270.953125 22.318125 
L -1292.210268 22.318125 
z
" clip-path="url(#pe388efa43c)" style="fill: #d3d3d3"/>
   </g>
   <g id="patch_21">
    <path d="M -1236.941696 288.430125 
L -1215.684554 288.430125 
L -1215.684554 22.318125 
L -1236.941696 22.318125 
z
" clip-path="url(#pe388efa43c)" style="fill: #d3d3d3"/>
   </g>
   <g id="patch_22">
    <path d="M -1185.924554 288.430125 
L -1126.404554 288.430125 
L -1126.404554 22.318125 
L -1185.924554 22.318125 
z
" clip-path="url(#pe388efa43c)" style="fill: #d3d3d3"/>
   </g>
   <g id="patch_23">
    <path d="M -1054.130268 288.430125 
L -1037.124554 288.430125 
L -1037.124554 22.318125 
L -1054.130268 22.318125 
z
" clip-path="url(#pe388efa43c)" style="fill: #d3d3d3"/>
   </g>
   <g id="patch_24">
    <path d="M -922.335982 288.430125 
L -909.581696 288.430125 
L -909.581696 22.318125 
L -922.335982 22.318125 
z
" clip-path="url(#pe388efa43c)" style="fill: #d3d3d3"/>
   </g>
   <g id="patch_25">
    <path d="M -858.564554 288.430125 
L -841.558839 288.430125 
L -841.558839 22.318125 
L -858.564554 22.318125 
z
" clip-path="url(#pe388efa43c)" style="fill: #d3d3d3"/>
   </g>
   <g id="patch_26">
    <path d="M -782.038839 288.430125 
L -765.033125 288.430125 
L -765.033125 22.318125 
L -782.038839 22.318125 
z
" clip-path="url(#pe388efa43c)" style="fill: #d3d3d3"/>
   </g>
   <g id="patch_27">
    <path d="M -709.764554 288.430125 
L -697.010268 288.430125 
L -697.010268 22.318125 
L -709.764554 22.318125 
z
" clip-path="url(#pe388efa43c)" style="fill: #d3d3d3"/>
   </g>
   <g id="patch_28">
    <path d="M -662.998839 288.430125 
L -650.244554 288.430125 
L -650.244554 22.318125 
L -662.998839 22.318125 
z
" clip-path="url(#pe388efa43c)" style="fill: #d3d3d3"/>
   </g>
   <g id="patch_29">
    <path d="M -501.444554 288.430125 
L -484.438839 288.430125 
L -484.438839 22.318125 
L -501.444554 22.318125 
z
" clip-path="url(#pe388efa43c)" style="fill: #d3d3d3"/>
   </g>
   <g id="patch_30">
    <path d="M -433.421696 288.430125 
L -412.164554 288.430125 
L -412.164554 22.318125 
L -433.421696 22.318125 
z
" clip-path="url(#pe388efa43c)" style="fill: #d3d3d3"/>
   </g>
   <g id="patch_31">
    <path d="M -327.135982 288.430125 
L -318.633125 288.430125 
L -318.633125 22.318125 
L -327.135982 22.318125 
z
" clip-path="url(#pe388efa43c)" style="fill: #d3d3d3"/>
   </g>
   <g id="patch_32">
    <path d="M -301.627411 288.430125 
L -280.370268 288.430125 
L -280.370268 22.318125 
L -301.627411 22.318125 
z
" clip-path="url(#pe388efa43c)" style="fill: #d3d3d3"/>
   </g>
   <g id="patch_33">
    <path d="M -148.575982 288.430125 
L -140.073125 288.430125 
L -140.073125 22.318125 
L -148.575982 22.318125 
z
" clip-path="url(#pe388efa43c)" style="fill: #d3d3d3"/>
   </g>
   <g id="patch_34">
    <path d="M 29.984018 288.430125 
L 42.738304 288.430125 
L 42.738304 22.318125 
L 29.984018 22.318125 
z
" clip-path="url(#pe388efa43c)" style="fill: #d3d3d3"/>
   </g>
   <g id="patch_35">
    <path d="M 144.772589 288.430125 
L 170.281161 288.430125 
L 170.281161 22.318125 
L 144.772589 22.318125 
z
" clip-path="url(#pe388efa43c)" style="fill: #d3d3d3"/>
   </g>
   <g id="patch_36">
    <path d="M 348.841161 288.430125 
L 357.344018 288.430125 
L 357.344018 22.318125 
L 348.841161 22.318125 
z
" clip-path="url(#pe388efa43c)" style="fill: #d3d3d3"/>
   </g>
   <g id="matplotlib.axis_1">
    <g id="xtick_1">
     <g id="line2d_1">
      <defs>
       <path id="maaad1b8545" d="M 0 0 
L 0 3.5 
" style="stroke: #000000; stroke-width: 0.8"/>
      </defs>
      <g>
       <use xlink:href="#maaad1b8545" x="81.001161" y="288.430125" style="stroke: #000000; stroke-width: 0.8"/>
      </g>
     </g>
     <g id="text_1">
      <!-- 2004 -->
      <g transform="translate(68.276161 303.028562) scale(0.1 -0.1)">
       <defs>
        <path id="DejaVuSerif-32" d="M 819 3553 
L 469 3553 
L 469 4384 
Q 803 4563 1142 4656 
Q 1481 4750 1806 4750 
Q 2534 4750 2956 4397 
Q 3378 4044 3378 3438 
Q 3378 2753 2422 1800 
Q 2347 1728 2309 1691 
L 1131 513 
L 3078 513 
L 3078 1088 
L 3444 1088 
L 3444 0 
L 434 0 
L 434 341 
L 1850 1753 
Q 2319 2222 2519 2614 
Q 2719 3006 2719 3438 
Q 2719 3909 2473 4175 
Q 2228 4441 1797 4441 
Q 1350 4441 1106 4219 
Q 863 3997 819 3553 
z
" transform="scale(0.015625)"/>
        <path id="DejaVuSerif-30" d="M 2034 219 
Q 2513 219 2750 744 
Q 2988 1269 2988 2328 
Q 2988 3391 2750 3916 
Q 2513 4441 2034 4441 
Q 1556 4441 1318 3916 
Q 1081 3391 1081 2328 
Q 1081 1269 1318 744 
Q 1556 219 2034 219 
z
M 2034 -91 
Q 1275 -91 848 546 
Q 422 1184 422 2328 
Q 422 3475 848 4112 
Q 1275 4750 2034 4750 
Q 2797 4750 3222 4112 
Q 3647 3475 3647 2328 
Q 3647 1184 3222 546 
Q 2797 -91 2034 -91 
z
" transform="scale(0.015625)"/>
        <path id="DejaVuSerif-34" d="M 2234 1581 
L 2234 4063 
L 641 1581 
L 2234 1581 
z
M 3609 0 
L 1484 0 
L 1484 331 
L 2234 331 
L 2234 1247 
L 197 1247 
L 197 1588 
L 2241 4750 
L 2859 4750 
L 2859 1581 
L 3750 1581 
L 3750 1247 
L 2859 1247 
L 2859 331 
L 3609 331 
L 3609 0 
z
" transform="scale(0.015625)"/>
       </defs>
       <use xlink:href="#DejaVuSerif-32"/>
       <use xlink:href="#DejaVuSerif-30" x="63.623047"/>
       <use xlink:href="#DejaVuSerif-30" x="127.246094"/>
       <use xlink:href="#DejaVuSerif-34" x="190.869141"/>
      </g>
     </g>
    </g>
    <g id="xtick_2">
     <g id="line2d_2">
      <g>
       <use xlink:href="#maaad1b8545" x="166.029732" y="288.430125" style="stroke: #000000; stroke-width: 0.8"/>
      </g>
     </g>
     <g id="text_2">
      <!-- 2009 -->
      <g transform="translate(153.304732 303.028562) scale(0.1 -0.1)">
       <defs>
        <path id="DejaVuSerif-39" d="M 2994 2091 
Q 2784 1856 2512 1740 
Q 2241 1625 1900 1625 
Q 1206 1625 804 2044 
Q 403 2463 403 3188 
Q 403 3897 839 4323 
Q 1275 4750 2003 4750 
Q 2794 4750 3217 4161 
Q 3641 3572 3641 2478 
Q 3641 1253 3137 581 
Q 2634 -91 1722 -91 
Q 1475 -91 1203 -44 
Q 931 3 647 97 
L 647 872 
L 997 872 
Q 1038 556 1241 387 
Q 1444 219 1784 219 
Q 2391 219 2687 676 
Q 2984 1134 2994 2091 
z
M 1978 4441 
Q 1534 4441 1298 4117 
Q 1063 3794 1063 3188 
Q 1063 2581 1298 2256 
Q 1534 1931 1978 1931 
Q 2422 1931 2658 2245 
Q 2894 2559 2894 3150 
Q 2894 3772 2656 4106 
Q 2419 4441 1978 4441 
z
" transform="scale(0.015625)"/>
       </defs>
       <use xlink:href="#DejaVuSerif-32"/>
       <use xlink:href="#DejaVuSerif-30" x="63.623047"/>
       <use xlink:href="#DejaVuSerif-30" x="127.246094"/>
       <use xlink:href="#DejaVuSerif-39" x="190.869141"/>
      </g>
     </g>
    </g>
    <g id="xtick_3">
     <g id="line2d_3">
      <g>
       <use xlink:href="#maaad1b8545" x="251.058304" y="288.430125" style="stroke: #000000; stroke-width: 0.8"/>
      </g>
     </g>
     <g id="text_3">
      <!-- 2014 -->
      <g transform="translate(238.333304 303.028562) scale(0.1 -0.1)">
       <defs>
        <path id="DejaVuSerif-31" d="M 909 0 
L 909 331 
L 1722 331 
L 1722 4213 
L 781 3603 
L 781 4013 
L 1919 4750 
L 2350 4750 
L 2350 331 
L 3163 331 
L 3163 0 
L 909 0 
z
" transform="scale(0.015625)"/>
       </defs>
       <use xlink:href="#DejaVuSerif-32"/>
       <use xlink:href="#DejaVuSerif-30" x="63.623047"/>
       <use xlink:href="#DejaVuSerif-31" x="127.246094"/>
       <use xlink:href="#DejaVuSerif-34" x="190.869141"/>
      </g>
     </g>
    </g>
    <g id="xtick_4">
     <g id="line2d_4">
      <g>
       <use xlink:href="#maaad1b8545" x="336.086875" y="288.430125" style="stroke: #000000; stroke-width: 0.8"/>
      </g>
     </g>
     <g id="text_4">
      <!-- 2019 -->
      <g transform="translate(323.361875 303.028562) scale(0.1 -0.1)">
       <use xlink:href="#DejaVuSerif-32"/>
       <use xlink:href="#DejaVuSerif-30" x="63.623047"/>
       <use xlink:href="#DejaVuSerif-31" x="127.246094"/>
       <use xlink:href="#DejaVuSerif-39" x="190.869141"/>
      </g>
     </g>
    </g>
    <g id="xtick_5">
     <g id="line2d_5">
      <g>
       <use xlink:href="#maaad1b8545" x="421.115446" y="288.430125" style="stroke: #000000; stroke-width: 0.8"/>
      </g>
     </g>
     <g id="text_5">
      <!-- 2024 -->
      <g transform="translate(408.390446 303.028562) scale(0.1 -0.1)">
       <use xlink:href="#DejaVuSerif-32"/>
       <use xlink:href="#DejaVuSerif-30" x="63.623047"/>
       <use xlink:href="#DejaVuSerif-32" x="127.246094"/>
       <use xlink:href="#DejaVuSerif-34" x="190.869141"/>
      </g>
     </g>
    </g>
    <g id="xtick_6">
     <g id="line2d_6">
      <defs>
       <path id="m74398a443f" d="M 0 0 
L 0 2 
" style="stroke: #000000; stroke-width: 0.6"/>
      </defs>
      <g>
       <use xlink:href="#m74398a443f" x="98.006875" y="288.430125" style="stroke: #000000; stroke-width: 0.6"/>
      </g>
     </g>
    </g>
    <g id="xtick_7">
     <g id="line2d_7">
      <g>
       <use xlink:href="#m74398a443f" x="115.012589" y="288.430125" style="stroke: #000000; stroke-width: 0.6"/>
      </g>
     </g>
    </g>
    <g id="xtick_8">
     <g id="line2d_8">
      <g>
       <use xlink:href="#m74398a443f" x="132.018304" y="288.430125" style="stroke: #000000; stroke-width: 0.6"/>
      </g>
     </g>
    </g>
    <g id="xtick_9">
     <g id="line2d_9">
      <g>
       <use xlink:href="#m74398a443f" x="149.024018" y="288.430125" style="stroke: #000000; stroke-width: 0.6"/>
      </g>
     </g>
    </g>
    <g id="xtick_10">
     <g id="line2d_10">
      <g>
       <use xlink:href="#m74398a443f" x="183.035446" y="288.430125" style="stroke: #000000; stroke-width: 0.6"/>
      </g>
     </g>
    </g>
    <g id="xtick_11">
     <g id="line2d_11">
      <g>
       <use xlink:href="#m74398a443f" x="200.041161" y="288.430125" style="stroke: #000000; stroke-width: 0.6"/>
      </g>
     </g>
    </g>
    <g id="xtick_12">
     <g id="line2d_12">
      <g>
       <use xlink:href="#m74398a443f" x="217.046875" y="288.430125" style="stroke: #000000; stroke-width: 0.6"/>
      </g>
     </g>
    </g>
    <g id="xtick_13">
     <g id="line2d_13">
      <g>
       <use xlink:href="#m74398a443f" x="234.052589" y="288.430125" style="stroke: #000000; stroke-width: 0.6"/>
      </g>
     </g>
    </g>
    <g id="xtick_14">
     <g id="line2d_14">
      <g>
       <use xlink:href="#m74398a443f" x="268.064018" y="288.430125" style="stroke: #000000; stroke-width: 0.6"/>
      </g>
     </g>
    </g>
    <g id="xtick_15">
     <g id="line2d_15">
      <g>
       <use xlink:href="#m74398a443f" x="285.069732" y="288.430125" style="stroke: #000000; stroke-width: 0.6"/>
      </g>
     </g>
    </g>
    <g id="xtick_16">
     <g id="line2d_16">
      <g>
       <use xlink:href="#m74398a443f" x="302.075446" y="288.430125" style="stroke: #000000; stroke-width: 0.6"/>
      </g>
     </g>
    </g>
    <g id="xtick_17">
     <g id="line2d_17">
      <g>
       <use xlink:href="#m74398a443f" x="319.081161" y="288.430125" style="stroke: #000000; stroke-width: 0.6"/>
      </g>
     </g>
    </g>
    <g id="xtick_18">
     <g id="line2d_18">
      <g>
       <use xlink:href="#m74398a443f" x="353.092589" y="288.430125" style="stroke: #000000; stroke-width: 0.6"/>
      </g>
     </g>
    </g>
    <g id="xtick_19">
     <g id="line2d_19">
      <g>
       <use xlink:href="#m74398a443f" x="370.098304" y="288.430125" style="stroke: #000000; stroke-width: 0.6"/>
      </g>
     </g>
    </g>
    <g id="xtick_20">
     <g id="line2d_20">
      <g>
       <use xlink:href="#m74398a443f" x="387.104018" y="288.430125" style="stroke: #000000; stroke-width: 0.6"/>
      </g>
     </g>
    </g>
    <g id="xtick_21">
     <g id="line2d_21">
      <g>
       <use xlink:href="#m74398a443f" x="404.109732" y="288.430125" style="stroke: #000000; stroke-width: 0.6"/>
      </g>
     </g>
    </g>
   </g>
   <g id="matplotlib.axis_2">
    <g id="ytick_1">
     <g id="line2d_22">
      <path d="M 68.246875 285.645366 
L 425.366875 285.645366 
" clip-path="url(#pe388efa43c)" style="fill: none; stroke-dasharray: 2.96,1.28; stroke-dashoffset: 0; stroke: #b0b0b0; stroke-width: 0.8"/>
     </g>
     <g id="line2d_23">
      <defs>
       <path id="me58a74a0f6" d="M 0 0 
L -3.5 0 
" style="stroke: #000000; stroke-width: 0.8"/>
      </defs>
      <g>
       <use xlink:href="#me58a74a0f6" x="68.246875" y="285.645366" style="stroke: #000000; stroke-width: 0.8"/>
      </g>
     </g>
     <g id="text_6">
      <!-- −12.5% -->
      <g transform="translate(21.1 289.444584) scale(0.1 -0.1)">
       <defs>
        <path id="DejaVuSerif-2212" d="M 678 2259 
L 4684 2259 
L 4684 1753 
L 678 1753 
L 678 2259 
z
" transform="scale(0.015625)"/>
        <path id="DejaVuSerif-2e" d="M 603 325 
Q 603 500 722 622 
Q 841 744 1019 744 
Q 1191 744 1312 622 
Q 1434 500 1434 325 
Q 1434 153 1312 31 
Q 1191 -91 1019 -91 
Q 841 -91 722 29 
Q 603 150 603 325 
z
" transform="scale(0.015625)"/>
        <path id="DejaVuSerif-35" d="M 3219 4666 
L 3219 4153 
L 1081 4153 
L 1081 2816 
Q 1244 2928 1461 2984 
Q 1678 3041 1947 3041 
Q 2703 3041 3140 2622 
Q 3578 2203 3578 1478 
Q 3578 738 3136 323 
Q 2694 -91 1894 -91 
Q 1572 -91 1234 -12 
Q 897 66 544 225 
L 544 1131 
L 897 1131 
Q 925 688 1179 453 
Q 1434 219 1894 219 
Q 2388 219 2653 544 
Q 2919 869 2919 1478 
Q 2919 2084 2655 2407 
Q 2391 2731 1894 2731 
Q 1613 2731 1398 2631 
Q 1184 2531 1019 2322 
L 750 2322 
L 750 4666 
L 3219 4666 
z
" transform="scale(0.015625)"/>
        <path id="DejaVuSerif-25" d="M 1434 4459 
Q 1159 4459 1004 4200 
Q 850 3941 850 3475 
Q 850 3016 1008 2753 
Q 1166 2491 1434 2491 
Q 1700 2491 1854 2752 
Q 2009 3013 2009 3475 
Q 2009 3938 1854 4198 
Q 1700 4459 1434 4459 
z
M 4653 2169 
Q 4381 2169 4226 1906 
Q 4072 1644 4072 1178 
Q 4072 719 4228 458 
Q 4384 197 4653 197 
Q 4922 197 5075 458 
Q 5228 719 5228 1178 
Q 5228 1641 5073 1905 
Q 4919 2169 4653 2169 
z
M 4653 2450 
Q 5147 2450 5437 2106 
Q 5728 1763 5728 1178 
Q 5728 594 5436 251 
Q 5144 -91 4653 -91 
Q 4153 -91 3862 251 
Q 3572 594 3572 1178 
Q 3572 1766 3864 2108 
Q 4156 2450 4653 2450 
z
M 4263 4750 
L 4738 4750 
L 1819 -91 
L 1344 -91 
L 4263 4750 
z
M 1428 4750 
Q 1922 4750 2215 4408 
Q 2509 4066 2509 3481 
Q 2509 2891 2217 2550 
Q 1925 2209 1428 2209 
Q 931 2209 642 2551 
Q 353 2894 353 3481 
Q 353 4063 643 4406 
Q 934 4750 1428 4750 
z
" transform="scale(0.015625)"/>
       </defs>
       <use xlink:href="#DejaVuSerif-2212"/>
       <use xlink:href="#DejaVuSerif-31" x="83.789062"/>
       <use xlink:href="#DejaVuSerif-32" x="147.412109"/>
       <use xlink:href="#DejaVuSerif-2e" x="211.035156"/>
       <use xlink:href="#DejaVuSerif-35" x="242.822266"/>
       <use xlink:href="#DejaVuSerif-25" x="306.445312"/>
      </g>
     </g>
    </g>
    <g id="ytick_2">
     <g id="line2d_24">
      <path d="M 68.246875 254.402963 
L 425.366875 254.402963 
" clip-path="url(#pe388efa43c)" style="fill: none; stroke-dasharray: 2.96,1.28; stroke-dashoffset: 0; stroke: #b0b0b0; stroke-width: 0.8"/>
     </g>
     <g id="line2d_25">
      <g>
       <use xlink:href="#me58a74a0f6" x="68.246875" y="254.402963" style="stroke: #000000; stroke-width: 0.8"/>
      </g>
     </g>
     <g id="text_7">
      <!-- −10.0% -->
      <g transform="translate(21.1 258.202182) scale(0.1 -0.1)">
       <use xlink:href="#DejaVuSerif-2212"/>
       <use xlink:href="#DejaVuSerif-31" x="83.789062"/>
       <use xlink:href="#DejaVuSerif-30" x="147.412109"/>
       <use xlink:href="#DejaVuSerif-2e" x="211.035156"/>
       <use xlink:href="#DejaVuSerif-30" x="242.822266"/>
       <use xlink:href="#DejaVuSerif-25" x="306.445312"/>
      </g>
     </g>
    </g>
    <g id="ytick_3">
     <g id="line2d_26">
      <path d="M 68.246875 223.160561 
L 425.366875 223.160561 
" clip-path="url(#pe388efa43c)" style="fill: none; stroke-dasharray: 2.96,1.28; stroke-dashoffset: 0; stroke: #b0b0b0; stroke-width: 0.8"/>
     </g>
     <g id="line2d_27">
      <g>
       <use xlink:href="#me58a74a0f6" x="68.246875" y="223.160561" style="stroke: #000000; stroke-width: 0.8"/>
      </g>
     </g>
     <g id="text_8">
      <!-- −7.5% -->
      <g transform="translate(27.4625 226.959779) scale(0.1 -0.1)">
       <defs>
        <path id="DejaVuSerif-37" d="M 3609 4347 
L 1784 0 
L 1319 0 
L 3059 4153 
L 903 4153 
L 903 3578 
L 538 3578 
L 538 4666 
L 3609 4666 
L 3609 4347 
z
" transform="scale(0.015625)"/>
       </defs>
       <use xlink:href="#DejaVuSerif-2212"/>
       <use xlink:href="#DejaVuSerif-37" x="83.789062"/>
       <use xlink:href="#DejaVuSerif-2e" x="147.412109"/>
       <use xlink:href="#DejaVuSerif-35" x="179.199219"/>
       <use xlink:href="#DejaVuSerif-25" x="242.822266"/>
      </g>
     </g>
    </g>
    <g id="ytick_4">
     <g id="line2d_28">
      <path d="M 68.246875 191.918158 
L 425.366875 191.918158 
" clip-path="url(#pe388efa43c)" style="fill: none; stroke-dasharray: 2.96,1.28; stroke-dashoffset: 0; stroke: #b0b0b0; stroke-width: 0.8"/>
     </g>
     <g id="line2d_29">
      <g>
       <use xlink:href="#me58a74a0f6" x="68.246875" y="191.918158" style="stroke: #000000; stroke-width: 0.8"/>
      </g>
     </g>
     <g id="text_9">
      <!-- −5.0% -->
      <g transform="translate(27.4625 195.717377) scale(0.1 -0.1)">
       <use xlink:href="#DejaVuSerif-2212"/>
       <use xlink:href="#DejaVuSerif-35" x="83.789062"/>
       <use xlink:href="#DejaVuSerif-2e" x="147.412109"/>
       <use xlink:href="#DejaVuSerif-30" x="179.199219"/>
       <use xlink:href="#DejaVuSerif-25" x="242.822266"/>
      </g>
     </g>
    </g>
    <g id="ytick_5">
     <g id="line2d_30">
      <path d="M 68.246875 160.675756 
L 425.366875 160.675756 
" clip-path="url(#pe388efa43c)" style="fill: none; stroke-dasharray: 2.96,1.28; stroke-dashoffset: 0; stroke: #b0b0b0; stroke-width: 0.8"/>
     </g>
     <g id="line2d_31">
      <g>
       <use xlink:href="#me58a74a0f6" x="68.246875" y="160.675756" style="stroke: #000000; stroke-width: 0.8"/>
      </g>
     </g>
     <g id="text_10">
      <!-- −2.5% -->
      <g transform="translate(27.4625 164.474974) scale(0.1 -0.1)">
       <use xlink:href="#DejaVuSerif-2212"/>
       <use xlink:href="#DejaVuSerif-32" x="83.789062"/>
       <use xlink:href="#DejaVuSerif-2e" x="147.412109"/>
       <use xlink:href="#DejaVuSerif-35" x="179.199219"/>
       <use xlink:href="#DejaVuSerif-25" x="242.822266"/>
      </g>
     </g>
    </g>
    <g id="ytick_6">
     <g id="line2d_32">
      <path d="M 68.246875 129.433353 
L 425.366875 129.433353 
" clip-path="url(#pe388efa43c)" style="fill: none; stroke-dasharray: 2.96,1.28; stroke-dashoffset: 0; stroke: #b0b0b0; stroke-width: 0.8"/>
     </g>
     <g id="line2d_33">
      <g>
       <use xlink:href="#me58a74a0f6" x="68.246875" y="129.433353" style="stroke: #000000; stroke-width: 0.8"/>
      </g>
     </g>
     <g id="text_11">
      <!-- 0.0% -->
      <g transform="translate(35.842188 133.232572) scale(0.1 -0.1)">
       <use xlink:href="#DejaVuSerif-30"/>
       <use xlink:href="#DejaVuSerif-2e" x="63.623047"/>
       <use xlink:href="#DejaVuSerif-30" x="95.410156"/>
       <use xlink:href="#DejaVuSerif-25" x="159.033203"/>
      </g>
     </g>
    </g>
    <g id="ytick_7">
     <g id="line2d_34">
      <path d="M 68.246875 98.190951 
L 425.366875 98.190951 
" clip-path="url(#pe388efa43c)" style="fill: none; stroke-dasharray: 2.96,1.28; stroke-dashoffset: 0; stroke: #b0b0b0; stroke-width: 0.8"/>
     </g>
     <g id="line2d_35">
      <g>
       <use xlink:href="#me58a74a0f6" x="68.246875" y="98.190951" style="stroke: #000000; stroke-width: 0.8"/>
      </g>
     </g>
     <g id="text_12">
      <!-- 2.5% -->
      <g transform="translate(35.842188 101.990169) scale(0.1 -0.1)">
       <use xlink:href="#DejaVuSerif-32"/>
       <use xlink:href="#DejaVuSerif-2e" x="63.623047"/>
       <use xlink:href="#DejaVuSerif-35" x="95.410156"/>
       <use xlink:href="#DejaVuSerif-25" x="159.033203"/>
      </g>
     </g>
    </g>
    <g id="ytick_8">
     <g id="line2d_36">
      <path d="M 68.246875 66.948548 
L 425.366875 66.948548 
" clip-path="url(#pe388efa43c)" style="fill: none; stroke-dasharray: 2.96,1.28; stroke-dashoffset: 0; stroke: #b0b0b0; stroke-width: 0.8"/>
     </g>
     <g id="line2d_37">
      <g>
       <use xlink:href="#me58a74a0f6" x="68.246875" y="66.948548" style="stroke: #000000; stroke-width: 0.8"/>
      </g>
     </g>
     <g id="text_13">
      <!-- 5.0% -->
      <g transform="translate(35.842188 70.747767) scale(0.1 -0.1)">
       <use xlink:href="#DejaVuSerif-35"/>
       <use xlink:href="#DejaVuSerif-2e" x="63.623047"/>
       <use xlink:href="#DejaVuSerif-30" x="95.410156"/>
       <use xlink:href="#DejaVuSerif-25" x="159.033203"/>
      </g>
     </g>
    </g>
    <g id="ytick_9">
     <g id="line2d_38">
      <path d="M 68.246875 35.706146 
L 425.366875 35.706146 
" clip-path="url(#pe388efa43c)" style="fill: none; stroke-dasharray: 2.96,1.28; stroke-dashoffset: 0; stroke: #b0b0b0; stroke-width: 0.8"/>
     </g>
     <g id="line2d_39">
      <g>
       <use xlink:href="#me58a74a0f6" x="68.246875" y="35.706146" style="stroke: #000000; stroke-width: 0.8"/>
      </g>
     </g>
     <g id="text_14">
      <!-- 7.5% -->
      <g transform="translate(35.842188 39.505364) scale(0.1 -0.1)">
       <use xlink:href="#DejaVuSerif-37"/>
       <use xlink:href="#DejaVuSerif-2e" x="63.623047"/>
       <use xlink:href="#DejaVuSerif-35" x="95.410156"/>
       <use xlink:href="#DejaVuSerif-25" x="159.033203"/>
      </g>
     </g>
    </g>
    <g id="text_15">
     <!-- $\Delta\log(x_i)$ -->
     <g transform="translate(14.8 174.774125) rotate(-90) scale(0.1 -0.1)">
      <defs>
       <path id="DejaVuSerif-394" d="M 4350 0 
L 244 0 
L 2034 4666 
L 2559 4666 
L 4350 0 
z
M 3506 331 
L 2138 3909 
L 763 331 
L 3506 331 
z
" transform="scale(0.015625)"/>
       <path id="DejaVuSerif-6c" d="M 1313 331 
L 1856 331 
L 1856 0 
L 184 0 
L 184 331 
L 738 331 
L 738 4531 
L 184 4531 
L 184 4863 
L 1313 4863 
L 1313 331 
z
" transform="scale(0.015625)"/>
       <path id="DejaVuSerif-6f" d="M 1925 219 
Q 2388 219 2623 584 
Q 2859 950 2859 1663 
Q 2859 2375 2623 2739 
Q 2388 3103 1925 3103 
Q 1463 3103 1227 2739 
Q 991 2375 991 1663 
Q 991 950 1228 584 
Q 1466 219 1925 219 
z
M 1925 -91 
Q 1200 -91 759 389 
Q 319 869 319 1663 
Q 319 2456 758 2934 
Q 1197 3413 1925 3413 
Q 2653 3413 3092 2934 
Q 3531 2456 3531 1663 
Q 3531 869 3092 389 
Q 2653 -91 1925 -91 
z
" transform="scale(0.015625)"/>
       <path id="DejaVuSerif-67" d="M 3359 2988 
L 3359 72 
Q 3359 -644 2965 -1033 
Q 2572 -1422 1844 -1422 
Q 1516 -1422 1216 -1362 
Q 916 -1303 641 -1184 
L 641 -488 
L 941 -488 
Q 997 -813 1206 -963 
Q 1416 -1113 1806 -1113 
Q 2313 -1113 2548 -827 
Q 2784 -541 2784 72 
L 2784 519 
Q 2616 206 2355 57 
Q 2094 -91 1709 -91 
Q 1097 -91 708 395 
Q 319 881 319 1663 
Q 319 2444 706 2928 
Q 1094 3413 1709 3413 
Q 2094 3413 2355 3264 
Q 2616 3116 2784 2803 
L 2784 3322 
L 3909 3322 
L 3909 2988 
L 3359 2988 
z
M 2784 1825 
Q 2784 2422 2554 2737 
Q 2325 3053 1888 3053 
Q 1444 3053 1217 2703 
Q 991 2353 991 1663 
Q 991 975 1217 622 
Q 1444 269 1888 269 
Q 2325 269 2554 583 
Q 2784 897 2784 1497 
L 2784 1825 
z
" transform="scale(0.015625)"/>
       <path id="DejaVuSerif-28" d="M 2041 -997 
Q 1281 -656 893 83 
Q 506 822 506 1931 
Q 506 3044 893 3783 
Q 1281 4522 2041 4863 
L 2041 4556 
Q 1559 4225 1350 3623 
Q 1141 3022 1141 1931 
Q 1141 844 1350 242 
Q 1559 -359 2041 -691 
L 2041 -997 
z
" transform="scale(0.015625)"/>
       <path id="DejaVuSerif-Italic-78" d="M 409 0 
L 19 0 
L 1484 1594 
L 747 2988 
L 338 2988 
L 400 3322 
L 1244 3322 
L 1934 2028 
L 3125 3322 
L 3516 3322 
L 2078 1759 
L 2838 331 
L 3272 331 
L 3209 0 
L 2338 0 
L 1631 1325 
L 409 0 
z
" transform="scale(0.015625)"/>
       <path id="DejaVuSerif-Italic-69" d="M 1009 4353 
Q 1038 4497 1163 4603 
Q 1288 4709 1434 4709 
Q 1578 4709 1663 4603 
Q 1728 4522 1728 4422 
Q 1728 4388 1719 4353 
Q 1691 4206 1567 4103 
Q 1444 4000 1297 4000 
Q 1150 4000 1066 4103 
Q 1003 4181 1003 4281 
Q 1003 4316 1009 4353 
z
M 963 331 
L 1506 331 
L 1444 0 
L 325 0 
L 903 2988 
L 353 2988 
L 419 3322 
L 1544 3322 
L 963 331 
z
" transform="scale(0.015625)"/>
       <path id="DejaVuSerif-29" d="M 453 -997 
L 453 -691 
Q 934 -359 1145 242 
Q 1356 844 1356 1931 
Q 1356 3022 1145 3623 
Q 934 4225 453 4556 
L 453 4863 
Q 1216 4522 1603 3783 
Q 1991 3044 1991 1931 
Q 1991 822 1603 83 
Q 1216 -656 453 -997 
z
" transform="scale(0.015625)"/>
      </defs>
      <use xlink:href="#DejaVuSerif-394" transform="translate(0 0.015625)"/>
      <use xlink:href="#DejaVuSerif-6c" transform="translate(72.216797 0.015625)"/>
      <use xlink:href="#DejaVuSerif-6f" transform="translate(104.199219 0.015625)"/>
      <use xlink:href="#DejaVuSerif-67" transform="translate(164.404297 0.015625)"/>
      <use xlink:href="#DejaVuSerif-28" transform="translate(228.417969 0.015625)"/>
      <use xlink:href="#DejaVuSerif-Italic-78" transform="translate(267.431641 0.015625)"/>
      <use xlink:href="#DejaVuSerif-Italic-69" transform="translate(323.828125 -15.55625) scale(0.7)"/>
      <use xlink:href="#DejaVuSerif-29" transform="translate(348.811133 0.015625)"/>
     </g>
    </g>
   </g>
   <g id="line2d_40">
    <path d="M 85.252589 114.856367 
L 89.504018 115.486415 
L 93.755446 115.960156 
L 98.006875 118.463631 
L 102.258304 122.077766 
L 106.509732 125.876676 
L 110.761161 124.104994 
L 115.012589 126.737499 
L 119.264018 128.031933 
L 123.515446 137.587953 
L 127.766875 137.763703 
L 132.018304 134.696536 
L 136.269732 131.501235 
L 140.521161 123.729664 
L 144.772589 122.149356 
L 149.024018 120.472554 
L 153.275446 123.085712 
L 157.526875 120.060816 
L 161.778304 122.625728 
L 166.029732 118.10933 
L 170.281161 108.346443 
L 174.532589 105.830853 
L 178.784018 99.604665 
L 183.035446 102.837078 
L 187.286875 102.974081 
L 191.538304 104.003832 
L 195.789732 102.916757 
L 200.041161 107.307164 
L 204.292589 103.316258 
L 208.544018 100.129209 
L 212.795446 100.51261 
L 217.046875 97.568057 
L 221.298304 101.077548 
L 225.549732 105.401761 
L 229.801161 105.071178 
L 234.052589 101.427119 
L 238.304018 97.763834 
L 242.555446 92.461897 
L 246.806875 88.798438 
L 251.058304 86.982225 
L 255.309732 95.253284 
L 259.561161 99.291754 
L 263.812589 97.421966 
L 268.064018 95.287426 
L 272.315446 92.405935 
L 276.566875 90.172167 
L 280.818304 93.692666 
L 285.069732 98.168803 
L 289.321161 96.112577 
L 293.572589 94.037667 
L 297.824018 91.747586 
L 302.075446 87.601731 
L 306.326875 88.420543 
L 310.578304 88.143087 
L 314.829732 87.205385 
L 319.081161 93.623382 
L 323.332589 95.689414 
L 327.584018 98.084636 
L 331.835446 100.6743 
L 336.086875 104.137199 
L 340.338304 103.864438 
L 344.589732 106.065022 
L 348.841161 105.837976 
L 353.092589 102.096315 
L 357.344018 92.181686 
L 361.595446 50.185092 
L 365.846875 38.672446 
L 370.098304 34.653165 
L 374.349732 34.414125 
L 378.601161 72.980006 
L 382.852589 83.717233 
L 387.104018 89.417026 
L 391.355446 91.129907 
L 395.606875 92.730129 
L 399.858304 96.886697 
L 404.109732 101.066371 
L 408.361161 103.839705 
L 412.612589 105.587029 
L 416.864018 106.785115 
L 421.115446 106.908236 
L 425.366875 109.552454 
" clip-path="url(#pe388efa43c)" style="fill: none; stroke: #1f77b4; stroke-width: 1.5; stroke-linecap: square"/>
   </g>
   <g id="line2d_41">
    <path d="M 85.252589 122.027688 
L 89.504018 114.942821 
L 93.755446 121.124998 
L 98.006875 128.125476 
L 102.258304 120.739613 
L 106.509732 119.779404 
L 110.761161 118.122504 
L 115.012589 118.568268 
L 119.264018 123.165978 
L 123.515446 134.904368 
L 127.766875 117.454289 
L 132.018304 112.20248 
L 136.269732 110.700058 
L 140.521161 119.536877 
L 144.772589 136.660365 
L 149.024018 139.486368 
L 153.275446 149.010351 
L 157.526875 160.757527 
L 161.778304 176.63888 
L 166.029732 239.602051 
L 170.281161 216.114529 
L 174.532589 202.263565 
L 178.784018 179.7585 
L 183.035446 106.149405 
L 187.286875 111.743375 
L 191.538304 86.319386 
L 195.789732 107.404883 
L 200.041161 136.577883 
L 204.292589 165.225963 
L 208.544018 153.770328 
L 212.795446 141.97764 
L 217.046875 107.659524 
L 221.298304 105.483557 
L 225.549732 138.180392 
L 229.801161 136.989599 
L 234.052589 140.57547 
L 238.304018 111.163403 
L 242.555446 91.545177 
L 246.806875 91.706266 
L 251.058304 95.934357 
L 255.309732 104.131157 
L 259.561161 116.392361 
L 263.812589 106.232958 
L 268.064018 86.37767 
L 272.315446 81.372894 
L 276.566875 78.377275 
L 280.818304 88.916327 
L 285.069732 105.053215 
L 289.321161 117.334044 
L 293.572589 121.007869 
L 297.824018 117.388521 
L 302.075446 124.006504 
L 306.326875 112.781577 
L 310.578304 98.824479 
L 314.829732 101.588609 
L 319.081161 105.263524 
L 323.332589 110.590781 
L 327.584018 133.429029 
L 331.835446 136.779998 
L 336.086875 128.720391 
L 340.338304 125.102247 
L 344.589732 115.669081 
L 348.841161 136.890444 
L 353.092589 139.168133 
L 357.344018 239.082458 
L 361.595446 177.316532 
L 365.846875 132.026912 
L 370.098304 136.789801 
L 374.349732 36.145003 
L 378.601161 103.907149 
L 382.852589 111.368033 
L 387.104018 115.699685 
L 391.355446 112.417982 
L 395.606875 112.310429 
L 399.858304 101.033294 
L 404.109732 72.049141 
L 408.361161 56.939721 
L 412.612589 52.438891 
L 416.864018 67.936064 
L 421.115446 100.119065 
L 425.366875 102.489121 
" clip-path="url(#pe388efa43c)" style="fill: none; stroke: #ff7f0e; stroke-width: 1.5; stroke-linecap: square"/>
   </g>
   <g id="line2d_42">
    <path d="M 85.252589 136.604675 
L 89.504018 128.889759 
L 93.755446 134.598195 
L 98.006875 139.095199 
L 102.258304 128.0952 
L 106.509732 123.336081 
L 110.761161 123.450864 
L 115.012589 121.264122 
L 119.264018 124.567398 
L 123.515446 126.749768 
L 127.766875 109.123939 
L 132.018304 106.939297 
L 136.269732 108.632176 
L 140.521161 125.240567 
L 144.772589 143.944362 
L 149.024018 148.447167 
L 153.275446 155.357993 
L 157.526875 170.130065 
L 161.778304 183.446505 
L 166.029732 250.926074 
L 170.281161 237.201439 
L 174.532589 225.866065 
L 178.784018 209.587188 
L 183.035446 132.74568 
L 187.286875 138.202647 
L 191.538304 111.748907 
L 195.789732 133.921479 
L 200.041161 158.704072 
L 204.292589 191.343057 
L 208.544018 183.074472 
L 212.795446 170.898383 
L 217.046875 139.52482 
L 221.298304 133.839362 
L 225.549732 162.211985 
L 229.801161 161.351773 
L 234.052589 168.581704 
L 238.304018 142.832922 
L 242.555446 128.516633 
L 246.806875 132.341181 
L 251.058304 138.385485 
L 255.309732 138.311227 
L 259.561161 146.53396 
L 263.812589 138.244345 
L 268.064018 120.523598 
L 272.315446 118.400312 
L 276.566875 117.638461 
L 280.818304 124.657015 
L 285.069732 136.317765 
L 289.321161 150.65482 
L 293.572589 156.403555 
L 297.824018 155.074288 
L 302.075446 165.838126 
L 306.326875 153.794387 
L 310.578304 140.114745 
L 314.829732 143.816578 
L 319.081161 141.073494 
L 323.332589 144.33472 
L 327.584018 164.777745 
L 331.835446 165.539052 
L 336.086875 154.016546 
L 340.338304 150.671163 
L 344.589732 139.037412 
L 348.841161 160.485821 
L 353.092589 166.505171 
L 357.344018 276.334125 
L 361.595446 256.564793 
L 365.846875 222.787819 
L 370.098304 231.569989 
L 374.349732 131.164231 
L 378.601161 160.360495 
L 382.852589 157.084154 
L 387.104018 155.716012 
L 391.355446 150.721427 
L 395.606875 149.013653 
L 399.858304 133.57995 
L 404.109732 100.416123 
L 408.361161 82.53337 
L 412.612589 76.285215 
L 416.864018 90.584302 
L 421.115446 122.644182 
L 425.366875 122.37002 
" clip-path="url(#pe388efa43c)" style="fill: none; stroke: #2ca02c; stroke-width: 1.5; stroke-linecap: square"/>
   </g>
   <g id="line2d_43">
    <path d="M 85.252589 134.66769 
L 89.504018 130.743994 
L 93.755446 122.921113 
L 98.006875 126.80794 
L 102.258304 128.122712 
L 106.509732 133.373544 
L 110.761161 139.869289 
L 115.012589 130.74537 
L 119.264018 130.743994 
L 123.515446 125.493162 
L 127.766875 124.204492 
L 132.018304 129.433353 
L 136.269732 129.433353 
L 140.521161 129.433353 
L 144.772589 126.827104 
L 149.024018 120.278029 
L 153.275446 120.287601 
L 157.526875 100.91208 
L 161.778304 107.496978 
L 166.029732 129.433353 
L 170.281161 129.433353 
L 174.532589 157.954627 
L 178.784018 161.827497 
L 183.035446 142.533013 
L 187.286875 141.204518 
L 191.538304 141.291391 
L 195.789732 132.061527 
L 200.041161 136.035038 
L 204.292589 134.700784 
L 208.544018 126.788493 
L 212.795446 132.067066 
L 217.046875 128.110223 
L 221.298304 122.852526 
L 225.549732 136.056029 
L 229.801161 134.717488 
L 234.052589 133.406953 
L 238.304018 138.656244 
L 242.555446 120.171402 
L 246.806875 114.955406 
L 251.058304 112.304936 
L 255.309732 87.816318 
L 259.561161 86.671305 
L 263.812589 94.591866 
L 268.064018 99.692674 
L 272.315446 120.511466 
L 276.566875 126.888146 
L 280.818304 125.621364 
L 285.069732 130.711815 
L 289.321161 133.249222 
L 293.572589 134.528961 
L 297.824018 128.16527 
L 302.075446 123.054084 
L 306.326875 124.348113 
L 310.578304 124.337745 
L 314.829732 126.90104 
L 319.081161 112.998064 
L 323.332589 121.844082 
L 327.584018 118.043639 
L 331.835446 111.849399 
L 336.086875 126.923922 
L 340.338304 118.13517 
L 344.589732 121.897474 
L 348.841161 126.941436 
L 353.092589 119.445719 
L 357.344018 126.936457 
L 361.595446 126.931458 
L 365.846875 136.924061 
L 370.098304 138.168159 
L 374.349732 143.228433 
L 378.601161 133.188076 
L 382.852589 128.18178 
L 387.104018 123.187982 
L 391.355446 99.528929 
L 395.606875 97.261182 
L 399.858304 82.779162 
L 404.109732 75.779622 
L 408.361161 85.877096 
L 412.612589 88.574264 
L 416.864018 89.117079 
L 421.115446 103.446297 
L 425.366875 98.894147 
" clip-path="url(#pe388efa43c)" style="fill: none; stroke: #d62728; stroke-width: 1.5; stroke-linecap: square"/>
   </g>
   <g id="patch_37">
    <path d="M 68.246875 288.430125 
L 68.246875 22.318125 
" style="fill: none; stroke: #000000; stroke-width: 0.8; stroke-linejoin: miter; stroke-linecap: square"/>
   </g>
   <g id="patch_38">
    <path d="M 425.366875 288.430125 
L 425.366875 22.318125 
" style="fill: none; stroke: #000000; stroke-width: 0.8; stroke-linejoin: miter; stroke-linecap: square"/>
   </g>
   <g id="patch_39">
    <path d="M 68.246875 288.430125 
L 425.366875 288.430125 
" style="fill: none; stroke: #000000; stroke-width: 0.8; stroke-linejoin: miter; stroke-linecap: square"/>
   </g>
   <g id="patch_40">
    <path d="M 68.246875 22.318125 
L 425.366875 22.318125 
" style="fill: none; stroke: #000000; stroke-width: 0.8; stroke-linejoin: miter; stroke-linecap: square"/>
   </g>
   <g id="text_16">
    <!-- Japan -->
    <g transform="translate(229.540938 16.318125) scale(0.12 -0.12)">
     <defs>
      <path id="DejaVuSerif-4a" d="M -538 -1119 
L -538 -384 
L -181 -384 
Q -172 -694 -34 -845 
Q 103 -997 378 -997 
Q 750 -997 897 -762 
Q 1044 -528 1044 153 
L 1044 4331 
L 319 4331 
L 319 4666 
L 2272 4666 
L 2272 4331 
L 1678 4331 
L 1678 128 
Q 1678 -644 1368 -987 
Q 1059 -1331 372 -1331 
Q 150 -1331 -79 -1278 
Q -309 -1225 -538 -1119 
z
" transform="scale(0.015625)"/>
      <path id="DejaVuSerif-61" d="M 2547 1044 
L 2547 1747 
L 1806 1747 
Q 1378 1747 1168 1562 
Q 959 1378 959 997 
Q 959 650 1171 447 
Q 1384 244 1747 244 
Q 2106 244 2326 466 
Q 2547 688 2547 1044 
z
M 3122 2075 
L 3122 331 
L 3634 331 
L 3634 0 
L 2547 0 
L 2547 359 
Q 2356 128 2106 18 
Q 1856 -91 1522 -91 
Q 969 -91 644 203 
Q 319 497 319 997 
Q 319 1513 691 1797 
Q 1063 2081 1741 2081 
L 2547 2081 
L 2547 2309 
Q 2547 2688 2317 2895 
Q 2088 3103 1672 3103 
Q 1328 3103 1125 2947 
Q 922 2791 872 2484 
L 575 2484 
L 575 3156 
Q 875 3284 1158 3348 
Q 1441 3413 1709 3413 
Q 2400 3413 2761 3070 
Q 3122 2728 3122 2075 
z
" transform="scale(0.015625)"/>
      <path id="DejaVuSerif-70" d="M 1313 1825 
L 1313 1497 
Q 1313 897 1542 583 
Q 1772 269 2209 269 
Q 2650 269 2876 622 
Q 3103 975 3103 1663 
Q 3103 2353 2876 2703 
Q 2650 3053 2209 3053 
Q 1772 3053 1542 2737 
Q 1313 2422 1313 1825 
z
M 738 2988 
L 184 2988 
L 184 3322 
L 1313 3322 
L 1313 2803 
Q 1481 3116 1742 3264 
Q 2003 3413 2388 3413 
Q 3000 3413 3387 2928 
Q 3775 2444 3775 1663 
Q 3775 881 3387 395 
Q 3000 -91 2388 -91 
Q 2003 -91 1742 57 
Q 1481 206 1313 519 
L 1313 -997 
L 1856 -997 
L 1856 -1331 
L 184 -1331 
L 184 -997 
L 738 -997 
L 738 2988 
z
" transform="scale(0.015625)"/>
      <path id="DejaVuSerif-6e" d="M 263 0 
L 263 331 
L 781 331 
L 781 2988 
L 231 2988 
L 231 3322 
L 1356 3322 
L 1356 2731 
Q 1516 3069 1770 3241 
Q 2025 3413 2363 3413 
Q 2913 3413 3172 3097 
Q 3431 2781 3431 2113 
L 3431 331 
L 3944 331 
L 3944 0 
L 2356 0 
L 2356 331 
L 2853 331 
L 2853 1931 
Q 2853 2541 2703 2767 
Q 2553 2994 2175 2994 
Q 1775 2994 1565 2701 
Q 1356 2409 1356 1850 
L 1356 331 
L 1856 331 
L 1856 0 
L 263 0 
z
" transform="scale(0.015625)"/>
     </defs>
     <use xlink:href="#DejaVuSerif-4a"/>
     <use xlink:href="#DejaVuSerif-61" x="40.087891"/>
     <use xlink:href="#DejaVuSerif-70" x="99.707031"/>
     <use xlink:href="#DejaVuSerif-61" x="163.720703"/>
     <use xlink:href="#DejaVuSerif-6e" x="223.339844"/>
    </g>
   </g>
   <g id="legend_1">
    <g id="patch_41">
     <path d="M 75.246875 89.172812 
L 126.451563 89.172812 
Q 128.451563 89.172812 128.451563 87.172812 
L 128.451563 29.318125 
Q 128.451563 27.318125 126.451563 27.318125 
L 75.246875 27.318125 
Q 73.246875 27.318125 73.246875 29.318125 
L 73.246875 87.172812 
Q 73.246875 89.172812 75.246875 89.172812 
z
" style="fill: #ffffff; opacity: 0.8; stroke: #cccccc; stroke-linejoin: miter"/>
    </g>
    <g id="line2d_44">
     <path d="M 77.246875 35.416562 
L 87.246875 35.416562 
L 97.246875 35.416562 
" style="fill: none; stroke: #1f77b4; stroke-width: 1.5; stroke-linecap: square"/>
    </g>
    <g id="text_17">
     <!-- m3 -->
     <g transform="translate(105.246875 38.916562) scale(0.1 -0.1)">
      <defs>
       <path id="DejaVuSerif-6d" d="M 3316 2675 
Q 3481 3041 3739 3227 
Q 3997 3413 4341 3413 
Q 4863 3413 5119 3089 
Q 5375 2766 5375 2113 
L 5375 331 
L 5894 331 
L 5894 0 
L 4300 0 
L 4300 331 
L 4800 331 
L 4800 2047 
Q 4800 2556 4650 2772 
Q 4500 2988 4153 2988 
Q 3769 2988 3567 2697 
Q 3366 2406 3366 1850 
L 3366 331 
L 3866 331 
L 3866 0 
L 2291 0 
L 2291 331 
L 2791 331 
L 2791 2069 
Q 2791 2566 2641 2777 
Q 2491 2988 2144 2988 
Q 1759 2988 1557 2697 
Q 1356 2406 1356 1850 
L 1356 331 
L 1856 331 
L 1856 0 
L 263 0 
L 263 331 
L 781 331 
L 781 2994 
L 231 2994 
L 231 3322 
L 1356 3322 
L 1356 2731 
Q 1516 3063 1762 3238 
Q 2009 3413 2322 3413 
Q 2709 3413 2968 3220 
Q 3228 3028 3316 2675 
z
" transform="scale(0.015625)"/>
       <path id="DejaVuSerif-33" d="M 622 4469 
Q 988 4606 1323 4678 
Q 1659 4750 1953 4750 
Q 2638 4750 3022 4454 
Q 3406 4159 3406 3634 
Q 3406 3213 3140 2930 
Q 2875 2647 2388 2547 
Q 2963 2466 3280 2130 
Q 3597 1794 3597 1259 
Q 3597 606 3158 257 
Q 2719 -91 1894 -91 
Q 1528 -91 1179 -12 
Q 831 66 488 225 
L 488 1131 
L 838 1131 
Q 869 681 1141 450 
Q 1413 219 1906 219 
Q 2384 219 2661 495 
Q 2938 772 2938 1253 
Q 2938 1803 2653 2086 
Q 2369 2369 1819 2369 
L 1522 2369 
L 1522 2688 
L 1678 2688 
Q 2225 2688 2498 2914 
Q 2772 3141 2772 3597 
Q 2772 4006 2547 4223 
Q 2322 4441 1900 4441 
Q 1478 4441 1245 4241 
Q 1013 4041 972 3647 
L 622 3647 
L 622 4469 
z
" transform="scale(0.015625)"/>
      </defs>
      <use xlink:href="#DejaVuSerif-6d"/>
      <use xlink:href="#DejaVuSerif-33" x="94.824219"/>
     </g>
    </g>
    <g id="line2d_45">
     <path d="M 77.246875 50.094687 
L 87.246875 50.094687 
L 97.246875 50.094687 
" style="fill: none; stroke: #ff7f0e; stroke-width: 1.5; stroke-linecap: square"/>
    </g>
    <g id="text_18">
     <!-- gdp -->
     <g transform="translate(105.246875 53.594687) scale(0.1 -0.1)">
      <defs>
       <path id="DejaVuSerif-64" d="M 3359 331 
L 3909 331 
L 3909 0 
L 2784 0 
L 2784 519 
Q 2616 206 2355 57 
Q 2094 -91 1709 -91 
Q 1097 -91 708 395 
Q 319 881 319 1663 
Q 319 2444 706 2928 
Q 1094 3413 1709 3413 
Q 2094 3413 2355 3264 
Q 2616 3116 2784 2803 
L 2784 4531 
L 2241 4531 
L 2241 4863 
L 3359 4863 
L 3359 331 
z
M 2784 1497 
L 2784 1825 
Q 2784 2422 2554 2737 
Q 2325 3053 1888 3053 
Q 1444 3053 1217 2703 
Q 991 2353 991 1663 
Q 991 975 1217 622 
Q 1444 269 1888 269 
Q 2325 269 2554 583 
Q 2784 897 2784 1497 
z
" transform="scale(0.015625)"/>
      </defs>
      <use xlink:href="#DejaVuSerif-67"/>
      <use xlink:href="#DejaVuSerif-64" x="64.013672"/>
      <use xlink:href="#DejaVuSerif-70" x="128.027344"/>
     </g>
    </g>
    <g id="line2d_46">
     <path d="M 77.246875 64.915 
L 87.246875 64.915 
L 97.246875 64.915 
" style="fill: none; stroke: #2ca02c; stroke-width: 1.5; stroke-linecap: square"/>
    </g>
    <g id="text_19">
     <!-- v -->
     <g transform="translate(105.246875 68.415) scale(0.1 -0.1)">
      <defs>
       <path id="DejaVuSerif-76" d="M 1581 0 
L 359 2988 
L -19 2988 
L -19 3322 
L 1509 3322 
L 1509 2988 
L 978 2988 
L 1913 703 
L 2847 2988 
L 2350 2988 
L 2350 3322 
L 3597 3322 
L 3597 2988 
L 3225 2988 
L 2003 0 
L 1581 0 
z
" transform="scale(0.015625)"/>
      </defs>
      <use xlink:href="#DejaVuSerif-76"/>
     </g>
    </g>
    <g id="line2d_47">
     <path d="M 77.246875 79.593125 
L 87.246875 79.593125 
L 97.246875 79.593125 
" style="fill: none; stroke: #d62728; stroke-width: 1.5; stroke-linecap: square"/>
    </g>
    <g id="text_20">
     <!-- cpi -->
     <g transform="translate(105.246875 83.093125) scale(0.1 -0.1)">
      <defs>
       <path id="DejaVuSerif-63" d="M 3291 997 
Q 3169 466 2822 187 
Q 2475 -91 1925 -91 
Q 1200 -91 759 389 
Q 319 869 319 1663 
Q 319 2459 759 2936 
Q 1200 3413 1925 3413 
Q 2241 3413 2553 3339 
Q 2866 3266 3181 3116 
L 3181 2266 
L 2847 2266 
Q 2781 2703 2561 2903 
Q 2341 3103 1931 3103 
Q 1466 3103 1228 2742 
Q 991 2381 991 1663 
Q 991 944 1227 581 
Q 1463 219 1931 219 
Q 2303 219 2525 412 
Q 2747 606 2828 997 
L 3291 997 
z
" transform="scale(0.015625)"/>
       <path id="DejaVuSerif-69" d="M 622 4353 
Q 622 4497 726 4603 
Q 831 4709 978 4709 
Q 1122 4709 1226 4603 
Q 1331 4497 1331 4353 
Q 1331 4206 1228 4103 
Q 1125 4000 978 4000 
Q 831 4000 726 4103 
Q 622 4206 622 4353 
z
M 1356 331 
L 1900 331 
L 1900 0 
L 231 0 
L 231 331 
L 781 331 
L 781 2988 
L 231 2988 
L 231 3322 
L 1356 3322 
L 1356 331 
z
" transform="scale(0.015625)"/>
      </defs>
      <use xlink:href="#DejaVuSerif-63"/>
      <use xlink:href="#DejaVuSerif-70" x="56.005859"/>
      <use xlink:href="#DejaVuSerif-69" x="120.019531"/>
     </g>
    </g>
   </g>
  </g>
 </g>
 <defs>
  <clipPath id="pe388efa43c">
   <rect x="68.246875" y="22.318125" width="357.12" height="266.112"/>
  </clipPath>
 </defs>
</svg>
