<?xml version="1.0" encoding="utf-8" standalone="no"?>
<!DOCTYPE svg PUBLIC "-//W3C//DTD SVG 1.1//EN"
  "http://www.w3.org/Graphics/SVG/1.1/DTD/svg11.dtd">
<svg xmlns:xlink="http://www.w3.org/1999/xlink" width="423.02625pt" height="312.30825pt" viewBox="0 0 423.02625 312.30825" xmlns="http://www.w3.org/2000/svg" version="1.1">
 <metadata>
  <rdf:RDF xmlns:dc="http://purl.org/dc/elements/1.1/" xmlns:cc="http://creativecommons.org/ns#" xmlns:rdf="http://www.w3.org/1999/02/22-rdf-syntax-ns#">
   <cc:Work>
    <dc:type rdf:resource="http://purl.org/dc/dcmitype/StillImage"/>
    <dc:date>2024-11-06T21:51:57.993720</dc:date>
    <dc:format>image/svg+xml</dc:format>
    <dc:creator>
     <cc:Agent>
      <dc:title>Matplotlib v3.9.0, https://matplotlib.org/</dc:title>
     </cc:Agent>
    </dc:creator>
   </cc:Work>
  </rdf:RDF>
 </metadata>
 <defs>
  <style type="text/css">*{stroke-linejoin: round; stroke-linecap: butt}</style>
 </defs>
 <g id="figure_1">
  <g id="patch_1">
   <path d="M 0 312.30825 
L 423.02625 312.30825 
L 423.02625 0 
L 0 0 
z
" style="fill: #ffffff"/>
  </g>
  <g id="axes_1">
   <g id="patch_2">
    <path d="M 58.70625 288.430125 
L 415.82625 288.430125 
L 415.82625 22.318125 
L 58.70625 22.318125 
z
" style="fill: #ffffff"/>
   </g>
   <g id="patch_3">
    <path d="M -500.323904 288.430125 
L -492.082673 288.430125 
L -492.082673 22.318125 
L -500.323904 22.318125 
z
" clip-path="url(#pd2ee78cba0)" style="fill: #d3d3d3"/>
   </g>
   <g id="patch_4">
    <path d="M -482.467904 288.430125 
L -476.97375 288.430125 
L -476.97375 22.318125 
L -482.467904 22.318125 
z
" clip-path="url(#pd2ee78cba0)" style="fill: #d3d3d3"/>
   </g>
   <g id="patch_5">
    <path d="M -457.744212 288.430125 
L -446.755904 288.430125 
L -446.755904 22.318125 
L -457.744212 22.318125 
z
" clip-path="url(#pd2ee78cba0)" style="fill: #d3d3d3"/>
   </g>
   <g id="patch_6">
    <path d="M -434.394058 288.430125 
L -426.152827 288.430125 
L -426.152827 22.318125 
L -434.394058 22.318125 
z
" clip-path="url(#pd2ee78cba0)" style="fill: #d3d3d3"/>
   </g>
   <g id="patch_7">
    <path d="M -411.043904 288.430125 
L -380.826058 288.430125 
L -380.826058 22.318125 
L -411.043904 22.318125 
z
" clip-path="url(#pd2ee78cba0)" style="fill: #d3d3d3"/>
   </g>
   <g id="patch_8">
    <path d="M -364.343596 288.430125 
L -346.487596 288.430125 
L -346.487596 22.318125 
L -364.343596 22.318125 
z
" clip-path="url(#pd2ee78cba0)" style="fill: #d3d3d3"/>
   </g>
   <g id="patch_9">
    <path d="M -335.499288 288.430125 
L -331.378673 288.430125 
L -331.378673 22.318125 
L -335.499288 22.318125 
z
" clip-path="url(#pd2ee78cba0)" style="fill: #d3d3d3"/>
   </g>
   <g id="patch_10">
    <path d="M -317.643288 288.430125 
L -313.522673 288.430125 
L -313.522673 22.318125 
L -317.643288 22.318125 
z
" clip-path="url(#pd2ee78cba0)" style="fill: #d3d3d3"/>
   </g>
   <g id="patch_11">
    <path d="M -303.907904 288.430125 
L -297.040212 288.430125 
L -297.040212 22.318125 
L -303.907904 22.318125 
z
" clip-path="url(#pd2ee78cba0)" style="fill: #d3d3d3"/>
   </g>
   <g id="patch_12">
    <path d="M -288.798981 288.430125 
L -280.55775 288.430125 
L -280.55775 22.318125 
L -288.798981 22.318125 
z
" clip-path="url(#pd2ee78cba0)" style="fill: #d3d3d3"/>
   </g>
   <g id="patch_13">
    <path d="M -268.195904 288.430125 
L -261.328212 288.430125 
L -261.328212 22.318125 
L -268.195904 22.318125 
z
" clip-path="url(#pd2ee78cba0)" style="fill: #d3d3d3"/>
   </g>
   <g id="patch_14">
    <path d="M -250.339904 288.430125 
L -240.725135 288.430125 
L -240.725135 22.318125 
L -250.339904 22.318125 
z
" clip-path="url(#pd2ee78cba0)" style="fill: #d3d3d3"/>
   </g>
   <g id="patch_15">
    <path d="M -225.616212 288.430125 
L -220.122058 288.430125 
L -220.122058 22.318125 
L -225.616212 22.318125 
z
" clip-path="url(#pd2ee78cba0)" style="fill: #d3d3d3"/>
   </g>
   <g id="patch_16">
    <path d="M -210.507288 288.430125 
L -200.892519 288.430125 
L -200.892519 22.318125 
L -210.507288 22.318125 
z
" clip-path="url(#pd2ee78cba0)" style="fill: #d3d3d3"/>
   </g>
   <g id="patch_17">
    <path d="M -194.024827 288.430125 
L -184.410058 288.430125 
L -184.410058 22.318125 
L -194.024827 22.318125 
z
" clip-path="url(#pd2ee78cba0)" style="fill: #d3d3d3"/>
   </g>
   <g id="patch_18">
    <path d="M -163.806981 288.430125 
L -161.059904 288.430125 
L -161.059904 22.318125 
L -163.806981 22.318125 
z
" clip-path="url(#pd2ee78cba0)" style="fill: #d3d3d3"/>
   </g>
   <g id="patch_19">
    <path d="M -155.56575 288.430125 
L -147.324519 288.430125 
L -147.324519 22.318125 
L -155.56575 22.318125 
z
" clip-path="url(#pd2ee78cba0)" style="fill: #d3d3d3"/>
   </g>
   <g id="patch_20">
    <path d="M -137.70975 288.430125 
L -130.842058 288.430125 
L -130.842058 22.318125 
L -137.70975 22.318125 
z
" clip-path="url(#pd2ee78cba0)" style="fill: #d3d3d3"/>
   </g>
   <g id="patch_21">
    <path d="M -119.85375 288.430125 
L -112.986058 288.430125 
L -112.986058 22.318125 
L -119.85375 22.318125 
z
" clip-path="url(#pd2ee78cba0)" style="fill: #d3d3d3"/>
   </g>
   <g id="patch_22">
    <path d="M -103.371288 288.430125 
L -84.14175 288.430125 
L -84.14175 22.318125 
L -103.371288 22.318125 
z
" clip-path="url(#pd2ee78cba0)" style="fill: #d3d3d3"/>
   </g>
   <g id="patch_23">
    <path d="M -60.791596 288.430125 
L -55.297442 288.430125 
L -55.297442 22.318125 
L -60.791596 22.318125 
z
" clip-path="url(#pd2ee78cba0)" style="fill: #d3d3d3"/>
   </g>
   <g id="patch_24">
    <path d="M -18.211904 288.430125 
L -14.091288 288.430125 
L -14.091288 22.318125 
L -18.211904 22.318125 
z
" clip-path="url(#pd2ee78cba0)" style="fill: #d3d3d3"/>
   </g>
   <g id="patch_25">
    <path d="M 2.391173 288.430125 
L 7.885327 288.430125 
L 7.885327 22.318125 
L 2.391173 22.318125 
z
" clip-path="url(#pd2ee78cba0)" style="fill: #d3d3d3"/>
   </g>
   <g id="patch_26">
    <path d="M 27.114865 288.430125 
L 32.609019 288.430125 
L 32.609019 22.318125 
L 27.114865 22.318125 
z
" clip-path="url(#pd2ee78cba0)" style="fill: #d3d3d3"/>
   </g>
   <g id="patch_27">
    <path d="M 50.465019 288.430125 
L 54.585635 288.430125 
L 54.585635 22.318125 
L 50.465019 22.318125 
z
" clip-path="url(#pd2ee78cba0)" style="fill: #d3d3d3"/>
   </g>
   <g id="patch_28">
    <path d="M 65.573942 288.430125 
L 69.694558 288.430125 
L 69.694558 22.318125 
L 65.573942 22.318125 
z
" clip-path="url(#pd2ee78cba0)" style="fill: #d3d3d3"/>
   </g>
   <g id="patch_29">
    <path d="M 117.768404 288.430125 
L 123.262558 288.430125 
L 123.262558 22.318125 
L 117.768404 22.318125 
z
" clip-path="url(#pd2ee78cba0)" style="fill: #d3d3d3"/>
   </g>
   <g id="patch_30">
    <path d="M 139.745019 288.430125 
L 146.612712 288.430125 
L 146.612712 22.318125 
L 139.745019 22.318125 
z
" clip-path="url(#pd2ee78cba0)" style="fill: #d3d3d3"/>
   </g>
   <g id="patch_31">
    <path d="M 174.083481 288.430125 
L 176.830558 288.430125 
L 176.830558 22.318125 
L 174.083481 22.318125 
z
" clip-path="url(#pd2ee78cba0)" style="fill: #d3d3d3"/>
   </g>
   <g id="patch_32">
    <path d="M 182.324712 288.430125 
L 189.192404 288.430125 
L 189.192404 22.318125 
L 182.324712 22.318125 
z
" clip-path="url(#pd2ee78cba0)" style="fill: #d3d3d3"/>
   </g>
   <g id="patch_33">
    <path d="M 231.772096 288.430125 
L 234.519173 288.430125 
L 234.519173 22.318125 
L 231.772096 22.318125 
z
" clip-path="url(#pd2ee78cba0)" style="fill: #d3d3d3"/>
   </g>
   <g id="patch_34">
    <path d="M 289.460712 288.430125 
L 293.581327 288.430125 
L 293.581327 22.318125 
L 289.460712 22.318125 
z
" clip-path="url(#pd2ee78cba0)" style="fill: #d3d3d3"/>
   </g>
   <g id="patch_35">
    <path d="M 326.54625 288.430125 
L 334.787481 288.430125 
L 334.787481 22.318125 
L 326.54625 22.318125 
z
" clip-path="url(#pd2ee78cba0)" style="fill: #d3d3d3"/>
   </g>
   <g id="patch_36">
    <path d="M 392.476096 288.430125 
L 395.223173 288.430125 
L 395.223173 22.318125 
L 392.476096 22.318125 
z
" clip-path="url(#pd2ee78cba0)" style="fill: #d3d3d3"/>
   </g>
   <g id="matplotlib.axis_1">
    <g id="xtick_1">
     <g id="line2d_1">
      <defs>
       <path id="m72ff5b1469" d="M 0 0 
L 0 3.5 
" style="stroke: #000000; stroke-width: 0.8"/>
      </defs>
      <g>
       <use xlink:href="#m72ff5b1469" x="64.200404" y="288.430125" style="stroke: #000000; stroke-width: 0.8"/>
      </g>
     </g>
     <g id="text_1">
      <!-- 1960 -->
      <g transform="translate(51.475404 303.028562) scale(0.1 -0.1)">
       <defs>
        <path id="DejaVuSerif-31" d="M 909 0 
L 909 331 
L 1722 331 
L 1722 4213 
L 781 3603 
L 781 4013 
L 1919 4750 
L 2350 4750 
L 2350 331 
L 3163 331 
L 3163 0 
L 909 0 
z
" transform="scale(0.015625)"/>
        <path id="DejaVuSerif-39" d="M 2994 2091 
Q 2784 1856 2512 1740 
Q 2241 1625 1900 1625 
Q 1206 1625 804 2044 
Q 403 2463 403 3188 
Q 403 3897 839 4323 
Q 1275 4750 2003 4750 
Q 2794 4750 3217 4161 
Q 3641 3572 3641 2478 
Q 3641 1253 3137 581 
Q 2634 -91 1722 -91 
Q 1475 -91 1203 -44 
Q 931 3 647 97 
L 647 872 
L 997 872 
Q 1038 556 1241 387 
Q 1444 219 1784 219 
Q 2391 219 2687 676 
Q 2984 1134 2994 2091 
z
M 1978 4441 
Q 1534 4441 1298 4117 
Q 1063 3794 1063 3188 
Q 1063 2581 1298 2256 
Q 1534 1931 1978 1931 
Q 2422 1931 2658 2245 
Q 2894 2559 2894 3150 
Q 2894 3772 2656 4106 
Q 2419 4441 1978 4441 
z
" transform="scale(0.015625)"/>
        <path id="DejaVuSerif-36" d="M 2094 219 
Q 2534 219 2771 542 
Q 3009 866 3009 1472 
Q 3009 2078 2771 2401 
Q 2534 2725 2094 2725 
Q 1647 2725 1412 2412 
Q 1178 2100 1178 1509 
Q 1178 888 1415 553 
Q 1653 219 2094 219 
z
M 1075 2569 
Q 1288 2803 1556 2918 
Q 1825 3034 2163 3034 
Q 2859 3034 3264 2615 
Q 3669 2197 3669 1472 
Q 3669 763 3233 336 
Q 2797 -91 2069 -91 
Q 1278 -91 853 498 
Q 428 1088 428 2181 
Q 428 3406 931 4078 
Q 1434 4750 2350 4750 
Q 2597 4750 2869 4703 
Q 3141 4656 3425 4563 
L 3425 3794 
L 3072 3794 
Q 3034 4109 2831 4275 
Q 2628 4441 2284 4441 
Q 1678 4441 1381 3981 
Q 1084 3522 1075 2569 
z
" transform="scale(0.015625)"/>
        <path id="DejaVuSerif-30" d="M 2034 219 
Q 2513 219 2750 744 
Q 2988 1269 2988 2328 
Q 2988 3391 2750 3916 
Q 2513 4441 2034 4441 
Q 1556 4441 1318 3916 
Q 1081 3391 1081 2328 
Q 1081 1269 1318 744 
Q 1556 219 2034 219 
z
M 2034 -91 
Q 1275 -91 848 546 
Q 422 1184 422 2328 
Q 422 3475 848 4112 
Q 1275 4750 2034 4750 
Q 2797 4750 3222 4112 
Q 3647 3475 3647 2328 
Q 3647 1184 3222 546 
Q 2797 -91 2034 -91 
z
" transform="scale(0.015625)"/>
       </defs>
       <use xlink:href="#DejaVuSerif-31"/>
       <use xlink:href="#DejaVuSerif-39" x="63.623047"/>
       <use xlink:href="#DejaVuSerif-36" x="127.246094"/>
       <use xlink:href="#DejaVuSerif-30" x="190.869141"/>
      </g>
     </g>
    </g>
    <g id="xtick_2">
     <g id="line2d_2">
      <g>
       <use xlink:href="#m72ff5b1469" x="119.141942" y="288.430125" style="stroke: #000000; stroke-width: 0.8"/>
      </g>
     </g>
     <g id="text_2">
      <!-- 1970 -->
      <g transform="translate(106.416942 303.028562) scale(0.1 -0.1)">
       <defs>
        <path id="DejaVuSerif-37" d="M 3609 4347 
L 1784 0 
L 1319 0 
L 3059 4153 
L 903 4153 
L 903 3578 
L 538 3578 
L 538 4666 
L 3609 4666 
L 3609 4347 
z
" transform="scale(0.015625)"/>
       </defs>
       <use xlink:href="#DejaVuSerif-31"/>
       <use xlink:href="#DejaVuSerif-39" x="63.623047"/>
       <use xlink:href="#DejaVuSerif-37" x="127.246094"/>
       <use xlink:href="#DejaVuSerif-30" x="190.869141"/>
      </g>
     </g>
    </g>
    <g id="xtick_3">
     <g id="line2d_3">
      <g>
       <use xlink:href="#m72ff5b1469" x="174.083481" y="288.430125" style="stroke: #000000; stroke-width: 0.8"/>
      </g>
     </g>
     <g id="text_3">
      <!-- 1980 -->
      <g transform="translate(161.358481 303.028562) scale(0.1 -0.1)">
       <defs>
        <path id="DejaVuSerif-38" d="M 2981 1275 
Q 2981 1775 2732 2051 
Q 2484 2328 2034 2328 
Q 1584 2328 1336 2051 
Q 1088 1775 1088 1275 
Q 1088 772 1336 495 
Q 1584 219 2034 219 
Q 2484 219 2732 495 
Q 2981 772 2981 1275 
z
M 2853 3541 
Q 2853 3966 2637 4203 
Q 2422 4441 2034 4441 
Q 1650 4441 1433 4203 
Q 1216 3966 1216 3541 
Q 1216 3113 1433 2875 
Q 1650 2638 2034 2638 
Q 2422 2638 2637 2875 
Q 2853 3113 2853 3541 
z
M 2516 2484 
Q 3047 2413 3344 2092 
Q 3641 1772 3641 1275 
Q 3641 619 3225 264 
Q 2809 -91 2034 -91 
Q 1263 -91 845 264 
Q 428 619 428 1275 
Q 428 1772 725 2092 
Q 1022 2413 1556 2484 
Q 1084 2569 832 2842 
Q 581 3116 581 3541 
Q 581 4103 968 4426 
Q 1356 4750 2034 4750 
Q 2713 4750 3100 4426 
Q 3488 4103 3488 3541 
Q 3488 3116 3236 2842 
Q 2984 2569 2516 2484 
z
" transform="scale(0.015625)"/>
       </defs>
       <use xlink:href="#DejaVuSerif-31"/>
       <use xlink:href="#DejaVuSerif-39" x="63.623047"/>
       <use xlink:href="#DejaVuSerif-38" x="127.246094"/>
       <use xlink:href="#DejaVuSerif-30" x="190.869141"/>
      </g>
     </g>
    </g>
    <g id="xtick_4">
     <g id="line2d_4">
      <g>
       <use xlink:href="#m72ff5b1469" x="229.025019" y="288.430125" style="stroke: #000000; stroke-width: 0.8"/>
      </g>
     </g>
     <g id="text_4">
      <!-- 1990 -->
      <g transform="translate(216.300019 303.028562) scale(0.1 -0.1)">
       <use xlink:href="#DejaVuSerif-31"/>
       <use xlink:href="#DejaVuSerif-39" x="63.623047"/>
       <use xlink:href="#DejaVuSerif-39" x="127.246094"/>
       <use xlink:href="#DejaVuSerif-30" x="190.869141"/>
      </g>
     </g>
    </g>
    <g id="xtick_5">
     <g id="line2d_5">
      <g>
       <use xlink:href="#m72ff5b1469" x="283.966558" y="288.430125" style="stroke: #000000; stroke-width: 0.8"/>
      </g>
     </g>
     <g id="text_5">
      <!-- 2000 -->
      <g transform="translate(271.241558 303.028562) scale(0.1 -0.1)">
       <defs>
        <path id="DejaVuSerif-32" d="M 819 3553 
L 469 3553 
L 469 4384 
Q 803 4563 1142 4656 
Q 1481 4750 1806 4750 
Q 2534 4750 2956 4397 
Q 3378 4044 3378 3438 
Q 3378 2753 2422 1800 
Q 2347 1728 2309 1691 
L 1131 513 
L 3078 513 
L 3078 1088 
L 3444 1088 
L 3444 0 
L 434 0 
L 434 341 
L 1850 1753 
Q 2319 2222 2519 2614 
Q 2719 3006 2719 3438 
Q 2719 3909 2473 4175 
Q 2228 4441 1797 4441 
Q 1350 4441 1106 4219 
Q 863 3997 819 3553 
z
" transform="scale(0.015625)"/>
       </defs>
       <use xlink:href="#DejaVuSerif-32"/>
       <use xlink:href="#DejaVuSerif-30" x="63.623047"/>
       <use xlink:href="#DejaVuSerif-30" x="127.246094"/>
       <use xlink:href="#DejaVuSerif-30" x="190.869141"/>
      </g>
     </g>
    </g>
    <g id="xtick_6">
     <g id="line2d_6">
      <g>
       <use xlink:href="#m72ff5b1469" x="338.908096" y="288.430125" style="stroke: #000000; stroke-width: 0.8"/>
      </g>
     </g>
     <g id="text_6">
      <!-- 2010 -->
      <g transform="translate(326.183096 303.028562) scale(0.1 -0.1)">
       <use xlink:href="#DejaVuSerif-32"/>
       <use xlink:href="#DejaVuSerif-30" x="63.623047"/>
       <use xlink:href="#DejaVuSerif-31" x="127.246094"/>
       <use xlink:href="#DejaVuSerif-30" x="190.869141"/>
      </g>
     </g>
    </g>
    <g id="xtick_7">
     <g id="line2d_7">
      <g>
       <use xlink:href="#m72ff5b1469" x="393.849635" y="288.430125" style="stroke: #000000; stroke-width: 0.8"/>
      </g>
     </g>
     <g id="text_7">
      <!-- 2020 -->
      <g transform="translate(381.124635 303.028562) scale(0.1 -0.1)">
       <use xlink:href="#DejaVuSerif-32"/>
       <use xlink:href="#DejaVuSerif-30" x="63.623047"/>
       <use xlink:href="#DejaVuSerif-32" x="127.246094"/>
       <use xlink:href="#DejaVuSerif-30" x="190.869141"/>
      </g>
     </g>
    </g>
    <g id="xtick_8">
     <g id="line2d_8">
      <defs>
       <path id="m271dcef51f" d="M 0 0 
L 0 2 
" style="stroke: #000000; stroke-width: 0.6"/>
      </defs>
      <g>
       <use xlink:href="#m271dcef51f" x="91.671173" y="288.430125" style="stroke: #000000; stroke-width: 0.6"/>
      </g>
     </g>
    </g>
    <g id="xtick_9">
     <g id="line2d_9">
      <g>
       <use xlink:href="#m271dcef51f" x="146.612712" y="288.430125" style="stroke: #000000; stroke-width: 0.6"/>
      </g>
     </g>
    </g>
    <g id="xtick_10">
     <g id="line2d_10">
      <g>
       <use xlink:href="#m271dcef51f" x="201.55425" y="288.430125" style="stroke: #000000; stroke-width: 0.6"/>
      </g>
     </g>
    </g>
    <g id="xtick_11">
     <g id="line2d_11">
      <g>
       <use xlink:href="#m271dcef51f" x="256.495788" y="288.430125" style="stroke: #000000; stroke-width: 0.6"/>
      </g>
     </g>
    </g>
    <g id="xtick_12">
     <g id="line2d_12">
      <g>
       <use xlink:href="#m271dcef51f" x="311.437327" y="288.430125" style="stroke: #000000; stroke-width: 0.6"/>
      </g>
     </g>
    </g>
    <g id="xtick_13">
     <g id="line2d_13">
      <g>
       <use xlink:href="#m271dcef51f" x="366.378865" y="288.430125" style="stroke: #000000; stroke-width: 0.6"/>
      </g>
     </g>
    </g>
   </g>
   <g id="matplotlib.axis_2">
    <g id="ytick_1">
     <g id="line2d_14">
      <path d="M 58.70625 250.318834 
L 415.82625 250.318834 
" clip-path="url(#pd2ee78cba0)" style="fill: none; stroke-dasharray: 2.96,1.28; stroke-dashoffset: 0; stroke: #b0b0b0; stroke-width: 0.8"/>
     </g>
     <g id="line2d_15">
      <defs>
       <path id="mfd53b11b4c" d="M 0 0 
L -3.5 0 
" style="stroke: #000000; stroke-width: 0.8"/>
      </defs>
      <g>
       <use xlink:href="#mfd53b11b4c" x="58.70625" y="250.318834" style="stroke: #000000; stroke-width: 0.8"/>
      </g>
     </g>
     <g id="text_8">
      <!-- −20% -->
      <g transform="translate(21.1 254.118053) scale(0.1 -0.1)">
       <defs>
        <path id="DejaVuSerif-2212" d="M 678 2259 
L 4684 2259 
L 4684 1753 
L 678 1753 
L 678 2259 
z
" transform="scale(0.015625)"/>
        <path id="DejaVuSerif-25" d="M 1434 4459 
Q 1159 4459 1004 4200 
Q 850 3941 850 3475 
Q 850 3016 1008 2753 
Q 1166 2491 1434 2491 
Q 1700 2491 1854 2752 
Q 2009 3013 2009 3475 
Q 2009 3938 1854 4198 
Q 1700 4459 1434 4459 
z
M 4653 2169 
Q 4381 2169 4226 1906 
Q 4072 1644 4072 1178 
Q 4072 719 4228 458 
Q 4384 197 4653 197 
Q 4922 197 5075 458 
Q 5228 719 5228 1178 
Q 5228 1641 5073 1905 
Q 4919 2169 4653 2169 
z
M 4653 2450 
Q 5147 2450 5437 2106 
Q 5728 1763 5728 1178 
Q 5728 594 5436 251 
Q 5144 -91 4653 -91 
Q 4153 -91 3862 251 
Q 3572 594 3572 1178 
Q 3572 1766 3864 2108 
Q 4156 2450 4653 2450 
z
M 4263 4750 
L 4738 4750 
L 1819 -91 
L 1344 -91 
L 4263 4750 
z
M 1428 4750 
Q 1922 4750 2215 4408 
Q 2509 4066 2509 3481 
Q 2509 2891 2217 2550 
Q 1925 2209 1428 2209 
Q 931 2209 642 2551 
Q 353 2894 353 3481 
Q 353 4063 643 4406 
Q 934 4750 1428 4750 
z
" transform="scale(0.015625)"/>
       </defs>
       <use xlink:href="#DejaVuSerif-2212"/>
       <use xlink:href="#DejaVuSerif-32" x="83.789062"/>
       <use xlink:href="#DejaVuSerif-30" x="147.412109"/>
       <use xlink:href="#DejaVuSerif-25" x="211.035156"/>
      </g>
     </g>
    </g>
    <g id="ytick_2">
     <g id="line2d_16">
      <path d="M 58.70625 199.680574 
L 415.82625 199.680574 
" clip-path="url(#pd2ee78cba0)" style="fill: none; stroke-dasharray: 2.96,1.28; stroke-dashoffset: 0; stroke: #b0b0b0; stroke-width: 0.8"/>
     </g>
     <g id="line2d_17">
      <g>
       <use xlink:href="#mfd53b11b4c" x="58.70625" y="199.680574" style="stroke: #000000; stroke-width: 0.8"/>
      </g>
     </g>
     <g id="text_9">
      <!-- −10% -->
      <g transform="translate(21.1 203.479793) scale(0.1 -0.1)">
       <use xlink:href="#DejaVuSerif-2212"/>
       <use xlink:href="#DejaVuSerif-31" x="83.789062"/>
       <use xlink:href="#DejaVuSerif-30" x="147.412109"/>
       <use xlink:href="#DejaVuSerif-25" x="211.035156"/>
      </g>
     </g>
    </g>
    <g id="ytick_3">
     <g id="line2d_18">
      <path d="M 58.70625 149.042314 
L 415.82625 149.042314 
" clip-path="url(#pd2ee78cba0)" style="fill: none; stroke-dasharray: 2.96,1.28; stroke-dashoffset: 0; stroke: #b0b0b0; stroke-width: 0.8"/>
     </g>
     <g id="line2d_19">
      <g>
       <use xlink:href="#mfd53b11b4c" x="58.70625" y="149.042314" style="stroke: #000000; stroke-width: 0.8"/>
      </g>
     </g>
     <g id="text_10">
      <!-- 0% -->
      <g transform="translate(35.842188 152.841533) scale(0.1 -0.1)">
       <use xlink:href="#DejaVuSerif-30"/>
       <use xlink:href="#DejaVuSerif-25" x="63.623047"/>
      </g>
     </g>
    </g>
    <g id="ytick_4">
     <g id="line2d_20">
      <path d="M 58.70625 98.404054 
L 415.82625 98.404054 
" clip-path="url(#pd2ee78cba0)" style="fill: none; stroke-dasharray: 2.96,1.28; stroke-dashoffset: 0; stroke: #b0b0b0; stroke-width: 0.8"/>
     </g>
     <g id="line2d_21">
      <g>
       <use xlink:href="#mfd53b11b4c" x="58.70625" y="98.404054" style="stroke: #000000; stroke-width: 0.8"/>
      </g>
     </g>
     <g id="text_11">
      <!-- 10% -->
      <g transform="translate(29.479688 102.203273) scale(0.1 -0.1)">
       <use xlink:href="#DejaVuSerif-31"/>
       <use xlink:href="#DejaVuSerif-30" x="63.623047"/>
       <use xlink:href="#DejaVuSerif-25" x="127.246094"/>
      </g>
     </g>
    </g>
    <g id="ytick_5">
     <g id="line2d_22">
      <path d="M 58.70625 47.765794 
L 415.82625 47.765794 
" clip-path="url(#pd2ee78cba0)" style="fill: none; stroke-dasharray: 2.96,1.28; stroke-dashoffset: 0; stroke: #b0b0b0; stroke-width: 0.8"/>
     </g>
     <g id="line2d_23">
      <g>
       <use xlink:href="#mfd53b11b4c" x="58.70625" y="47.765794" style="stroke: #000000; stroke-width: 0.8"/>
      </g>
     </g>
     <g id="text_12">
      <!-- 20% -->
      <g transform="translate(29.479688 51.565013) scale(0.1 -0.1)">
       <use xlink:href="#DejaVuSerif-32"/>
       <use xlink:href="#DejaVuSerif-30" x="63.623047"/>
       <use xlink:href="#DejaVuSerif-25" x="127.246094"/>
      </g>
     </g>
    </g>
    <g id="text_13">
     <!-- $\Delta\log(x_i)$ -->
     <g transform="translate(14.8 174.774125) rotate(-90) scale(0.1 -0.1)">
      <defs>
       <path id="DejaVuSerif-394" d="M 4350 0 
L 244 0 
L 2034 4666 
L 2559 4666 
L 4350 0 
z
M 3506 331 
L 2138 3909 
L 763 331 
L 3506 331 
z
" transform="scale(0.015625)"/>
       <path id="DejaVuSerif-6c" d="M 1313 331 
L 1856 331 
L 1856 0 
L 184 0 
L 184 331 
L 738 331 
L 738 4531 
L 184 4531 
L 184 4863 
L 1313 4863 
L 1313 331 
z
" transform="scale(0.015625)"/>
       <path id="DejaVuSerif-6f" d="M 1925 219 
Q 2388 219 2623 584 
Q 2859 950 2859 1663 
Q 2859 2375 2623 2739 
Q 2388 3103 1925 3103 
Q 1463 3103 1227 2739 
Q 991 2375 991 1663 
Q 991 950 1228 584 
Q 1466 219 1925 219 
z
M 1925 -91 
Q 1200 -91 759 389 
Q 319 869 319 1663 
Q 319 2456 758 2934 
Q 1197 3413 1925 3413 
Q 2653 3413 3092 2934 
Q 3531 2456 3531 1663 
Q 3531 869 3092 389 
Q 2653 -91 1925 -91 
z
" transform="scale(0.015625)"/>
       <path id="DejaVuSerif-67" d="M 3359 2988 
L 3359 72 
Q 3359 -644 2965 -1033 
Q 2572 -1422 1844 -1422 
Q 1516 -1422 1216 -1362 
Q 916 -1303 641 -1184 
L 641 -488 
L 941 -488 
Q 997 -813 1206 -963 
Q 1416 -1113 1806 -1113 
Q 2313 -1113 2548 -827 
Q 2784 -541 2784 72 
L 2784 519 
Q 2616 206 2355 57 
Q 2094 -91 1709 -91 
Q 1097 -91 708 395 
Q 319 881 319 1663 
Q 319 2444 706 2928 
Q 1094 3413 1709 3413 
Q 2094 3413 2355 3264 
Q 2616 3116 2784 2803 
L 2784 3322 
L 3909 3322 
L 3909 2988 
L 3359 2988 
z
M 2784 1825 
Q 2784 2422 2554 2737 
Q 2325 3053 1888 3053 
Q 1444 3053 1217 2703 
Q 991 2353 991 1663 
Q 991 975 1217 622 
Q 1444 269 1888 269 
Q 2325 269 2554 583 
Q 2784 897 2784 1497 
L 2784 1825 
z
" transform="scale(0.015625)"/>
       <path id="DejaVuSerif-28" d="M 2041 -997 
Q 1281 -656 893 83 
Q 506 822 506 1931 
Q 506 3044 893 3783 
Q 1281 4522 2041 4863 
L 2041 4556 
Q 1559 4225 1350 3623 
Q 1141 3022 1141 1931 
Q 1141 844 1350 242 
Q 1559 -359 2041 -691 
L 2041 -997 
z
" transform="scale(0.015625)"/>
       <path id="DejaVuSerif-Italic-78" d="M 409 0 
L 19 0 
L 1484 1594 
L 747 2988 
L 338 2988 
L 400 3322 
L 1244 3322 
L 1934 2028 
L 3125 3322 
L 3516 3322 
L 2078 1759 
L 2838 331 
L 3272 331 
L 3209 0 
L 2338 0 
L 1631 1325 
L 409 0 
z
" transform="scale(0.015625)"/>
       <path id="DejaVuSerif-Italic-69" d="M 1009 4353 
Q 1038 4497 1163 4603 
Q 1288 4709 1434 4709 
Q 1578 4709 1663 4603 
Q 1728 4522 1728 4422 
Q 1728 4388 1719 4353 
Q 1691 4206 1567 4103 
Q 1444 4000 1297 4000 
Q 1150 4000 1066 4103 
Q 1003 4181 1003 4281 
Q 1003 4316 1009 4353 
z
M 963 331 
L 1506 331 
L 1444 0 
L 325 0 
L 903 2988 
L 353 2988 
L 419 3322 
L 1544 3322 
L 963 331 
z
" transform="scale(0.015625)"/>
       <path id="DejaVuSerif-29" d="M 453 -997 
L 453 -691 
Q 934 -359 1145 242 
Q 1356 844 1356 1931 
Q 1356 3022 1145 3623 
Q 934 4225 453 4556 
L 453 4863 
Q 1216 4522 1603 3783 
Q 1991 3044 1991 1931 
Q 1991 822 1603 83 
Q 1216 -656 453 -997 
z
" transform="scale(0.015625)"/>
      </defs>
      <use xlink:href="#DejaVuSerif-394" transform="translate(0 0.015625)"/>
      <use xlink:href="#DejaVuSerif-6c" transform="translate(72.216797 0.015625)"/>
      <use xlink:href="#DejaVuSerif-6f" transform="translate(104.199219 0.015625)"/>
      <use xlink:href="#DejaVuSerif-67" transform="translate(164.404297 0.015625)"/>
      <use xlink:href="#DejaVuSerif-28" transform="translate(228.417969 0.015625)"/>
      <use xlink:href="#DejaVuSerif-Italic-78" transform="translate(267.431641 0.015625)"/>
      <use xlink:href="#DejaVuSerif-Italic-69" transform="translate(323.828125 -15.55625) scale(0.7)"/>
      <use xlink:href="#DejaVuSerif-29" transform="translate(348.811133 0.015625)"/>
     </g>
    </g>
   </g>
   <g id="line2d_24">
    <path d="M 64.200404 129.606669 
L 65.573942 132.175531 
L 66.947481 133.945325 
L 68.321019 126.318863 
L 69.694558 121.139909 
L 71.068096 114.083183 
L 72.441635 110.701443 
L 73.815173 111.086841 
L 75.188712 109.284563 
L 76.56225 106.612929 
L 77.935788 108.569013 
L 79.309327 107.735096 
L 80.682865 104.956662 
L 82.056404 106.313332 
L 83.429942 103.74511 
L 84.803481 102.812997 
L 86.177019 104.6318 
L 87.550558 107.565364 
L 88.924096 106.871058 
L 90.297635 105.519584 
L 93.044712 103.977535 
L 94.41825 105.94417 
L 95.791788 105.649682 
L 98.538865 106.841602 
L 99.912404 112.672094 
L 101.285942 121.545774 
L 102.659481 124.589399 
L 104.033019 120.542678 
L 105.406558 109.999003 
L 106.780096 102.010682 
L 108.153635 100.426367 
L 109.527173 105.789384 
L 110.900712 110.171744 
L 112.27425 108.722515 
L 113.647788 107.843238 
L 115.021327 112.743245 
L 116.394865 123.945574 
L 117.768404 138.028994 
L 119.141942 142.257348 
L 120.515481 142.460482 
L 121.889019 128.228027 
L 123.262558 106.473476 
L 124.636096 94.991435 
L 126.009635 77.363855 
L 127.383173 73.275581 
L 128.756712 79.230925 
L 130.13025 81.184318 
L 131.503788 86.263236 
L 132.877327 86.412862 
L 134.250865 83.175925 
L 135.624404 81.125625 
L 136.997942 81.92602 
L 138.371481 83.846883 
L 141.118558 96.70189 
L 142.492096 97.713883 
L 143.865635 101.472098 
L 145.239173 105.87204 
L 146.612712 109.086524 
L 147.98625 113.140772 
L 149.359788 109.492401 
L 152.106865 101.399924 
L 153.480404 96.045534 
L 154.853942 99.01595 
L 156.227481 96.163797 
L 157.601019 91.99607 
L 158.974558 92.437093 
L 160.348096 89.846315 
L 161.721635 89.082842 
L 163.095173 89.914081 
L 164.468712 90.085958 
L 165.84225 92.122351 
L 167.215788 92.821266 
L 168.589327 94.050065 
L 169.962865 94.987772 
L 171.336404 95.053368 
L 172.709942 93.829154 
L 174.083481 100.634434 
L 175.457019 105.313843 
L 176.830558 104.603792 
L 178.204096 106.646861 
L 179.577635 96.929974 
L 180.951173 89.295874 
L 182.324712 90.156419 
L 183.69825 87.811735 
L 185.071788 88.836866 
L 186.445327 93.44951 
L 187.818865 96.381686 
L 189.192404 98.730513 
L 190.565942 103.694158 
L 191.939481 102.253919 
L 193.313019 103.389895 
L 194.686558 106.941613 
L 196.060096 105.030438 
L 197.433635 102.239247 
L 198.807173 97.914275 
L 200.180712 97.399481 
L 201.55425 95.447165 
L 202.927788 103.881251 
L 204.301327 108.252433 
L 205.674865 109.673263 
L 207.048404 114.226346 
L 208.421942 110.039963 
L 209.795481 107.039313 
L 211.169019 104.896 
L 212.542558 105.267214 
L 215.289635 117.507886 
L 216.663173 118.850169 
L 218.036712 123.219874 
L 219.41025 117.924355 
L 220.783788 114.892141 
L 222.157327 119.259131 
L 223.530865 118.846845 
L 224.904404 125.243637 
L 226.277942 127.529227 
L 227.651481 128.95688 
L 229.025019 129.83505 
L 230.398558 132.112413 
L 231.772096 135.314459 
L 233.145635 135.658822 
L 234.519173 138.26051 
L 235.892712 136.471629 
L 237.26625 139.960338 
L 238.639788 144.252099 
L 240.013327 144.384503 
L 241.386865 146.98919 
L 242.760404 147.070033 
L 244.133942 144.296989 
L 245.507481 150.401441 
L 246.881019 150.662509 
L 248.254558 146.647443 
L 249.628096 146.466087 
L 251.001635 139.746031 
L 252.375173 139.775546 
L 253.748712 139.644863 
L 255.12225 139.239762 
L 256.495788 136.0495 
L 257.869327 132.085683 
L 259.242865 123.667858 
L 260.616404 118.050057 
L 261.989942 118.12684 
L 263.363481 114.147378 
L 264.737019 116.934456 
L 266.110558 115.905836 
L 267.484096 113.18474 
L 268.857635 111.309138 
L 270.231173 109.024081 
L 271.604712 104.715754 
L 272.97825 101.302604 
L 274.351788 99.492275 
L 275.725327 101.581484 
L 277.098865 97.384061 
L 278.472404 98.990342 
L 279.845942 103.977197 
L 281.219481 105.271256 
L 282.593019 114.141816 
L 283.966558 107.139192 
L 285.340096 102.47241 
L 286.713635 102.277001 
L 288.087173 100.002912 
L 289.460712 102.793502 
L 290.83425 96.459398 
L 292.207788 92.202339 
L 293.581327 89.884487 
L 294.954865 94.270494 
L 296.328404 107.940728 
L 299.075481 119.70341 
L 300.449019 117.15023 
L 301.822558 116.328482 
L 303.196096 110.926448 
L 304.569635 118.067292 
L 305.943173 129.262368 
L 307.316712 122.71162 
L 308.69025 127.079667 
L 310.063788 123.374021 
L 311.437327 118.403771 
L 312.810865 123.607905 
L 314.184404 123.527812 
L 315.557942 113.89997 
L 316.931481 110.237457 
L 318.305019 105.875951 
L 319.678558 100.761922 
L 321.052096 99.321759 
L 322.425635 95.640147 
L 323.799173 91.190513 
L 325.172712 89.834082 
L 326.54625 78.669325 
L 327.919788 76.96723 
L 329.293327 71.00157 
L 330.666865 75.092879 
L 332.040404 94.329589 
L 333.413942 95.311567 
L 334.787481 114.751449 
L 336.161019 122.45602 
L 337.534558 138.43187 
L 338.908096 162.225986 
L 340.281635 174.177245 
L 341.655173 177.117062 
L 343.028712 166.380879 
L 344.40225 160.82547 
L 345.775788 144.525689 
L 347.149327 137.326461 
L 348.522865 136.910452 
L 349.896404 129.763866 
L 351.269942 133.352176 
L 352.643481 134.993233 
L 354.017019 131.287313 
L 355.390558 125.924263 
L 356.764096 127.100128 
L 358.137635 127.562858 
L 359.511173 127.779746 
L 360.884712 132.646904 
L 362.25825 127.915451 
L 363.631788 126.944704 
L 365.005327 128.322314 
L 366.378865 122.515134 
L 367.752404 123.009028 
L 369.125942 123.147549 
L 370.499481 122.890751 
L 371.873019 129.079748 
L 373.246558 129.085677 
L 374.620096 128.672095 
L 375.993635 132.223471 
L 377.367173 131.636336 
L 378.740712 131.70456 
L 380.11425 132.195486 
L 381.487788 125.299078 
L 382.861327 126.02541 
L 384.234865 129.496998 
L 385.608404 129.630732 
L 386.981942 133.578634 
L 388.355481 129.782434 
L 389.729019 127.271082 
L 391.102558 122.15864 
L 392.476096 112.082473 
L 393.849635 108.07901 
L 395.223173 57.600016 
L 396.596712 34.414125 
L 397.97025 46.785286 
L 399.343788 48.510887 
L 400.717327 90.417341 
L 402.090865 113.112473 
L 403.464404 105.373822 
L 404.837942 106.265886 
L 407.585019 124.84929 
L 408.958558 138.556988 
L 411.705635 161.854446 
L 414.452712 150.466893 
L 415.82625 144.028674 
L 415.82625 144.028674 
" clip-path="url(#pd2ee78cba0)" style="fill: none; stroke: #1f77b4; stroke-width: 1.5; stroke-linecap: square"/>
   </g>
   <g id="line2d_25">
    <path d="M 64.200404 117.948759 
L 65.573942 131.496472 
L 66.947481 129.58182 
L 69.694558 146.835518 
L 71.068096 135.682689 
L 72.441635 128.971203 
L 73.815173 112.507401 
L 75.188712 105.451693 
L 76.56225 109.752161 
L 77.935788 113.426954 
L 79.309327 122.149866 
L 80.682865 125.996124 
L 82.056404 124.844 
L 86.177019 111.266485 
L 87.550558 111.157399 
L 88.924096 112.966188 
L 90.297635 116.517139 
L 91.671173 114.01834 
L 93.044712 111.992705 
L 94.41825 108.764956 
L 95.791788 97.615962 
L 97.165327 96.840389 
L 98.538865 99.663665 
L 99.912404 103.623518 
L 101.285942 110.255016 
L 102.659481 119.120705 
L 104.033019 122.092385 
L 105.406558 121.628758 
L 106.780096 120.60403 
L 108.153635 111.358916 
L 109.527173 100.528068 
L 110.900712 101.274639 
L 112.27425 101.590578 
L 113.647788 104.329117 
L 115.021327 110.106473 
L 116.394865 108.561414 
L 117.768404 113.631185 
L 119.141942 120.372113 
L 120.515481 120.572066 
L 121.889019 122.184052 
L 123.262558 125.008169 
L 124.636096 110.133031 
L 126.009635 108.532816 
L 127.383173 108.032105 
L 128.756712 103.820809 
L 130.13025 108.157448 
L 131.503788 102.985004 
L 132.877327 102.688696 
L 134.250865 93.263417 
L 135.624404 91.945735 
L 136.997942 93.244573 
L 138.371481 95.733451 
L 139.745019 95.78253 
L 141.118558 108.873921 
L 142.492096 109.05749 
L 143.865635 106.330095 
L 145.239173 108.394235 
L 146.612712 108.309637 
L 147.98625 110.256773 
L 149.359788 102.614314 
L 150.733327 100.150758 
L 152.106865 88.743131 
L 153.480404 91.037353 
L 154.853942 99.231532 
L 157.601019 104.302924 
L 158.974558 96.240433 
L 160.348096 90.331535 
L 161.721635 92.14943 
L 163.095173 97.2616 
L 164.468712 85.313662 
L 165.84225 86.904199 
L 167.215788 80.708798 
L 168.589327 79.583148 
L 169.962865 95.583328 
L 171.336404 94.474165 
L 172.709942 100.920333 
L 174.083481 98.856517 
L 175.457019 110.286814 
L 176.830558 114.393046 
L 179.577635 91.722231 
L 182.324712 82.03633 
L 183.69825 101.287167 
L 185.071788 125.280541 
L 186.445327 122.613523 
L 187.818865 132.885283 
L 189.192404 130.591959 
L 190.565942 119.149047 
L 191.939481 112.847787 
L 193.313019 102.666182 
L 194.686558 93.806832 
L 196.060096 89.33886 
L 197.433635 91.49154 
L 200.180712 103.897202 
L 202.927788 114.23686 
L 204.301327 112.858358 
L 205.674865 114.19463 
L 207.048404 116.842268 
L 208.421942 120.341922 
L 209.795481 124.164642 
L 211.169019 125.277745 
L 212.542558 125.528239 
L 213.916096 120.788243 
L 215.289635 119.491802 
L 216.663173 112.314716 
L 218.036712 112.71432 
L 219.41025 110.130758 
L 220.783788 109.349666 
L 222.157327 110.925585 
L 223.530865 107.120764 
L 224.904404 109.418368 
L 226.277942 110.967507 
L 227.651481 117.438371 
L 229.025019 116.875543 
L 230.398558 118.616053 
L 231.772096 121.382204 
L 233.145635 126.848186 
L 234.519173 135.222786 
L 235.892712 135.062341 
L 237.26625 133.22759 
L 240.013327 122.249284 
L 242.760404 120.433711 
L 244.133942 116.465188 
L 245.507481 120.695644 
L 246.881019 123.246031 
L 248.254558 125.282281 
L 249.628096 124.415608 
L 251.001635 120.785096 
L 252.375173 117.473531 
L 253.748712 117.039635 
L 255.12225 118.126248 
L 256.495788 120.900802 
L 257.869327 126.221345 
L 259.242865 125.290842 
L 260.616404 127.936617 
L 261.989942 126.258692 
L 263.363481 119.726095 
L 264.737019 120.326507 
L 266.110558 118.257323 
L 267.484096 118.197243 
L 268.857635 119.297258 
L 270.231173 116.984975 
L 271.604712 118.926156 
L 272.97825 119.417963 
L 274.351788 122.92629 
L 275.725327 122.938579 
L 277.098865 119.41991 
L 278.472404 118.824535 
L 279.845942 118.560701 
L 281.219481 118.580317 
L 282.593019 117.047155 
L 283.966558 118.228282 
L 285.340096 112.072184 
L 288.087173 122.363542 
L 289.460712 125.883859 
L 290.83425 131.974985 
L 292.207788 135.490879 
L 293.581327 138.25373 
L 294.954865 134.113598 
L 296.328404 135.444923 
L 297.701942 130.92591 
L 299.075481 130.345395 
L 300.449019 131.023192 
L 301.822558 129.637655 
L 303.196096 122.870289 
L 304.569635 117.505234 
L 305.943173 116.175247 
L 307.316712 114.440097 
L 308.69025 117.695695 
L 310.063788 117.565729 
L 311.437327 114.416216 
L 312.810865 116.270211 
L 314.184404 115.706426 
L 315.557942 117.809226 
L 316.931481 117.078478 
L 318.305019 117.491761 
L 319.678558 121.758556 
L 321.052096 122.56011 
L 322.425635 126.591581 
L 323.799173 125.705688 
L 325.172712 124.321235 
L 326.54625 125.246249 
L 327.919788 131.851326 
L 329.293327 132.998172 
L 330.666865 137.530584 
L 332.040404 152.732675 
L 333.413942 158.623213 
L 334.787481 165.81994 
L 336.161019 164.576607 
L 337.534558 147.552558 
L 338.908096 137.465789 
L 340.281635 128.379595 
L 341.655173 125.328749 
L 343.028712 126.78869 
L 344.40225 129.305191 
L 345.775788 129.892705 
L 347.149327 132.394339 
L 348.522865 131.719402 
L 349.896404 125.915814 
L 351.269942 128.328734 
L 352.643481 127.753706 
L 354.017019 130.891216 
L 355.390558 131.105419 
L 356.764096 133.002804 
L 358.137635 129.733432 
L 359.511173 125.789406 
L 360.884712 132.596819 
L 362.25825 125.68142 
L 363.631788 124.25908 
L 365.005327 128.265423 
L 366.378865 124.170285 
L 367.752404 127.501898 
L 369.125942 132.330132 
L 370.499481 134.467016 
L 371.873019 136.242683 
L 373.246558 137.216582 
L 374.620096 135.707566 
L 375.993635 131.382908 
L 377.367173 128.837085 
L 378.740712 129.742104 
L 380.11425 128.042475 
L 381.487788 124.506634 
L 384.234865 120.127335 
L 385.608404 121.368885 
L 386.981942 127.258384 
L 388.355481 129.902975 
L 389.729019 129.328577 
L 392.476096 125.040502 
L 393.849635 134.477073 
L 395.223173 184.891827 
L 396.596712 149.803491 
L 397.97025 145.922438 
L 399.343788 127.838174 
L 400.717327 68.575508 
L 402.090865 99.31651 
L 403.464404 90.42651 
L 404.837942 94.859979 
L 406.211481 98.811938 
L 407.585019 101.591231 
L 408.958558 110.542456 
L 410.332096 111.343519 
L 411.705635 117.694084 
L 413.079173 117.370101 
L 414.452712 120.27568 
L 415.82625 122.537158 
L 415.82625 122.537158 
" clip-path="url(#pd2ee78cba0)" style="fill: none; stroke: #ff7f0e; stroke-width: 1.5; stroke-linecap: square"/>
   </g>
   <g id="line2d_26">
    <path d="M 64.200404 137.384405 
L 65.573942 148.363255 
L 66.947481 144.678809 
L 68.321019 160.776308 
L 69.694558 174.737923 
L 71.068096 170.641821 
L 72.441635 167.312074 
L 73.815173 150.462874 
L 75.188712 145.209445 
L 76.56225 152.181547 
L 77.935788 153.900255 
L 79.309327 163.457085 
L 80.682865 170.081776 
L 82.056404 167.572982 
L 83.429942 165.716076 
L 84.803481 161.940085 
L 86.177019 155.676998 
L 87.550558 152.634349 
L 88.924096 155.137444 
L 90.297635 160.039869 
L 91.671173 158.265296 
L 93.044712 157.057484 
L 94.41825 151.8631 
L 95.791788 141.008594 
L 97.165327 139.621938 
L 98.538865 141.864378 
L 99.912404 139.993738 
L 101.285942 137.751556 
L 102.659481 143.573619 
L 104.033019 150.592021 
L 105.406558 160.672068 
L 106.780096 167.635663 
L 108.153635 159.974863 
L 109.527173 143.780997 
L 110.900712 140.145209 
L 112.27425 141.910377 
L 113.647788 145.528193 
L 115.021327 146.405542 
L 116.394865 133.658154 
L 117.768404 124.644505 
L 119.141942 127.15708 
L 120.515481 127.153899 
L 121.889019 142.998339 
L 123.262558 167.577007 
L 124.636096 164.18391 
L 126.009635 180.211275 
L 127.383173 183.798838 
L 128.756712 173.632198 
L 130.13025 176.015444 
L 131.503788 165.764082 
L 132.877327 165.318148 
L 134.250865 159.129806 
L 135.624404 159.862423 
L 138.371481 160.928882 
L 139.745019 154.371943 
L 141.118558 161.214345 
L 142.492096 160.385921 
L 143.865635 153.900311 
L 145.239173 151.564509 
L 146.612712 148.265428 
L 147.98625 146.158316 
L 149.359788 142.164228 
L 150.733327 143.805005 
L 152.106865 136.385521 
L 153.480404 144.034133 
L 156.227481 154.635869 
L 157.601019 161.349168 
L 158.974558 152.845654 
L 160.348096 149.527534 
L 161.721635 152.108903 
L 163.095173 156.389833 
L 164.468712 144.270018 
L 165.84225 143.824163 
L 167.215788 136.929847 
L 168.589327 134.575397 
L 169.962865 149.63787 
L 171.336404 148.463111 
L 172.709942 156.133493 
L 174.083481 147.264397 
L 175.457019 154.015284 
L 176.830558 158.831568 
L 178.204096 144.988358 
L 179.577635 143.834571 
L 180.951173 146.655753 
L 182.324712 140.922225 
L 185.071788 185.485989 
L 186.445327 178.206327 
L 187.818865 185.545911 
L 189.192404 180.90376 
L 190.565942 164.497203 
L 191.939481 159.636182 
L 193.313019 148.318601 
L 194.686558 135.907533 
L 196.060096 133.350736 
L 197.433635 138.294607 
L 198.807173 148.653938 
L 201.55425 162.53087 
L 202.927788 159.397924 
L 204.301327 153.648239 
L 205.674865 153.563681 
L 207.048404 151.658236 
L 208.421942 159.344274 
L 209.795481 166.167643 
L 211.169019 169.424059 
L 212.542558 169.30334 
L 213.916096 158.395051 
L 215.289635 151.02623 
L 216.663173 142.506861 
L 218.036712 138.53676 
L 219.41025 141.248718 
L 220.783788 143.49984 
L 222.157327 140.708768 
L 223.530865 137.316233 
L 224.904404 133.217046 
L 226.277942 132.480595 
L 227.651481 137.523805 
L 229.025019 136.082807 
L 231.772096 135.110059 
L 233.145635 140.231678 
L 234.519173 146.00459 
L 235.892712 147.633026 
L 237.26625 142.309567 
L 238.639788 132.383595 
L 240.013327 126.907095 
L 241.386865 123.441216 
L 242.760404 122.405992 
L 244.133942 121.210514 
L 245.507481 119.336518 
L 246.881019 121.625836 
L 248.254558 127.677152 
L 249.628096 126.991835 
L 251.001635 130.081379 
L 252.375173 126.740299 
L 253.748712 126.437086 
L 255.12225 127.928799 
L 256.495788 133.893616 
L 257.869327 143.177976 
L 259.242865 150.665298 
L 260.616404 158.928874 
L 261.989942 157.174167 
L 263.363481 154.621031 
L 264.737019 152.434365 
L 266.110558 151.393801 
L 267.484096 154.054818 
L 268.857635 157.030433 
L 270.231173 157.003208 
L 271.604712 163.252717 
L 272.97825 167.157673 
L 274.351788 172.476329 
L 275.725327 170.399409 
L 277.098865 171.078163 
L 278.472404 168.876508 
L 279.845942 163.625817 
L 281.219481 162.351376 
L 282.593019 151.947653 
L 283.966558 160.131404 
L 285.340096 158.642088 
L 286.713635 163.824622 
L 288.087173 171.402945 
L 289.460712 172.132671 
L 290.83425 184.557901 
L 292.207788 192.330854 
L 293.581327 197.411557 
L 294.954865 188.885418 
L 296.328404 176.546509 
L 297.701942 166.039541 
L 299.075481 159.684299 
L 300.449019 162.915276 
L 301.822558 162.351487 
L 303.196096 160.986155 
L 305.943173 135.955192 
L 307.316712 140.770791 
L 308.69025 139.658342 
L 310.063788 143.234022 
L 311.437327 145.054759 
L 312.810865 141.704621 
L 314.184404 141.220928 
L 315.557942 152.95157 
L 316.931481 155.883335 
L 318.305019 160.658124 
L 319.678558 170.038948 
L 321.052096 172.280665 
L 322.425635 179.993748 
L 323.799173 183.55749 
L 325.172712 183.529466 
L 326.54625 195.619239 
L 327.919788 203.92641 
L 329.293327 211.038916 
L 330.666865 211.480019 
L 332.040404 207.4454 
L 333.413942 212.353961 
L 334.787481 200.110805 
L 336.161019 191.162901 
L 338.908096 124.282117 
L 340.281635 103.244664 
L 341.655173 97.254001 
L 343.028712 109.450125 
L 344.40225 117.522035 
L 345.775788 134.409331 
L 347.149327 144.110192 
L 348.522865 143.851264 
L 349.896404 145.194262 
L 351.269942 144.018872 
L 352.643481 141.802787 
L 354.017019 148.646217 
L 355.390558 154.22347 
L 356.764096 154.94499 
L 358.137635 151.212888 
L 359.511173 147.051974 
L 360.884712 148.992229 
L 362.25825 146.808284 
L 363.631788 146.356689 
L 365.005327 148.985423 
L 366.378865 150.697464 
L 367.752404 153.535184 
L 369.125942 158.224897 
L 370.499481 160.618579 
L 371.873019 156.205249 
L 373.246558 157.173219 
L 374.620096 156.077786 
L 375.993635 148.20175 
L 377.367173 146.243063 
L 378.740712 147.079858 
L 380.11425 144.889303 
L 381.487788 148.24987 
L 382.861327 145.244334 
L 384.234865 139.67265 
L 385.608404 140.780467 
L 386.981942 142.722064 
L 388.355481 149.162855 
L 389.729019 151.099809 
L 391.102558 154.044532 
L 392.476096 162.000343 
L 393.849635 175.440377 
L 395.223173 276.334125 
L 396.596712 264.43168 
L 397.97025 248.179465 
L 399.343788 228.369601 
L 400.717327 127.200481 
L 402.090865 135.246351 
L 403.464404 134.095002 
L 404.837942 137.636407 
L 406.211481 132.438933 
L 407.585019 125.784255 
L 408.958558 121.027782 
L 410.332096 110.510555 
L 411.705635 104.881952 
L 413.079173 110.192417 
L 415.82625 127.550798 
L 415.82625 127.550798 
" clip-path="url(#pd2ee78cba0)" style="fill: none; stroke: #2ca02c; stroke-width: 1.5; stroke-linecap: square"/>
   </g>
   <g id="line2d_27">
    <path d="M 64.200404 142.797023 
L 65.573942 139.350485 
L 66.947481 142.140911 
L 68.321019 142.187623 
L 69.694558 141.002969 
L 71.068096 144.434926 
L 72.441635 142.741188 
L 73.815173 145.142479 
L 75.188712 145.659652 
L 76.56225 142.292696 
L 77.935788 143.990234 
L 79.309327 142.330717 
L 80.682865 142.344034 
L 82.056404 144.536656 
L 83.429942 141.227356 
L 84.803481 142.912301 
L 86.177019 140.792171 
L 87.550558 141.293512 
L 88.924096 143.626406 
L 90.297635 142.985621 
L 91.671173 143.508023 
L 93.044712 142.055374 
L 94.41825 139.982192 
L 95.791788 140.490804 
L 97.165327 139.421076 
L 98.538865 134.723285 
L 99.912404 135.280641 
L 101.285942 130.197996 
L 102.659481 133.0944 
L 104.033019 136.339484 
L 105.406558 134.430413 
L 106.780096 136.106217 
L 108.153635 130.901296 
L 109.527173 129.534794 
L 110.900712 126.796456 
L 112.27425 125.553693 
L 113.647788 125.822999 
L 115.021327 121.81859 
L 116.394865 122.198458 
L 117.768404 121.135385 
L 119.141942 118.76042 
L 120.515481 119.246509 
L 121.889019 120.9399 
L 123.262558 121.306478 
L 124.636096 123.001482 
L 126.009635 128.42338 
L 127.383173 127.382398 
L 130.13025 132.806709 
L 131.503788 131.664735 
L 132.877327 134.292264 
L 134.250865 133.197523 
L 135.624404 130.933736 
L 136.997942 122.885286 
L 138.371481 120.771759 
L 139.745019 109.803995 
L 141.118558 102.614989 
L 142.492096 100.462968 
L 143.865635 93.745693 
L 145.239173 92.369029 
L 146.612712 92.776539 
L 147.98625 99.918272 
L 149.359788 102.931132 
L 150.733327 111.728137 
L 152.106865 116.240116 
L 153.480404 120.257553 
L 154.853942 121.663614 
L 156.227481 122.100716 
L 157.601019 123.386005 
L 158.974558 115.008973 
L 161.721635 117.674704 
L 163.095173 115.660702 
L 164.468712 117.152972 
L 167.215788 105.735374 
L 168.589327 104.241482 
L 169.962865 98.550508 
L 171.336404 94.145732 
L 172.709942 91.331314 
L 174.083481 83.275833 
L 175.457019 80.081268 
L 176.830558 86.478623 
L 178.204096 88.800827 
L 179.577635 92.582931 
L 180.951173 100.153348 
L 182.324712 97.224541 
L 183.69825 99.530379 
L 185.071788 108.867568 
L 186.445327 116.574299 
L 187.818865 116.880231 
L 189.192404 124.180943 
L 190.565942 130.607214 
L 191.939481 129.181627 
L 193.313019 137.235596 
L 194.686558 135.293526 
L 196.060096 127.771118 
L 197.433635 126.488149 
L 198.807173 127.681176 
L 200.180712 127.888727 
L 201.55425 131.495059 
L 202.927788 131.221972 
L 204.301327 131.826517 
L 205.674865 132.920158 
L 207.048404 129.310626 
L 208.421942 141.060226 
L 209.795481 140.64904 
L 211.169019 141.169724 
L 212.542558 142.177556 
L 213.916096 130.742849 
L 215.289635 129.537483 
L 216.663173 127.452575 
L 218.036712 128.552624 
L 219.41025 129.216192 
L 222.157327 127.913027 
L 223.530865 126.836484 
L 224.904404 124.171254 
L 226.277942 124.030682 
L 227.651481 126.330768 
L 229.025019 123.381735 
L 230.398558 125.728522 
L 231.772096 125.208146 
L 233.145635 117.725839 
L 234.519173 121.224835 
L 235.892712 125.253303 
L 237.26625 127.393867 
L 238.639788 134.819251 
L 240.013327 135.686394 
L 241.386865 133.176206 
L 242.760404 133.302376 
L 244.133942 132.700116 
L 245.507481 132.828039 
L 246.881019 133.305995 
L 248.254558 134.827132 
L 249.628096 135.293526 
L 251.001635 136.780635 
L 252.375173 137.20878 
L 253.748712 135.556422 
L 255.12225 135.995803 
L 257.869327 133.460082 
L 259.242865 134.909789 
L 260.616404 135.332869 
L 264.737019 134.648041 
L 266.110558 133.770074 
L 267.484096 133.886785 
L 268.857635 136.862905 
L 270.231173 138.193123 
L 271.604712 138.588001 
L 272.97825 140.849262 
L 274.351788 141.8104 
L 275.725327 140.278985 
L 277.098865 141.572491 
L 278.472404 140.672163 
L 279.845942 137.620826 
L 281.219481 138.297206 
L 282.593019 136.229541 
L 285.340096 134.006097 
L 286.713635 131.136526 
L 288.087173 131.865117 
L 289.460712 130.540921 
L 292.207788 135.445392 
L 293.581327 138.381234 
L 294.954865 143.02241 
L 296.328404 140.785119 
L 297.701942 141.674558 
L 299.075481 138.880449 
L 300.449019 135.268083 
L 301.822558 138.145937 
L 303.196096 138.738876 
L 305.943173 138.884122 
L 307.316712 137.564181 
L 308.69025 134.371406 
L 310.063788 133.136522 
L 311.437327 134.837478 
L 312.810865 132.298672 
L 314.184404 133.744176 
L 315.557942 127.479808 
L 316.931481 129.09015 
L 318.305019 131.065385 
L 319.678558 128.672243 
L 321.052096 141.970522 
L 322.425635 138.638609 
L 323.799173 136.079535 
L 325.172712 137.438883 
L 326.54625 131.080718 
L 327.919788 127.748765 
L 329.293327 129.650438 
L 330.666865 121.942143 
L 332.040404 130.49282 
L 333.413942 149.617821 
L 334.787481 151.969163 
L 336.161019 159.059569 
L 337.534558 150.177722 
L 338.908096 135.940429 
L 340.281635 137.989127 
L 341.655173 142.297958 
L 343.028712 143.168571 
L 344.40225 140.502262 
L 345.775788 133.694683 
L 347.149327 131.231356 
L 348.522865 131.513093 
L 349.896404 134.031155 
L 351.269942 137.660292 
L 352.643481 141.914682 
L 354.017019 138.242328 
L 355.390558 140.585529 
L 356.764096 143.308177 
L 358.137635 139.583507 
L 359.511173 144.621707 
L 360.884712 141.214904 
L 362.25825 138.939524 
L 363.631788 139.142521 
L 365.005327 140.956772 
L 366.378865 150.207985 
L 367.752404 149.569383 
L 369.125942 147.900767 
L 370.499481 148.396498 
L 371.873019 142.814274 
L 373.246558 143.138887 
L 374.620096 144.664055 
L 377.367173 136.487061 
L 378.740712 138.140495 
L 380.11425 140.381165 
L 381.487788 138.911566 
L 382.861327 138.263937 
L 384.234865 136.681712 
L 385.608404 134.791931 
L 386.981942 136.577768 
L 388.355481 141.5649 
L 389.729019 139.011712 
L 391.102558 139.877527 
L 392.476096 140.33703 
L 393.849635 136.477818 
L 395.223173 147.273693 
L 396.596712 143.909608 
L 399.343788 142.026591 
L 400.717327 128.457924 
L 402.090865 123.09513 
L 403.464404 118.490616 
L 404.837942 112.091858 
L 406.211481 108.891057 
L 407.585019 107.965884 
L 408.958558 111.235002 
L 411.705635 124.620157 
L 413.079173 132.739846 
L 414.452712 132.867317 
L 415.82625 133.553481 
L 415.82625 133.553481 
" clip-path="url(#pd2ee78cba0)" style="fill: none; stroke: #d62728; stroke-width: 1.5; stroke-linecap: square"/>
   </g>
   <g id="patch_37">
    <path d="M 58.70625 288.430125 
L 58.70625 22.318125 
" style="fill: none; stroke: #000000; stroke-width: 0.8; stroke-linejoin: miter; stroke-linecap: square"/>
   </g>
   <g id="patch_38">
    <path d="M 415.82625 288.430125 
L 415.82625 22.318125 
" style="fill: none; stroke: #000000; stroke-width: 0.8; stroke-linejoin: miter; stroke-linecap: square"/>
   </g>
   <g id="patch_39">
    <path d="M 58.70625 288.430125 
L 415.82625 288.430125 
" style="fill: none; stroke: #000000; stroke-width: 0.8; stroke-linejoin: miter; stroke-linecap: square"/>
   </g>
   <g id="patch_40">
    <path d="M 58.70625 22.318125 
L 415.82625 22.318125 
" style="fill: none; stroke: #000000; stroke-width: 0.8; stroke-linejoin: miter; stroke-linecap: square"/>
   </g>
   <g id="text_14">
    <!-- United States -->
    <g transform="translate(195.575625 16.318125) scale(0.12 -0.12)">
     <defs>
      <path id="DejaVuSerif-55" d="M 897 4331 
L 300 4331 
L 300 4666 
L 2125 4666 
L 2125 4331 
L 1528 4331 
L 1528 1919 
Q 1528 1025 1820 672 
Q 2113 319 2828 319 
Q 3544 319 3836 672 
Q 4128 1025 4128 1919 
L 4128 4331 
L 3531 4331 
L 3531 4666 
L 5106 4666 
L 5106 4331 
L 4513 4331 
L 4513 1856 
Q 4513 791 4103 350 
Q 3694 -91 2713 -91 
Q 1731 -91 1314 353 
Q 897 797 897 1856 
L 897 4331 
z
" transform="scale(0.015625)"/>
      <path id="DejaVuSerif-6e" d="M 263 0 
L 263 331 
L 781 331 
L 781 2988 
L 231 2988 
L 231 3322 
L 1356 3322 
L 1356 2731 
Q 1516 3069 1770 3241 
Q 2025 3413 2363 3413 
Q 2913 3413 3172 3097 
Q 3431 2781 3431 2113 
L 3431 331 
L 3944 331 
L 3944 0 
L 2356 0 
L 2356 331 
L 2853 331 
L 2853 1931 
Q 2853 2541 2703 2767 
Q 2553 2994 2175 2994 
Q 1775 2994 1565 2701 
Q 1356 2409 1356 1850 
L 1356 331 
L 1856 331 
L 1856 0 
L 263 0 
z
" transform="scale(0.015625)"/>
      <path id="DejaVuSerif-69" d="M 622 4353 
Q 622 4497 726 4603 
Q 831 4709 978 4709 
Q 1122 4709 1226 4603 
Q 1331 4497 1331 4353 
Q 1331 4206 1228 4103 
Q 1125 4000 978 4000 
Q 831 4000 726 4103 
Q 622 4206 622 4353 
z
M 1356 331 
L 1900 331 
L 1900 0 
L 231 0 
L 231 331 
L 781 331 
L 781 2988 
L 231 2988 
L 231 3322 
L 1356 3322 
L 1356 331 
z
" transform="scale(0.015625)"/>
      <path id="DejaVuSerif-74" d="M 691 2988 
L 184 2988 
L 184 3322 
L 691 3322 
L 691 4353 
L 1269 4353 
L 1269 3322 
L 2350 3322 
L 2350 2988 
L 1269 2988 
L 1269 878 
Q 1269 456 1350 337 
Q 1431 219 1650 219 
Q 1875 219 1978 351 
Q 2081 484 2088 781 
L 2522 781 
Q 2497 328 2275 118 
Q 2053 -91 1600 -91 
Q 1103 -91 897 129 
Q 691 350 691 878 
L 691 2988 
z
" transform="scale(0.015625)"/>
      <path id="DejaVuSerif-65" d="M 3469 1600 
L 991 1600 
L 991 1575 
Q 991 903 1244 561 
Q 1497 219 1991 219 
Q 2369 219 2611 417 
Q 2853 616 2950 1006 
L 3413 1006 
Q 3275 459 2904 184 
Q 2534 -91 1931 -91 
Q 1203 -91 761 389 
Q 319 869 319 1663 
Q 319 2450 753 2931 
Q 1188 3413 1894 3413 
Q 2647 3413 3050 2948 
Q 3453 2484 3469 1600 
z
M 2791 1931 
Q 2772 2513 2545 2808 
Q 2319 3103 1894 3103 
Q 1497 3103 1269 2806 
Q 1041 2509 991 1931 
L 2791 1931 
z
" transform="scale(0.015625)"/>
      <path id="DejaVuSerif-64" d="M 3359 331 
L 3909 331 
L 3909 0 
L 2784 0 
L 2784 519 
Q 2616 206 2355 57 
Q 2094 -91 1709 -91 
Q 1097 -91 708 395 
Q 319 881 319 1663 
Q 319 2444 706 2928 
Q 1094 3413 1709 3413 
Q 2094 3413 2355 3264 
Q 2616 3116 2784 2803 
L 2784 4531 
L 2241 4531 
L 2241 4863 
L 3359 4863 
L 3359 331 
z
M 2784 1497 
L 2784 1825 
Q 2784 2422 2554 2737 
Q 2325 3053 1888 3053 
Q 1444 3053 1217 2703 
Q 991 2353 991 1663 
Q 991 975 1217 622 
Q 1444 269 1888 269 
Q 2325 269 2554 583 
Q 2784 897 2784 1497 
z
" transform="scale(0.015625)"/>
      <path id="DejaVuSerif-20" transform="scale(0.015625)"/>
      <path id="DejaVuSerif-53" d="M 594 225 
L 594 1288 
L 953 1284 
Q 969 753 1261 498 
Q 1553 244 2150 244 
Q 2706 244 2998 464 
Q 3291 684 3291 1106 
Q 3291 1444 3114 1625 
Q 2938 1806 2369 1978 
L 1753 2163 
Q 1084 2366 811 2669 
Q 538 2972 538 3500 
Q 538 4094 959 4422 
Q 1381 4750 2144 4750 
Q 2469 4750 2856 4679 
Q 3244 4609 3681 4475 
L 3681 3481 
L 3328 3481 
Q 3275 3975 2998 4195 
Q 2722 4416 2156 4416 
Q 1663 4416 1405 4214 
Q 1147 4013 1147 3628 
Q 1147 3294 1340 3103 
Q 1534 2913 2163 2725 
L 2741 2553 
Q 3375 2363 3645 2067 
Q 3916 1772 3916 1275 
Q 3916 597 3481 253 
Q 3047 -91 2188 -91 
Q 1803 -91 1404 -12 
Q 1006 66 594 225 
z
" transform="scale(0.015625)"/>
      <path id="DejaVuSerif-61" d="M 2547 1044 
L 2547 1747 
L 1806 1747 
Q 1378 1747 1168 1562 
Q 959 1378 959 997 
Q 959 650 1171 447 
Q 1384 244 1747 244 
Q 2106 244 2326 466 
Q 2547 688 2547 1044 
z
M 3122 2075 
L 3122 331 
L 3634 331 
L 3634 0 
L 2547 0 
L 2547 359 
Q 2356 128 2106 18 
Q 1856 -91 1522 -91 
Q 969 -91 644 203 
Q 319 497 319 997 
Q 319 1513 691 1797 
Q 1063 2081 1741 2081 
L 2547 2081 
L 2547 2309 
Q 2547 2688 2317 2895 
Q 2088 3103 1672 3103 
Q 1328 3103 1125 2947 
Q 922 2791 872 2484 
L 575 2484 
L 575 3156 
Q 875 3284 1158 3348 
Q 1441 3413 1709 3413 
Q 2400 3413 2761 3070 
Q 3122 2728 3122 2075 
z
" transform="scale(0.015625)"/>
      <path id="DejaVuSerif-73" d="M 359 184 
L 359 959 
L 691 959 
Q 703 588 923 403 
Q 1144 219 1575 219 
Q 1963 219 2166 364 
Q 2369 509 2369 788 
Q 2369 1006 2220 1140 
Q 2072 1275 1594 1428 
L 1178 1569 
Q 750 1706 558 1912 
Q 366 2119 366 2438 
Q 366 2894 700 3153 
Q 1034 3413 1625 3413 
Q 1888 3413 2178 3344 
Q 2469 3275 2778 3144 
L 2778 2419 
L 2447 2419 
Q 2434 2741 2221 2922 
Q 2009 3103 1644 3103 
Q 1281 3103 1095 2975 
Q 909 2847 909 2591 
Q 909 2381 1050 2254 
Q 1191 2128 1613 1997 
L 2069 1856 
Q 2541 1709 2748 1489 
Q 2956 1269 2956 922 
Q 2956 450 2595 179 
Q 2234 -91 1600 -91 
Q 1278 -91 972 -22 
Q 666 47 359 184 
z
" transform="scale(0.015625)"/>
     </defs>
     <use xlink:href="#DejaVuSerif-55"/>
     <use xlink:href="#DejaVuSerif-6e" x="84.277344"/>
     <use xlink:href="#DejaVuSerif-69" x="148.681641"/>
     <use xlink:href="#DejaVuSerif-74" x="180.664062"/>
     <use xlink:href="#DejaVuSerif-65" x="220.849609"/>
     <use xlink:href="#DejaVuSerif-64" x="280.029297"/>
     <use xlink:href="#DejaVuSerif-20" x="344.042969"/>
     <use xlink:href="#DejaVuSerif-53" x="375.830078"/>
     <use xlink:href="#DejaVuSerif-74" x="444.335938"/>
     <use xlink:href="#DejaVuSerif-61" x="484.521484"/>
     <use xlink:href="#DejaVuSerif-74" x="544.140625"/>
     <use xlink:href="#DejaVuSerif-65" x="584.326172"/>
     <use xlink:href="#DejaVuSerif-73" x="643.505859"/>
    </g>
   </g>
   <g id="legend_1">
    <g id="patch_41">
     <path d="M 211.663906 283.430125 
L 262.868594 283.430125 
Q 264.868594 283.430125 264.868594 281.430125 
L 264.868594 223.575437 
Q 264.868594 221.575437 262.868594 221.575437 
L 211.663906 221.575437 
Q 209.663906 221.575437 209.663906 223.575437 
L 209.663906 281.430125 
Q 209.663906 283.430125 211.663906 283.430125 
z
" style="fill: #ffffff; opacity: 0.8; stroke: #cccccc; stroke-linejoin: miter"/>
    </g>
    <g id="line2d_28">
     <path d="M 213.663906 229.673875 
L 223.663906 229.673875 
L 233.663906 229.673875 
" style="fill: none; stroke: #1f77b4; stroke-width: 1.5; stroke-linecap: square"/>
    </g>
    <g id="text_15">
     <!-- m3 -->
     <g transform="translate(241.663906 233.173875) scale(0.1 -0.1)">
      <defs>
       <path id="DejaVuSerif-6d" d="M 3316 2675 
Q 3481 3041 3739 3227 
Q 3997 3413 4341 3413 
Q 4863 3413 5119 3089 
Q 5375 2766 5375 2113 
L 5375 331 
L 5894 331 
L 5894 0 
L 4300 0 
L 4300 331 
L 4800 331 
L 4800 2047 
Q 4800 2556 4650 2772 
Q 4500 2988 4153 2988 
Q 3769 2988 3567 2697 
Q 3366 2406 3366 1850 
L 3366 331 
L 3866 331 
L 3866 0 
L 2291 0 
L 2291 331 
L 2791 331 
L 2791 2069 
Q 2791 2566 2641 2777 
Q 2491 2988 2144 2988 
Q 1759 2988 1557 2697 
Q 1356 2406 1356 1850 
L 1356 331 
L 1856 331 
L 1856 0 
L 263 0 
L 263 331 
L 781 331 
L 781 2994 
L 231 2994 
L 231 3322 
L 1356 3322 
L 1356 2731 
Q 1516 3063 1762 3238 
Q 2009 3413 2322 3413 
Q 2709 3413 2968 3220 
Q 3228 3028 3316 2675 
z
" transform="scale(0.015625)"/>
       <path id="DejaVuSerif-33" d="M 622 4469 
Q 988 4606 1323 4678 
Q 1659 4750 1953 4750 
Q 2638 4750 3022 4454 
Q 3406 4159 3406 3634 
Q 3406 3213 3140 2930 
Q 2875 2647 2388 2547 
Q 2963 2466 3280 2130 
Q 3597 1794 3597 1259 
Q 3597 606 3158 257 
Q 2719 -91 1894 -91 
Q 1528 -91 1179 -12 
Q 831 66 488 225 
L 488 1131 
L 838 1131 
Q 869 681 1141 450 
Q 1413 219 1906 219 
Q 2384 219 2661 495 
Q 2938 772 2938 1253 
Q 2938 1803 2653 2086 
Q 2369 2369 1819 2369 
L 1522 2369 
L 1522 2688 
L 1678 2688 
Q 2225 2688 2498 2914 
Q 2772 3141 2772 3597 
Q 2772 4006 2547 4223 
Q 2322 4441 1900 4441 
Q 1478 4441 1245 4241 
Q 1013 4041 972 3647 
L 622 3647 
L 622 4469 
z
" transform="scale(0.015625)"/>
      </defs>
      <use xlink:href="#DejaVuSerif-6d"/>
      <use xlink:href="#DejaVuSerif-33" x="94.824219"/>
     </g>
    </g>
    <g id="line2d_29">
     <path d="M 213.663906 244.352 
L 223.663906 244.352 
L 233.663906 244.352 
" style="fill: none; stroke: #ff7f0e; stroke-width: 1.5; stroke-linecap: square"/>
    </g>
    <g id="text_16">
     <!-- gdp -->
     <g transform="translate(241.663906 247.852) scale(0.1 -0.1)">
      <defs>
       <path id="DejaVuSerif-70" d="M 1313 1825 
L 1313 1497 
Q 1313 897 1542 583 
Q 1772 269 2209 269 
Q 2650 269 2876 622 
Q 3103 975 3103 1663 
Q 3103 2353 2876 2703 
Q 2650 3053 2209 3053 
Q 1772 3053 1542 2737 
Q 1313 2422 1313 1825 
z
M 738 2988 
L 184 2988 
L 184 3322 
L 1313 3322 
L 1313 2803 
Q 1481 3116 1742 3264 
Q 2003 3413 2388 3413 
Q 3000 3413 3387 2928 
Q 3775 2444 3775 1663 
Q 3775 881 3387 395 
Q 3000 -91 2388 -91 
Q 2003 -91 1742 57 
Q 1481 206 1313 519 
L 1313 -997 
L 1856 -997 
L 1856 -1331 
L 184 -1331 
L 184 -997 
L 738 -997 
L 738 2988 
z
" transform="scale(0.015625)"/>
      </defs>
      <use xlink:href="#DejaVuSerif-67"/>
      <use xlink:href="#DejaVuSerif-64" x="64.013672"/>
      <use xlink:href="#DejaVuSerif-70" x="128.027344"/>
     </g>
    </g>
    <g id="line2d_30">
     <path d="M 213.663906 259.172312 
L 223.663906 259.172312 
L 233.663906 259.172312 
" style="fill: none; stroke: #2ca02c; stroke-width: 1.5; stroke-linecap: square"/>
    </g>
    <g id="text_17">
     <!-- v -->
     <g transform="translate(241.663906 262.672312) scale(0.1 -0.1)">
      <defs>
       <path id="DejaVuSerif-76" d="M 1581 0 
L 359 2988 
L -19 2988 
L -19 3322 
L 1509 3322 
L 1509 2988 
L 978 2988 
L 1913 703 
L 2847 2988 
L 2350 2988 
L 2350 3322 
L 3597 3322 
L 3597 2988 
L 3225 2988 
L 2003 0 
L 1581 0 
z
" transform="scale(0.015625)"/>
      </defs>
      <use xlink:href="#DejaVuSerif-76"/>
     </g>
    </g>
    <g id="line2d_31">
     <path d="M 213.663906 273.850437 
L 223.663906 273.850437 
L 233.663906 273.850437 
" style="fill: none; stroke: #d62728; stroke-width: 1.5; stroke-linecap: square"/>
    </g>
    <g id="text_18">
     <!-- cpi -->
     <g transform="translate(241.663906 277.350437) scale(0.1 -0.1)">
      <defs>
       <path id="DejaVuSerif-63" d="M 3291 997 
Q 3169 466 2822 187 
Q 2475 -91 1925 -91 
Q 1200 -91 759 389 
Q 319 869 319 1663 
Q 319 2459 759 2936 
Q 1200 3413 1925 3413 
Q 2241 3413 2553 3339 
Q 2866 3266 3181 3116 
L 3181 2266 
L 2847 2266 
Q 2781 2703 2561 2903 
Q 2341 3103 1931 3103 
Q 1466 3103 1228 2742 
Q 991 2381 991 1663 
Q 991 944 1227 581 
Q 1463 219 1931 219 
Q 2303 219 2525 412 
Q 2747 606 2828 997 
L 3291 997 
z
" transform="scale(0.015625)"/>
      </defs>
      <use xlink:href="#DejaVuSerif-63"/>
      <use xlink:href="#DejaVuSerif-70" x="56.005859"/>
      <use xlink:href="#DejaVuSerif-69" x="120.019531"/>
     </g>
    </g>
   </g>
  </g>
 </g>
 <defs>
  <clipPath id="pd2ee78cba0">
   <rect x="58.70625" y="22.318125" width="357.12" height="266.112"/>
  </clipPath>
 </defs>
</svg>
