<?xml version="1.0" encoding="utf-8" standalone="no"?>
<!DOCTYPE svg PUBLIC "-//W3C//DTD SVG 1.1//EN"
  "http://www.w3.org/Graphics/SVG/1.1/DTD/svg11.dtd">
<svg xmlns:xlink="http://www.w3.org/1999/xlink" width="442.131521pt" height="312.30825pt" viewBox="0 0 442.131521 312.30825" xmlns="http://www.w3.org/2000/svg" version="1.1">
 <metadata>
  <rdf:RDF xmlns:dc="http://purl.org/dc/elements/1.1/" xmlns:cc="http://creativecommons.org/ns#" xmlns:rdf="http://www.w3.org/1999/02/22-rdf-syntax-ns#">
   <cc:Work>
    <dc:type rdf:resource="http://purl.org/dc/dcmitype/StillImage"/>
    <dc:date>2024-11-06T21:53:01.346533</dc:date>
    <dc:format>image/svg+xml</dc:format>
    <dc:creator>
     <cc:Agent>
      <dc:title>Matplotlib v3.9.0, https://matplotlib.org/</dc:title>
     </cc:Agent>
    </dc:creator>
   </cc:Work>
  </rdf:RDF>
 </metadata>
 <defs>
  <style type="text/css">*{stroke-linejoin: round; stroke-linecap: butt}</style>
 </defs>
 <g id="figure_1">
  <g id="patch_1">
   <path d="M 0 312.30825 
L 442.131521 312.30825 
L 442.131521 0 
L 0 0 
z
" style="fill: #ffffff"/>
  </g>
  <g id="axes_1">
   <g id="patch_2">
    <path d="M 68.246875 288.430125 
L 425.366875 288.430125 
L 425.366875 22.318125 
L 68.246875 22.318125 
z
" style="fill: #ffffff"/>
   </g>
   <g id="patch_3">
    <path d="M -1685.749585 288.430125 
L -1666.787461 288.430125 
L -1666.787461 22.318125 
L -1685.749585 22.318125 
z
" clip-path="url(#p296153cd34)" style="fill: #d3d3d3"/>
   </g>
   <g id="patch_4">
    <path d="M -1644.664983 288.430125 
L -1632.023567 288.430125 
L -1632.023567 22.318125 
L -1644.664983 22.318125 
z
" clip-path="url(#p296153cd34)" style="fill: #d3d3d3"/>
   </g>
   <g id="patch_5">
    <path d="M -1587.778612 288.430125 
L -1562.49578 288.430125 
L -1562.49578 22.318125 
L -1587.778612 22.318125 
z
" clip-path="url(#p296153cd34)" style="fill: #d3d3d3"/>
   </g>
   <g id="patch_6">
    <path d="M -1534.052594 288.430125 
L -1515.09047 288.430125 
L -1515.09047 22.318125 
L -1534.052594 22.318125 
z
" clip-path="url(#p296153cd34)" style="fill: #d3d3d3"/>
   </g>
   <g id="patch_7">
    <path d="M -1480.326576 288.430125 
L -1410.798789 288.430125 
L -1410.798789 22.318125 
L -1480.326576 22.318125 
z
" clip-path="url(#p296153cd34)" style="fill: #d3d3d3"/>
   </g>
   <g id="patch_8">
    <path d="M -1372.874541 288.430125 
L -1331.789939 288.430125 
L -1331.789939 22.318125 
L -1372.874541 22.318125 
z
" clip-path="url(#p296153cd34)" style="fill: #d3d3d3"/>
   </g>
   <g id="patch_9">
    <path d="M -1306.507107 288.430125 
L -1297.026045 288.430125 
L -1297.026045 22.318125 
L -1306.507107 22.318125 
z
" clip-path="url(#p296153cd34)" style="fill: #d3d3d3"/>
   </g>
   <g id="patch_10">
    <path d="M -1265.422506 288.430125 
L -1255.941444 288.430125 
L -1255.941444 22.318125 
L -1265.422506 22.318125 
z
" clip-path="url(#p296153cd34)" style="fill: #d3d3d3"/>
   </g>
   <g id="patch_11">
    <path d="M -1233.818966 288.430125 
L -1218.017196 288.430125 
L -1218.017196 22.318125 
L -1233.818966 22.318125 
z
" clip-path="url(#p296153cd34)" style="fill: #d3d3d3"/>
   </g>
   <g id="patch_12">
    <path d="M -1199.055072 288.430125 
L -1180.092948 288.430125 
L -1180.092948 22.318125 
L -1199.055072 22.318125 
z
" clip-path="url(#p296153cd34)" style="fill: #d3d3d3"/>
   </g>
   <g id="patch_13">
    <path d="M -1151.649762 288.430125 
L -1135.847992 288.430125 
L -1135.847992 22.318125 
L -1151.649762 22.318125 
z
" clip-path="url(#p296153cd34)" style="fill: #d3d3d3"/>
   </g>
   <g id="patch_14">
    <path d="M -1110.56516 288.430125 
L -1088.442683 288.430125 
L -1088.442683 22.318125 
L -1110.56516 22.318125 
z
" clip-path="url(#p296153cd34)" style="fill: #d3d3d3"/>
   </g>
   <g id="patch_15">
    <path d="M -1053.678789 288.430125 
L -1041.037373 288.430125 
L -1041.037373 22.318125 
L -1053.678789 22.318125 
z
" clip-path="url(#p296153cd34)" style="fill: #d3d3d3"/>
   </g>
   <g id="patch_16">
    <path d="M -1018.914895 288.430125 
L -996.792417 288.430125 
L -996.792417 22.318125 
L -1018.914895 22.318125 
z
" clip-path="url(#p296153cd34)" style="fill: #d3d3d3"/>
   </g>
   <g id="patch_17">
    <path d="M -980.990647 288.430125 
L -958.868169 288.430125 
L -958.868169 22.318125 
L -980.990647 22.318125 
z
" clip-path="url(#p296153cd34)" style="fill: #d3d3d3"/>
   </g>
   <g id="patch_18">
    <path d="M -911.46286 288.430125 
L -905.142152 288.430125 
L -905.142152 22.318125 
L -911.46286 22.318125 
z
" clip-path="url(#p296153cd34)" style="fill: #d3d3d3"/>
   </g>
   <g id="patch_19">
    <path d="M -892.500736 288.430125 
L -873.538612 288.430125 
L -873.538612 22.318125 
L -892.500736 22.318125 
z
" clip-path="url(#p296153cd34)" style="fill: #d3d3d3"/>
   </g>
   <g id="patch_20">
    <path d="M -851.416134 288.430125 
L -835.614364 288.430125 
L -835.614364 22.318125 
L -851.416134 22.318125 
z
" clip-path="url(#p296153cd34)" style="fill: #d3d3d3"/>
   </g>
   <g id="patch_21">
    <path d="M -810.331532 288.430125 
L -794.529762 288.430125 
L -794.529762 22.318125 
L -810.331532 22.318125 
z
" clip-path="url(#p296153cd34)" style="fill: #d3d3d3"/>
   </g>
   <g id="patch_22">
    <path d="M -772.407284 288.430125 
L -728.162329 288.430125 
L -728.162329 22.318125 
L -772.407284 22.318125 
z
" clip-path="url(#p296153cd34)" style="fill: #d3d3d3"/>
   </g>
   <g id="patch_23">
    <path d="M -674.436311 288.430125 
L -661.794895 288.430125 
L -661.794895 22.318125 
L -674.436311 22.318125 
z
" clip-path="url(#p296153cd34)" style="fill: #d3d3d3"/>
   </g>
   <g id="patch_24">
    <path d="M -576.465337 288.430125 
L -566.984275 288.430125 
L -566.984275 22.318125 
L -576.465337 22.318125 
z
" clip-path="url(#p296153cd34)" style="fill: #d3d3d3"/>
   </g>
   <g id="patch_25">
    <path d="M -529.060028 288.430125 
L -516.418612 288.430125 
L -516.418612 22.318125 
L -529.060028 22.318125 
z
" clip-path="url(#p296153cd34)" style="fill: #d3d3d3"/>
   </g>
   <g id="patch_26">
    <path d="M -472.173656 288.430125 
L -459.53224 288.430125 
L -459.53224 22.318125 
L -472.173656 22.318125 
z
" clip-path="url(#p296153cd34)" style="fill: #d3d3d3"/>
   </g>
   <g id="patch_27">
    <path d="M -418.447638 288.430125 
L -408.966576 288.430125 
L -408.966576 22.318125 
L -418.447638 22.318125 
z
" clip-path="url(#p296153cd34)" style="fill: #d3d3d3"/>
   </g>
   <g id="patch_28">
    <path d="M -383.683744 288.430125 
L -374.202683 288.430125 
L -374.202683 22.318125 
L -383.683744 22.318125 
z
" clip-path="url(#p296153cd34)" style="fill: #d3d3d3"/>
   </g>
   <g id="patch_29">
    <path d="M -263.590293 288.430125 
L -250.948877 288.430125 
L -250.948877 22.318125 
L -263.590293 22.318125 
z
" clip-path="url(#p296153cd34)" style="fill: #d3d3d3"/>
   </g>
   <g id="patch_30">
    <path d="M -213.024629 288.430125 
L -197.22286 288.430125 
L -197.22286 22.318125 
L -213.024629 22.318125 
z
" clip-path="url(#p296153cd34)" style="fill: #d3d3d3"/>
   </g>
   <g id="patch_31">
    <path d="M -134.01578 288.430125 
L -127.695072 288.430125 
L -127.695072 22.318125 
L -134.01578 22.318125 
z
" clip-path="url(#p296153cd34)" style="fill: #d3d3d3"/>
   </g>
   <g id="patch_32">
    <path d="M -115.053656 288.430125 
L -99.251886 288.430125 
L -99.251886 22.318125 
L -115.053656 22.318125 
z
" clip-path="url(#p296153cd34)" style="fill: #d3d3d3"/>
   </g>
   <g id="patch_33">
    <path d="M -1.280913 288.430125 
L 5.039795 288.430125 
L 5.039795 22.318125 
L -1.280913 22.318125 
z
" clip-path="url(#p296153cd34)" style="fill: #d3d3d3"/>
   </g>
   <g id="patch_34">
    <path d="M 131.453955 288.430125 
L 140.935017 288.430125 
L 140.935017 22.318125 
L 131.453955 22.318125 
z
" clip-path="url(#p296153cd34)" style="fill: #d3d3d3"/>
   </g>
   <g id="patch_35">
    <path d="M 216.783512 288.430125 
L 235.745636 288.430125 
L 235.745636 22.318125 
L 216.783512 22.318125 
z
" clip-path="url(#p296153cd34)" style="fill: #d3d3d3"/>
   </g>
   <g id="patch_36">
    <path d="M 368.480503 288.430125 
L 374.801211 288.430125 
L 374.801211 22.318125 
L 368.480503 22.318125 
z
" clip-path="url(#p296153cd34)" style="fill: #d3d3d3"/>
   </g>
   <g id="matplotlib.axis_1">
    <g id="xtick_1">
     <g id="line2d_1">
      <defs>
       <path id="mfa81703ff1" d="M 0 0 
L 0 3.5 
" style="stroke: #000000; stroke-width: 0.8"/>
      </defs>
      <g>
       <use xlink:href="#mfa81703ff1" x="106.171123" y="288.430125" style="stroke: #000000; stroke-width: 0.8"/>
      </g>
     </g>
     <g id="text_1">
      <!-- 1999 -->
      <g transform="translate(93.446123 303.028562) scale(0.1 -0.1)">
       <defs>
        <path id="DejaVuSerif-31" d="M 909 0 
L 909 331 
L 1722 331 
L 1722 4213 
L 781 3603 
L 781 4013 
L 1919 4750 
L 2350 4750 
L 2350 331 
L 3163 331 
L 3163 0 
L 909 0 
z
" transform="scale(0.015625)"/>
        <path id="DejaVuSerif-39" d="M 2994 2091 
Q 2784 1856 2512 1740 
Q 2241 1625 1900 1625 
Q 1206 1625 804 2044 
Q 403 2463 403 3188 
Q 403 3897 839 4323 
Q 1275 4750 2003 4750 
Q 2794 4750 3217 4161 
Q 3641 3572 3641 2478 
Q 3641 1253 3137 581 
Q 2634 -91 1722 -91 
Q 1475 -91 1203 -44 
Q 931 3 647 97 
L 647 872 
L 997 872 
Q 1038 556 1241 387 
Q 1444 219 1784 219 
Q 2391 219 2687 676 
Q 2984 1134 2994 2091 
z
M 1978 4441 
Q 1534 4441 1298 4117 
Q 1063 3794 1063 3188 
Q 1063 2581 1298 2256 
Q 1534 1931 1978 1931 
Q 2422 1931 2658 2245 
Q 2894 2559 2894 3150 
Q 2894 3772 2656 4106 
Q 2419 4441 1978 4441 
z
" transform="scale(0.015625)"/>
       </defs>
       <use xlink:href="#DejaVuSerif-31"/>
       <use xlink:href="#DejaVuSerif-39" x="63.623047"/>
       <use xlink:href="#DejaVuSerif-39" x="127.246094"/>
       <use xlink:href="#DejaVuSerif-39" x="190.869141"/>
      </g>
     </g>
    </g>
    <g id="xtick_2">
     <g id="line2d_2">
      <g>
       <use xlink:href="#mfa81703ff1" x="169.378202" y="288.430125" style="stroke: #000000; stroke-width: 0.8"/>
      </g>
     </g>
     <g id="text_2">
      <!-- 2004 -->
      <g transform="translate(156.653202 303.028562) scale(0.1 -0.1)">
       <defs>
        <path id="DejaVuSerif-32" d="M 819 3553 
L 469 3553 
L 469 4384 
Q 803 4563 1142 4656 
Q 1481 4750 1806 4750 
Q 2534 4750 2956 4397 
Q 3378 4044 3378 3438 
Q 3378 2753 2422 1800 
Q 2347 1728 2309 1691 
L 1131 513 
L 3078 513 
L 3078 1088 
L 3444 1088 
L 3444 0 
L 434 0 
L 434 341 
L 1850 1753 
Q 2319 2222 2519 2614 
Q 2719 3006 2719 3438 
Q 2719 3909 2473 4175 
Q 2228 4441 1797 4441 
Q 1350 4441 1106 4219 
Q 863 3997 819 3553 
z
" transform="scale(0.015625)"/>
        <path id="DejaVuSerif-30" d="M 2034 219 
Q 2513 219 2750 744 
Q 2988 1269 2988 2328 
Q 2988 3391 2750 3916 
Q 2513 4441 2034 4441 
Q 1556 4441 1318 3916 
Q 1081 3391 1081 2328 
Q 1081 1269 1318 744 
Q 1556 219 2034 219 
z
M 2034 -91 
Q 1275 -91 848 546 
Q 422 1184 422 2328 
Q 422 3475 848 4112 
Q 1275 4750 2034 4750 
Q 2797 4750 3222 4112 
Q 3647 3475 3647 2328 
Q 3647 1184 3222 546 
Q 2797 -91 2034 -91 
z
" transform="scale(0.015625)"/>
        <path id="DejaVuSerif-34" d="M 2234 1581 
L 2234 4063 
L 641 1581 
L 2234 1581 
z
M 3609 0 
L 1484 0 
L 1484 331 
L 2234 331 
L 2234 1247 
L 197 1247 
L 197 1588 
L 2241 4750 
L 2859 4750 
L 2859 1581 
L 3750 1581 
L 3750 1247 
L 2859 1247 
L 2859 331 
L 3609 331 
L 3609 0 
z
" transform="scale(0.015625)"/>
       </defs>
       <use xlink:href="#DejaVuSerif-32"/>
       <use xlink:href="#DejaVuSerif-30" x="63.623047"/>
       <use xlink:href="#DejaVuSerif-30" x="127.246094"/>
       <use xlink:href="#DejaVuSerif-34" x="190.869141"/>
      </g>
     </g>
    </g>
    <g id="xtick_3">
     <g id="line2d_3">
      <g>
       <use xlink:href="#mfa81703ff1" x="232.585282" y="288.430125" style="stroke: #000000; stroke-width: 0.8"/>
      </g>
     </g>
     <g id="text_3">
      <!-- 2009 -->
      <g transform="translate(219.860282 303.028562) scale(0.1 -0.1)">
       <use xlink:href="#DejaVuSerif-32"/>
       <use xlink:href="#DejaVuSerif-30" x="63.623047"/>
       <use xlink:href="#DejaVuSerif-30" x="127.246094"/>
       <use xlink:href="#DejaVuSerif-39" x="190.869141"/>
      </g>
     </g>
    </g>
    <g id="xtick_4">
     <g id="line2d_4">
      <g>
       <use xlink:href="#mfa81703ff1" x="295.792362" y="288.430125" style="stroke: #000000; stroke-width: 0.8"/>
      </g>
     </g>
     <g id="text_4">
      <!-- 2014 -->
      <g transform="translate(283.067362 303.028562) scale(0.1 -0.1)">
       <use xlink:href="#DejaVuSerif-32"/>
       <use xlink:href="#DejaVuSerif-30" x="63.623047"/>
       <use xlink:href="#DejaVuSerif-31" x="127.246094"/>
       <use xlink:href="#DejaVuSerif-34" x="190.869141"/>
      </g>
     </g>
    </g>
    <g id="xtick_5">
     <g id="line2d_5">
      <g>
       <use xlink:href="#mfa81703ff1" x="358.999441" y="288.430125" style="stroke: #000000; stroke-width: 0.8"/>
      </g>
     </g>
     <g id="text_5">
      <!-- 2019 -->
      <g transform="translate(346.274441 303.028562) scale(0.1 -0.1)">
       <use xlink:href="#DejaVuSerif-32"/>
       <use xlink:href="#DejaVuSerif-30" x="63.623047"/>
       <use xlink:href="#DejaVuSerif-31" x="127.246094"/>
       <use xlink:href="#DejaVuSerif-39" x="190.869141"/>
      </g>
     </g>
    </g>
    <g id="xtick_6">
     <g id="line2d_6">
      <g>
       <use xlink:href="#mfa81703ff1" x="422.206521" y="288.430125" style="stroke: #000000; stroke-width: 0.8"/>
      </g>
     </g>
     <g id="text_6">
      <!-- 2024 -->
      <g transform="translate(409.481521 303.028562) scale(0.1 -0.1)">
       <use xlink:href="#DejaVuSerif-32"/>
       <use xlink:href="#DejaVuSerif-30" x="63.623047"/>
       <use xlink:href="#DejaVuSerif-32" x="127.246094"/>
       <use xlink:href="#DejaVuSerif-34" x="190.869141"/>
      </g>
     </g>
    </g>
    <g id="xtick_7">
     <g id="line2d_7">
      <defs>
       <path id="ma6949fae59" d="M 0 0 
L 0 2 
" style="stroke: #000000; stroke-width: 0.6"/>
      </defs>
      <g>
       <use xlink:href="#ma6949fae59" x="68.246875" y="288.430125" style="stroke: #000000; stroke-width: 0.6"/>
      </g>
     </g>
    </g>
    <g id="xtick_8">
     <g id="line2d_8">
      <g>
       <use xlink:href="#ma6949fae59" x="80.888291" y="288.430125" style="stroke: #000000; stroke-width: 0.6"/>
      </g>
     </g>
    </g>
    <g id="xtick_9">
     <g id="line2d_9">
      <g>
       <use xlink:href="#ma6949fae59" x="93.529707" y="288.430125" style="stroke: #000000; stroke-width: 0.6"/>
      </g>
     </g>
    </g>
    <g id="xtick_10">
     <g id="line2d_10">
      <g>
       <use xlink:href="#ma6949fae59" x="118.812539" y="288.430125" style="stroke: #000000; stroke-width: 0.6"/>
      </g>
     </g>
    </g>
    <g id="xtick_11">
     <g id="line2d_11">
      <g>
       <use xlink:href="#ma6949fae59" x="131.453955" y="288.430125" style="stroke: #000000; stroke-width: 0.6"/>
      </g>
     </g>
    </g>
    <g id="xtick_12">
     <g id="line2d_12">
      <g>
       <use xlink:href="#ma6949fae59" x="144.095371" y="288.430125" style="stroke: #000000; stroke-width: 0.6"/>
      </g>
     </g>
    </g>
    <g id="xtick_13">
     <g id="line2d_13">
      <g>
       <use xlink:href="#ma6949fae59" x="156.736787" y="288.430125" style="stroke: #000000; stroke-width: 0.6"/>
      </g>
     </g>
    </g>
    <g id="xtick_14">
     <g id="line2d_14">
      <g>
       <use xlink:href="#ma6949fae59" x="182.019618" y="288.430125" style="stroke: #000000; stroke-width: 0.6"/>
      </g>
     </g>
    </g>
    <g id="xtick_15">
     <g id="line2d_15">
      <g>
       <use xlink:href="#ma6949fae59" x="194.661034" y="288.430125" style="stroke: #000000; stroke-width: 0.6"/>
      </g>
     </g>
    </g>
    <g id="xtick_16">
     <g id="line2d_16">
      <g>
       <use xlink:href="#ma6949fae59" x="207.30245" y="288.430125" style="stroke: #000000; stroke-width: 0.6"/>
      </g>
     </g>
    </g>
    <g id="xtick_17">
     <g id="line2d_17">
      <g>
       <use xlink:href="#ma6949fae59" x="219.943866" y="288.430125" style="stroke: #000000; stroke-width: 0.6"/>
      </g>
     </g>
    </g>
    <g id="xtick_18">
     <g id="line2d_18">
      <g>
       <use xlink:href="#ma6949fae59" x="245.226698" y="288.430125" style="stroke: #000000; stroke-width: 0.6"/>
      </g>
     </g>
    </g>
    <g id="xtick_19">
     <g id="line2d_19">
      <g>
       <use xlink:href="#ma6949fae59" x="257.868114" y="288.430125" style="stroke: #000000; stroke-width: 0.6"/>
      </g>
     </g>
    </g>
    <g id="xtick_20">
     <g id="line2d_20">
      <g>
       <use xlink:href="#ma6949fae59" x="270.50953" y="288.430125" style="stroke: #000000; stroke-width: 0.6"/>
      </g>
     </g>
    </g>
    <g id="xtick_21">
     <g id="line2d_21">
      <g>
       <use xlink:href="#ma6949fae59" x="283.150946" y="288.430125" style="stroke: #000000; stroke-width: 0.6"/>
      </g>
     </g>
    </g>
    <g id="xtick_22">
     <g id="line2d_22">
      <g>
       <use xlink:href="#ma6949fae59" x="308.433778" y="288.430125" style="stroke: #000000; stroke-width: 0.6"/>
      </g>
     </g>
    </g>
    <g id="xtick_23">
     <g id="line2d_23">
      <g>
       <use xlink:href="#ma6949fae59" x="321.075194" y="288.430125" style="stroke: #000000; stroke-width: 0.6"/>
      </g>
     </g>
    </g>
    <g id="xtick_24">
     <g id="line2d_24">
      <g>
       <use xlink:href="#ma6949fae59" x="333.71661" y="288.430125" style="stroke: #000000; stroke-width: 0.6"/>
      </g>
     </g>
    </g>
    <g id="xtick_25">
     <g id="line2d_25">
      <g>
       <use xlink:href="#ma6949fae59" x="346.358025" y="288.430125" style="stroke: #000000; stroke-width: 0.6"/>
      </g>
     </g>
    </g>
    <g id="xtick_26">
     <g id="line2d_26">
      <g>
       <use xlink:href="#ma6949fae59" x="371.640857" y="288.430125" style="stroke: #000000; stroke-width: 0.6"/>
      </g>
     </g>
    </g>
    <g id="xtick_27">
     <g id="line2d_27">
      <g>
       <use xlink:href="#ma6949fae59" x="384.282273" y="288.430125" style="stroke: #000000; stroke-width: 0.6"/>
      </g>
     </g>
    </g>
    <g id="xtick_28">
     <g id="line2d_28">
      <g>
       <use xlink:href="#ma6949fae59" x="396.923689" y="288.430125" style="stroke: #000000; stroke-width: 0.6"/>
      </g>
     </g>
    </g>
    <g id="xtick_29">
     <g id="line2d_29">
      <g>
       <use xlink:href="#ma6949fae59" x="409.565105" y="288.430125" style="stroke: #000000; stroke-width: 0.6"/>
      </g>
     </g>
    </g>
   </g>
   <g id="matplotlib.axis_2">
    <g id="ytick_1">
     <g id="line2d_30">
      <path d="M 68.246875 275.409815 
L 425.366875 275.409815 
" clip-path="url(#p296153cd34)" style="fill: none; stroke-dasharray: 2.96,1.28; stroke-dashoffset: 0; stroke: #b0b0b0; stroke-width: 0.8"/>
     </g>
     <g id="line2d_31">
      <defs>
       <path id="m015e5e2cf2" d="M 0 0 
L -3.5 0 
" style="stroke: #000000; stroke-width: 0.8"/>
      </defs>
      <g>
       <use xlink:href="#m015e5e2cf2" x="68.246875" y="275.409815" style="stroke: #000000; stroke-width: 0.8"/>
      </g>
     </g>
     <g id="text_7">
      <!-- −20.0% -->
      <g transform="translate(21.1 279.209034) scale(0.1 -0.1)">
       <defs>
        <path id="DejaVuSerif-2212" d="M 678 2259 
L 4684 2259 
L 4684 1753 
L 678 1753 
L 678 2259 
z
" transform="scale(0.015625)"/>
        <path id="DejaVuSerif-2e" d="M 603 325 
Q 603 500 722 622 
Q 841 744 1019 744 
Q 1191 744 1312 622 
Q 1434 500 1434 325 
Q 1434 153 1312 31 
Q 1191 -91 1019 -91 
Q 841 -91 722 29 
Q 603 150 603 325 
z
" transform="scale(0.015625)"/>
        <path id="DejaVuSerif-25" d="M 1434 4459 
Q 1159 4459 1004 4200 
Q 850 3941 850 3475 
Q 850 3016 1008 2753 
Q 1166 2491 1434 2491 
Q 1700 2491 1854 2752 
Q 2009 3013 2009 3475 
Q 2009 3938 1854 4198 
Q 1700 4459 1434 4459 
z
M 4653 2169 
Q 4381 2169 4226 1906 
Q 4072 1644 4072 1178 
Q 4072 719 4228 458 
Q 4384 197 4653 197 
Q 4922 197 5075 458 
Q 5228 719 5228 1178 
Q 5228 1641 5073 1905 
Q 4919 2169 4653 2169 
z
M 4653 2450 
Q 5147 2450 5437 2106 
Q 5728 1763 5728 1178 
Q 5728 594 5436 251 
Q 5144 -91 4653 -91 
Q 4153 -91 3862 251 
Q 3572 594 3572 1178 
Q 3572 1766 3864 2108 
Q 4156 2450 4653 2450 
z
M 4263 4750 
L 4738 4750 
L 1819 -91 
L 1344 -91 
L 4263 4750 
z
M 1428 4750 
Q 1922 4750 2215 4408 
Q 2509 4066 2509 3481 
Q 2509 2891 2217 2550 
Q 1925 2209 1428 2209 
Q 931 2209 642 2551 
Q 353 2894 353 3481 
Q 353 4063 643 4406 
Q 934 4750 1428 4750 
z
" transform="scale(0.015625)"/>
       </defs>
       <use xlink:href="#DejaVuSerif-2212"/>
       <use xlink:href="#DejaVuSerif-32" x="83.789062"/>
       <use xlink:href="#DejaVuSerif-30" x="147.412109"/>
       <use xlink:href="#DejaVuSerif-2e" x="211.035156"/>
       <use xlink:href="#DejaVuSerif-30" x="242.822266"/>
       <use xlink:href="#DejaVuSerif-25" x="306.445312"/>
      </g>
     </g>
    </g>
    <g id="ytick_2">
     <g id="line2d_32">
      <path d="M 68.246875 241.050238 
L 425.366875 241.050238 
" clip-path="url(#p296153cd34)" style="fill: none; stroke-dasharray: 2.96,1.28; stroke-dashoffset: 0; stroke: #b0b0b0; stroke-width: 0.8"/>
     </g>
     <g id="line2d_33">
      <g>
       <use xlink:href="#m015e5e2cf2" x="68.246875" y="241.050238" style="stroke: #000000; stroke-width: 0.8"/>
      </g>
     </g>
     <g id="text_8">
      <!-- −15.0% -->
      <g transform="translate(21.1 244.849457) scale(0.1 -0.1)">
       <defs>
        <path id="DejaVuSerif-35" d="M 3219 4666 
L 3219 4153 
L 1081 4153 
L 1081 2816 
Q 1244 2928 1461 2984 
Q 1678 3041 1947 3041 
Q 2703 3041 3140 2622 
Q 3578 2203 3578 1478 
Q 3578 738 3136 323 
Q 2694 -91 1894 -91 
Q 1572 -91 1234 -12 
Q 897 66 544 225 
L 544 1131 
L 897 1131 
Q 925 688 1179 453 
Q 1434 219 1894 219 
Q 2388 219 2653 544 
Q 2919 869 2919 1478 
Q 2919 2084 2655 2407 
Q 2391 2731 1894 2731 
Q 1613 2731 1398 2631 
Q 1184 2531 1019 2322 
L 750 2322 
L 750 4666 
L 3219 4666 
z
" transform="scale(0.015625)"/>
       </defs>
       <use xlink:href="#DejaVuSerif-2212"/>
       <use xlink:href="#DejaVuSerif-31" x="83.789062"/>
       <use xlink:href="#DejaVuSerif-35" x="147.412109"/>
       <use xlink:href="#DejaVuSerif-2e" x="211.035156"/>
       <use xlink:href="#DejaVuSerif-30" x="242.822266"/>
       <use xlink:href="#DejaVuSerif-25" x="306.445312"/>
      </g>
     </g>
    </g>
    <g id="ytick_3">
     <g id="line2d_34">
      <path d="M 68.246875 206.690661 
L 425.366875 206.690661 
" clip-path="url(#p296153cd34)" style="fill: none; stroke-dasharray: 2.96,1.28; stroke-dashoffset: 0; stroke: #b0b0b0; stroke-width: 0.8"/>
     </g>
     <g id="line2d_35">
      <g>
       <use xlink:href="#m015e5e2cf2" x="68.246875" y="206.690661" style="stroke: #000000; stroke-width: 0.8"/>
      </g>
     </g>
     <g id="text_9">
      <!-- −10.0% -->
      <g transform="translate(21.1 210.48988) scale(0.1 -0.1)">
       <use xlink:href="#DejaVuSerif-2212"/>
       <use xlink:href="#DejaVuSerif-31" x="83.789062"/>
       <use xlink:href="#DejaVuSerif-30" x="147.412109"/>
       <use xlink:href="#DejaVuSerif-2e" x="211.035156"/>
       <use xlink:href="#DejaVuSerif-30" x="242.822266"/>
       <use xlink:href="#DejaVuSerif-25" x="306.445312"/>
      </g>
     </g>
    </g>
    <g id="ytick_4">
     <g id="line2d_36">
      <path d="M 68.246875 172.331084 
L 425.366875 172.331084 
" clip-path="url(#p296153cd34)" style="fill: none; stroke-dasharray: 2.96,1.28; stroke-dashoffset: 0; stroke: #b0b0b0; stroke-width: 0.8"/>
     </g>
     <g id="line2d_37">
      <g>
       <use xlink:href="#m015e5e2cf2" x="68.246875" y="172.331084" style="stroke: #000000; stroke-width: 0.8"/>
      </g>
     </g>
     <g id="text_10">
      <!-- −5.0% -->
      <g transform="translate(27.4625 176.130303) scale(0.1 -0.1)">
       <use xlink:href="#DejaVuSerif-2212"/>
       <use xlink:href="#DejaVuSerif-35" x="83.789062"/>
       <use xlink:href="#DejaVuSerif-2e" x="147.412109"/>
       <use xlink:href="#DejaVuSerif-30" x="179.199219"/>
       <use xlink:href="#DejaVuSerif-25" x="242.822266"/>
      </g>
     </g>
    </g>
    <g id="ytick_5">
     <g id="line2d_38">
      <path d="M 68.246875 137.971507 
L 425.366875 137.971507 
" clip-path="url(#p296153cd34)" style="fill: none; stroke-dasharray: 2.96,1.28; stroke-dashoffset: 0; stroke: #b0b0b0; stroke-width: 0.8"/>
     </g>
     <g id="line2d_39">
      <g>
       <use xlink:href="#m015e5e2cf2" x="68.246875" y="137.971507" style="stroke: #000000; stroke-width: 0.8"/>
      </g>
     </g>
     <g id="text_11">
      <!-- 0.0% -->
      <g transform="translate(35.842188 141.770726) scale(0.1 -0.1)">
       <use xlink:href="#DejaVuSerif-30"/>
       <use xlink:href="#DejaVuSerif-2e" x="63.623047"/>
       <use xlink:href="#DejaVuSerif-30" x="95.410156"/>
       <use xlink:href="#DejaVuSerif-25" x="159.033203"/>
      </g>
     </g>
    </g>
    <g id="ytick_6">
     <g id="line2d_40">
      <path d="M 68.246875 103.61193 
L 425.366875 103.61193 
" clip-path="url(#p296153cd34)" style="fill: none; stroke-dasharray: 2.96,1.28; stroke-dashoffset: 0; stroke: #b0b0b0; stroke-width: 0.8"/>
     </g>
     <g id="line2d_41">
      <g>
       <use xlink:href="#m015e5e2cf2" x="68.246875" y="103.61193" style="stroke: #000000; stroke-width: 0.8"/>
      </g>
     </g>
     <g id="text_12">
      <!-- 5.0% -->
      <g transform="translate(35.842188 107.411148) scale(0.1 -0.1)">
       <use xlink:href="#DejaVuSerif-35"/>
       <use xlink:href="#DejaVuSerif-2e" x="63.623047"/>
       <use xlink:href="#DejaVuSerif-30" x="95.410156"/>
       <use xlink:href="#DejaVuSerif-25" x="159.033203"/>
      </g>
     </g>
    </g>
    <g id="ytick_7">
     <g id="line2d_42">
      <path d="M 68.246875 69.252353 
L 425.366875 69.252353 
" clip-path="url(#p296153cd34)" style="fill: none; stroke-dasharray: 2.96,1.28; stroke-dashoffset: 0; stroke: #b0b0b0; stroke-width: 0.8"/>
     </g>
     <g id="line2d_43">
      <g>
       <use xlink:href="#m015e5e2cf2" x="68.246875" y="69.252353" style="stroke: #000000; stroke-width: 0.8"/>
      </g>
     </g>
     <g id="text_13">
      <!-- 10.0% -->
      <g transform="translate(29.479688 73.051571) scale(0.1 -0.1)">
       <use xlink:href="#DejaVuSerif-31"/>
       <use xlink:href="#DejaVuSerif-30" x="63.623047"/>
       <use xlink:href="#DejaVuSerif-2e" x="127.246094"/>
       <use xlink:href="#DejaVuSerif-30" x="159.033203"/>
       <use xlink:href="#DejaVuSerif-25" x="222.65625"/>
      </g>
     </g>
    </g>
    <g id="ytick_8">
     <g id="line2d_44">
      <path d="M 68.246875 34.892775 
L 425.366875 34.892775 
" clip-path="url(#p296153cd34)" style="fill: none; stroke-dasharray: 2.96,1.28; stroke-dashoffset: 0; stroke: #b0b0b0; stroke-width: 0.8"/>
     </g>
     <g id="line2d_45">
      <g>
       <use xlink:href="#m015e5e2cf2" x="68.246875" y="34.892775" style="stroke: #000000; stroke-width: 0.8"/>
      </g>
     </g>
     <g id="text_14">
      <!-- 15.0% -->
      <g transform="translate(29.479688 38.691994) scale(0.1 -0.1)">
       <use xlink:href="#DejaVuSerif-31"/>
       <use xlink:href="#DejaVuSerif-35" x="63.623047"/>
       <use xlink:href="#DejaVuSerif-2e" x="127.246094"/>
       <use xlink:href="#DejaVuSerif-30" x="159.033203"/>
       <use xlink:href="#DejaVuSerif-25" x="222.65625"/>
      </g>
     </g>
    </g>
    <g id="text_15">
     <!-- $\Delta\log(x_i)$ -->
     <g transform="translate(14.8 174.774125) rotate(-90) scale(0.1 -0.1)">
      <defs>
       <path id="DejaVuSerif-394" d="M 4350 0 
L 244 0 
L 2034 4666 
L 2559 4666 
L 4350 0 
z
M 3506 331 
L 2138 3909 
L 763 331 
L 3506 331 
z
" transform="scale(0.015625)"/>
       <path id="DejaVuSerif-6c" d="M 1313 331 
L 1856 331 
L 1856 0 
L 184 0 
L 184 331 
L 738 331 
L 738 4531 
L 184 4531 
L 184 4863 
L 1313 4863 
L 1313 331 
z
" transform="scale(0.015625)"/>
       <path id="DejaVuSerif-6f" d="M 1925 219 
Q 2388 219 2623 584 
Q 2859 950 2859 1663 
Q 2859 2375 2623 2739 
Q 2388 3103 1925 3103 
Q 1463 3103 1227 2739 
Q 991 2375 991 1663 
Q 991 950 1228 584 
Q 1466 219 1925 219 
z
M 1925 -91 
Q 1200 -91 759 389 
Q 319 869 319 1663 
Q 319 2456 758 2934 
Q 1197 3413 1925 3413 
Q 2653 3413 3092 2934 
Q 3531 2456 3531 1663 
Q 3531 869 3092 389 
Q 2653 -91 1925 -91 
z
" transform="scale(0.015625)"/>
       <path id="DejaVuSerif-67" d="M 3359 2988 
L 3359 72 
Q 3359 -644 2965 -1033 
Q 2572 -1422 1844 -1422 
Q 1516 -1422 1216 -1362 
Q 916 -1303 641 -1184 
L 641 -488 
L 941 -488 
Q 997 -813 1206 -963 
Q 1416 -1113 1806 -1113 
Q 2313 -1113 2548 -827 
Q 2784 -541 2784 72 
L 2784 519 
Q 2616 206 2355 57 
Q 2094 -91 1709 -91 
Q 1097 -91 708 395 
Q 319 881 319 1663 
Q 319 2444 706 2928 
Q 1094 3413 1709 3413 
Q 2094 3413 2355 3264 
Q 2616 3116 2784 2803 
L 2784 3322 
L 3909 3322 
L 3909 2988 
L 3359 2988 
z
M 2784 1825 
Q 2784 2422 2554 2737 
Q 2325 3053 1888 3053 
Q 1444 3053 1217 2703 
Q 991 2353 991 1663 
Q 991 975 1217 622 
Q 1444 269 1888 269 
Q 2325 269 2554 583 
Q 2784 897 2784 1497 
L 2784 1825 
z
" transform="scale(0.015625)"/>
       <path id="DejaVuSerif-28" d="M 2041 -997 
Q 1281 -656 893 83 
Q 506 822 506 1931 
Q 506 3044 893 3783 
Q 1281 4522 2041 4863 
L 2041 4556 
Q 1559 4225 1350 3623 
Q 1141 3022 1141 1931 
Q 1141 844 1350 242 
Q 1559 -359 2041 -691 
L 2041 -997 
z
" transform="scale(0.015625)"/>
       <path id="DejaVuSerif-Italic-78" d="M 409 0 
L 19 0 
L 1484 1594 
L 747 2988 
L 338 2988 
L 400 3322 
L 1244 3322 
L 1934 2028 
L 3125 3322 
L 3516 3322 
L 2078 1759 
L 2838 331 
L 3272 331 
L 3209 0 
L 2338 0 
L 1631 1325 
L 409 0 
z
" transform="scale(0.015625)"/>
       <path id="DejaVuSerif-Italic-69" d="M 1009 4353 
Q 1038 4497 1163 4603 
Q 1288 4709 1434 4709 
Q 1578 4709 1663 4603 
Q 1728 4522 1728 4422 
Q 1728 4388 1719 4353 
Q 1691 4206 1567 4103 
Q 1444 4000 1297 4000 
Q 1150 4000 1066 4103 
Q 1003 4181 1003 4281 
Q 1003 4316 1009 4353 
z
M 963 331 
L 1506 331 
L 1444 0 
L 325 0 
L 903 2988 
L 353 2988 
L 419 3322 
L 1544 3322 
L 963 331 
z
" transform="scale(0.015625)"/>
       <path id="DejaVuSerif-29" d="M 453 -997 
L 453 -691 
Q 934 -359 1145 242 
Q 1356 844 1356 1931 
Q 1356 3022 1145 3623 
Q 934 4225 453 4556 
L 453 4863 
Q 1216 4522 1603 3783 
Q 1991 3044 1991 1931 
Q 1991 822 1603 83 
Q 1216 -656 453 -997 
z
" transform="scale(0.015625)"/>
      </defs>
      <use xlink:href="#DejaVuSerif-394" transform="translate(0 0.015625)"/>
      <use xlink:href="#DejaVuSerif-6c" transform="translate(72.216797 0.015625)"/>
      <use xlink:href="#DejaVuSerif-6f" transform="translate(104.199219 0.015625)"/>
      <use xlink:href="#DejaVuSerif-67" transform="translate(164.404297 0.015625)"/>
      <use xlink:href="#DejaVuSerif-28" transform="translate(228.417969 0.015625)"/>
      <use xlink:href="#DejaVuSerif-Italic-78" transform="translate(267.431641 0.015625)"/>
      <use xlink:href="#DejaVuSerif-Italic-69" transform="translate(323.828125 -15.55625) scale(0.7)"/>
      <use xlink:href="#DejaVuSerif-29" transform="translate(348.811133 0.015625)"/>
     </g>
    </g>
   </g>
   <g id="line2d_46">
    <path d="M 80.888291 112.842623 
L 84.048645 114.628045 
L 87.208999 106.652251 
L 90.369353 107.975962 
L 93.529707 103.964896 
L 96.690061 99.528745 
L 99.850415 103.153338 
L 103.010769 102.355591 
L 106.171123 105.567684 
L 109.331477 109.15892 
L 112.491831 105.553659 
L 115.652185 105.697501 
L 118.812539 99.107127 
L 121.972893 89.262948 
L 125.133247 102.853335 
L 128.293601 104.857274 
L 131.453955 95.16968 
L 134.614309 95.283474 
L 137.774663 81.996589 
L 140.935017 71.881192 
L 144.095371 84.923593 
L 147.255725 90.036457 
L 150.416079 92.943837 
L 153.576433 93.433233 
L 156.736787 92.003632 
L 159.89714 81.5855 
L 163.057494 82.732511 
L 166.217848 88.069318 
L 169.378202 95.909782 
L 172.538556 104.075041 
L 175.69891 100.925651 
L 178.859264 97.621676 
L 182.019618 93.856237 
L 185.179972 92.093889 
L 188.340326 83.284984 
L 191.50068 83.340512 
L 194.661034 83.913702 
L 197.821388 76.557884 
L 200.981742 87.168444 
L 204.142096 81.227635 
L 207.30245 73.135103 
L 210.462804 72.360718 
L 213.623158 60.919868 
L 216.783512 58.194919 
L 219.943866 58.37456 
L 223.10422 65.678984 
L 226.264574 73.905739 
L 229.424928 74.222939 
L 232.585282 91.528846 
L 235.745636 99.406664 
L 238.90599 114.822977 
L 242.066344 135.341318 
L 245.226698 143.391157 
L 248.387052 144.539536 
L 251.547406 151.088251 
L 254.70776 145.706207 
L 257.868114 139.223435 
L 261.028468 138.584367 
L 264.188822 125.952568 
L 267.349176 124.767797 
L 270.50953 124.371136 
L 273.669884 122.283748 
L 276.830238 115.942356 
L 279.990592 115.207778 
L 283.150946 119.963697 
L 286.3113 120.721632 
L 289.471654 129.109124 
L 292.632008 130.773554 
L 295.792362 130.610492 
L 298.952716 134.654527 
L 302.11307 125.541569 
L 305.273424 121.062396 
L 308.433778 101.077326 
L 311.594132 93.519587 
L 314.754486 94.410701 
L 317.91484 93.788248 
L 321.075194 105.135858 
L 324.235548 105.908924 
L 327.395902 103.59984 
L 330.556256 108.571115 
L 333.71661 106.37609 
L 336.876963 105.323793 
L 340.037317 109.431879 
L 343.197671 105.526024 
L 346.358025 111.147733 
L 349.518379 115.267219 
L 352.678733 110.804641 
L 355.839087 112.409844 
L 358.999441 110.100671 
L 362.159795 103.829479 
L 365.320149 102.627303 
L 368.480503 99.08305 
L 371.640857 102.604888 
L 374.801211 84.208337 
L 377.961565 75.765431 
L 381.121919 72.228807 
L 384.282273 60.270194 
L 387.442627 81.491292 
L 390.602981 84.102517 
L 393.763335 86.009331 
L 396.923689 93.589669 
L 400.084043 92.500207 
L 403.244397 98.387524 
L 406.404751 105.886708 
L 409.565105 116.352571 
L 412.725459 129.468556 
L 415.885813 141.501504 
L 419.046167 144.258489 
L 422.206521 137.268169 
L 425.366875 129.339815 
" clip-path="url(#p296153cd34)" style="fill: none; stroke: #1f77b4; stroke-width: 1.5; stroke-linecap: square"/>
   </g>
   <g id="line2d_47">
    <path d="M 80.888291 130.316939 
L 84.048645 121.521692 
L 87.208999 125.127059 
L 90.369353 116.424 
L 93.529707 107.978644 
L 96.690061 114.631659 
L 99.850415 109.707367 
L 103.010769 110.382799 
L 106.171123 106.858724 
L 109.331477 107.576514 
L 112.491831 106.290713 
L 115.652185 105.910784 
L 118.812539 98.018633 
L 121.972893 101.015699 
L 125.133247 104.498531 
L 128.293601 106.298664 
L 131.453955 89.915029 
L 134.614309 91.84806 
L 137.774663 93.682114 
L 140.935017 95.515788 
L 144.095371 120.240501 
L 147.255725 114.659067 
L 150.416079 110.779278 
L 153.576433 115.847087 
L 156.736787 116.738199 
L 159.89714 121.630752 
L 163.057494 118.732274 
L 166.217848 116.823242 
L 169.378202 110.347708 
L 172.538556 105.526467 
L 175.69891 112.205399 
L 178.859264 110.867271 
L 182.019618 117.115003 
L 185.179972 112.442735 
L 188.340326 113.582409 
L 191.50068 112.05988 
L 194.661034 101.241511 
L 197.821388 105.416413 
L 200.981742 103.834602 
L 204.142096 100.587578 
L 207.30245 96.372824 
L 210.462804 99.373711 
L 213.623158 100.442921 
L 216.783512 102.904272 
L 219.943866 111.285204 
L 223.10422 110.462297 
L 226.264574 118.497351 
L 229.424928 139.544713 
L 232.585282 162.196088 
L 235.745636 167.547077 
L 238.90599 156.467527 
L 242.066344 141.18232 
L 245.226698 125.536279 
L 248.387052 116.778275 
L 251.547406 116.026307 
L 254.70776 116.948705 
L 257.868114 107.746714 
L 261.028468 115.822831 
L 264.188822 119.468104 
L 267.349176 126.946041 
L 270.50953 131.180553 
L 273.669884 138.384704 
L 276.830238 136.824299 
L 279.990592 137.76142 
L 283.150946 141.856563 
L 286.3113 129.458051 
L 289.471654 126.345047 
L 292.632008 126.019011 
L 295.792362 117.89429 
L 298.952716 123.058507 
L 302.11307 121.146008 
L 305.273424 118.377581 
L 308.433778 114.548807 
L 311.594132 111.797069 
L 314.754486 111.246626 
L 317.91484 109.819204 
L 321.075194 118.17018 
L 324.235548 115.557386 
L 327.395902 122.29473 
L 330.556256 121.409892 
L 333.71661 112.349837 
L 336.876963 116.985708 
L 340.037317 111.684499 
L 343.197671 109.517865 
L 346.358025 114.008587 
L 349.518379 114.382843 
L 352.678733 117.730595 
L 355.839087 116.174751 
L 358.999441 114.71057 
L 362.159795 116.10139 
L 365.320149 111.705081 
L 368.480503 118.709896 
L 371.640857 143.458334 
L 374.801211 222.570955 
L 377.961565 157.990009 
L 381.121919 151.216423 
L 384.282273 127.172734 
L 387.442627 34.414125 
L 390.602981 83.341212 
L 393.763335 80.203866 
L 396.923689 71.836482 
L 400.084043 75.423406 
L 403.244397 84.307894 
L 406.404751 88.047589 
L 409.565105 80.556189 
L 412.725459 90.152948 
L 415.885813 97.230141 
L 419.046167 100.41862 
L 422.206521 111.743238 
L 425.366875 112.332036 
" clip-path="url(#p296153cd34)" style="fill: none; stroke: #ff7f0e; stroke-width: 1.5; stroke-linecap: square"/>
   </g>
   <g id="line2d_48">
    <path d="M 80.888291 155.445823 
L 84.048645 144.865154 
L 87.208999 156.446314 
L 90.369353 146.419544 
L 93.529707 141.985255 
L 96.690061 153.074421 
L 99.850415 144.525536 
L 103.010769 145.998715 
L 106.171123 139.262547 
L 109.331477 136.3891 
L 112.491831 138.708561 
L 115.652185 138.18479 
L 118.812539 136.883013 
L 121.972893 149.724258 
L 125.133247 139.616703 
L 128.293601 139.412897 
L 131.453955 132.716856 
L 134.614309 134.536093 
L 137.774663 149.657032 
L 140.935017 161.606103 
L 144.095371 173.288414 
L 147.255725 162.594117 
L 150.416079 155.806948 
L 153.576433 160.385361 
L 156.736787 162.706073 
L 159.89714 178.016758 
L 163.057494 173.97127 
L 166.217848 166.725431 
L 169.378202 152.409433 
L 172.538556 139.422933 
L 175.69891 149.251255 
L 178.859264 151.217102 
L 182.019618 161.230273 
L 185.179972 158.320353 
L 188.340326 168.268931 
L 191.50068 166.690874 
L 194.661034 155.299316 
L 197.821388 166.830036 
L 200.981742 154.637665 
L 204.142096 157.33145 
L 207.30245 161.209227 
L 210.462804 164.984499 
L 213.623158 177.49456 
L 216.783512 182.680859 
L 219.943866 190.882151 
L 223.10422 182.75482 
L 226.264574 182.563119 
L 229.424928 203.293281 
L 232.585282 208.638748 
L 235.745636 206.11192 
L 238.90599 179.616057 
L 242.066344 143.812508 
L 245.226698 120.116628 
L 248.387052 110.210245 
L 251.547406 102.909563 
L 254.70776 109.214005 
L 257.868114 106.494786 
L 261.028468 115.20997 
L 264.188822 131.487042 
L 267.349176 140.14975 
L 270.50953 144.780923 
L 273.669884 154.072463 
L 276.830238 158.853449 
L 279.990592 160.525149 
L 283.150946 159.864374 
L 286.3113 146.707925 
L 289.471654 135.207431 
L 292.632008 133.216964 
L 295.792362 125.255306 
L 298.952716 126.375487 
L 302.11307 133.575946 
L 305.273424 135.286692 
L 308.433778 151.442987 
L 311.594132 156.248989 
L 314.754486 154.807432 
L 317.91484 154.002463 
L 321.075194 151.005828 
L 324.235548 147.619969 
L 327.395902 156.666396 
L 330.556256 150.810283 
L 333.71661 143.945254 
L 336.876963 149.633422 
L 340.037317 140.224128 
L 343.197671 141.963348 
L 346.358025 140.83236 
L 349.518379 137.087131 
L 352.678733 144.89746 
L 355.839087 141.736415 
L 358.999441 142.581405 
L 362.159795 150.243418 
L 365.320149 147.049285 
L 368.480503 157.598352 
L 371.640857 178.824953 
L 374.801211 276.334125 
L 377.961565 220.196085 
L 381.121919 216.959123 
L 384.282273 204.874047 
L 387.442627 90.89434 
L 390.602981 137.210202 
L 393.763335 132.166042 
L 396.923689 116.21832 
L 400.084043 120.894706 
L 403.244397 123.891877 
L 406.404751 120.132388 
L 409.565105 102.175124 
L 412.725459 98.655899 
L 415.885813 93.700143 
L 419.046167 94.131638 
L 422.206521 112.446576 
L 425.366875 120.963728 
" clip-path="url(#p296153cd34)" style="fill: none; stroke: #2ca02c; stroke-width: 1.5; stroke-linecap: square"/>
   </g>
   <g id="line2d_49">
    <path d="M 80.888291 124.072885 
L 84.048645 129.015882 
L 87.208999 127.906065 
L 90.369353 127.646152 
L 93.529707 130.609681 
L 96.690061 128.477293 
L 99.850415 129.260314 
L 103.010769 131.60771 
L 106.171123 132.734311 
L 109.331477 130.635699 
L 112.491831 131.02591 
L 115.652185 128.994532 
L 118.812539 125.324869 
L 121.972893 126.340213 
L 125.133247 123.745696 
L 128.293601 121.797272 
L 131.453955 124.386624 
L 134.614309 119.513884 
L 137.774663 121.121833 
L 140.935017 122.696008 
L 144.095371 120.26625 
L 147.255725 121.980442 
L 150.416079 124.368489 
L 153.576433 122.426864 
L 156.736787 123.529273 
L 159.89714 123.865568 
L 163.057494 124.801928 
L 166.217848 124.115855 
L 169.378202 125.673397 
L 172.538556 123.983458 
L 175.69891 122.311922 
L 178.859264 121.91898 
L 182.019618 124.899195 
L 185.179972 123.856257 
L 188.340326 123.38995 
L 191.50068 121.32184 
L 194.661034 121.429547 
L 197.821388 121.43895 
L 200.981742 121.394504 
L 204.142096 127.144354 
L 207.30245 125.445581 
L 210.462804 125.010432 
L 213.623158 125.893189 
L 216.783512 120.733292 
L 219.943866 116.336921 
L 223.10422 115.918231 
L 226.264574 110.687532 
L 229.424928 116.51043 
L 232.585282 130.277136 
L 235.745636 133.764352 
L 238.90599 142.394135 
L 242.066344 138.868039 
L 245.226698 131.487097 
L 248.387052 126.827616 
L 251.547406 126.265145 
L 254.70776 124.718143 
L 257.868114 122.316588 
L 261.028468 118.858407 
L 264.188822 120.597351 
L 267.349176 117.454646 
L 270.50953 119.94459 
L 273.669884 120.422828 
L 276.830238 121.588677 
L 279.990592 121.098437 
L 283.150946 124.457189 
L 286.3113 129.983644 
L 289.471654 127.008609 
L 292.632008 132.920386 
L 295.792362 132.736667 
L 298.952716 133.085831 
L 302.11307 135.413161 
L 305.273424 135.356777 
L 308.433778 142.08623 
L 311.594132 136.533079 
L 314.754486 134.254717 
L 317.91484 135.298273 
L 321.075194 135.736736 
L 324.235548 139.752862 
L 327.395902 136.805555 
L 330.556256 134.491357 
L 333.71661 126.21963 
L 336.876963 125.059102 
L 340.037317 128.849662 
L 343.197671 128.642054 
L 346.358025 129.118456 
L 349.518379 129.606932 
L 352.678733 123.054513 
L 355.839087 122.435842 
L 358.999441 128.49656 
L 362.159795 126.233375 
L 365.320149 130.992878 
L 368.480503 133.000368 
L 371.640857 128.691264 
L 374.801211 135.817197 
L 377.961565 135.29112 
L 381.121919 139.864148 
L 384.282273 131.744825 
L 387.442627 126.915169 
L 390.602981 123.25371 
L 393.763335 110.680113 
L 396.923689 103.735277 
L 400.084043 88.664275 
L 403.244397 79.595167 
L 406.404751 68.609035 
L 409.565105 80.992762 
L 412.725459 91.743241 
L 415.885813 102.418203 
L 419.046167 118.325731 
L 422.206521 119.203392 
L 425.366875 121.863856 
" clip-path="url(#p296153cd34)" style="fill: none; stroke: #d62728; stroke-width: 1.5; stroke-linecap: square"/>
   </g>
   <g id="patch_37">
    <path d="M 68.246875 288.430125 
L 68.246875 22.318125 
" style="fill: none; stroke: #000000; stroke-width: 0.8; stroke-linejoin: miter; stroke-linecap: square"/>
   </g>
   <g id="patch_38">
    <path d="M 425.366875 288.430125 
L 425.366875 22.318125 
" style="fill: none; stroke: #000000; stroke-width: 0.8; stroke-linejoin: miter; stroke-linecap: square"/>
   </g>
   <g id="patch_39">
    <path d="M 68.246875 288.430125 
L 425.366875 288.430125 
" style="fill: none; stroke: #000000; stroke-width: 0.8; stroke-linejoin: miter; stroke-linecap: square"/>
   </g>
   <g id="patch_40">
    <path d="M 68.246875 22.318125 
L 425.366875 22.318125 
" style="fill: none; stroke: #000000; stroke-width: 0.8; stroke-linejoin: miter; stroke-linecap: square"/>
   </g>
   <g id="text_16">
    <!-- Euro area -->
    <g transform="translate(216.601563 16.318125) scale(0.12 -0.12)">
     <defs>
      <path id="DejaVuSerif-45" d="M 353 0 
L 353 331 
L 947 331 
L 947 4331 
L 353 4331 
L 353 4666 
L 4109 4666 
L 4109 3628 
L 3725 3628 
L 3725 4281 
L 1581 4281 
L 1581 2719 
L 3109 2719 
L 3109 3303 
L 3494 3303 
L 3494 1753 
L 3109 1753 
L 3109 2338 
L 1581 2338 
L 1581 384 
L 3775 384 
L 3775 1038 
L 4159 1038 
L 4159 0 
L 353 0 
z
" transform="scale(0.015625)"/>
      <path id="DejaVuSerif-75" d="M 2266 3322 
L 3341 3322 
L 3341 331 
L 3884 331 
L 3884 0 
L 2766 0 
L 2766 588 
Q 2606 256 2353 82 
Q 2100 -91 1766 -91 
Q 1213 -91 952 223 
Q 691 538 691 1209 
L 691 2988 
L 172 2988 
L 172 3322 
L 1269 3322 
L 1269 1388 
Q 1269 781 1417 556 
Q 1566 331 1947 331 
Q 2347 331 2556 625 
Q 2766 919 2766 1478 
L 2766 2988 
L 2266 2988 
L 2266 3322 
z
" transform="scale(0.015625)"/>
      <path id="DejaVuSerif-72" d="M 3059 3328 
L 3059 2497 
L 2728 2497 
Q 2713 2744 2591 2866 
Q 2469 2988 2234 2988 
Q 1809 2988 1582 2694 
Q 1356 2400 1356 1850 
L 1356 331 
L 2022 331 
L 2022 0 
L 263 0 
L 263 331 
L 781 331 
L 781 2994 
L 231 2994 
L 231 3322 
L 1356 3322 
L 1356 2731 
Q 1525 3078 1790 3245 
Q 2056 3413 2438 3413 
Q 2578 3413 2733 3391 
Q 2888 3369 3059 3328 
z
" transform="scale(0.015625)"/>
      <path id="DejaVuSerif-20" transform="scale(0.015625)"/>
      <path id="DejaVuSerif-61" d="M 2547 1044 
L 2547 1747 
L 1806 1747 
Q 1378 1747 1168 1562 
Q 959 1378 959 997 
Q 959 650 1171 447 
Q 1384 244 1747 244 
Q 2106 244 2326 466 
Q 2547 688 2547 1044 
z
M 3122 2075 
L 3122 331 
L 3634 331 
L 3634 0 
L 2547 0 
L 2547 359 
Q 2356 128 2106 18 
Q 1856 -91 1522 -91 
Q 969 -91 644 203 
Q 319 497 319 997 
Q 319 1513 691 1797 
Q 1063 2081 1741 2081 
L 2547 2081 
L 2547 2309 
Q 2547 2688 2317 2895 
Q 2088 3103 1672 3103 
Q 1328 3103 1125 2947 
Q 922 2791 872 2484 
L 575 2484 
L 575 3156 
Q 875 3284 1158 3348 
Q 1441 3413 1709 3413 
Q 2400 3413 2761 3070 
Q 3122 2728 3122 2075 
z
" transform="scale(0.015625)"/>
      <path id="DejaVuSerif-65" d="M 3469 1600 
L 991 1600 
L 991 1575 
Q 991 903 1244 561 
Q 1497 219 1991 219 
Q 2369 219 2611 417 
Q 2853 616 2950 1006 
L 3413 1006 
Q 3275 459 2904 184 
Q 2534 -91 1931 -91 
Q 1203 -91 761 389 
Q 319 869 319 1663 
Q 319 2450 753 2931 
Q 1188 3413 1894 3413 
Q 2647 3413 3050 2948 
Q 3453 2484 3469 1600 
z
M 2791 1931 
Q 2772 2513 2545 2808 
Q 2319 3103 1894 3103 
Q 1497 3103 1269 2806 
Q 1041 2509 991 1931 
L 2791 1931 
z
" transform="scale(0.015625)"/>
     </defs>
     <use xlink:href="#DejaVuSerif-45"/>
     <use xlink:href="#DejaVuSerif-75" x="72.998047"/>
     <use xlink:href="#DejaVuSerif-72" x="137.402344"/>
     <use xlink:href="#DejaVuSerif-6f" x="185.205078"/>
     <use xlink:href="#DejaVuSerif-20" x="245.410156"/>
     <use xlink:href="#DejaVuSerif-61" x="277.197266"/>
     <use xlink:href="#DejaVuSerif-72" x="336.816406"/>
     <use xlink:href="#DejaVuSerif-65" x="384.619141"/>
     <use xlink:href="#DejaVuSerif-61" x="443.798828"/>
    </g>
   </g>
   <g id="legend_1">
    <g id="patch_41">
     <path d="M 75.246875 89.172812 
L 126.451563 89.172812 
Q 128.451563 89.172812 128.451563 87.172812 
L 128.451563 29.318125 
Q 128.451563 27.318125 126.451563 27.318125 
L 75.246875 27.318125 
Q 73.246875 27.318125 73.246875 29.318125 
L 73.246875 87.172812 
Q 73.246875 89.172812 75.246875 89.172812 
z
" style="fill: #ffffff; opacity: 0.8; stroke: #cccccc; stroke-linejoin: miter"/>
    </g>
    <g id="line2d_50">
     <path d="M 77.246875 35.416562 
L 87.246875 35.416562 
L 97.246875 35.416562 
" style="fill: none; stroke: #1f77b4; stroke-width: 1.5; stroke-linecap: square"/>
    </g>
    <g id="text_17">
     <!-- m3 -->
     <g transform="translate(105.246875 38.916562) scale(0.1 -0.1)">
      <defs>
       <path id="DejaVuSerif-6d" d="M 3316 2675 
Q 3481 3041 3739 3227 
Q 3997 3413 4341 3413 
Q 4863 3413 5119 3089 
Q 5375 2766 5375 2113 
L 5375 331 
L 5894 331 
L 5894 0 
L 4300 0 
L 4300 331 
L 4800 331 
L 4800 2047 
Q 4800 2556 4650 2772 
Q 4500 2988 4153 2988 
Q 3769 2988 3567 2697 
Q 3366 2406 3366 1850 
L 3366 331 
L 3866 331 
L 3866 0 
L 2291 0 
L 2291 331 
L 2791 331 
L 2791 2069 
Q 2791 2566 2641 2777 
Q 2491 2988 2144 2988 
Q 1759 2988 1557 2697 
Q 1356 2406 1356 1850 
L 1356 331 
L 1856 331 
L 1856 0 
L 263 0 
L 263 331 
L 781 331 
L 781 2994 
L 231 2994 
L 231 3322 
L 1356 3322 
L 1356 2731 
Q 1516 3063 1762 3238 
Q 2009 3413 2322 3413 
Q 2709 3413 2968 3220 
Q 3228 3028 3316 2675 
z
" transform="scale(0.015625)"/>
       <path id="DejaVuSerif-33" d="M 622 4469 
Q 988 4606 1323 4678 
Q 1659 4750 1953 4750 
Q 2638 4750 3022 4454 
Q 3406 4159 3406 3634 
Q 3406 3213 3140 2930 
Q 2875 2647 2388 2547 
Q 2963 2466 3280 2130 
Q 3597 1794 3597 1259 
Q 3597 606 3158 257 
Q 2719 -91 1894 -91 
Q 1528 -91 1179 -12 
Q 831 66 488 225 
L 488 1131 
L 838 1131 
Q 869 681 1141 450 
Q 1413 219 1906 219 
Q 2384 219 2661 495 
Q 2938 772 2938 1253 
Q 2938 1803 2653 2086 
Q 2369 2369 1819 2369 
L 1522 2369 
L 1522 2688 
L 1678 2688 
Q 2225 2688 2498 2914 
Q 2772 3141 2772 3597 
Q 2772 4006 2547 4223 
Q 2322 4441 1900 4441 
Q 1478 4441 1245 4241 
Q 1013 4041 972 3647 
L 622 3647 
L 622 4469 
z
" transform="scale(0.015625)"/>
      </defs>
      <use xlink:href="#DejaVuSerif-6d"/>
      <use xlink:href="#DejaVuSerif-33" x="94.824219"/>
     </g>
    </g>
    <g id="line2d_51">
     <path d="M 77.246875 50.094687 
L 87.246875 50.094687 
L 97.246875 50.094687 
" style="fill: none; stroke: #ff7f0e; stroke-width: 1.5; stroke-linecap: square"/>
    </g>
    <g id="text_18">
     <!-- gdp -->
     <g transform="translate(105.246875 53.594687) scale(0.1 -0.1)">
      <defs>
       <path id="DejaVuSerif-64" d="M 3359 331 
L 3909 331 
L 3909 0 
L 2784 0 
L 2784 519 
Q 2616 206 2355 57 
Q 2094 -91 1709 -91 
Q 1097 -91 708 395 
Q 319 881 319 1663 
Q 319 2444 706 2928 
Q 1094 3413 1709 3413 
Q 2094 3413 2355 3264 
Q 2616 3116 2784 2803 
L 2784 4531 
L 2241 4531 
L 2241 4863 
L 3359 4863 
L 3359 331 
z
M 2784 1497 
L 2784 1825 
Q 2784 2422 2554 2737 
Q 2325 3053 1888 3053 
Q 1444 3053 1217 2703 
Q 991 2353 991 1663 
Q 991 975 1217 622 
Q 1444 269 1888 269 
Q 2325 269 2554 583 
Q 2784 897 2784 1497 
z
" transform="scale(0.015625)"/>
       <path id="DejaVuSerif-70" d="M 1313 1825 
L 1313 1497 
Q 1313 897 1542 583 
Q 1772 269 2209 269 
Q 2650 269 2876 622 
Q 3103 975 3103 1663 
Q 3103 2353 2876 2703 
Q 2650 3053 2209 3053 
Q 1772 3053 1542 2737 
Q 1313 2422 1313 1825 
z
M 738 2988 
L 184 2988 
L 184 3322 
L 1313 3322 
L 1313 2803 
Q 1481 3116 1742 3264 
Q 2003 3413 2388 3413 
Q 3000 3413 3387 2928 
Q 3775 2444 3775 1663 
Q 3775 881 3387 395 
Q 3000 -91 2388 -91 
Q 2003 -91 1742 57 
Q 1481 206 1313 519 
L 1313 -997 
L 1856 -997 
L 1856 -1331 
L 184 -1331 
L 184 -997 
L 738 -997 
L 738 2988 
z
" transform="scale(0.015625)"/>
      </defs>
      <use xlink:href="#DejaVuSerif-67"/>
      <use xlink:href="#DejaVuSerif-64" x="64.013672"/>
      <use xlink:href="#DejaVuSerif-70" x="128.027344"/>
     </g>
    </g>
    <g id="line2d_52">
     <path d="M 77.246875 64.915 
L 87.246875 64.915 
L 97.246875 64.915 
" style="fill: none; stroke: #2ca02c; stroke-width: 1.5; stroke-linecap: square"/>
    </g>
    <g id="text_19">
     <!-- v -->
     <g transform="translate(105.246875 68.415) scale(0.1 -0.1)">
      <defs>
       <path id="DejaVuSerif-76" d="M 1581 0 
L 359 2988 
L -19 2988 
L -19 3322 
L 1509 3322 
L 1509 2988 
L 978 2988 
L 1913 703 
L 2847 2988 
L 2350 2988 
L 2350 3322 
L 3597 3322 
L 3597 2988 
L 3225 2988 
L 2003 0 
L 1581 0 
z
" transform="scale(0.015625)"/>
      </defs>
      <use xlink:href="#DejaVuSerif-76"/>
     </g>
    </g>
    <g id="line2d_53">
     <path d="M 77.246875 79.593125 
L 87.246875 79.593125 
L 97.246875 79.593125 
" style="fill: none; stroke: #d62728; stroke-width: 1.5; stroke-linecap: square"/>
    </g>
    <g id="text_20">
     <!-- cpi -->
     <g transform="translate(105.246875 83.093125) scale(0.1 -0.1)">
      <defs>
       <path id="DejaVuSerif-63" d="M 3291 997 
Q 3169 466 2822 187 
Q 2475 -91 1925 -91 
Q 1200 -91 759 389 
Q 319 869 319 1663 
Q 319 2459 759 2936 
Q 1200 3413 1925 3413 
Q 2241 3413 2553 3339 
Q 2866 3266 3181 3116 
L 3181 2266 
L 2847 2266 
Q 2781 2703 2561 2903 
Q 2341 3103 1931 3103 
Q 1466 3103 1228 2742 
Q 991 2381 991 1663 
Q 991 944 1227 581 
Q 1463 219 1931 219 
Q 2303 219 2525 412 
Q 2747 606 2828 997 
L 3291 997 
z
" transform="scale(0.015625)"/>
       <path id="DejaVuSerif-69" d="M 622 4353 
Q 622 4497 726 4603 
Q 831 4709 978 4709 
Q 1122 4709 1226 4603 
Q 1331 4497 1331 4353 
Q 1331 4206 1228 4103 
Q 1125 4000 978 4000 
Q 831 4000 726 4103 
Q 622 4206 622 4353 
z
M 1356 331 
L 1900 331 
L 1900 0 
L 231 0 
L 231 331 
L 781 331 
L 781 2988 
L 231 2988 
L 231 3322 
L 1356 3322 
L 1356 331 
z
" transform="scale(0.015625)"/>
      </defs>
      <use xlink:href="#DejaVuSerif-63"/>
      <use xlink:href="#DejaVuSerif-70" x="56.005859"/>
      <use xlink:href="#DejaVuSerif-69" x="120.019531"/>
     </g>
    </g>
   </g>
  </g>
 </g>
 <defs>
  <clipPath id="p296153cd34">
   <rect x="68.246875" y="22.318125" width="357.12" height="266.112"/>
  </clipPath>
 </defs>
</svg>
