<?xml version="1.0" encoding="utf-8" standalone="no"?>
<!DOCTYPE svg PUBLIC "-//W3C//DTD SVG 1.1//EN"
  "http://www.w3.org/Graphics/SVG/1.1/DTD/svg11.dtd">
<svg xmlns:xlink="http://www.w3.org/1999/xlink" width="431.326313pt" height="312.30825pt" viewBox="0 0 431.326313 312.30825" xmlns="http://www.w3.org/2000/svg" version="1.1">
 <metadata>
  <rdf:RDF xmlns:dc="http://purl.org/dc/elements/1.1/" xmlns:cc="http://creativecommons.org/ns#" xmlns:rdf="http://www.w3.org/1999/02/22-rdf-syntax-ns#">
   <cc:Work>
    <dc:type rdf:resource="http://purl.org/dc/dcmitype/StillImage"/>
    <dc:date>2024-11-06T21:53:20.149255</dc:date>
    <dc:format>image/svg+xml</dc:format>
    <dc:creator>
     <cc:Agent>
      <dc:title>Matplotlib v3.9.0, https://matplotlib.org/</dc:title>
     </cc:Agent>
    </dc:creator>
   </cc:Work>
  </rdf:RDF>
 </metadata>
 <defs>
  <style type="text/css">*{stroke-linejoin: round; stroke-linecap: butt}</style>
 </defs>
 <g id="figure_1">
  <g id="patch_1">
   <path d="M 0 312.30825 
L 431.326313 312.30825 
L 431.326313 0 
L 0 0 
z
" style="fill: #ffffff"/>
  </g>
  <g id="axes_1">
   <g id="patch_2">
    <path d="M 58.745313 143.278125 
L 415.865313 143.278125 
L 415.865313 22.318125 
L 58.745313 22.318125 
z
" style="fill: #ffffff"/>
   </g>
   <g id="patch_3">
    <path d="M -2566.086688 143.278125 
L -2539.302688 143.278125 
L -2539.302688 22.318125 
L -2566.086688 22.318125 
z
" clip-path="url(#pe0543c99c8)" style="fill: #d3d3d3"/>
   </g>
   <g id="patch_4">
    <path d="M -2508.054688 143.278125 
L -2490.198687 143.278125 
L -2490.198687 22.318125 
L -2508.054688 22.318125 
z
" clip-path="url(#pe0543c99c8)" style="fill: #d3d3d3"/>
   </g>
   <g id="patch_5">
    <path d="M -2427.702688 143.278125 
L -2391.990688 143.278125 
L -2391.990688 22.318125 
L -2427.702688 22.318125 
z
" clip-path="url(#pe0543c99c8)" style="fill: #d3d3d3"/>
   </g>
   <g id="patch_6">
    <path d="M -2351.814688 143.278125 
L -2325.030688 143.278125 
L -2325.030688 22.318125 
L -2351.814688 22.318125 
z
" clip-path="url(#pe0543c99c8)" style="fill: #d3d3d3"/>
   </g>
   <g id="patch_7">
    <path d="M -2275.926688 143.278125 
L -2177.718688 143.278125 
L -2177.718688 22.318125 
L -2275.926688 22.318125 
z
" clip-path="url(#pe0543c99c8)" style="fill: #d3d3d3"/>
   </g>
   <g id="patch_8">
    <path d="M -2124.150688 143.278125 
L -2066.118687 143.278125 
L -2066.118687 22.318125 
L -2124.150688 22.318125 
z
" clip-path="url(#pe0543c99c8)" style="fill: #d3d3d3"/>
   </g>
   <g id="patch_9">
    <path d="M -2030.406688 143.278125 
L -2017.014688 143.278125 
L -2017.014688 22.318125 
L -2030.406688 22.318125 
z
" clip-path="url(#pe0543c99c8)" style="fill: #d3d3d3"/>
   </g>
   <g id="patch_10">
    <path d="M -1972.374687 143.278125 
L -1958.982687 143.278125 
L -1958.982687 22.318125 
L -1972.374687 22.318125 
z
" clip-path="url(#pe0543c99c8)" style="fill: #d3d3d3"/>
   </g>
   <g id="patch_11">
    <path d="M -1927.734688 143.278125 
L -1905.414688 143.278125 
L -1905.414688 22.318125 
L -1927.734688 22.318125 
z
" clip-path="url(#pe0543c99c8)" style="fill: #d3d3d3"/>
   </g>
   <g id="patch_12">
    <path d="M -1878.630688 143.278125 
L -1851.846687 143.278125 
L -1851.846687 22.318125 
L -1878.630688 22.318125 
z
" clip-path="url(#pe0543c99c8)" style="fill: #d3d3d3"/>
   </g>
   <g id="patch_13">
    <path d="M -1811.670687 143.278125 
L -1789.350688 143.278125 
L -1789.350688 22.318125 
L -1811.670687 22.318125 
z
" clip-path="url(#pe0543c99c8)" style="fill: #d3d3d3"/>
   </g>
   <g id="patch_14">
    <path d="M -1753.638688 143.278125 
L -1722.390688 143.278125 
L -1722.390688 22.318125 
L -1753.638688 22.318125 
z
" clip-path="url(#pe0543c99c8)" style="fill: #d3d3d3"/>
   </g>
   <g id="patch_15">
    <path d="M -1673.286687 143.278125 
L -1655.430687 143.278125 
L -1655.430687 22.318125 
L -1673.286687 22.318125 
z
" clip-path="url(#pe0543c99c8)" style="fill: #d3d3d3"/>
   </g>
   <g id="patch_16">
    <path d="M -1624.182687 143.278125 
L -1592.934687 143.278125 
L -1592.934687 22.318125 
L -1624.182687 22.318125 
z
" clip-path="url(#pe0543c99c8)" style="fill: #d3d3d3"/>
   </g>
   <g id="patch_17">
    <path d="M -1570.614687 143.278125 
L -1539.366687 143.278125 
L -1539.366687 22.318125 
L -1570.614687 22.318125 
z
" clip-path="url(#pe0543c99c8)" style="fill: #d3d3d3"/>
   </g>
   <g id="patch_18">
    <path d="M -1472.406687 143.278125 
L -1463.478687 143.278125 
L -1463.478687 22.318125 
L -1472.406687 22.318125 
z
" clip-path="url(#pe0543c99c8)" style="fill: #d3d3d3"/>
   </g>
   <g id="patch_19">
    <path d="M -1445.622687 143.278125 
L -1418.838687 143.278125 
L -1418.838687 22.318125 
L -1445.622687 22.318125 
z
" clip-path="url(#pe0543c99c8)" style="fill: #d3d3d3"/>
   </g>
   <g id="patch_20">
    <path d="M -1387.590688 143.278125 
L -1365.270688 143.278125 
L -1365.270688 22.318125 
L -1387.590688 22.318125 
z
" clip-path="url(#pe0543c99c8)" style="fill: #d3d3d3"/>
   </g>
   <g id="patch_21">
    <path d="M -1329.558687 143.278125 
L -1307.238687 143.278125 
L -1307.238687 22.318125 
L -1329.558687 22.318125 
z
" clip-path="url(#pe0543c99c8)" style="fill: #d3d3d3"/>
   </g>
   <g id="patch_22">
    <path d="M -1275.990688 143.278125 
L -1213.494688 143.278125 
L -1213.494688 22.318125 
L -1275.990688 22.318125 
z
" clip-path="url(#pe0543c99c8)" style="fill: #d3d3d3"/>
   </g>
   <g id="patch_23">
    <path d="M -1137.606688 143.278125 
L -1119.750688 143.278125 
L -1119.750688 22.318125 
L -1137.606688 22.318125 
z
" clip-path="url(#pe0543c99c8)" style="fill: #d3d3d3"/>
   </g>
   <g id="patch_24">
    <path d="M -999.222688 143.278125 
L -985.830687 143.278125 
L -985.830687 22.318125 
L -999.222688 22.318125 
z
" clip-path="url(#pe0543c99c8)" style="fill: #d3d3d3"/>
   </g>
   <g id="patch_25">
    <path d="M -932.262688 143.278125 
L -914.406688 143.278125 
L -914.406688 22.318125 
L -932.262688 22.318125 
z
" clip-path="url(#pe0543c99c8)" style="fill: #d3d3d3"/>
   </g>
   <g id="patch_26">
    <path d="M -851.910687 143.278125 
L -834.054688 143.278125 
L -834.054688 22.318125 
L -851.910687 22.318125 
z
" clip-path="url(#pe0543c99c8)" style="fill: #d3d3d3"/>
   </g>
   <g id="patch_27">
    <path d="M -776.022688 143.278125 
L -762.630688 143.278125 
L -762.630688 22.318125 
L -776.022688 22.318125 
z
" clip-path="url(#pe0543c99c8)" style="fill: #d3d3d3"/>
   </g>
   <g id="patch_28">
    <path d="M -726.918688 143.278125 
L -713.526687 143.278125 
L -713.526687 22.318125 
L -726.918688 22.318125 
z
" clip-path="url(#pe0543c99c8)" style="fill: #d3d3d3"/>
   </g>
   <g id="patch_29">
    <path d="M -557.286688 143.278125 
L -539.430688 143.278125 
L -539.430688 22.318125 
L -557.286688 22.318125 
z
" clip-path="url(#pe0543c99c8)" style="fill: #d3d3d3"/>
   </g>
   <g id="patch_30">
    <path d="M -485.862688 143.278125 
L -463.542688 143.278125 
L -463.542688 22.318125 
L -485.862688 22.318125 
z
" clip-path="url(#pe0543c99c8)" style="fill: #d3d3d3"/>
   </g>
   <g id="patch_31">
    <path d="M -374.262688 143.278125 
L -365.334688 143.278125 
L -365.334688 22.318125 
L -374.262688 22.318125 
z
" clip-path="url(#pe0543c99c8)" style="fill: #d3d3d3"/>
   </g>
   <g id="patch_32">
    <path d="M -347.478688 143.278125 
L -325.158688 143.278125 
L -325.158688 22.318125 
L -347.478688 22.318125 
z
" clip-path="url(#pe0543c99c8)" style="fill: #d3d3d3"/>
   </g>
   <g id="patch_33">
    <path d="M -186.774688 143.278125 
L -177.846688 143.278125 
L -177.846688 22.318125 
L -186.774688 22.318125 
z
" clip-path="url(#pe0543c99c8)" style="fill: #d3d3d3"/>
   </g>
   <g id="patch_34">
    <path d="M 0.713312 143.278125 
L 14.105312 143.278125 
L 14.105312 22.318125 
L 0.713312 22.318125 
z
" clip-path="url(#pe0543c99c8)" style="fill: #d3d3d3"/>
   </g>
   <g id="patch_35">
    <path d="M 121.241312 143.278125 
L 148.025312 143.278125 
L 148.025312 22.318125 
L 121.241312 22.318125 
z
" clip-path="url(#pe0543c99c8)" style="fill: #d3d3d3"/>
   </g>
   <g id="patch_36">
    <path d="M 335.513312 143.278125 
L 344.441312 143.278125 
L 344.441312 22.318125 
L 335.513312 22.318125 
z
" clip-path="url(#pe0543c99c8)" style="fill: #d3d3d3"/>
   </g>
   <g id="matplotlib.axis_1">
    <g id="xtick_1">
     <g id="line2d_1">
      <defs>
       <path id="m1701b46fc3" d="M 0 0 
L 0 3.5 
" style="stroke: #000000; stroke-width: 0.8"/>
      </defs>
      <g>
       <use xlink:href="#m1701b46fc3" x="143.561312" y="143.278125" style="stroke: #000000; stroke-width: 0.8"/>
      </g>
     </g>
     <g id="text_1">
      <!-- 2009 -->
      <g transform="translate(130.836312 157.876562) scale(0.1 -0.1)">
       <defs>
        <path id="DejaVuSerif-32" d="M 819 3553 
L 469 3553 
L 469 4384 
Q 803 4563 1142 4656 
Q 1481 4750 1806 4750 
Q 2534 4750 2956 4397 
Q 3378 4044 3378 3438 
Q 3378 2753 2422 1800 
Q 2347 1728 2309 1691 
L 1131 513 
L 3078 513 
L 3078 1088 
L 3444 1088 
L 3444 0 
L 434 0 
L 434 341 
L 1850 1753 
Q 2319 2222 2519 2614 
Q 2719 3006 2719 3438 
Q 2719 3909 2473 4175 
Q 2228 4441 1797 4441 
Q 1350 4441 1106 4219 
Q 863 3997 819 3553 
z
" transform="scale(0.015625)"/>
        <path id="DejaVuSerif-30" d="M 2034 219 
Q 2513 219 2750 744 
Q 2988 1269 2988 2328 
Q 2988 3391 2750 3916 
Q 2513 4441 2034 4441 
Q 1556 4441 1318 3916 
Q 1081 3391 1081 2328 
Q 1081 1269 1318 744 
Q 1556 219 2034 219 
z
M 2034 -91 
Q 1275 -91 848 546 
Q 422 1184 422 2328 
Q 422 3475 848 4112 
Q 1275 4750 2034 4750 
Q 2797 4750 3222 4112 
Q 3647 3475 3647 2328 
Q 3647 1184 3222 546 
Q 2797 -91 2034 -91 
z
" transform="scale(0.015625)"/>
        <path id="DejaVuSerif-39" d="M 2994 2091 
Q 2784 1856 2512 1740 
Q 2241 1625 1900 1625 
Q 1206 1625 804 2044 
Q 403 2463 403 3188 
Q 403 3897 839 4323 
Q 1275 4750 2003 4750 
Q 2794 4750 3217 4161 
Q 3641 3572 3641 2478 
Q 3641 1253 3137 581 
Q 2634 -91 1722 -91 
Q 1475 -91 1203 -44 
Q 931 3 647 97 
L 647 872 
L 997 872 
Q 1038 556 1241 387 
Q 1444 219 1784 219 
Q 2391 219 2687 676 
Q 2984 1134 2994 2091 
z
M 1978 4441 
Q 1534 4441 1298 4117 
Q 1063 3794 1063 3188 
Q 1063 2581 1298 2256 
Q 1534 1931 1978 1931 
Q 2422 1931 2658 2245 
Q 2894 2559 2894 3150 
Q 2894 3772 2656 4106 
Q 2419 4441 1978 4441 
z
" transform="scale(0.015625)"/>
       </defs>
       <use xlink:href="#DejaVuSerif-32"/>
       <use xlink:href="#DejaVuSerif-30" x="63.623047"/>
       <use xlink:href="#DejaVuSerif-30" x="127.246094"/>
       <use xlink:href="#DejaVuSerif-39" x="190.869141"/>
      </g>
     </g>
    </g>
    <g id="xtick_2">
     <g id="line2d_2">
      <g>
       <use xlink:href="#m1701b46fc3" x="232.841312" y="143.278125" style="stroke: #000000; stroke-width: 0.8"/>
      </g>
     </g>
     <g id="text_2">
      <!-- 2014 -->
      <g transform="translate(220.116312 157.876562) scale(0.1 -0.1)">
       <defs>
        <path id="DejaVuSerif-31" d="M 909 0 
L 909 331 
L 1722 331 
L 1722 4213 
L 781 3603 
L 781 4013 
L 1919 4750 
L 2350 4750 
L 2350 331 
L 3163 331 
L 3163 0 
L 909 0 
z
" transform="scale(0.015625)"/>
        <path id="DejaVuSerif-34" d="M 2234 1581 
L 2234 4063 
L 641 1581 
L 2234 1581 
z
M 3609 0 
L 1484 0 
L 1484 331 
L 2234 331 
L 2234 1247 
L 197 1247 
L 197 1588 
L 2241 4750 
L 2859 4750 
L 2859 1581 
L 3750 1581 
L 3750 1247 
L 2859 1247 
L 2859 331 
L 3609 331 
L 3609 0 
z
" transform="scale(0.015625)"/>
       </defs>
       <use xlink:href="#DejaVuSerif-32"/>
       <use xlink:href="#DejaVuSerif-30" x="63.623047"/>
       <use xlink:href="#DejaVuSerif-31" x="127.246094"/>
       <use xlink:href="#DejaVuSerif-34" x="190.869141"/>
      </g>
     </g>
    </g>
    <g id="xtick_3">
     <g id="line2d_3">
      <g>
       <use xlink:href="#m1701b46fc3" x="322.121312" y="143.278125" style="stroke: #000000; stroke-width: 0.8"/>
      </g>
     </g>
     <g id="text_3">
      <!-- 2019 -->
      <g transform="translate(309.396312 157.876562) scale(0.1 -0.1)">
       <use xlink:href="#DejaVuSerif-32"/>
       <use xlink:href="#DejaVuSerif-30" x="63.623047"/>
       <use xlink:href="#DejaVuSerif-31" x="127.246094"/>
       <use xlink:href="#DejaVuSerif-39" x="190.869141"/>
      </g>
     </g>
    </g>
    <g id="xtick_4">
     <g id="line2d_4">
      <g>
       <use xlink:href="#m1701b46fc3" x="411.401313" y="143.278125" style="stroke: #000000; stroke-width: 0.8"/>
      </g>
     </g>
     <g id="text_4">
      <!-- 2024 -->
      <g transform="translate(398.676312 157.876562) scale(0.1 -0.1)">
       <use xlink:href="#DejaVuSerif-32"/>
       <use xlink:href="#DejaVuSerif-30" x="63.623047"/>
       <use xlink:href="#DejaVuSerif-32" x="127.246094"/>
       <use xlink:href="#DejaVuSerif-34" x="190.869141"/>
      </g>
     </g>
    </g>
    <g id="xtick_5">
     <g id="line2d_5">
      <defs>
       <path id="meaa55a4bcc" d="M 0 0 
L 0 2 
" style="stroke: #000000; stroke-width: 0.6"/>
      </defs>
      <g>
       <use xlink:href="#meaa55a4bcc" x="72.137313" y="143.278125" style="stroke: #000000; stroke-width: 0.6"/>
      </g>
     </g>
    </g>
    <g id="xtick_6">
     <g id="line2d_6">
      <g>
       <use xlink:href="#meaa55a4bcc" x="89.993313" y="143.278125" style="stroke: #000000; stroke-width: 0.6"/>
      </g>
     </g>
    </g>
    <g id="xtick_7">
     <g id="line2d_7">
      <g>
       <use xlink:href="#meaa55a4bcc" x="107.849312" y="143.278125" style="stroke: #000000; stroke-width: 0.6"/>
      </g>
     </g>
    </g>
    <g id="xtick_8">
     <g id="line2d_8">
      <g>
       <use xlink:href="#meaa55a4bcc" x="125.705312" y="143.278125" style="stroke: #000000; stroke-width: 0.6"/>
      </g>
     </g>
    </g>
    <g id="xtick_9">
     <g id="line2d_9">
      <g>
       <use xlink:href="#meaa55a4bcc" x="161.417312" y="143.278125" style="stroke: #000000; stroke-width: 0.6"/>
      </g>
     </g>
    </g>
    <g id="xtick_10">
     <g id="line2d_10">
      <g>
       <use xlink:href="#meaa55a4bcc" x="179.273312" y="143.278125" style="stroke: #000000; stroke-width: 0.6"/>
      </g>
     </g>
    </g>
    <g id="xtick_11">
     <g id="line2d_11">
      <g>
       <use xlink:href="#meaa55a4bcc" x="197.129312" y="143.278125" style="stroke: #000000; stroke-width: 0.6"/>
      </g>
     </g>
    </g>
    <g id="xtick_12">
     <g id="line2d_12">
      <g>
       <use xlink:href="#meaa55a4bcc" x="214.985312" y="143.278125" style="stroke: #000000; stroke-width: 0.6"/>
      </g>
     </g>
    </g>
    <g id="xtick_13">
     <g id="line2d_13">
      <g>
       <use xlink:href="#meaa55a4bcc" x="250.697312" y="143.278125" style="stroke: #000000; stroke-width: 0.6"/>
      </g>
     </g>
    </g>
    <g id="xtick_14">
     <g id="line2d_14">
      <g>
       <use xlink:href="#meaa55a4bcc" x="268.553312" y="143.278125" style="stroke: #000000; stroke-width: 0.6"/>
      </g>
     </g>
    </g>
    <g id="xtick_15">
     <g id="line2d_15">
      <g>
       <use xlink:href="#meaa55a4bcc" x="286.409312" y="143.278125" style="stroke: #000000; stroke-width: 0.6"/>
      </g>
     </g>
    </g>
    <g id="xtick_16">
     <g id="line2d_16">
      <g>
       <use xlink:href="#meaa55a4bcc" x="304.265312" y="143.278125" style="stroke: #000000; stroke-width: 0.6"/>
      </g>
     </g>
    </g>
    <g id="xtick_17">
     <g id="line2d_17">
      <g>
       <use xlink:href="#meaa55a4bcc" x="339.977312" y="143.278125" style="stroke: #000000; stroke-width: 0.6"/>
      </g>
     </g>
    </g>
    <g id="xtick_18">
     <g id="line2d_18">
      <g>
       <use xlink:href="#meaa55a4bcc" x="357.833312" y="143.278125" style="stroke: #000000; stroke-width: 0.6"/>
      </g>
     </g>
    </g>
    <g id="xtick_19">
     <g id="line2d_19">
      <g>
       <use xlink:href="#meaa55a4bcc" x="375.689312" y="143.278125" style="stroke: #000000; stroke-width: 0.6"/>
      </g>
     </g>
    </g>
    <g id="xtick_20">
     <g id="line2d_20">
      <g>
       <use xlink:href="#meaa55a4bcc" x="393.545312" y="143.278125" style="stroke: #000000; stroke-width: 0.6"/>
      </g>
     </g>
    </g>
   </g>
   <g id="matplotlib.axis_2">
    <g id="ytick_1">
     <g id="line2d_21">
      <defs>
       <path id="m0b3001a2a0" d="M 0 0 
L -3.5 0 
" style="stroke: #000000; stroke-width: 0.8"/>
      </defs>
      <g>
       <use xlink:href="#m0b3001a2a0" x="58.745313" y="126.78358" style="stroke: #000000; stroke-width: 0.8"/>
      </g>
     </g>
     <g id="text_5">
      <!-- −0.04 -->
      <g transform="translate(21.1 130.582798) scale(0.1 -0.1)">
       <defs>
        <path id="DejaVuSerif-2212" d="M 678 2259 
L 4684 2259 
L 4684 1753 
L 678 1753 
L 678 2259 
z
" transform="scale(0.015625)"/>
        <path id="DejaVuSerif-2e" d="M 603 325 
Q 603 500 722 622 
Q 841 744 1019 744 
Q 1191 744 1312 622 
Q 1434 500 1434 325 
Q 1434 153 1312 31 
Q 1191 -91 1019 -91 
Q 841 -91 722 29 
Q 603 150 603 325 
z
" transform="scale(0.015625)"/>
       </defs>
       <use xlink:href="#DejaVuSerif-2212"/>
       <use xlink:href="#DejaVuSerif-30" x="83.789062"/>
       <use xlink:href="#DejaVuSerif-2e" x="147.412109"/>
       <use xlink:href="#DejaVuSerif-30" x="179.199219"/>
       <use xlink:href="#DejaVuSerif-34" x="242.822266"/>
      </g>
     </g>
    </g>
    <g id="ytick_2">
     <g id="line2d_22">
      <g>
       <use xlink:href="#m0b3001a2a0" x="58.745313" y="104.790852" style="stroke: #000000; stroke-width: 0.8"/>
      </g>
     </g>
     <g id="text_6">
      <!-- −0.02 -->
      <g transform="translate(21.1 108.590071) scale(0.1 -0.1)">
       <use xlink:href="#DejaVuSerif-2212"/>
       <use xlink:href="#DejaVuSerif-30" x="83.789062"/>
       <use xlink:href="#DejaVuSerif-2e" x="147.412109"/>
       <use xlink:href="#DejaVuSerif-30" x="179.199219"/>
       <use xlink:href="#DejaVuSerif-32" x="242.822266"/>
      </g>
     </g>
    </g>
    <g id="ytick_3">
     <g id="line2d_23">
      <g>
       <use xlink:href="#m0b3001a2a0" x="58.745313" y="82.798125" style="stroke: #000000; stroke-width: 0.8"/>
      </g>
     </g>
     <g id="text_7">
      <!-- 0.00 -->
      <g transform="translate(29.479688 86.597344) scale(0.1 -0.1)">
       <use xlink:href="#DejaVuSerif-30"/>
       <use xlink:href="#DejaVuSerif-2e" x="63.623047"/>
       <use xlink:href="#DejaVuSerif-30" x="95.410156"/>
       <use xlink:href="#DejaVuSerif-30" x="159.033203"/>
      </g>
     </g>
    </g>
    <g id="ytick_4">
     <g id="line2d_24">
      <g>
       <use xlink:href="#m0b3001a2a0" x="58.745313" y="60.805398" style="stroke: #000000; stroke-width: 0.8"/>
      </g>
     </g>
     <g id="text_8">
      <!-- 0.02 -->
      <g transform="translate(29.479688 64.604616) scale(0.1 -0.1)">
       <use xlink:href="#DejaVuSerif-30"/>
       <use xlink:href="#DejaVuSerif-2e" x="63.623047"/>
       <use xlink:href="#DejaVuSerif-30" x="95.410156"/>
       <use xlink:href="#DejaVuSerif-32" x="159.033203"/>
      </g>
     </g>
    </g>
    <g id="ytick_5">
     <g id="line2d_25">
      <g>
       <use xlink:href="#m0b3001a2a0" x="58.745313" y="38.81267" style="stroke: #000000; stroke-width: 0.8"/>
      </g>
     </g>
     <g id="text_9">
      <!-- 0.04 -->
      <g transform="translate(29.479688 42.611889) scale(0.1 -0.1)">
       <use xlink:href="#DejaVuSerif-30"/>
       <use xlink:href="#DejaVuSerif-2e" x="63.623047"/>
       <use xlink:href="#DejaVuSerif-30" x="95.410156"/>
       <use xlink:href="#DejaVuSerif-34" x="159.033203"/>
      </g>
     </g>
    </g>
    <g id="text_10">
     <!-- Prob. of being in $S_t=1$ -->
     <g transform="translate(14.8 140.848125) rotate(-90) scale(0.1 -0.1)">
      <defs>
       <path id="DejaVuSerif-50" d="M 1581 2375 
L 2406 2375 
Q 2872 2375 3115 2626 
Q 3359 2878 3359 3353 
Q 3359 3831 3115 4081 
Q 2872 4331 2406 4331 
L 1581 4331 
L 1581 2375 
z
M 353 0 
L 353 331 
L 947 331 
L 947 4331 
L 353 4331 
L 353 4666 
L 2559 4666 
Q 3259 4666 3668 4311 
Q 4078 3956 4078 3353 
Q 4078 2753 3668 2397 
Q 3259 2041 2559 2041 
L 1581 2041 
L 1581 331 
L 2303 331 
L 2303 0 
L 353 0 
z
" transform="scale(0.015625)"/>
       <path id="DejaVuSerif-72" d="M 3059 3328 
L 3059 2497 
L 2728 2497 
Q 2713 2744 2591 2866 
Q 2469 2988 2234 2988 
Q 1809 2988 1582 2694 
Q 1356 2400 1356 1850 
L 1356 331 
L 2022 331 
L 2022 0 
L 263 0 
L 263 331 
L 781 331 
L 781 2994 
L 231 2994 
L 231 3322 
L 1356 3322 
L 1356 2731 
Q 1525 3078 1790 3245 
Q 2056 3413 2438 3413 
Q 2578 3413 2733 3391 
Q 2888 3369 3059 3328 
z
" transform="scale(0.015625)"/>
       <path id="DejaVuSerif-6f" d="M 1925 219 
Q 2388 219 2623 584 
Q 2859 950 2859 1663 
Q 2859 2375 2623 2739 
Q 2388 3103 1925 3103 
Q 1463 3103 1227 2739 
Q 991 2375 991 1663 
Q 991 950 1228 584 
Q 1466 219 1925 219 
z
M 1925 -91 
Q 1200 -91 759 389 
Q 319 869 319 1663 
Q 319 2456 758 2934 
Q 1197 3413 1925 3413 
Q 2653 3413 3092 2934 
Q 3531 2456 3531 1663 
Q 3531 869 3092 389 
Q 2653 -91 1925 -91 
z
" transform="scale(0.015625)"/>
       <path id="DejaVuSerif-62" d="M 738 331 
L 738 4531 
L 184 4531 
L 184 4863 
L 1313 4863 
L 1313 2803 
Q 1481 3116 1742 3264 
Q 2003 3413 2388 3413 
Q 3000 3413 3387 2928 
Q 3775 2444 3775 1663 
Q 3775 881 3387 395 
Q 3000 -91 2388 -91 
Q 2003 -91 1742 57 
Q 1481 206 1313 519 
L 1313 0 
L 184 0 
L 184 331 
L 738 331 
z
M 1313 1497 
Q 1313 897 1542 583 
Q 1772 269 2209 269 
Q 2650 269 2876 622 
Q 3103 975 3103 1663 
Q 3103 2353 2876 2703 
Q 2650 3053 2209 3053 
Q 1772 3053 1542 2737 
Q 1313 2422 1313 1825 
L 1313 1497 
z
" transform="scale(0.015625)"/>
       <path id="DejaVuSerif-20" transform="scale(0.015625)"/>
       <path id="DejaVuSerif-66" d="M 2753 4078 
L 2450 4078 
Q 2447 4313 2317 4434 
Q 2188 4556 1941 4556 
Q 1619 4556 1487 4379 
Q 1356 4203 1356 3750 
L 1356 3322 
L 2284 3322 
L 2284 2988 
L 1356 2988 
L 1356 331 
L 2094 331 
L 2094 0 
L 231 0 
L 231 331 
L 781 331 
L 781 2988 
L 231 2988 
L 231 3322 
L 781 3322 
L 781 3738 
Q 781 4294 1070 4578 
Q 1359 4863 1919 4863 
Q 2128 4863 2337 4825 
Q 2547 4788 2753 4709 
L 2753 4078 
z
" transform="scale(0.015625)"/>
       <path id="DejaVuSerif-65" d="M 3469 1600 
L 991 1600 
L 991 1575 
Q 991 903 1244 561 
Q 1497 219 1991 219 
Q 2369 219 2611 417 
Q 2853 616 2950 1006 
L 3413 1006 
Q 3275 459 2904 184 
Q 2534 -91 1931 -91 
Q 1203 -91 761 389 
Q 319 869 319 1663 
Q 319 2450 753 2931 
Q 1188 3413 1894 3413 
Q 2647 3413 3050 2948 
Q 3453 2484 3469 1600 
z
M 2791 1931 
Q 2772 2513 2545 2808 
Q 2319 3103 1894 3103 
Q 1497 3103 1269 2806 
Q 1041 2509 991 1931 
L 2791 1931 
z
" transform="scale(0.015625)"/>
       <path id="DejaVuSerif-69" d="M 622 4353 
Q 622 4497 726 4603 
Q 831 4709 978 4709 
Q 1122 4709 1226 4603 
Q 1331 4497 1331 4353 
Q 1331 4206 1228 4103 
Q 1125 4000 978 4000 
Q 831 4000 726 4103 
Q 622 4206 622 4353 
z
M 1356 331 
L 1900 331 
L 1900 0 
L 231 0 
L 231 331 
L 781 331 
L 781 2988 
L 231 2988 
L 231 3322 
L 1356 3322 
L 1356 331 
z
" transform="scale(0.015625)"/>
       <path id="DejaVuSerif-6e" d="M 263 0 
L 263 331 
L 781 331 
L 781 2988 
L 231 2988 
L 231 3322 
L 1356 3322 
L 1356 2731 
Q 1516 3069 1770 3241 
Q 2025 3413 2363 3413 
Q 2913 3413 3172 3097 
Q 3431 2781 3431 2113 
L 3431 331 
L 3944 331 
L 3944 0 
L 2356 0 
L 2356 331 
L 2853 331 
L 2853 1931 
Q 2853 2541 2703 2767 
Q 2553 2994 2175 2994 
Q 1775 2994 1565 2701 
Q 1356 2409 1356 1850 
L 1356 331 
L 1856 331 
L 1856 0 
L 263 0 
z
" transform="scale(0.015625)"/>
       <path id="DejaVuSerif-67" d="M 3359 2988 
L 3359 72 
Q 3359 -644 2965 -1033 
Q 2572 -1422 1844 -1422 
Q 1516 -1422 1216 -1362 
Q 916 -1303 641 -1184 
L 641 -488 
L 941 -488 
Q 997 -813 1206 -963 
Q 1416 -1113 1806 -1113 
Q 2313 -1113 2548 -827 
Q 2784 -541 2784 72 
L 2784 519 
Q 2616 206 2355 57 
Q 2094 -91 1709 -91 
Q 1097 -91 708 395 
Q 319 881 319 1663 
Q 319 2444 706 2928 
Q 1094 3413 1709 3413 
Q 2094 3413 2355 3264 
Q 2616 3116 2784 2803 
L 2784 3322 
L 3909 3322 
L 3909 2988 
L 3359 2988 
z
M 2784 1825 
Q 2784 2422 2554 2737 
Q 2325 3053 1888 3053 
Q 1444 3053 1217 2703 
Q 991 2353 991 1663 
Q 991 975 1217 622 
Q 1444 269 1888 269 
Q 2325 269 2554 583 
Q 2784 897 2784 1497 
L 2784 1825 
z
" transform="scale(0.015625)"/>
       <path id="DejaVuSerif-Italic-53" d="M 184 225 
L 391 1288 
L 750 1284 
Q 663 753 905 498 
Q 1147 244 1744 244 
Q 2300 244 2636 464 
Q 2972 684 3053 1106 
Q 3119 1444 2976 1625 
Q 2834 1806 2300 1978 
L 1722 2163 
Q 1091 2366 877 2669 
Q 663 2972 766 3500 
Q 881 4094 1367 4422 
Q 1853 4750 2616 4750 
Q 2941 4750 3314 4679 
Q 3688 4609 4097 4475 
L 3906 3481 
L 3553 3481 
Q 3594 3975 3361 4195 
Q 3128 4416 2563 4416 
Q 2069 4416 1772 4214 
Q 1475 4013 1400 3628 
Q 1334 3294 1490 3103 
Q 1647 2913 2241 2725 
L 2784 2553 
Q 3381 2363 3593 2067 
Q 3806 1772 3709 1275 
Q 3578 597 3076 253 
Q 2575 -91 1716 -91 
Q 1331 -91 948 -12 
Q 566 66 184 225 
z
" transform="scale(0.015625)"/>
       <path id="DejaVuSerif-Italic-74" d="M 856 2988 
L 350 2988 
L 416 3322 
L 922 3322 
L 1122 4353 
L 1700 4353 
L 1500 3322 
L 2581 3322 
L 2516 2988 
L 1434 2988 
L 1025 878 
Q 978 631 978 488 
Q 978 388 1000 338 
Q 1059 219 1278 219 
Q 1503 219 1633 351 
Q 1763 484 1825 781 
L 2259 781 
Q 2147 328 1884 118 
Q 1622 -91 1169 -91 
Q 672 -91 506 131 
Q 406 266 406 516 
Q 406 675 447 878 
L 856 2988 
z
" transform="scale(0.015625)"/>
       <path id="DejaVuSerif-3d" d="M 678 2894 
L 4684 2894 
L 4684 2394 
L 678 2394 
L 678 2894 
z
M 678 1619 
L 4684 1619 
L 4684 1119 
L 678 1119 
L 678 1619 
z
" transform="scale(0.015625)"/>
      </defs>
      <use xlink:href="#DejaVuSerif-50" transform="translate(0 0.015625)"/>
      <use xlink:href="#DejaVuSerif-72" transform="translate(67.285156 0.015625)"/>
      <use xlink:href="#DejaVuSerif-6f" transform="translate(115.087891 0.015625)"/>
      <use xlink:href="#DejaVuSerif-62" transform="translate(175.292969 0.015625)"/>
      <use xlink:href="#DejaVuSerif-2e" transform="translate(239.306641 0.015625)"/>
      <use xlink:href="#DejaVuSerif-20" transform="translate(271.09375 0.015625)"/>
      <use xlink:href="#DejaVuSerif-6f" transform="translate(302.880859 0.015625)"/>
      <use xlink:href="#DejaVuSerif-66" transform="translate(363.085938 0.015625)"/>
      <use xlink:href="#DejaVuSerif-20" transform="translate(400.097656 0.015625)"/>
      <use xlink:href="#DejaVuSerif-62" transform="translate(431.884766 0.015625)"/>
      <use xlink:href="#DejaVuSerif-65" transform="translate(495.898438 0.015625)"/>
      <use xlink:href="#DejaVuSerif-69" transform="translate(555.078125 0.015625)"/>
      <use xlink:href="#DejaVuSerif-6e" transform="translate(587.060547 0.015625)"/>
      <use xlink:href="#DejaVuSerif-67" transform="translate(651.464844 0.015625)"/>
      <use xlink:href="#DejaVuSerif-20" transform="translate(715.478516 0.015625)"/>
      <use xlink:href="#DejaVuSerif-69" transform="translate(747.265625 0.015625)"/>
      <use xlink:href="#DejaVuSerif-6e" transform="translate(779.248047 0.015625)"/>
      <use xlink:href="#DejaVuSerif-20" transform="translate(843.652344 0.015625)"/>
      <use xlink:href="#DejaVuSerif-Italic-53" transform="translate(875.439453 0.015625)"/>
      <use xlink:href="#DejaVuSerif-Italic-74" transform="translate(943.945312 -15.55625) scale(0.7)"/>
      <use xlink:href="#DejaVuSerif-3d" transform="translate(993.635352 0.015625)"/>
      <use xlink:href="#DejaVuSerif-31" transform="translate(1096.389258 0.015625)"/>
     </g>
    </g>
   </g>
   <g id="line2d_26">
    <path clip-path="url(#pe0543c99c8)" style="fill: none; stroke: #1f77b4; stroke-width: 1.5; stroke-linecap: square"/>
   </g>
   <g id="patch_37">
    <path d="M 58.745313 143.278125 
L 58.745313 22.318125 
" style="fill: none; stroke: #000000; stroke-width: 0.8; stroke-linejoin: miter; stroke-linecap: square"/>
   </g>
   <g id="patch_38">
    <path d="M 415.865313 143.278125 
L 415.865313 22.318125 
" style="fill: none; stroke: #000000; stroke-width: 0.8; stroke-linejoin: miter; stroke-linecap: square"/>
   </g>
   <g id="patch_39">
    <path d="M 58.745312 143.278125 
L 415.865312 143.278125 
" style="fill: none; stroke: #000000; stroke-width: 0.8; stroke-linejoin: miter; stroke-linecap: square"/>
   </g>
   <g id="patch_40">
    <path d="M 58.745312 22.318125 
L 415.865312 22.318125 
" style="fill: none; stroke: #000000; stroke-width: 0.8; stroke-linejoin: miter; stroke-linecap: square"/>
   </g>
   <g id="text_11">
    <!-- Japan -->
    <g transform="translate(220.039375 16.318125) scale(0.12 -0.12)">
     <defs>
      <path id="DejaVuSerif-4a" d="M -538 -1119 
L -538 -384 
L -181 -384 
Q -172 -694 -34 -845 
Q 103 -997 378 -997 
Q 750 -997 897 -762 
Q 1044 -528 1044 153 
L 1044 4331 
L 319 4331 
L 319 4666 
L 2272 4666 
L 2272 4331 
L 1678 4331 
L 1678 128 
Q 1678 -644 1368 -987 
Q 1059 -1331 372 -1331 
Q 150 -1331 -79 -1278 
Q -309 -1225 -538 -1119 
z
" transform="scale(0.015625)"/>
      <path id="DejaVuSerif-61" d="M 2547 1044 
L 2547 1747 
L 1806 1747 
Q 1378 1747 1168 1562 
Q 959 1378 959 997 
Q 959 650 1171 447 
Q 1384 244 1747 244 
Q 2106 244 2326 466 
Q 2547 688 2547 1044 
z
M 3122 2075 
L 3122 331 
L 3634 331 
L 3634 0 
L 2547 0 
L 2547 359 
Q 2356 128 2106 18 
Q 1856 -91 1522 -91 
Q 969 -91 644 203 
Q 319 497 319 997 
Q 319 1513 691 1797 
Q 1063 2081 1741 2081 
L 2547 2081 
L 2547 2309 
Q 2547 2688 2317 2895 
Q 2088 3103 1672 3103 
Q 1328 3103 1125 2947 
Q 922 2791 872 2484 
L 575 2484 
L 575 3156 
Q 875 3284 1158 3348 
Q 1441 3413 1709 3413 
Q 2400 3413 2761 3070 
Q 3122 2728 3122 2075 
z
" transform="scale(0.015625)"/>
      <path id="DejaVuSerif-70" d="M 1313 1825 
L 1313 1497 
Q 1313 897 1542 583 
Q 1772 269 2209 269 
Q 2650 269 2876 622 
Q 3103 975 3103 1663 
Q 3103 2353 2876 2703 
Q 2650 3053 2209 3053 
Q 1772 3053 1542 2737 
Q 1313 2422 1313 1825 
z
M 738 2988 
L 184 2988 
L 184 3322 
L 1313 3322 
L 1313 2803 
Q 1481 3116 1742 3264 
Q 2003 3413 2388 3413 
Q 3000 3413 3387 2928 
Q 3775 2444 3775 1663 
Q 3775 881 3387 395 
Q 3000 -91 2388 -91 
Q 2003 -91 1742 57 
Q 1481 206 1313 519 
L 1313 -997 
L 1856 -997 
L 1856 -1331 
L 184 -1331 
L 184 -997 
L 738 -997 
L 738 2988 
z
" transform="scale(0.015625)"/>
     </defs>
     <use xlink:href="#DejaVuSerif-4a"/>
     <use xlink:href="#DejaVuSerif-61" x="40.087891"/>
     <use xlink:href="#DejaVuSerif-70" x="99.707031"/>
     <use xlink:href="#DejaVuSerif-61" x="163.720703"/>
     <use xlink:href="#DejaVuSerif-6e" x="223.339844"/>
    </g>
   </g>
  </g>
  <g id="axes_2">
   <g id="patch_41">
    <path d="M 58.745313 288.430125 
L 415.865313 288.430125 
L 415.865313 167.470125 
L 58.745313 167.470125 
z
" style="fill: #ffffff"/>
   </g>
   <g id="patch_42">
    <path d="M -2566.086688 288.430125 
L -2539.302688 288.430125 
L -2539.302688 167.470125 
L -2566.086688 167.470125 
z
" clip-path="url(#pa8faf4b90b)" style="fill: #d3d3d3"/>
   </g>
   <g id="patch_43">
    <path d="M -2508.054688 288.430125 
L -2490.198687 288.430125 
L -2490.198687 167.470125 
L -2508.054688 167.470125 
z
" clip-path="url(#pa8faf4b90b)" style="fill: #d3d3d3"/>
   </g>
   <g id="patch_44">
    <path d="M -2427.702688 288.430125 
L -2391.990688 288.430125 
L -2391.990688 167.470125 
L -2427.702688 167.470125 
z
" clip-path="url(#pa8faf4b90b)" style="fill: #d3d3d3"/>
   </g>
   <g id="patch_45">
    <path d="M -2351.814688 288.430125 
L -2325.030688 288.430125 
L -2325.030688 167.470125 
L -2351.814688 167.470125 
z
" clip-path="url(#pa8faf4b90b)" style="fill: #d3d3d3"/>
   </g>
   <g id="patch_46">
    <path d="M -2275.926688 288.430125 
L -2177.718688 288.430125 
L -2177.718688 167.470125 
L -2275.926688 167.470125 
z
" clip-path="url(#pa8faf4b90b)" style="fill: #d3d3d3"/>
   </g>
   <g id="patch_47">
    <path d="M -2124.150688 288.430125 
L -2066.118687 288.430125 
L -2066.118687 167.470125 
L -2124.150688 167.470125 
z
" clip-path="url(#pa8faf4b90b)" style="fill: #d3d3d3"/>
   </g>
   <g id="patch_48">
    <path d="M -2030.406688 288.430125 
L -2017.014688 288.430125 
L -2017.014688 167.470125 
L -2030.406688 167.470125 
z
" clip-path="url(#pa8faf4b90b)" style="fill: #d3d3d3"/>
   </g>
   <g id="patch_49">
    <path d="M -1972.374687 288.430125 
L -1958.982687 288.430125 
L -1958.982687 167.470125 
L -1972.374687 167.470125 
z
" clip-path="url(#pa8faf4b90b)" style="fill: #d3d3d3"/>
   </g>
   <g id="patch_50">
    <path d="M -1927.734688 288.430125 
L -1905.414688 288.430125 
L -1905.414688 167.470125 
L -1927.734688 167.470125 
z
" clip-path="url(#pa8faf4b90b)" style="fill: #d3d3d3"/>
   </g>
   <g id="patch_51">
    <path d="M -1878.630688 288.430125 
L -1851.846687 288.430125 
L -1851.846687 167.470125 
L -1878.630688 167.470125 
z
" clip-path="url(#pa8faf4b90b)" style="fill: #d3d3d3"/>
   </g>
   <g id="patch_52">
    <path d="M -1811.670687 288.430125 
L -1789.350688 288.430125 
L -1789.350688 167.470125 
L -1811.670687 167.470125 
z
" clip-path="url(#pa8faf4b90b)" style="fill: #d3d3d3"/>
   </g>
   <g id="patch_53">
    <path d="M -1753.638688 288.430125 
L -1722.390688 288.430125 
L -1722.390688 167.470125 
L -1753.638688 167.470125 
z
" clip-path="url(#pa8faf4b90b)" style="fill: #d3d3d3"/>
   </g>
   <g id="patch_54">
    <path d="M -1673.286687 288.430125 
L -1655.430687 288.430125 
L -1655.430687 167.470125 
L -1673.286687 167.470125 
z
" clip-path="url(#pa8faf4b90b)" style="fill: #d3d3d3"/>
   </g>
   <g id="patch_55">
    <path d="M -1624.182687 288.430125 
L -1592.934687 288.430125 
L -1592.934687 167.470125 
L -1624.182687 167.470125 
z
" clip-path="url(#pa8faf4b90b)" style="fill: #d3d3d3"/>
   </g>
   <g id="patch_56">
    <path d="M -1570.614687 288.430125 
L -1539.366687 288.430125 
L -1539.366687 167.470125 
L -1570.614687 167.470125 
z
" clip-path="url(#pa8faf4b90b)" style="fill: #d3d3d3"/>
   </g>
   <g id="patch_57">
    <path d="M -1472.406687 288.430125 
L -1463.478687 288.430125 
L -1463.478687 167.470125 
L -1472.406687 167.470125 
z
" clip-path="url(#pa8faf4b90b)" style="fill: #d3d3d3"/>
   </g>
   <g id="patch_58">
    <path d="M -1445.622687 288.430125 
L -1418.838687 288.430125 
L -1418.838687 167.470125 
L -1445.622687 167.470125 
z
" clip-path="url(#pa8faf4b90b)" style="fill: #d3d3d3"/>
   </g>
   <g id="patch_59">
    <path d="M -1387.590688 288.430125 
L -1365.270688 288.430125 
L -1365.270688 167.470125 
L -1387.590688 167.470125 
z
" clip-path="url(#pa8faf4b90b)" style="fill: #d3d3d3"/>
   </g>
   <g id="patch_60">
    <path d="M -1329.558687 288.430125 
L -1307.238687 288.430125 
L -1307.238687 167.470125 
L -1329.558687 167.470125 
z
" clip-path="url(#pa8faf4b90b)" style="fill: #d3d3d3"/>
   </g>
   <g id="patch_61">
    <path d="M -1275.990688 288.430125 
L -1213.494688 288.430125 
L -1213.494688 167.470125 
L -1275.990688 167.470125 
z
" clip-path="url(#pa8faf4b90b)" style="fill: #d3d3d3"/>
   </g>
   <g id="patch_62">
    <path d="M -1137.606688 288.430125 
L -1119.750688 288.430125 
L -1119.750688 167.470125 
L -1137.606688 167.470125 
z
" clip-path="url(#pa8faf4b90b)" style="fill: #d3d3d3"/>
   </g>
   <g id="patch_63">
    <path d="M -999.222688 288.430125 
L -985.830687 288.430125 
L -985.830687 167.470125 
L -999.222688 167.470125 
z
" clip-path="url(#pa8faf4b90b)" style="fill: #d3d3d3"/>
   </g>
   <g id="patch_64">
    <path d="M -932.262688 288.430125 
L -914.406688 288.430125 
L -914.406688 167.470125 
L -932.262688 167.470125 
z
" clip-path="url(#pa8faf4b90b)" style="fill: #d3d3d3"/>
   </g>
   <g id="patch_65">
    <path d="M -851.910687 288.430125 
L -834.054688 288.430125 
L -834.054688 167.470125 
L -851.910687 167.470125 
z
" clip-path="url(#pa8faf4b90b)" style="fill: #d3d3d3"/>
   </g>
   <g id="patch_66">
    <path d="M -776.022688 288.430125 
L -762.630688 288.430125 
L -762.630688 167.470125 
L -776.022688 167.470125 
z
" clip-path="url(#pa8faf4b90b)" style="fill: #d3d3d3"/>
   </g>
   <g id="patch_67">
    <path d="M -726.918688 288.430125 
L -713.526687 288.430125 
L -713.526687 167.470125 
L -726.918688 167.470125 
z
" clip-path="url(#pa8faf4b90b)" style="fill: #d3d3d3"/>
   </g>
   <g id="patch_68">
    <path d="M -557.286688 288.430125 
L -539.430688 288.430125 
L -539.430688 167.470125 
L -557.286688 167.470125 
z
" clip-path="url(#pa8faf4b90b)" style="fill: #d3d3d3"/>
   </g>
   <g id="patch_69">
    <path d="M -485.862688 288.430125 
L -463.542688 288.430125 
L -463.542688 167.470125 
L -485.862688 167.470125 
z
" clip-path="url(#pa8faf4b90b)" style="fill: #d3d3d3"/>
   </g>
   <g id="patch_70">
    <path d="M -374.262688 288.430125 
L -365.334688 288.430125 
L -365.334688 167.470125 
L -374.262688 167.470125 
z
" clip-path="url(#pa8faf4b90b)" style="fill: #d3d3d3"/>
   </g>
   <g id="patch_71">
    <path d="M -347.478688 288.430125 
L -325.158688 288.430125 
L -325.158688 167.470125 
L -347.478688 167.470125 
z
" clip-path="url(#pa8faf4b90b)" style="fill: #d3d3d3"/>
   </g>
   <g id="patch_72">
    <path d="M -186.774688 288.430125 
L -177.846688 288.430125 
L -177.846688 167.470125 
L -186.774688 167.470125 
z
" clip-path="url(#pa8faf4b90b)" style="fill: #d3d3d3"/>
   </g>
   <g id="patch_73">
    <path d="M 0.713312 288.430125 
L 14.105312 288.430125 
L 14.105312 167.470125 
L 0.713312 167.470125 
z
" clip-path="url(#pa8faf4b90b)" style="fill: #d3d3d3"/>
   </g>
   <g id="patch_74">
    <path d="M 121.241312 288.430125 
L 148.025312 288.430125 
L 148.025312 167.470125 
L 121.241312 167.470125 
z
" clip-path="url(#pa8faf4b90b)" style="fill: #d3d3d3"/>
   </g>
   <g id="patch_75">
    <path d="M 335.513312 288.430125 
L 344.441312 288.430125 
L 344.441312 167.470125 
L 335.513312 167.470125 
z
" clip-path="url(#pa8faf4b90b)" style="fill: #d3d3d3"/>
   </g>
   <g id="matplotlib.axis_3">
    <g id="xtick_21">
     <g id="line2d_27">
      <g>
       <use xlink:href="#m1701b46fc3" x="143.561312" y="288.430125" style="stroke: #000000; stroke-width: 0.8"/>
      </g>
     </g>
     <g id="text_12">
      <!-- 2009 -->
      <g transform="translate(130.836312 303.028562) scale(0.1 -0.1)">
       <use xlink:href="#DejaVuSerif-32"/>
       <use xlink:href="#DejaVuSerif-30" x="63.623047"/>
       <use xlink:href="#DejaVuSerif-30" x="127.246094"/>
       <use xlink:href="#DejaVuSerif-39" x="190.869141"/>
      </g>
     </g>
    </g>
    <g id="xtick_22">
     <g id="line2d_28">
      <g>
       <use xlink:href="#m1701b46fc3" x="232.841312" y="288.430125" style="stroke: #000000; stroke-width: 0.8"/>
      </g>
     </g>
     <g id="text_13">
      <!-- 2014 -->
      <g transform="translate(220.116312 303.028562) scale(0.1 -0.1)">
       <use xlink:href="#DejaVuSerif-32"/>
       <use xlink:href="#DejaVuSerif-30" x="63.623047"/>
       <use xlink:href="#DejaVuSerif-31" x="127.246094"/>
       <use xlink:href="#DejaVuSerif-34" x="190.869141"/>
      </g>
     </g>
    </g>
    <g id="xtick_23">
     <g id="line2d_29">
      <g>
       <use xlink:href="#m1701b46fc3" x="322.121312" y="288.430125" style="stroke: #000000; stroke-width: 0.8"/>
      </g>
     </g>
     <g id="text_14">
      <!-- 2019 -->
      <g transform="translate(309.396312 303.028562) scale(0.1 -0.1)">
       <use xlink:href="#DejaVuSerif-32"/>
       <use xlink:href="#DejaVuSerif-30" x="63.623047"/>
       <use xlink:href="#DejaVuSerif-31" x="127.246094"/>
       <use xlink:href="#DejaVuSerif-39" x="190.869141"/>
      </g>
     </g>
    </g>
    <g id="xtick_24">
     <g id="line2d_30">
      <g>
       <use xlink:href="#m1701b46fc3" x="411.401313" y="288.430125" style="stroke: #000000; stroke-width: 0.8"/>
      </g>
     </g>
     <g id="text_15">
      <!-- 2024 -->
      <g transform="translate(398.676312 303.028562) scale(0.1 -0.1)">
       <use xlink:href="#DejaVuSerif-32"/>
       <use xlink:href="#DejaVuSerif-30" x="63.623047"/>
       <use xlink:href="#DejaVuSerif-32" x="127.246094"/>
       <use xlink:href="#DejaVuSerif-34" x="190.869141"/>
      </g>
     </g>
    </g>
    <g id="xtick_25">
     <g id="line2d_31">
      <g>
       <use xlink:href="#meaa55a4bcc" x="72.137313" y="288.430125" style="stroke: #000000; stroke-width: 0.6"/>
      </g>
     </g>
    </g>
    <g id="xtick_26">
     <g id="line2d_32">
      <g>
       <use xlink:href="#meaa55a4bcc" x="89.993313" y="288.430125" style="stroke: #000000; stroke-width: 0.6"/>
      </g>
     </g>
    </g>
    <g id="xtick_27">
     <g id="line2d_33">
      <g>
       <use xlink:href="#meaa55a4bcc" x="107.849312" y="288.430125" style="stroke: #000000; stroke-width: 0.6"/>
      </g>
     </g>
    </g>
    <g id="xtick_28">
     <g id="line2d_34">
      <g>
       <use xlink:href="#meaa55a4bcc" x="125.705312" y="288.430125" style="stroke: #000000; stroke-width: 0.6"/>
      </g>
     </g>
    </g>
    <g id="xtick_29">
     <g id="line2d_35">
      <g>
       <use xlink:href="#meaa55a4bcc" x="161.417312" y="288.430125" style="stroke: #000000; stroke-width: 0.6"/>
      </g>
     </g>
    </g>
    <g id="xtick_30">
     <g id="line2d_36">
      <g>
       <use xlink:href="#meaa55a4bcc" x="179.273312" y="288.430125" style="stroke: #000000; stroke-width: 0.6"/>
      </g>
     </g>
    </g>
    <g id="xtick_31">
     <g id="line2d_37">
      <g>
       <use xlink:href="#meaa55a4bcc" x="197.129312" y="288.430125" style="stroke: #000000; stroke-width: 0.6"/>
      </g>
     </g>
    </g>
    <g id="xtick_32">
     <g id="line2d_38">
      <g>
       <use xlink:href="#meaa55a4bcc" x="214.985312" y="288.430125" style="stroke: #000000; stroke-width: 0.6"/>
      </g>
     </g>
    </g>
    <g id="xtick_33">
     <g id="line2d_39">
      <g>
       <use xlink:href="#meaa55a4bcc" x="250.697312" y="288.430125" style="stroke: #000000; stroke-width: 0.6"/>
      </g>
     </g>
    </g>
    <g id="xtick_34">
     <g id="line2d_40">
      <g>
       <use xlink:href="#meaa55a4bcc" x="268.553312" y="288.430125" style="stroke: #000000; stroke-width: 0.6"/>
      </g>
     </g>
    </g>
    <g id="xtick_35">
     <g id="line2d_41">
      <g>
       <use xlink:href="#meaa55a4bcc" x="286.409312" y="288.430125" style="stroke: #000000; stroke-width: 0.6"/>
      </g>
     </g>
    </g>
    <g id="xtick_36">
     <g id="line2d_42">
      <g>
       <use xlink:href="#meaa55a4bcc" x="304.265312" y="288.430125" style="stroke: #000000; stroke-width: 0.6"/>
      </g>
     </g>
    </g>
    <g id="xtick_37">
     <g id="line2d_43">
      <g>
       <use xlink:href="#meaa55a4bcc" x="339.977312" y="288.430125" style="stroke: #000000; stroke-width: 0.6"/>
      </g>
     </g>
    </g>
    <g id="xtick_38">
     <g id="line2d_44">
      <g>
       <use xlink:href="#meaa55a4bcc" x="357.833312" y="288.430125" style="stroke: #000000; stroke-width: 0.6"/>
      </g>
     </g>
    </g>
    <g id="xtick_39">
     <g id="line2d_45">
      <g>
       <use xlink:href="#meaa55a4bcc" x="375.689312" y="288.430125" style="stroke: #000000; stroke-width: 0.6"/>
      </g>
     </g>
    </g>
    <g id="xtick_40">
     <g id="line2d_46">
      <g>
       <use xlink:href="#meaa55a4bcc" x="393.545312" y="288.430125" style="stroke: #000000; stroke-width: 0.6"/>
      </g>
     </g>
    </g>
   </g>
   <g id="matplotlib.axis_4">
    <g id="ytick_6">
     <g id="line2d_47">
      <path d="M 58.745313 270.87674 
L 415.865313 270.87674 
" clip-path="url(#pa8faf4b90b)" style="fill: none; stroke-dasharray: 2.96,1.28; stroke-dashoffset: 0; stroke: #b0b0b0; stroke-width: 0.8"/>
     </g>
     <g id="line2d_48">
      <g>
       <use xlink:href="#m0b3001a2a0" x="58.745313" y="270.87674" style="stroke: #000000; stroke-width: 0.8"/>
      </g>
     </g>
     <g id="text_16">
      <!-- −0.10 -->
      <g transform="translate(21.1 274.675958) scale(0.1 -0.1)">
       <use xlink:href="#DejaVuSerif-2212"/>
       <use xlink:href="#DejaVuSerif-30" x="83.789062"/>
       <use xlink:href="#DejaVuSerif-2e" x="147.412109"/>
       <use xlink:href="#DejaVuSerif-31" x="179.199219"/>
       <use xlink:href="#DejaVuSerif-30" x="242.822266"/>
      </g>
     </g>
    </g>
    <g id="ytick_7">
     <g id="line2d_49">
      <path d="M 58.745313 236.529857 
L 415.865313 236.529857 
" clip-path="url(#pa8faf4b90b)" style="fill: none; stroke-dasharray: 2.96,1.28; stroke-dashoffset: 0; stroke: #b0b0b0; stroke-width: 0.8"/>
     </g>
     <g id="line2d_50">
      <g>
       <use xlink:href="#m0b3001a2a0" x="58.745313" y="236.529857" style="stroke: #000000; stroke-width: 0.8"/>
      </g>
     </g>
     <g id="text_17">
      <!-- −0.05 -->
      <g transform="translate(21.1 240.329076) scale(0.1 -0.1)">
       <defs>
        <path id="DejaVuSerif-35" d="M 3219 4666 
L 3219 4153 
L 1081 4153 
L 1081 2816 
Q 1244 2928 1461 2984 
Q 1678 3041 1947 3041 
Q 2703 3041 3140 2622 
Q 3578 2203 3578 1478 
Q 3578 738 3136 323 
Q 2694 -91 1894 -91 
Q 1572 -91 1234 -12 
Q 897 66 544 225 
L 544 1131 
L 897 1131 
Q 925 688 1179 453 
Q 1434 219 1894 219 
Q 2388 219 2653 544 
Q 2919 869 2919 1478 
Q 2919 2084 2655 2407 
Q 2391 2731 1894 2731 
Q 1613 2731 1398 2631 
Q 1184 2531 1019 2322 
L 750 2322 
L 750 4666 
L 3219 4666 
z
" transform="scale(0.015625)"/>
       </defs>
       <use xlink:href="#DejaVuSerif-2212"/>
       <use xlink:href="#DejaVuSerif-30" x="83.789062"/>
       <use xlink:href="#DejaVuSerif-2e" x="147.412109"/>
       <use xlink:href="#DejaVuSerif-30" x="179.199219"/>
       <use xlink:href="#DejaVuSerif-35" x="242.822266"/>
      </g>
     </g>
    </g>
    <g id="ytick_8">
     <g id="line2d_51">
      <path d="M 58.745313 202.182975 
L 415.865313 202.182975 
" clip-path="url(#pa8faf4b90b)" style="fill: none; stroke-dasharray: 2.96,1.28; stroke-dashoffset: 0; stroke: #b0b0b0; stroke-width: 0.8"/>
     </g>
     <g id="line2d_52">
      <g>
       <use xlink:href="#m0b3001a2a0" x="58.745313" y="202.182975" style="stroke: #000000; stroke-width: 0.8"/>
      </g>
     </g>
     <g id="text_18">
      <!-- 0.00 -->
      <g transform="translate(29.479688 205.982194) scale(0.1 -0.1)">
       <use xlink:href="#DejaVuSerif-30"/>
       <use xlink:href="#DejaVuSerif-2e" x="63.623047"/>
       <use xlink:href="#DejaVuSerif-30" x="95.410156"/>
       <use xlink:href="#DejaVuSerif-30" x="159.033203"/>
      </g>
     </g>
    </g>
    <g id="ytick_9">
     <g id="line2d_53">
      <path d="M 58.745313 167.836093 
L 415.865313 167.836093 
" clip-path="url(#pa8faf4b90b)" style="fill: none; stroke-dasharray: 2.96,1.28; stroke-dashoffset: 0; stroke: #b0b0b0; stroke-width: 0.8"/>
     </g>
     <g id="line2d_54">
      <g>
       <use xlink:href="#m0b3001a2a0" x="58.745313" y="167.836093" style="stroke: #000000; stroke-width: 0.8"/>
      </g>
     </g>
     <g id="text_19">
      <!-- 0.05 -->
      <g transform="translate(29.479688 171.635312) scale(0.1 -0.1)">
       <use xlink:href="#DejaVuSerif-30"/>
       <use xlink:href="#DejaVuSerif-2e" x="63.623047"/>
       <use xlink:href="#DejaVuSerif-30" x="95.410156"/>
       <use xlink:href="#DejaVuSerif-35" x="159.033203"/>
      </g>
     </g>
    </g>
    <g id="text_20">
     <!-- $\Delta\log v_t$ -->
     <g transform="translate(14.8 244.550125) rotate(-90) scale(0.1 -0.1)">
      <defs>
       <path id="DejaVuSerif-394" d="M 4350 0 
L 244 0 
L 2034 4666 
L 2559 4666 
L 4350 0 
z
M 3506 331 
L 2138 3909 
L 763 331 
L 3506 331 
z
" transform="scale(0.015625)"/>
       <path id="DejaVuSerif-6c" d="M 1313 331 
L 1856 331 
L 1856 0 
L 184 0 
L 184 331 
L 738 331 
L 738 4531 
L 184 4531 
L 184 4863 
L 1313 4863 
L 1313 331 
z
" transform="scale(0.015625)"/>
       <path id="DejaVuSerif-Italic-76" d="M 1681 0 
L 1259 0 
L 619 2988 
L 241 2988 
L 303 3322 
L 1163 3322 
L 1725 703 
Q 2084 1016 2325 1413 
Q 2825 2238 3003 2988 
L 2622 2988 
L 2688 3322 
L 3547 3322 
Q 3206 2034 2775 1313 
Q 2400 688 1681 0 
z
" transform="scale(0.015625)"/>
      </defs>
      <use xlink:href="#DejaVuSerif-394" transform="translate(0 0.015625)"/>
      <use xlink:href="#DejaVuSerif-6c" transform="translate(72.216797 0.015625)"/>
      <use xlink:href="#DejaVuSerif-6f" transform="translate(104.199219 0.015625)"/>
      <use xlink:href="#DejaVuSerif-67" transform="translate(164.404297 0.015625)"/>
      <use xlink:href="#DejaVuSerif-Italic-76" transform="translate(244.222321 0.015625)"/>
      <use xlink:href="#DejaVuSerif-Italic-74" transform="translate(300.716462 -15.55625) scale(0.7)"/>
     </g>
    </g>
   </g>
   <g id="line2d_55">
    <path clip-path="url(#pa8faf4b90b)" style="fill: none; stroke: #1f77b4; stroke-width: 1.5; stroke-linecap: square"/>
   </g>
   <g id="line2d_56">
    <path d="M 58.745312 206.124934 
L 63.209313 201.88417 
L 67.673312 205.022005 
L 72.137313 207.493935 
L 76.601312 201.447414 
L 81.065313 198.831404 
L 85.529312 198.894498 
L 89.993313 197.692482 
L 94.457312 199.508239 
L 98.921312 200.707852 
L 103.385312 191.01922 
L 107.849312 189.818358 
L 112.313312 190.748906 
L 116.777312 199.878269 
L 121.241312 210.159441 
L 125.705312 212.63456 
L 130.169312 216.433328 
L 134.633312 224.553297 
L 139.097312 231.873127 
L 143.561312 268.96555 
L 148.025312 261.421342 
L 152.489312 255.19047 
L 156.953312 246.242236 
L 161.417312 204.003707 
L 165.881312 207.003314 
L 170.345312 192.462122 
L 174.809312 204.650025 
L 179.273312 218.272614 
L 183.737312 236.213734 
L 188.201312 231.668627 
L 192.665312 224.975629 
L 197.129312 207.730091 
L 201.593312 204.604886 
L 206.057312 220.200856 
L 210.521313 219.728012 
L 214.985312 223.702188 
L 219.449313 209.548501 
L 223.913312 201.679069 
L 228.377313 203.781361 
L 232.841312 207.103816 
L 237.305313 207.062998 
L 241.769312 211.582901 
L 246.233313 207.026234 
L 250.697312 197.285427 
L 255.161313 196.118292 
L 259.625312 195.699515 
L 264.089313 199.5575 
L 268.553312 205.967225 
L 273.017313 213.848071 
L 277.481312 217.008057 
L 281.945312 216.277381 
L 286.409312 222.194087 
L 290.873312 215.57384 
L 295.337312 208.054363 
L 299.801312 210.0892 
L 304.265312 208.581372 
L 308.729312 210.374015 
L 313.193312 221.611213 
L 317.657312 222.029691 
L 322.121312 215.695957 
L 326.585312 213.857054 
L 331.049312 207.46217 
L 335.513312 219.252013 
L 339.977312 222.560751 
L 344.441312 282.931943 
L 348.905312 272.065062 
L 353.369312 253.498409 
L 357.833312 258.325825 
L 362.297312 203.13441 
L 366.761312 219.183123 
L 371.225312 217.382171 
L 375.689312 216.630126 
L 380.153312 213.884684 
L 384.617312 212.945948 
L 389.081312 204.462292 
L 393.545312 186.232675 
L 398.009312 176.402816 
L 402.473313 172.968307 
L 406.937312 180.828283 
L 411.401313 198.451078 
L 415.865312 198.300376 
" clip-path="url(#pa8faf4b90b)" style="fill: none; stroke: #ff7f0e; stroke-width: 1.5; stroke-linecap: square"/>
   </g>
   <g id="patch_76">
    <path d="M 58.745313 288.430125 
L 58.745313 167.470125 
" style="fill: none; stroke: #000000; stroke-width: 0.8; stroke-linejoin: miter; stroke-linecap: square"/>
   </g>
   <g id="patch_77">
    <path d="M 415.865313 288.430125 
L 415.865313 167.470125 
" style="fill: none; stroke: #000000; stroke-width: 0.8; stroke-linejoin: miter; stroke-linecap: square"/>
   </g>
   <g id="patch_78">
    <path d="M 58.745312 288.430125 
L 415.865312 288.430125 
" style="fill: none; stroke: #000000; stroke-width: 0.8; stroke-linejoin: miter; stroke-linecap: square"/>
   </g>
   <g id="patch_79">
    <path d="M 58.745312 167.470125 
L 415.865312 167.470125 
" style="fill: none; stroke: #000000; stroke-width: 0.8; stroke-linejoin: miter; stroke-linecap: square"/>
   </g>
   <g id="legend_1">
    <g id="patch_80">
     <path d="M 195.152969 283.430125 
L 279.457656 283.430125 
Q 281.457656 283.430125 281.457656 281.430125 
L 281.457656 253.073875 
Q 281.457656 251.073875 279.457656 251.073875 
L 195.152969 251.073875 
Q 193.152969 251.073875 193.152969 253.073875 
L 193.152969 281.430125 
Q 193.152969 283.430125 195.152969 283.430125 
z
" style="fill: #ffffff; opacity: 0.8; stroke: #cccccc; stroke-linejoin: miter"/>
    </g>
    <g id="line2d_57">
     <path d="M 197.152969 259.172312 
L 207.152969 259.172312 
L 217.152969 259.172312 
" style="fill: none; stroke: #1f77b4; stroke-width: 1.5; stroke-linecap: square"/>
    </g>
    <g id="text_21">
     <!-- Prediction -->
     <g transform="translate(225.152969 262.672312) scale(0.1 -0.1)">
      <defs>
       <path id="DejaVuSerif-64" d="M 3359 331 
L 3909 331 
L 3909 0 
L 2784 0 
L 2784 519 
Q 2616 206 2355 57 
Q 2094 -91 1709 -91 
Q 1097 -91 708 395 
Q 319 881 319 1663 
Q 319 2444 706 2928 
Q 1094 3413 1709 3413 
Q 2094 3413 2355 3264 
Q 2616 3116 2784 2803 
L 2784 4531 
L 2241 4531 
L 2241 4863 
L 3359 4863 
L 3359 331 
z
M 2784 1497 
L 2784 1825 
Q 2784 2422 2554 2737 
Q 2325 3053 1888 3053 
Q 1444 3053 1217 2703 
Q 991 2353 991 1663 
Q 991 975 1217 622 
Q 1444 269 1888 269 
Q 2325 269 2554 583 
Q 2784 897 2784 1497 
z
" transform="scale(0.015625)"/>
       <path id="DejaVuSerif-63" d="M 3291 997 
Q 3169 466 2822 187 
Q 2475 -91 1925 -91 
Q 1200 -91 759 389 
Q 319 869 319 1663 
Q 319 2459 759 2936 
Q 1200 3413 1925 3413 
Q 2241 3413 2553 3339 
Q 2866 3266 3181 3116 
L 3181 2266 
L 2847 2266 
Q 2781 2703 2561 2903 
Q 2341 3103 1931 3103 
Q 1466 3103 1228 2742 
Q 991 2381 991 1663 
Q 991 944 1227 581 
Q 1463 219 1931 219 
Q 2303 219 2525 412 
Q 2747 606 2828 997 
L 3291 997 
z
" transform="scale(0.015625)"/>
       <path id="DejaVuSerif-74" d="M 691 2988 
L 184 2988 
L 184 3322 
L 691 3322 
L 691 4353 
L 1269 4353 
L 1269 3322 
L 2350 3322 
L 2350 2988 
L 1269 2988 
L 1269 878 
Q 1269 456 1350 337 
Q 1431 219 1650 219 
Q 1875 219 1978 351 
Q 2081 484 2088 781 
L 2522 781 
Q 2497 328 2275 118 
Q 2053 -91 1600 -91 
Q 1103 -91 897 129 
Q 691 350 691 878 
L 691 2988 
z
" transform="scale(0.015625)"/>
      </defs>
      <use xlink:href="#DejaVuSerif-50"/>
      <use xlink:href="#DejaVuSerif-72" x="67.285156"/>
      <use xlink:href="#DejaVuSerif-65" x="115.087891"/>
      <use xlink:href="#DejaVuSerif-64" x="174.267578"/>
      <use xlink:href="#DejaVuSerif-69" x="238.28125"/>
      <use xlink:href="#DejaVuSerif-63" x="270.263672"/>
      <use xlink:href="#DejaVuSerif-74" x="326.269531"/>
      <use xlink:href="#DejaVuSerif-69" x="366.455078"/>
      <use xlink:href="#DejaVuSerif-6f" x="398.4375"/>
      <use xlink:href="#DejaVuSerif-6e" x="458.642578"/>
     </g>
    </g>
    <g id="line2d_58">
     <path d="M 197.152969 273.850437 
L 207.152969 273.850437 
L 217.152969 273.850437 
" style="fill: none; stroke: #ff7f0e; stroke-width: 1.5; stroke-linecap: square"/>
    </g>
    <g id="text_22">
     <!-- Real -->
     <g transform="translate(225.152969 277.350437) scale(0.1 -0.1)">
      <defs>
       <path id="DejaVuSerif-52" d="M 3066 2316 
Q 3284 2256 3442 2114 
Q 3600 1972 3725 1716 
L 4403 331 
L 4972 331 
L 4972 0 
L 3872 0 
L 3144 1484 
Q 2934 1916 2759 2042 
Q 2584 2169 2278 2169 
L 1581 2169 
L 1581 331 
L 2241 331 
L 2241 0 
L 353 0 
L 353 331 
L 947 331 
L 947 4331 
L 353 4331 
L 353 4666 
L 2719 4666 
Q 3400 4666 3770 4341 
Q 4141 4016 4141 3419 
Q 4141 2938 3870 2661 
Q 3600 2384 3066 2316 
z
M 1581 2503 
L 2503 2503 
Q 2975 2503 3200 2726 
Q 3425 2950 3425 3419 
Q 3425 3888 3200 4109 
Q 2975 4331 2503 4331 
L 1581 4331 
L 1581 2503 
z
" transform="scale(0.015625)"/>
      </defs>
      <use xlink:href="#DejaVuSerif-52"/>
      <use xlink:href="#DejaVuSerif-65" x="75.292969"/>
      <use xlink:href="#DejaVuSerif-61" x="134.472656"/>
      <use xlink:href="#DejaVuSerif-6c" x="194.091797"/>
     </g>
    </g>
   </g>
  </g>
 </g>
 <defs>
  <clipPath id="pe0543c99c8">
   <rect x="58.745313" y="22.318125" width="357.12" height="120.96"/>
  </clipPath>
  <clipPath id="pa8faf4b90b">
   <rect x="58.745313" y="167.470125" width="357.12" height="120.96"/>
  </clipPath>
 </defs>
</svg>
