<?xml version="1.0" encoding="utf-8" standalone="no"?>
<!DOCTYPE svg PUBLIC "-//W3C//DTD SVG 1.1//EN"
  "http://www.w3.org/Graphics/SVG/1.1/DTD/svg11.dtd">
<svg xmlns:xlink="http://www.w3.org/1999/xlink" width="432.513982pt" height="312.30825pt" viewBox="0 0 432.513982 312.30825" xmlns="http://www.w3.org/2000/svg" version="1.1">
 <metadata>
  <rdf:RDF xmlns:dc="http://purl.org/dc/elements/1.1/" xmlns:cc="http://creativecommons.org/ns#" xmlns:rdf="http://www.w3.org/1999/02/22-rdf-syntax-ns#">
   <cc:Work>
    <dc:type rdf:resource="http://purl.org/dc/dcmitype/StillImage"/>
    <dc:date>2024-11-06T21:53:01.981339</dc:date>
    <dc:format>image/svg+xml</dc:format>
    <dc:creator>
     <cc:Agent>
      <dc:title>Matplotlib v3.9.0, https://matplotlib.org/</dc:title>
     </cc:Agent>
    </dc:creator>
   </cc:Work>
  </rdf:RDF>
 </metadata>
 <defs>
  <style type="text/css">*{stroke-linejoin: round; stroke-linecap: butt}</style>
 </defs>
 <g id="figure_1">
  <g id="patch_1">
   <path d="M 0 312.30825 
L 432.513982 312.30825 
L 432.513982 0 
L 0 0 
z
" style="fill: #ffffff"/>
  </g>
  <g id="axes_1">
   <g id="patch_2">
    <path d="M 58.745313 143.278125 
L 415.865313 143.278125 
L 415.865313 22.318125 
L 58.745313 22.318125 
z
" style="fill: #ffffff"/>
   </g>
   <g id="patch_3">
    <path d="M -1772.723311 143.278125 
L -1753.06533 143.278125 
L -1753.06533 22.318125 
L -1772.723311 22.318125 
z
" clip-path="url(#p7cedc85557)" style="fill: #d3d3d3"/>
   </g>
   <g id="patch_4">
    <path d="M -1730.131018 143.278125 
L -1717.025697 143.278125 
L -1717.025697 22.318125 
L -1730.131018 22.318125 
z
" clip-path="url(#p7cedc85557)" style="fill: #d3d3d3"/>
   </g>
   <g id="patch_5">
    <path d="M -1671.157073 143.278125 
L -1644.946431 143.278125 
L -1644.946431 22.318125 
L -1671.157073 22.318125 
z
" clip-path="url(#p7cedc85557)" style="fill: #d3d3d3"/>
   </g>
   <g id="patch_6">
    <path d="M -1615.459458 143.278125 
L -1595.801476 143.278125 
L -1595.801476 22.318125 
L -1615.459458 22.318125 
z
" clip-path="url(#p7cedc85557)" style="fill: #d3d3d3"/>
   </g>
   <g id="patch_7">
    <path d="M -1559.761843 143.278125 
L -1487.682577 143.278125 
L -1487.682577 22.318125 
L -1559.761843 22.318125 
z
" clip-path="url(#p7cedc85557)" style="fill: #d3d3d3"/>
   </g>
   <g id="patch_8">
    <path d="M -1448.366614 143.278125 
L -1405.774321 143.278125 
L -1405.774321 22.318125 
L -1448.366614 22.318125 
z
" clip-path="url(#p7cedc85557)" style="fill: #d3d3d3"/>
   </g>
   <g id="patch_9">
    <path d="M -1379.563678 143.278125 
L -1369.734688 143.278125 
L -1369.734688 22.318125 
L -1379.563678 22.318125 
z
" clip-path="url(#p7cedc85557)" style="fill: #d3d3d3"/>
   </g>
   <g id="patch_10">
    <path d="M -1336.971385 143.278125 
L -1327.142394 143.278125 
L -1327.142394 22.318125 
L -1336.971385 22.318125 
z
" clip-path="url(#p7cedc85557)" style="fill: #d3d3d3"/>
   </g>
   <g id="patch_11">
    <path d="M -1304.208082 143.278125 
L -1287.826431 143.278125 
L -1287.826431 22.318125 
L -1304.208082 22.318125 
z
" clip-path="url(#p7cedc85557)" style="fill: #d3d3d3"/>
   </g>
   <g id="patch_12">
    <path d="M -1268.168449 143.278125 
L -1248.510467 143.278125 
L -1248.510467 22.318125 
L -1268.168449 22.318125 
z
" clip-path="url(#p7cedc85557)" style="fill: #d3d3d3"/>
   </g>
   <g id="patch_13">
    <path d="M -1219.023495 143.278125 
L -1202.641843 143.278125 
L -1202.641843 22.318125 
L -1219.023495 22.318125 
z
" clip-path="url(#p7cedc85557)" style="fill: #d3d3d3"/>
   </g>
   <g id="patch_14">
    <path d="M -1176.431201 143.278125 
L -1153.496889 143.278125 
L -1153.496889 22.318125 
L -1176.431201 22.318125 
z
" clip-path="url(#p7cedc85557)" style="fill: #d3d3d3"/>
   </g>
   <g id="patch_15">
    <path d="M -1117.457256 143.278125 
L -1104.351935 143.278125 
L -1104.351935 22.318125 
L -1117.457256 22.318125 
z
" clip-path="url(#p7cedc85557)" style="fill: #d3d3d3"/>
   </g>
   <g id="patch_16">
    <path d="M -1081.417623 143.278125 
L -1058.483311 143.278125 
L -1058.483311 22.318125 
L -1081.417623 22.318125 
z
" clip-path="url(#p7cedc85557)" style="fill: #d3d3d3"/>
   </g>
   <g id="patch_17">
    <path d="M -1042.10166 143.278125 
L -1019.167348 143.278125 
L -1019.167348 22.318125 
L -1042.10166 22.318125 
z
" clip-path="url(#p7cedc85557)" style="fill: #d3d3d3"/>
   </g>
   <g id="patch_18">
    <path d="M -970.022394 143.278125 
L -963.469733 143.278125 
L -963.469733 22.318125 
L -970.022394 22.318125 
z
" clip-path="url(#p7cedc85557)" style="fill: #d3d3d3"/>
   </g>
   <g id="patch_19">
    <path d="M -950.364412 143.278125 
L -930.706431 143.278125 
L -930.706431 22.318125 
L -950.364412 22.318125 
z
" clip-path="url(#p7cedc85557)" style="fill: #d3d3d3"/>
   </g>
   <g id="patch_20">
    <path d="M -907.772119 143.278125 
L -891.390467 143.278125 
L -891.390467 22.318125 
L -907.772119 22.318125 
z
" clip-path="url(#p7cedc85557)" style="fill: #d3d3d3"/>
   </g>
   <g id="patch_21">
    <path d="M -865.179825 143.278125 
L -848.798174 143.278125 
L -848.798174 22.318125 
L -865.179825 22.318125 
z
" clip-path="url(#p7cedc85557)" style="fill: #d3d3d3"/>
   </g>
   <g id="patch_22">
    <path d="M -825.863862 143.278125 
L -779.995238 143.278125 
L -779.995238 22.318125 
L -825.863862 22.318125 
z
" clip-path="url(#p7cedc85557)" style="fill: #d3d3d3"/>
   </g>
   <g id="patch_23">
    <path d="M -724.297623 143.278125 
L -711.192302 143.278125 
L -711.192302 22.318125 
L -724.297623 22.318125 
z
" clip-path="url(#p7cedc85557)" style="fill: #d3d3d3"/>
   </g>
   <g id="patch_24">
    <path d="M -622.731385 143.278125 
L -612.902394 143.278125 
L -612.902394 22.318125 
L -622.731385 22.318125 
z
" clip-path="url(#p7cedc85557)" style="fill: #d3d3d3"/>
   </g>
   <g id="patch_25">
    <path d="M -573.586431 143.278125 
L -560.48111 143.278125 
L -560.48111 22.318125 
L -573.586431 22.318125 
z
" clip-path="url(#p7cedc85557)" style="fill: #d3d3d3"/>
   </g>
   <g id="patch_26">
    <path d="M -514.612486 143.278125 
L -501.507165 143.278125 
L -501.507165 22.318125 
L -514.612486 22.318125 
z
" clip-path="url(#p7cedc85557)" style="fill: #d3d3d3"/>
   </g>
   <g id="patch_27">
    <path d="M -458.914871 143.278125 
L -449.08588 143.278125 
L -449.08588 22.318125 
L -458.914871 22.318125 
z
" clip-path="url(#p7cedc85557)" style="fill: #d3d3d3"/>
   </g>
   <g id="patch_28">
    <path d="M -422.875238 143.278125 
L -413.046247 143.278125 
L -413.046247 22.318125 
L -422.875238 22.318125 
z
" clip-path="url(#p7cedc85557)" style="fill: #d3d3d3"/>
   </g>
   <g id="patch_29">
    <path d="M -298.374688 143.278125 
L -285.269366 143.278125 
L -285.269366 22.318125 
L -298.374688 22.318125 
z
" clip-path="url(#p7cedc85557)" style="fill: #d3d3d3"/>
   </g>
   <g id="patch_30">
    <path d="M -245.953403 143.278125 
L -229.571752 143.278125 
L -229.571752 22.318125 
L -245.953403 22.318125 
z
" clip-path="url(#p7cedc85557)" style="fill: #d3d3d3"/>
   </g>
   <g id="patch_31">
    <path d="M -164.045146 143.278125 
L -157.492486 143.278125 
L -157.492486 22.318125 
L -164.045146 22.318125 
z
" clip-path="url(#p7cedc85557)" style="fill: #d3d3d3"/>
   </g>
   <g id="patch_32">
    <path d="M -144.387165 143.278125 
L -128.005513 143.278125 
L -128.005513 22.318125 
L -144.387165 22.318125 
z
" clip-path="url(#p7cedc85557)" style="fill: #d3d3d3"/>
   </g>
   <g id="patch_33">
    <path d="M -26.439275 143.278125 
L -19.886614 143.278125 
L -19.886614 22.318125 
L -26.439275 22.318125 
z
" clip-path="url(#p7cedc85557)" style="fill: #d3d3d3"/>
   </g>
   <g id="patch_34">
    <path d="M 111.166597 143.278125 
L 120.995588 143.278125 
L 120.995588 22.318125 
L 111.166597 22.318125 
z
" clip-path="url(#p7cedc85557)" style="fill: #d3d3d3"/>
   </g>
   <g id="patch_35">
    <path d="M 199.627514 143.278125 
L 219.285496 143.278125 
L 219.285496 22.318125 
L 199.627514 22.318125 
z
" clip-path="url(#p7cedc85557)" style="fill: #d3d3d3"/>
   </g>
   <g id="patch_36">
    <path d="M 356.891368 143.278125 
L 363.444028 143.278125 
L 363.444028 22.318125 
L 356.891368 22.318125 
z
" clip-path="url(#p7cedc85557)" style="fill: #d3d3d3"/>
   </g>
   <g id="matplotlib.axis_1">
    <g id="xtick_1">
     <g id="line2d_1">
      <defs>
       <path id="m8bcbd1c8bb" d="M 0 0 
L 0 3.5 
" style="stroke: #000000; stroke-width: 0.8"/>
      </defs>
      <g>
       <use xlink:href="#m8bcbd1c8bb" x="84.955955" y="143.278125" style="stroke: #000000; stroke-width: 0.8"/>
      </g>
     </g>
     <g id="text_1">
      <!-- 1999 -->
      <g transform="translate(72.230955 157.876562) scale(0.1 -0.1)">
       <defs>
        <path id="DejaVuSerif-31" d="M 909 0 
L 909 331 
L 1722 331 
L 1722 4213 
L 781 3603 
L 781 4013 
L 1919 4750 
L 2350 4750 
L 2350 331 
L 3163 331 
L 3163 0 
L 909 0 
z
" transform="scale(0.015625)"/>
        <path id="DejaVuSerif-39" d="M 2994 2091 
Q 2784 1856 2512 1740 
Q 2241 1625 1900 1625 
Q 1206 1625 804 2044 
Q 403 2463 403 3188 
Q 403 3897 839 4323 
Q 1275 4750 2003 4750 
Q 2794 4750 3217 4161 
Q 3641 3572 3641 2478 
Q 3641 1253 3137 581 
Q 2634 -91 1722 -91 
Q 1475 -91 1203 -44 
Q 931 3 647 97 
L 647 872 
L 997 872 
Q 1038 556 1241 387 
Q 1444 219 1784 219 
Q 2391 219 2687 676 
Q 2984 1134 2994 2091 
z
M 1978 4441 
Q 1534 4441 1298 4117 
Q 1063 3794 1063 3188 
Q 1063 2581 1298 2256 
Q 1534 1931 1978 1931 
Q 2422 1931 2658 2245 
Q 2894 2559 2894 3150 
Q 2894 3772 2656 4106 
Q 2419 4441 1978 4441 
z
" transform="scale(0.015625)"/>
       </defs>
       <use xlink:href="#DejaVuSerif-31"/>
       <use xlink:href="#DejaVuSerif-39" x="63.623047"/>
       <use xlink:href="#DejaVuSerif-39" x="127.246094"/>
       <use xlink:href="#DejaVuSerif-39" x="190.869141"/>
      </g>
     </g>
    </g>
    <g id="xtick_2">
     <g id="line2d_2">
      <g>
       <use xlink:href="#m8bcbd1c8bb" x="150.48256" y="143.278125" style="stroke: #000000; stroke-width: 0.8"/>
      </g>
     </g>
     <g id="text_2">
      <!-- 2004 -->
      <g transform="translate(137.75756 157.876562) scale(0.1 -0.1)">
       <defs>
        <path id="DejaVuSerif-32" d="M 819 3553 
L 469 3553 
L 469 4384 
Q 803 4563 1142 4656 
Q 1481 4750 1806 4750 
Q 2534 4750 2956 4397 
Q 3378 4044 3378 3438 
Q 3378 2753 2422 1800 
Q 2347 1728 2309 1691 
L 1131 513 
L 3078 513 
L 3078 1088 
L 3444 1088 
L 3444 0 
L 434 0 
L 434 341 
L 1850 1753 
Q 2319 2222 2519 2614 
Q 2719 3006 2719 3438 
Q 2719 3909 2473 4175 
Q 2228 4441 1797 4441 
Q 1350 4441 1106 4219 
Q 863 3997 819 3553 
z
" transform="scale(0.015625)"/>
        <path id="DejaVuSerif-30" d="M 2034 219 
Q 2513 219 2750 744 
Q 2988 1269 2988 2328 
Q 2988 3391 2750 3916 
Q 2513 4441 2034 4441 
Q 1556 4441 1318 3916 
Q 1081 3391 1081 2328 
Q 1081 1269 1318 744 
Q 1556 219 2034 219 
z
M 2034 -91 
Q 1275 -91 848 546 
Q 422 1184 422 2328 
Q 422 3475 848 4112 
Q 1275 4750 2034 4750 
Q 2797 4750 3222 4112 
Q 3647 3475 3647 2328 
Q 3647 1184 3222 546 
Q 2797 -91 2034 -91 
z
" transform="scale(0.015625)"/>
        <path id="DejaVuSerif-34" d="M 2234 1581 
L 2234 4063 
L 641 1581 
L 2234 1581 
z
M 3609 0 
L 1484 0 
L 1484 331 
L 2234 331 
L 2234 1247 
L 197 1247 
L 197 1588 
L 2241 4750 
L 2859 4750 
L 2859 1581 
L 3750 1581 
L 3750 1247 
L 2859 1247 
L 2859 331 
L 3609 331 
L 3609 0 
z
" transform="scale(0.015625)"/>
       </defs>
       <use xlink:href="#DejaVuSerif-32"/>
       <use xlink:href="#DejaVuSerif-30" x="63.623047"/>
       <use xlink:href="#DejaVuSerif-30" x="127.246094"/>
       <use xlink:href="#DejaVuSerif-34" x="190.869141"/>
      </g>
     </g>
    </g>
    <g id="xtick_3">
     <g id="line2d_3">
      <g>
       <use xlink:href="#m8bcbd1c8bb" x="216.009166" y="143.278125" style="stroke: #000000; stroke-width: 0.8"/>
      </g>
     </g>
     <g id="text_3">
      <!-- 2009 -->
      <g transform="translate(203.284166 157.876562) scale(0.1 -0.1)">
       <use xlink:href="#DejaVuSerif-32"/>
       <use xlink:href="#DejaVuSerif-30" x="63.623047"/>
       <use xlink:href="#DejaVuSerif-30" x="127.246094"/>
       <use xlink:href="#DejaVuSerif-39" x="190.869141"/>
      </g>
     </g>
    </g>
    <g id="xtick_4">
     <g id="line2d_4">
      <g>
       <use xlink:href="#m8bcbd1c8bb" x="281.535771" y="143.278125" style="stroke: #000000; stroke-width: 0.8"/>
      </g>
     </g>
     <g id="text_4">
      <!-- 2014 -->
      <g transform="translate(268.810771 157.876562) scale(0.1 -0.1)">
       <use xlink:href="#DejaVuSerif-32"/>
       <use xlink:href="#DejaVuSerif-30" x="63.623047"/>
       <use xlink:href="#DejaVuSerif-31" x="127.246094"/>
       <use xlink:href="#DejaVuSerif-34" x="190.869141"/>
      </g>
     </g>
    </g>
    <g id="xtick_5">
     <g id="line2d_5">
      <g>
       <use xlink:href="#m8bcbd1c8bb" x="347.062377" y="143.278125" style="stroke: #000000; stroke-width: 0.8"/>
      </g>
     </g>
     <g id="text_5">
      <!-- 2019 -->
      <g transform="translate(334.337377 157.876562) scale(0.1 -0.1)">
       <use xlink:href="#DejaVuSerif-32"/>
       <use xlink:href="#DejaVuSerif-30" x="63.623047"/>
       <use xlink:href="#DejaVuSerif-31" x="127.246094"/>
       <use xlink:href="#DejaVuSerif-39" x="190.869141"/>
      </g>
     </g>
    </g>
    <g id="xtick_6">
     <g id="line2d_6">
      <g>
       <use xlink:href="#m8bcbd1c8bb" x="412.588982" y="143.278125" style="stroke: #000000; stroke-width: 0.8"/>
      </g>
     </g>
     <g id="text_6">
      <!-- 2024 -->
      <g transform="translate(399.863982 157.876562) scale(0.1 -0.1)">
       <use xlink:href="#DejaVuSerif-32"/>
       <use xlink:href="#DejaVuSerif-30" x="63.623047"/>
       <use xlink:href="#DejaVuSerif-32" x="127.246094"/>
       <use xlink:href="#DejaVuSerif-34" x="190.869141"/>
      </g>
     </g>
    </g>
    <g id="xtick_7">
     <g id="line2d_7">
      <defs>
       <path id="m3e6c3ce06b" d="M 0 0 
L 0 2 
" style="stroke: #000000; stroke-width: 0.6"/>
      </defs>
      <g>
       <use xlink:href="#m3e6c3ce06b" x="58.745312" y="143.278125" style="stroke: #000000; stroke-width: 0.6"/>
      </g>
     </g>
    </g>
    <g id="xtick_8">
     <g id="line2d_8">
      <g>
       <use xlink:href="#m3e6c3ce06b" x="71.850634" y="143.278125" style="stroke: #000000; stroke-width: 0.6"/>
      </g>
     </g>
    </g>
    <g id="xtick_9">
     <g id="line2d_9">
      <g>
       <use xlink:href="#m3e6c3ce06b" x="98.061276" y="143.278125" style="stroke: #000000; stroke-width: 0.6"/>
      </g>
     </g>
    </g>
    <g id="xtick_10">
     <g id="line2d_10">
      <g>
       <use xlink:href="#m3e6c3ce06b" x="111.166597" y="143.278125" style="stroke: #000000; stroke-width: 0.6"/>
      </g>
     </g>
    </g>
    <g id="xtick_11">
     <g id="line2d_11">
      <g>
       <use xlink:href="#m3e6c3ce06b" x="124.271918" y="143.278125" style="stroke: #000000; stroke-width: 0.6"/>
      </g>
     </g>
    </g>
    <g id="xtick_12">
     <g id="line2d_12">
      <g>
       <use xlink:href="#m3e6c3ce06b" x="137.377239" y="143.278125" style="stroke: #000000; stroke-width: 0.6"/>
      </g>
     </g>
    </g>
    <g id="xtick_13">
     <g id="line2d_13">
      <g>
       <use xlink:href="#m3e6c3ce06b" x="163.587881" y="143.278125" style="stroke: #000000; stroke-width: 0.6"/>
      </g>
     </g>
    </g>
    <g id="xtick_14">
     <g id="line2d_14">
      <g>
       <use xlink:href="#m3e6c3ce06b" x="176.693202" y="143.278125" style="stroke: #000000; stroke-width: 0.6"/>
      </g>
     </g>
    </g>
    <g id="xtick_15">
     <g id="line2d_15">
      <g>
       <use xlink:href="#m3e6c3ce06b" x="189.798524" y="143.278125" style="stroke: #000000; stroke-width: 0.6"/>
      </g>
     </g>
    </g>
    <g id="xtick_16">
     <g id="line2d_16">
      <g>
       <use xlink:href="#m3e6c3ce06b" x="202.903845" y="143.278125" style="stroke: #000000; stroke-width: 0.6"/>
      </g>
     </g>
    </g>
    <g id="xtick_17">
     <g id="line2d_17">
      <g>
       <use xlink:href="#m3e6c3ce06b" x="229.114487" y="143.278125" style="stroke: #000000; stroke-width: 0.6"/>
      </g>
     </g>
    </g>
    <g id="xtick_18">
     <g id="line2d_18">
      <g>
       <use xlink:href="#m3e6c3ce06b" x="242.219808" y="143.278125" style="stroke: #000000; stroke-width: 0.6"/>
      </g>
     </g>
    </g>
    <g id="xtick_19">
     <g id="line2d_19">
      <g>
       <use xlink:href="#m3e6c3ce06b" x="255.325129" y="143.278125" style="stroke: #000000; stroke-width: 0.6"/>
      </g>
     </g>
    </g>
    <g id="xtick_20">
     <g id="line2d_20">
      <g>
       <use xlink:href="#m3e6c3ce06b" x="268.43045" y="143.278125" style="stroke: #000000; stroke-width: 0.6"/>
      </g>
     </g>
    </g>
    <g id="xtick_21">
     <g id="line2d_21">
      <g>
       <use xlink:href="#m3e6c3ce06b" x="294.641092" y="143.278125" style="stroke: #000000; stroke-width: 0.6"/>
      </g>
     </g>
    </g>
    <g id="xtick_22">
     <g id="line2d_22">
      <g>
       <use xlink:href="#m3e6c3ce06b" x="307.746413" y="143.278125" style="stroke: #000000; stroke-width: 0.6"/>
      </g>
     </g>
    </g>
    <g id="xtick_23">
     <g id="line2d_23">
      <g>
       <use xlink:href="#m3e6c3ce06b" x="320.851735" y="143.278125" style="stroke: #000000; stroke-width: 0.6"/>
      </g>
     </g>
    </g>
    <g id="xtick_24">
     <g id="line2d_24">
      <g>
       <use xlink:href="#m3e6c3ce06b" x="333.957056" y="143.278125" style="stroke: #000000; stroke-width: 0.6"/>
      </g>
     </g>
    </g>
    <g id="xtick_25">
     <g id="line2d_25">
      <g>
       <use xlink:href="#m3e6c3ce06b" x="360.167698" y="143.278125" style="stroke: #000000; stroke-width: 0.6"/>
      </g>
     </g>
    </g>
    <g id="xtick_26">
     <g id="line2d_26">
      <g>
       <use xlink:href="#m3e6c3ce06b" x="373.273019" y="143.278125" style="stroke: #000000; stroke-width: 0.6"/>
      </g>
     </g>
    </g>
    <g id="xtick_27">
     <g id="line2d_27">
      <g>
       <use xlink:href="#m3e6c3ce06b" x="386.37834" y="143.278125" style="stroke: #000000; stroke-width: 0.6"/>
      </g>
     </g>
    </g>
    <g id="xtick_28">
     <g id="line2d_28">
      <g>
       <use xlink:href="#m3e6c3ce06b" x="399.483661" y="143.278125" style="stroke: #000000; stroke-width: 0.6"/>
      </g>
     </g>
    </g>
   </g>
   <g id="matplotlib.axis_2">
    <g id="ytick_1">
     <g id="line2d_29">
      <defs>
       <path id="md9ea9bd5eb" d="M 0 0 
L -3.5 0 
" style="stroke: #000000; stroke-width: 0.8"/>
      </defs>
      <g>
       <use xlink:href="#md9ea9bd5eb" x="58.745313" y="137.784461" style="stroke: #000000; stroke-width: 0.8"/>
      </g>
     </g>
     <g id="text_7">
      <!-- 0.0 -->
      <g transform="translate(35.842188 141.58368) scale(0.1 -0.1)">
       <defs>
        <path id="DejaVuSerif-2e" d="M 603 325 
Q 603 500 722 622 
Q 841 744 1019 744 
Q 1191 744 1312 622 
Q 1434 500 1434 325 
Q 1434 153 1312 31 
Q 1191 -91 1019 -91 
Q 841 -91 722 29 
Q 603 150 603 325 
z
" transform="scale(0.015625)"/>
       </defs>
       <use xlink:href="#DejaVuSerif-30"/>
       <use xlink:href="#DejaVuSerif-2e" x="63.623047"/>
       <use xlink:href="#DejaVuSerif-30" x="95.410156"/>
      </g>
     </g>
    </g>
    <g id="ytick_2">
     <g id="line2d_30">
      <g>
       <use xlink:href="#md9ea9bd5eb" x="58.745313" y="115.790829" style="stroke: #000000; stroke-width: 0.8"/>
      </g>
     </g>
     <g id="text_8">
      <!-- 0.2 -->
      <g transform="translate(35.842188 119.590048) scale(0.1 -0.1)">
       <use xlink:href="#DejaVuSerif-30"/>
       <use xlink:href="#DejaVuSerif-2e" x="63.623047"/>
       <use xlink:href="#DejaVuSerif-32" x="95.410156"/>
      </g>
     </g>
    </g>
    <g id="ytick_3">
     <g id="line2d_31">
      <g>
       <use xlink:href="#md9ea9bd5eb" x="58.745313" y="93.797197" style="stroke: #000000; stroke-width: 0.8"/>
      </g>
     </g>
     <g id="text_9">
      <!-- 0.4 -->
      <g transform="translate(35.842188 97.596416) scale(0.1 -0.1)">
       <use xlink:href="#DejaVuSerif-30"/>
       <use xlink:href="#DejaVuSerif-2e" x="63.623047"/>
       <use xlink:href="#DejaVuSerif-34" x="95.410156"/>
      </g>
     </g>
    </g>
    <g id="ytick_4">
     <g id="line2d_32">
      <g>
       <use xlink:href="#md9ea9bd5eb" x="58.745313" y="71.803564" style="stroke: #000000; stroke-width: 0.8"/>
      </g>
     </g>
     <g id="text_10">
      <!-- 0.6 -->
      <g transform="translate(35.842188 75.602783) scale(0.1 -0.1)">
       <defs>
        <path id="DejaVuSerif-36" d="M 2094 219 
Q 2534 219 2771 542 
Q 3009 866 3009 1472 
Q 3009 2078 2771 2401 
Q 2534 2725 2094 2725 
Q 1647 2725 1412 2412 
Q 1178 2100 1178 1509 
Q 1178 888 1415 553 
Q 1653 219 2094 219 
z
M 1075 2569 
Q 1288 2803 1556 2918 
Q 1825 3034 2163 3034 
Q 2859 3034 3264 2615 
Q 3669 2197 3669 1472 
Q 3669 763 3233 336 
Q 2797 -91 2069 -91 
Q 1278 -91 853 498 
Q 428 1088 428 2181 
Q 428 3406 931 4078 
Q 1434 4750 2350 4750 
Q 2597 4750 2869 4703 
Q 3141 4656 3425 4563 
L 3425 3794 
L 3072 3794 
Q 3034 4109 2831 4275 
Q 2628 4441 2284 4441 
Q 1678 4441 1381 3981 
Q 1084 3522 1075 2569 
z
" transform="scale(0.015625)"/>
       </defs>
       <use xlink:href="#DejaVuSerif-30"/>
       <use xlink:href="#DejaVuSerif-2e" x="63.623047"/>
       <use xlink:href="#DejaVuSerif-36" x="95.410156"/>
      </g>
     </g>
    </g>
    <g id="ytick_5">
     <g id="line2d_33">
      <g>
       <use xlink:href="#md9ea9bd5eb" x="58.745313" y="49.809932" style="stroke: #000000; stroke-width: 0.8"/>
      </g>
     </g>
     <g id="text_11">
      <!-- 0.8 -->
      <g transform="translate(35.842188 53.609151) scale(0.1 -0.1)">
       <defs>
        <path id="DejaVuSerif-38" d="M 2981 1275 
Q 2981 1775 2732 2051 
Q 2484 2328 2034 2328 
Q 1584 2328 1336 2051 
Q 1088 1775 1088 1275 
Q 1088 772 1336 495 
Q 1584 219 2034 219 
Q 2484 219 2732 495 
Q 2981 772 2981 1275 
z
M 2853 3541 
Q 2853 3966 2637 4203 
Q 2422 4441 2034 4441 
Q 1650 4441 1433 4203 
Q 1216 3966 1216 3541 
Q 1216 3113 1433 2875 
Q 1650 2638 2034 2638 
Q 2422 2638 2637 2875 
Q 2853 3113 2853 3541 
z
M 2516 2484 
Q 3047 2413 3344 2092 
Q 3641 1772 3641 1275 
Q 3641 619 3225 264 
Q 2809 -91 2034 -91 
Q 1263 -91 845 264 
Q 428 619 428 1275 
Q 428 1772 725 2092 
Q 1022 2413 1556 2484 
Q 1084 2569 832 2842 
Q 581 3116 581 3541 
Q 581 4103 968 4426 
Q 1356 4750 2034 4750 
Q 2713 4750 3100 4426 
Q 3488 4103 3488 3541 
Q 3488 3116 3236 2842 
Q 2984 2569 2516 2484 
z
" transform="scale(0.015625)"/>
       </defs>
       <use xlink:href="#DejaVuSerif-30"/>
       <use xlink:href="#DejaVuSerif-2e" x="63.623047"/>
       <use xlink:href="#DejaVuSerif-38" x="95.410156"/>
      </g>
     </g>
    </g>
    <g id="ytick_6">
     <g id="line2d_34">
      <g>
       <use xlink:href="#md9ea9bd5eb" x="58.745313" y="27.8163" style="stroke: #000000; stroke-width: 0.8"/>
      </g>
     </g>
     <g id="text_12">
      <!-- 1.0 -->
      <g transform="translate(35.842188 31.615519) scale(0.1 -0.1)">
       <use xlink:href="#DejaVuSerif-31"/>
       <use xlink:href="#DejaVuSerif-2e" x="63.623047"/>
       <use xlink:href="#DejaVuSerif-30" x="95.410156"/>
      </g>
     </g>
    </g>
    <g id="text_13">
     <!-- Prob. of being in $S_t=1$ -->
     <g transform="translate(29.542187 140.848125) rotate(-90) scale(0.1 -0.1)">
      <defs>
       <path id="DejaVuSerif-50" d="M 1581 2375 
L 2406 2375 
Q 2872 2375 3115 2626 
Q 3359 2878 3359 3353 
Q 3359 3831 3115 4081 
Q 2872 4331 2406 4331 
L 1581 4331 
L 1581 2375 
z
M 353 0 
L 353 331 
L 947 331 
L 947 4331 
L 353 4331 
L 353 4666 
L 2559 4666 
Q 3259 4666 3668 4311 
Q 4078 3956 4078 3353 
Q 4078 2753 3668 2397 
Q 3259 2041 2559 2041 
L 1581 2041 
L 1581 331 
L 2303 331 
L 2303 0 
L 353 0 
z
" transform="scale(0.015625)"/>
       <path id="DejaVuSerif-72" d="M 3059 3328 
L 3059 2497 
L 2728 2497 
Q 2713 2744 2591 2866 
Q 2469 2988 2234 2988 
Q 1809 2988 1582 2694 
Q 1356 2400 1356 1850 
L 1356 331 
L 2022 331 
L 2022 0 
L 263 0 
L 263 331 
L 781 331 
L 781 2994 
L 231 2994 
L 231 3322 
L 1356 3322 
L 1356 2731 
Q 1525 3078 1790 3245 
Q 2056 3413 2438 3413 
Q 2578 3413 2733 3391 
Q 2888 3369 3059 3328 
z
" transform="scale(0.015625)"/>
       <path id="DejaVuSerif-6f" d="M 1925 219 
Q 2388 219 2623 584 
Q 2859 950 2859 1663 
Q 2859 2375 2623 2739 
Q 2388 3103 1925 3103 
Q 1463 3103 1227 2739 
Q 991 2375 991 1663 
Q 991 950 1228 584 
Q 1466 219 1925 219 
z
M 1925 -91 
Q 1200 -91 759 389 
Q 319 869 319 1663 
Q 319 2456 758 2934 
Q 1197 3413 1925 3413 
Q 2653 3413 3092 2934 
Q 3531 2456 3531 1663 
Q 3531 869 3092 389 
Q 2653 -91 1925 -91 
z
" transform="scale(0.015625)"/>
       <path id="DejaVuSerif-62" d="M 738 331 
L 738 4531 
L 184 4531 
L 184 4863 
L 1313 4863 
L 1313 2803 
Q 1481 3116 1742 3264 
Q 2003 3413 2388 3413 
Q 3000 3413 3387 2928 
Q 3775 2444 3775 1663 
Q 3775 881 3387 395 
Q 3000 -91 2388 -91 
Q 2003 -91 1742 57 
Q 1481 206 1313 519 
L 1313 0 
L 184 0 
L 184 331 
L 738 331 
z
M 1313 1497 
Q 1313 897 1542 583 
Q 1772 269 2209 269 
Q 2650 269 2876 622 
Q 3103 975 3103 1663 
Q 3103 2353 2876 2703 
Q 2650 3053 2209 3053 
Q 1772 3053 1542 2737 
Q 1313 2422 1313 1825 
L 1313 1497 
z
" transform="scale(0.015625)"/>
       <path id="DejaVuSerif-20" transform="scale(0.015625)"/>
       <path id="DejaVuSerif-66" d="M 2753 4078 
L 2450 4078 
Q 2447 4313 2317 4434 
Q 2188 4556 1941 4556 
Q 1619 4556 1487 4379 
Q 1356 4203 1356 3750 
L 1356 3322 
L 2284 3322 
L 2284 2988 
L 1356 2988 
L 1356 331 
L 2094 331 
L 2094 0 
L 231 0 
L 231 331 
L 781 331 
L 781 2988 
L 231 2988 
L 231 3322 
L 781 3322 
L 781 3738 
Q 781 4294 1070 4578 
Q 1359 4863 1919 4863 
Q 2128 4863 2337 4825 
Q 2547 4788 2753 4709 
L 2753 4078 
z
" transform="scale(0.015625)"/>
       <path id="DejaVuSerif-65" d="M 3469 1600 
L 991 1600 
L 991 1575 
Q 991 903 1244 561 
Q 1497 219 1991 219 
Q 2369 219 2611 417 
Q 2853 616 2950 1006 
L 3413 1006 
Q 3275 459 2904 184 
Q 2534 -91 1931 -91 
Q 1203 -91 761 389 
Q 319 869 319 1663 
Q 319 2450 753 2931 
Q 1188 3413 1894 3413 
Q 2647 3413 3050 2948 
Q 3453 2484 3469 1600 
z
M 2791 1931 
Q 2772 2513 2545 2808 
Q 2319 3103 1894 3103 
Q 1497 3103 1269 2806 
Q 1041 2509 991 1931 
L 2791 1931 
z
" transform="scale(0.015625)"/>
       <path id="DejaVuSerif-69" d="M 622 4353 
Q 622 4497 726 4603 
Q 831 4709 978 4709 
Q 1122 4709 1226 4603 
Q 1331 4497 1331 4353 
Q 1331 4206 1228 4103 
Q 1125 4000 978 4000 
Q 831 4000 726 4103 
Q 622 4206 622 4353 
z
M 1356 331 
L 1900 331 
L 1900 0 
L 231 0 
L 231 331 
L 781 331 
L 781 2988 
L 231 2988 
L 231 3322 
L 1356 3322 
L 1356 331 
z
" transform="scale(0.015625)"/>
       <path id="DejaVuSerif-6e" d="M 263 0 
L 263 331 
L 781 331 
L 781 2988 
L 231 2988 
L 231 3322 
L 1356 3322 
L 1356 2731 
Q 1516 3069 1770 3241 
Q 2025 3413 2363 3413 
Q 2913 3413 3172 3097 
Q 3431 2781 3431 2113 
L 3431 331 
L 3944 331 
L 3944 0 
L 2356 0 
L 2356 331 
L 2853 331 
L 2853 1931 
Q 2853 2541 2703 2767 
Q 2553 2994 2175 2994 
Q 1775 2994 1565 2701 
Q 1356 2409 1356 1850 
L 1356 331 
L 1856 331 
L 1856 0 
L 263 0 
z
" transform="scale(0.015625)"/>
       <path id="DejaVuSerif-67" d="M 3359 2988 
L 3359 72 
Q 3359 -644 2965 -1033 
Q 2572 -1422 1844 -1422 
Q 1516 -1422 1216 -1362 
Q 916 -1303 641 -1184 
L 641 -488 
L 941 -488 
Q 997 -813 1206 -963 
Q 1416 -1113 1806 -1113 
Q 2313 -1113 2548 -827 
Q 2784 -541 2784 72 
L 2784 519 
Q 2616 206 2355 57 
Q 2094 -91 1709 -91 
Q 1097 -91 708 395 
Q 319 881 319 1663 
Q 319 2444 706 2928 
Q 1094 3413 1709 3413 
Q 2094 3413 2355 3264 
Q 2616 3116 2784 2803 
L 2784 3322 
L 3909 3322 
L 3909 2988 
L 3359 2988 
z
M 2784 1825 
Q 2784 2422 2554 2737 
Q 2325 3053 1888 3053 
Q 1444 3053 1217 2703 
Q 991 2353 991 1663 
Q 991 975 1217 622 
Q 1444 269 1888 269 
Q 2325 269 2554 583 
Q 2784 897 2784 1497 
L 2784 1825 
z
" transform="scale(0.015625)"/>
       <path id="DejaVuSerif-Italic-53" d="M 184 225 
L 391 1288 
L 750 1284 
Q 663 753 905 498 
Q 1147 244 1744 244 
Q 2300 244 2636 464 
Q 2972 684 3053 1106 
Q 3119 1444 2976 1625 
Q 2834 1806 2300 1978 
L 1722 2163 
Q 1091 2366 877 2669 
Q 663 2972 766 3500 
Q 881 4094 1367 4422 
Q 1853 4750 2616 4750 
Q 2941 4750 3314 4679 
Q 3688 4609 4097 4475 
L 3906 3481 
L 3553 3481 
Q 3594 3975 3361 4195 
Q 3128 4416 2563 4416 
Q 2069 4416 1772 4214 
Q 1475 4013 1400 3628 
Q 1334 3294 1490 3103 
Q 1647 2913 2241 2725 
L 2784 2553 
Q 3381 2363 3593 2067 
Q 3806 1772 3709 1275 
Q 3578 597 3076 253 
Q 2575 -91 1716 -91 
Q 1331 -91 948 -12 
Q 566 66 184 225 
z
" transform="scale(0.015625)"/>
       <path id="DejaVuSerif-Italic-74" d="M 856 2988 
L 350 2988 
L 416 3322 
L 922 3322 
L 1122 4353 
L 1700 4353 
L 1500 3322 
L 2581 3322 
L 2516 2988 
L 1434 2988 
L 1025 878 
Q 978 631 978 488 
Q 978 388 1000 338 
Q 1059 219 1278 219 
Q 1503 219 1633 351 
Q 1763 484 1825 781 
L 2259 781 
Q 2147 328 1884 118 
Q 1622 -91 1169 -91 
Q 672 -91 506 131 
Q 406 266 406 516 
Q 406 675 447 878 
L 856 2988 
z
" transform="scale(0.015625)"/>
       <path id="DejaVuSerif-3d" d="M 678 2894 
L 4684 2894 
L 4684 2394 
L 678 2394 
L 678 2894 
z
M 678 1619 
L 4684 1619 
L 4684 1119 
L 678 1119 
L 678 1619 
z
" transform="scale(0.015625)"/>
      </defs>
      <use xlink:href="#DejaVuSerif-50" transform="translate(0 0.015625)"/>
      <use xlink:href="#DejaVuSerif-72" transform="translate(67.285156 0.015625)"/>
      <use xlink:href="#DejaVuSerif-6f" transform="translate(115.087891 0.015625)"/>
      <use xlink:href="#DejaVuSerif-62" transform="translate(175.292969 0.015625)"/>
      <use xlink:href="#DejaVuSerif-2e" transform="translate(239.306641 0.015625)"/>
      <use xlink:href="#DejaVuSerif-20" transform="translate(271.09375 0.015625)"/>
      <use xlink:href="#DejaVuSerif-6f" transform="translate(302.880859 0.015625)"/>
      <use xlink:href="#DejaVuSerif-66" transform="translate(363.085938 0.015625)"/>
      <use xlink:href="#DejaVuSerif-20" transform="translate(400.097656 0.015625)"/>
      <use xlink:href="#DejaVuSerif-62" transform="translate(431.884766 0.015625)"/>
      <use xlink:href="#DejaVuSerif-65" transform="translate(495.898438 0.015625)"/>
      <use xlink:href="#DejaVuSerif-69" transform="translate(555.078125 0.015625)"/>
      <use xlink:href="#DejaVuSerif-6e" transform="translate(587.060547 0.015625)"/>
      <use xlink:href="#DejaVuSerif-67" transform="translate(651.464844 0.015625)"/>
      <use xlink:href="#DejaVuSerif-20" transform="translate(715.478516 0.015625)"/>
      <use xlink:href="#DejaVuSerif-69" transform="translate(747.265625 0.015625)"/>
      <use xlink:href="#DejaVuSerif-6e" transform="translate(779.248047 0.015625)"/>
      <use xlink:href="#DejaVuSerif-20" transform="translate(843.652344 0.015625)"/>
      <use xlink:href="#DejaVuSerif-Italic-53" transform="translate(875.439453 0.015625)"/>
      <use xlink:href="#DejaVuSerif-Italic-74" transform="translate(943.945312 -15.55625) scale(0.7)"/>
      <use xlink:href="#DejaVuSerif-3d" transform="translate(993.635352 0.015625)"/>
      <use xlink:href="#DejaVuSerif-31" transform="translate(1096.389258 0.015625)"/>
     </g>
    </g>
   </g>
   <g id="line2d_35">
    <path d="M 58.745312 28.177155 
L 62.021643 28.015297 
L 65.297973 27.866177 
L 68.574303 27.961181 
L 71.850634 28.043414 
L 75.126964 27.898498 
L 78.403294 28.014972 
L 81.679624 28.09892 
L 84.955955 28.561256 
L 88.232285 29.05725 
L 91.508615 29.249761 
L 94.784946 29.702827 
L 98.061276 30.513176 
L 101.337606 31.584132 
L 104.613936 44.234513 
L 107.890267 72.916674 
L 111.166597 137.231474 
L 114.442927 137.741782 
L 117.719257 136.210634 
L 120.995588 112.830431 
L 124.271918 28.448368 
L 127.548248 27.848345 
L 130.824579 27.850823 
L 134.100909 27.836008 
L 137.377239 27.830463 
L 140.653569 27.818481 
L 143.9299 27.819829 
L 147.20623 27.825861 
L 150.48256 27.889511 
L 153.75889 28.106732 
L 157.035221 27.931751 
L 160.311551 27.884593 
L 163.587881 27.835488 
L 166.864212 27.840645 
L 170.140542 27.823655 
L 173.416872 27.825349 
L 176.693202 27.850937 
L 179.969533 27.825721 
L 183.245863 27.855157 
L 186.522193 27.84523 
L 189.798524 27.833847 
L 193.074854 27.827009 
L 196.351184 27.819311 
L 199.627514 27.979158 
L 202.903845 27.906937 
L 206.180175 28.021436 
L 209.456505 28.009763 
L 212.732835 27.832336 
L 216.009166 27.822653 
L 219.285496 27.825712 
L 222.561826 27.884267 
L 225.838157 47.326708 
L 229.114487 121.091327 
L 232.390817 136.732751 
L 235.667147 137.741311 
L 238.943478 137.741169 
L 242.219808 137.57251 
L 245.496138 133.139916 
L 248.772468 95.338775 
L 252.048799 50.851435 
L 255.325129 32.559945 
L 258.601459 28.201533 
L 261.87779 27.854955 
L 265.15412 27.837562 
L 268.43045 27.879891 
L 271.70678 28.995122 
L 274.983111 34.553326 
L 278.259441 41.235973 
L 281.535771 47.499298 
L 284.812101 47.007262 
L 288.088432 40.506778 
L 291.364762 33.927697 
L 294.641092 28.477664 
L 297.917423 27.886926 
L 301.193753 27.859811 
L 304.470083 27.863987 
L 307.746413 27.8881 
L 311.022744 27.917646 
L 314.299074 27.854811 
L 317.575404 27.897084 
L 320.851735 27.996738 
L 324.128065 27.956036 
L 327.404395 28.194065 
L 330.680725 28.233194 
L 333.957056 28.331811 
L 337.233386 28.453233 
L 340.509716 28.151242 
L 343.786046 28.167022 
L 347.062377 28.122169 
L 350.338707 28.049323 
L 353.615037 28.78439 
L 356.891368 32.837505 
L 360.167698 29.575118 
L 363.444028 27.816307 
L 366.720358 27.816312 
L 369.996689 27.816319 
L 373.273019 27.83295 
L 376.549349 134.905924 
L 379.825679 133.804627 
L 383.10201 135.183748 
L 386.37834 137.309056 
L 389.65467 137.498952 
L 392.931001 137.491855 
L 396.207331 137.620313 
L 399.483661 137.768091 
L 402.759991 137.776121 
L 406.036322 137.779943 
L 409.312652 137.777283 
L 412.588982 137.502593 
L 415.865312 134.695807 
" clip-path="url(#p7cedc85557)" style="fill: none; stroke: #1f77b4; stroke-width: 1.5; stroke-linecap: square"/>
   </g>
   <g id="patch_37">
    <path d="M 58.745313 143.278125 
L 58.745313 22.318125 
" style="fill: none; stroke: #000000; stroke-width: 0.8; stroke-linejoin: miter; stroke-linecap: square"/>
   </g>
   <g id="patch_38">
    <path d="M 415.865313 143.278125 
L 415.865313 22.318125 
" style="fill: none; stroke: #000000; stroke-width: 0.8; stroke-linejoin: miter; stroke-linecap: square"/>
   </g>
   <g id="patch_39">
    <path d="M 58.745312 143.278125 
L 415.865312 143.278125 
" style="fill: none; stroke: #000000; stroke-width: 0.8; stroke-linejoin: miter; stroke-linecap: square"/>
   </g>
   <g id="patch_40">
    <path d="M 58.745312 22.318125 
L 415.865312 22.318125 
" style="fill: none; stroke: #000000; stroke-width: 0.8; stroke-linejoin: miter; stroke-linecap: square"/>
   </g>
   <g id="text_14">
    <!-- Euro area -->
    <g transform="translate(207.1 16.318125) scale(0.12 -0.12)">
     <defs>
      <path id="DejaVuSerif-45" d="M 353 0 
L 353 331 
L 947 331 
L 947 4331 
L 353 4331 
L 353 4666 
L 4109 4666 
L 4109 3628 
L 3725 3628 
L 3725 4281 
L 1581 4281 
L 1581 2719 
L 3109 2719 
L 3109 3303 
L 3494 3303 
L 3494 1753 
L 3109 1753 
L 3109 2338 
L 1581 2338 
L 1581 384 
L 3775 384 
L 3775 1038 
L 4159 1038 
L 4159 0 
L 353 0 
z
" transform="scale(0.015625)"/>
      <path id="DejaVuSerif-75" d="M 2266 3322 
L 3341 3322 
L 3341 331 
L 3884 331 
L 3884 0 
L 2766 0 
L 2766 588 
Q 2606 256 2353 82 
Q 2100 -91 1766 -91 
Q 1213 -91 952 223 
Q 691 538 691 1209 
L 691 2988 
L 172 2988 
L 172 3322 
L 1269 3322 
L 1269 1388 
Q 1269 781 1417 556 
Q 1566 331 1947 331 
Q 2347 331 2556 625 
Q 2766 919 2766 1478 
L 2766 2988 
L 2266 2988 
L 2266 3322 
z
" transform="scale(0.015625)"/>
      <path id="DejaVuSerif-61" d="M 2547 1044 
L 2547 1747 
L 1806 1747 
Q 1378 1747 1168 1562 
Q 959 1378 959 997 
Q 959 650 1171 447 
Q 1384 244 1747 244 
Q 2106 244 2326 466 
Q 2547 688 2547 1044 
z
M 3122 2075 
L 3122 331 
L 3634 331 
L 3634 0 
L 2547 0 
L 2547 359 
Q 2356 128 2106 18 
Q 1856 -91 1522 -91 
Q 969 -91 644 203 
Q 319 497 319 997 
Q 319 1513 691 1797 
Q 1063 2081 1741 2081 
L 2547 2081 
L 2547 2309 
Q 2547 2688 2317 2895 
Q 2088 3103 1672 3103 
Q 1328 3103 1125 2947 
Q 922 2791 872 2484 
L 575 2484 
L 575 3156 
Q 875 3284 1158 3348 
Q 1441 3413 1709 3413 
Q 2400 3413 2761 3070 
Q 3122 2728 3122 2075 
z
" transform="scale(0.015625)"/>
     </defs>
     <use xlink:href="#DejaVuSerif-45"/>
     <use xlink:href="#DejaVuSerif-75" x="72.998047"/>
     <use xlink:href="#DejaVuSerif-72" x="137.402344"/>
     <use xlink:href="#DejaVuSerif-6f" x="185.205078"/>
     <use xlink:href="#DejaVuSerif-20" x="245.410156"/>
     <use xlink:href="#DejaVuSerif-61" x="277.197266"/>
     <use xlink:href="#DejaVuSerif-72" x="336.816406"/>
     <use xlink:href="#DejaVuSerif-65" x="384.619141"/>
     <use xlink:href="#DejaVuSerif-61" x="443.798828"/>
    </g>
   </g>
  </g>
  <g id="axes_2">
   <g id="patch_41">
    <path d="M 58.745313 288.430125 
L 415.865313 288.430125 
L 415.865313 167.470125 
L 58.745313 167.470125 
z
" style="fill: #ffffff"/>
   </g>
   <g id="patch_42">
    <path d="M -1772.723311 288.430125 
L -1753.06533 288.430125 
L -1753.06533 167.470125 
L -1772.723311 167.470125 
z
" clip-path="url(#pf31c3a770d)" style="fill: #d3d3d3"/>
   </g>
   <g id="patch_43">
    <path d="M -1730.131018 288.430125 
L -1717.025697 288.430125 
L -1717.025697 167.470125 
L -1730.131018 167.470125 
z
" clip-path="url(#pf31c3a770d)" style="fill: #d3d3d3"/>
   </g>
   <g id="patch_44">
    <path d="M -1671.157073 288.430125 
L -1644.946431 288.430125 
L -1644.946431 167.470125 
L -1671.157073 167.470125 
z
" clip-path="url(#pf31c3a770d)" style="fill: #d3d3d3"/>
   </g>
   <g id="patch_45">
    <path d="M -1615.459458 288.430125 
L -1595.801476 288.430125 
L -1595.801476 167.470125 
L -1615.459458 167.470125 
z
" clip-path="url(#pf31c3a770d)" style="fill: #d3d3d3"/>
   </g>
   <g id="patch_46">
    <path d="M -1559.761843 288.430125 
L -1487.682577 288.430125 
L -1487.682577 167.470125 
L -1559.761843 167.470125 
z
" clip-path="url(#pf31c3a770d)" style="fill: #d3d3d3"/>
   </g>
   <g id="patch_47">
    <path d="M -1448.366614 288.430125 
L -1405.774321 288.430125 
L -1405.774321 167.470125 
L -1448.366614 167.470125 
z
" clip-path="url(#pf31c3a770d)" style="fill: #d3d3d3"/>
   </g>
   <g id="patch_48">
    <path d="M -1379.563678 288.430125 
L -1369.734688 288.430125 
L -1369.734688 167.470125 
L -1379.563678 167.470125 
z
" clip-path="url(#pf31c3a770d)" style="fill: #d3d3d3"/>
   </g>
   <g id="patch_49">
    <path d="M -1336.971385 288.430125 
L -1327.142394 288.430125 
L -1327.142394 167.470125 
L -1336.971385 167.470125 
z
" clip-path="url(#pf31c3a770d)" style="fill: #d3d3d3"/>
   </g>
   <g id="patch_50">
    <path d="M -1304.208082 288.430125 
L -1287.826431 288.430125 
L -1287.826431 167.470125 
L -1304.208082 167.470125 
z
" clip-path="url(#pf31c3a770d)" style="fill: #d3d3d3"/>
   </g>
   <g id="patch_51">
    <path d="M -1268.168449 288.430125 
L -1248.510467 288.430125 
L -1248.510467 167.470125 
L -1268.168449 167.470125 
z
" clip-path="url(#pf31c3a770d)" style="fill: #d3d3d3"/>
   </g>
   <g id="patch_52">
    <path d="M -1219.023495 288.430125 
L -1202.641843 288.430125 
L -1202.641843 167.470125 
L -1219.023495 167.470125 
z
" clip-path="url(#pf31c3a770d)" style="fill: #d3d3d3"/>
   </g>
   <g id="patch_53">
    <path d="M -1176.431201 288.430125 
L -1153.496889 288.430125 
L -1153.496889 167.470125 
L -1176.431201 167.470125 
z
" clip-path="url(#pf31c3a770d)" style="fill: #d3d3d3"/>
   </g>
   <g id="patch_54">
    <path d="M -1117.457256 288.430125 
L -1104.351935 288.430125 
L -1104.351935 167.470125 
L -1117.457256 167.470125 
z
" clip-path="url(#pf31c3a770d)" style="fill: #d3d3d3"/>
   </g>
   <g id="patch_55">
    <path d="M -1081.417623 288.430125 
L -1058.483311 288.430125 
L -1058.483311 167.470125 
L -1081.417623 167.470125 
z
" clip-path="url(#pf31c3a770d)" style="fill: #d3d3d3"/>
   </g>
   <g id="patch_56">
    <path d="M -1042.10166 288.430125 
L -1019.167348 288.430125 
L -1019.167348 167.470125 
L -1042.10166 167.470125 
z
" clip-path="url(#pf31c3a770d)" style="fill: #d3d3d3"/>
   </g>
   <g id="patch_57">
    <path d="M -970.022394 288.430125 
L -963.469733 288.430125 
L -963.469733 167.470125 
L -970.022394 167.470125 
z
" clip-path="url(#pf31c3a770d)" style="fill: #d3d3d3"/>
   </g>
   <g id="patch_58">
    <path d="M -950.364412 288.430125 
L -930.706431 288.430125 
L -930.706431 167.470125 
L -950.364412 167.470125 
z
" clip-path="url(#pf31c3a770d)" style="fill: #d3d3d3"/>
   </g>
   <g id="patch_59">
    <path d="M -907.772119 288.430125 
L -891.390467 288.430125 
L -891.390467 167.470125 
L -907.772119 167.470125 
z
" clip-path="url(#pf31c3a770d)" style="fill: #d3d3d3"/>
   </g>
   <g id="patch_60">
    <path d="M -865.179825 288.430125 
L -848.798174 288.430125 
L -848.798174 167.470125 
L -865.179825 167.470125 
z
" clip-path="url(#pf31c3a770d)" style="fill: #d3d3d3"/>
   </g>
   <g id="patch_61">
    <path d="M -825.863862 288.430125 
L -779.995238 288.430125 
L -779.995238 167.470125 
L -825.863862 167.470125 
z
" clip-path="url(#pf31c3a770d)" style="fill: #d3d3d3"/>
   </g>
   <g id="patch_62">
    <path d="M -724.297623 288.430125 
L -711.192302 288.430125 
L -711.192302 167.470125 
L -724.297623 167.470125 
z
" clip-path="url(#pf31c3a770d)" style="fill: #d3d3d3"/>
   </g>
   <g id="patch_63">
    <path d="M -622.731385 288.430125 
L -612.902394 288.430125 
L -612.902394 167.470125 
L -622.731385 167.470125 
z
" clip-path="url(#pf31c3a770d)" style="fill: #d3d3d3"/>
   </g>
   <g id="patch_64">
    <path d="M -573.586431 288.430125 
L -560.48111 288.430125 
L -560.48111 167.470125 
L -573.586431 167.470125 
z
" clip-path="url(#pf31c3a770d)" style="fill: #d3d3d3"/>
   </g>
   <g id="patch_65">
    <path d="M -514.612486 288.430125 
L -501.507165 288.430125 
L -501.507165 167.470125 
L -514.612486 167.470125 
z
" clip-path="url(#pf31c3a770d)" style="fill: #d3d3d3"/>
   </g>
   <g id="patch_66">
    <path d="M -458.914871 288.430125 
L -449.08588 288.430125 
L -449.08588 167.470125 
L -458.914871 167.470125 
z
" clip-path="url(#pf31c3a770d)" style="fill: #d3d3d3"/>
   </g>
   <g id="patch_67">
    <path d="M -422.875238 288.430125 
L -413.046247 288.430125 
L -413.046247 167.470125 
L -422.875238 167.470125 
z
" clip-path="url(#pf31c3a770d)" style="fill: #d3d3d3"/>
   </g>
   <g id="patch_68">
    <path d="M -298.374688 288.430125 
L -285.269366 288.430125 
L -285.269366 167.470125 
L -298.374688 167.470125 
z
" clip-path="url(#pf31c3a770d)" style="fill: #d3d3d3"/>
   </g>
   <g id="patch_69">
    <path d="M -245.953403 288.430125 
L -229.571752 288.430125 
L -229.571752 167.470125 
L -245.953403 167.470125 
z
" clip-path="url(#pf31c3a770d)" style="fill: #d3d3d3"/>
   </g>
   <g id="patch_70">
    <path d="M -164.045146 288.430125 
L -157.492486 288.430125 
L -157.492486 167.470125 
L -164.045146 167.470125 
z
" clip-path="url(#pf31c3a770d)" style="fill: #d3d3d3"/>
   </g>
   <g id="patch_71">
    <path d="M -144.387165 288.430125 
L -128.005513 288.430125 
L -128.005513 167.470125 
L -144.387165 167.470125 
z
" clip-path="url(#pf31c3a770d)" style="fill: #d3d3d3"/>
   </g>
   <g id="patch_72">
    <path d="M -26.439275 288.430125 
L -19.886614 288.430125 
L -19.886614 167.470125 
L -26.439275 167.470125 
z
" clip-path="url(#pf31c3a770d)" style="fill: #d3d3d3"/>
   </g>
   <g id="patch_73">
    <path d="M 111.166597 288.430125 
L 120.995588 288.430125 
L 120.995588 167.470125 
L 111.166597 167.470125 
z
" clip-path="url(#pf31c3a770d)" style="fill: #d3d3d3"/>
   </g>
   <g id="patch_74">
    <path d="M 199.627514 288.430125 
L 219.285496 288.430125 
L 219.285496 167.470125 
L 199.627514 167.470125 
z
" clip-path="url(#pf31c3a770d)" style="fill: #d3d3d3"/>
   </g>
   <g id="patch_75">
    <path d="M 356.891368 288.430125 
L 363.444028 288.430125 
L 363.444028 167.470125 
L 356.891368 167.470125 
z
" clip-path="url(#pf31c3a770d)" style="fill: #d3d3d3"/>
   </g>
   <g id="matplotlib.axis_3">
    <g id="xtick_29">
     <g id="line2d_36">
      <g>
       <use xlink:href="#m8bcbd1c8bb" x="84.955955" y="288.430125" style="stroke: #000000; stroke-width: 0.8"/>
      </g>
     </g>
     <g id="text_15">
      <!-- 1999 -->
      <g transform="translate(72.230955 303.028562) scale(0.1 -0.1)">
       <use xlink:href="#DejaVuSerif-31"/>
       <use xlink:href="#DejaVuSerif-39" x="63.623047"/>
       <use xlink:href="#DejaVuSerif-39" x="127.246094"/>
       <use xlink:href="#DejaVuSerif-39" x="190.869141"/>
      </g>
     </g>
    </g>
    <g id="xtick_30">
     <g id="line2d_37">
      <g>
       <use xlink:href="#m8bcbd1c8bb" x="150.48256" y="288.430125" style="stroke: #000000; stroke-width: 0.8"/>
      </g>
     </g>
     <g id="text_16">
      <!-- 2004 -->
      <g transform="translate(137.75756 303.028562) scale(0.1 -0.1)">
       <use xlink:href="#DejaVuSerif-32"/>
       <use xlink:href="#DejaVuSerif-30" x="63.623047"/>
       <use xlink:href="#DejaVuSerif-30" x="127.246094"/>
       <use xlink:href="#DejaVuSerif-34" x="190.869141"/>
      </g>
     </g>
    </g>
    <g id="xtick_31">
     <g id="line2d_38">
      <g>
       <use xlink:href="#m8bcbd1c8bb" x="216.009166" y="288.430125" style="stroke: #000000; stroke-width: 0.8"/>
      </g>
     </g>
     <g id="text_17">
      <!-- 2009 -->
      <g transform="translate(203.284166 303.028562) scale(0.1 -0.1)">
       <use xlink:href="#DejaVuSerif-32"/>
       <use xlink:href="#DejaVuSerif-30" x="63.623047"/>
       <use xlink:href="#DejaVuSerif-30" x="127.246094"/>
       <use xlink:href="#DejaVuSerif-39" x="190.869141"/>
      </g>
     </g>
    </g>
    <g id="xtick_32">
     <g id="line2d_39">
      <g>
       <use xlink:href="#m8bcbd1c8bb" x="281.535771" y="288.430125" style="stroke: #000000; stroke-width: 0.8"/>
      </g>
     </g>
     <g id="text_18">
      <!-- 2014 -->
      <g transform="translate(268.810771 303.028562) scale(0.1 -0.1)">
       <use xlink:href="#DejaVuSerif-32"/>
       <use xlink:href="#DejaVuSerif-30" x="63.623047"/>
       <use xlink:href="#DejaVuSerif-31" x="127.246094"/>
       <use xlink:href="#DejaVuSerif-34" x="190.869141"/>
      </g>
     </g>
    </g>
    <g id="xtick_33">
     <g id="line2d_40">
      <g>
       <use xlink:href="#m8bcbd1c8bb" x="347.062377" y="288.430125" style="stroke: #000000; stroke-width: 0.8"/>
      </g>
     </g>
     <g id="text_19">
      <!-- 2019 -->
      <g transform="translate(334.337377 303.028562) scale(0.1 -0.1)">
       <use xlink:href="#DejaVuSerif-32"/>
       <use xlink:href="#DejaVuSerif-30" x="63.623047"/>
       <use xlink:href="#DejaVuSerif-31" x="127.246094"/>
       <use xlink:href="#DejaVuSerif-39" x="190.869141"/>
      </g>
     </g>
    </g>
    <g id="xtick_34">
     <g id="line2d_41">
      <g>
       <use xlink:href="#m8bcbd1c8bb" x="412.588982" y="288.430125" style="stroke: #000000; stroke-width: 0.8"/>
      </g>
     </g>
     <g id="text_20">
      <!-- 2024 -->
      <g transform="translate(399.863982 303.028562) scale(0.1 -0.1)">
       <use xlink:href="#DejaVuSerif-32"/>
       <use xlink:href="#DejaVuSerif-30" x="63.623047"/>
       <use xlink:href="#DejaVuSerif-32" x="127.246094"/>
       <use xlink:href="#DejaVuSerif-34" x="190.869141"/>
      </g>
     </g>
    </g>
    <g id="xtick_35">
     <g id="line2d_42">
      <g>
       <use xlink:href="#m3e6c3ce06b" x="58.745312" y="288.430125" style="stroke: #000000; stroke-width: 0.6"/>
      </g>
     </g>
    </g>
    <g id="xtick_36">
     <g id="line2d_43">
      <g>
       <use xlink:href="#m3e6c3ce06b" x="71.850634" y="288.430125" style="stroke: #000000; stroke-width: 0.6"/>
      </g>
     </g>
    </g>
    <g id="xtick_37">
     <g id="line2d_44">
      <g>
       <use xlink:href="#m3e6c3ce06b" x="98.061276" y="288.430125" style="stroke: #000000; stroke-width: 0.6"/>
      </g>
     </g>
    </g>
    <g id="xtick_38">
     <g id="line2d_45">
      <g>
       <use xlink:href="#m3e6c3ce06b" x="111.166597" y="288.430125" style="stroke: #000000; stroke-width: 0.6"/>
      </g>
     </g>
    </g>
    <g id="xtick_39">
     <g id="line2d_46">
      <g>
       <use xlink:href="#m3e6c3ce06b" x="124.271918" y="288.430125" style="stroke: #000000; stroke-width: 0.6"/>
      </g>
     </g>
    </g>
    <g id="xtick_40">
     <g id="line2d_47">
      <g>
       <use xlink:href="#m3e6c3ce06b" x="137.377239" y="288.430125" style="stroke: #000000; stroke-width: 0.6"/>
      </g>
     </g>
    </g>
    <g id="xtick_41">
     <g id="line2d_48">
      <g>
       <use xlink:href="#m3e6c3ce06b" x="163.587881" y="288.430125" style="stroke: #000000; stroke-width: 0.6"/>
      </g>
     </g>
    </g>
    <g id="xtick_42">
     <g id="line2d_49">
      <g>
       <use xlink:href="#m3e6c3ce06b" x="176.693202" y="288.430125" style="stroke: #000000; stroke-width: 0.6"/>
      </g>
     </g>
    </g>
    <g id="xtick_43">
     <g id="line2d_50">
      <g>
       <use xlink:href="#m3e6c3ce06b" x="189.798524" y="288.430125" style="stroke: #000000; stroke-width: 0.6"/>
      </g>
     </g>
    </g>
    <g id="xtick_44">
     <g id="line2d_51">
      <g>
       <use xlink:href="#m3e6c3ce06b" x="202.903845" y="288.430125" style="stroke: #000000; stroke-width: 0.6"/>
      </g>
     </g>
    </g>
    <g id="xtick_45">
     <g id="line2d_52">
      <g>
       <use xlink:href="#m3e6c3ce06b" x="229.114487" y="288.430125" style="stroke: #000000; stroke-width: 0.6"/>
      </g>
     </g>
    </g>
    <g id="xtick_46">
     <g id="line2d_53">
      <g>
       <use xlink:href="#m3e6c3ce06b" x="242.219808" y="288.430125" style="stroke: #000000; stroke-width: 0.6"/>
      </g>
     </g>
    </g>
    <g id="xtick_47">
     <g id="line2d_54">
      <g>
       <use xlink:href="#m3e6c3ce06b" x="255.325129" y="288.430125" style="stroke: #000000; stroke-width: 0.6"/>
      </g>
     </g>
    </g>
    <g id="xtick_48">
     <g id="line2d_55">
      <g>
       <use xlink:href="#m3e6c3ce06b" x="268.43045" y="288.430125" style="stroke: #000000; stroke-width: 0.6"/>
      </g>
     </g>
    </g>
    <g id="xtick_49">
     <g id="line2d_56">
      <g>
       <use xlink:href="#m3e6c3ce06b" x="294.641092" y="288.430125" style="stroke: #000000; stroke-width: 0.6"/>
      </g>
     </g>
    </g>
    <g id="xtick_50">
     <g id="line2d_57">
      <g>
       <use xlink:href="#m3e6c3ce06b" x="307.746413" y="288.430125" style="stroke: #000000; stroke-width: 0.6"/>
      </g>
     </g>
    </g>
    <g id="xtick_51">
     <g id="line2d_58">
      <g>
       <use xlink:href="#m3e6c3ce06b" x="320.851735" y="288.430125" style="stroke: #000000; stroke-width: 0.6"/>
      </g>
     </g>
    </g>
    <g id="xtick_52">
     <g id="line2d_59">
      <g>
       <use xlink:href="#m3e6c3ce06b" x="333.957056" y="288.430125" style="stroke: #000000; stroke-width: 0.6"/>
      </g>
     </g>
    </g>
    <g id="xtick_53">
     <g id="line2d_60">
      <g>
       <use xlink:href="#m3e6c3ce06b" x="360.167698" y="288.430125" style="stroke: #000000; stroke-width: 0.6"/>
      </g>
     </g>
    </g>
    <g id="xtick_54">
     <g id="line2d_61">
      <g>
       <use xlink:href="#m3e6c3ce06b" x="373.273019" y="288.430125" style="stroke: #000000; stroke-width: 0.6"/>
      </g>
     </g>
    </g>
    <g id="xtick_55">
     <g id="line2d_62">
      <g>
       <use xlink:href="#m3e6c3ce06b" x="386.37834" y="288.430125" style="stroke: #000000; stroke-width: 0.6"/>
      </g>
     </g>
    </g>
    <g id="xtick_56">
     <g id="line2d_63">
      <g>
       <use xlink:href="#m3e6c3ce06b" x="399.483661" y="288.430125" style="stroke: #000000; stroke-width: 0.6"/>
      </g>
     </g>
    </g>
   </g>
   <g id="matplotlib.axis_4">
    <g id="ytick_7">
     <g id="line2d_64">
      <path d="M 58.745313 282.383838 
L 415.865313 282.383838 
" clip-path="url(#pf31c3a770d)" style="fill: none; stroke-dasharray: 2.96,1.28; stroke-dashoffset: 0; stroke: #b0b0b0; stroke-width: 0.8"/>
     </g>
     <g id="line2d_65">
      <g>
       <use xlink:href="#md9ea9bd5eb" x="58.745313" y="282.383838" style="stroke: #000000; stroke-width: 0.8"/>
      </g>
     </g>
     <g id="text_21">
      <!-- 0.20 -->
      <g transform="translate(21.1 286.183057) scale(0.1 -0.1)">
       <defs>
        <path id="DejaVuSerif-2212" d="M 678 2259 
L 4684 2259 
L 4684 1753 
L 678 1753 
L 678 2259 
z
" transform="scale(0.015625)"/>
       </defs>
       <use xlink:href="#DejaVuSerif-2212"/>
       <use xlink:href="#DejaVuSerif-30" x="83.789062"/>
       <use xlink:href="#DejaVuSerif-2e" x="147.412109"/>
       <use xlink:href="#DejaVuSerif-32" x="179.199219"/>
       <use xlink:href="#DejaVuSerif-30" x="242.822266"/>
      </g>
     </g>
    </g>
    <g id="ytick_8">
     <g id="line2d_66">
      <path d="M 58.745313 262.009009 
L 415.865313 262.009009 
" clip-path="url(#pf31c3a770d)" style="fill: none; stroke-dasharray: 2.96,1.28; stroke-dashoffset: 0; stroke: #b0b0b0; stroke-width: 0.8"/>
     </g>
     <g id="line2d_67">
      <g>
       <use xlink:href="#md9ea9bd5eb" x="58.745313" y="262.009009" style="stroke: #000000; stroke-width: 0.8"/>
      </g>
     </g>
     <g id="text_22">
      <!-- 0.15 -->
      <g transform="translate(21.1 265.808227) scale(0.1 -0.1)">
       <defs>
        <path id="DejaVuSerif-35" d="M 3219 4666 
L 3219 4153 
L 1081 4153 
L 1081 2816 
Q 1244 2928 1461 2984 
Q 1678 3041 1947 3041 
Q 2703 3041 3140 2622 
Q 3578 2203 3578 1478 
Q 3578 738 3136 323 
Q 2694 -91 1894 -91 
Q 1572 -91 1234 -12 
Q 897 66 544 225 
L 544 1131 
L 897 1131 
Q 925 688 1179 453 
Q 1434 219 1894 219 
Q 2388 219 2653 544 
Q 2919 869 2919 1478 
Q 2919 2084 2655 2407 
Q 2391 2731 1894 2731 
Q 1613 2731 1398 2631 
Q 1184 2531 1019 2322 
L 750 2322 
L 750 4666 
L 3219 4666 
z
" transform="scale(0.015625)"/>
       </defs>
       <use xlink:href="#DejaVuSerif-2212"/>
       <use xlink:href="#DejaVuSerif-30" x="83.789062"/>
       <use xlink:href="#DejaVuSerif-2e" x="147.412109"/>
       <use xlink:href="#DejaVuSerif-31" x="179.199219"/>
       <use xlink:href="#DejaVuSerif-35" x="242.822266"/>
      </g>
     </g>
    </g>
    <g id="ytick_9">
     <g id="line2d_68">
      <path d="M 58.745313 241.634179 
L 415.865313 241.634179 
" clip-path="url(#pf31c3a770d)" style="fill: none; stroke-dasharray: 2.96,1.28; stroke-dashoffset: 0; stroke: #b0b0b0; stroke-width: 0.8"/>
     </g>
     <g id="line2d_69">
      <g>
       <use xlink:href="#md9ea9bd5eb" x="58.745313" y="241.634179" style="stroke: #000000; stroke-width: 0.8"/>
      </g>
     </g>
     <g id="text_23">
      <!-- 0.10 -->
      <g transform="translate(21.1 245.433398) scale(0.1 -0.1)">
       <use xlink:href="#DejaVuSerif-2212"/>
       <use xlink:href="#DejaVuSerif-30" x="83.789062"/>
       <use xlink:href="#DejaVuSerif-2e" x="147.412109"/>
       <use xlink:href="#DejaVuSerif-31" x="179.199219"/>
       <use xlink:href="#DejaVuSerif-30" x="242.822266"/>
      </g>
     </g>
    </g>
    <g id="ytick_10">
     <g id="line2d_70">
      <path d="M 58.745313 221.259349 
L 415.865313 221.259349 
" clip-path="url(#pf31c3a770d)" style="fill: none; stroke-dasharray: 2.96,1.28; stroke-dashoffset: 0; stroke: #b0b0b0; stroke-width: 0.8"/>
     </g>
     <g id="line2d_71">
      <g>
       <use xlink:href="#md9ea9bd5eb" x="58.745313" y="221.259349" style="stroke: #000000; stroke-width: 0.8"/>
      </g>
     </g>
     <g id="text_24">
      <!-- 0.05 -->
      <g transform="translate(21.1 225.058568) scale(0.1 -0.1)">
       <use xlink:href="#DejaVuSerif-2212"/>
       <use xlink:href="#DejaVuSerif-30" x="83.789062"/>
       <use xlink:href="#DejaVuSerif-2e" x="147.412109"/>
       <use xlink:href="#DejaVuSerif-30" x="179.199219"/>
       <use xlink:href="#DejaVuSerif-35" x="242.822266"/>
      </g>
     </g>
    </g>
    <g id="ytick_11">
     <g id="line2d_72">
      <path d="M 58.745313 200.884519 
L 415.865313 200.884519 
" clip-path="url(#pf31c3a770d)" style="fill: none; stroke-dasharray: 2.96,1.28; stroke-dashoffset: 0; stroke: #b0b0b0; stroke-width: 0.8"/>
     </g>
     <g id="line2d_73">
      <g>
       <use xlink:href="#md9ea9bd5eb" x="58.745313" y="200.884519" style="stroke: #000000; stroke-width: 0.8"/>
      </g>
     </g>
     <g id="text_25">
      <!-- 0.00 -->
      <g transform="translate(29.479688 204.683738) scale(0.1 -0.1)">
       <use xlink:href="#DejaVuSerif-30"/>
       <use xlink:href="#DejaVuSerif-2e" x="63.623047"/>
       <use xlink:href="#DejaVuSerif-30" x="95.410156"/>
       <use xlink:href="#DejaVuSerif-30" x="159.033203"/>
      </g>
     </g>
    </g>
    <g id="ytick_12">
     <g id="line2d_74">
      <path d="M 58.745313 180.50969 
L 415.865313 180.50969 
" clip-path="url(#pf31c3a770d)" style="fill: none; stroke-dasharray: 2.96,1.28; stroke-dashoffset: 0; stroke: #b0b0b0; stroke-width: 0.8"/>
     </g>
     <g id="line2d_75">
      <g>
       <use xlink:href="#md9ea9bd5eb" x="58.745313" y="180.50969" style="stroke: #000000; stroke-width: 0.8"/>
      </g>
     </g>
     <g id="text_26">
      <!-- 0.05 -->
      <g transform="translate(29.479688 184.308908) scale(0.1 -0.1)">
       <use xlink:href="#DejaVuSerif-30"/>
       <use xlink:href="#DejaVuSerif-2e" x="63.623047"/>
       <use xlink:href="#DejaVuSerif-30" x="95.410156"/>
       <use xlink:href="#DejaVuSerif-35" x="159.033203"/>
      </g>
     </g>
    </g>
    <g id="text_27">
     <!-- $\Delta\log v_t$ -->
     <g transform="translate(14.8 244.550125) rotate(-90) scale(0.1 -0.1)">
      <defs>
       <path id="DejaVuSerif-394" d="M 4350 0 
L 244 0 
L 2034 4666 
L 2559 4666 
L 4350 0 
z
M 3506 331 
L 2138 3909 
L 763 331 
L 3506 331 
z
" transform="scale(0.015625)"/>
       <path id="DejaVuSerif-6c" d="M 1313 331 
L 1856 331 
L 1856 0 
L 184 0 
L 184 331 
L 738 331 
L 738 4531 
L 184 4531 
L 184 4863 
L 1313 4863 
L 1313 331 
z
" transform="scale(0.015625)"/>
       <path id="DejaVuSerif-Italic-76" d="M 1681 0 
L 1259 0 
L 619 2988 
L 241 2988 
L 303 3322 
L 1163 3322 
L 1725 703 
Q 2084 1016 2325 1413 
Q 2825 2238 3003 2988 
L 2622 2988 
L 2688 3322 
L 3547 3322 
Q 3206 2034 2775 1313 
Q 2400 688 1681 0 
z
" transform="scale(0.015625)"/>
      </defs>
      <use xlink:href="#DejaVuSerif-394" transform="translate(0 0.015625)"/>
      <use xlink:href="#DejaVuSerif-6c" transform="translate(72.216797 0.015625)"/>
      <use xlink:href="#DejaVuSerif-6f" transform="translate(104.199219 0.015625)"/>
      <use xlink:href="#DejaVuSerif-67" transform="translate(164.404297 0.015625)"/>
      <use xlink:href="#DejaVuSerif-Italic-76" transform="translate(244.222321 0.015625)"/>
      <use xlink:href="#DejaVuSerif-Italic-74" transform="translate(300.716462 -15.55625) scale(0.7)"/>
     </g>
    </g>
   </g>
   <g id="line2d_76">
    <path d="M 58.745312 210.210079 
L 62.021643 210.245584 
L 65.297973 210.278295 
L 68.574303 210.257455 
L 71.850634 210.239416 
L 75.126964 210.271205 
L 78.403294 210.245655 
L 81.679624 210.22724 
L 84.955955 210.125823 
L 88.232285 210.017022 
L 91.508615 209.974794 
L 94.784946 209.875409 
L 98.061276 209.697653 
L 101.337606 209.462729 
L 104.613936 206.687758 
L 107.890267 200.396078 
L 111.166597 209.584244 
L 114.442927 209.472303 
L 117.719257 209.808174 
L 120.995588 214.936824 
L 124.271918 210.150586 
L 127.548248 210.282206 
L 130.824579 210.281663 
L 134.100909 210.284912 
L 137.377239 210.286129 
L 140.653569 210.288757 
L 143.9299 210.288461 
L 147.20623 210.287138 
L 150.48256 210.273176 
L 153.75889 210.225527 
L 157.035221 210.26391 
L 160.311551 210.274255 
L 163.587881 210.285026 
L 166.864212 210.283895 
L 170.140542 210.287622 
L 173.416872 210.287251 
L 176.693202 210.281638 
L 179.969533 210.287169 
L 183.245863 210.280712 
L 186.522193 210.282889 
L 189.798524 210.285387 
L 193.074854 210.286886 
L 196.351184 210.288575 
L 199.627514 233.549686 
L 202.903845 233.565528 
L 206.180175 233.540412 
L 209.456505 233.542972 
L 212.732835 233.581893 
L 216.009166 233.584017 
L 219.285496 233.583346 
L 222.561826 210.274327 
L 225.838157 206.009459 
L 229.114487 189.82855 
L 232.390817 186.397468 
L 235.667147 186.176232 
L 238.943478 186.176263 
L 242.219808 186.21326 
L 245.496138 187.185588 
L 248.772468 195.477596 
L 252.048799 205.236279 
L 255.325129 209.248676 
L 258.601459 210.204731 
L 261.87779 210.280756 
L 265.15412 210.284572 
L 268.43045 210.275286 
L 271.70678 210.030651 
L 274.983111 208.811411 
L 278.259441 207.345514 
L 281.535771 205.971599 
L 284.812101 206.079532 
L 288.088432 207.505469 
L 291.364762 208.948648 
L 294.641092 210.14416 
L 297.917423 210.273743 
L 301.193753 210.279691 
L 304.470083 210.278775 
L 307.746413 210.273486 
L 311.022744 210.267005 
L 314.299074 210.280788 
L 317.575404 210.271515 
L 320.851735 210.249655 
L 324.128065 210.258583 
L 327.404395 210.20637 
L 330.680725 210.197786 
L 333.957056 210.176154 
L 337.233386 210.149519 
L 340.509716 210.215763 
L 343.786046 210.212302 
L 347.062377 210.222141 
L 350.338707 210.23812 
L 353.615037 210.076877 
L 356.891368 232.483965 
L 360.167698 233.199598 
L 363.444028 233.585409 
L 366.720358 210.289233 
L 369.996689 210.289231 
L 373.273019 210.285583 
L 376.549349 186.798199 
L 379.825679 187.039778 
L 383.10201 186.737255 
L 386.37834 186.271051 
L 389.65467 186.229396 
L 392.931001 186.230952 
L 396.207331 186.202774 
L 399.483661 186.170358 
L 402.759991 186.168596 
L 406.036322 186.167758 
L 409.312652 186.168341 
L 412.588982 186.228597 
L 415.865312 186.84429 
" clip-path="url(#pf31c3a770d)" style="fill: none; stroke: #1f77b4; stroke-width: 1.5; stroke-linecap: square"/>
   </g>
   <g id="line2d_77">
    <path d="M 58.745312 211.246585 
L 62.021643 204.972372 
L 65.297973 211.839866 
L 68.574303 205.894107 
L 71.850634 203.264625 
L 75.126964 209.840372 
L 78.403294 204.770982 
L 81.679624 205.644561 
L 84.955955 201.650091 
L 88.232285 199.946171 
L 91.508615 201.321584 
L 94.784946 201.010994 
L 98.061276 200.239055 
L 101.337606 207.853764 
L 104.613936 201.860102 
L 107.890267 201.739247 
L 111.166597 197.768572 
L 114.442927 198.847359 
L 117.719257 207.8139 
L 120.995588 214.89956 
L 124.271918 221.827035 
L 127.548248 215.485441 
L 130.824579 211.460729 
L 134.100909 214.175675 
L 137.377239 215.55183 
L 140.653569 224.630888 
L 143.9299 222.23196 
L 147.20623 217.935262 
L 150.48256 209.446042 
L 153.75889 201.745198 
L 157.035221 207.573279 
L 160.311551 208.739003 
L 163.587881 214.676697 
L 166.864212 212.951149 
L 170.140542 218.85054 
L 173.416872 217.91477 
L 176.693202 211.159709 
L 179.969533 217.997292 
L 183.245863 210.767357 
L 186.522193 212.364741 
L 189.798524 214.664217 
L 193.074854 216.90291 
L 196.351184 224.321231 
L 199.627514 227.396646 
L 202.903845 232.259916 
L 206.180175 227.440503 
L 209.456505 227.326827 
L 212.732835 239.619572 
L 216.009166 242.789372 
L 219.285496 241.290992 
L 222.561826 225.579253 
L 225.838157 204.348165 
L 229.114487 190.296784 
L 232.390817 184.422414 
L 235.667147 180.093194 
L 238.943478 183.831655 
L 242.219808 182.21919 
L 245.496138 187.387193 
L 248.772468 197.039307 
L 252.048799 202.176192 
L 255.325129 204.922424 
L 258.601459 210.432199 
L 261.87779 213.267268 
L 265.15412 214.258567 
L 268.43045 213.866735 
L 271.70678 206.065114 
L 274.983111 199.245454 
L 278.259441 198.065131 
L 281.535771 193.34396 
L 284.812101 194.008215 
L 288.088432 198.278003 
L 291.364762 199.292456 
L 294.641092 208.872951 
L 297.917423 211.722854 
L 301.193753 210.868028 
L 304.470083 210.39069 
L 307.746413 208.61372 
L 311.022744 206.605945 
L 314.299074 211.970371 
L 317.575404 208.497764 
L 320.851735 204.426882 
L 324.128065 207.7999 
L 327.404395 202.220297 
L 330.680725 203.251635 
L 333.957056 202.580972 
L 337.233386 200.360095 
L 340.509716 204.991529 
L 343.786046 203.117066 
L 347.062377 203.618136 
L 350.338707 208.16162 
L 353.615037 206.267536 
L 356.891368 212.52301 
L 360.167698 225.110138 
L 363.444028 282.931943 
L 366.720358 249.642738 
L 369.996689 247.723257 
L 373.273019 240.556948 
L 376.549349 172.968307 
L 379.825679 200.433074 
L 383.10201 197.441946 
L 386.37834 187.985132 
L 389.65467 190.758175 
L 392.931001 192.535463 
L 396.207331 190.30613 
L 399.483661 179.657681 
L 402.759991 177.570821 
L 406.036322 174.632115 
L 409.312652 174.887987 
L 412.588982 185.748532 
L 415.865312 190.799104 
" clip-path="url(#pf31c3a770d)" style="fill: none; stroke: #ff7f0e; stroke-width: 1.5; stroke-linecap: square"/>
   </g>
   <g id="patch_76">
    <path d="M 58.745313 288.430125 
L 58.745313 167.470125 
" style="fill: none; stroke: #000000; stroke-width: 0.8; stroke-linejoin: miter; stroke-linecap: square"/>
   </g>
   <g id="patch_77">
    <path d="M 415.865313 288.430125 
L 415.865313 167.470125 
" style="fill: none; stroke: #000000; stroke-width: 0.8; stroke-linejoin: miter; stroke-linecap: square"/>
   </g>
   <g id="patch_78">
    <path d="M 58.745312 288.430125 
L 415.865312 288.430125 
" style="fill: none; stroke: #000000; stroke-width: 0.8; stroke-linejoin: miter; stroke-linecap: square"/>
   </g>
   <g id="patch_79">
    <path d="M 58.745312 167.470125 
L 415.865312 167.470125 
" style="fill: none; stroke: #000000; stroke-width: 0.8; stroke-linejoin: miter; stroke-linecap: square"/>
   </g>
   <g id="legend_1">
    <g id="patch_80">
     <path d="M 65.745313 283.430125 
L 150.05 283.430125 
Q 152.05 283.430125 152.05 281.430125 
L 152.05 253.073875 
Q 152.05 251.073875 150.05 251.073875 
L 65.745313 251.073875 
Q 63.745313 251.073875 63.745313 253.073875 
L 63.745313 281.430125 
Q 63.745313 283.430125 65.745313 283.430125 
z
" style="fill: #ffffff; opacity: 0.8; stroke: #cccccc; stroke-linejoin: miter"/>
    </g>
    <g id="line2d_78">
     <path d="M 67.745313 259.172312 
L 77.745313 259.172312 
L 87.745313 259.172312 
" style="fill: none; stroke: #1f77b4; stroke-width: 1.5; stroke-linecap: square"/>
    </g>
    <g id="text_28">
     <!-- Prediction -->
     <g transform="translate(95.745313 262.672312) scale(0.1 -0.1)">
      <defs>
       <path id="DejaVuSerif-64" d="M 3359 331 
L 3909 331 
L 3909 0 
L 2784 0 
L 2784 519 
Q 2616 206 2355 57 
Q 2094 -91 1709 -91 
Q 1097 -91 708 395 
Q 319 881 319 1663 
Q 319 2444 706 2928 
Q 1094 3413 1709 3413 
Q 2094 3413 2355 3264 
Q 2616 3116 2784 2803 
L 2784 4531 
L 2241 4531 
L 2241 4863 
L 3359 4863 
L 3359 331 
z
M 2784 1497 
L 2784 1825 
Q 2784 2422 2554 2737 
Q 2325 3053 1888 3053 
Q 1444 3053 1217 2703 
Q 991 2353 991 1663 
Q 991 975 1217 622 
Q 1444 269 1888 269 
Q 2325 269 2554 583 
Q 2784 897 2784 1497 
z
" transform="scale(0.015625)"/>
       <path id="DejaVuSerif-63" d="M 3291 997 
Q 3169 466 2822 187 
Q 2475 -91 1925 -91 
Q 1200 -91 759 389 
Q 319 869 319 1663 
Q 319 2459 759 2936 
Q 1200 3413 1925 3413 
Q 2241 3413 2553 3339 
Q 2866 3266 3181 3116 
L 3181 2266 
L 2847 2266 
Q 2781 2703 2561 2903 
Q 2341 3103 1931 3103 
Q 1466 3103 1228 2742 
Q 991 2381 991 1663 
Q 991 944 1227 581 
Q 1463 219 1931 219 
Q 2303 219 2525 412 
Q 2747 606 2828 997 
L 3291 997 
z
" transform="scale(0.015625)"/>
       <path id="DejaVuSerif-74" d="M 691 2988 
L 184 2988 
L 184 3322 
L 691 3322 
L 691 4353 
L 1269 4353 
L 1269 3322 
L 2350 3322 
L 2350 2988 
L 1269 2988 
L 1269 878 
Q 1269 456 1350 337 
Q 1431 219 1650 219 
Q 1875 219 1978 351 
Q 2081 484 2088 781 
L 2522 781 
Q 2497 328 2275 118 
Q 2053 -91 1600 -91 
Q 1103 -91 897 129 
Q 691 350 691 878 
L 691 2988 
z
" transform="scale(0.015625)"/>
      </defs>
      <use xlink:href="#DejaVuSerif-50"/>
      <use xlink:href="#DejaVuSerif-72" x="67.285156"/>
      <use xlink:href="#DejaVuSerif-65" x="115.087891"/>
      <use xlink:href="#DejaVuSerif-64" x="174.267578"/>
      <use xlink:href="#DejaVuSerif-69" x="238.28125"/>
      <use xlink:href="#DejaVuSerif-63" x="270.263672"/>
      <use xlink:href="#DejaVuSerif-74" x="326.269531"/>
      <use xlink:href="#DejaVuSerif-69" x="366.455078"/>
      <use xlink:href="#DejaVuSerif-6f" x="398.4375"/>
      <use xlink:href="#DejaVuSerif-6e" x="458.642578"/>
     </g>
    </g>
    <g id="line2d_79">
     <path d="M 67.745313 273.850437 
L 77.745313 273.850437 
L 87.745313 273.850437 
" style="fill: none; stroke: #ff7f0e; stroke-width: 1.5; stroke-linecap: square"/>
    </g>
    <g id="text_29">
     <!-- Real -->
     <g transform="translate(95.745313 277.350437) scale(0.1 -0.1)">
      <defs>
       <path id="DejaVuSerif-52" d="M 3066 2316 
Q 3284 2256 3442 2114 
Q 3600 1972 3725 1716 
L 4403 331 
L 4972 331 
L 4972 0 
L 3872 0 
L 3144 1484 
Q 2934 1916 2759 2042 
Q 2584 2169 2278 2169 
L 1581 2169 
L 1581 331 
L 2241 331 
L 2241 0 
L 353 0 
L 353 331 
L 947 331 
L 947 4331 
L 353 4331 
L 353 4666 
L 2719 4666 
Q 3400 4666 3770 4341 
Q 4141 4016 4141 3419 
Q 4141 2938 3870 2661 
Q 3600 2384 3066 2316 
z
M 1581 2503 
L 2503 2503 
Q 2975 2503 3200 2726 
Q 3425 2950 3425 3419 
Q 3425 3888 3200 4109 
Q 2975 4331 2503 4331 
L 1581 4331 
L 1581 2503 
z
" transform="scale(0.015625)"/>
      </defs>
      <use xlink:href="#DejaVuSerif-52"/>
      <use xlink:href="#DejaVuSerif-65" x="75.292969"/>
      <use xlink:href="#DejaVuSerif-61" x="134.472656"/>
      <use xlink:href="#DejaVuSerif-6c" x="194.091797"/>
     </g>
    </g>
   </g>
  </g>
 </g>
 <defs>
  <clipPath id="p7cedc85557">
   <rect x="58.745313" y="22.318125" width="357.12" height="120.96"/>
  </clipPath>
  <clipPath id="pf31c3a770d">
   <rect x="58.745313" y="167.470125" width="357.12" height="120.96"/>
  </clipPath>
 </defs>
</svg>
