<?xml version="1.0" encoding="utf-8" standalone="no"?>
<!DOCTYPE svg PUBLIC "-//W3C//DTD SVG 1.1//EN"
  "http://www.w3.org/Graphics/SVG/1.1/DTD/svg11.dtd">
<svg xmlns:xlink="http://www.w3.org/1999/xlink" width="425.045592pt" height="312.30825pt" viewBox="0 0 425.045592 312.30825" xmlns="http://www.w3.org/2000/svg" version="1.1">
 <metadata>
  <rdf:RDF xmlns:dc="http://purl.org/dc/elements/1.1/" xmlns:cc="http://creativecommons.org/ns#" xmlns:rdf="http://www.w3.org/1999/02/22-rdf-syntax-ns#">
   <cc:Work>
    <dc:type rdf:resource="http://purl.org/dc/dcmitype/StillImage"/>
    <dc:date>2024-11-06T21:53:12.140967</dc:date>
    <dc:format>image/svg+xml</dc:format>
    <dc:creator>
     <cc:Agent>
      <dc:title>Matplotlib v3.9.0, https://matplotlib.org/</dc:title>
     </cc:Agent>
    </dc:creator>
   </cc:Work>
  </rdf:RDF>
 </metadata>
 <defs>
  <style type="text/css">*{stroke-linejoin: round; stroke-linecap: butt}</style>
 </defs>
 <g id="figure_1">
  <g id="patch_1">
   <path d="M 0 312.30825 
L 425.045592 312.30825 
L 425.045592 0 
L 0 0 
z
" style="fill: #ffffff"/>
  </g>
  <g id="axes_1">
   <g id="patch_2">
    <path d="M 50.365625 143.278125 
L 407.485625 143.278125 
L 407.485625 22.318125 
L 50.365625 22.318125 
z
" style="fill: #ffffff"/>
   </g>
   <g id="patch_3">
    <path d="M -1172.356494 143.278125 
L -1158.166296 143.278125 
L -1158.166296 22.318125 
L -1172.356494 22.318125 
z
" clip-path="url(#p4322b4d0f9)" style="fill: #d3d3d3"/>
   </g>
   <g id="patch_4">
    <path d="M -1141.611064 143.278125 
L -1132.150931 143.278125 
L -1132.150931 22.318125 
L -1141.611064 22.318125 
z
" clip-path="url(#p4322b4d0f9)" style="fill: #d3d3d3"/>
   </g>
   <g id="patch_5">
    <path d="M -1099.040468 143.278125 
L -1080.120203 143.278125 
L -1080.120203 22.318125 
L -1099.040468 22.318125 
z
" clip-path="url(#p4322b4d0f9)" style="fill: #d3d3d3"/>
   </g>
   <g id="patch_6">
    <path d="M -1058.834905 143.278125 
L -1044.644706 143.278125 
L -1044.644706 22.318125 
L -1058.834905 22.318125 
z
" clip-path="url(#p4322b4d0f9)" style="fill: #d3d3d3"/>
   </g>
   <g id="patch_7">
    <path d="M -1018.629342 143.278125 
L -966.598613 143.278125 
L -966.598613 22.318125 
L -1018.629342 22.318125 
z
" clip-path="url(#p4322b4d0f9)" style="fill: #d3d3d3"/>
   </g>
   <g id="patch_8">
    <path d="M -938.218216 143.278125 
L -907.472786 143.278125 
L -907.472786 22.318125 
L -938.218216 22.318125 
z
" clip-path="url(#p4322b4d0f9)" style="fill: #d3d3d3"/>
   </g>
   <g id="patch_9">
    <path d="M -888.552521 143.278125 
L -881.457421 143.278125 
L -881.457421 22.318125 
L -888.552521 22.318125 
z
" clip-path="url(#p4322b4d0f9)" style="fill: #d3d3d3"/>
   </g>
   <g id="patch_10">
    <path d="M -857.80709 143.278125 
L -850.711991 143.278125 
L -850.711991 22.318125 
L -857.80709 22.318125 
z
" clip-path="url(#p4322b4d0f9)" style="fill: #d3d3d3"/>
   </g>
   <g id="patch_11">
    <path d="M -834.156759 143.278125 
L -822.331594 143.278125 
L -822.331594 22.318125 
L -834.156759 22.318125 
z
" clip-path="url(#p4322b4d0f9)" style="fill: #d3d3d3"/>
   </g>
   <g id="patch_12">
    <path d="M -808.141395 143.278125 
L -793.951196 143.278125 
L -793.951196 22.318125 
L -808.141395 22.318125 
z
" clip-path="url(#p4322b4d0f9)" style="fill: #d3d3d3"/>
   </g>
   <g id="patch_13">
    <path d="M -772.665898 143.278125 
L -760.840733 143.278125 
L -760.840733 22.318125 
L -772.665898 22.318125 
z
" clip-path="url(#p4322b4d0f9)" style="fill: #d3d3d3"/>
   </g>
   <g id="patch_14">
    <path d="M -741.920468 143.278125 
L -725.365236 143.278125 
L -725.365236 22.318125 
L -741.920468 22.318125 
z
" clip-path="url(#p4322b4d0f9)" style="fill: #d3d3d3"/>
   </g>
   <g id="patch_15">
    <path d="M -699.349872 143.278125 
L -689.889739 143.278125 
L -689.889739 22.318125 
L -699.349872 22.318125 
z
" clip-path="url(#p4322b4d0f9)" style="fill: #d3d3d3"/>
   </g>
   <g id="patch_16">
    <path d="M -673.334507 143.278125 
L -656.779276 143.278125 
L -656.779276 22.318125 
L -673.334507 22.318125 
z
" clip-path="url(#p4322b4d0f9)" style="fill: #d3d3d3"/>
   </g>
   <g id="patch_17">
    <path d="M -644.95411 143.278125 
L -628.398878 143.278125 
L -628.398878 22.318125 
L -644.95411 22.318125 
z
" clip-path="url(#p4322b4d0f9)" style="fill: #d3d3d3"/>
   </g>
   <g id="patch_18">
    <path d="M -592.923382 143.278125 
L -588.193315 143.278125 
L -588.193315 22.318125 
L -592.923382 22.318125 
z
" clip-path="url(#p4322b4d0f9)" style="fill: #d3d3d3"/>
   </g>
   <g id="patch_19">
    <path d="M -578.733183 143.278125 
L -564.542984 143.278125 
L -564.542984 22.318125 
L -578.733183 22.318125 
z
" clip-path="url(#p4322b4d0f9)" style="fill: #d3d3d3"/>
   </g>
   <g id="patch_20">
    <path d="M -547.987752 143.278125 
L -536.162587 143.278125 
L -536.162587 22.318125 
L -547.987752 22.318125 
z
" clip-path="url(#p4322b4d0f9)" style="fill: #d3d3d3"/>
   </g>
   <g id="patch_21">
    <path d="M -517.242322 143.278125 
L -505.417156 143.278125 
L -505.417156 22.318125 
L -517.242322 22.318125 
z
" clip-path="url(#p4322b4d0f9)" style="fill: #d3d3d3"/>
   </g>
   <g id="patch_22">
    <path d="M -488.861925 143.278125 
L -455.751461 143.278125 
L -455.751461 22.318125 
L -488.861925 22.318125 
z
" clip-path="url(#p4322b4d0f9)" style="fill: #d3d3d3"/>
   </g>
   <g id="patch_23">
    <path d="M -415.545898 143.278125 
L -406.085766 143.278125 
L -406.085766 22.318125 
L -415.545898 22.318125 
z
" clip-path="url(#p4322b4d0f9)" style="fill: #d3d3d3"/>
   </g>
   <g id="patch_24">
    <path d="M -342.229872 143.278125 
L -335.134772 143.278125 
L -335.134772 22.318125 
L -342.229872 22.318125 
z
" clip-path="url(#p4322b4d0f9)" style="fill: #d3d3d3"/>
   </g>
   <g id="patch_25">
    <path d="M -306.754375 143.278125 
L -297.294243 143.278125 
L -297.294243 22.318125 
L -306.754375 22.318125 
z
" clip-path="url(#p4322b4d0f9)" style="fill: #d3d3d3"/>
   </g>
   <g id="patch_26">
    <path d="M -264.183779 143.278125 
L -254.723647 143.278125 
L -254.723647 22.318125 
L -264.183779 22.318125 
z
" clip-path="url(#p4322b4d0f9)" style="fill: #d3d3d3"/>
   </g>
   <g id="patch_27">
    <path d="M -223.978216 143.278125 
L -216.883117 143.278125 
L -216.883117 22.318125 
L -223.978216 22.318125 
z
" clip-path="url(#p4322b4d0f9)" style="fill: #d3d3d3"/>
   </g>
   <g id="patch_28">
    <path d="M -197.962852 143.278125 
L -190.867752 143.278125 
L -190.867752 22.318125 
L -197.962852 22.318125 
z
" clip-path="url(#p4322b4d0f9)" style="fill: #d3d3d3"/>
   </g>
   <g id="patch_29">
    <path d="M -108.091594 143.278125 
L -98.631461 143.278125 
L -98.631461 22.318125 
L -108.091594 22.318125 
z
" clip-path="url(#p4322b4d0f9)" style="fill: #d3d3d3"/>
   </g>
   <g id="patch_30">
    <path d="M -70.251064 143.278125 
L -58.425898 143.278125 
L -58.425898 22.318125 
L -70.251064 22.318125 
z
" clip-path="url(#p4322b4d0f9)" style="fill: #d3d3d3"/>
   </g>
   <g id="patch_31">
    <path d="M -11.125236 143.278125 
L -6.39517 143.278125 
L -6.39517 22.318125 
L -11.125236 22.318125 
z
" clip-path="url(#p4322b4d0f9)" style="fill: #d3d3d3"/>
   </g>
   <g id="patch_32">
    <path d="M 3.064963 143.278125 
L 14.890128 143.278125 
L 14.890128 22.318125 
L 3.064963 22.318125 
z
" clip-path="url(#p4322b4d0f9)" style="fill: #d3d3d3"/>
   </g>
   <g id="patch_33">
    <path d="M 88.206155 143.278125 
L 92.936221 143.278125 
L 92.936221 22.318125 
L 88.206155 22.318125 
z
" clip-path="url(#p4322b4d0f9)" style="fill: #d3d3d3"/>
   </g>
   <g id="patch_34">
    <path d="M 187.537546 143.278125 
L 194.632645 143.278125 
L 194.632645 22.318125 
L 187.537546 22.318125 
z
" clip-path="url(#p4322b4d0f9)" style="fill: #d3d3d3"/>
   </g>
   <g id="patch_35">
    <path d="M 251.39344 143.278125 
L 265.583638 143.278125 
L 265.583638 22.318125 
L 251.39344 22.318125 
z
" clip-path="url(#p4322b4d0f9)" style="fill: #d3d3d3"/>
   </g>
   <g id="patch_36">
    <path d="M 364.915029 143.278125 
L 369.645095 143.278125 
L 369.645095 22.318125 
L 364.915029 22.318125 
z
" clip-path="url(#p4322b4d0f9)" style="fill: #d3d3d3"/>
   </g>
   <g id="matplotlib.axis_1">
    <g id="xtick_1">
     <g id="line2d_1">
      <defs>
       <path id="mcca9957808" d="M 0 0 
L 0 3.5 
" style="stroke: #000000; stroke-width: 0.8"/>
      </defs>
      <g>
       <use xlink:href="#mcca9957808" x="74.015956" y="143.278125" style="stroke: #000000; stroke-width: 0.8"/>
      </g>
     </g>
     <g id="text_1">
      <!-- 1989 -->
      <g transform="translate(61.290956 157.876562) scale(0.1 -0.1)">
       <defs>
        <path id="DejaVuSerif-31" d="M 909 0 
L 909 331 
L 1722 331 
L 1722 4213 
L 781 3603 
L 781 4013 
L 1919 4750 
L 2350 4750 
L 2350 331 
L 3163 331 
L 3163 0 
L 909 0 
z
" transform="scale(0.015625)"/>
        <path id="DejaVuSerif-39" d="M 2994 2091 
Q 2784 1856 2512 1740 
Q 2241 1625 1900 1625 
Q 1206 1625 804 2044 
Q 403 2463 403 3188 
Q 403 3897 839 4323 
Q 1275 4750 2003 4750 
Q 2794 4750 3217 4161 
Q 3641 3572 3641 2478 
Q 3641 1253 3137 581 
Q 2634 -91 1722 -91 
Q 1475 -91 1203 -44 
Q 931 3 647 97 
L 647 872 
L 997 872 
Q 1038 556 1241 387 
Q 1444 219 1784 219 
Q 2391 219 2687 676 
Q 2984 1134 2994 2091 
z
M 1978 4441 
Q 1534 4441 1298 4117 
Q 1063 3794 1063 3188 
Q 1063 2581 1298 2256 
Q 1534 1931 1978 1931 
Q 2422 1931 2658 2245 
Q 2894 2559 2894 3150 
Q 2894 3772 2656 4106 
Q 2419 4441 1978 4441 
z
" transform="scale(0.015625)"/>
        <path id="DejaVuSerif-38" d="M 2981 1275 
Q 2981 1775 2732 2051 
Q 2484 2328 2034 2328 
Q 1584 2328 1336 2051 
Q 1088 1775 1088 1275 
Q 1088 772 1336 495 
Q 1584 219 2034 219 
Q 2484 219 2732 495 
Q 2981 772 2981 1275 
z
M 2853 3541 
Q 2853 3966 2637 4203 
Q 2422 4441 2034 4441 
Q 1650 4441 1433 4203 
Q 1216 3966 1216 3541 
Q 1216 3113 1433 2875 
Q 1650 2638 2034 2638 
Q 2422 2638 2637 2875 
Q 2853 3113 2853 3541 
z
M 2516 2484 
Q 3047 2413 3344 2092 
Q 3641 1772 3641 1275 
Q 3641 619 3225 264 
Q 2809 -91 2034 -91 
Q 1263 -91 845 264 
Q 428 619 428 1275 
Q 428 1772 725 2092 
Q 1022 2413 1556 2484 
Q 1084 2569 832 2842 
Q 581 3116 581 3541 
Q 581 4103 968 4426 
Q 1356 4750 2034 4750 
Q 2713 4750 3100 4426 
Q 3488 4103 3488 3541 
Q 3488 3116 3236 2842 
Q 2984 2569 2516 2484 
z
" transform="scale(0.015625)"/>
       </defs>
       <use xlink:href="#DejaVuSerif-31"/>
       <use xlink:href="#DejaVuSerif-39" x="63.623047"/>
       <use xlink:href="#DejaVuSerif-38" x="127.246094"/>
       <use xlink:href="#DejaVuSerif-39" x="190.869141"/>
      </g>
     </g>
    </g>
    <g id="xtick_2">
     <g id="line2d_2">
      <g>
       <use xlink:href="#mcca9957808" x="121.316618" y="143.278125" style="stroke: #000000; stroke-width: 0.8"/>
      </g>
     </g>
     <g id="text_2">
      <!-- 1994 -->
      <g transform="translate(108.591618 157.876562) scale(0.1 -0.1)">
       <defs>
        <path id="DejaVuSerif-34" d="M 2234 1581 
L 2234 4063 
L 641 1581 
L 2234 1581 
z
M 3609 0 
L 1484 0 
L 1484 331 
L 2234 331 
L 2234 1247 
L 197 1247 
L 197 1588 
L 2241 4750 
L 2859 4750 
L 2859 1581 
L 3750 1581 
L 3750 1247 
L 2859 1247 
L 2859 331 
L 3609 331 
L 3609 0 
z
" transform="scale(0.015625)"/>
       </defs>
       <use xlink:href="#DejaVuSerif-31"/>
       <use xlink:href="#DejaVuSerif-39" x="63.623047"/>
       <use xlink:href="#DejaVuSerif-39" x="127.246094"/>
       <use xlink:href="#DejaVuSerif-34" x="190.869141"/>
      </g>
     </g>
    </g>
    <g id="xtick_3">
     <g id="line2d_3">
      <g>
       <use xlink:href="#mcca9957808" x="168.617281" y="143.278125" style="stroke: #000000; stroke-width: 0.8"/>
      </g>
     </g>
     <g id="text_3">
      <!-- 1999 -->
      <g transform="translate(155.892281 157.876562) scale(0.1 -0.1)">
       <use xlink:href="#DejaVuSerif-31"/>
       <use xlink:href="#DejaVuSerif-39" x="63.623047"/>
       <use xlink:href="#DejaVuSerif-39" x="127.246094"/>
       <use xlink:href="#DejaVuSerif-39" x="190.869141"/>
      </g>
     </g>
    </g>
    <g id="xtick_4">
     <g id="line2d_4">
      <g>
       <use xlink:href="#mcca9957808" x="215.917943" y="143.278125" style="stroke: #000000; stroke-width: 0.8"/>
      </g>
     </g>
     <g id="text_4">
      <!-- 2004 -->
      <g transform="translate(203.192943 157.876562) scale(0.1 -0.1)">
       <defs>
        <path id="DejaVuSerif-32" d="M 819 3553 
L 469 3553 
L 469 4384 
Q 803 4563 1142 4656 
Q 1481 4750 1806 4750 
Q 2534 4750 2956 4397 
Q 3378 4044 3378 3438 
Q 3378 2753 2422 1800 
Q 2347 1728 2309 1691 
L 1131 513 
L 3078 513 
L 3078 1088 
L 3444 1088 
L 3444 0 
L 434 0 
L 434 341 
L 1850 1753 
Q 2319 2222 2519 2614 
Q 2719 3006 2719 3438 
Q 2719 3909 2473 4175 
Q 2228 4441 1797 4441 
Q 1350 4441 1106 4219 
Q 863 3997 819 3553 
z
" transform="scale(0.015625)"/>
        <path id="DejaVuSerif-30" d="M 2034 219 
Q 2513 219 2750 744 
Q 2988 1269 2988 2328 
Q 2988 3391 2750 3916 
Q 2513 4441 2034 4441 
Q 1556 4441 1318 3916 
Q 1081 3391 1081 2328 
Q 1081 1269 1318 744 
Q 1556 219 2034 219 
z
M 2034 -91 
Q 1275 -91 848 546 
Q 422 1184 422 2328 
Q 422 3475 848 4112 
Q 1275 4750 2034 4750 
Q 2797 4750 3222 4112 
Q 3647 3475 3647 2328 
Q 3647 1184 3222 546 
Q 2797 -91 2034 -91 
z
" transform="scale(0.015625)"/>
       </defs>
       <use xlink:href="#DejaVuSerif-32"/>
       <use xlink:href="#DejaVuSerif-30" x="63.623047"/>
       <use xlink:href="#DejaVuSerif-30" x="127.246094"/>
       <use xlink:href="#DejaVuSerif-34" x="190.869141"/>
      </g>
     </g>
    </g>
    <g id="xtick_5">
     <g id="line2d_5">
      <g>
       <use xlink:href="#mcca9957808" x="263.218605" y="143.278125" style="stroke: #000000; stroke-width: 0.8"/>
      </g>
     </g>
     <g id="text_5">
      <!-- 2009 -->
      <g transform="translate(250.493605 157.876562) scale(0.1 -0.1)">
       <use xlink:href="#DejaVuSerif-32"/>
       <use xlink:href="#DejaVuSerif-30" x="63.623047"/>
       <use xlink:href="#DejaVuSerif-30" x="127.246094"/>
       <use xlink:href="#DejaVuSerif-39" x="190.869141"/>
      </g>
     </g>
    </g>
    <g id="xtick_6">
     <g id="line2d_6">
      <g>
       <use xlink:href="#mcca9957808" x="310.519267" y="143.278125" style="stroke: #000000; stroke-width: 0.8"/>
      </g>
     </g>
     <g id="text_6">
      <!-- 2014 -->
      <g transform="translate(297.794267 157.876562) scale(0.1 -0.1)">
       <use xlink:href="#DejaVuSerif-32"/>
       <use xlink:href="#DejaVuSerif-30" x="63.623047"/>
       <use xlink:href="#DejaVuSerif-31" x="127.246094"/>
       <use xlink:href="#DejaVuSerif-34" x="190.869141"/>
      </g>
     </g>
    </g>
    <g id="xtick_7">
     <g id="line2d_7">
      <g>
       <use xlink:href="#mcca9957808" x="357.81993" y="143.278125" style="stroke: #000000; stroke-width: 0.8"/>
      </g>
     </g>
     <g id="text_7">
      <!-- 2019 -->
      <g transform="translate(345.09493 157.876562) scale(0.1 -0.1)">
       <use xlink:href="#DejaVuSerif-32"/>
       <use xlink:href="#DejaVuSerif-30" x="63.623047"/>
       <use xlink:href="#DejaVuSerif-31" x="127.246094"/>
       <use xlink:href="#DejaVuSerif-39" x="190.869141"/>
      </g>
     </g>
    </g>
    <g id="xtick_8">
     <g id="line2d_8">
      <g>
       <use xlink:href="#mcca9957808" x="405.120592" y="143.278125" style="stroke: #000000; stroke-width: 0.8"/>
      </g>
     </g>
     <g id="text_8">
      <!-- 2024 -->
      <g transform="translate(392.395592 157.876562) scale(0.1 -0.1)">
       <use xlink:href="#DejaVuSerif-32"/>
       <use xlink:href="#DejaVuSerif-30" x="63.623047"/>
       <use xlink:href="#DejaVuSerif-32" x="127.246094"/>
       <use xlink:href="#DejaVuSerif-34" x="190.869141"/>
      </g>
     </g>
    </g>
    <g id="xtick_9">
     <g id="line2d_9">
      <defs>
       <path id="m510c86f37d" d="M 0 0 
L 0 2 
" style="stroke: #000000; stroke-width: 0.6"/>
      </defs>
      <g>
       <use xlink:href="#m510c86f37d" x="55.095691" y="143.278125" style="stroke: #000000; stroke-width: 0.6"/>
      </g>
     </g>
    </g>
    <g id="xtick_10">
     <g id="line2d_10">
      <g>
       <use xlink:href="#m510c86f37d" x="64.555824" y="143.278125" style="stroke: #000000; stroke-width: 0.6"/>
      </g>
     </g>
    </g>
    <g id="xtick_11">
     <g id="line2d_11">
      <g>
       <use xlink:href="#m510c86f37d" x="83.476089" y="143.278125" style="stroke: #000000; stroke-width: 0.6"/>
      </g>
     </g>
    </g>
    <g id="xtick_12">
     <g id="line2d_12">
      <g>
       <use xlink:href="#m510c86f37d" x="92.936221" y="143.278125" style="stroke: #000000; stroke-width: 0.6"/>
      </g>
     </g>
    </g>
    <g id="xtick_13">
     <g id="line2d_13">
      <g>
       <use xlink:href="#m510c86f37d" x="102.396353" y="143.278125" style="stroke: #000000; stroke-width: 0.6"/>
      </g>
     </g>
    </g>
    <g id="xtick_14">
     <g id="line2d_14">
      <g>
       <use xlink:href="#m510c86f37d" x="111.856486" y="143.278125" style="stroke: #000000; stroke-width: 0.6"/>
      </g>
     </g>
    </g>
    <g id="xtick_15">
     <g id="line2d_15">
      <g>
       <use xlink:href="#m510c86f37d" x="130.776751" y="143.278125" style="stroke: #000000; stroke-width: 0.6"/>
      </g>
     </g>
    </g>
    <g id="xtick_16">
     <g id="line2d_16">
      <g>
       <use xlink:href="#m510c86f37d" x="140.236883" y="143.278125" style="stroke: #000000; stroke-width: 0.6"/>
      </g>
     </g>
    </g>
    <g id="xtick_17">
     <g id="line2d_17">
      <g>
       <use xlink:href="#m510c86f37d" x="149.697016" y="143.278125" style="stroke: #000000; stroke-width: 0.6"/>
      </g>
     </g>
    </g>
    <g id="xtick_18">
     <g id="line2d_18">
      <g>
       <use xlink:href="#m510c86f37d" x="159.157148" y="143.278125" style="stroke: #000000; stroke-width: 0.6"/>
      </g>
     </g>
    </g>
    <g id="xtick_19">
     <g id="line2d_19">
      <g>
       <use xlink:href="#m510c86f37d" x="178.077413" y="143.278125" style="stroke: #000000; stroke-width: 0.6"/>
      </g>
     </g>
    </g>
    <g id="xtick_20">
     <g id="line2d_20">
      <g>
       <use xlink:href="#m510c86f37d" x="187.537546" y="143.278125" style="stroke: #000000; stroke-width: 0.6"/>
      </g>
     </g>
    </g>
    <g id="xtick_21">
     <g id="line2d_21">
      <g>
       <use xlink:href="#m510c86f37d" x="196.997678" y="143.278125" style="stroke: #000000; stroke-width: 0.6"/>
      </g>
     </g>
    </g>
    <g id="xtick_22">
     <g id="line2d_22">
      <g>
       <use xlink:href="#m510c86f37d" x="206.45781" y="143.278125" style="stroke: #000000; stroke-width: 0.6"/>
      </g>
     </g>
    </g>
    <g id="xtick_23">
     <g id="line2d_23">
      <g>
       <use xlink:href="#m510c86f37d" x="225.378075" y="143.278125" style="stroke: #000000; stroke-width: 0.6"/>
      </g>
     </g>
    </g>
    <g id="xtick_24">
     <g id="line2d_24">
      <g>
       <use xlink:href="#m510c86f37d" x="234.838208" y="143.278125" style="stroke: #000000; stroke-width: 0.6"/>
      </g>
     </g>
    </g>
    <g id="xtick_25">
     <g id="line2d_25">
      <g>
       <use xlink:href="#m510c86f37d" x="244.29834" y="143.278125" style="stroke: #000000; stroke-width: 0.6"/>
      </g>
     </g>
    </g>
    <g id="xtick_26">
     <g id="line2d_26">
      <g>
       <use xlink:href="#m510c86f37d" x="253.758473" y="143.278125" style="stroke: #000000; stroke-width: 0.6"/>
      </g>
     </g>
    </g>
    <g id="xtick_27">
     <g id="line2d_27">
      <g>
       <use xlink:href="#m510c86f37d" x="272.678738" y="143.278125" style="stroke: #000000; stroke-width: 0.6"/>
      </g>
     </g>
    </g>
    <g id="xtick_28">
     <g id="line2d_28">
      <g>
       <use xlink:href="#m510c86f37d" x="282.13887" y="143.278125" style="stroke: #000000; stroke-width: 0.6"/>
      </g>
     </g>
    </g>
    <g id="xtick_29">
     <g id="line2d_29">
      <g>
       <use xlink:href="#m510c86f37d" x="291.599002" y="143.278125" style="stroke: #000000; stroke-width: 0.6"/>
      </g>
     </g>
    </g>
    <g id="xtick_30">
     <g id="line2d_30">
      <g>
       <use xlink:href="#m510c86f37d" x="301.059135" y="143.278125" style="stroke: #000000; stroke-width: 0.6"/>
      </g>
     </g>
    </g>
    <g id="xtick_31">
     <g id="line2d_31">
      <g>
       <use xlink:href="#m510c86f37d" x="319.9794" y="143.278125" style="stroke: #000000; stroke-width: 0.6"/>
      </g>
     </g>
    </g>
    <g id="xtick_32">
     <g id="line2d_32">
      <g>
       <use xlink:href="#m510c86f37d" x="329.439532" y="143.278125" style="stroke: #000000; stroke-width: 0.6"/>
      </g>
     </g>
    </g>
    <g id="xtick_33">
     <g id="line2d_33">
      <g>
       <use xlink:href="#m510c86f37d" x="338.899665" y="143.278125" style="stroke: #000000; stroke-width: 0.6"/>
      </g>
     </g>
    </g>
    <g id="xtick_34">
     <g id="line2d_34">
      <g>
       <use xlink:href="#m510c86f37d" x="348.359797" y="143.278125" style="stroke: #000000; stroke-width: 0.6"/>
      </g>
     </g>
    </g>
    <g id="xtick_35">
     <g id="line2d_35">
      <g>
       <use xlink:href="#m510c86f37d" x="367.280062" y="143.278125" style="stroke: #000000; stroke-width: 0.6"/>
      </g>
     </g>
    </g>
    <g id="xtick_36">
     <g id="line2d_36">
      <g>
       <use xlink:href="#m510c86f37d" x="376.740195" y="143.278125" style="stroke: #000000; stroke-width: 0.6"/>
      </g>
     </g>
    </g>
    <g id="xtick_37">
     <g id="line2d_37">
      <g>
       <use xlink:href="#m510c86f37d" x="386.200327" y="143.278125" style="stroke: #000000; stroke-width: 0.6"/>
      </g>
     </g>
    </g>
    <g id="xtick_38">
     <g id="line2d_38">
      <g>
       <use xlink:href="#m510c86f37d" x="395.660459" y="143.278125" style="stroke: #000000; stroke-width: 0.6"/>
      </g>
     </g>
    </g>
   </g>
   <g id="matplotlib.axis_2">
    <g id="ytick_1">
     <g id="line2d_39">
      <defs>
       <path id="m9226ed63a6" d="M 0 0 
L -3.5 0 
" style="stroke: #000000; stroke-width: 0.8"/>
      </defs>
      <g>
       <use xlink:href="#m9226ed63a6" x="50.365625" y="137.779943" style="stroke: #000000; stroke-width: 0.8"/>
      </g>
     </g>
     <g id="text_9">
      <!-- 0.0 -->
      <g transform="translate(27.4625 141.579162) scale(0.1 -0.1)">
       <defs>
        <path id="DejaVuSerif-2e" d="M 603 325 
Q 603 500 722 622 
Q 841 744 1019 744 
Q 1191 744 1312 622 
Q 1434 500 1434 325 
Q 1434 153 1312 31 
Q 1191 -91 1019 -91 
Q 841 -91 722 29 
Q 603 150 603 325 
z
" transform="scale(0.015625)"/>
       </defs>
       <use xlink:href="#DejaVuSerif-30"/>
       <use xlink:href="#DejaVuSerif-2e" x="63.623047"/>
       <use xlink:href="#DejaVuSerif-30" x="95.410156"/>
      </g>
     </g>
    </g>
    <g id="ytick_2">
     <g id="line2d_40">
      <g>
       <use xlink:href="#m9226ed63a6" x="50.365625" y="115.787216" style="stroke: #000000; stroke-width: 0.8"/>
      </g>
     </g>
     <g id="text_10">
      <!-- 0.2 -->
      <g transform="translate(27.4625 119.586435) scale(0.1 -0.1)">
       <use xlink:href="#DejaVuSerif-30"/>
       <use xlink:href="#DejaVuSerif-2e" x="63.623047"/>
       <use xlink:href="#DejaVuSerif-32" x="95.410156"/>
      </g>
     </g>
    </g>
    <g id="ytick_3">
     <g id="line2d_41">
      <g>
       <use xlink:href="#m9226ed63a6" x="50.365625" y="93.794489" style="stroke: #000000; stroke-width: 0.8"/>
      </g>
     </g>
     <g id="text_11">
      <!-- 0.4 -->
      <g transform="translate(27.4625 97.593707) scale(0.1 -0.1)">
       <use xlink:href="#DejaVuSerif-30"/>
       <use xlink:href="#DejaVuSerif-2e" x="63.623047"/>
       <use xlink:href="#DejaVuSerif-34" x="95.410156"/>
      </g>
     </g>
    </g>
    <g id="ytick_4">
     <g id="line2d_42">
      <g>
       <use xlink:href="#m9226ed63a6" x="50.365625" y="71.801761" style="stroke: #000000; stroke-width: 0.8"/>
      </g>
     </g>
     <g id="text_12">
      <!-- 0.6 -->
      <g transform="translate(27.4625 75.60098) scale(0.1 -0.1)">
       <defs>
        <path id="DejaVuSerif-36" d="M 2094 219 
Q 2534 219 2771 542 
Q 3009 866 3009 1472 
Q 3009 2078 2771 2401 
Q 2534 2725 2094 2725 
Q 1647 2725 1412 2412 
Q 1178 2100 1178 1509 
Q 1178 888 1415 553 
Q 1653 219 2094 219 
z
M 1075 2569 
Q 1288 2803 1556 2918 
Q 1825 3034 2163 3034 
Q 2859 3034 3264 2615 
Q 3669 2197 3669 1472 
Q 3669 763 3233 336 
Q 2797 -91 2069 -91 
Q 1278 -91 853 498 
Q 428 1088 428 2181 
Q 428 3406 931 4078 
Q 1434 4750 2350 4750 
Q 2597 4750 2869 4703 
Q 3141 4656 3425 4563 
L 3425 3794 
L 3072 3794 
Q 3034 4109 2831 4275 
Q 2628 4441 2284 4441 
Q 1678 4441 1381 3981 
Q 1084 3522 1075 2569 
z
" transform="scale(0.015625)"/>
       </defs>
       <use xlink:href="#DejaVuSerif-30"/>
       <use xlink:href="#DejaVuSerif-2e" x="63.623047"/>
       <use xlink:href="#DejaVuSerif-36" x="95.410156"/>
      </g>
     </g>
    </g>
    <g id="ytick_5">
     <g id="line2d_43">
      <g>
       <use xlink:href="#m9226ed63a6" x="50.365625" y="49.809034" style="stroke: #000000; stroke-width: 0.8"/>
      </g>
     </g>
     <g id="text_13">
      <!-- 0.8 -->
      <g transform="translate(27.4625 53.608253) scale(0.1 -0.1)">
       <use xlink:href="#DejaVuSerif-30"/>
       <use xlink:href="#DejaVuSerif-2e" x="63.623047"/>
       <use xlink:href="#DejaVuSerif-38" x="95.410156"/>
      </g>
     </g>
    </g>
    <g id="ytick_6">
     <g id="line2d_44">
      <g>
       <use xlink:href="#m9226ed63a6" x="50.365625" y="27.816307" style="stroke: #000000; stroke-width: 0.8"/>
      </g>
     </g>
     <g id="text_14">
      <!-- 1.0 -->
      <g transform="translate(27.4625 31.615526) scale(0.1 -0.1)">
       <use xlink:href="#DejaVuSerif-31"/>
       <use xlink:href="#DejaVuSerif-2e" x="63.623047"/>
       <use xlink:href="#DejaVuSerif-30" x="95.410156"/>
      </g>
     </g>
    </g>
    <g id="text_15">
     <!-- Prob. of being in $S_t=1$ -->
     <g transform="translate(21.1625 140.848125) rotate(-90) scale(0.1 -0.1)">
      <defs>
       <path id="DejaVuSerif-50" d="M 1581 2375 
L 2406 2375 
Q 2872 2375 3115 2626 
Q 3359 2878 3359 3353 
Q 3359 3831 3115 4081 
Q 2872 4331 2406 4331 
L 1581 4331 
L 1581 2375 
z
M 353 0 
L 353 331 
L 947 331 
L 947 4331 
L 353 4331 
L 353 4666 
L 2559 4666 
Q 3259 4666 3668 4311 
Q 4078 3956 4078 3353 
Q 4078 2753 3668 2397 
Q 3259 2041 2559 2041 
L 1581 2041 
L 1581 331 
L 2303 331 
L 2303 0 
L 353 0 
z
" transform="scale(0.015625)"/>
       <path id="DejaVuSerif-72" d="M 3059 3328 
L 3059 2497 
L 2728 2497 
Q 2713 2744 2591 2866 
Q 2469 2988 2234 2988 
Q 1809 2988 1582 2694 
Q 1356 2400 1356 1850 
L 1356 331 
L 2022 331 
L 2022 0 
L 263 0 
L 263 331 
L 781 331 
L 781 2994 
L 231 2994 
L 231 3322 
L 1356 3322 
L 1356 2731 
Q 1525 3078 1790 3245 
Q 2056 3413 2438 3413 
Q 2578 3413 2733 3391 
Q 2888 3369 3059 3328 
z
" transform="scale(0.015625)"/>
       <path id="DejaVuSerif-6f" d="M 1925 219 
Q 2388 219 2623 584 
Q 2859 950 2859 1663 
Q 2859 2375 2623 2739 
Q 2388 3103 1925 3103 
Q 1463 3103 1227 2739 
Q 991 2375 991 1663 
Q 991 950 1228 584 
Q 1466 219 1925 219 
z
M 1925 -91 
Q 1200 -91 759 389 
Q 319 869 319 1663 
Q 319 2456 758 2934 
Q 1197 3413 1925 3413 
Q 2653 3413 3092 2934 
Q 3531 2456 3531 1663 
Q 3531 869 3092 389 
Q 2653 -91 1925 -91 
z
" transform="scale(0.015625)"/>
       <path id="DejaVuSerif-62" d="M 738 331 
L 738 4531 
L 184 4531 
L 184 4863 
L 1313 4863 
L 1313 2803 
Q 1481 3116 1742 3264 
Q 2003 3413 2388 3413 
Q 3000 3413 3387 2928 
Q 3775 2444 3775 1663 
Q 3775 881 3387 395 
Q 3000 -91 2388 -91 
Q 2003 -91 1742 57 
Q 1481 206 1313 519 
L 1313 0 
L 184 0 
L 184 331 
L 738 331 
z
M 1313 1497 
Q 1313 897 1542 583 
Q 1772 269 2209 269 
Q 2650 269 2876 622 
Q 3103 975 3103 1663 
Q 3103 2353 2876 2703 
Q 2650 3053 2209 3053 
Q 1772 3053 1542 2737 
Q 1313 2422 1313 1825 
L 1313 1497 
z
" transform="scale(0.015625)"/>
       <path id="DejaVuSerif-20" transform="scale(0.015625)"/>
       <path id="DejaVuSerif-66" d="M 2753 4078 
L 2450 4078 
Q 2447 4313 2317 4434 
Q 2188 4556 1941 4556 
Q 1619 4556 1487 4379 
Q 1356 4203 1356 3750 
L 1356 3322 
L 2284 3322 
L 2284 2988 
L 1356 2988 
L 1356 331 
L 2094 331 
L 2094 0 
L 231 0 
L 231 331 
L 781 331 
L 781 2988 
L 231 2988 
L 231 3322 
L 781 3322 
L 781 3738 
Q 781 4294 1070 4578 
Q 1359 4863 1919 4863 
Q 2128 4863 2337 4825 
Q 2547 4788 2753 4709 
L 2753 4078 
z
" transform="scale(0.015625)"/>
       <path id="DejaVuSerif-65" d="M 3469 1600 
L 991 1600 
L 991 1575 
Q 991 903 1244 561 
Q 1497 219 1991 219 
Q 2369 219 2611 417 
Q 2853 616 2950 1006 
L 3413 1006 
Q 3275 459 2904 184 
Q 2534 -91 1931 -91 
Q 1203 -91 761 389 
Q 319 869 319 1663 
Q 319 2450 753 2931 
Q 1188 3413 1894 3413 
Q 2647 3413 3050 2948 
Q 3453 2484 3469 1600 
z
M 2791 1931 
Q 2772 2513 2545 2808 
Q 2319 3103 1894 3103 
Q 1497 3103 1269 2806 
Q 1041 2509 991 1931 
L 2791 1931 
z
" transform="scale(0.015625)"/>
       <path id="DejaVuSerif-69" d="M 622 4353 
Q 622 4497 726 4603 
Q 831 4709 978 4709 
Q 1122 4709 1226 4603 
Q 1331 4497 1331 4353 
Q 1331 4206 1228 4103 
Q 1125 4000 978 4000 
Q 831 4000 726 4103 
Q 622 4206 622 4353 
z
M 1356 331 
L 1900 331 
L 1900 0 
L 231 0 
L 231 331 
L 781 331 
L 781 2988 
L 231 2988 
L 231 3322 
L 1356 3322 
L 1356 331 
z
" transform="scale(0.015625)"/>
       <path id="DejaVuSerif-6e" d="M 263 0 
L 263 331 
L 781 331 
L 781 2988 
L 231 2988 
L 231 3322 
L 1356 3322 
L 1356 2731 
Q 1516 3069 1770 3241 
Q 2025 3413 2363 3413 
Q 2913 3413 3172 3097 
Q 3431 2781 3431 2113 
L 3431 331 
L 3944 331 
L 3944 0 
L 2356 0 
L 2356 331 
L 2853 331 
L 2853 1931 
Q 2853 2541 2703 2767 
Q 2553 2994 2175 2994 
Q 1775 2994 1565 2701 
Q 1356 2409 1356 1850 
L 1356 331 
L 1856 331 
L 1856 0 
L 263 0 
z
" transform="scale(0.015625)"/>
       <path id="DejaVuSerif-67" d="M 3359 2988 
L 3359 72 
Q 3359 -644 2965 -1033 
Q 2572 -1422 1844 -1422 
Q 1516 -1422 1216 -1362 
Q 916 -1303 641 -1184 
L 641 -488 
L 941 -488 
Q 997 -813 1206 -963 
Q 1416 -1113 1806 -1113 
Q 2313 -1113 2548 -827 
Q 2784 -541 2784 72 
L 2784 519 
Q 2616 206 2355 57 
Q 2094 -91 1709 -91 
Q 1097 -91 708 395 
Q 319 881 319 1663 
Q 319 2444 706 2928 
Q 1094 3413 1709 3413 
Q 2094 3413 2355 3264 
Q 2616 3116 2784 2803 
L 2784 3322 
L 3909 3322 
L 3909 2988 
L 3359 2988 
z
M 2784 1825 
Q 2784 2422 2554 2737 
Q 2325 3053 1888 3053 
Q 1444 3053 1217 2703 
Q 991 2353 991 1663 
Q 991 975 1217 622 
Q 1444 269 1888 269 
Q 2325 269 2554 583 
Q 2784 897 2784 1497 
L 2784 1825 
z
" transform="scale(0.015625)"/>
       <path id="DejaVuSerif-Italic-53" d="M 184 225 
L 391 1288 
L 750 1284 
Q 663 753 905 498 
Q 1147 244 1744 244 
Q 2300 244 2636 464 
Q 2972 684 3053 1106 
Q 3119 1444 2976 1625 
Q 2834 1806 2300 1978 
L 1722 2163 
Q 1091 2366 877 2669 
Q 663 2972 766 3500 
Q 881 4094 1367 4422 
Q 1853 4750 2616 4750 
Q 2941 4750 3314 4679 
Q 3688 4609 4097 4475 
L 3906 3481 
L 3553 3481 
Q 3594 3975 3361 4195 
Q 3128 4416 2563 4416 
Q 2069 4416 1772 4214 
Q 1475 4013 1400 3628 
Q 1334 3294 1490 3103 
Q 1647 2913 2241 2725 
L 2784 2553 
Q 3381 2363 3593 2067 
Q 3806 1772 3709 1275 
Q 3578 597 3076 253 
Q 2575 -91 1716 -91 
Q 1331 -91 948 -12 
Q 566 66 184 225 
z
" transform="scale(0.015625)"/>
       <path id="DejaVuSerif-Italic-74" d="M 856 2988 
L 350 2988 
L 416 3322 
L 922 3322 
L 1122 4353 
L 1700 4353 
L 1500 3322 
L 2581 3322 
L 2516 2988 
L 1434 2988 
L 1025 878 
Q 978 631 978 488 
Q 978 388 1000 338 
Q 1059 219 1278 219 
Q 1503 219 1633 351 
Q 1763 484 1825 781 
L 2259 781 
Q 2147 328 1884 118 
Q 1622 -91 1169 -91 
Q 672 -91 506 131 
Q 406 266 406 516 
Q 406 675 447 878 
L 856 2988 
z
" transform="scale(0.015625)"/>
       <path id="DejaVuSerif-3d" d="M 678 2894 
L 4684 2894 
L 4684 2394 
L 678 2394 
L 678 2894 
z
M 678 1619 
L 4684 1619 
L 4684 1119 
L 678 1119 
L 678 1619 
z
" transform="scale(0.015625)"/>
      </defs>
      <use xlink:href="#DejaVuSerif-50" transform="translate(0 0.015625)"/>
      <use xlink:href="#DejaVuSerif-72" transform="translate(67.285156 0.015625)"/>
      <use xlink:href="#DejaVuSerif-6f" transform="translate(115.087891 0.015625)"/>
      <use xlink:href="#DejaVuSerif-62" transform="translate(175.292969 0.015625)"/>
      <use xlink:href="#DejaVuSerif-2e" transform="translate(239.306641 0.015625)"/>
      <use xlink:href="#DejaVuSerif-20" transform="translate(271.09375 0.015625)"/>
      <use xlink:href="#DejaVuSerif-6f" transform="translate(302.880859 0.015625)"/>
      <use xlink:href="#DejaVuSerif-66" transform="translate(363.085938 0.015625)"/>
      <use xlink:href="#DejaVuSerif-20" transform="translate(400.097656 0.015625)"/>
      <use xlink:href="#DejaVuSerif-62" transform="translate(431.884766 0.015625)"/>
      <use xlink:href="#DejaVuSerif-65" transform="translate(495.898438 0.015625)"/>
      <use xlink:href="#DejaVuSerif-69" transform="translate(555.078125 0.015625)"/>
      <use xlink:href="#DejaVuSerif-6e" transform="translate(587.060547 0.015625)"/>
      <use xlink:href="#DejaVuSerif-67" transform="translate(651.464844 0.015625)"/>
      <use xlink:href="#DejaVuSerif-20" transform="translate(715.478516 0.015625)"/>
      <use xlink:href="#DejaVuSerif-69" transform="translate(747.265625 0.015625)"/>
      <use xlink:href="#DejaVuSerif-6e" transform="translate(779.248047 0.015625)"/>
      <use xlink:href="#DejaVuSerif-20" transform="translate(843.652344 0.015625)"/>
      <use xlink:href="#DejaVuSerif-Italic-53" transform="translate(875.439453 0.015625)"/>
      <use xlink:href="#DejaVuSerif-Italic-74" transform="translate(943.945312 -15.55625) scale(0.7)"/>
      <use xlink:href="#DejaVuSerif-3d" transform="translate(993.635352 0.015625)"/>
      <use xlink:href="#DejaVuSerif-31" transform="translate(1096.389258 0.015625)"/>
     </g>
    </g>
   </g>
   <g id="line2d_45">
    <path d="M 50.365625 137.779519 
L 52.730658 137.778716 
L 55.095691 135.431382 
L 57.460724 91.145677 
L 59.825757 40.167439 
L 62.190791 30.284301 
L 64.555824 29.024693 
L 66.920857 28.255579 
L 69.28589 28.030076 
L 74.015956 27.882763 
L 97.666287 27.816307 
L 116.586552 27.816391 
L 118.951585 27.992469 
L 121.316618 118.566717 
L 123.681651 137.41626 
L 126.046685 137.775329 
L 144.96695 137.75856 
L 147.331983 137.415691 
L 149.697016 137.376899 
L 154.427082 137.740272 
L 161.522181 137.779943 
L 258.488539 137.723608 
L 260.853572 137.506446 
L 263.218605 137.779943 
L 270.313704 137.779871 
L 272.678738 137.420755 
L 275.043771 137.469751 
L 277.408804 137.776826 
L 364.915029 137.779943 
L 407.485625 137.779943 
L 407.485625 137.779943 
" clip-path="url(#p4322b4d0f9)" style="fill: none; stroke: #1f77b4; stroke-width: 1.5; stroke-linecap: square"/>
   </g>
   <g id="patch_37">
    <path d="M 50.365625 143.278125 
L 50.365625 22.318125 
" style="fill: none; stroke: #000000; stroke-width: 0.8; stroke-linejoin: miter; stroke-linecap: square"/>
   </g>
   <g id="patch_38">
    <path d="M 407.485625 143.278125 
L 407.485625 22.318125 
" style="fill: none; stroke: #000000; stroke-width: 0.8; stroke-linejoin: miter; stroke-linecap: square"/>
   </g>
   <g id="patch_39">
    <path d="M 50.365625 143.278125 
L 407.485625 143.278125 
" style="fill: none; stroke: #000000; stroke-width: 0.8; stroke-linejoin: miter; stroke-linecap: square"/>
   </g>
   <g id="patch_40">
    <path d="M 50.365625 22.318125 
L 407.485625 22.318125 
" style="fill: none; stroke: #000000; stroke-width: 0.8; stroke-linejoin: miter; stroke-linecap: square"/>
   </g>
   <g id="text_16">
    <!-- Switzerland -->
    <g transform="translate(192.5675 16.318125) scale(0.12 -0.12)">
     <defs>
      <path id="DejaVuSerif-53" d="M 594 225 
L 594 1288 
L 953 1284 
Q 969 753 1261 498 
Q 1553 244 2150 244 
Q 2706 244 2998 464 
Q 3291 684 3291 1106 
Q 3291 1444 3114 1625 
Q 2938 1806 2369 1978 
L 1753 2163 
Q 1084 2366 811 2669 
Q 538 2972 538 3500 
Q 538 4094 959 4422 
Q 1381 4750 2144 4750 
Q 2469 4750 2856 4679 
Q 3244 4609 3681 4475 
L 3681 3481 
L 3328 3481 
Q 3275 3975 2998 4195 
Q 2722 4416 2156 4416 
Q 1663 4416 1405 4214 
Q 1147 4013 1147 3628 
Q 1147 3294 1340 3103 
Q 1534 2913 2163 2725 
L 2741 2553 
Q 3375 2363 3645 2067 
Q 3916 1772 3916 1275 
Q 3916 597 3481 253 
Q 3047 -91 2188 -91 
Q 1803 -91 1404 -12 
Q 1006 66 594 225 
z
" transform="scale(0.015625)"/>
      <path id="DejaVuSerif-77" d="M 3072 3322 
L 3922 728 
L 4672 2988 
L 4191 2988 
L 4191 3322 
L 5394 3322 
L 5394 2988 
L 5025 2988 
L 4038 0 
L 3559 0 
L 2741 2484 
L 1919 0 
L 1459 0 
L 475 2988 
L 103 2988 
L 103 3322 
L 1606 3322 
L 1606 2988 
L 1069 2988 
L 1813 728 
L 2669 3322 
L 3072 3322 
z
" transform="scale(0.015625)"/>
      <path id="DejaVuSerif-74" d="M 691 2988 
L 184 2988 
L 184 3322 
L 691 3322 
L 691 4353 
L 1269 4353 
L 1269 3322 
L 2350 3322 
L 2350 2988 
L 1269 2988 
L 1269 878 
Q 1269 456 1350 337 
Q 1431 219 1650 219 
Q 1875 219 1978 351 
Q 2081 484 2088 781 
L 2522 781 
Q 2497 328 2275 118 
Q 2053 -91 1600 -91 
Q 1103 -91 897 129 
Q 691 350 691 878 
L 691 2988 
z
" transform="scale(0.015625)"/>
      <path id="DejaVuSerif-7a" d="M 256 0 
L 256 269 
L 2338 2988 
L 691 2988 
L 691 2413 
L 359 2413 
L 359 3322 
L 3078 3322 
L 3078 3053 
L 997 331 
L 2803 331 
L 2803 934 
L 3138 934 
L 3138 0 
L 256 0 
z
" transform="scale(0.015625)"/>
      <path id="DejaVuSerif-6c" d="M 1313 331 
L 1856 331 
L 1856 0 
L 184 0 
L 184 331 
L 738 331 
L 738 4531 
L 184 4531 
L 184 4863 
L 1313 4863 
L 1313 331 
z
" transform="scale(0.015625)"/>
      <path id="DejaVuSerif-61" d="M 2547 1044 
L 2547 1747 
L 1806 1747 
Q 1378 1747 1168 1562 
Q 959 1378 959 997 
Q 959 650 1171 447 
Q 1384 244 1747 244 
Q 2106 244 2326 466 
Q 2547 688 2547 1044 
z
M 3122 2075 
L 3122 331 
L 3634 331 
L 3634 0 
L 2547 0 
L 2547 359 
Q 2356 128 2106 18 
Q 1856 -91 1522 -91 
Q 969 -91 644 203 
Q 319 497 319 997 
Q 319 1513 691 1797 
Q 1063 2081 1741 2081 
L 2547 2081 
L 2547 2309 
Q 2547 2688 2317 2895 
Q 2088 3103 1672 3103 
Q 1328 3103 1125 2947 
Q 922 2791 872 2484 
L 575 2484 
L 575 3156 
Q 875 3284 1158 3348 
Q 1441 3413 1709 3413 
Q 2400 3413 2761 3070 
Q 3122 2728 3122 2075 
z
" transform="scale(0.015625)"/>
      <path id="DejaVuSerif-64" d="M 3359 331 
L 3909 331 
L 3909 0 
L 2784 0 
L 2784 519 
Q 2616 206 2355 57 
Q 2094 -91 1709 -91 
Q 1097 -91 708 395 
Q 319 881 319 1663 
Q 319 2444 706 2928 
Q 1094 3413 1709 3413 
Q 2094 3413 2355 3264 
Q 2616 3116 2784 2803 
L 2784 4531 
L 2241 4531 
L 2241 4863 
L 3359 4863 
L 3359 331 
z
M 2784 1497 
L 2784 1825 
Q 2784 2422 2554 2737 
Q 2325 3053 1888 3053 
Q 1444 3053 1217 2703 
Q 991 2353 991 1663 
Q 991 975 1217 622 
Q 1444 269 1888 269 
Q 2325 269 2554 583 
Q 2784 897 2784 1497 
z
" transform="scale(0.015625)"/>
     </defs>
     <use xlink:href="#DejaVuSerif-53"/>
     <use xlink:href="#DejaVuSerif-77" x="68.505859"/>
     <use xlink:href="#DejaVuSerif-69" x="154.101562"/>
     <use xlink:href="#DejaVuSerif-74" x="186.083984"/>
     <use xlink:href="#DejaVuSerif-7a" x="226.269531"/>
     <use xlink:href="#DejaVuSerif-65" x="278.955078"/>
     <use xlink:href="#DejaVuSerif-72" x="338.134766"/>
     <use xlink:href="#DejaVuSerif-6c" x="385.9375"/>
     <use xlink:href="#DejaVuSerif-61" x="417.919922"/>
     <use xlink:href="#DejaVuSerif-6e" x="477.539062"/>
     <use xlink:href="#DejaVuSerif-64" x="541.943359"/>
    </g>
   </g>
  </g>
  <g id="axes_2">
   <g id="patch_41">
    <path d="M 50.365625 288.430125 
L 407.485625 288.430125 
L 407.485625 167.470125 
L 50.365625 167.470125 
z
" style="fill: #ffffff"/>
   </g>
   <g id="patch_42">
    <path d="M -1172.356494 288.430125 
L -1158.166296 288.430125 
L -1158.166296 167.470125 
L -1172.356494 167.470125 
z
" clip-path="url(#pb8b87ad556)" style="fill: #d3d3d3"/>
   </g>
   <g id="patch_43">
    <path d="M -1141.611064 288.430125 
L -1132.150931 288.430125 
L -1132.150931 167.470125 
L -1141.611064 167.470125 
z
" clip-path="url(#pb8b87ad556)" style="fill: #d3d3d3"/>
   </g>
   <g id="patch_44">
    <path d="M -1099.040468 288.430125 
L -1080.120203 288.430125 
L -1080.120203 167.470125 
L -1099.040468 167.470125 
z
" clip-path="url(#pb8b87ad556)" style="fill: #d3d3d3"/>
   </g>
   <g id="patch_45">
    <path d="M -1058.834905 288.430125 
L -1044.644706 288.430125 
L -1044.644706 167.470125 
L -1058.834905 167.470125 
z
" clip-path="url(#pb8b87ad556)" style="fill: #d3d3d3"/>
   </g>
   <g id="patch_46">
    <path d="M -1018.629342 288.430125 
L -966.598613 288.430125 
L -966.598613 167.470125 
L -1018.629342 167.470125 
z
" clip-path="url(#pb8b87ad556)" style="fill: #d3d3d3"/>
   </g>
   <g id="patch_47">
    <path d="M -938.218216 288.430125 
L -907.472786 288.430125 
L -907.472786 167.470125 
L -938.218216 167.470125 
z
" clip-path="url(#pb8b87ad556)" style="fill: #d3d3d3"/>
   </g>
   <g id="patch_48">
    <path d="M -888.552521 288.430125 
L -881.457421 288.430125 
L -881.457421 167.470125 
L -888.552521 167.470125 
z
" clip-path="url(#pb8b87ad556)" style="fill: #d3d3d3"/>
   </g>
   <g id="patch_49">
    <path d="M -857.80709 288.430125 
L -850.711991 288.430125 
L -850.711991 167.470125 
L -857.80709 167.470125 
z
" clip-path="url(#pb8b87ad556)" style="fill: #d3d3d3"/>
   </g>
   <g id="patch_50">
    <path d="M -834.156759 288.430125 
L -822.331594 288.430125 
L -822.331594 167.470125 
L -834.156759 167.470125 
z
" clip-path="url(#pb8b87ad556)" style="fill: #d3d3d3"/>
   </g>
   <g id="patch_51">
    <path d="M -808.141395 288.430125 
L -793.951196 288.430125 
L -793.951196 167.470125 
L -808.141395 167.470125 
z
" clip-path="url(#pb8b87ad556)" style="fill: #d3d3d3"/>
   </g>
   <g id="patch_52">
    <path d="M -772.665898 288.430125 
L -760.840733 288.430125 
L -760.840733 167.470125 
L -772.665898 167.470125 
z
" clip-path="url(#pb8b87ad556)" style="fill: #d3d3d3"/>
   </g>
   <g id="patch_53">
    <path d="M -741.920468 288.430125 
L -725.365236 288.430125 
L -725.365236 167.470125 
L -741.920468 167.470125 
z
" clip-path="url(#pb8b87ad556)" style="fill: #d3d3d3"/>
   </g>
   <g id="patch_54">
    <path d="M -699.349872 288.430125 
L -689.889739 288.430125 
L -689.889739 167.470125 
L -699.349872 167.470125 
z
" clip-path="url(#pb8b87ad556)" style="fill: #d3d3d3"/>
   </g>
   <g id="patch_55">
    <path d="M -673.334507 288.430125 
L -656.779276 288.430125 
L -656.779276 167.470125 
L -673.334507 167.470125 
z
" clip-path="url(#pb8b87ad556)" style="fill: #d3d3d3"/>
   </g>
   <g id="patch_56">
    <path d="M -644.95411 288.430125 
L -628.398878 288.430125 
L -628.398878 167.470125 
L -644.95411 167.470125 
z
" clip-path="url(#pb8b87ad556)" style="fill: #d3d3d3"/>
   </g>
   <g id="patch_57">
    <path d="M -592.923382 288.430125 
L -588.193315 288.430125 
L -588.193315 167.470125 
L -592.923382 167.470125 
z
" clip-path="url(#pb8b87ad556)" style="fill: #d3d3d3"/>
   </g>
   <g id="patch_58">
    <path d="M -578.733183 288.430125 
L -564.542984 288.430125 
L -564.542984 167.470125 
L -578.733183 167.470125 
z
" clip-path="url(#pb8b87ad556)" style="fill: #d3d3d3"/>
   </g>
   <g id="patch_59">
    <path d="M -547.987752 288.430125 
L -536.162587 288.430125 
L -536.162587 167.470125 
L -547.987752 167.470125 
z
" clip-path="url(#pb8b87ad556)" style="fill: #d3d3d3"/>
   </g>
   <g id="patch_60">
    <path d="M -517.242322 288.430125 
L -505.417156 288.430125 
L -505.417156 167.470125 
L -517.242322 167.470125 
z
" clip-path="url(#pb8b87ad556)" style="fill: #d3d3d3"/>
   </g>
   <g id="patch_61">
    <path d="M -488.861925 288.430125 
L -455.751461 288.430125 
L -455.751461 167.470125 
L -488.861925 167.470125 
z
" clip-path="url(#pb8b87ad556)" style="fill: #d3d3d3"/>
   </g>
   <g id="patch_62">
    <path d="M -415.545898 288.430125 
L -406.085766 288.430125 
L -406.085766 167.470125 
L -415.545898 167.470125 
z
" clip-path="url(#pb8b87ad556)" style="fill: #d3d3d3"/>
   </g>
   <g id="patch_63">
    <path d="M -342.229872 288.430125 
L -335.134772 288.430125 
L -335.134772 167.470125 
L -342.229872 167.470125 
z
" clip-path="url(#pb8b87ad556)" style="fill: #d3d3d3"/>
   </g>
   <g id="patch_64">
    <path d="M -306.754375 288.430125 
L -297.294243 288.430125 
L -297.294243 167.470125 
L -306.754375 167.470125 
z
" clip-path="url(#pb8b87ad556)" style="fill: #d3d3d3"/>
   </g>
   <g id="patch_65">
    <path d="M -264.183779 288.430125 
L -254.723647 288.430125 
L -254.723647 167.470125 
L -264.183779 167.470125 
z
" clip-path="url(#pb8b87ad556)" style="fill: #d3d3d3"/>
   </g>
   <g id="patch_66">
    <path d="M -223.978216 288.430125 
L -216.883117 288.430125 
L -216.883117 167.470125 
L -223.978216 167.470125 
z
" clip-path="url(#pb8b87ad556)" style="fill: #d3d3d3"/>
   </g>
   <g id="patch_67">
    <path d="M -197.962852 288.430125 
L -190.867752 288.430125 
L -190.867752 167.470125 
L -197.962852 167.470125 
z
" clip-path="url(#pb8b87ad556)" style="fill: #d3d3d3"/>
   </g>
   <g id="patch_68">
    <path d="M -108.091594 288.430125 
L -98.631461 288.430125 
L -98.631461 167.470125 
L -108.091594 167.470125 
z
" clip-path="url(#pb8b87ad556)" style="fill: #d3d3d3"/>
   </g>
   <g id="patch_69">
    <path d="M -70.251064 288.430125 
L -58.425898 288.430125 
L -58.425898 167.470125 
L -70.251064 167.470125 
z
" clip-path="url(#pb8b87ad556)" style="fill: #d3d3d3"/>
   </g>
   <g id="patch_70">
    <path d="M -11.125236 288.430125 
L -6.39517 288.430125 
L -6.39517 167.470125 
L -11.125236 167.470125 
z
" clip-path="url(#pb8b87ad556)" style="fill: #d3d3d3"/>
   </g>
   <g id="patch_71">
    <path d="M 3.064963 288.430125 
L 14.890128 288.430125 
L 14.890128 167.470125 
L 3.064963 167.470125 
z
" clip-path="url(#pb8b87ad556)" style="fill: #d3d3d3"/>
   </g>
   <g id="patch_72">
    <path d="M 88.206155 288.430125 
L 92.936221 288.430125 
L 92.936221 167.470125 
L 88.206155 167.470125 
z
" clip-path="url(#pb8b87ad556)" style="fill: #d3d3d3"/>
   </g>
   <g id="patch_73">
    <path d="M 187.537546 288.430125 
L 194.632645 288.430125 
L 194.632645 167.470125 
L 187.537546 167.470125 
z
" clip-path="url(#pb8b87ad556)" style="fill: #d3d3d3"/>
   </g>
   <g id="patch_74">
    <path d="M 251.39344 288.430125 
L 265.583638 288.430125 
L 265.583638 167.470125 
L 251.39344 167.470125 
z
" clip-path="url(#pb8b87ad556)" style="fill: #d3d3d3"/>
   </g>
   <g id="patch_75">
    <path d="M 364.915029 288.430125 
L 369.645095 288.430125 
L 369.645095 167.470125 
L 364.915029 167.470125 
z
" clip-path="url(#pb8b87ad556)" style="fill: #d3d3d3"/>
   </g>
   <g id="matplotlib.axis_3">
    <g id="xtick_39">
     <g id="line2d_46">
      <g>
       <use xlink:href="#mcca9957808" x="74.015956" y="288.430125" style="stroke: #000000; stroke-width: 0.8"/>
      </g>
     </g>
     <g id="text_17">
      <!-- 1989 -->
      <g transform="translate(61.290956 303.028562) scale(0.1 -0.1)">
       <use xlink:href="#DejaVuSerif-31"/>
       <use xlink:href="#DejaVuSerif-39" x="63.623047"/>
       <use xlink:href="#DejaVuSerif-38" x="127.246094"/>
       <use xlink:href="#DejaVuSerif-39" x="190.869141"/>
      </g>
     </g>
    </g>
    <g id="xtick_40">
     <g id="line2d_47">
      <g>
       <use xlink:href="#mcca9957808" x="121.316618" y="288.430125" style="stroke: #000000; stroke-width: 0.8"/>
      </g>
     </g>
     <g id="text_18">
      <!-- 1994 -->
      <g transform="translate(108.591618 303.028562) scale(0.1 -0.1)">
       <use xlink:href="#DejaVuSerif-31"/>
       <use xlink:href="#DejaVuSerif-39" x="63.623047"/>
       <use xlink:href="#DejaVuSerif-39" x="127.246094"/>
       <use xlink:href="#DejaVuSerif-34" x="190.869141"/>
      </g>
     </g>
    </g>
    <g id="xtick_41">
     <g id="line2d_48">
      <g>
       <use xlink:href="#mcca9957808" x="168.617281" y="288.430125" style="stroke: #000000; stroke-width: 0.8"/>
      </g>
     </g>
     <g id="text_19">
      <!-- 1999 -->
      <g transform="translate(155.892281 303.028562) scale(0.1 -0.1)">
       <use xlink:href="#DejaVuSerif-31"/>
       <use xlink:href="#DejaVuSerif-39" x="63.623047"/>
       <use xlink:href="#DejaVuSerif-39" x="127.246094"/>
       <use xlink:href="#DejaVuSerif-39" x="190.869141"/>
      </g>
     </g>
    </g>
    <g id="xtick_42">
     <g id="line2d_49">
      <g>
       <use xlink:href="#mcca9957808" x="215.917943" y="288.430125" style="stroke: #000000; stroke-width: 0.8"/>
      </g>
     </g>
     <g id="text_20">
      <!-- 2004 -->
      <g transform="translate(203.192943 303.028562) scale(0.1 -0.1)">
       <use xlink:href="#DejaVuSerif-32"/>
       <use xlink:href="#DejaVuSerif-30" x="63.623047"/>
       <use xlink:href="#DejaVuSerif-30" x="127.246094"/>
       <use xlink:href="#DejaVuSerif-34" x="190.869141"/>
      </g>
     </g>
    </g>
    <g id="xtick_43">
     <g id="line2d_50">
      <g>
       <use xlink:href="#mcca9957808" x="263.218605" y="288.430125" style="stroke: #000000; stroke-width: 0.8"/>
      </g>
     </g>
     <g id="text_21">
      <!-- 2009 -->
      <g transform="translate(250.493605 303.028562) scale(0.1 -0.1)">
       <use xlink:href="#DejaVuSerif-32"/>
       <use xlink:href="#DejaVuSerif-30" x="63.623047"/>
       <use xlink:href="#DejaVuSerif-30" x="127.246094"/>
       <use xlink:href="#DejaVuSerif-39" x="190.869141"/>
      </g>
     </g>
    </g>
    <g id="xtick_44">
     <g id="line2d_51">
      <g>
       <use xlink:href="#mcca9957808" x="310.519267" y="288.430125" style="stroke: #000000; stroke-width: 0.8"/>
      </g>
     </g>
     <g id="text_22">
      <!-- 2014 -->
      <g transform="translate(297.794267 303.028562) scale(0.1 -0.1)">
       <use xlink:href="#DejaVuSerif-32"/>
       <use xlink:href="#DejaVuSerif-30" x="63.623047"/>
       <use xlink:href="#DejaVuSerif-31" x="127.246094"/>
       <use xlink:href="#DejaVuSerif-34" x="190.869141"/>
      </g>
     </g>
    </g>
    <g id="xtick_45">
     <g id="line2d_52">
      <g>
       <use xlink:href="#mcca9957808" x="357.81993" y="288.430125" style="stroke: #000000; stroke-width: 0.8"/>
      </g>
     </g>
     <g id="text_23">
      <!-- 2019 -->
      <g transform="translate(345.09493 303.028562) scale(0.1 -0.1)">
       <use xlink:href="#DejaVuSerif-32"/>
       <use xlink:href="#DejaVuSerif-30" x="63.623047"/>
       <use xlink:href="#DejaVuSerif-31" x="127.246094"/>
       <use xlink:href="#DejaVuSerif-39" x="190.869141"/>
      </g>
     </g>
    </g>
    <g id="xtick_46">
     <g id="line2d_53">
      <g>
       <use xlink:href="#mcca9957808" x="405.120592" y="288.430125" style="stroke: #000000; stroke-width: 0.8"/>
      </g>
     </g>
     <g id="text_24">
      <!-- 2024 -->
      <g transform="translate(392.395592 303.028562) scale(0.1 -0.1)">
       <use xlink:href="#DejaVuSerif-32"/>
       <use xlink:href="#DejaVuSerif-30" x="63.623047"/>
       <use xlink:href="#DejaVuSerif-32" x="127.246094"/>
       <use xlink:href="#DejaVuSerif-34" x="190.869141"/>
      </g>
     </g>
    </g>
    <g id="xtick_47">
     <g id="line2d_54">
      <g>
       <use xlink:href="#m510c86f37d" x="55.095691" y="288.430125" style="stroke: #000000; stroke-width: 0.6"/>
      </g>
     </g>
    </g>
    <g id="xtick_48">
     <g id="line2d_55">
      <g>
       <use xlink:href="#m510c86f37d" x="64.555824" y="288.430125" style="stroke: #000000; stroke-width: 0.6"/>
      </g>
     </g>
    </g>
    <g id="xtick_49">
     <g id="line2d_56">
      <g>
       <use xlink:href="#m510c86f37d" x="83.476089" y="288.430125" style="stroke: #000000; stroke-width: 0.6"/>
      </g>
     </g>
    </g>
    <g id="xtick_50">
     <g id="line2d_57">
      <g>
       <use xlink:href="#m510c86f37d" x="92.936221" y="288.430125" style="stroke: #000000; stroke-width: 0.6"/>
      </g>
     </g>
    </g>
    <g id="xtick_51">
     <g id="line2d_58">
      <g>
       <use xlink:href="#m510c86f37d" x="102.396353" y="288.430125" style="stroke: #000000; stroke-width: 0.6"/>
      </g>
     </g>
    </g>
    <g id="xtick_52">
     <g id="line2d_59">
      <g>
       <use xlink:href="#m510c86f37d" x="111.856486" y="288.430125" style="stroke: #000000; stroke-width: 0.6"/>
      </g>
     </g>
    </g>
    <g id="xtick_53">
     <g id="line2d_60">
      <g>
       <use xlink:href="#m510c86f37d" x="130.776751" y="288.430125" style="stroke: #000000; stroke-width: 0.6"/>
      </g>
     </g>
    </g>
    <g id="xtick_54">
     <g id="line2d_61">
      <g>
       <use xlink:href="#m510c86f37d" x="140.236883" y="288.430125" style="stroke: #000000; stroke-width: 0.6"/>
      </g>
     </g>
    </g>
    <g id="xtick_55">
     <g id="line2d_62">
      <g>
       <use xlink:href="#m510c86f37d" x="149.697016" y="288.430125" style="stroke: #000000; stroke-width: 0.6"/>
      </g>
     </g>
    </g>
    <g id="xtick_56">
     <g id="line2d_63">
      <g>
       <use xlink:href="#m510c86f37d" x="159.157148" y="288.430125" style="stroke: #000000; stroke-width: 0.6"/>
      </g>
     </g>
    </g>
    <g id="xtick_57">
     <g id="line2d_64">
      <g>
       <use xlink:href="#m510c86f37d" x="178.077413" y="288.430125" style="stroke: #000000; stroke-width: 0.6"/>
      </g>
     </g>
    </g>
    <g id="xtick_58">
     <g id="line2d_65">
      <g>
       <use xlink:href="#m510c86f37d" x="187.537546" y="288.430125" style="stroke: #000000; stroke-width: 0.6"/>
      </g>
     </g>
    </g>
    <g id="xtick_59">
     <g id="line2d_66">
      <g>
       <use xlink:href="#m510c86f37d" x="196.997678" y="288.430125" style="stroke: #000000; stroke-width: 0.6"/>
      </g>
     </g>
    </g>
    <g id="xtick_60">
     <g id="line2d_67">
      <g>
       <use xlink:href="#m510c86f37d" x="206.45781" y="288.430125" style="stroke: #000000; stroke-width: 0.6"/>
      </g>
     </g>
    </g>
    <g id="xtick_61">
     <g id="line2d_68">
      <g>
       <use xlink:href="#m510c86f37d" x="225.378075" y="288.430125" style="stroke: #000000; stroke-width: 0.6"/>
      </g>
     </g>
    </g>
    <g id="xtick_62">
     <g id="line2d_69">
      <g>
       <use xlink:href="#m510c86f37d" x="234.838208" y="288.430125" style="stroke: #000000; stroke-width: 0.6"/>
      </g>
     </g>
    </g>
    <g id="xtick_63">
     <g id="line2d_70">
      <g>
       <use xlink:href="#m510c86f37d" x="244.29834" y="288.430125" style="stroke: #000000; stroke-width: 0.6"/>
      </g>
     </g>
    </g>
    <g id="xtick_64">
     <g id="line2d_71">
      <g>
       <use xlink:href="#m510c86f37d" x="253.758473" y="288.430125" style="stroke: #000000; stroke-width: 0.6"/>
      </g>
     </g>
    </g>
    <g id="xtick_65">
     <g id="line2d_72">
      <g>
       <use xlink:href="#m510c86f37d" x="272.678738" y="288.430125" style="stroke: #000000; stroke-width: 0.6"/>
      </g>
     </g>
    </g>
    <g id="xtick_66">
     <g id="line2d_73">
      <g>
       <use xlink:href="#m510c86f37d" x="282.13887" y="288.430125" style="stroke: #000000; stroke-width: 0.6"/>
      </g>
     </g>
    </g>
    <g id="xtick_67">
     <g id="line2d_74">
      <g>
       <use xlink:href="#m510c86f37d" x="291.599002" y="288.430125" style="stroke: #000000; stroke-width: 0.6"/>
      </g>
     </g>
    </g>
    <g id="xtick_68">
     <g id="line2d_75">
      <g>
       <use xlink:href="#m510c86f37d" x="301.059135" y="288.430125" style="stroke: #000000; stroke-width: 0.6"/>
      </g>
     </g>
    </g>
    <g id="xtick_69">
     <g id="line2d_76">
      <g>
       <use xlink:href="#m510c86f37d" x="319.9794" y="288.430125" style="stroke: #000000; stroke-width: 0.6"/>
      </g>
     </g>
    </g>
    <g id="xtick_70">
     <g id="line2d_77">
      <g>
       <use xlink:href="#m510c86f37d" x="329.439532" y="288.430125" style="stroke: #000000; stroke-width: 0.6"/>
      </g>
     </g>
    </g>
    <g id="xtick_71">
     <g id="line2d_78">
      <g>
       <use xlink:href="#m510c86f37d" x="338.899665" y="288.430125" style="stroke: #000000; stroke-width: 0.6"/>
      </g>
     </g>
    </g>
    <g id="xtick_72">
     <g id="line2d_79">
      <g>
       <use xlink:href="#m510c86f37d" x="348.359797" y="288.430125" style="stroke: #000000; stroke-width: 0.6"/>
      </g>
     </g>
    </g>
    <g id="xtick_73">
     <g id="line2d_80">
      <g>
       <use xlink:href="#m510c86f37d" x="367.280062" y="288.430125" style="stroke: #000000; stroke-width: 0.6"/>
      </g>
     </g>
    </g>
    <g id="xtick_74">
     <g id="line2d_81">
      <g>
       <use xlink:href="#m510c86f37d" x="376.740195" y="288.430125" style="stroke: #000000; stroke-width: 0.6"/>
      </g>
     </g>
    </g>
    <g id="xtick_75">
     <g id="line2d_82">
      <g>
       <use xlink:href="#m510c86f37d" x="386.200327" y="288.430125" style="stroke: #000000; stroke-width: 0.6"/>
      </g>
     </g>
    </g>
    <g id="xtick_76">
     <g id="line2d_83">
      <g>
       <use xlink:href="#m510c86f37d" x="395.660459" y="288.430125" style="stroke: #000000; stroke-width: 0.6"/>
      </g>
     </g>
    </g>
   </g>
   <g id="matplotlib.axis_4">
    <g id="ytick_7">
     <g id="line2d_84">
      <path d="M 50.365625 263.417351 
L 407.485625 263.417351 
" clip-path="url(#pb8b87ad556)" style="fill: none; stroke-dasharray: 2.96,1.28; stroke-dashoffset: 0; stroke: #b0b0b0; stroke-width: 0.8"/>
     </g>
     <g id="line2d_85">
      <g>
       <use xlink:href="#m9226ed63a6" x="50.365625" y="263.417351" style="stroke: #000000; stroke-width: 0.8"/>
      </g>
     </g>
     <g id="text_25">
      <!-- 0.00 -->
      <g transform="translate(21.1 267.21657) scale(0.1 -0.1)">
       <use xlink:href="#DejaVuSerif-30"/>
       <use xlink:href="#DejaVuSerif-2e" x="63.623047"/>
       <use xlink:href="#DejaVuSerif-30" x="95.410156"/>
       <use xlink:href="#DejaVuSerif-30" x="159.033203"/>
      </g>
     </g>
    </g>
    <g id="ytick_8">
     <g id="line2d_86">
      <path d="M 50.365625 234.910121 
L 407.485625 234.910121 
" clip-path="url(#pb8b87ad556)" style="fill: none; stroke-dasharray: 2.96,1.28; stroke-dashoffset: 0; stroke: #b0b0b0; stroke-width: 0.8"/>
     </g>
     <g id="line2d_87">
      <g>
       <use xlink:href="#m9226ed63a6" x="50.365625" y="234.910121" style="stroke: #000000; stroke-width: 0.8"/>
      </g>
     </g>
     <g id="text_26">
      <!-- 0.02 -->
      <g transform="translate(21.1 238.70934) scale(0.1 -0.1)">
       <use xlink:href="#DejaVuSerif-30"/>
       <use xlink:href="#DejaVuSerif-2e" x="63.623047"/>
       <use xlink:href="#DejaVuSerif-30" x="95.410156"/>
       <use xlink:href="#DejaVuSerif-32" x="159.033203"/>
      </g>
     </g>
    </g>
    <g id="ytick_9">
     <g id="line2d_88">
      <path d="M 50.365625 206.402891 
L 407.485625 206.402891 
" clip-path="url(#pb8b87ad556)" style="fill: none; stroke-dasharray: 2.96,1.28; stroke-dashoffset: 0; stroke: #b0b0b0; stroke-width: 0.8"/>
     </g>
     <g id="line2d_89">
      <g>
       <use xlink:href="#m9226ed63a6" x="50.365625" y="206.402891" style="stroke: #000000; stroke-width: 0.8"/>
      </g>
     </g>
     <g id="text_27">
      <!-- 0.04 -->
      <g transform="translate(21.1 210.20211) scale(0.1 -0.1)">
       <use xlink:href="#DejaVuSerif-30"/>
       <use xlink:href="#DejaVuSerif-2e" x="63.623047"/>
       <use xlink:href="#DejaVuSerif-30" x="95.410156"/>
       <use xlink:href="#DejaVuSerif-34" x="159.033203"/>
      </g>
     </g>
    </g>
    <g id="ytick_10">
     <g id="line2d_90">
      <path d="M 50.365625 177.895661 
L 407.485625 177.895661 
" clip-path="url(#pb8b87ad556)" style="fill: none; stroke-dasharray: 2.96,1.28; stroke-dashoffset: 0; stroke: #b0b0b0; stroke-width: 0.8"/>
     </g>
     <g id="line2d_91">
      <g>
       <use xlink:href="#m9226ed63a6" x="50.365625" y="177.895661" style="stroke: #000000; stroke-width: 0.8"/>
      </g>
     </g>
     <g id="text_28">
      <!-- 0.06 -->
      <g transform="translate(21.1 181.69488) scale(0.1 -0.1)">
       <use xlink:href="#DejaVuSerif-30"/>
       <use xlink:href="#DejaVuSerif-2e" x="63.623047"/>
       <use xlink:href="#DejaVuSerif-30" x="95.410156"/>
       <use xlink:href="#DejaVuSerif-36" x="159.033203"/>
      </g>
     </g>
    </g>
    <g id="text_29">
     <!-- $\Delta\log P_t$ -->
     <g transform="translate(14.8 245.100125) rotate(-90) scale(0.1 -0.1)">
      <defs>
       <path id="DejaVuSerif-394" d="M 4350 0 
L 244 0 
L 2034 4666 
L 2559 4666 
L 4350 0 
z
M 3506 331 
L 2138 3909 
L 763 331 
L 3506 331 
z
" transform="scale(0.015625)"/>
       <path id="DejaVuSerif-Italic-50" d="M 1594 2375 
L 2419 2375 
Q 2884 2375 3176 2626 
Q 3469 2878 3559 3353 
Q 3653 3831 3458 4081 
Q 3263 4331 2797 4331 
L 1972 4331 
L 1594 2375 
z
M -97 0 
L -34 331 
L 559 331 
L 1338 4331 
L 744 4331 
L 809 4666 
L 3016 4666 
Q 3716 4666 4056 4311 
Q 4397 3956 4278 3353 
Q 4163 2753 3684 2397 
Q 3206 2041 2506 2041 
L 1528 2041 
L 1194 331 
L 1916 331 
L 1853 0 
L -97 0 
z
" transform="scale(0.015625)"/>
      </defs>
      <use xlink:href="#DejaVuSerif-394" transform="translate(0 0.015625)"/>
      <use xlink:href="#DejaVuSerif-6c" transform="translate(72.216797 0.015625)"/>
      <use xlink:href="#DejaVuSerif-6f" transform="translate(104.199219 0.015625)"/>
      <use xlink:href="#DejaVuSerif-67" transform="translate(164.404297 0.015625)"/>
      <use xlink:href="#DejaVuSerif-Italic-50" transform="translate(244.222321 0.015625)"/>
      <use xlink:href="#DejaVuSerif-Italic-74" transform="translate(311.507478 -15.55625) scale(0.7)"/>
     </g>
    </g>
   </g>
   <g id="line2d_92">
    <path d="M 50.365625 248.295059 
L 52.730658 249.454899 
L 55.095691 254.128111 
L 57.460724 248.037905 
L 59.825757 237.678774 
L 62.190791 239.784258 
L 64.555824 236.732356 
L 66.920857 242.679605 
L 69.28589 244.314928 
L 71.650923 242.121146 
L 74.015956 233.989851 
L 76.380989 214.809215 
L 78.746022 206.526375 
L 81.111055 201.681418 
L 83.476089 199.383466 
L 85.841122 200.29112 
L 90.571188 180.034821 
L 92.936221 176.378635 
L 95.301254 186.895257 
L 97.666287 195.896664 
L 100.03132 203.018294 
L 102.396353 206.18572 
L 104.761387 202.012977 
L 107.12642 200.928057 
L 109.491453 208.353317 
L 111.856486 210.673885 
L 114.221519 209.381273 
L 116.586552 215.543795 
L 118.951585 212.499613 
L 121.316618 242.562256 
L 123.681651 252.356384 
L 126.046685 255.699135 
L 128.411718 258.527296 
L 130.776751 258.572343 
L 133.141784 256.845728 
L 135.506817 256.398331 
L 137.87185 252.821735 
L 140.236883 255.883334 
L 142.601916 257.833057 
L 144.96695 260.479365 
L 147.331983 266.003572 
L 149.697016 266.078353 
L 154.427082 261.85719 
L 156.792115 257.590891 
L 159.157148 253.62765 
L 161.522181 251.552162 
L 163.887214 248.295419 
L 166.252248 249.672269 
L 168.617281 252.933334 
L 170.982314 254.969759 
L 173.347347 255.415591 
L 175.71238 251.372409 
L 178.077413 245.804885 
L 180.442446 240.548124 
L 182.807479 239.115445 
L 185.172512 236.855397 
L 187.537546 238.075303 
L 189.902579 240.910289 
L 192.267612 245.49214 
L 194.632645 253.163342 
L 196.997678 257.707129 
L 199.362711 263.98824 
L 201.727744 264.092589 
L 204.092777 262.635952 
L 206.45781 265.262083 
L 208.822844 263.864671 
L 211.187877 263.24623 
L 213.55291 266.571487 
L 215.917943 260.405052 
L 218.282976 258.934297 
L 220.648009 257.817346 
L 223.013042 252.669622 
L 225.378075 254.23826 
L 227.743108 250.17523 
L 230.108142 251.25961 
L 232.473175 245.944346 
L 234.838208 247.172169 
L 237.203241 245.71796 
L 239.568274 239.652632 
L 241.933307 242.644306 
L 244.29834 238.957382 
L 246.663373 238.994048 
L 249.028406 240.069771 
L 251.39344 238.680737 
L 253.758473 238.969046 
L 256.123506 241.93188 
L 258.488539 242.305859 
L 260.853572 251.869815 
L 263.218605 256.403165 
L 265.583638 264.761401 
L 267.948671 271.526707 
L 270.313704 267.032535 
L 272.678738 265.261453 
L 275.043771 258.434343 
L 277.408804 254.80217 
L 279.773837 253.73411 
L 282.13887 256.58232 
L 284.503903 256.613227 
L 286.868936 258.604328 
L 289.233969 261.897822 
L 291.599002 261.945561 
L 293.964036 265.742048 
L 296.329069 266.566412 
L 298.694102 263.307588 
L 301.059135 265.856623 
L 303.424168 264.110815 
L 305.789201 261.270199 
L 308.154234 261.925564 
L 310.519267 258.037016 
L 312.8843 256.801204 
L 315.249334 257.493333 
L 317.614367 257.288337 
L 319.9794 257.456895 
L 322.344433 257.813693 
L 324.709466 258.904767 
L 327.074499 257.358942 
L 329.439532 257.618472 
L 334.169599 254.792641 
L 336.534632 256.040698 
L 338.899665 256.93741 
L 341.264698 258.120294 
L 343.629731 258.038148 
L 345.994764 256.385265 
L 348.359797 254.475244 
L 350.72483 251.471916 
L 353.089863 250.09867 
L 355.454897 250.119372 
L 357.81993 251.733444 
L 362.549996 256.614754 
L 367.280062 258.197134 
L 369.645095 268.030493 
L 372.010128 270.135046 
L 374.375161 272.618668 
L 376.740195 265.202376 
L 379.105228 252.491875 
L 381.470261 243.921034 
L 383.835294 235.989143 
L 386.200327 236.961808 
L 388.56536 235.698415 
L 390.930393 236.282136 
L 393.295426 239.273275 
L 395.660459 241.989324 
L 398.025493 245.64252 
L 400.390526 248.35092 
L 402.755559 250.555731 
L 405.120592 248.944306 
L 407.485625 246.614892 
L 407.485625 246.614892 
" clip-path="url(#pb8b87ad556)" style="fill: none; stroke: #1f77b4; stroke-width: 1.5; stroke-linecap: square"/>
   </g>
   <g id="line2d_93">
    <path d="M 50.365625 256.235342 
L 52.730658 258.285601 
L 55.095691 254.01708 
L 57.460724 246.695516 
L 59.825757 238.318859 
L 62.190791 235.483846 
L 64.555824 241.359487 
L 66.920857 236.344955 
L 69.28589 237.835587 
L 71.650923 238.638036 
L 74.015956 231.749584 
L 76.380989 226.258059 
L 78.746022 221.498172 
L 81.111055 212.573102 
L 83.476089 193.005394 
L 85.841122 199.015233 
L 88.206155 189.672012 
L 90.571188 175.636511 
L 92.936221 186.975605 
L 95.301254 181.680006 
L 97.666287 172.968307 
L 100.03132 192.123402 
L 102.396353 195.630786 
L 104.761387 196.803277 
L 107.12642 210.007655 
L 109.491453 213.952083 
L 111.856486 214.868103 
L 114.221519 210.421336 
L 116.586552 215.942254 
L 118.951585 216.216849 
L 121.316618 234.093512 
L 123.681651 248.566272 
L 126.046685 255.035755 
L 128.411718 257.240522 
L 133.141784 240.841828 
L 135.506817 234.783266 
L 137.87185 235.592798 
L 140.236883 241.937981 
L 142.601916 250.486346 
L 144.96695 254.092855 
L 147.331983 251.493257 
L 149.697016 251.634835 
L 152.062049 255.993062 
L 154.427082 256.125518 
L 159.157148 263.19852 
L 161.522181 263.739815 
L 163.887214 262.347842 
L 166.252248 262.930232 
L 168.617281 262.376425 
L 170.982314 254.976749 
L 173.347347 252.979031 
L 175.71238 245.899112 
L 178.077413 240.998769 
L 180.442446 243.568239 
L 182.807479 236.747023 
L 185.172512 244.553617 
L 187.537546 245.069409 
L 189.902579 246.88615 
L 192.267612 244.279224 
L 194.632645 254.462875 
L 196.997678 256.005566 
L 199.362711 247.863139 
L 201.727744 264.153989 
L 204.092777 245.890599 
L 206.45781 251.398122 
L 208.822844 253.872434 
L 211.187877 259.565046 
L 213.55291 256.965546 
L 215.917943 260.960616 
L 218.282976 255.657139 
L 220.648009 251.178986 
L 223.013042 245.108756 
L 225.378075 246.348027 
L 227.743108 243.374946 
L 230.108142 246.56693 
L 232.473175 244.538978 
L 234.838208 245.13637 
L 237.203241 248.40109 
L 239.568274 243.256159 
L 241.933307 259.737249 
L 244.29834 261.961712 
L 246.663373 256.961062 
L 249.028406 253.186055 
L 251.39344 245.509592 
L 253.758473 229.248213 
L 256.123506 231.229971 
L 258.488539 220.251018 
L 260.853572 226.85694 
L 263.218605 261.434923 
L 265.583638 268.181109 
L 267.948671 280.303597 
L 270.313704 275.34836 
L 272.678738 248.899453 
L 275.043771 243.985077 
L 277.408804 257.464885 
L 279.773837 260.656768 
L 282.13887 259.453466 
L 284.503903 259.73205 
L 286.868936 256.703456 
L 289.233969 265.021819 
L 291.599002 274.714992 
L 293.964036 277.591745 
L 296.329069 273.632488 
L 298.694102 266.587062 
L 301.059135 267.266519 
L 303.424168 272.489237 
L 305.789201 263.456582 
L 308.154234 267.06132 
L 310.519267 262.642467 
L 312.8843 262.876021 
L 315.249334 262.963455 
L 317.614367 263.597835 
L 319.9794 270.350001 
L 322.344433 279.508283 
L 324.709466 281.722345 
L 327.074499 282.931943 
L 329.439532 281.588199 
L 331.804565 268.443062 
L 334.169599 266.31179 
L 336.534632 266.454714 
L 338.899665 258.452129 
L 341.264698 257.191323 
L 343.629731 258.732101 
L 345.994764 254.028021 
L 348.359797 252.905642 
L 350.72483 252.014708 
L 353.089863 245.987411 
L 355.454897 247.731417 
L 357.81993 255.456388 
L 360.184963 253.360314 
L 362.549996 258.981327 
L 364.915029 267.029646 
L 367.280062 260.536126 
L 369.645095 278.651346 
L 372.010128 276.589587 
L 374.375161 271.569137 
L 376.740195 271.197275 
L 379.105228 258.750806 
L 381.470261 253.774422 
L 383.835294 245.825284 
L 386.200327 240.107797 
L 390.930393 215.299325 
L 393.295426 221.340703 
L 395.660459 217.380906 
L 398.025493 227.31308 
L 400.390526 240.720472 
L 402.755559 239.481837 
L 405.120592 245.30802 
L 407.485625 244.053075 
L 407.485625 244.053075 
" clip-path="url(#pb8b87ad556)" style="fill: none; stroke: #ff7f0e; stroke-width: 1.5; stroke-linecap: square"/>
   </g>
   <g id="patch_76">
    <path d="M 50.365625 288.430125 
L 50.365625 167.470125 
" style="fill: none; stroke: #000000; stroke-width: 0.8; stroke-linejoin: miter; stroke-linecap: square"/>
   </g>
   <g id="patch_77">
    <path d="M 407.485625 288.430125 
L 407.485625 167.470125 
" style="fill: none; stroke: #000000; stroke-width: 0.8; stroke-linejoin: miter; stroke-linecap: square"/>
   </g>
   <g id="patch_78">
    <path d="M 50.365625 288.430125 
L 407.485625 288.430125 
" style="fill: none; stroke: #000000; stroke-width: 0.8; stroke-linejoin: miter; stroke-linecap: square"/>
   </g>
   <g id="patch_79">
    <path d="M 50.365625 167.470125 
L 407.485625 167.470125 
" style="fill: none; stroke: #000000; stroke-width: 0.8; stroke-linejoin: miter; stroke-linecap: square"/>
   </g>
   <g id="legend_1">
    <g id="patch_80">
     <path d="M 316.180938 204.826375 
L 400.485625 204.826375 
Q 402.485625 204.826375 402.485625 202.826375 
L 402.485625 174.470125 
Q 402.485625 172.470125 400.485625 172.470125 
L 316.180938 172.470125 
Q 314.180938 172.470125 314.180938 174.470125 
L 314.180938 202.826375 
Q 314.180938 204.826375 316.180938 204.826375 
z
" style="fill: #ffffff; opacity: 0.8; stroke: #cccccc; stroke-linejoin: miter"/>
    </g>
    <g id="line2d_94">
     <path d="M 318.180938 180.568562 
L 328.180938 180.568562 
L 338.180938 180.568562 
" style="fill: none; stroke: #1f77b4; stroke-width: 1.5; stroke-linecap: square"/>
    </g>
    <g id="text_30">
     <!-- Prediction -->
     <g transform="translate(346.180938 184.068562) scale(0.1 -0.1)">
      <defs>
       <path id="DejaVuSerif-63" d="M 3291 997 
Q 3169 466 2822 187 
Q 2475 -91 1925 -91 
Q 1200 -91 759 389 
Q 319 869 319 1663 
Q 319 2459 759 2936 
Q 1200 3413 1925 3413 
Q 2241 3413 2553 3339 
Q 2866 3266 3181 3116 
L 3181 2266 
L 2847 2266 
Q 2781 2703 2561 2903 
Q 2341 3103 1931 3103 
Q 1466 3103 1228 2742 
Q 991 2381 991 1663 
Q 991 944 1227 581 
Q 1463 219 1931 219 
Q 2303 219 2525 412 
Q 2747 606 2828 997 
L 3291 997 
z
" transform="scale(0.015625)"/>
      </defs>
      <use xlink:href="#DejaVuSerif-50"/>
      <use xlink:href="#DejaVuSerif-72" x="67.285156"/>
      <use xlink:href="#DejaVuSerif-65" x="115.087891"/>
      <use xlink:href="#DejaVuSerif-64" x="174.267578"/>
      <use xlink:href="#DejaVuSerif-69" x="238.28125"/>
      <use xlink:href="#DejaVuSerif-63" x="270.263672"/>
      <use xlink:href="#DejaVuSerif-74" x="326.269531"/>
      <use xlink:href="#DejaVuSerif-69" x="366.455078"/>
      <use xlink:href="#DejaVuSerif-6f" x="398.4375"/>
      <use xlink:href="#DejaVuSerif-6e" x="458.642578"/>
     </g>
    </g>
    <g id="line2d_95">
     <path d="M 318.180938 195.246687 
L 328.180938 195.246687 
L 338.180938 195.246687 
" style="fill: none; stroke: #ff7f0e; stroke-width: 1.5; stroke-linecap: square"/>
    </g>
    <g id="text_31">
     <!-- Real -->
     <g transform="translate(346.180938 198.746687) scale(0.1 -0.1)">
      <defs>
       <path id="DejaVuSerif-52" d="M 3066 2316 
Q 3284 2256 3442 2114 
Q 3600 1972 3725 1716 
L 4403 331 
L 4972 331 
L 4972 0 
L 3872 0 
L 3144 1484 
Q 2934 1916 2759 2042 
Q 2584 2169 2278 2169 
L 1581 2169 
L 1581 331 
L 2241 331 
L 2241 0 
L 353 0 
L 353 331 
L 947 331 
L 947 4331 
L 353 4331 
L 353 4666 
L 2719 4666 
Q 3400 4666 3770 4341 
Q 4141 4016 4141 3419 
Q 4141 2938 3870 2661 
Q 3600 2384 3066 2316 
z
M 1581 2503 
L 2503 2503 
Q 2975 2503 3200 2726 
Q 3425 2950 3425 3419 
Q 3425 3888 3200 4109 
Q 2975 4331 2503 4331 
L 1581 4331 
L 1581 2503 
z
" transform="scale(0.015625)"/>
      </defs>
      <use xlink:href="#DejaVuSerif-52"/>
      <use xlink:href="#DejaVuSerif-65" x="75.292969"/>
      <use xlink:href="#DejaVuSerif-61" x="134.472656"/>
      <use xlink:href="#DejaVuSerif-6c" x="194.091797"/>
     </g>
    </g>
   </g>
  </g>
 </g>
 <defs>
  <clipPath id="p4322b4d0f9">
   <rect x="50.365625" y="22.318125" width="357.12" height="120.96"/>
  </clipPath>
  <clipPath id="pb8b87ad556">
   <rect x="50.365625" y="167.470125" width="357.12" height="120.96"/>
  </clipPath>
 </defs>
</svg>
