<?xml version="1.0" encoding="utf-8" standalone="no"?>
<!DOCTYPE svg PUBLIC "-//W3C//DTD SVG 1.1//EN"
  "http://www.w3.org/Graphics/SVG/1.1/DTD/svg11.dtd">
<svg xmlns:xlink="http://www.w3.org/1999/xlink" width="414.685625pt" height="312.30825pt" viewBox="0 0 414.685625 312.30825" xmlns="http://www.w3.org/2000/svg" version="1.1">
 <metadata>
  <rdf:RDF xmlns:dc="http://purl.org/dc/elements/1.1/" xmlns:cc="http://creativecommons.org/ns#" xmlns:rdf="http://www.w3.org/1999/02/22-rdf-syntax-ns#">
   <cc:Work>
    <dc:type rdf:resource="http://purl.org/dc/dcmitype/StillImage"/>
    <dc:date>2024-11-06T21:53:35.349579</dc:date>
    <dc:format>image/svg+xml</dc:format>
    <dc:creator>
     <cc:Agent>
      <dc:title>Matplotlib v3.9.0, https://matplotlib.org/</dc:title>
     </cc:Agent>
    </dc:creator>
   </cc:Work>
  </rdf:RDF>
 </metadata>
 <defs>
  <style type="text/css">*{stroke-linejoin: round; stroke-linecap: butt}</style>
 </defs>
 <g id="figure_1">
  <g id="patch_1">
   <path d="M 0 312.30825 
L 414.685625 312.30825 
L 414.685625 0 
L 0 0 
z
" style="fill: #ffffff"/>
  </g>
  <g id="axes_1">
   <g id="patch_2">
    <path d="M 50.365625 143.278125 
L 407.485625 143.278125 
L 407.485625 22.318125 
L 50.365625 22.318125 
z
" style="fill: #ffffff"/>
   </g>
   <g id="patch_3">
    <path d="M -1308.745742 143.278125 
L -1293.33049 143.278125 
L -1293.33049 22.318125 
L -1308.745742 22.318125 
z
" clip-path="url(#p6122fa2f7c)" style="fill: #d3d3d3"/>
   </g>
   <g id="patch_4">
    <path d="M -1275.34603 143.278125 
L -1265.069195 143.278125 
L -1265.069195 22.318125 
L -1275.34603 22.318125 
z
" clip-path="url(#p6122fa2f7c)" style="fill: #d3d3d3"/>
   </g>
   <g id="patch_5">
    <path d="M -1229.100274 143.278125 
L -1208.546605 143.278125 
L -1208.546605 22.318125 
L -1229.100274 22.318125 
z
" clip-path="url(#p6122fa2f7c)" style="fill: #d3d3d3"/>
   </g>
   <g id="patch_6">
    <path d="M -1185.423728 143.278125 
L -1170.008476 143.278125 
L -1170.008476 22.318125 
L -1185.423728 22.318125 
z
" clip-path="url(#p6122fa2f7c)" style="fill: #d3d3d3"/>
   </g>
   <g id="patch_7">
    <path d="M -1141.747181 143.278125 
L -1085.224591 143.278125 
L -1085.224591 22.318125 
L -1141.747181 22.318125 
z
" clip-path="url(#p6122fa2f7c)" style="fill: #d3d3d3"/>
   </g>
   <g id="patch_8">
    <path d="M -1054.394087 143.278125 
L -1020.994375 143.278125 
L -1020.994375 22.318125 
L -1054.394087 22.318125 
z
" clip-path="url(#p6122fa2f7c)" style="fill: #d3d3d3"/>
   </g>
   <g id="patch_9">
    <path d="M -1000.440706 143.278125 
L -992.73308 143.278125 
L -992.73308 22.318125 
L -1000.440706 22.318125 
z
" clip-path="url(#p6122fa2f7c)" style="fill: #d3d3d3"/>
   </g>
   <g id="patch_10">
    <path d="M -967.040994 143.278125 
L -959.333368 143.278125 
L -959.333368 22.318125 
L -967.040994 22.318125 
z
" clip-path="url(#p6122fa2f7c)" style="fill: #d3d3d3"/>
   </g>
   <g id="patch_11">
    <path d="M -941.348907 143.278125 
L -928.502864 143.278125 
L -928.502864 22.318125 
L -941.348907 22.318125 
z
" clip-path="url(#p6122fa2f7c)" style="fill: #d3d3d3"/>
   </g>
   <g id="patch_12">
    <path d="M -913.087612 143.278125 
L -897.672361 143.278125 
L -897.672361 22.318125 
L -913.087612 22.318125 
z
" clip-path="url(#p6122fa2f7c)" style="fill: #d3d3d3"/>
   </g>
   <g id="patch_13">
    <path d="M -874.549483 143.278125 
L -861.70344 143.278125 
L -861.70344 22.318125 
L -874.549483 22.318125 
z
" clip-path="url(#p6122fa2f7c)" style="fill: #d3d3d3"/>
   </g>
   <g id="patch_14">
    <path d="M -841.149771 143.278125 
L -823.16531 143.278125 
L -823.16531 22.318125 
L -841.149771 22.318125 
z
" clip-path="url(#p6122fa2f7c)" style="fill: #d3d3d3"/>
   </g>
   <g id="patch_15">
    <path d="M -794.904015 143.278125 
L -784.627181 143.278125 
L -784.627181 22.318125 
L -794.904015 22.318125 
z
" clip-path="url(#p6122fa2f7c)" style="fill: #d3d3d3"/>
   </g>
   <g id="patch_16">
    <path d="M -766.64272 143.278125 
L -748.65826 143.278125 
L -748.65826 22.318125 
L -766.64272 22.318125 
z
" clip-path="url(#p6122fa2f7c)" style="fill: #d3d3d3"/>
   </g>
   <g id="patch_17">
    <path d="M -735.812217 143.278125 
L -717.827756 143.278125 
L -717.827756 22.318125 
L -735.812217 22.318125 
z
" clip-path="url(#p6122fa2f7c)" style="fill: #d3d3d3"/>
   </g>
   <g id="patch_18">
    <path d="M -679.289627 143.278125 
L -674.15121 143.278125 
L -674.15121 22.318125 
L -679.289627 22.318125 
z
" clip-path="url(#p6122fa2f7c)" style="fill: #d3d3d3"/>
   </g>
   <g id="patch_19">
    <path d="M -663.874375 143.278125 
L -648.459123 143.278125 
L -648.459123 22.318125 
L -663.874375 22.318125 
z
" clip-path="url(#p6122fa2f7c)" style="fill: #d3d3d3"/>
   </g>
   <g id="patch_20">
    <path d="M -630.474663 143.278125 
L -617.62862 143.278125 
L -617.62862 22.318125 
L -630.474663 22.318125 
z
" clip-path="url(#p6122fa2f7c)" style="fill: #d3d3d3"/>
   </g>
   <g id="patch_21">
    <path d="M -597.074951 143.278125 
L -584.228907 143.278125 
L -584.228907 22.318125 
L -597.074951 22.318125 
z
" clip-path="url(#p6122fa2f7c)" style="fill: #d3d3d3"/>
   </g>
   <g id="patch_22">
    <path d="M -566.244447 143.278125 
L -530.275526 143.278125 
L -530.275526 22.318125 
L -566.244447 22.318125 
z
" clip-path="url(#p6122fa2f7c)" style="fill: #d3d3d3"/>
   </g>
   <g id="patch_23">
    <path d="M -486.598979 143.278125 
L -476.322145 143.278125 
L -476.322145 22.318125 
L -486.598979 22.318125 
z
" clip-path="url(#p6122fa2f7c)" style="fill: #d3d3d3"/>
   </g>
   <g id="patch_24">
    <path d="M -406.953512 143.278125 
L -399.245886 143.278125 
L -399.245886 22.318125 
L -406.953512 22.318125 
z
" clip-path="url(#p6122fa2f7c)" style="fill: #d3d3d3"/>
   </g>
   <g id="patch_25">
    <path d="M -368.415382 143.278125 
L -358.138548 143.278125 
L -358.138548 22.318125 
L -368.415382 22.318125 
z
" clip-path="url(#p6122fa2f7c)" style="fill: #d3d3d3"/>
   </g>
   <g id="patch_26">
    <path d="M -322.169627 143.278125 
L -311.892792 143.278125 
L -311.892792 22.318125 
L -322.169627 22.318125 
z
" clip-path="url(#p6122fa2f7c)" style="fill: #d3d3d3"/>
   </g>
   <g id="patch_27">
    <path d="M -278.49308 143.278125 
L -270.785454 143.278125 
L -270.785454 22.318125 
L -278.49308 22.318125 
z
" clip-path="url(#p6122fa2f7c)" style="fill: #d3d3d3"/>
   </g>
   <g id="patch_28">
    <path d="M -250.231785 143.278125 
L -242.524159 143.278125 
L -242.524159 22.318125 
L -250.231785 22.318125 
z
" clip-path="url(#p6122fa2f7c)" style="fill: #d3d3d3"/>
   </g>
   <g id="patch_29">
    <path d="M -152.601857 143.278125 
L -142.325022 143.278125 
L -142.325022 22.318125 
L -152.601857 22.318125 
z
" clip-path="url(#p6122fa2f7c)" style="fill: #d3d3d3"/>
   </g>
   <g id="patch_30">
    <path d="M -111.494519 143.278125 
L -98.648476 143.278125 
L -98.648476 22.318125 
L -111.494519 22.318125 
z
" clip-path="url(#p6122fa2f7c)" style="fill: #d3d3d3"/>
   </g>
   <g id="patch_31">
    <path d="M -47.264303 143.278125 
L -42.125886 143.278125 
L -42.125886 22.318125 
L -47.264303 22.318125 
z
" clip-path="url(#p6122fa2f7c)" style="fill: #d3d3d3"/>
   </g>
   <g id="patch_32">
    <path d="M -31.849051 143.278125 
L -19.003008 143.278125 
L -19.003008 22.318125 
L -31.849051 22.318125 
z
" clip-path="url(#p6122fa2f7c)" style="fill: #d3d3d3"/>
   </g>
   <g id="patch_33">
    <path d="M 60.64246 143.278125 
L 65.780877 143.278125 
L 65.780877 22.318125 
L 60.64246 22.318125 
z
" clip-path="url(#p6122fa2f7c)" style="fill: #d3d3d3"/>
   </g>
   <g id="patch_34">
    <path d="M 168.549222 143.278125 
L 176.256848 143.278125 
L 176.256848 22.318125 
L 168.549222 22.318125 
z
" clip-path="url(#p6122fa2f7c)" style="fill: #d3d3d3"/>
   </g>
   <g id="patch_35">
    <path d="M 237.917855 143.278125 
L 253.333107 143.278125 
L 253.333107 22.318125 
L 237.917855 22.318125 
z
" clip-path="url(#p6122fa2f7c)" style="fill: #d3d3d3"/>
   </g>
   <g id="patch_36">
    <path d="M 361.23987 143.278125 
L 366.378287 143.278125 
L 366.378287 22.318125 
L 361.23987 22.318125 
z
" clip-path="url(#p6122fa2f7c)" style="fill: #d3d3d3"/>
   </g>
   <g id="matplotlib.axis_1">
    <g id="xtick_1">
     <g id="line2d_1">
      <defs>
       <path id="m18b64f295c" d="M 0 0 
L 0 3.5 
" style="stroke: #000000; stroke-width: 0.8"/>
      </defs>
      <g>
       <use xlink:href="#m18b64f295c" x="55.504042" y="143.278125" style="stroke: #000000; stroke-width: 0.8"/>
      </g>
     </g>
     <g id="text_1">
      <!-- 1990 -->
      <g transform="translate(42.779042 157.876562) scale(0.1 -0.1)">
       <defs>
        <path id="DejaVuSerif-31" d="M 909 0 
L 909 331 
L 1722 331 
L 1722 4213 
L 781 3603 
L 781 4013 
L 1919 4750 
L 2350 4750 
L 2350 331 
L 3163 331 
L 3163 0 
L 909 0 
z
" transform="scale(0.015625)"/>
        <path id="DejaVuSerif-39" d="M 2994 2091 
Q 2784 1856 2512 1740 
Q 2241 1625 1900 1625 
Q 1206 1625 804 2044 
Q 403 2463 403 3188 
Q 403 3897 839 4323 
Q 1275 4750 2003 4750 
Q 2794 4750 3217 4161 
Q 3641 3572 3641 2478 
Q 3641 1253 3137 581 
Q 2634 -91 1722 -91 
Q 1475 -91 1203 -44 
Q 931 3 647 97 
L 647 872 
L 997 872 
Q 1038 556 1241 387 
Q 1444 219 1784 219 
Q 2391 219 2687 676 
Q 2984 1134 2994 2091 
z
M 1978 4441 
Q 1534 4441 1298 4117 
Q 1063 3794 1063 3188 
Q 1063 2581 1298 2256 
Q 1534 1931 1978 1931 
Q 2422 1931 2658 2245 
Q 2894 2559 2894 3150 
Q 2894 3772 2656 4106 
Q 2419 4441 1978 4441 
z
" transform="scale(0.015625)"/>
        <path id="DejaVuSerif-30" d="M 2034 219 
Q 2513 219 2750 744 
Q 2988 1269 2988 2328 
Q 2988 3391 2750 3916 
Q 2513 4441 2034 4441 
Q 1556 4441 1318 3916 
Q 1081 3391 1081 2328 
Q 1081 1269 1318 744 
Q 1556 219 2034 219 
z
M 2034 -91 
Q 1275 -91 848 546 
Q 422 1184 422 2328 
Q 422 3475 848 4112 
Q 1275 4750 2034 4750 
Q 2797 4750 3222 4112 
Q 3647 3475 3647 2328 
Q 3647 1184 3222 546 
Q 2797 -91 2034 -91 
z
" transform="scale(0.015625)"/>
       </defs>
       <use xlink:href="#DejaVuSerif-31"/>
       <use xlink:href="#DejaVuSerif-39" x="63.623047"/>
       <use xlink:href="#DejaVuSerif-39" x="127.246094"/>
       <use xlink:href="#DejaVuSerif-30" x="190.869141"/>
      </g>
     </g>
    </g>
    <g id="xtick_2">
     <g id="line2d_2">
      <g>
       <use xlink:href="#m18b64f295c" x="106.888215" y="143.278125" style="stroke: #000000; stroke-width: 0.8"/>
      </g>
     </g>
     <g id="text_2">
      <!-- 1995 -->
      <g transform="translate(94.163215 157.876562) scale(0.1 -0.1)">
       <defs>
        <path id="DejaVuSerif-35" d="M 3219 4666 
L 3219 4153 
L 1081 4153 
L 1081 2816 
Q 1244 2928 1461 2984 
Q 1678 3041 1947 3041 
Q 2703 3041 3140 2622 
Q 3578 2203 3578 1478 
Q 3578 738 3136 323 
Q 2694 -91 1894 -91 
Q 1572 -91 1234 -12 
Q 897 66 544 225 
L 544 1131 
L 897 1131 
Q 925 688 1179 453 
Q 1434 219 1894 219 
Q 2388 219 2653 544 
Q 2919 869 2919 1478 
Q 2919 2084 2655 2407 
Q 2391 2731 1894 2731 
Q 1613 2731 1398 2631 
Q 1184 2531 1019 2322 
L 750 2322 
L 750 4666 
L 3219 4666 
z
" transform="scale(0.015625)"/>
       </defs>
       <use xlink:href="#DejaVuSerif-31"/>
       <use xlink:href="#DejaVuSerif-39" x="63.623047"/>
       <use xlink:href="#DejaVuSerif-39" x="127.246094"/>
       <use xlink:href="#DejaVuSerif-35" x="190.869141"/>
      </g>
     </g>
    </g>
    <g id="xtick_3">
     <g id="line2d_3">
      <g>
       <use xlink:href="#m18b64f295c" x="158.272388" y="143.278125" style="stroke: #000000; stroke-width: 0.8"/>
      </g>
     </g>
     <g id="text_3">
      <!-- 2000 -->
      <g transform="translate(145.547388 157.876562) scale(0.1 -0.1)">
       <defs>
        <path id="DejaVuSerif-32" d="M 819 3553 
L 469 3553 
L 469 4384 
Q 803 4563 1142 4656 
Q 1481 4750 1806 4750 
Q 2534 4750 2956 4397 
Q 3378 4044 3378 3438 
Q 3378 2753 2422 1800 
Q 2347 1728 2309 1691 
L 1131 513 
L 3078 513 
L 3078 1088 
L 3444 1088 
L 3444 0 
L 434 0 
L 434 341 
L 1850 1753 
Q 2319 2222 2519 2614 
Q 2719 3006 2719 3438 
Q 2719 3909 2473 4175 
Q 2228 4441 1797 4441 
Q 1350 4441 1106 4219 
Q 863 3997 819 3553 
z
" transform="scale(0.015625)"/>
       </defs>
       <use xlink:href="#DejaVuSerif-32"/>
       <use xlink:href="#DejaVuSerif-30" x="63.623047"/>
       <use xlink:href="#DejaVuSerif-30" x="127.246094"/>
       <use xlink:href="#DejaVuSerif-30" x="190.869141"/>
      </g>
     </g>
    </g>
    <g id="xtick_4">
     <g id="line2d_4">
      <g>
       <use xlink:href="#m18b64f295c" x="209.65656" y="143.278125" style="stroke: #000000; stroke-width: 0.8"/>
      </g>
     </g>
     <g id="text_4">
      <!-- 2005 -->
      <g transform="translate(196.93156 157.876562) scale(0.1 -0.1)">
       <use xlink:href="#DejaVuSerif-32"/>
       <use xlink:href="#DejaVuSerif-30" x="63.623047"/>
       <use xlink:href="#DejaVuSerif-30" x="127.246094"/>
       <use xlink:href="#DejaVuSerif-35" x="190.869141"/>
      </g>
     </g>
    </g>
    <g id="xtick_5">
     <g id="line2d_5">
      <g>
       <use xlink:href="#m18b64f295c" x="261.040733" y="143.278125" style="stroke: #000000; stroke-width: 0.8"/>
      </g>
     </g>
     <g id="text_5">
      <!-- 2010 -->
      <g transform="translate(248.315733 157.876562) scale(0.1 -0.1)">
       <use xlink:href="#DejaVuSerif-32"/>
       <use xlink:href="#DejaVuSerif-30" x="63.623047"/>
       <use xlink:href="#DejaVuSerif-31" x="127.246094"/>
       <use xlink:href="#DejaVuSerif-30" x="190.869141"/>
      </g>
     </g>
    </g>
    <g id="xtick_6">
     <g id="line2d_6">
      <g>
       <use xlink:href="#m18b64f295c" x="312.424906" y="143.278125" style="stroke: #000000; stroke-width: 0.8"/>
      </g>
     </g>
     <g id="text_6">
      <!-- 2015 -->
      <g transform="translate(299.699906 157.876562) scale(0.1 -0.1)">
       <use xlink:href="#DejaVuSerif-32"/>
       <use xlink:href="#DejaVuSerif-30" x="63.623047"/>
       <use xlink:href="#DejaVuSerif-31" x="127.246094"/>
       <use xlink:href="#DejaVuSerif-35" x="190.869141"/>
      </g>
     </g>
    </g>
    <g id="xtick_7">
     <g id="line2d_7">
      <g>
       <use xlink:href="#m18b64f295c" x="363.809078" y="143.278125" style="stroke: #000000; stroke-width: 0.8"/>
      </g>
     </g>
     <g id="text_7">
      <!-- 2020 -->
      <g transform="translate(351.084078 157.876562) scale(0.1 -0.1)">
       <use xlink:href="#DejaVuSerif-32"/>
       <use xlink:href="#DejaVuSerif-30" x="63.623047"/>
       <use xlink:href="#DejaVuSerif-32" x="127.246094"/>
       <use xlink:href="#DejaVuSerif-30" x="190.869141"/>
      </g>
     </g>
    </g>
    <g id="xtick_8">
     <g id="line2d_8">
      <defs>
       <path id="mb718f2657e" d="M 0 0 
L 0 2 
" style="stroke: #000000; stroke-width: 0.6"/>
      </defs>
      <g>
       <use xlink:href="#mb718f2657e" x="65.780877" y="143.278125" style="stroke: #000000; stroke-width: 0.6"/>
      </g>
     </g>
    </g>
    <g id="xtick_9">
     <g id="line2d_9">
      <g>
       <use xlink:href="#mb718f2657e" x="76.057711" y="143.278125" style="stroke: #000000; stroke-width: 0.6"/>
      </g>
     </g>
    </g>
    <g id="xtick_10">
     <g id="line2d_10">
      <g>
       <use xlink:href="#mb718f2657e" x="86.334546" y="143.278125" style="stroke: #000000; stroke-width: 0.6"/>
      </g>
     </g>
    </g>
    <g id="xtick_11">
     <g id="line2d_11">
      <g>
       <use xlink:href="#mb718f2657e" x="96.61138" y="143.278125" style="stroke: #000000; stroke-width: 0.6"/>
      </g>
     </g>
    </g>
    <g id="xtick_12">
     <g id="line2d_12">
      <g>
       <use xlink:href="#mb718f2657e" x="117.165049" y="143.278125" style="stroke: #000000; stroke-width: 0.6"/>
      </g>
     </g>
    </g>
    <g id="xtick_13">
     <g id="line2d_13">
      <g>
       <use xlink:href="#mb718f2657e" x="127.441884" y="143.278125" style="stroke: #000000; stroke-width: 0.6"/>
      </g>
     </g>
    </g>
    <g id="xtick_14">
     <g id="line2d_14">
      <g>
       <use xlink:href="#mb718f2657e" x="137.718719" y="143.278125" style="stroke: #000000; stroke-width: 0.6"/>
      </g>
     </g>
    </g>
    <g id="xtick_15">
     <g id="line2d_15">
      <g>
       <use xlink:href="#mb718f2657e" x="147.995553" y="143.278125" style="stroke: #000000; stroke-width: 0.6"/>
      </g>
     </g>
    </g>
    <g id="xtick_16">
     <g id="line2d_16">
      <g>
       <use xlink:href="#mb718f2657e" x="168.549222" y="143.278125" style="stroke: #000000; stroke-width: 0.6"/>
      </g>
     </g>
    </g>
    <g id="xtick_17">
     <g id="line2d_17">
      <g>
       <use xlink:href="#mb718f2657e" x="178.826057" y="143.278125" style="stroke: #000000; stroke-width: 0.6"/>
      </g>
     </g>
    </g>
    <g id="xtick_18">
     <g id="line2d_18">
      <g>
       <use xlink:href="#mb718f2657e" x="189.102891" y="143.278125" style="stroke: #000000; stroke-width: 0.6"/>
      </g>
     </g>
    </g>
    <g id="xtick_19">
     <g id="line2d_19">
      <g>
       <use xlink:href="#mb718f2657e" x="199.379726" y="143.278125" style="stroke: #000000; stroke-width: 0.6"/>
      </g>
     </g>
    </g>
    <g id="xtick_20">
     <g id="line2d_20">
      <g>
       <use xlink:href="#mb718f2657e" x="219.933395" y="143.278125" style="stroke: #000000; stroke-width: 0.6"/>
      </g>
     </g>
    </g>
    <g id="xtick_21">
     <g id="line2d_21">
      <g>
       <use xlink:href="#mb718f2657e" x="230.210229" y="143.278125" style="stroke: #000000; stroke-width: 0.6"/>
      </g>
     </g>
    </g>
    <g id="xtick_22">
     <g id="line2d_22">
      <g>
       <use xlink:href="#mb718f2657e" x="240.487064" y="143.278125" style="stroke: #000000; stroke-width: 0.6"/>
      </g>
     </g>
    </g>
    <g id="xtick_23">
     <g id="line2d_23">
      <g>
       <use xlink:href="#mb718f2657e" x="250.763898" y="143.278125" style="stroke: #000000; stroke-width: 0.6"/>
      </g>
     </g>
    </g>
    <g id="xtick_24">
     <g id="line2d_24">
      <g>
       <use xlink:href="#mb718f2657e" x="271.317567" y="143.278125" style="stroke: #000000; stroke-width: 0.6"/>
      </g>
     </g>
    </g>
    <g id="xtick_25">
     <g id="line2d_25">
      <g>
       <use xlink:href="#mb718f2657e" x="281.594402" y="143.278125" style="stroke: #000000; stroke-width: 0.6"/>
      </g>
     </g>
    </g>
    <g id="xtick_26">
     <g id="line2d_26">
      <g>
       <use xlink:href="#mb718f2657e" x="291.871237" y="143.278125" style="stroke: #000000; stroke-width: 0.6"/>
      </g>
     </g>
    </g>
    <g id="xtick_27">
     <g id="line2d_27">
      <g>
       <use xlink:href="#mb718f2657e" x="302.148071" y="143.278125" style="stroke: #000000; stroke-width: 0.6"/>
      </g>
     </g>
    </g>
    <g id="xtick_28">
     <g id="line2d_28">
      <g>
       <use xlink:href="#mb718f2657e" x="322.70174" y="143.278125" style="stroke: #000000; stroke-width: 0.6"/>
      </g>
     </g>
    </g>
    <g id="xtick_29">
     <g id="line2d_29">
      <g>
       <use xlink:href="#mb718f2657e" x="332.978575" y="143.278125" style="stroke: #000000; stroke-width: 0.6"/>
      </g>
     </g>
    </g>
    <g id="xtick_30">
     <g id="line2d_30">
      <g>
       <use xlink:href="#mb718f2657e" x="343.255409" y="143.278125" style="stroke: #000000; stroke-width: 0.6"/>
      </g>
     </g>
    </g>
    <g id="xtick_31">
     <g id="line2d_31">
      <g>
       <use xlink:href="#mb718f2657e" x="353.532244" y="143.278125" style="stroke: #000000; stroke-width: 0.6"/>
      </g>
     </g>
    </g>
    <g id="xtick_32">
     <g id="line2d_32">
      <g>
       <use xlink:href="#mb718f2657e" x="374.085913" y="143.278125" style="stroke: #000000; stroke-width: 0.6"/>
      </g>
     </g>
    </g>
    <g id="xtick_33">
     <g id="line2d_33">
      <g>
       <use xlink:href="#mb718f2657e" x="384.362747" y="143.278125" style="stroke: #000000; stroke-width: 0.6"/>
      </g>
     </g>
    </g>
    <g id="xtick_34">
     <g id="line2d_34">
      <g>
       <use xlink:href="#mb718f2657e" x="394.639582" y="143.278125" style="stroke: #000000; stroke-width: 0.6"/>
      </g>
     </g>
    </g>
    <g id="xtick_35">
     <g id="line2d_35">
      <g>
       <use xlink:href="#mb718f2657e" x="404.916416" y="143.278125" style="stroke: #000000; stroke-width: 0.6"/>
      </g>
     </g>
    </g>
   </g>
   <g id="matplotlib.axis_2">
    <g id="ytick_1">
     <g id="line2d_36">
      <defs>
       <path id="m4bb4aff4c6" d="M 0 0 
L -3.5 0 
" style="stroke: #000000; stroke-width: 0.8"/>
      </defs>
      <g>
       <use xlink:href="#m4bb4aff4c6" x="50.365625" y="137.779943" style="stroke: #000000; stroke-width: 0.8"/>
      </g>
     </g>
     <g id="text_8">
      <!-- 0.0 -->
      <g transform="translate(27.4625 141.579162) scale(0.1 -0.1)">
       <defs>
        <path id="DejaVuSerif-2e" d="M 603 325 
Q 603 500 722 622 
Q 841 744 1019 744 
Q 1191 744 1312 622 
Q 1434 500 1434 325 
Q 1434 153 1312 31 
Q 1191 -91 1019 -91 
Q 841 -91 722 29 
Q 603 150 603 325 
z
" transform="scale(0.015625)"/>
       </defs>
       <use xlink:href="#DejaVuSerif-30"/>
       <use xlink:href="#DejaVuSerif-2e" x="63.623047"/>
       <use xlink:href="#DejaVuSerif-30" x="95.410156"/>
      </g>
     </g>
    </g>
    <g id="ytick_2">
     <g id="line2d_37">
      <g>
       <use xlink:href="#m4bb4aff4c6" x="50.365625" y="115.787216" style="stroke: #000000; stroke-width: 0.8"/>
      </g>
     </g>
     <g id="text_9">
      <!-- 0.2 -->
      <g transform="translate(27.4625 119.586435) scale(0.1 -0.1)">
       <use xlink:href="#DejaVuSerif-30"/>
       <use xlink:href="#DejaVuSerif-2e" x="63.623047"/>
       <use xlink:href="#DejaVuSerif-32" x="95.410156"/>
      </g>
     </g>
    </g>
    <g id="ytick_3">
     <g id="line2d_38">
      <g>
       <use xlink:href="#m4bb4aff4c6" x="50.365625" y="93.794489" style="stroke: #000000; stroke-width: 0.8"/>
      </g>
     </g>
     <g id="text_10">
      <!-- 0.4 -->
      <g transform="translate(27.4625 97.593707) scale(0.1 -0.1)">
       <defs>
        <path id="DejaVuSerif-34" d="M 2234 1581 
L 2234 4063 
L 641 1581 
L 2234 1581 
z
M 3609 0 
L 1484 0 
L 1484 331 
L 2234 331 
L 2234 1247 
L 197 1247 
L 197 1588 
L 2241 4750 
L 2859 4750 
L 2859 1581 
L 3750 1581 
L 3750 1247 
L 2859 1247 
L 2859 331 
L 3609 331 
L 3609 0 
z
" transform="scale(0.015625)"/>
       </defs>
       <use xlink:href="#DejaVuSerif-30"/>
       <use xlink:href="#DejaVuSerif-2e" x="63.623047"/>
       <use xlink:href="#DejaVuSerif-34" x="95.410156"/>
      </g>
     </g>
    </g>
    <g id="ytick_4">
     <g id="line2d_39">
      <g>
       <use xlink:href="#m4bb4aff4c6" x="50.365625" y="71.801761" style="stroke: #000000; stroke-width: 0.8"/>
      </g>
     </g>
     <g id="text_11">
      <!-- 0.6 -->
      <g transform="translate(27.4625 75.60098) scale(0.1 -0.1)">
       <defs>
        <path id="DejaVuSerif-36" d="M 2094 219 
Q 2534 219 2771 542 
Q 3009 866 3009 1472 
Q 3009 2078 2771 2401 
Q 2534 2725 2094 2725 
Q 1647 2725 1412 2412 
Q 1178 2100 1178 1509 
Q 1178 888 1415 553 
Q 1653 219 2094 219 
z
M 1075 2569 
Q 1288 2803 1556 2918 
Q 1825 3034 2163 3034 
Q 2859 3034 3264 2615 
Q 3669 2197 3669 1472 
Q 3669 763 3233 336 
Q 2797 -91 2069 -91 
Q 1278 -91 853 498 
Q 428 1088 428 2181 
Q 428 3406 931 4078 
Q 1434 4750 2350 4750 
Q 2597 4750 2869 4703 
Q 3141 4656 3425 4563 
L 3425 3794 
L 3072 3794 
Q 3034 4109 2831 4275 
Q 2628 4441 2284 4441 
Q 1678 4441 1381 3981 
Q 1084 3522 1075 2569 
z
" transform="scale(0.015625)"/>
       </defs>
       <use xlink:href="#DejaVuSerif-30"/>
       <use xlink:href="#DejaVuSerif-2e" x="63.623047"/>
       <use xlink:href="#DejaVuSerif-36" x="95.410156"/>
      </g>
     </g>
    </g>
    <g id="ytick_5">
     <g id="line2d_40">
      <g>
       <use xlink:href="#m4bb4aff4c6" x="50.365625" y="49.809034" style="stroke: #000000; stroke-width: 0.8"/>
      </g>
     </g>
     <g id="text_12">
      <!-- 0.8 -->
      <g transform="translate(27.4625 53.608253) scale(0.1 -0.1)">
       <defs>
        <path id="DejaVuSerif-38" d="M 2981 1275 
Q 2981 1775 2732 2051 
Q 2484 2328 2034 2328 
Q 1584 2328 1336 2051 
Q 1088 1775 1088 1275 
Q 1088 772 1336 495 
Q 1584 219 2034 219 
Q 2484 219 2732 495 
Q 2981 772 2981 1275 
z
M 2853 3541 
Q 2853 3966 2637 4203 
Q 2422 4441 2034 4441 
Q 1650 4441 1433 4203 
Q 1216 3966 1216 3541 
Q 1216 3113 1433 2875 
Q 1650 2638 2034 2638 
Q 2422 2638 2637 2875 
Q 2853 3113 2853 3541 
z
M 2516 2484 
Q 3047 2413 3344 2092 
Q 3641 1772 3641 1275 
Q 3641 619 3225 264 
Q 2809 -91 2034 -91 
Q 1263 -91 845 264 
Q 428 619 428 1275 
Q 428 1772 725 2092 
Q 1022 2413 1556 2484 
Q 1084 2569 832 2842 
Q 581 3116 581 3541 
Q 581 4103 968 4426 
Q 1356 4750 2034 4750 
Q 2713 4750 3100 4426 
Q 3488 4103 3488 3541 
Q 3488 3116 3236 2842 
Q 2984 2569 2516 2484 
z
" transform="scale(0.015625)"/>
       </defs>
       <use xlink:href="#DejaVuSerif-30"/>
       <use xlink:href="#DejaVuSerif-2e" x="63.623047"/>
       <use xlink:href="#DejaVuSerif-38" x="95.410156"/>
      </g>
     </g>
    </g>
    <g id="ytick_6">
     <g id="line2d_41">
      <g>
       <use xlink:href="#m4bb4aff4c6" x="50.365625" y="27.816307" style="stroke: #000000; stroke-width: 0.8"/>
      </g>
     </g>
     <g id="text_13">
      <!-- 1.0 -->
      <g transform="translate(27.4625 31.615526) scale(0.1 -0.1)">
       <use xlink:href="#DejaVuSerif-31"/>
       <use xlink:href="#DejaVuSerif-2e" x="63.623047"/>
       <use xlink:href="#DejaVuSerif-30" x="95.410156"/>
      </g>
     </g>
    </g>
    <g id="text_14">
     <!-- Prob. of being in $S_t=1$ -->
     <g transform="translate(21.1625 140.848125) rotate(-90) scale(0.1 -0.1)">
      <defs>
       <path id="DejaVuSerif-50" d="M 1581 2375 
L 2406 2375 
Q 2872 2375 3115 2626 
Q 3359 2878 3359 3353 
Q 3359 3831 3115 4081 
Q 2872 4331 2406 4331 
L 1581 4331 
L 1581 2375 
z
M 353 0 
L 353 331 
L 947 331 
L 947 4331 
L 353 4331 
L 353 4666 
L 2559 4666 
Q 3259 4666 3668 4311 
Q 4078 3956 4078 3353 
Q 4078 2753 3668 2397 
Q 3259 2041 2559 2041 
L 1581 2041 
L 1581 331 
L 2303 331 
L 2303 0 
L 353 0 
z
" transform="scale(0.015625)"/>
       <path id="DejaVuSerif-72" d="M 3059 3328 
L 3059 2497 
L 2728 2497 
Q 2713 2744 2591 2866 
Q 2469 2988 2234 2988 
Q 1809 2988 1582 2694 
Q 1356 2400 1356 1850 
L 1356 331 
L 2022 331 
L 2022 0 
L 263 0 
L 263 331 
L 781 331 
L 781 2994 
L 231 2994 
L 231 3322 
L 1356 3322 
L 1356 2731 
Q 1525 3078 1790 3245 
Q 2056 3413 2438 3413 
Q 2578 3413 2733 3391 
Q 2888 3369 3059 3328 
z
" transform="scale(0.015625)"/>
       <path id="DejaVuSerif-6f" d="M 1925 219 
Q 2388 219 2623 584 
Q 2859 950 2859 1663 
Q 2859 2375 2623 2739 
Q 2388 3103 1925 3103 
Q 1463 3103 1227 2739 
Q 991 2375 991 1663 
Q 991 950 1228 584 
Q 1466 219 1925 219 
z
M 1925 -91 
Q 1200 -91 759 389 
Q 319 869 319 1663 
Q 319 2456 758 2934 
Q 1197 3413 1925 3413 
Q 2653 3413 3092 2934 
Q 3531 2456 3531 1663 
Q 3531 869 3092 389 
Q 2653 -91 1925 -91 
z
" transform="scale(0.015625)"/>
       <path id="DejaVuSerif-62" d="M 738 331 
L 738 4531 
L 184 4531 
L 184 4863 
L 1313 4863 
L 1313 2803 
Q 1481 3116 1742 3264 
Q 2003 3413 2388 3413 
Q 3000 3413 3387 2928 
Q 3775 2444 3775 1663 
Q 3775 881 3387 395 
Q 3000 -91 2388 -91 
Q 2003 -91 1742 57 
Q 1481 206 1313 519 
L 1313 0 
L 184 0 
L 184 331 
L 738 331 
z
M 1313 1497 
Q 1313 897 1542 583 
Q 1772 269 2209 269 
Q 2650 269 2876 622 
Q 3103 975 3103 1663 
Q 3103 2353 2876 2703 
Q 2650 3053 2209 3053 
Q 1772 3053 1542 2737 
Q 1313 2422 1313 1825 
L 1313 1497 
z
" transform="scale(0.015625)"/>
       <path id="DejaVuSerif-20" transform="scale(0.015625)"/>
       <path id="DejaVuSerif-66" d="M 2753 4078 
L 2450 4078 
Q 2447 4313 2317 4434 
Q 2188 4556 1941 4556 
Q 1619 4556 1487 4379 
Q 1356 4203 1356 3750 
L 1356 3322 
L 2284 3322 
L 2284 2988 
L 1356 2988 
L 1356 331 
L 2094 331 
L 2094 0 
L 231 0 
L 231 331 
L 781 331 
L 781 2988 
L 231 2988 
L 231 3322 
L 781 3322 
L 781 3738 
Q 781 4294 1070 4578 
Q 1359 4863 1919 4863 
Q 2128 4863 2337 4825 
Q 2547 4788 2753 4709 
L 2753 4078 
z
" transform="scale(0.015625)"/>
       <path id="DejaVuSerif-65" d="M 3469 1600 
L 991 1600 
L 991 1575 
Q 991 903 1244 561 
Q 1497 219 1991 219 
Q 2369 219 2611 417 
Q 2853 616 2950 1006 
L 3413 1006 
Q 3275 459 2904 184 
Q 2534 -91 1931 -91 
Q 1203 -91 761 389 
Q 319 869 319 1663 
Q 319 2450 753 2931 
Q 1188 3413 1894 3413 
Q 2647 3413 3050 2948 
Q 3453 2484 3469 1600 
z
M 2791 1931 
Q 2772 2513 2545 2808 
Q 2319 3103 1894 3103 
Q 1497 3103 1269 2806 
Q 1041 2509 991 1931 
L 2791 1931 
z
" transform="scale(0.015625)"/>
       <path id="DejaVuSerif-69" d="M 622 4353 
Q 622 4497 726 4603 
Q 831 4709 978 4709 
Q 1122 4709 1226 4603 
Q 1331 4497 1331 4353 
Q 1331 4206 1228 4103 
Q 1125 4000 978 4000 
Q 831 4000 726 4103 
Q 622 4206 622 4353 
z
M 1356 331 
L 1900 331 
L 1900 0 
L 231 0 
L 231 331 
L 781 331 
L 781 2988 
L 231 2988 
L 231 3322 
L 1356 3322 
L 1356 331 
z
" transform="scale(0.015625)"/>
       <path id="DejaVuSerif-6e" d="M 263 0 
L 263 331 
L 781 331 
L 781 2988 
L 231 2988 
L 231 3322 
L 1356 3322 
L 1356 2731 
Q 1516 3069 1770 3241 
Q 2025 3413 2363 3413 
Q 2913 3413 3172 3097 
Q 3431 2781 3431 2113 
L 3431 331 
L 3944 331 
L 3944 0 
L 2356 0 
L 2356 331 
L 2853 331 
L 2853 1931 
Q 2853 2541 2703 2767 
Q 2553 2994 2175 2994 
Q 1775 2994 1565 2701 
Q 1356 2409 1356 1850 
L 1356 331 
L 1856 331 
L 1856 0 
L 263 0 
z
" transform="scale(0.015625)"/>
       <path id="DejaVuSerif-67" d="M 3359 2988 
L 3359 72 
Q 3359 -644 2965 -1033 
Q 2572 -1422 1844 -1422 
Q 1516 -1422 1216 -1362 
Q 916 -1303 641 -1184 
L 641 -488 
L 941 -488 
Q 997 -813 1206 -963 
Q 1416 -1113 1806 -1113 
Q 2313 -1113 2548 -827 
Q 2784 -541 2784 72 
L 2784 519 
Q 2616 206 2355 57 
Q 2094 -91 1709 -91 
Q 1097 -91 708 395 
Q 319 881 319 1663 
Q 319 2444 706 2928 
Q 1094 3413 1709 3413 
Q 2094 3413 2355 3264 
Q 2616 3116 2784 2803 
L 2784 3322 
L 3909 3322 
L 3909 2988 
L 3359 2988 
z
M 2784 1825 
Q 2784 2422 2554 2737 
Q 2325 3053 1888 3053 
Q 1444 3053 1217 2703 
Q 991 2353 991 1663 
Q 991 975 1217 622 
Q 1444 269 1888 269 
Q 2325 269 2554 583 
Q 2784 897 2784 1497 
L 2784 1825 
z
" transform="scale(0.015625)"/>
       <path id="DejaVuSerif-Italic-53" d="M 184 225 
L 391 1288 
L 750 1284 
Q 663 753 905 498 
Q 1147 244 1744 244 
Q 2300 244 2636 464 
Q 2972 684 3053 1106 
Q 3119 1444 2976 1625 
Q 2834 1806 2300 1978 
L 1722 2163 
Q 1091 2366 877 2669 
Q 663 2972 766 3500 
Q 881 4094 1367 4422 
Q 1853 4750 2616 4750 
Q 2941 4750 3314 4679 
Q 3688 4609 4097 4475 
L 3906 3481 
L 3553 3481 
Q 3594 3975 3361 4195 
Q 3128 4416 2563 4416 
Q 2069 4416 1772 4214 
Q 1475 4013 1400 3628 
Q 1334 3294 1490 3103 
Q 1647 2913 2241 2725 
L 2784 2553 
Q 3381 2363 3593 2067 
Q 3806 1772 3709 1275 
Q 3578 597 3076 253 
Q 2575 -91 1716 -91 
Q 1331 -91 948 -12 
Q 566 66 184 225 
z
" transform="scale(0.015625)"/>
       <path id="DejaVuSerif-Italic-74" d="M 856 2988 
L 350 2988 
L 416 3322 
L 922 3322 
L 1122 4353 
L 1700 4353 
L 1500 3322 
L 2581 3322 
L 2516 2988 
L 1434 2988 
L 1025 878 
Q 978 631 978 488 
Q 978 388 1000 338 
Q 1059 219 1278 219 
Q 1503 219 1633 351 
Q 1763 484 1825 781 
L 2259 781 
Q 2147 328 1884 118 
Q 1622 -91 1169 -91 
Q 672 -91 506 131 
Q 406 266 406 516 
Q 406 675 447 878 
L 856 2988 
z
" transform="scale(0.015625)"/>
       <path id="DejaVuSerif-3d" d="M 678 2894 
L 4684 2894 
L 4684 2394 
L 678 2394 
L 678 2894 
z
M 678 1619 
L 4684 1619 
L 4684 1119 
L 678 1119 
L 678 1619 
z
" transform="scale(0.015625)"/>
      </defs>
      <use xlink:href="#DejaVuSerif-50" transform="translate(0 0.015625)"/>
      <use xlink:href="#DejaVuSerif-72" transform="translate(67.285156 0.015625)"/>
      <use xlink:href="#DejaVuSerif-6f" transform="translate(115.087891 0.015625)"/>
      <use xlink:href="#DejaVuSerif-62" transform="translate(175.292969 0.015625)"/>
      <use xlink:href="#DejaVuSerif-2e" transform="translate(239.306641 0.015625)"/>
      <use xlink:href="#DejaVuSerif-20" transform="translate(271.09375 0.015625)"/>
      <use xlink:href="#DejaVuSerif-6f" transform="translate(302.880859 0.015625)"/>
      <use xlink:href="#DejaVuSerif-66" transform="translate(363.085938 0.015625)"/>
      <use xlink:href="#DejaVuSerif-20" transform="translate(400.097656 0.015625)"/>
      <use xlink:href="#DejaVuSerif-62" transform="translate(431.884766 0.015625)"/>
      <use xlink:href="#DejaVuSerif-65" transform="translate(495.898438 0.015625)"/>
      <use xlink:href="#DejaVuSerif-69" transform="translate(555.078125 0.015625)"/>
      <use xlink:href="#DejaVuSerif-6e" transform="translate(587.060547 0.015625)"/>
      <use xlink:href="#DejaVuSerif-67" transform="translate(651.464844 0.015625)"/>
      <use xlink:href="#DejaVuSerif-20" transform="translate(715.478516 0.015625)"/>
      <use xlink:href="#DejaVuSerif-69" transform="translate(747.265625 0.015625)"/>
      <use xlink:href="#DejaVuSerif-6e" transform="translate(779.248047 0.015625)"/>
      <use xlink:href="#DejaVuSerif-20" transform="translate(843.652344 0.015625)"/>
      <use xlink:href="#DejaVuSerif-Italic-53" transform="translate(875.439453 0.015625)"/>
      <use xlink:href="#DejaVuSerif-Italic-74" transform="translate(943.945312 -15.55625) scale(0.7)"/>
      <use xlink:href="#DejaVuSerif-3d" transform="translate(993.635352 0.015625)"/>
      <use xlink:href="#DejaVuSerif-31" transform="translate(1096.389258 0.015625)"/>
     </g>
    </g>
   </g>
   <g id="line2d_42">
    <path d="M 50.365625 137.769295 
L 52.934834 137.651427 
L 55.504042 135.130612 
L 58.073251 60.61803 
L 60.64246 31.532565 
L 63.211668 27.817173 
L 76.057711 27.816319 
L 78.62692 28.011276 
L 81.196129 38.850603 
L 83.765337 64.931381 
L 86.334546 107.588069 
L 88.903754 123.749394 
L 91.472963 134.205869 
L 94.042172 137.003085 
L 96.61138 137.677557 
L 101.749798 137.778211 
L 240.487064 137.760516 
L 243.056272 134.781008 
L 245.625481 48.015245 
L 248.19469 30.222586 
L 250.763898 29.504147 
L 253.333107 29.637863 
L 255.902316 29.658073 
L 258.471524 29.188316 
L 261.040733 28.288666 
L 263.609942 27.93437 
L 268.748359 29.006326 
L 271.317567 28.32683 
L 273.886776 27.874005 
L 279.025193 27.816387 
L 289.302028 27.900863 
L 291.871237 28.655388 
L 294.440445 35.089994 
L 297.009654 51.82706 
L 299.578862 116.52628 
L 302.148071 135.102383 
L 304.71728 137.728439 
L 312.424906 137.779924 
L 340.686201 137.692358 
L 343.255409 137.560158 
L 345.824618 137.707959 
L 350.963035 137.577033 
L 353.532244 137.714618 
L 356.101452 137.588838 
L 361.23987 137.76715 
L 366.378287 137.713593 
L 368.947496 137.46905 
L 371.516704 137.779943 
L 374.085913 137.295795 
L 376.655121 137.079462 
L 379.22433 137.332704 
L 381.793539 137.779943 
L 384.362747 44.1308 
L 386.931956 27.816308 
L 402.347208 27.842571 
L 404.916416 28.094272 
L 407.485625 31.981823 
L 407.485625 31.981823 
" clip-path="url(#p6122fa2f7c)" style="fill: none; stroke: #1f77b4; stroke-width: 1.5; stroke-linecap: square"/>
   </g>
   <g id="patch_37">
    <path d="M 50.365625 143.278125 
L 50.365625 22.318125 
" style="fill: none; stroke: #000000; stroke-width: 0.8; stroke-linejoin: miter; stroke-linecap: square"/>
   </g>
   <g id="patch_38">
    <path d="M 407.485625 143.278125 
L 407.485625 22.318125 
" style="fill: none; stroke: #000000; stroke-width: 0.8; stroke-linejoin: miter; stroke-linecap: square"/>
   </g>
   <g id="patch_39">
    <path d="M 50.365625 143.278125 
L 407.485625 143.278125 
" style="fill: none; stroke: #000000; stroke-width: 0.8; stroke-linejoin: miter; stroke-linecap: square"/>
   </g>
   <g id="patch_40">
    <path d="M 50.365625 22.318125 
L 407.485625 22.318125 
" style="fill: none; stroke: #000000; stroke-width: 0.8; stroke-linejoin: miter; stroke-linecap: square"/>
   </g>
   <g id="text_15">
    <!-- United Kingdom -->
    <g transform="translate(179.125625 16.318125) scale(0.12 -0.12)">
     <defs>
      <path id="DejaVuSerif-55" d="M 897 4331 
L 300 4331 
L 300 4666 
L 2125 4666 
L 2125 4331 
L 1528 4331 
L 1528 1919 
Q 1528 1025 1820 672 
Q 2113 319 2828 319 
Q 3544 319 3836 672 
Q 4128 1025 4128 1919 
L 4128 4331 
L 3531 4331 
L 3531 4666 
L 5106 4666 
L 5106 4331 
L 4513 4331 
L 4513 1856 
Q 4513 791 4103 350 
Q 3694 -91 2713 -91 
Q 1731 -91 1314 353 
Q 897 797 897 1856 
L 897 4331 
z
" transform="scale(0.015625)"/>
      <path id="DejaVuSerif-74" d="M 691 2988 
L 184 2988 
L 184 3322 
L 691 3322 
L 691 4353 
L 1269 4353 
L 1269 3322 
L 2350 3322 
L 2350 2988 
L 1269 2988 
L 1269 878 
Q 1269 456 1350 337 
Q 1431 219 1650 219 
Q 1875 219 1978 351 
Q 2081 484 2088 781 
L 2522 781 
Q 2497 328 2275 118 
Q 2053 -91 1600 -91 
Q 1103 -91 897 129 
Q 691 350 691 878 
L 691 2988 
z
" transform="scale(0.015625)"/>
      <path id="DejaVuSerif-64" d="M 3359 331 
L 3909 331 
L 3909 0 
L 2784 0 
L 2784 519 
Q 2616 206 2355 57 
Q 2094 -91 1709 -91 
Q 1097 -91 708 395 
Q 319 881 319 1663 
Q 319 2444 706 2928 
Q 1094 3413 1709 3413 
Q 2094 3413 2355 3264 
Q 2616 3116 2784 2803 
L 2784 4531 
L 2241 4531 
L 2241 4863 
L 3359 4863 
L 3359 331 
z
M 2784 1497 
L 2784 1825 
Q 2784 2422 2554 2737 
Q 2325 3053 1888 3053 
Q 1444 3053 1217 2703 
Q 991 2353 991 1663 
Q 991 975 1217 622 
Q 1444 269 1888 269 
Q 2325 269 2554 583 
Q 2784 897 2784 1497 
z
" transform="scale(0.015625)"/>
      <path id="DejaVuSerif-4b" d="M 353 0 
L 353 331 
L 947 331 
L 947 4331 
L 353 4331 
L 353 4666 
L 2175 4666 
L 2175 4331 
L 1581 4331 
L 1581 2566 
L 3591 4331 
L 3084 4331 
L 3084 4666 
L 4634 4666 
L 4634 4331 
L 4109 4331 
L 2106 2572 
L 4347 331 
L 4878 331 
L 4878 0 
L 3794 0 
L 1581 2216 
L 1581 331 
L 2175 331 
L 2175 0 
L 353 0 
z
" transform="scale(0.015625)"/>
      <path id="DejaVuSerif-6d" d="M 3316 2675 
Q 3481 3041 3739 3227 
Q 3997 3413 4341 3413 
Q 4863 3413 5119 3089 
Q 5375 2766 5375 2113 
L 5375 331 
L 5894 331 
L 5894 0 
L 4300 0 
L 4300 331 
L 4800 331 
L 4800 2047 
Q 4800 2556 4650 2772 
Q 4500 2988 4153 2988 
Q 3769 2988 3567 2697 
Q 3366 2406 3366 1850 
L 3366 331 
L 3866 331 
L 3866 0 
L 2291 0 
L 2291 331 
L 2791 331 
L 2791 2069 
Q 2791 2566 2641 2777 
Q 2491 2988 2144 2988 
Q 1759 2988 1557 2697 
Q 1356 2406 1356 1850 
L 1356 331 
L 1856 331 
L 1856 0 
L 263 0 
L 263 331 
L 781 331 
L 781 2994 
L 231 2994 
L 231 3322 
L 1356 3322 
L 1356 2731 
Q 1516 3063 1762 3238 
Q 2009 3413 2322 3413 
Q 2709 3413 2968 3220 
Q 3228 3028 3316 2675 
z
" transform="scale(0.015625)"/>
     </defs>
     <use xlink:href="#DejaVuSerif-55"/>
     <use xlink:href="#DejaVuSerif-6e" x="84.277344"/>
     <use xlink:href="#DejaVuSerif-69" x="148.681641"/>
     <use xlink:href="#DejaVuSerif-74" x="180.664062"/>
     <use xlink:href="#DejaVuSerif-65" x="220.849609"/>
     <use xlink:href="#DejaVuSerif-64" x="280.029297"/>
     <use xlink:href="#DejaVuSerif-20" x="344.042969"/>
     <use xlink:href="#DejaVuSerif-4b" x="375.830078"/>
     <use xlink:href="#DejaVuSerif-69" x="450.537109"/>
     <use xlink:href="#DejaVuSerif-6e" x="482.519531"/>
     <use xlink:href="#DejaVuSerif-67" x="546.923828"/>
     <use xlink:href="#DejaVuSerif-64" x="610.9375"/>
     <use xlink:href="#DejaVuSerif-6f" x="674.951172"/>
     <use xlink:href="#DejaVuSerif-6d" x="735.15625"/>
    </g>
   </g>
  </g>
  <g id="axes_2">
   <g id="patch_41">
    <path d="M 50.365625 288.430125 
L 407.485625 288.430125 
L 407.485625 167.470125 
L 50.365625 167.470125 
z
" style="fill: #ffffff"/>
   </g>
   <g id="patch_42">
    <path d="M -1308.745742 288.430125 
L -1293.33049 288.430125 
L -1293.33049 167.470125 
L -1308.745742 167.470125 
z
" clip-path="url(#pf84c9de88a)" style="fill: #d3d3d3"/>
   </g>
   <g id="patch_43">
    <path d="M -1275.34603 288.430125 
L -1265.069195 288.430125 
L -1265.069195 167.470125 
L -1275.34603 167.470125 
z
" clip-path="url(#pf84c9de88a)" style="fill: #d3d3d3"/>
   </g>
   <g id="patch_44">
    <path d="M -1229.100274 288.430125 
L -1208.546605 288.430125 
L -1208.546605 167.470125 
L -1229.100274 167.470125 
z
" clip-path="url(#pf84c9de88a)" style="fill: #d3d3d3"/>
   </g>
   <g id="patch_45">
    <path d="M -1185.423728 288.430125 
L -1170.008476 288.430125 
L -1170.008476 167.470125 
L -1185.423728 167.470125 
z
" clip-path="url(#pf84c9de88a)" style="fill: #d3d3d3"/>
   </g>
   <g id="patch_46">
    <path d="M -1141.747181 288.430125 
L -1085.224591 288.430125 
L -1085.224591 167.470125 
L -1141.747181 167.470125 
z
" clip-path="url(#pf84c9de88a)" style="fill: #d3d3d3"/>
   </g>
   <g id="patch_47">
    <path d="M -1054.394087 288.430125 
L -1020.994375 288.430125 
L -1020.994375 167.470125 
L -1054.394087 167.470125 
z
" clip-path="url(#pf84c9de88a)" style="fill: #d3d3d3"/>
   </g>
   <g id="patch_48">
    <path d="M -1000.440706 288.430125 
L -992.73308 288.430125 
L -992.73308 167.470125 
L -1000.440706 167.470125 
z
" clip-path="url(#pf84c9de88a)" style="fill: #d3d3d3"/>
   </g>
   <g id="patch_49">
    <path d="M -967.040994 288.430125 
L -959.333368 288.430125 
L -959.333368 167.470125 
L -967.040994 167.470125 
z
" clip-path="url(#pf84c9de88a)" style="fill: #d3d3d3"/>
   </g>
   <g id="patch_50">
    <path d="M -941.348907 288.430125 
L -928.502864 288.430125 
L -928.502864 167.470125 
L -941.348907 167.470125 
z
" clip-path="url(#pf84c9de88a)" style="fill: #d3d3d3"/>
   </g>
   <g id="patch_51">
    <path d="M -913.087612 288.430125 
L -897.672361 288.430125 
L -897.672361 167.470125 
L -913.087612 167.470125 
z
" clip-path="url(#pf84c9de88a)" style="fill: #d3d3d3"/>
   </g>
   <g id="patch_52">
    <path d="M -874.549483 288.430125 
L -861.70344 288.430125 
L -861.70344 167.470125 
L -874.549483 167.470125 
z
" clip-path="url(#pf84c9de88a)" style="fill: #d3d3d3"/>
   </g>
   <g id="patch_53">
    <path d="M -841.149771 288.430125 
L -823.16531 288.430125 
L -823.16531 167.470125 
L -841.149771 167.470125 
z
" clip-path="url(#pf84c9de88a)" style="fill: #d3d3d3"/>
   </g>
   <g id="patch_54">
    <path d="M -794.904015 288.430125 
L -784.627181 288.430125 
L -784.627181 167.470125 
L -794.904015 167.470125 
z
" clip-path="url(#pf84c9de88a)" style="fill: #d3d3d3"/>
   </g>
   <g id="patch_55">
    <path d="M -766.64272 288.430125 
L -748.65826 288.430125 
L -748.65826 167.470125 
L -766.64272 167.470125 
z
" clip-path="url(#pf84c9de88a)" style="fill: #d3d3d3"/>
   </g>
   <g id="patch_56">
    <path d="M -735.812217 288.430125 
L -717.827756 288.430125 
L -717.827756 167.470125 
L -735.812217 167.470125 
z
" clip-path="url(#pf84c9de88a)" style="fill: #d3d3d3"/>
   </g>
   <g id="patch_57">
    <path d="M -679.289627 288.430125 
L -674.15121 288.430125 
L -674.15121 167.470125 
L -679.289627 167.470125 
z
" clip-path="url(#pf84c9de88a)" style="fill: #d3d3d3"/>
   </g>
   <g id="patch_58">
    <path d="M -663.874375 288.430125 
L -648.459123 288.430125 
L -648.459123 167.470125 
L -663.874375 167.470125 
z
" clip-path="url(#pf84c9de88a)" style="fill: #d3d3d3"/>
   </g>
   <g id="patch_59">
    <path d="M -630.474663 288.430125 
L -617.62862 288.430125 
L -617.62862 167.470125 
L -630.474663 167.470125 
z
" clip-path="url(#pf84c9de88a)" style="fill: #d3d3d3"/>
   </g>
   <g id="patch_60">
    <path d="M -597.074951 288.430125 
L -584.228907 288.430125 
L -584.228907 167.470125 
L -597.074951 167.470125 
z
" clip-path="url(#pf84c9de88a)" style="fill: #d3d3d3"/>
   </g>
   <g id="patch_61">
    <path d="M -566.244447 288.430125 
L -530.275526 288.430125 
L -530.275526 167.470125 
L -566.244447 167.470125 
z
" clip-path="url(#pf84c9de88a)" style="fill: #d3d3d3"/>
   </g>
   <g id="patch_62">
    <path d="M -486.598979 288.430125 
L -476.322145 288.430125 
L -476.322145 167.470125 
L -486.598979 167.470125 
z
" clip-path="url(#pf84c9de88a)" style="fill: #d3d3d3"/>
   </g>
   <g id="patch_63">
    <path d="M -406.953512 288.430125 
L -399.245886 288.430125 
L -399.245886 167.470125 
L -406.953512 167.470125 
z
" clip-path="url(#pf84c9de88a)" style="fill: #d3d3d3"/>
   </g>
   <g id="patch_64">
    <path d="M -368.415382 288.430125 
L -358.138548 288.430125 
L -358.138548 167.470125 
L -368.415382 167.470125 
z
" clip-path="url(#pf84c9de88a)" style="fill: #d3d3d3"/>
   </g>
   <g id="patch_65">
    <path d="M -322.169627 288.430125 
L -311.892792 288.430125 
L -311.892792 167.470125 
L -322.169627 167.470125 
z
" clip-path="url(#pf84c9de88a)" style="fill: #d3d3d3"/>
   </g>
   <g id="patch_66">
    <path d="M -278.49308 288.430125 
L -270.785454 288.430125 
L -270.785454 167.470125 
L -278.49308 167.470125 
z
" clip-path="url(#pf84c9de88a)" style="fill: #d3d3d3"/>
   </g>
   <g id="patch_67">
    <path d="M -250.231785 288.430125 
L -242.524159 288.430125 
L -242.524159 167.470125 
L -250.231785 167.470125 
z
" clip-path="url(#pf84c9de88a)" style="fill: #d3d3d3"/>
   </g>
   <g id="patch_68">
    <path d="M -152.601857 288.430125 
L -142.325022 288.430125 
L -142.325022 167.470125 
L -152.601857 167.470125 
z
" clip-path="url(#pf84c9de88a)" style="fill: #d3d3d3"/>
   </g>
   <g id="patch_69">
    <path d="M -111.494519 288.430125 
L -98.648476 288.430125 
L -98.648476 167.470125 
L -111.494519 167.470125 
z
" clip-path="url(#pf84c9de88a)" style="fill: #d3d3d3"/>
   </g>
   <g id="patch_70">
    <path d="M -47.264303 288.430125 
L -42.125886 288.430125 
L -42.125886 167.470125 
L -47.264303 167.470125 
z
" clip-path="url(#pf84c9de88a)" style="fill: #d3d3d3"/>
   </g>
   <g id="patch_71">
    <path d="M -31.849051 288.430125 
L -19.003008 288.430125 
L -19.003008 167.470125 
L -31.849051 167.470125 
z
" clip-path="url(#pf84c9de88a)" style="fill: #d3d3d3"/>
   </g>
   <g id="patch_72">
    <path d="M 60.64246 288.430125 
L 65.780877 288.430125 
L 65.780877 167.470125 
L 60.64246 167.470125 
z
" clip-path="url(#pf84c9de88a)" style="fill: #d3d3d3"/>
   </g>
   <g id="patch_73">
    <path d="M 168.549222 288.430125 
L 176.256848 288.430125 
L 176.256848 167.470125 
L 168.549222 167.470125 
z
" clip-path="url(#pf84c9de88a)" style="fill: #d3d3d3"/>
   </g>
   <g id="patch_74">
    <path d="M 237.917855 288.430125 
L 253.333107 288.430125 
L 253.333107 167.470125 
L 237.917855 167.470125 
z
" clip-path="url(#pf84c9de88a)" style="fill: #d3d3d3"/>
   </g>
   <g id="patch_75">
    <path d="M 361.23987 288.430125 
L 366.378287 288.430125 
L 366.378287 167.470125 
L 361.23987 167.470125 
z
" clip-path="url(#pf84c9de88a)" style="fill: #d3d3d3"/>
   </g>
   <g id="matplotlib.axis_3">
    <g id="xtick_36">
     <g id="line2d_43">
      <g>
       <use xlink:href="#m18b64f295c" x="55.504042" y="288.430125" style="stroke: #000000; stroke-width: 0.8"/>
      </g>
     </g>
     <g id="text_16">
      <!-- 1990 -->
      <g transform="translate(42.779042 303.028562) scale(0.1 -0.1)">
       <use xlink:href="#DejaVuSerif-31"/>
       <use xlink:href="#DejaVuSerif-39" x="63.623047"/>
       <use xlink:href="#DejaVuSerif-39" x="127.246094"/>
       <use xlink:href="#DejaVuSerif-30" x="190.869141"/>
      </g>
     </g>
    </g>
    <g id="xtick_37">
     <g id="line2d_44">
      <g>
       <use xlink:href="#m18b64f295c" x="106.888215" y="288.430125" style="stroke: #000000; stroke-width: 0.8"/>
      </g>
     </g>
     <g id="text_17">
      <!-- 1995 -->
      <g transform="translate(94.163215 303.028562) scale(0.1 -0.1)">
       <use xlink:href="#DejaVuSerif-31"/>
       <use xlink:href="#DejaVuSerif-39" x="63.623047"/>
       <use xlink:href="#DejaVuSerif-39" x="127.246094"/>
       <use xlink:href="#DejaVuSerif-35" x="190.869141"/>
      </g>
     </g>
    </g>
    <g id="xtick_38">
     <g id="line2d_45">
      <g>
       <use xlink:href="#m18b64f295c" x="158.272388" y="288.430125" style="stroke: #000000; stroke-width: 0.8"/>
      </g>
     </g>
     <g id="text_18">
      <!-- 2000 -->
      <g transform="translate(145.547388 303.028562) scale(0.1 -0.1)">
       <use xlink:href="#DejaVuSerif-32"/>
       <use xlink:href="#DejaVuSerif-30" x="63.623047"/>
       <use xlink:href="#DejaVuSerif-30" x="127.246094"/>
       <use xlink:href="#DejaVuSerif-30" x="190.869141"/>
      </g>
     </g>
    </g>
    <g id="xtick_39">
     <g id="line2d_46">
      <g>
       <use xlink:href="#m18b64f295c" x="209.65656" y="288.430125" style="stroke: #000000; stroke-width: 0.8"/>
      </g>
     </g>
     <g id="text_19">
      <!-- 2005 -->
      <g transform="translate(196.93156 303.028562) scale(0.1 -0.1)">
       <use xlink:href="#DejaVuSerif-32"/>
       <use xlink:href="#DejaVuSerif-30" x="63.623047"/>
       <use xlink:href="#DejaVuSerif-30" x="127.246094"/>
       <use xlink:href="#DejaVuSerif-35" x="190.869141"/>
      </g>
     </g>
    </g>
    <g id="xtick_40">
     <g id="line2d_47">
      <g>
       <use xlink:href="#m18b64f295c" x="261.040733" y="288.430125" style="stroke: #000000; stroke-width: 0.8"/>
      </g>
     </g>
     <g id="text_20">
      <!-- 2010 -->
      <g transform="translate(248.315733 303.028562) scale(0.1 -0.1)">
       <use xlink:href="#DejaVuSerif-32"/>
       <use xlink:href="#DejaVuSerif-30" x="63.623047"/>
       <use xlink:href="#DejaVuSerif-31" x="127.246094"/>
       <use xlink:href="#DejaVuSerif-30" x="190.869141"/>
      </g>
     </g>
    </g>
    <g id="xtick_41">
     <g id="line2d_48">
      <g>
       <use xlink:href="#m18b64f295c" x="312.424906" y="288.430125" style="stroke: #000000; stroke-width: 0.8"/>
      </g>
     </g>
     <g id="text_21">
      <!-- 2015 -->
      <g transform="translate(299.699906 303.028562) scale(0.1 -0.1)">
       <use xlink:href="#DejaVuSerif-32"/>
       <use xlink:href="#DejaVuSerif-30" x="63.623047"/>
       <use xlink:href="#DejaVuSerif-31" x="127.246094"/>
       <use xlink:href="#DejaVuSerif-35" x="190.869141"/>
      </g>
     </g>
    </g>
    <g id="xtick_42">
     <g id="line2d_49">
      <g>
       <use xlink:href="#m18b64f295c" x="363.809078" y="288.430125" style="stroke: #000000; stroke-width: 0.8"/>
      </g>
     </g>
     <g id="text_22">
      <!-- 2020 -->
      <g transform="translate(351.084078 303.028562) scale(0.1 -0.1)">
       <use xlink:href="#DejaVuSerif-32"/>
       <use xlink:href="#DejaVuSerif-30" x="63.623047"/>
       <use xlink:href="#DejaVuSerif-32" x="127.246094"/>
       <use xlink:href="#DejaVuSerif-30" x="190.869141"/>
      </g>
     </g>
    </g>
    <g id="xtick_43">
     <g id="line2d_50">
      <g>
       <use xlink:href="#mb718f2657e" x="65.780877" y="288.430125" style="stroke: #000000; stroke-width: 0.6"/>
      </g>
     </g>
    </g>
    <g id="xtick_44">
     <g id="line2d_51">
      <g>
       <use xlink:href="#mb718f2657e" x="76.057711" y="288.430125" style="stroke: #000000; stroke-width: 0.6"/>
      </g>
     </g>
    </g>
    <g id="xtick_45">
     <g id="line2d_52">
      <g>
       <use xlink:href="#mb718f2657e" x="86.334546" y="288.430125" style="stroke: #000000; stroke-width: 0.6"/>
      </g>
     </g>
    </g>
    <g id="xtick_46">
     <g id="line2d_53">
      <g>
       <use xlink:href="#mb718f2657e" x="96.61138" y="288.430125" style="stroke: #000000; stroke-width: 0.6"/>
      </g>
     </g>
    </g>
    <g id="xtick_47">
     <g id="line2d_54">
      <g>
       <use xlink:href="#mb718f2657e" x="117.165049" y="288.430125" style="stroke: #000000; stroke-width: 0.6"/>
      </g>
     </g>
    </g>
    <g id="xtick_48">
     <g id="line2d_55">
      <g>
       <use xlink:href="#mb718f2657e" x="127.441884" y="288.430125" style="stroke: #000000; stroke-width: 0.6"/>
      </g>
     </g>
    </g>
    <g id="xtick_49">
     <g id="line2d_56">
      <g>
       <use xlink:href="#mb718f2657e" x="137.718719" y="288.430125" style="stroke: #000000; stroke-width: 0.6"/>
      </g>
     </g>
    </g>
    <g id="xtick_50">
     <g id="line2d_57">
      <g>
       <use xlink:href="#mb718f2657e" x="147.995553" y="288.430125" style="stroke: #000000; stroke-width: 0.6"/>
      </g>
     </g>
    </g>
    <g id="xtick_51">
     <g id="line2d_58">
      <g>
       <use xlink:href="#mb718f2657e" x="168.549222" y="288.430125" style="stroke: #000000; stroke-width: 0.6"/>
      </g>
     </g>
    </g>
    <g id="xtick_52">
     <g id="line2d_59">
      <g>
       <use xlink:href="#mb718f2657e" x="178.826057" y="288.430125" style="stroke: #000000; stroke-width: 0.6"/>
      </g>
     </g>
    </g>
    <g id="xtick_53">
     <g id="line2d_60">
      <g>
       <use xlink:href="#mb718f2657e" x="189.102891" y="288.430125" style="stroke: #000000; stroke-width: 0.6"/>
      </g>
     </g>
    </g>
    <g id="xtick_54">
     <g id="line2d_61">
      <g>
       <use xlink:href="#mb718f2657e" x="199.379726" y="288.430125" style="stroke: #000000; stroke-width: 0.6"/>
      </g>
     </g>
    </g>
    <g id="xtick_55">
     <g id="line2d_62">
      <g>
       <use xlink:href="#mb718f2657e" x="219.933395" y="288.430125" style="stroke: #000000; stroke-width: 0.6"/>
      </g>
     </g>
    </g>
    <g id="xtick_56">
     <g id="line2d_63">
      <g>
       <use xlink:href="#mb718f2657e" x="230.210229" y="288.430125" style="stroke: #000000; stroke-width: 0.6"/>
      </g>
     </g>
    </g>
    <g id="xtick_57">
     <g id="line2d_64">
      <g>
       <use xlink:href="#mb718f2657e" x="240.487064" y="288.430125" style="stroke: #000000; stroke-width: 0.6"/>
      </g>
     </g>
    </g>
    <g id="xtick_58">
     <g id="line2d_65">
      <g>
       <use xlink:href="#mb718f2657e" x="250.763898" y="288.430125" style="stroke: #000000; stroke-width: 0.6"/>
      </g>
     </g>
    </g>
    <g id="xtick_59">
     <g id="line2d_66">
      <g>
       <use xlink:href="#mb718f2657e" x="271.317567" y="288.430125" style="stroke: #000000; stroke-width: 0.6"/>
      </g>
     </g>
    </g>
    <g id="xtick_60">
     <g id="line2d_67">
      <g>
       <use xlink:href="#mb718f2657e" x="281.594402" y="288.430125" style="stroke: #000000; stroke-width: 0.6"/>
      </g>
     </g>
    </g>
    <g id="xtick_61">
     <g id="line2d_68">
      <g>
       <use xlink:href="#mb718f2657e" x="291.871237" y="288.430125" style="stroke: #000000; stroke-width: 0.6"/>
      </g>
     </g>
    </g>
    <g id="xtick_62">
     <g id="line2d_69">
      <g>
       <use xlink:href="#mb718f2657e" x="302.148071" y="288.430125" style="stroke: #000000; stroke-width: 0.6"/>
      </g>
     </g>
    </g>
    <g id="xtick_63">
     <g id="line2d_70">
      <g>
       <use xlink:href="#mb718f2657e" x="322.70174" y="288.430125" style="stroke: #000000; stroke-width: 0.6"/>
      </g>
     </g>
    </g>
    <g id="xtick_64">
     <g id="line2d_71">
      <g>
       <use xlink:href="#mb718f2657e" x="332.978575" y="288.430125" style="stroke: #000000; stroke-width: 0.6"/>
      </g>
     </g>
    </g>
    <g id="xtick_65">
     <g id="line2d_72">
      <g>
       <use xlink:href="#mb718f2657e" x="343.255409" y="288.430125" style="stroke: #000000; stroke-width: 0.6"/>
      </g>
     </g>
    </g>
    <g id="xtick_66">
     <g id="line2d_73">
      <g>
       <use xlink:href="#mb718f2657e" x="353.532244" y="288.430125" style="stroke: #000000; stroke-width: 0.6"/>
      </g>
     </g>
    </g>
    <g id="xtick_67">
     <g id="line2d_74">
      <g>
       <use xlink:href="#mb718f2657e" x="374.085913" y="288.430125" style="stroke: #000000; stroke-width: 0.6"/>
      </g>
     </g>
    </g>
    <g id="xtick_68">
     <g id="line2d_75">
      <g>
       <use xlink:href="#mb718f2657e" x="384.362747" y="288.430125" style="stroke: #000000; stroke-width: 0.6"/>
      </g>
     </g>
    </g>
    <g id="xtick_69">
     <g id="line2d_76">
      <g>
       <use xlink:href="#mb718f2657e" x="394.639582" y="288.430125" style="stroke: #000000; stroke-width: 0.6"/>
      </g>
     </g>
    </g>
    <g id="xtick_70">
     <g id="line2d_77">
      <g>
       <use xlink:href="#mb718f2657e" x="404.916416" y="288.430125" style="stroke: #000000; stroke-width: 0.6"/>
      </g>
     </g>
    </g>
   </g>
   <g id="matplotlib.axis_4">
    <g id="ytick_7">
     <g id="line2d_78">
      <path d="M 50.365625 279.335197 
L 407.485625 279.335197 
" clip-path="url(#pf84c9de88a)" style="fill: none; stroke-dasharray: 2.96,1.28; stroke-dashoffset: 0; stroke: #b0b0b0; stroke-width: 0.8"/>
     </g>
     <g id="line2d_79">
      <g>
       <use xlink:href="#m4bb4aff4c6" x="50.365625" y="279.335197" style="stroke: #000000; stroke-width: 0.8"/>
      </g>
     </g>
     <g id="text_23">
      <!-- 0.00 -->
      <g transform="translate(21.1 283.134416) scale(0.1 -0.1)">
       <use xlink:href="#DejaVuSerif-30"/>
       <use xlink:href="#DejaVuSerif-2e" x="63.623047"/>
       <use xlink:href="#DejaVuSerif-30" x="95.410156"/>
       <use xlink:href="#DejaVuSerif-30" x="159.033203"/>
      </g>
     </g>
    </g>
    <g id="ytick_8">
     <g id="line2d_80">
      <path d="M 50.365625 259.110364 
L 407.485625 259.110364 
" clip-path="url(#pf84c9de88a)" style="fill: none; stroke-dasharray: 2.96,1.28; stroke-dashoffset: 0; stroke: #b0b0b0; stroke-width: 0.8"/>
     </g>
     <g id="line2d_81">
      <g>
       <use xlink:href="#m4bb4aff4c6" x="50.365625" y="259.110364" style="stroke: #000000; stroke-width: 0.8"/>
      </g>
     </g>
     <g id="text_24">
      <!-- 0.02 -->
      <g transform="translate(21.1 262.909583) scale(0.1 -0.1)">
       <use xlink:href="#DejaVuSerif-30"/>
       <use xlink:href="#DejaVuSerif-2e" x="63.623047"/>
       <use xlink:href="#DejaVuSerif-30" x="95.410156"/>
       <use xlink:href="#DejaVuSerif-32" x="159.033203"/>
      </g>
     </g>
    </g>
    <g id="ytick_9">
     <g id="line2d_82">
      <path d="M 50.365625 238.885531 
L 407.485625 238.885531 
" clip-path="url(#pf84c9de88a)" style="fill: none; stroke-dasharray: 2.96,1.28; stroke-dashoffset: 0; stroke: #b0b0b0; stroke-width: 0.8"/>
     </g>
     <g id="line2d_83">
      <g>
       <use xlink:href="#m4bb4aff4c6" x="50.365625" y="238.885531" style="stroke: #000000; stroke-width: 0.8"/>
      </g>
     </g>
     <g id="text_25">
      <!-- 0.04 -->
      <g transform="translate(21.1 242.68475) scale(0.1 -0.1)">
       <use xlink:href="#DejaVuSerif-30"/>
       <use xlink:href="#DejaVuSerif-2e" x="63.623047"/>
       <use xlink:href="#DejaVuSerif-30" x="95.410156"/>
       <use xlink:href="#DejaVuSerif-34" x="159.033203"/>
      </g>
     </g>
    </g>
    <g id="ytick_10">
     <g id="line2d_84">
      <path d="M 50.365625 218.660698 
L 407.485625 218.660698 
" clip-path="url(#pf84c9de88a)" style="fill: none; stroke-dasharray: 2.96,1.28; stroke-dashoffset: 0; stroke: #b0b0b0; stroke-width: 0.8"/>
     </g>
     <g id="line2d_85">
      <g>
       <use xlink:href="#m4bb4aff4c6" x="50.365625" y="218.660698" style="stroke: #000000; stroke-width: 0.8"/>
      </g>
     </g>
     <g id="text_26">
      <!-- 0.06 -->
      <g transform="translate(21.1 222.459917) scale(0.1 -0.1)">
       <use xlink:href="#DejaVuSerif-30"/>
       <use xlink:href="#DejaVuSerif-2e" x="63.623047"/>
       <use xlink:href="#DejaVuSerif-30" x="95.410156"/>
       <use xlink:href="#DejaVuSerif-36" x="159.033203"/>
      </g>
     </g>
    </g>
    <g id="ytick_11">
     <g id="line2d_86">
      <path d="M 50.365625 198.435865 
L 407.485625 198.435865 
" clip-path="url(#pf84c9de88a)" style="fill: none; stroke-dasharray: 2.96,1.28; stroke-dashoffset: 0; stroke: #b0b0b0; stroke-width: 0.8"/>
     </g>
     <g id="line2d_87">
      <g>
       <use xlink:href="#m4bb4aff4c6" x="50.365625" y="198.435865" style="stroke: #000000; stroke-width: 0.8"/>
      </g>
     </g>
     <g id="text_27">
      <!-- 0.08 -->
      <g transform="translate(21.1 202.235084) scale(0.1 -0.1)">
       <use xlink:href="#DejaVuSerif-30"/>
       <use xlink:href="#DejaVuSerif-2e" x="63.623047"/>
       <use xlink:href="#DejaVuSerif-30" x="95.410156"/>
       <use xlink:href="#DejaVuSerif-38" x="159.033203"/>
      </g>
     </g>
    </g>
    <g id="ytick_12">
     <g id="line2d_88">
      <path d="M 50.365625 178.211032 
L 407.485625 178.211032 
" clip-path="url(#pf84c9de88a)" style="fill: none; stroke-dasharray: 2.96,1.28; stroke-dashoffset: 0; stroke: #b0b0b0; stroke-width: 0.8"/>
     </g>
     <g id="line2d_89">
      <g>
       <use xlink:href="#m4bb4aff4c6" x="50.365625" y="178.211032" style="stroke: #000000; stroke-width: 0.8"/>
      </g>
     </g>
     <g id="text_28">
      <!-- 0.10 -->
      <g transform="translate(21.1 182.010251) scale(0.1 -0.1)">
       <use xlink:href="#DejaVuSerif-30"/>
       <use xlink:href="#DejaVuSerif-2e" x="63.623047"/>
       <use xlink:href="#DejaVuSerif-31" x="95.410156"/>
       <use xlink:href="#DejaVuSerif-30" x="159.033203"/>
      </g>
     </g>
    </g>
    <g id="text_29">
     <!-- $\Delta\log P_t$ -->
     <g transform="translate(14.8 245.100125) rotate(-90) scale(0.1 -0.1)">
      <defs>
       <path id="DejaVuSerif-394" d="M 4350 0 
L 244 0 
L 2034 4666 
L 2559 4666 
L 4350 0 
z
M 3506 331 
L 2138 3909 
L 763 331 
L 3506 331 
z
" transform="scale(0.015625)"/>
       <path id="DejaVuSerif-6c" d="M 1313 331 
L 1856 331 
L 1856 0 
L 184 0 
L 184 331 
L 738 331 
L 738 4531 
L 184 4531 
L 184 4863 
L 1313 4863 
L 1313 331 
z
" transform="scale(0.015625)"/>
       <path id="DejaVuSerif-Italic-50" d="M 1594 2375 
L 2419 2375 
Q 2884 2375 3176 2626 
Q 3469 2878 3559 3353 
Q 3653 3831 3458 4081 
Q 3263 4331 2797 4331 
L 1972 4331 
L 1594 2375 
z
M -97 0 
L -34 331 
L 559 331 
L 1338 4331 
L 744 4331 
L 809 4666 
L 3016 4666 
Q 3716 4666 4056 4311 
Q 4397 3956 4278 3353 
Q 4163 2753 3684 2397 
Q 3206 2041 2506 2041 
L 1528 2041 
L 1194 331 
L 1916 331 
L 1853 0 
L -97 0 
z
" transform="scale(0.015625)"/>
      </defs>
      <use xlink:href="#DejaVuSerif-394" transform="translate(0 0.015625)"/>
      <use xlink:href="#DejaVuSerif-6c" transform="translate(72.216797 0.015625)"/>
      <use xlink:href="#DejaVuSerif-6f" transform="translate(104.199219 0.015625)"/>
      <use xlink:href="#DejaVuSerif-67" transform="translate(164.404297 0.015625)"/>
      <use xlink:href="#DejaVuSerif-Italic-50" transform="translate(244.222321 0.015625)"/>
      <use xlink:href="#DejaVuSerif-Italic-74" transform="translate(311.507478 -15.55625) scale(0.7)"/>
     </g>
    </g>
   </g>
   <g id="line2d_90">
    <path d="M 50.365625 239.144099 
L 52.934834 238.864143 
L 55.504042 239.067104 
L 58.073251 211.27794 
L 60.64246 199.191795 
L 63.211668 195.833184 
L 65.780877 199.198467 
L 68.350085 211.237323 
L 70.919294 218.151845 
L 73.488503 223.906804 
L 76.057711 231.400383 
L 78.62692 229.40083 
L 81.196129 235.539542 
L 83.765337 247.664693 
L 86.334546 258.176664 
L 88.903754 262.582234 
L 91.472963 263.324314 
L 94.042172 263.787118 
L 96.61138 263.205908 
L 99.180589 260.568891 
L 101.749798 260.273863 
L 104.319006 260.242815 
L 106.888215 261.43165 
L 109.457424 262.310241 
L 112.026632 262.370412 
L 114.595841 260.396334 
L 119.734258 255.169987 
L 122.303467 253.870023 
L 124.872675 252.87062 
L 127.441884 253.534994 
L 130.011093 255.922536 
L 132.580301 254.947501 
L 135.14951 254.497522 
L 137.718719 258.646843 
L 140.287927 261.413673 
L 142.857136 262.181842 
L 145.426344 264.383541 
L 147.995553 260.547602 
L 150.564762 257.951322 
L 153.13397 260.709006 
L 155.703179 260.71267 
L 158.272388 263.061508 
L 160.841596 261.571736 
L 163.410805 259.859276 
L 165.980013 259.77315 
L 168.549222 258.013399 
L 171.118431 259.358416 
L 173.687639 259.369989 
L 176.256848 260.055694 
L 178.826057 259.985346 
L 181.395265 262.087296 
L 183.964474 263.727573 
L 186.533683 262.534251 
L 189.102891 261.993541 
L 191.6721 258.897604 
L 194.241308 258.440779 
L 196.810517 257.253665 
L 199.379726 259.063558 
L 201.948934 259.27058 
L 204.518143 258.829355 
L 207.087352 258.162273 
L 212.225769 256.453301 
L 214.794978 254.820895 
L 217.364186 255.047166 
L 222.502603 253.2303 
L 225.071812 253.308224 
L 227.641021 253.197591 
L 230.210229 252.075185 
L 232.779438 253.805949 
L 235.348647 253.958883 
L 237.917855 253.396486 
L 240.487064 253.212517 
L 243.056272 253.747104 
L 245.625481 231.041067 
L 248.19469 234.580426 
L 250.763898 243.831554 
L 253.333107 258.369985 
L 255.902316 264.711177 
L 258.471524 261.054406 
L 261.040733 260.268851 
L 263.609942 255.818596 
L 266.17915 249.421578 
L 268.748359 232.536079 
L 271.317567 226.92397 
L 273.886776 223.606739 
L 276.455985 223.99773 
L 279.025193 249.161419 
L 281.594402 247.144498 
L 284.163611 245.756613 
L 286.732819 248.640033 
L 289.302028 249.163775 
L 291.871237 249.545036 
L 294.440445 250.880782 
L 297.009654 250.184152 
L 299.578862 262.021458 
L 302.148071 264.053736 
L 304.71728 266.71593 
L 309.855697 266.548334 
L 312.424906 269.53359 
L 314.994114 269.151128 
L 317.563323 270.601133 
L 320.132531 270.754043 
L 322.70174 272.308296 
L 325.270949 270.230683 
L 327.840157 268.976663 
L 330.409366 265.818193 
L 332.978575 261.687744 
L 335.547783 261.117837 
L 338.116992 259.494169 
L 340.686201 261.224272 
L 343.255409 262.420777 
L 345.824618 262.914339 
L 348.393826 265.990769 
L 350.963035 266.527839 
L 353.532244 268.418515 
L 356.101452 267.717443 
L 358.670661 266.549866 
L 361.23987 266.739447 
L 363.809078 266.123596 
L 366.378287 276.854302 
L 368.947496 276.286198 
L 371.516704 282.931943 
L 374.085913 271.620271 
L 376.655121 259.505551 
L 379.22433 256.832824 
L 381.793539 242.955061 
L 384.362747 215.041099 
L 386.931956 202.761322 
L 389.501165 193.343434 
L 392.070373 209.057028 
L 394.639582 216.358027 
L 397.20879 209.956882 
L 399.777999 217.040629 
L 404.916416 220.318011 
L 407.485625 245.572227 
L 407.485625 245.572227 
" clip-path="url(#pf84c9de88a)" style="fill: none; stroke: #1f77b4; stroke-width: 1.5; stroke-linecap: square"/>
   </g>
   <g id="line2d_91">
    <path d="M 50.365625 227.770531 
L 52.934834 224.554365 
L 55.504042 225.079339 
L 58.073251 216.998052 
L 60.64246 213.829493 
L 63.211668 200.592464 
L 65.780877 210.069963 
L 68.350085 196.70305 
L 70.919294 197.556595 
L 73.488503 212.860682 
L 76.057711 211.212366 
L 78.62692 233.136681 
L 81.196129 244.829698 
L 83.765337 250.068927 
L 86.334546 256.536513 
L 88.903754 253.853744 
L 91.472963 253.813549 
L 94.042172 254.013269 
L 96.61138 252.324781 
L 99.180589 260.636822 
L 101.749798 260.607965 
L 104.319006 263.825052 
L 106.888215 256.087239 
L 109.457424 256.438182 
L 112.026632 253.384931 
L 114.595841 250.505651 
L 117.165049 252.12526 
L 119.734258 253.99694 
L 122.303467 256.97817 
L 124.872675 254.219066 
L 130.011093 263.271815 
L 132.580301 260.351042 
L 135.14951 260.54103 
L 137.718719 263.38697 
L 140.287927 260.674424 
L 145.426344 266.525491 
L 147.995553 263.634588 
L 150.564762 263.809898 
L 153.13397 266.597205 
L 155.703179 268.083435 
L 158.272388 272.278353 
L 160.841596 273.748212 
L 165.980013 268.207254 
L 168.549222 269.537624 
L 171.118431 268.252986 
L 173.687639 264.107451 
L 176.256848 268.328377 
L 178.826057 264.128269 
L 181.395265 265.651069 
L 183.964474 268.402748 
L 186.533683 265.743035 
L 189.102891 265.706397 
L 191.6721 264.493492 
L 194.241308 267.175832 
L 196.810517 264.59185 
L 199.379726 264.552664 
L 201.948934 267.351943 
L 204.518143 264.669603 
L 207.087352 267.430318 
L 209.65656 263.451494 
L 212.225769 260.972328 
L 214.794978 255.786462 
L 217.364186 255.937817 
L 219.933395 259.825107 
L 222.502603 258.749415 
L 225.071812 256.322384 
L 227.641021 255.211528 
L 230.210229 252.638393 
L 232.779438 251.697059 
L 235.348647 260.549982 
L 237.917855 258.228098 
L 240.487064 257.000118 
L 243.056272 250.021793 
L 245.625481 235.625273 
L 248.19469 236.04119 
L 250.763898 249.110543 
L 253.333107 255.540178 
L 255.902316 260.498952 
L 258.471524 264.14584 
L 261.040733 245.370212 
L 263.609942 242.390754 
L 266.17915 249.455429 
L 268.748359 247.374562 
L 271.317567 239.806482 
L 273.886776 234.975381 
L 276.455985 235.023984 
L 279.025193 229.996551 
L 281.594402 243.429355 
L 284.163611 249.401969 
L 286.732819 254.70872 
L 289.302028 252.930521 
L 291.871237 252.958072 
L 294.440445 255.393206 
L 297.009654 251.170897 
L 299.578862 257.675955 
L 302.148071 259.738876 
L 304.71728 260.985551 
L 307.286488 263.008035 
L 309.855697 266.155921 
L 312.424906 276.275462 
L 314.994114 281.357681 
L 317.563323 278.323449 
L 320.132531 280.342912 
L 322.70174 277.300505 
L 325.270949 276.302986 
L 330.409366 270.301713 
L 332.978575 260.207109 
L 335.547783 252.446834 
L 338.116992 253.531753 
L 340.686201 249.793418 
L 343.255409 249.850845 
L 345.824618 255.060348 
L 348.393826 254.17382 
L 350.963035 255.35964 
L 353.532244 261.096837 
L 356.101452 258.444955 
L 358.670661 259.459897 
L 361.23987 264.283881 
L 363.809078 261.419958 
L 366.378287 270.912034 
L 368.947496 268.150844 
L 371.516704 271.892723 
L 374.085913 271.88587 
L 376.655121 264.531761 
L 379.22433 259.146399 
L 381.793539 238.462212 
L 384.362747 226.028299 
L 386.931956 192.264562 
L 389.501165 182.375556 
L 392.070373 172.968307 
L 394.639582 182.873567 
L 397.20879 195.285942 
L 399.777999 212.266978 
L 402.347208 233.896093 
L 404.916416 239.33516 
L 407.485625 255.576248 
L 407.485625 255.576248 
" clip-path="url(#pf84c9de88a)" style="fill: none; stroke: #ff7f0e; stroke-width: 1.5; stroke-linecap: square"/>
   </g>
   <g id="patch_76">
    <path d="M 50.365625 288.430125 
L 50.365625 167.470125 
" style="fill: none; stroke: #000000; stroke-width: 0.8; stroke-linejoin: miter; stroke-linecap: square"/>
   </g>
   <g id="patch_77">
    <path d="M 407.485625 288.430125 
L 407.485625 167.470125 
" style="fill: none; stroke: #000000; stroke-width: 0.8; stroke-linejoin: miter; stroke-linecap: square"/>
   </g>
   <g id="patch_78">
    <path d="M 50.365625 288.430125 
L 407.485625 288.430125 
" style="fill: none; stroke: #000000; stroke-width: 0.8; stroke-linejoin: miter; stroke-linecap: square"/>
   </g>
   <g id="patch_79">
    <path d="M 50.365625 167.470125 
L 407.485625 167.470125 
" style="fill: none; stroke: #000000; stroke-width: 0.8; stroke-linejoin: miter; stroke-linecap: square"/>
   </g>
   <g id="legend_1">
    <g id="patch_80">
     <path d="M 186.773281 204.826375 
L 271.077969 204.826375 
Q 273.077969 204.826375 273.077969 202.826375 
L 273.077969 174.470125 
Q 273.077969 172.470125 271.077969 172.470125 
L 186.773281 172.470125 
Q 184.773281 172.470125 184.773281 174.470125 
L 184.773281 202.826375 
Q 184.773281 204.826375 186.773281 204.826375 
z
" style="fill: #ffffff; opacity: 0.8; stroke: #cccccc; stroke-linejoin: miter"/>
    </g>
    <g id="line2d_92">
     <path d="M 188.773281 180.568562 
L 198.773281 180.568562 
L 208.773281 180.568562 
" style="fill: none; stroke: #1f77b4; stroke-width: 1.5; stroke-linecap: square"/>
    </g>
    <g id="text_30">
     <!-- Prediction -->
     <g transform="translate(216.773281 184.068562) scale(0.1 -0.1)">
      <defs>
       <path id="DejaVuSerif-63" d="M 3291 997 
Q 3169 466 2822 187 
Q 2475 -91 1925 -91 
Q 1200 -91 759 389 
Q 319 869 319 1663 
Q 319 2459 759 2936 
Q 1200 3413 1925 3413 
Q 2241 3413 2553 3339 
Q 2866 3266 3181 3116 
L 3181 2266 
L 2847 2266 
Q 2781 2703 2561 2903 
Q 2341 3103 1931 3103 
Q 1466 3103 1228 2742 
Q 991 2381 991 1663 
Q 991 944 1227 581 
Q 1463 219 1931 219 
Q 2303 219 2525 412 
Q 2747 606 2828 997 
L 3291 997 
z
" transform="scale(0.015625)"/>
      </defs>
      <use xlink:href="#DejaVuSerif-50"/>
      <use xlink:href="#DejaVuSerif-72" x="67.285156"/>
      <use xlink:href="#DejaVuSerif-65" x="115.087891"/>
      <use xlink:href="#DejaVuSerif-64" x="174.267578"/>
      <use xlink:href="#DejaVuSerif-69" x="238.28125"/>
      <use xlink:href="#DejaVuSerif-63" x="270.263672"/>
      <use xlink:href="#DejaVuSerif-74" x="326.269531"/>
      <use xlink:href="#DejaVuSerif-69" x="366.455078"/>
      <use xlink:href="#DejaVuSerif-6f" x="398.4375"/>
      <use xlink:href="#DejaVuSerif-6e" x="458.642578"/>
     </g>
    </g>
    <g id="line2d_93">
     <path d="M 188.773281 195.246687 
L 198.773281 195.246687 
L 208.773281 195.246687 
" style="fill: none; stroke: #ff7f0e; stroke-width: 1.5; stroke-linecap: square"/>
    </g>
    <g id="text_31">
     <!-- Real -->
     <g transform="translate(216.773281 198.746687) scale(0.1 -0.1)">
      <defs>
       <path id="DejaVuSerif-52" d="M 3066 2316 
Q 3284 2256 3442 2114 
Q 3600 1972 3725 1716 
L 4403 331 
L 4972 331 
L 4972 0 
L 3872 0 
L 3144 1484 
Q 2934 1916 2759 2042 
Q 2584 2169 2278 2169 
L 1581 2169 
L 1581 331 
L 2241 331 
L 2241 0 
L 353 0 
L 353 331 
L 947 331 
L 947 4331 
L 353 4331 
L 353 4666 
L 2719 4666 
Q 3400 4666 3770 4341 
Q 4141 4016 4141 3419 
Q 4141 2938 3870 2661 
Q 3600 2384 3066 2316 
z
M 1581 2503 
L 2503 2503 
Q 2975 2503 3200 2726 
Q 3425 2950 3425 3419 
Q 3425 3888 3200 4109 
Q 2975 4331 2503 4331 
L 1581 4331 
L 1581 2503 
z
" transform="scale(0.015625)"/>
       <path id="DejaVuSerif-61" d="M 2547 1044 
L 2547 1747 
L 1806 1747 
Q 1378 1747 1168 1562 
Q 959 1378 959 997 
Q 959 650 1171 447 
Q 1384 244 1747 244 
Q 2106 244 2326 466 
Q 2547 688 2547 1044 
z
M 3122 2075 
L 3122 331 
L 3634 331 
L 3634 0 
L 2547 0 
L 2547 359 
Q 2356 128 2106 18 
Q 1856 -91 1522 -91 
Q 969 -91 644 203 
Q 319 497 319 997 
Q 319 1513 691 1797 
Q 1063 2081 1741 2081 
L 2547 2081 
L 2547 2309 
Q 2547 2688 2317 2895 
Q 2088 3103 1672 3103 
Q 1328 3103 1125 2947 
Q 922 2791 872 2484 
L 575 2484 
L 575 3156 
Q 875 3284 1158 3348 
Q 1441 3413 1709 3413 
Q 2400 3413 2761 3070 
Q 3122 2728 3122 2075 
z
" transform="scale(0.015625)"/>
      </defs>
      <use xlink:href="#DejaVuSerif-52"/>
      <use xlink:href="#DejaVuSerif-65" x="75.292969"/>
      <use xlink:href="#DejaVuSerif-61" x="134.472656"/>
      <use xlink:href="#DejaVuSerif-6c" x="194.091797"/>
     </g>
    </g>
   </g>
  </g>
 </g>
 <defs>
  <clipPath id="p6122fa2f7c">
   <rect x="50.365625" y="22.318125" width="357.12" height="120.96"/>
  </clipPath>
  <clipPath id="pf84c9de88a">
   <rect x="50.365625" y="167.470125" width="357.12" height="120.96"/>
  </clipPath>
 </defs>
</svg>
