<?xml version="1.0" encoding="utf-8" standalone="no"?>
<!DOCTYPE svg PUBLIC "-//W3C//DTD SVG 1.1//EN"
  "http://www.w3.org/Graphics/SVG/1.1/DTD/svg11.dtd">
<svg xmlns:xlink="http://www.w3.org/1999/xlink" width="416.702812pt" height="312.30825pt" viewBox="0 0 416.702812 312.30825" xmlns="http://www.w3.org/2000/svg" version="1.1">
 <metadata>
  <rdf:RDF xmlns:dc="http://purl.org/dc/elements/1.1/" xmlns:cc="http://creativecommons.org/ns#" xmlns:rdf="http://www.w3.org/1999/02/22-rdf-syntax-ns#">
   <cc:Work>
    <dc:type rdf:resource="http://purl.org/dc/dcmitype/StillImage"/>
    <dc:date>2024-11-06T21:51:58.630564</dc:date>
    <dc:format>image/svg+xml</dc:format>
    <dc:creator>
     <cc:Agent>
      <dc:title>Matplotlib v3.9.0, https://matplotlib.org/</dc:title>
     </cc:Agent>
    </dc:creator>
   </cc:Work>
  </rdf:RDF>
 </metadata>
 <defs>
  <style type="text/css">*{stroke-linejoin: round; stroke-linecap: butt}</style>
 </defs>
 <g id="figure_1">
  <g id="patch_1">
   <path d="M 0 312.30825 
L 416.702812 312.30825 
L 416.702812 0 
L 0 0 
z
" style="fill: #ffffff"/>
  </g>
  <g id="axes_1">
   <g id="patch_2">
    <path d="M 52.382813 143.278125 
L 409.502813 143.278125 
L 409.502813 22.318125 
L 52.382813 22.318125 
z
" style="fill: #ffffff"/>
   </g>
   <g id="patch_3">
    <path d="M -520.962188 143.278125 
L -512.592188 143.278125 
L -512.592188 22.318125 
L -520.962188 22.318125 
z
" clip-path="url(#p3a15d67e6e)" style="fill: #d3d3d3"/>
   </g>
   <g id="patch_4">
    <path d="M -502.827187 143.278125 
L -497.247187 143.278125 
L -497.247187 22.318125 
L -502.827187 22.318125 
z
" clip-path="url(#p3a15d67e6e)" style="fill: #d3d3d3"/>
   </g>
   <g id="patch_5">
    <path d="M -477.717187 143.278125 
L -466.557187 143.278125 
L -466.557187 22.318125 
L -477.717187 22.318125 
z
" clip-path="url(#p3a15d67e6e)" style="fill: #d3d3d3"/>
   </g>
   <g id="patch_6">
    <path d="M -454.002188 143.278125 
L -445.632188 143.278125 
L -445.632188 22.318125 
L -454.002188 22.318125 
z
" clip-path="url(#p3a15d67e6e)" style="fill: #d3d3d3"/>
   </g>
   <g id="patch_7">
    <path d="M -430.287188 143.278125 
L -399.597188 143.278125 
L -399.597188 22.318125 
L -430.287188 22.318125 
z
" clip-path="url(#p3a15d67e6e)" style="fill: #d3d3d3"/>
   </g>
   <g id="patch_8">
    <path d="M -382.857188 143.278125 
L -364.722188 143.278125 
L -364.722188 22.318125 
L -382.857188 22.318125 
z
" clip-path="url(#p3a15d67e6e)" style="fill: #d3d3d3"/>
   </g>
   <g id="patch_9">
    <path d="M -353.562187 143.278125 
L -349.377187 143.278125 
L -349.377187 22.318125 
L -353.562187 22.318125 
z
" clip-path="url(#p3a15d67e6e)" style="fill: #d3d3d3"/>
   </g>
   <g id="patch_10">
    <path d="M -335.427188 143.278125 
L -331.242188 143.278125 
L -331.242188 22.318125 
L -335.427188 22.318125 
z
" clip-path="url(#p3a15d67e6e)" style="fill: #d3d3d3"/>
   </g>
   <g id="patch_11">
    <path d="M -321.477188 143.278125 
L -314.502187 143.278125 
L -314.502187 22.318125 
L -321.477188 22.318125 
z
" clip-path="url(#p3a15d67e6e)" style="fill: #d3d3d3"/>
   </g>
   <g id="patch_12">
    <path d="M -306.132187 143.278125 
L -297.762187 143.278125 
L -297.762187 22.318125 
L -306.132187 22.318125 
z
" clip-path="url(#p3a15d67e6e)" style="fill: #d3d3d3"/>
   </g>
   <g id="patch_13">
    <path d="M -285.207187 143.278125 
L -278.232187 143.278125 
L -278.232187 22.318125 
L -285.207187 22.318125 
z
" clip-path="url(#p3a15d67e6e)" style="fill: #d3d3d3"/>
   </g>
   <g id="patch_14">
    <path d="M -267.072187 143.278125 
L -257.307187 143.278125 
L -257.307187 22.318125 
L -267.072187 22.318125 
z
" clip-path="url(#p3a15d67e6e)" style="fill: #d3d3d3"/>
   </g>
   <g id="patch_15">
    <path d="M -241.962187 143.278125 
L -236.382187 143.278125 
L -236.382187 22.318125 
L -241.962187 22.318125 
z
" clip-path="url(#p3a15d67e6e)" style="fill: #d3d3d3"/>
   </g>
   <g id="patch_16">
    <path d="M -226.617188 143.278125 
L -216.852188 143.278125 
L -216.852188 22.318125 
L -226.617188 22.318125 
z
" clip-path="url(#p3a15d67e6e)" style="fill: #d3d3d3"/>
   </g>
   <g id="patch_17">
    <path d="M -209.877187 143.278125 
L -200.112188 143.278125 
L -200.112188 22.318125 
L -209.877187 22.318125 
z
" clip-path="url(#p3a15d67e6e)" style="fill: #d3d3d3"/>
   </g>
   <g id="patch_18">
    <path d="M -179.187187 143.278125 
L -176.397188 143.278125 
L -176.397188 22.318125 
L -179.187187 22.318125 
z
" clip-path="url(#p3a15d67e6e)" style="fill: #d3d3d3"/>
   </g>
   <g id="patch_19">
    <path d="M -170.817187 143.278125 
L -162.447187 143.278125 
L -162.447187 22.318125 
L -170.817187 22.318125 
z
" clip-path="url(#p3a15d67e6e)" style="fill: #d3d3d3"/>
   </g>
   <g id="patch_20">
    <path d="M -152.682187 143.278125 
L -145.707188 143.278125 
L -145.707188 22.318125 
L -152.682187 22.318125 
z
" clip-path="url(#p3a15d67e6e)" style="fill: #d3d3d3"/>
   </g>
   <g id="patch_21">
    <path d="M -134.547187 143.278125 
L -127.572187 143.278125 
L -127.572187 22.318125 
L -134.547187 22.318125 
z
" clip-path="url(#p3a15d67e6e)" style="fill: #d3d3d3"/>
   </g>
   <g id="patch_22">
    <path d="M -117.807187 143.278125 
L -98.277187 143.278125 
L -98.277187 22.318125 
L -117.807187 22.318125 
z
" clip-path="url(#p3a15d67e6e)" style="fill: #d3d3d3"/>
   </g>
   <g id="patch_23">
    <path d="M -74.562187 143.278125 
L -68.982187 143.278125 
L -68.982187 22.318125 
L -74.562187 22.318125 
z
" clip-path="url(#p3a15d67e6e)" style="fill: #d3d3d3"/>
   </g>
   <g id="patch_24">
    <path d="M -31.317187 143.278125 
L -27.132187 143.278125 
L -27.132187 22.318125 
L -31.317187 22.318125 
z
" clip-path="url(#p3a15d67e6e)" style="fill: #d3d3d3"/>
   </g>
   <g id="patch_25">
    <path d="M -10.392187 143.278125 
L -4.812187 143.278125 
L -4.812187 22.318125 
L -10.392187 22.318125 
z
" clip-path="url(#p3a15d67e6e)" style="fill: #d3d3d3"/>
   </g>
   <g id="patch_26">
    <path d="M 14.717813 143.278125 
L 20.297813 143.278125 
L 20.297813 22.318125 
L 14.717813 22.318125 
z
" clip-path="url(#p3a15d67e6e)" style="fill: #d3d3d3"/>
   </g>
   <g id="patch_27">
    <path d="M 38.432813 143.278125 
L 42.617813 143.278125 
L 42.617813 22.318125 
L 38.432813 22.318125 
z
" clip-path="url(#p3a15d67e6e)" style="fill: #d3d3d3"/>
   </g>
   <g id="patch_28">
    <path d="M 53.777813 143.278125 
L 57.962813 143.278125 
L 57.962813 22.318125 
L 53.777813 22.318125 
z
" clip-path="url(#p3a15d67e6e)" style="fill: #d3d3d3"/>
   </g>
   <g id="patch_29">
    <path d="M 106.787813 143.278125 
L 112.367813 143.278125 
L 112.367813 22.318125 
L 106.787813 22.318125 
z
" clip-path="url(#p3a15d67e6e)" style="fill: #d3d3d3"/>
   </g>
   <g id="patch_30">
    <path d="M 129.107813 143.278125 
L 136.082813 143.278125 
L 136.082813 22.318125 
L 129.107813 22.318125 
z
" clip-path="url(#p3a15d67e6e)" style="fill: #d3d3d3"/>
   </g>
   <g id="patch_31">
    <path d="M 163.982813 143.278125 
L 166.772813 143.278125 
L 166.772813 22.318125 
L 163.982813 22.318125 
z
" clip-path="url(#p3a15d67e6e)" style="fill: #d3d3d3"/>
   </g>
   <g id="patch_32">
    <path d="M 172.352813 143.278125 
L 179.327813 143.278125 
L 179.327813 22.318125 
L 172.352813 22.318125 
z
" clip-path="url(#p3a15d67e6e)" style="fill: #d3d3d3"/>
   </g>
   <g id="patch_33">
    <path d="M 222.572812 143.278125 
L 225.362812 143.278125 
L 225.362812 22.318125 
L 222.572812 22.318125 
z
" clip-path="url(#p3a15d67e6e)" style="fill: #d3d3d3"/>
   </g>
   <g id="patch_34">
    <path d="M 281.162812 143.278125 
L 285.347812 143.278125 
L 285.347812 22.318125 
L 281.162812 22.318125 
z
" clip-path="url(#p3a15d67e6e)" style="fill: #d3d3d3"/>
   </g>
   <g id="patch_35">
    <path d="M 318.827813 143.278125 
L 327.197813 143.278125 
L 327.197813 22.318125 
L 318.827813 22.318125 
z
" clip-path="url(#p3a15d67e6e)" style="fill: #d3d3d3"/>
   </g>
   <g id="patch_36">
    <path d="M 385.787813 143.278125 
L 388.577813 143.278125 
L 388.577813 22.318125 
L 385.787813 22.318125 
z
" clip-path="url(#p3a15d67e6e)" style="fill: #d3d3d3"/>
   </g>
   <g id="matplotlib.axis_1">
    <g id="xtick_1">
     <g id="line2d_1">
      <defs>
       <path id="m579980a526" d="M 0 0 
L 0 3.5 
" style="stroke: #000000; stroke-width: 0.8"/>
      </defs>
      <g>
       <use xlink:href="#m579980a526" x="52.382813" y="143.278125" style="stroke: #000000; stroke-width: 0.8"/>
      </g>
     </g>
     <g id="text_1">
      <!-- 1960 -->
      <g transform="translate(39.657813 157.876562) scale(0.1 -0.1)">
       <defs>
        <path id="DejaVuSerif-31" d="M 909 0 
L 909 331 
L 1722 331 
L 1722 4213 
L 781 3603 
L 781 4013 
L 1919 4750 
L 2350 4750 
L 2350 331 
L 3163 331 
L 3163 0 
L 909 0 
z
" transform="scale(0.015625)"/>
        <path id="DejaVuSerif-39" d="M 2994 2091 
Q 2784 1856 2512 1740 
Q 2241 1625 1900 1625 
Q 1206 1625 804 2044 
Q 403 2463 403 3188 
Q 403 3897 839 4323 
Q 1275 4750 2003 4750 
Q 2794 4750 3217 4161 
Q 3641 3572 3641 2478 
Q 3641 1253 3137 581 
Q 2634 -91 1722 -91 
Q 1475 -91 1203 -44 
Q 931 3 647 97 
L 647 872 
L 997 872 
Q 1038 556 1241 387 
Q 1444 219 1784 219 
Q 2391 219 2687 676 
Q 2984 1134 2994 2091 
z
M 1978 4441 
Q 1534 4441 1298 4117 
Q 1063 3794 1063 3188 
Q 1063 2581 1298 2256 
Q 1534 1931 1978 1931 
Q 2422 1931 2658 2245 
Q 2894 2559 2894 3150 
Q 2894 3772 2656 4106 
Q 2419 4441 1978 4441 
z
" transform="scale(0.015625)"/>
        <path id="DejaVuSerif-36" d="M 2094 219 
Q 2534 219 2771 542 
Q 3009 866 3009 1472 
Q 3009 2078 2771 2401 
Q 2534 2725 2094 2725 
Q 1647 2725 1412 2412 
Q 1178 2100 1178 1509 
Q 1178 888 1415 553 
Q 1653 219 2094 219 
z
M 1075 2569 
Q 1288 2803 1556 2918 
Q 1825 3034 2163 3034 
Q 2859 3034 3264 2615 
Q 3669 2197 3669 1472 
Q 3669 763 3233 336 
Q 2797 -91 2069 -91 
Q 1278 -91 853 498 
Q 428 1088 428 2181 
Q 428 3406 931 4078 
Q 1434 4750 2350 4750 
Q 2597 4750 2869 4703 
Q 3141 4656 3425 4563 
L 3425 3794 
L 3072 3794 
Q 3034 4109 2831 4275 
Q 2628 4441 2284 4441 
Q 1678 4441 1381 3981 
Q 1084 3522 1075 2569 
z
" transform="scale(0.015625)"/>
        <path id="DejaVuSerif-30" d="M 2034 219 
Q 2513 219 2750 744 
Q 2988 1269 2988 2328 
Q 2988 3391 2750 3916 
Q 2513 4441 2034 4441 
Q 1556 4441 1318 3916 
Q 1081 3391 1081 2328 
Q 1081 1269 1318 744 
Q 1556 219 2034 219 
z
M 2034 -91 
Q 1275 -91 848 546 
Q 422 1184 422 2328 
Q 422 3475 848 4112 
Q 1275 4750 2034 4750 
Q 2797 4750 3222 4112 
Q 3647 3475 3647 2328 
Q 3647 1184 3222 546 
Q 2797 -91 2034 -91 
z
" transform="scale(0.015625)"/>
       </defs>
       <use xlink:href="#DejaVuSerif-31"/>
       <use xlink:href="#DejaVuSerif-39" x="63.623047"/>
       <use xlink:href="#DejaVuSerif-36" x="127.246094"/>
       <use xlink:href="#DejaVuSerif-30" x="190.869141"/>
      </g>
     </g>
    </g>
    <g id="xtick_2">
     <g id="line2d_2">
      <g>
       <use xlink:href="#m579980a526" x="108.182813" y="143.278125" style="stroke: #000000; stroke-width: 0.8"/>
      </g>
     </g>
     <g id="text_2">
      <!-- 1970 -->
      <g transform="translate(95.457813 157.876562) scale(0.1 -0.1)">
       <defs>
        <path id="DejaVuSerif-37" d="M 3609 4347 
L 1784 0 
L 1319 0 
L 3059 4153 
L 903 4153 
L 903 3578 
L 538 3578 
L 538 4666 
L 3609 4666 
L 3609 4347 
z
" transform="scale(0.015625)"/>
       </defs>
       <use xlink:href="#DejaVuSerif-31"/>
       <use xlink:href="#DejaVuSerif-39" x="63.623047"/>
       <use xlink:href="#DejaVuSerif-37" x="127.246094"/>
       <use xlink:href="#DejaVuSerif-30" x="190.869141"/>
      </g>
     </g>
    </g>
    <g id="xtick_3">
     <g id="line2d_3">
      <g>
       <use xlink:href="#m579980a526" x="163.982813" y="143.278125" style="stroke: #000000; stroke-width: 0.8"/>
      </g>
     </g>
     <g id="text_3">
      <!-- 1980 -->
      <g transform="translate(151.257813 157.876562) scale(0.1 -0.1)">
       <defs>
        <path id="DejaVuSerif-38" d="M 2981 1275 
Q 2981 1775 2732 2051 
Q 2484 2328 2034 2328 
Q 1584 2328 1336 2051 
Q 1088 1775 1088 1275 
Q 1088 772 1336 495 
Q 1584 219 2034 219 
Q 2484 219 2732 495 
Q 2981 772 2981 1275 
z
M 2853 3541 
Q 2853 3966 2637 4203 
Q 2422 4441 2034 4441 
Q 1650 4441 1433 4203 
Q 1216 3966 1216 3541 
Q 1216 3113 1433 2875 
Q 1650 2638 2034 2638 
Q 2422 2638 2637 2875 
Q 2853 3113 2853 3541 
z
M 2516 2484 
Q 3047 2413 3344 2092 
Q 3641 1772 3641 1275 
Q 3641 619 3225 264 
Q 2809 -91 2034 -91 
Q 1263 -91 845 264 
Q 428 619 428 1275 
Q 428 1772 725 2092 
Q 1022 2413 1556 2484 
Q 1084 2569 832 2842 
Q 581 3116 581 3541 
Q 581 4103 968 4426 
Q 1356 4750 2034 4750 
Q 2713 4750 3100 4426 
Q 3488 4103 3488 3541 
Q 3488 3116 3236 2842 
Q 2984 2569 2516 2484 
z
" transform="scale(0.015625)"/>
       </defs>
       <use xlink:href="#DejaVuSerif-31"/>
       <use xlink:href="#DejaVuSerif-39" x="63.623047"/>
       <use xlink:href="#DejaVuSerif-38" x="127.246094"/>
       <use xlink:href="#DejaVuSerif-30" x="190.869141"/>
      </g>
     </g>
    </g>
    <g id="xtick_4">
     <g id="line2d_4">
      <g>
       <use xlink:href="#m579980a526" x="219.782813" y="143.278125" style="stroke: #000000; stroke-width: 0.8"/>
      </g>
     </g>
     <g id="text_4">
      <!-- 1990 -->
      <g transform="translate(207.057813 157.876562) scale(0.1 -0.1)">
       <use xlink:href="#DejaVuSerif-31"/>
       <use xlink:href="#DejaVuSerif-39" x="63.623047"/>
       <use xlink:href="#DejaVuSerif-39" x="127.246094"/>
       <use xlink:href="#DejaVuSerif-30" x="190.869141"/>
      </g>
     </g>
    </g>
    <g id="xtick_5">
     <g id="line2d_5">
      <g>
       <use xlink:href="#m579980a526" x="275.582813" y="143.278125" style="stroke: #000000; stroke-width: 0.8"/>
      </g>
     </g>
     <g id="text_5">
      <!-- 2000 -->
      <g transform="translate(262.857813 157.876562) scale(0.1 -0.1)">
       <defs>
        <path id="DejaVuSerif-32" d="M 819 3553 
L 469 3553 
L 469 4384 
Q 803 4563 1142 4656 
Q 1481 4750 1806 4750 
Q 2534 4750 2956 4397 
Q 3378 4044 3378 3438 
Q 3378 2753 2422 1800 
Q 2347 1728 2309 1691 
L 1131 513 
L 3078 513 
L 3078 1088 
L 3444 1088 
L 3444 0 
L 434 0 
L 434 341 
L 1850 1753 
Q 2319 2222 2519 2614 
Q 2719 3006 2719 3438 
Q 2719 3909 2473 4175 
Q 2228 4441 1797 4441 
Q 1350 4441 1106 4219 
Q 863 3997 819 3553 
z
" transform="scale(0.015625)"/>
       </defs>
       <use xlink:href="#DejaVuSerif-32"/>
       <use xlink:href="#DejaVuSerif-30" x="63.623047"/>
       <use xlink:href="#DejaVuSerif-30" x="127.246094"/>
       <use xlink:href="#DejaVuSerif-30" x="190.869141"/>
      </g>
     </g>
    </g>
    <g id="xtick_6">
     <g id="line2d_6">
      <g>
       <use xlink:href="#m579980a526" x="331.382812" y="143.278125" style="stroke: #000000; stroke-width: 0.8"/>
      </g>
     </g>
     <g id="text_6">
      <!-- 2010 -->
      <g transform="translate(318.657812 157.876562) scale(0.1 -0.1)">
       <use xlink:href="#DejaVuSerif-32"/>
       <use xlink:href="#DejaVuSerif-30" x="63.623047"/>
       <use xlink:href="#DejaVuSerif-31" x="127.246094"/>
       <use xlink:href="#DejaVuSerif-30" x="190.869141"/>
      </g>
     </g>
    </g>
    <g id="xtick_7">
     <g id="line2d_7">
      <g>
       <use xlink:href="#m579980a526" x="387.182813" y="143.278125" style="stroke: #000000; stroke-width: 0.8"/>
      </g>
     </g>
     <g id="text_7">
      <!-- 2020 -->
      <g transform="translate(374.457812 157.876562) scale(0.1 -0.1)">
       <use xlink:href="#DejaVuSerif-32"/>
       <use xlink:href="#DejaVuSerif-30" x="63.623047"/>
       <use xlink:href="#DejaVuSerif-32" x="127.246094"/>
       <use xlink:href="#DejaVuSerif-30" x="190.869141"/>
      </g>
     </g>
    </g>
    <g id="xtick_8">
     <g id="line2d_8">
      <defs>
       <path id="m0ca1a3738b" d="M 0 0 
L 0 2 
" style="stroke: #000000; stroke-width: 0.6"/>
      </defs>
      <g>
       <use xlink:href="#m0ca1a3738b" x="80.282813" y="143.278125" style="stroke: #000000; stroke-width: 0.6"/>
      </g>
     </g>
    </g>
    <g id="xtick_9">
     <g id="line2d_9">
      <g>
       <use xlink:href="#m0ca1a3738b" x="136.082813" y="143.278125" style="stroke: #000000; stroke-width: 0.6"/>
      </g>
     </g>
    </g>
    <g id="xtick_10">
     <g id="line2d_10">
      <g>
       <use xlink:href="#m0ca1a3738b" x="191.882812" y="143.278125" style="stroke: #000000; stroke-width: 0.6"/>
      </g>
     </g>
    </g>
    <g id="xtick_11">
     <g id="line2d_11">
      <g>
       <use xlink:href="#m0ca1a3738b" x="247.682813" y="143.278125" style="stroke: #000000; stroke-width: 0.6"/>
      </g>
     </g>
    </g>
    <g id="xtick_12">
     <g id="line2d_12">
      <g>
       <use xlink:href="#m0ca1a3738b" x="303.482813" y="143.278125" style="stroke: #000000; stroke-width: 0.6"/>
      </g>
     </g>
    </g>
    <g id="xtick_13">
     <g id="line2d_13">
      <g>
       <use xlink:href="#m0ca1a3738b" x="359.282812" y="143.278125" style="stroke: #000000; stroke-width: 0.6"/>
      </g>
     </g>
    </g>
   </g>
   <g id="matplotlib.axis_2">
    <g id="ytick_1">
     <g id="line2d_14">
      <defs>
       <path id="m299c99d600" d="M 0 0 
L -3.5 0 
" style="stroke: #000000; stroke-width: 0.8"/>
      </defs>
      <g>
       <use xlink:href="#m299c99d600" x="52.382813" y="137.779943" style="stroke: #000000; stroke-width: 0.8"/>
      </g>
     </g>
     <g id="text_8">
      <!-- 0.0 -->
      <g transform="translate(29.479688 141.579162) scale(0.1 -0.1)">
       <defs>
        <path id="DejaVuSerif-2e" d="M 603 325 
Q 603 500 722 622 
Q 841 744 1019 744 
Q 1191 744 1312 622 
Q 1434 500 1434 325 
Q 1434 153 1312 31 
Q 1191 -91 1019 -91 
Q 841 -91 722 29 
Q 603 150 603 325 
z
" transform="scale(0.015625)"/>
       </defs>
       <use xlink:href="#DejaVuSerif-30"/>
       <use xlink:href="#DejaVuSerif-2e" x="63.623047"/>
       <use xlink:href="#DejaVuSerif-30" x="95.410156"/>
      </g>
     </g>
    </g>
    <g id="ytick_2">
     <g id="line2d_15">
      <g>
       <use xlink:href="#m299c99d600" x="52.382813" y="115.787216" style="stroke: #000000; stroke-width: 0.8"/>
      </g>
     </g>
     <g id="text_9">
      <!-- 0.2 -->
      <g transform="translate(29.479688 119.586435) scale(0.1 -0.1)">
       <use xlink:href="#DejaVuSerif-30"/>
       <use xlink:href="#DejaVuSerif-2e" x="63.623047"/>
       <use xlink:href="#DejaVuSerif-32" x="95.410156"/>
      </g>
     </g>
    </g>
    <g id="ytick_3">
     <g id="line2d_16">
      <g>
       <use xlink:href="#m299c99d600" x="52.382813" y="93.794489" style="stroke: #000000; stroke-width: 0.8"/>
      </g>
     </g>
     <g id="text_10">
      <!-- 0.4 -->
      <g transform="translate(29.479688 97.593707) scale(0.1 -0.1)">
       <defs>
        <path id="DejaVuSerif-34" d="M 2234 1581 
L 2234 4063 
L 641 1581 
L 2234 1581 
z
M 3609 0 
L 1484 0 
L 1484 331 
L 2234 331 
L 2234 1247 
L 197 1247 
L 197 1588 
L 2241 4750 
L 2859 4750 
L 2859 1581 
L 3750 1581 
L 3750 1247 
L 2859 1247 
L 2859 331 
L 3609 331 
L 3609 0 
z
" transform="scale(0.015625)"/>
       </defs>
       <use xlink:href="#DejaVuSerif-30"/>
       <use xlink:href="#DejaVuSerif-2e" x="63.623047"/>
       <use xlink:href="#DejaVuSerif-34" x="95.410156"/>
      </g>
     </g>
    </g>
    <g id="ytick_4">
     <g id="line2d_17">
      <g>
       <use xlink:href="#m299c99d600" x="52.382813" y="71.801761" style="stroke: #000000; stroke-width: 0.8"/>
      </g>
     </g>
     <g id="text_11">
      <!-- 0.6 -->
      <g transform="translate(29.479688 75.60098) scale(0.1 -0.1)">
       <use xlink:href="#DejaVuSerif-30"/>
       <use xlink:href="#DejaVuSerif-2e" x="63.623047"/>
       <use xlink:href="#DejaVuSerif-36" x="95.410156"/>
      </g>
     </g>
    </g>
    <g id="ytick_5">
     <g id="line2d_18">
      <g>
       <use xlink:href="#m299c99d600" x="52.382813" y="49.809034" style="stroke: #000000; stroke-width: 0.8"/>
      </g>
     </g>
     <g id="text_12">
      <!-- 0.8 -->
      <g transform="translate(29.479688 53.608253) scale(0.1 -0.1)">
       <use xlink:href="#DejaVuSerif-30"/>
       <use xlink:href="#DejaVuSerif-2e" x="63.623047"/>
       <use xlink:href="#DejaVuSerif-38" x="95.410156"/>
      </g>
     </g>
    </g>
    <g id="ytick_6">
     <g id="line2d_19">
      <g>
       <use xlink:href="#m299c99d600" x="52.382813" y="27.816307" style="stroke: #000000; stroke-width: 0.8"/>
      </g>
     </g>
     <g id="text_13">
      <!-- 1.0 -->
      <g transform="translate(29.479688 31.615526) scale(0.1 -0.1)">
       <use xlink:href="#DejaVuSerif-31"/>
       <use xlink:href="#DejaVuSerif-2e" x="63.623047"/>
       <use xlink:href="#DejaVuSerif-30" x="95.410156"/>
      </g>
     </g>
    </g>
    <g id="text_14">
     <!-- Prob. of being in $S_t=1$ -->
     <g transform="translate(23.179688 140.848125) rotate(-90) scale(0.1 -0.1)">
      <defs>
       <path id="DejaVuSerif-50" d="M 1581 2375 
L 2406 2375 
Q 2872 2375 3115 2626 
Q 3359 2878 3359 3353 
Q 3359 3831 3115 4081 
Q 2872 4331 2406 4331 
L 1581 4331 
L 1581 2375 
z
M 353 0 
L 353 331 
L 947 331 
L 947 4331 
L 353 4331 
L 353 4666 
L 2559 4666 
Q 3259 4666 3668 4311 
Q 4078 3956 4078 3353 
Q 4078 2753 3668 2397 
Q 3259 2041 2559 2041 
L 1581 2041 
L 1581 331 
L 2303 331 
L 2303 0 
L 353 0 
z
" transform="scale(0.015625)"/>
       <path id="DejaVuSerif-72" d="M 3059 3328 
L 3059 2497 
L 2728 2497 
Q 2713 2744 2591 2866 
Q 2469 2988 2234 2988 
Q 1809 2988 1582 2694 
Q 1356 2400 1356 1850 
L 1356 331 
L 2022 331 
L 2022 0 
L 263 0 
L 263 331 
L 781 331 
L 781 2994 
L 231 2994 
L 231 3322 
L 1356 3322 
L 1356 2731 
Q 1525 3078 1790 3245 
Q 2056 3413 2438 3413 
Q 2578 3413 2733 3391 
Q 2888 3369 3059 3328 
z
" transform="scale(0.015625)"/>
       <path id="DejaVuSerif-6f" d="M 1925 219 
Q 2388 219 2623 584 
Q 2859 950 2859 1663 
Q 2859 2375 2623 2739 
Q 2388 3103 1925 3103 
Q 1463 3103 1227 2739 
Q 991 2375 991 1663 
Q 991 950 1228 584 
Q 1466 219 1925 219 
z
M 1925 -91 
Q 1200 -91 759 389 
Q 319 869 319 1663 
Q 319 2456 758 2934 
Q 1197 3413 1925 3413 
Q 2653 3413 3092 2934 
Q 3531 2456 3531 1663 
Q 3531 869 3092 389 
Q 2653 -91 1925 -91 
z
" transform="scale(0.015625)"/>
       <path id="DejaVuSerif-62" d="M 738 331 
L 738 4531 
L 184 4531 
L 184 4863 
L 1313 4863 
L 1313 2803 
Q 1481 3116 1742 3264 
Q 2003 3413 2388 3413 
Q 3000 3413 3387 2928 
Q 3775 2444 3775 1663 
Q 3775 881 3387 395 
Q 3000 -91 2388 -91 
Q 2003 -91 1742 57 
Q 1481 206 1313 519 
L 1313 0 
L 184 0 
L 184 331 
L 738 331 
z
M 1313 1497 
Q 1313 897 1542 583 
Q 1772 269 2209 269 
Q 2650 269 2876 622 
Q 3103 975 3103 1663 
Q 3103 2353 2876 2703 
Q 2650 3053 2209 3053 
Q 1772 3053 1542 2737 
Q 1313 2422 1313 1825 
L 1313 1497 
z
" transform="scale(0.015625)"/>
       <path id="DejaVuSerif-20" transform="scale(0.015625)"/>
       <path id="DejaVuSerif-66" d="M 2753 4078 
L 2450 4078 
Q 2447 4313 2317 4434 
Q 2188 4556 1941 4556 
Q 1619 4556 1487 4379 
Q 1356 4203 1356 3750 
L 1356 3322 
L 2284 3322 
L 2284 2988 
L 1356 2988 
L 1356 331 
L 2094 331 
L 2094 0 
L 231 0 
L 231 331 
L 781 331 
L 781 2988 
L 231 2988 
L 231 3322 
L 781 3322 
L 781 3738 
Q 781 4294 1070 4578 
Q 1359 4863 1919 4863 
Q 2128 4863 2337 4825 
Q 2547 4788 2753 4709 
L 2753 4078 
z
" transform="scale(0.015625)"/>
       <path id="DejaVuSerif-65" d="M 3469 1600 
L 991 1600 
L 991 1575 
Q 991 903 1244 561 
Q 1497 219 1991 219 
Q 2369 219 2611 417 
Q 2853 616 2950 1006 
L 3413 1006 
Q 3275 459 2904 184 
Q 2534 -91 1931 -91 
Q 1203 -91 761 389 
Q 319 869 319 1663 
Q 319 2450 753 2931 
Q 1188 3413 1894 3413 
Q 2647 3413 3050 2948 
Q 3453 2484 3469 1600 
z
M 2791 1931 
Q 2772 2513 2545 2808 
Q 2319 3103 1894 3103 
Q 1497 3103 1269 2806 
Q 1041 2509 991 1931 
L 2791 1931 
z
" transform="scale(0.015625)"/>
       <path id="DejaVuSerif-69" d="M 622 4353 
Q 622 4497 726 4603 
Q 831 4709 978 4709 
Q 1122 4709 1226 4603 
Q 1331 4497 1331 4353 
Q 1331 4206 1228 4103 
Q 1125 4000 978 4000 
Q 831 4000 726 4103 
Q 622 4206 622 4353 
z
M 1356 331 
L 1900 331 
L 1900 0 
L 231 0 
L 231 331 
L 781 331 
L 781 2988 
L 231 2988 
L 231 3322 
L 1356 3322 
L 1356 331 
z
" transform="scale(0.015625)"/>
       <path id="DejaVuSerif-6e" d="M 263 0 
L 263 331 
L 781 331 
L 781 2988 
L 231 2988 
L 231 3322 
L 1356 3322 
L 1356 2731 
Q 1516 3069 1770 3241 
Q 2025 3413 2363 3413 
Q 2913 3413 3172 3097 
Q 3431 2781 3431 2113 
L 3431 331 
L 3944 331 
L 3944 0 
L 2356 0 
L 2356 331 
L 2853 331 
L 2853 1931 
Q 2853 2541 2703 2767 
Q 2553 2994 2175 2994 
Q 1775 2994 1565 2701 
Q 1356 2409 1356 1850 
L 1356 331 
L 1856 331 
L 1856 0 
L 263 0 
z
" transform="scale(0.015625)"/>
       <path id="DejaVuSerif-67" d="M 3359 2988 
L 3359 72 
Q 3359 -644 2965 -1033 
Q 2572 -1422 1844 -1422 
Q 1516 -1422 1216 -1362 
Q 916 -1303 641 -1184 
L 641 -488 
L 941 -488 
Q 997 -813 1206 -963 
Q 1416 -1113 1806 -1113 
Q 2313 -1113 2548 -827 
Q 2784 -541 2784 72 
L 2784 519 
Q 2616 206 2355 57 
Q 2094 -91 1709 -91 
Q 1097 -91 708 395 
Q 319 881 319 1663 
Q 319 2444 706 2928 
Q 1094 3413 1709 3413 
Q 2094 3413 2355 3264 
Q 2616 3116 2784 2803 
L 2784 3322 
L 3909 3322 
L 3909 2988 
L 3359 2988 
z
M 2784 1825 
Q 2784 2422 2554 2737 
Q 2325 3053 1888 3053 
Q 1444 3053 1217 2703 
Q 991 2353 991 1663 
Q 991 975 1217 622 
Q 1444 269 1888 269 
Q 2325 269 2554 583 
Q 2784 897 2784 1497 
L 2784 1825 
z
" transform="scale(0.015625)"/>
       <path id="DejaVuSerif-Italic-53" d="M 184 225 
L 391 1288 
L 750 1284 
Q 663 753 905 498 
Q 1147 244 1744 244 
Q 2300 244 2636 464 
Q 2972 684 3053 1106 
Q 3119 1444 2976 1625 
Q 2834 1806 2300 1978 
L 1722 2163 
Q 1091 2366 877 2669 
Q 663 2972 766 3500 
Q 881 4094 1367 4422 
Q 1853 4750 2616 4750 
Q 2941 4750 3314 4679 
Q 3688 4609 4097 4475 
L 3906 3481 
L 3553 3481 
Q 3594 3975 3361 4195 
Q 3128 4416 2563 4416 
Q 2069 4416 1772 4214 
Q 1475 4013 1400 3628 
Q 1334 3294 1490 3103 
Q 1647 2913 2241 2725 
L 2784 2553 
Q 3381 2363 3593 2067 
Q 3806 1772 3709 1275 
Q 3578 597 3076 253 
Q 2575 -91 1716 -91 
Q 1331 -91 948 -12 
Q 566 66 184 225 
z
" transform="scale(0.015625)"/>
       <path id="DejaVuSerif-Italic-74" d="M 856 2988 
L 350 2988 
L 416 3322 
L 922 3322 
L 1122 4353 
L 1700 4353 
L 1500 3322 
L 2581 3322 
L 2516 2988 
L 1434 2988 
L 1025 878 
Q 978 631 978 488 
Q 978 388 1000 338 
Q 1059 219 1278 219 
Q 1503 219 1633 351 
Q 1763 484 1825 781 
L 2259 781 
Q 2147 328 1884 118 
Q 1622 -91 1169 -91 
Q 672 -91 506 131 
Q 406 266 406 516 
Q 406 675 447 878 
L 856 2988 
z
" transform="scale(0.015625)"/>
       <path id="DejaVuSerif-3d" d="M 678 2894 
L 4684 2894 
L 4684 2394 
L 678 2394 
L 678 2894 
z
M 678 1619 
L 4684 1619 
L 4684 1119 
L 678 1119 
L 678 1619 
z
" transform="scale(0.015625)"/>
      </defs>
      <use xlink:href="#DejaVuSerif-50" transform="translate(0 0.015625)"/>
      <use xlink:href="#DejaVuSerif-72" transform="translate(67.285156 0.015625)"/>
      <use xlink:href="#DejaVuSerif-6f" transform="translate(115.087891 0.015625)"/>
      <use xlink:href="#DejaVuSerif-62" transform="translate(175.292969 0.015625)"/>
      <use xlink:href="#DejaVuSerif-2e" transform="translate(239.306641 0.015625)"/>
      <use xlink:href="#DejaVuSerif-20" transform="translate(271.09375 0.015625)"/>
      <use xlink:href="#DejaVuSerif-6f" transform="translate(302.880859 0.015625)"/>
      <use xlink:href="#DejaVuSerif-66" transform="translate(363.085938 0.015625)"/>
      <use xlink:href="#DejaVuSerif-20" transform="translate(400.097656 0.015625)"/>
      <use xlink:href="#DejaVuSerif-62" transform="translate(431.884766 0.015625)"/>
      <use xlink:href="#DejaVuSerif-65" transform="translate(495.898438 0.015625)"/>
      <use xlink:href="#DejaVuSerif-69" transform="translate(555.078125 0.015625)"/>
      <use xlink:href="#DejaVuSerif-6e" transform="translate(587.060547 0.015625)"/>
      <use xlink:href="#DejaVuSerif-67" transform="translate(651.464844 0.015625)"/>
      <use xlink:href="#DejaVuSerif-20" transform="translate(715.478516 0.015625)"/>
      <use xlink:href="#DejaVuSerif-69" transform="translate(747.265625 0.015625)"/>
      <use xlink:href="#DejaVuSerif-6e" transform="translate(779.248047 0.015625)"/>
      <use xlink:href="#DejaVuSerif-20" transform="translate(843.652344 0.015625)"/>
      <use xlink:href="#DejaVuSerif-Italic-53" transform="translate(875.439453 0.015625)"/>
      <use xlink:href="#DejaVuSerif-Italic-74" transform="translate(943.945312 -15.55625) scale(0.7)"/>
      <use xlink:href="#DejaVuSerif-3d" transform="translate(993.635352 0.015625)"/>
      <use xlink:href="#DejaVuSerif-31" transform="translate(1096.389258 0.015625)"/>
     </g>
    </g>
   </g>
   <g id="line2d_20">
    <path d="M 52.382813 137.779379 
L 112.367813 137.757983 
L 113.762813 137.369352 
L 115.157813 132.582109 
L 116.552813 130.994359 
L 117.947813 134.055941 
L 119.342813 135.702021 
L 120.737813 137.527406 
L 122.132813 137.729272 
L 126.317813 137.769427 
L 173.747813 137.769622 
L 175.142813 137.168786 
L 176.537813 137.283963 
L 177.932813 136.941769 
L 180.722813 137.722373 
L 184.907813 137.779874 
L 264.422813 137.714843 
L 265.817813 137.599428 
L 276.977813 137.769767 
L 278.372813 137.661907 
L 279.767812 136.372547 
L 281.162812 132.854623 
L 283.952813 47.041787 
L 285.347813 38.745589 
L 286.742813 42.082777 
L 289.532812 132.52995 
L 290.927813 137.600749 
L 292.322813 137.751857 
L 307.667813 137.777703 
L 309.062813 137.772851 
L 310.457813 137.565189 
L 311.852813 132.325767 
L 313.247813 112.142088 
L 314.642812 62.170974 
L 316.037812 36.259833 
L 317.432813 29.735852 
L 318.827813 28.028312 
L 320.222813 27.825583 
L 325.802813 27.818118 
L 327.197813 28.058552 
L 328.592813 33.557755 
L 329.987813 135.417025 
L 331.382812 137.779879 
L 384.392812 137.775535 
L 385.787813 137.612927 
L 387.182813 122.322385 
L 388.577812 27.816308 
L 392.762812 27.819491 
L 394.157813 137.775109 
L 409.502813 137.779866 
L 409.502813 137.779866 
" clip-path="url(#p3a15d67e6e)" style="fill: none; stroke: #1f77b4; stroke-width: 1.5; stroke-linecap: square"/>
   </g>
   <g id="patch_37">
    <path d="M 52.382813 143.278125 
L 52.382813 22.318125 
" style="fill: none; stroke: #000000; stroke-width: 0.8; stroke-linejoin: miter; stroke-linecap: square"/>
   </g>
   <g id="patch_38">
    <path d="M 409.502813 143.278125 
L 409.502813 22.318125 
" style="fill: none; stroke: #000000; stroke-width: 0.8; stroke-linejoin: miter; stroke-linecap: square"/>
   </g>
   <g id="patch_39">
    <path d="M 52.382813 143.278125 
L 409.502813 143.278125 
" style="fill: none; stroke: #000000; stroke-width: 0.8; stroke-linejoin: miter; stroke-linecap: square"/>
   </g>
   <g id="patch_40">
    <path d="M 52.382813 22.318125 
L 409.502813 22.318125 
" style="fill: none; stroke: #000000; stroke-width: 0.8; stroke-linejoin: miter; stroke-linecap: square"/>
   </g>
   <g id="text_15">
    <!-- United States -->
    <g transform="translate(189.252187 16.318125) scale(0.12 -0.12)">
     <defs>
      <path id="DejaVuSerif-55" d="M 897 4331 
L 300 4331 
L 300 4666 
L 2125 4666 
L 2125 4331 
L 1528 4331 
L 1528 1919 
Q 1528 1025 1820 672 
Q 2113 319 2828 319 
Q 3544 319 3836 672 
Q 4128 1025 4128 1919 
L 4128 4331 
L 3531 4331 
L 3531 4666 
L 5106 4666 
L 5106 4331 
L 4513 4331 
L 4513 1856 
Q 4513 791 4103 350 
Q 3694 -91 2713 -91 
Q 1731 -91 1314 353 
Q 897 797 897 1856 
L 897 4331 
z
" transform="scale(0.015625)"/>
      <path id="DejaVuSerif-74" d="M 691 2988 
L 184 2988 
L 184 3322 
L 691 3322 
L 691 4353 
L 1269 4353 
L 1269 3322 
L 2350 3322 
L 2350 2988 
L 1269 2988 
L 1269 878 
Q 1269 456 1350 337 
Q 1431 219 1650 219 
Q 1875 219 1978 351 
Q 2081 484 2088 781 
L 2522 781 
Q 2497 328 2275 118 
Q 2053 -91 1600 -91 
Q 1103 -91 897 129 
Q 691 350 691 878 
L 691 2988 
z
" transform="scale(0.015625)"/>
      <path id="DejaVuSerif-64" d="M 3359 331 
L 3909 331 
L 3909 0 
L 2784 0 
L 2784 519 
Q 2616 206 2355 57 
Q 2094 -91 1709 -91 
Q 1097 -91 708 395 
Q 319 881 319 1663 
Q 319 2444 706 2928 
Q 1094 3413 1709 3413 
Q 2094 3413 2355 3264 
Q 2616 3116 2784 2803 
L 2784 4531 
L 2241 4531 
L 2241 4863 
L 3359 4863 
L 3359 331 
z
M 2784 1497 
L 2784 1825 
Q 2784 2422 2554 2737 
Q 2325 3053 1888 3053 
Q 1444 3053 1217 2703 
Q 991 2353 991 1663 
Q 991 975 1217 622 
Q 1444 269 1888 269 
Q 2325 269 2554 583 
Q 2784 897 2784 1497 
z
" transform="scale(0.015625)"/>
      <path id="DejaVuSerif-53" d="M 594 225 
L 594 1288 
L 953 1284 
Q 969 753 1261 498 
Q 1553 244 2150 244 
Q 2706 244 2998 464 
Q 3291 684 3291 1106 
Q 3291 1444 3114 1625 
Q 2938 1806 2369 1978 
L 1753 2163 
Q 1084 2366 811 2669 
Q 538 2972 538 3500 
Q 538 4094 959 4422 
Q 1381 4750 2144 4750 
Q 2469 4750 2856 4679 
Q 3244 4609 3681 4475 
L 3681 3481 
L 3328 3481 
Q 3275 3975 2998 4195 
Q 2722 4416 2156 4416 
Q 1663 4416 1405 4214 
Q 1147 4013 1147 3628 
Q 1147 3294 1340 3103 
Q 1534 2913 2163 2725 
L 2741 2553 
Q 3375 2363 3645 2067 
Q 3916 1772 3916 1275 
Q 3916 597 3481 253 
Q 3047 -91 2188 -91 
Q 1803 -91 1404 -12 
Q 1006 66 594 225 
z
" transform="scale(0.015625)"/>
      <path id="DejaVuSerif-61" d="M 2547 1044 
L 2547 1747 
L 1806 1747 
Q 1378 1747 1168 1562 
Q 959 1378 959 997 
Q 959 650 1171 447 
Q 1384 244 1747 244 
Q 2106 244 2326 466 
Q 2547 688 2547 1044 
z
M 3122 2075 
L 3122 331 
L 3634 331 
L 3634 0 
L 2547 0 
L 2547 359 
Q 2356 128 2106 18 
Q 1856 -91 1522 -91 
Q 969 -91 644 203 
Q 319 497 319 997 
Q 319 1513 691 1797 
Q 1063 2081 1741 2081 
L 2547 2081 
L 2547 2309 
Q 2547 2688 2317 2895 
Q 2088 3103 1672 3103 
Q 1328 3103 1125 2947 
Q 922 2791 872 2484 
L 575 2484 
L 575 3156 
Q 875 3284 1158 3348 
Q 1441 3413 1709 3413 
Q 2400 3413 2761 3070 
Q 3122 2728 3122 2075 
z
" transform="scale(0.015625)"/>
      <path id="DejaVuSerif-73" d="M 359 184 
L 359 959 
L 691 959 
Q 703 588 923 403 
Q 1144 219 1575 219 
Q 1963 219 2166 364 
Q 2369 509 2369 788 
Q 2369 1006 2220 1140 
Q 2072 1275 1594 1428 
L 1178 1569 
Q 750 1706 558 1912 
Q 366 2119 366 2438 
Q 366 2894 700 3153 
Q 1034 3413 1625 3413 
Q 1888 3413 2178 3344 
Q 2469 3275 2778 3144 
L 2778 2419 
L 2447 2419 
Q 2434 2741 2221 2922 
Q 2009 3103 1644 3103 
Q 1281 3103 1095 2975 
Q 909 2847 909 2591 
Q 909 2381 1050 2254 
Q 1191 2128 1613 1997 
L 2069 1856 
Q 2541 1709 2748 1489 
Q 2956 1269 2956 922 
Q 2956 450 2595 179 
Q 2234 -91 1600 -91 
Q 1278 -91 972 -22 
Q 666 47 359 184 
z
" transform="scale(0.015625)"/>
     </defs>
     <use xlink:href="#DejaVuSerif-55"/>
     <use xlink:href="#DejaVuSerif-6e" x="84.277344"/>
     <use xlink:href="#DejaVuSerif-69" x="148.681641"/>
     <use xlink:href="#DejaVuSerif-74" x="180.664062"/>
     <use xlink:href="#DejaVuSerif-65" x="220.849609"/>
     <use xlink:href="#DejaVuSerif-64" x="280.029297"/>
     <use xlink:href="#DejaVuSerif-20" x="344.042969"/>
     <use xlink:href="#DejaVuSerif-53" x="375.830078"/>
     <use xlink:href="#DejaVuSerif-74" x="444.335938"/>
     <use xlink:href="#DejaVuSerif-61" x="484.521484"/>
     <use xlink:href="#DejaVuSerif-74" x="544.140625"/>
     <use xlink:href="#DejaVuSerif-65" x="584.326172"/>
     <use xlink:href="#DejaVuSerif-73" x="643.505859"/>
    </g>
   </g>
  </g>
  <g id="axes_2">
   <g id="patch_41">
    <path d="M 52.382813 288.430125 
L 409.502813 288.430125 
L 409.502813 167.470125 
L 52.382813 167.470125 
z
" style="fill: #ffffff"/>
   </g>
   <g id="patch_42">
    <path d="M -520.962188 288.430125 
L -512.592188 288.430125 
L -512.592188 167.470125 
L -520.962188 167.470125 
z
" clip-path="url(#pebc9c07391)" style="fill: #d3d3d3"/>
   </g>
   <g id="patch_43">
    <path d="M -502.827187 288.430125 
L -497.247187 288.430125 
L -497.247187 167.470125 
L -502.827187 167.470125 
z
" clip-path="url(#pebc9c07391)" style="fill: #d3d3d3"/>
   </g>
   <g id="patch_44">
    <path d="M -477.717187 288.430125 
L -466.557187 288.430125 
L -466.557187 167.470125 
L -477.717187 167.470125 
z
" clip-path="url(#pebc9c07391)" style="fill: #d3d3d3"/>
   </g>
   <g id="patch_45">
    <path d="M -454.002188 288.430125 
L -445.632188 288.430125 
L -445.632188 167.470125 
L -454.002188 167.470125 
z
" clip-path="url(#pebc9c07391)" style="fill: #d3d3d3"/>
   </g>
   <g id="patch_46">
    <path d="M -430.287188 288.430125 
L -399.597188 288.430125 
L -399.597188 167.470125 
L -430.287188 167.470125 
z
" clip-path="url(#pebc9c07391)" style="fill: #d3d3d3"/>
   </g>
   <g id="patch_47">
    <path d="M -382.857188 288.430125 
L -364.722188 288.430125 
L -364.722188 167.470125 
L -382.857188 167.470125 
z
" clip-path="url(#pebc9c07391)" style="fill: #d3d3d3"/>
   </g>
   <g id="patch_48">
    <path d="M -353.562187 288.430125 
L -349.377187 288.430125 
L -349.377187 167.470125 
L -353.562187 167.470125 
z
" clip-path="url(#pebc9c07391)" style="fill: #d3d3d3"/>
   </g>
   <g id="patch_49">
    <path d="M -335.427188 288.430125 
L -331.242188 288.430125 
L -331.242188 167.470125 
L -335.427188 167.470125 
z
" clip-path="url(#pebc9c07391)" style="fill: #d3d3d3"/>
   </g>
   <g id="patch_50">
    <path d="M -321.477188 288.430125 
L -314.502187 288.430125 
L -314.502187 167.470125 
L -321.477188 167.470125 
z
" clip-path="url(#pebc9c07391)" style="fill: #d3d3d3"/>
   </g>
   <g id="patch_51">
    <path d="M -306.132187 288.430125 
L -297.762187 288.430125 
L -297.762187 167.470125 
L -306.132187 167.470125 
z
" clip-path="url(#pebc9c07391)" style="fill: #d3d3d3"/>
   </g>
   <g id="patch_52">
    <path d="M -285.207187 288.430125 
L -278.232187 288.430125 
L -278.232187 167.470125 
L -285.207187 167.470125 
z
" clip-path="url(#pebc9c07391)" style="fill: #d3d3d3"/>
   </g>
   <g id="patch_53">
    <path d="M -267.072187 288.430125 
L -257.307187 288.430125 
L -257.307187 167.470125 
L -267.072187 167.470125 
z
" clip-path="url(#pebc9c07391)" style="fill: #d3d3d3"/>
   </g>
   <g id="patch_54">
    <path d="M -241.962187 288.430125 
L -236.382187 288.430125 
L -236.382187 167.470125 
L -241.962187 167.470125 
z
" clip-path="url(#pebc9c07391)" style="fill: #d3d3d3"/>
   </g>
   <g id="patch_55">
    <path d="M -226.617188 288.430125 
L -216.852188 288.430125 
L -216.852188 167.470125 
L -226.617188 167.470125 
z
" clip-path="url(#pebc9c07391)" style="fill: #d3d3d3"/>
   </g>
   <g id="patch_56">
    <path d="M -209.877187 288.430125 
L -200.112188 288.430125 
L -200.112188 167.470125 
L -209.877187 167.470125 
z
" clip-path="url(#pebc9c07391)" style="fill: #d3d3d3"/>
   </g>
   <g id="patch_57">
    <path d="M -179.187187 288.430125 
L -176.397188 288.430125 
L -176.397188 167.470125 
L -179.187187 167.470125 
z
" clip-path="url(#pebc9c07391)" style="fill: #d3d3d3"/>
   </g>
   <g id="patch_58">
    <path d="M -170.817187 288.430125 
L -162.447187 288.430125 
L -162.447187 167.470125 
L -170.817187 167.470125 
z
" clip-path="url(#pebc9c07391)" style="fill: #d3d3d3"/>
   </g>
   <g id="patch_59">
    <path d="M -152.682187 288.430125 
L -145.707188 288.430125 
L -145.707188 167.470125 
L -152.682187 167.470125 
z
" clip-path="url(#pebc9c07391)" style="fill: #d3d3d3"/>
   </g>
   <g id="patch_60">
    <path d="M -134.547187 288.430125 
L -127.572187 288.430125 
L -127.572187 167.470125 
L -134.547187 167.470125 
z
" clip-path="url(#pebc9c07391)" style="fill: #d3d3d3"/>
   </g>
   <g id="patch_61">
    <path d="M -117.807187 288.430125 
L -98.277187 288.430125 
L -98.277187 167.470125 
L -117.807187 167.470125 
z
" clip-path="url(#pebc9c07391)" style="fill: #d3d3d3"/>
   </g>
   <g id="patch_62">
    <path d="M -74.562187 288.430125 
L -68.982187 288.430125 
L -68.982187 167.470125 
L -74.562187 167.470125 
z
" clip-path="url(#pebc9c07391)" style="fill: #d3d3d3"/>
   </g>
   <g id="patch_63">
    <path d="M -31.317187 288.430125 
L -27.132187 288.430125 
L -27.132187 167.470125 
L -31.317187 167.470125 
z
" clip-path="url(#pebc9c07391)" style="fill: #d3d3d3"/>
   </g>
   <g id="patch_64">
    <path d="M -10.392187 288.430125 
L -4.812187 288.430125 
L -4.812187 167.470125 
L -10.392187 167.470125 
z
" clip-path="url(#pebc9c07391)" style="fill: #d3d3d3"/>
   </g>
   <g id="patch_65">
    <path d="M 14.717813 288.430125 
L 20.297813 288.430125 
L 20.297813 167.470125 
L 14.717813 167.470125 
z
" clip-path="url(#pebc9c07391)" style="fill: #d3d3d3"/>
   </g>
   <g id="patch_66">
    <path d="M 38.432813 288.430125 
L 42.617813 288.430125 
L 42.617813 167.470125 
L 38.432813 167.470125 
z
" clip-path="url(#pebc9c07391)" style="fill: #d3d3d3"/>
   </g>
   <g id="patch_67">
    <path d="M 53.777813 288.430125 
L 57.962813 288.430125 
L 57.962813 167.470125 
L 53.777813 167.470125 
z
" clip-path="url(#pebc9c07391)" style="fill: #d3d3d3"/>
   </g>
   <g id="patch_68">
    <path d="M 106.787813 288.430125 
L 112.367813 288.430125 
L 112.367813 167.470125 
L 106.787813 167.470125 
z
" clip-path="url(#pebc9c07391)" style="fill: #d3d3d3"/>
   </g>
   <g id="patch_69">
    <path d="M 129.107813 288.430125 
L 136.082813 288.430125 
L 136.082813 167.470125 
L 129.107813 167.470125 
z
" clip-path="url(#pebc9c07391)" style="fill: #d3d3d3"/>
   </g>
   <g id="patch_70">
    <path d="M 163.982813 288.430125 
L 166.772813 288.430125 
L 166.772813 167.470125 
L 163.982813 167.470125 
z
" clip-path="url(#pebc9c07391)" style="fill: #d3d3d3"/>
   </g>
   <g id="patch_71">
    <path d="M 172.352813 288.430125 
L 179.327813 288.430125 
L 179.327813 167.470125 
L 172.352813 167.470125 
z
" clip-path="url(#pebc9c07391)" style="fill: #d3d3d3"/>
   </g>
   <g id="patch_72">
    <path d="M 222.572812 288.430125 
L 225.362812 288.430125 
L 225.362812 167.470125 
L 222.572812 167.470125 
z
" clip-path="url(#pebc9c07391)" style="fill: #d3d3d3"/>
   </g>
   <g id="patch_73">
    <path d="M 281.162812 288.430125 
L 285.347812 288.430125 
L 285.347812 167.470125 
L 281.162812 167.470125 
z
" clip-path="url(#pebc9c07391)" style="fill: #d3d3d3"/>
   </g>
   <g id="patch_74">
    <path d="M 318.827813 288.430125 
L 327.197813 288.430125 
L 327.197813 167.470125 
L 318.827813 167.470125 
z
" clip-path="url(#pebc9c07391)" style="fill: #d3d3d3"/>
   </g>
   <g id="patch_75">
    <path d="M 385.787813 288.430125 
L 388.577813 288.430125 
L 388.577813 167.470125 
L 385.787813 167.470125 
z
" clip-path="url(#pebc9c07391)" style="fill: #d3d3d3"/>
   </g>
   <g id="matplotlib.axis_3">
    <g id="xtick_14">
     <g id="line2d_21">
      <g>
       <use xlink:href="#m579980a526" x="52.382813" y="288.430125" style="stroke: #000000; stroke-width: 0.8"/>
      </g>
     </g>
     <g id="text_16">
      <!-- 1960 -->
      <g transform="translate(39.657813 303.028562) scale(0.1 -0.1)">
       <use xlink:href="#DejaVuSerif-31"/>
       <use xlink:href="#DejaVuSerif-39" x="63.623047"/>
       <use xlink:href="#DejaVuSerif-36" x="127.246094"/>
       <use xlink:href="#DejaVuSerif-30" x="190.869141"/>
      </g>
     </g>
    </g>
    <g id="xtick_15">
     <g id="line2d_22">
      <g>
       <use xlink:href="#m579980a526" x="108.182813" y="288.430125" style="stroke: #000000; stroke-width: 0.8"/>
      </g>
     </g>
     <g id="text_17">
      <!-- 1970 -->
      <g transform="translate(95.457813 303.028562) scale(0.1 -0.1)">
       <use xlink:href="#DejaVuSerif-31"/>
       <use xlink:href="#DejaVuSerif-39" x="63.623047"/>
       <use xlink:href="#DejaVuSerif-37" x="127.246094"/>
       <use xlink:href="#DejaVuSerif-30" x="190.869141"/>
      </g>
     </g>
    </g>
    <g id="xtick_16">
     <g id="line2d_23">
      <g>
       <use xlink:href="#m579980a526" x="163.982813" y="288.430125" style="stroke: #000000; stroke-width: 0.8"/>
      </g>
     </g>
     <g id="text_18">
      <!-- 1980 -->
      <g transform="translate(151.257813 303.028562) scale(0.1 -0.1)">
       <use xlink:href="#DejaVuSerif-31"/>
       <use xlink:href="#DejaVuSerif-39" x="63.623047"/>
       <use xlink:href="#DejaVuSerif-38" x="127.246094"/>
       <use xlink:href="#DejaVuSerif-30" x="190.869141"/>
      </g>
     </g>
    </g>
    <g id="xtick_17">
     <g id="line2d_24">
      <g>
       <use xlink:href="#m579980a526" x="219.782813" y="288.430125" style="stroke: #000000; stroke-width: 0.8"/>
      </g>
     </g>
     <g id="text_19">
      <!-- 1990 -->
      <g transform="translate(207.057813 303.028562) scale(0.1 -0.1)">
       <use xlink:href="#DejaVuSerif-31"/>
       <use xlink:href="#DejaVuSerif-39" x="63.623047"/>
       <use xlink:href="#DejaVuSerif-39" x="127.246094"/>
       <use xlink:href="#DejaVuSerif-30" x="190.869141"/>
      </g>
     </g>
    </g>
    <g id="xtick_18">
     <g id="line2d_25">
      <g>
       <use xlink:href="#m579980a526" x="275.582813" y="288.430125" style="stroke: #000000; stroke-width: 0.8"/>
      </g>
     </g>
     <g id="text_20">
      <!-- 2000 -->
      <g transform="translate(262.857813 303.028562) scale(0.1 -0.1)">
       <use xlink:href="#DejaVuSerif-32"/>
       <use xlink:href="#DejaVuSerif-30" x="63.623047"/>
       <use xlink:href="#DejaVuSerif-30" x="127.246094"/>
       <use xlink:href="#DejaVuSerif-30" x="190.869141"/>
      </g>
     </g>
    </g>
    <g id="xtick_19">
     <g id="line2d_26">
      <g>
       <use xlink:href="#m579980a526" x="331.382812" y="288.430125" style="stroke: #000000; stroke-width: 0.8"/>
      </g>
     </g>
     <g id="text_21">
      <!-- 2010 -->
      <g transform="translate(318.657812 303.028562) scale(0.1 -0.1)">
       <use xlink:href="#DejaVuSerif-32"/>
       <use xlink:href="#DejaVuSerif-30" x="63.623047"/>
       <use xlink:href="#DejaVuSerif-31" x="127.246094"/>
       <use xlink:href="#DejaVuSerif-30" x="190.869141"/>
      </g>
     </g>
    </g>
    <g id="xtick_20">
     <g id="line2d_27">
      <g>
       <use xlink:href="#m579980a526" x="387.182813" y="288.430125" style="stroke: #000000; stroke-width: 0.8"/>
      </g>
     </g>
     <g id="text_22">
      <!-- 2020 -->
      <g transform="translate(374.457812 303.028562) scale(0.1 -0.1)">
       <use xlink:href="#DejaVuSerif-32"/>
       <use xlink:href="#DejaVuSerif-30" x="63.623047"/>
       <use xlink:href="#DejaVuSerif-32" x="127.246094"/>
       <use xlink:href="#DejaVuSerif-30" x="190.869141"/>
      </g>
     </g>
    </g>
    <g id="xtick_21">
     <g id="line2d_28">
      <g>
       <use xlink:href="#m0ca1a3738b" x="80.282813" y="288.430125" style="stroke: #000000; stroke-width: 0.6"/>
      </g>
     </g>
    </g>
    <g id="xtick_22">
     <g id="line2d_29">
      <g>
       <use xlink:href="#m0ca1a3738b" x="136.082813" y="288.430125" style="stroke: #000000; stroke-width: 0.6"/>
      </g>
     </g>
    </g>
    <g id="xtick_23">
     <g id="line2d_30">
      <g>
       <use xlink:href="#m0ca1a3738b" x="191.882812" y="288.430125" style="stroke: #000000; stroke-width: 0.6"/>
      </g>
     </g>
    </g>
    <g id="xtick_24">
     <g id="line2d_31">
      <g>
       <use xlink:href="#m0ca1a3738b" x="247.682813" y="288.430125" style="stroke: #000000; stroke-width: 0.6"/>
      </g>
     </g>
    </g>
    <g id="xtick_25">
     <g id="line2d_32">
      <g>
       <use xlink:href="#m0ca1a3738b" x="303.482813" y="288.430125" style="stroke: #000000; stroke-width: 0.6"/>
      </g>
     </g>
    </g>
    <g id="xtick_26">
     <g id="line2d_33">
      <g>
       <use xlink:href="#m0ca1a3738b" x="359.282812" y="288.430125" style="stroke: #000000; stroke-width: 0.6"/>
      </g>
     </g>
    </g>
   </g>
   <g id="matplotlib.axis_4">
    <g id="ytick_7">
     <g id="line2d_34">
      <path d="M 52.382813 266.957328 
L 409.502813 266.957328 
" clip-path="url(#pebc9c07391)" style="fill: none; stroke-dasharray: 2.96,1.28; stroke-dashoffset: 0; stroke: #b0b0b0; stroke-width: 0.8"/>
     </g>
     <g id="line2d_35">
      <g>
       <use xlink:href="#m299c99d600" x="52.382813" y="266.957328" style="stroke: #000000; stroke-width: 0.8"/>
      </g>
     </g>
     <g id="text_23">
      <!-- −0.2 -->
      <g transform="translate(21.1 270.756547) scale(0.1 -0.1)">
       <defs>
        <path id="DejaVuSerif-2212" d="M 678 2259 
L 4684 2259 
L 4684 1753 
L 678 1753 
L 678 2259 
z
" transform="scale(0.015625)"/>
       </defs>
       <use xlink:href="#DejaVuSerif-2212"/>
       <use xlink:href="#DejaVuSerif-30" x="83.789062"/>
       <use xlink:href="#DejaVuSerif-2e" x="147.412109"/>
       <use xlink:href="#DejaVuSerif-32" x="179.199219"/>
      </g>
     </g>
    </g>
    <g id="ytick_8">
     <g id="line2d_36">
      <path d="M 52.382813 235.86305 
L 409.502813 235.86305 
" clip-path="url(#pebc9c07391)" style="fill: none; stroke-dasharray: 2.96,1.28; stroke-dashoffset: 0; stroke: #b0b0b0; stroke-width: 0.8"/>
     </g>
     <g id="line2d_37">
      <g>
       <use xlink:href="#m299c99d600" x="52.382813" y="235.86305" style="stroke: #000000; stroke-width: 0.8"/>
      </g>
     </g>
     <g id="text_24">
      <!-- −0.1 -->
      <g transform="translate(21.1 239.662269) scale(0.1 -0.1)">
       <use xlink:href="#DejaVuSerif-2212"/>
       <use xlink:href="#DejaVuSerif-30" x="83.789062"/>
       <use xlink:href="#DejaVuSerif-2e" x="147.412109"/>
       <use xlink:href="#DejaVuSerif-31" x="179.199219"/>
      </g>
     </g>
    </g>
    <g id="ytick_9">
     <g id="line2d_38">
      <path d="M 52.382813 204.768772 
L 409.502813 204.768772 
" clip-path="url(#pebc9c07391)" style="fill: none; stroke-dasharray: 2.96,1.28; stroke-dashoffset: 0; stroke: #b0b0b0; stroke-width: 0.8"/>
     </g>
     <g id="line2d_39">
      <g>
       <use xlink:href="#m299c99d600" x="52.382813" y="204.768772" style="stroke: #000000; stroke-width: 0.8"/>
      </g>
     </g>
     <g id="text_25">
      <!-- 0.0 -->
      <g transform="translate(29.479688 208.567991) scale(0.1 -0.1)">
       <use xlink:href="#DejaVuSerif-30"/>
       <use xlink:href="#DejaVuSerif-2e" x="63.623047"/>
       <use xlink:href="#DejaVuSerif-30" x="95.410156"/>
      </g>
     </g>
    </g>
    <g id="ytick_10">
     <g id="line2d_40">
      <path d="M 52.382813 173.674494 
L 409.502813 173.674494 
" clip-path="url(#pebc9c07391)" style="fill: none; stroke-dasharray: 2.96,1.28; stroke-dashoffset: 0; stroke: #b0b0b0; stroke-width: 0.8"/>
     </g>
     <g id="line2d_41">
      <g>
       <use xlink:href="#m299c99d600" x="52.382813" y="173.674494" style="stroke: #000000; stroke-width: 0.8"/>
      </g>
     </g>
     <g id="text_26">
      <!-- 0.1 -->
      <g transform="translate(29.479688 177.473712) scale(0.1 -0.1)">
       <use xlink:href="#DejaVuSerif-30"/>
       <use xlink:href="#DejaVuSerif-2e" x="63.623047"/>
       <use xlink:href="#DejaVuSerif-31" x="95.410156"/>
      </g>
     </g>
    </g>
    <g id="text_27">
     <!-- $\Delta\log v_t$ -->
     <g transform="translate(14.8 244.550125) rotate(-90) scale(0.1 -0.1)">
      <defs>
       <path id="DejaVuSerif-394" d="M 4350 0 
L 244 0 
L 2034 4666 
L 2559 4666 
L 4350 0 
z
M 3506 331 
L 2138 3909 
L 763 331 
L 3506 331 
z
" transform="scale(0.015625)"/>
       <path id="DejaVuSerif-6c" d="M 1313 331 
L 1856 331 
L 1856 0 
L 184 0 
L 184 331 
L 738 331 
L 738 4531 
L 184 4531 
L 184 4863 
L 1313 4863 
L 1313 331 
z
" transform="scale(0.015625)"/>
       <path id="DejaVuSerif-Italic-76" d="M 1681 0 
L 1259 0 
L 619 2988 
L 241 2988 
L 303 3322 
L 1163 3322 
L 1725 703 
Q 2084 1016 2325 1413 
Q 2825 2238 3003 2988 
L 2622 2988 
L 2688 3322 
L 3547 3322 
Q 3206 2034 2775 1313 
Q 2400 688 1681 0 
z
" transform="scale(0.015625)"/>
      </defs>
      <use xlink:href="#DejaVuSerif-394" transform="translate(0 0.015625)"/>
      <use xlink:href="#DejaVuSerif-6c" transform="translate(72.216797 0.015625)"/>
      <use xlink:href="#DejaVuSerif-6f" transform="translate(104.199219 0.015625)"/>
      <use xlink:href="#DejaVuSerif-67" transform="translate(164.404297 0.015625)"/>
      <use xlink:href="#DejaVuSerif-Italic-76" transform="translate(244.222321 0.015625)"/>
      <use xlink:href="#DejaVuSerif-Italic-74" transform="translate(300.716462 -15.55625) scale(0.7)"/>
     </g>
    </g>
   </g>
   <g id="line2d_42">
    <path d="M 52.382813 204.209159 
L 53.777813 208.926058 
L 57.962813 208.941807 
L 59.357813 204.240836 
L 70.517813 204.227523 
L 94.232813 204.212761 
L 105.392813 204.208997 
L 106.787813 208.926002 
L 112.367813 208.93282 
L 113.762813 204.336478 
L 115.157813 205.822984 
L 116.552813 206.316003 
L 117.947813 205.365339 
L 120.737813 204.2874 
L 123.527813 204.211874 
L 127.712813 204.212524 
L 129.107813 208.926202 
L 136.082813 208.926057 
L 137.477813 204.209155 
L 162.587813 204.210278 
L 163.982813 208.926047 
L 166.772813 208.926473 
L 168.167813 204.20912 
L 170.957813 204.209173 
L 172.352813 208.926014 
L 173.747813 208.929206 
L 175.142813 209.115774 
L 176.537813 209.08001 
L 177.932813 209.186266 
L 179.327812 209.060446 
L 180.722813 204.22686 
L 191.882812 204.213901 
L 221.177813 204.209003 
L 222.572812 208.926005 
L 225.362813 208.926036 
L 226.757812 204.209215 
L 278.372813 204.245635 
L 279.767812 204.646 
L 281.162812 210.455383 
L 283.952813 237.101481 
L 285.347813 239.677567 
L 286.742813 233.924306 
L 289.532812 205.839181 
L 290.927813 204.264626 
L 295.112813 204.212645 
L 310.457813 204.275668 
L 311.852813 205.902582 
L 313.247813 212.1699 
L 314.642812 227.686637 
L 316.037812 235.732412 
L 317.432813 237.7582 
L 318.827813 243.005433 
L 321.617813 243.070865 
L 327.197813 242.996043 
L 328.592813 236.571445 
L 329.987813 204.942703 
L 331.382812 204.209003 
L 384.392812 204.210352 
L 387.182813 213.725791 
L 388.577812 243.071264 
L 389.972813 238.354246 
L 392.762812 238.353257 
L 394.157813 204.210485 
L 409.502813 204.209007 
L 409.502813 204.209007 
" clip-path="url(#pebc9c07391)" style="fill: none; stroke: #1f77b4; stroke-width: 1.5; stroke-linecap: square"/>
   </g>
   <g id="line2d_43">
    <path d="M 52.382813 197.610266 
L 53.777813 204.351797 
L 55.172813 202.089374 
L 56.567813 211.973997 
L 57.962813 220.547087 
L 59.357813 218.031887 
L 60.752813 215.987266 
L 62.147813 205.641063 
L 63.542813 202.415209 
L 64.937813 206.696409 
L 66.332813 207.751777 
L 67.727813 213.62012 
L 69.122813 217.687993 
L 70.517813 216.147475 
L 71.912813 215.007247 
L 73.307813 212.688611 
L 74.702813 208.842781 
L 76.097813 206.974451 
L 77.492813 208.511469 
L 78.887813 211.521789 
L 80.282813 210.432117 
L 81.677813 209.690464 
L 83.072813 206.500868 
L 84.467813 199.835689 
L 85.862813 198.984217 
L 87.257813 200.361181 
L 88.652813 199.21252 
L 90.047813 197.835714 
L 91.442813 201.410736 
L 92.837813 205.720365 
L 94.232813 211.909989 
L 95.627813 216.185964 
L 97.022813 211.481872 
L 98.417813 201.538075 
L 99.812813 199.30553 
L 101.207813 200.389427 
L 102.602813 202.610936 
L 103.997813 203.14967 
L 105.392813 195.322173 
L 106.787813 189.787367 
L 108.182813 191.330207 
L 109.577813 191.328253 
L 110.972813 201.057487 
L 112.367813 216.149947 
L 113.762813 214.066425 
L 115.157813 223.907983 
L 116.552813 226.110916 
L 117.947813 219.86812 
L 119.342813 221.331545 
L 120.737813 215.036726 
L 122.132813 214.762901 
L 123.527813 210.962967 
L 124.922813 211.412829 
L 127.712813 212.067685 
L 129.107813 208.041415 
L 130.502813 212.242972 
L 131.897813 211.734281 
L 133.292813 207.751811 
L 134.687813 206.317518 
L 136.082813 204.291727 
L 137.477813 202.997861 
L 138.872813 200.545303 
L 140.267813 201.552817 
L 141.662813 196.996905 
L 143.057813 201.693513 
L 145.847813 208.203478 
L 147.242813 212.32576 
L 148.637812 207.104202 
L 150.032813 205.06672 
L 151.427813 206.651802 
L 152.822812 209.280495 
L 154.217813 201.838357 
L 155.612813 201.564581 
L 157.007812 197.331146 
L 158.402813 195.885403 
L 159.797813 205.134471 
L 161.192813 204.413114 
L 162.587813 209.12309 
L 163.982813 203.677047 
L 165.377813 207.82241 
L 166.772813 210.779835 
L 168.167813 202.279452 
L 169.562813 201.570972 
L 170.957813 203.303311 
L 172.352813 199.782655 
L 175.142813 227.146906 
L 176.537813 222.676851 
L 177.932813 227.183701 
L 179.327812 224.333201 
L 180.722813 214.258802 
L 182.117813 211.273906 
L 183.512812 204.324378 
L 184.907813 196.703397 
L 186.302813 195.133403 
L 187.697812 198.169173 
L 189.092813 204.530291 
L 191.882812 213.051381 
L 193.277813 211.127604 
L 194.672813 207.597027 
L 196.067813 207.545104 
L 197.462813 206.375071 
L 198.857813 211.094661 
L 200.252813 215.284531 
L 201.647813 217.284124 
L 203.042813 217.209996 
L 204.437813 210.511793 
L 205.832813 205.98699 
L 207.227813 200.755695 
L 208.622813 198.317867 
L 210.017813 199.983136 
L 211.412813 201.365431 
L 212.807813 199.651582 
L 214.202812 197.568405 
L 215.597813 195.051311 
L 216.992813 194.599096 
L 218.387812 197.695865 
L 219.782813 196.811024 
L 222.572812 196.21371 
L 223.967813 199.358626 
L 225.362813 202.903466 
L 226.757812 203.903403 
L 228.152813 200.634548 
L 229.547813 194.539533 
L 230.942813 191.176704 
L 232.337813 189.048491 
L 235.127813 187.678735 
L 236.522813 186.528013 
L 237.917813 187.933762 
L 239.312813 191.649556 
L 240.707813 191.228739 
L 242.102813 193.125864 
L 243.497813 191.074284 
L 244.892813 190.888096 
L 246.287813 191.804079 
L 247.682813 195.466757 
L 249.077813 201.167792 
L 250.472813 205.765361 
L 251.867813 210.839586 
L 253.262813 209.762113 
L 254.657813 208.194367 
L 256.052813 206.851651 
L 257.447813 206.212696 
L 258.842813 207.846685 
L 260.237813 209.673854 
L 261.632812 209.657136 
L 263.027812 213.494629 
L 264.422813 215.892456 
L 265.817813 219.158362 
L 267.212813 217.883035 
L 268.607813 218.299821 
L 270.002813 216.947901 
L 271.397812 213.72373 
L 272.792813 212.941163 
L 274.187813 206.552787 
L 275.582813 211.577995 
L 276.977813 210.663485 
L 278.372813 213.845806 
L 279.767812 218.499253 
L 281.162812 218.947339 
L 282.557813 226.577016 
L 283.952813 231.349976 
L 285.347813 234.469767 
L 286.742813 229.234316 
L 288.137812 221.657644 
L 289.532812 215.20587 
L 290.927813 211.303452 
L 292.322813 213.287424 
L 293.717813 212.941231 
L 295.112813 212.102853 
L 297.902812 196.732662 
L 299.297813 199.689667 
L 300.692813 199.006571 
L 302.087813 201.202207 
L 303.482813 202.320225 
L 304.877813 200.263082 
L 306.272812 199.966072 
L 307.667813 207.169239 
L 309.062813 208.969481 
L 310.457813 211.901427 
L 311.852813 217.661695 
L 313.247813 219.038215 
L 314.642812 223.774411 
L 316.037812 225.962716 
L 317.432813 225.945509 
L 318.827813 233.369199 
L 320.222813 238.470193 
L 321.617813 242.837607 
L 323.012812 243.108465 
L 324.407812 240.631019 
L 325.802813 243.645107 
L 327.197813 236.127232 
L 328.592813 230.632798 
L 331.382812 189.564844 
L 332.777812 176.646856 
L 334.172813 172.968307 
L 335.567813 180.457302 
L 336.962813 185.413835 
L 338.357813 195.78343 
L 339.752813 201.740217 
L 341.147812 201.581223 
L 342.542813 202.405887 
L 343.937813 201.684142 
L 345.332813 200.323361 
L 346.727813 204.52555 
L 348.122813 207.950246 
L 349.517812 208.393293 
L 350.912812 206.101607 
L 352.307813 203.546609 
L 353.702813 204.738017 
L 355.097813 203.396972 
L 356.492813 203.119672 
L 357.887812 204.733838 
L 359.282812 205.785112 
L 360.677813 207.527606 
L 362.072813 210.40731 
L 363.467813 211.877144 
L 364.862813 209.167151 
L 366.257812 209.761531 
L 367.652813 209.088883 
L 369.047813 204.252626 
L 370.442813 203.0499 
L 371.837813 203.563732 
L 373.232813 202.218627 
L 374.627813 204.282174 
L 376.022813 202.436633 
L 377.417813 199.015357 
L 378.812813 199.695608 
L 380.207812 200.88784 
L 381.602813 204.842789 
L 382.997813 206.032171 
L 384.392812 207.84037 
L 385.787813 212.725612 
L 387.182813 220.978427 
L 388.577812 282.931943 
L 389.972813 275.623281 
L 391.367813 265.643655 
L 392.762812 253.479465 
L 394.157813 191.356857 
L 395.552813 196.2974 
L 396.947812 195.590418 
L 398.342813 197.765007 
L 399.737813 194.573514 
L 401.132812 190.487227 
L 402.527813 187.566529 
L 403.922813 181.108456 
L 405.317813 177.652228 
L 406.712813 180.913104 
L 409.502813 191.571968 
L 409.502813 191.571968 
" clip-path="url(#pebc9c07391)" style="fill: none; stroke: #ff7f0e; stroke-width: 1.5; stroke-linecap: square"/>
   </g>
   <g id="patch_76">
    <path d="M 52.382813 288.430125 
L 52.382813 167.470125 
" style="fill: none; stroke: #000000; stroke-width: 0.8; stroke-linejoin: miter; stroke-linecap: square"/>
   </g>
   <g id="patch_77">
    <path d="M 409.502813 288.430125 
L 409.502813 167.470125 
" style="fill: none; stroke: #000000; stroke-width: 0.8; stroke-linejoin: miter; stroke-linecap: square"/>
   </g>
   <g id="patch_78">
    <path d="M 52.382813 288.430125 
L 409.502813 288.430125 
" style="fill: none; stroke: #000000; stroke-width: 0.8; stroke-linejoin: miter; stroke-linecap: square"/>
   </g>
   <g id="patch_79">
    <path d="M 52.382813 167.470125 
L 409.502813 167.470125 
" style="fill: none; stroke: #000000; stroke-width: 0.8; stroke-linejoin: miter; stroke-linecap: square"/>
   </g>
   <g id="legend_1">
    <g id="patch_80">
     <path d="M 188.790469 283.430125 
L 273.095156 283.430125 
Q 275.095156 283.430125 275.095156 281.430125 
L 275.095156 253.073875 
Q 275.095156 251.073875 273.095156 251.073875 
L 188.790469 251.073875 
Q 186.790469 251.073875 186.790469 253.073875 
L 186.790469 281.430125 
Q 186.790469 283.430125 188.790469 283.430125 
z
" style="fill: #ffffff; opacity: 0.8; stroke: #cccccc; stroke-linejoin: miter"/>
    </g>
    <g id="line2d_44">
     <path d="M 190.790469 259.172312 
L 200.790469 259.172312 
L 210.790469 259.172312 
" style="fill: none; stroke: #1f77b4; stroke-width: 1.5; stroke-linecap: square"/>
    </g>
    <g id="text_28">
     <!-- Prediction -->
     <g transform="translate(218.790469 262.672312) scale(0.1 -0.1)">
      <defs>
       <path id="DejaVuSerif-63" d="M 3291 997 
Q 3169 466 2822 187 
Q 2475 -91 1925 -91 
Q 1200 -91 759 389 
Q 319 869 319 1663 
Q 319 2459 759 2936 
Q 1200 3413 1925 3413 
Q 2241 3413 2553 3339 
Q 2866 3266 3181 3116 
L 3181 2266 
L 2847 2266 
Q 2781 2703 2561 2903 
Q 2341 3103 1931 3103 
Q 1466 3103 1228 2742 
Q 991 2381 991 1663 
Q 991 944 1227 581 
Q 1463 219 1931 219 
Q 2303 219 2525 412 
Q 2747 606 2828 997 
L 3291 997 
z
" transform="scale(0.015625)"/>
      </defs>
      <use xlink:href="#DejaVuSerif-50"/>
      <use xlink:href="#DejaVuSerif-72" x="67.285156"/>
      <use xlink:href="#DejaVuSerif-65" x="115.087891"/>
      <use xlink:href="#DejaVuSerif-64" x="174.267578"/>
      <use xlink:href="#DejaVuSerif-69" x="238.28125"/>
      <use xlink:href="#DejaVuSerif-63" x="270.263672"/>
      <use xlink:href="#DejaVuSerif-74" x="326.269531"/>
      <use xlink:href="#DejaVuSerif-69" x="366.455078"/>
      <use xlink:href="#DejaVuSerif-6f" x="398.4375"/>
      <use xlink:href="#DejaVuSerif-6e" x="458.642578"/>
     </g>
    </g>
    <g id="line2d_45">
     <path d="M 190.790469 273.850437 
L 200.790469 273.850437 
L 210.790469 273.850437 
" style="fill: none; stroke: #ff7f0e; stroke-width: 1.5; stroke-linecap: square"/>
    </g>
    <g id="text_29">
     <!-- Real -->
     <g transform="translate(218.790469 277.350437) scale(0.1 -0.1)">
      <defs>
       <path id="DejaVuSerif-52" d="M 3066 2316 
Q 3284 2256 3442 2114 
Q 3600 1972 3725 1716 
L 4403 331 
L 4972 331 
L 4972 0 
L 3872 0 
L 3144 1484 
Q 2934 1916 2759 2042 
Q 2584 2169 2278 2169 
L 1581 2169 
L 1581 331 
L 2241 331 
L 2241 0 
L 353 0 
L 353 331 
L 947 331 
L 947 4331 
L 353 4331 
L 353 4666 
L 2719 4666 
Q 3400 4666 3770 4341 
Q 4141 4016 4141 3419 
Q 4141 2938 3870 2661 
Q 3600 2384 3066 2316 
z
M 1581 2503 
L 2503 2503 
Q 2975 2503 3200 2726 
Q 3425 2950 3425 3419 
Q 3425 3888 3200 4109 
Q 2975 4331 2503 4331 
L 1581 4331 
L 1581 2503 
z
" transform="scale(0.015625)"/>
      </defs>
      <use xlink:href="#DejaVuSerif-52"/>
      <use xlink:href="#DejaVuSerif-65" x="75.292969"/>
      <use xlink:href="#DejaVuSerif-61" x="134.472656"/>
      <use xlink:href="#DejaVuSerif-6c" x="194.091797"/>
     </g>
    </g>
   </g>
  </g>
 </g>
 <defs>
  <clipPath id="p3a15d67e6e">
   <rect x="52.382813" y="22.318125" width="357.12" height="120.96"/>
  </clipPath>
  <clipPath id="pebc9c07391">
   <rect x="52.382813" y="167.470125" width="357.12" height="120.96"/>
  </clipPath>
 </defs>
</svg>
