<?xml version="1.0" encoding="utf-8" standalone="no"?>
<!DOCTYPE svg PUBLIC "-//W3C//DTD SVG 1.1//EN"
  "http://www.w3.org/Graphics/SVG/1.1/DTD/svg11.dtd">
<svg xmlns:xlink="http://www.w3.org/1999/xlink" width="414.685625pt" height="312.30825pt" viewBox="0 0 414.685625 312.30825" xmlns="http://www.w3.org/2000/svg" version="1.1">
 <metadata>
  <rdf:RDF xmlns:dc="http://purl.org/dc/elements/1.1/" xmlns:cc="http://creativecommons.org/ns#" xmlns:rdf="http://www.w3.org/1999/02/22-rdf-syntax-ns#">
   <cc:Work>
    <dc:type rdf:resource="http://purl.org/dc/dcmitype/StillImage"/>
    <dc:date>2024-11-06T21:51:59.345525</dc:date>
    <dc:format>image/svg+xml</dc:format>
    <dc:creator>
     <cc:Agent>
      <dc:title>Matplotlib v3.9.0, https://matplotlib.org/</dc:title>
     </cc:Agent>
    </dc:creator>
   </cc:Work>
  </rdf:RDF>
 </metadata>
 <defs>
  <style type="text/css">*{stroke-linejoin: round; stroke-linecap: butt}</style>
 </defs>
 <g id="figure_1">
  <g id="patch_1">
   <path d="M 0 312.30825 
L 414.685625 312.30825 
L 414.685625 0 
L 0 0 
z
" style="fill: #ffffff"/>
  </g>
  <g id="axes_1">
   <g id="patch_2">
    <path d="M 50.365625 143.278125 
L 407.485625 143.278125 
L 407.485625 22.318125 
L 50.365625 22.318125 
z
" style="fill: #ffffff"/>
   </g>
   <g id="patch_3">
    <path d="M -530.305871 143.278125 
L -521.869966 143.278125 
L -521.869966 22.318125 
L -530.305871 22.318125 
z
" clip-path="url(#p6ddcac4d64)" style="fill: #d3d3d3"/>
   </g>
   <g id="patch_4">
    <path d="M -512.028076 143.278125 
L -506.404139 143.278125 
L -506.404139 22.318125 
L -512.028076 22.318125 
z
" clip-path="url(#p6ddcac4d64)" style="fill: #d3d3d3"/>
   </g>
   <g id="patch_5">
    <path d="M -486.720359 143.278125 
L -475.472485 143.278125 
L -475.472485 22.318125 
L -486.720359 22.318125 
z
" clip-path="url(#p6ddcac4d64)" style="fill: #d3d3d3"/>
   </g>
   <g id="patch_6">
    <path d="M -462.818627 143.278125 
L -454.382721 143.278125 
L -454.382721 22.318125 
L -462.818627 22.318125 
z
" clip-path="url(#p6ddcac4d64)" style="fill: #d3d3d3"/>
   </g>
   <g id="patch_7">
    <path d="M -438.916895 143.278125 
L -407.985241 143.278125 
L -407.985241 22.318125 
L -438.916895 22.318125 
z
" clip-path="url(#p6ddcac4d64)" style="fill: #d3d3d3"/>
   </g>
   <g id="patch_8">
    <path d="M -391.11343 143.278125 
L -372.835635 143.278125 
L -372.835635 22.318125 
L -391.11343 22.318125 
z
" clip-path="url(#p6ddcac4d64)" style="fill: #d3d3d3"/>
   </g>
   <g id="patch_9">
    <path d="M -361.587761 143.278125 
L -357.369808 143.278125 
L -357.369808 22.318125 
L -361.587761 22.318125 
z
" clip-path="url(#p6ddcac4d64)" style="fill: #d3d3d3"/>
   </g>
   <g id="patch_10">
    <path d="M -343.309966 143.278125 
L -339.092013 143.278125 
L -339.092013 22.318125 
L -343.309966 22.318125 
z
" clip-path="url(#p6ddcac4d64)" style="fill: #d3d3d3"/>
   </g>
   <g id="patch_11">
    <path d="M -329.250123 143.278125 
L -322.220202 143.278125 
L -322.220202 22.318125 
L -329.250123 22.318125 
z
" clip-path="url(#p6ddcac4d64)" style="fill: #d3d3d3"/>
   </g>
   <g id="patch_12">
    <path d="M -313.784296 143.278125 
L -305.348391 143.278125 
L -305.348391 22.318125 
L -313.784296 22.318125 
z
" clip-path="url(#p6ddcac4d64)" style="fill: #d3d3d3"/>
   </g>
   <g id="patch_13">
    <path d="M -292.694532 143.278125 
L -285.664611 143.278125 
L -285.664611 22.318125 
L -292.694532 22.318125 
z
" clip-path="url(#p6ddcac4d64)" style="fill: #d3d3d3"/>
   </g>
   <g id="patch_14">
    <path d="M -274.416737 143.278125 
L -264.574847 143.278125 
L -264.574847 22.318125 
L -274.416737 22.318125 
z
" clip-path="url(#p6ddcac4d64)" style="fill: #d3d3d3"/>
   </g>
   <g id="patch_15">
    <path d="M -249.109021 143.278125 
L -243.485084 143.278125 
L -243.485084 22.318125 
L -249.109021 22.318125 
z
" clip-path="url(#p6ddcac4d64)" style="fill: #d3d3d3"/>
   </g>
   <g id="patch_16">
    <path d="M -233.643194 143.278125 
L -223.801304 143.278125 
L -223.801304 22.318125 
L -233.643194 22.318125 
z
" clip-path="url(#p6ddcac4d64)" style="fill: #d3d3d3"/>
   </g>
   <g id="patch_17">
    <path d="M -216.771383 143.278125 
L -206.929493 143.278125 
L -206.929493 22.318125 
L -216.771383 22.318125 
z
" clip-path="url(#p6ddcac4d64)" style="fill: #d3d3d3"/>
   </g>
   <g id="patch_18">
    <path d="M -185.839729 143.278125 
L -183.027761 143.278125 
L -183.027761 22.318125 
L -185.839729 22.318125 
z
" clip-path="url(#p6ddcac4d64)" style="fill: #d3d3d3"/>
   </g>
   <g id="patch_19">
    <path d="M -177.403824 143.278125 
L -168.967918 143.278125 
L -168.967918 22.318125 
L -177.403824 22.318125 
z
" clip-path="url(#p6ddcac4d64)" style="fill: #d3d3d3"/>
   </g>
   <g id="patch_20">
    <path d="M -159.126029 143.278125 
L -152.096107 143.278125 
L -152.096107 22.318125 
L -159.126029 22.318125 
z
" clip-path="url(#p6ddcac4d64)" style="fill: #d3d3d3"/>
   </g>
   <g id="patch_21">
    <path d="M -140.848233 143.278125 
L -133.818312 143.278125 
L -133.818312 22.318125 
L -140.848233 22.318125 
z
" clip-path="url(#p6ddcac4d64)" style="fill: #d3d3d3"/>
   </g>
   <g id="patch_22">
    <path d="M -123.976422 143.278125 
L -104.292643 143.278125 
L -104.292643 22.318125 
L -123.976422 22.318125 
z
" clip-path="url(#p6ddcac4d64)" style="fill: #d3d3d3"/>
   </g>
   <g id="patch_23">
    <path d="M -80.39091 143.278125 
L -74.766973 143.278125 
L -74.766973 22.318125 
L -80.39091 22.318125 
z
" clip-path="url(#p6ddcac4d64)" style="fill: #d3d3d3"/>
   </g>
   <g id="patch_24">
    <path d="M -36.805399 143.278125 
L -32.587446 143.278125 
L -32.587446 22.318125 
L -36.805399 22.318125 
z
" clip-path="url(#p6ddcac4d64)" style="fill: #d3d3d3"/>
   </g>
   <g id="patch_25">
    <path d="M -15.715635 143.278125 
L -10.091698 143.278125 
L -10.091698 22.318125 
L -15.715635 22.318125 
z
" clip-path="url(#p6ddcac4d64)" style="fill: #d3d3d3"/>
   </g>
   <g id="patch_26">
    <path d="M 9.592082 143.278125 
L 15.216019 143.278125 
L 15.216019 22.318125 
L 9.592082 22.318125 
z
" clip-path="url(#p6ddcac4d64)" style="fill: #d3d3d3"/>
   </g>
   <g id="patch_27">
    <path d="M 33.493814 143.278125 
L 37.711767 143.278125 
L 37.711767 22.318125 
L 33.493814 22.318125 
z
" clip-path="url(#p6ddcac4d64)" style="fill: #d3d3d3"/>
   </g>
   <g id="patch_28">
    <path d="M 48.959641 143.278125 
L 53.177594 143.278125 
L 53.177594 22.318125 
L 48.959641 22.318125 
z
" clip-path="url(#p6ddcac4d64)" style="fill: #d3d3d3"/>
   </g>
   <g id="patch_29">
    <path d="M 102.387042 143.278125 
L 108.010979 143.278125 
L 108.010979 22.318125 
L 102.387042 22.318125 
z
" clip-path="url(#p6ddcac4d64)" style="fill: #d3d3d3"/>
   </g>
   <g id="patch_30">
    <path d="M 124.88279 143.278125 
L 131.912712 143.278125 
L 131.912712 22.318125 
L 124.88279 22.318125 
z
" clip-path="url(#p6ddcac4d64)" style="fill: #d3d3d3"/>
   </g>
   <g id="patch_31">
    <path d="M 160.032397 143.278125 
L 162.844365 143.278125 
L 162.844365 22.318125 
L 160.032397 22.318125 
z
" clip-path="url(#p6ddcac4d64)" style="fill: #d3d3d3"/>
   </g>
   <g id="patch_32">
    <path d="M 168.468302 143.278125 
L 175.498223 143.278125 
L 175.498223 22.318125 
L 168.468302 22.318125 
z
" clip-path="url(#p6ddcac4d64)" style="fill: #d3d3d3"/>
   </g>
   <g id="patch_33">
    <path d="M 219.083735 143.278125 
L 221.895704 143.278125 
L 221.895704 22.318125 
L 219.083735 22.318125 
z
" clip-path="url(#p6ddcac4d64)" style="fill: #d3d3d3"/>
   </g>
   <g id="patch_34">
    <path d="M 278.135074 143.278125 
L 282.353027 143.278125 
L 282.353027 22.318125 
L 278.135074 22.318125 
z
" clip-path="url(#p6ddcac4d64)" style="fill: #d3d3d3"/>
   </g>
   <g id="patch_35">
    <path d="M 316.096649 143.278125 
L 324.532554 143.278125 
L 324.532554 22.318125 
L 316.096649 22.318125 
z
" clip-path="url(#p6ddcac4d64)" style="fill: #d3d3d3"/>
   </g>
   <g id="patch_36">
    <path d="M 383.583893 143.278125 
L 386.395861 143.278125 
L 386.395861 22.318125 
L 383.583893 22.318125 
z
" clip-path="url(#p6ddcac4d64)" style="fill: #d3d3d3"/>
   </g>
   <g id="matplotlib.axis_1">
    <g id="xtick_1">
     <g id="line2d_1">
      <defs>
       <path id="me0f5ff5d94" d="M 0 0 
L 0 3.5 
" style="stroke: #000000; stroke-width: 0.8"/>
      </defs>
      <g>
       <use xlink:href="#me0f5ff5d94" x="103.793027" y="143.278125" style="stroke: #000000; stroke-width: 0.8"/>
      </g>
     </g>
     <g id="text_1">
      <!-- 1970 -->
      <g transform="translate(91.068027 157.876562) scale(0.1 -0.1)">
       <defs>
        <path id="DejaVuSerif-31" d="M 909 0 
L 909 331 
L 1722 331 
L 1722 4213 
L 781 3603 
L 781 4013 
L 1919 4750 
L 2350 4750 
L 2350 331 
L 3163 331 
L 3163 0 
L 909 0 
z
" transform="scale(0.015625)"/>
        <path id="DejaVuSerif-39" d="M 2994 2091 
Q 2784 1856 2512 1740 
Q 2241 1625 1900 1625 
Q 1206 1625 804 2044 
Q 403 2463 403 3188 
Q 403 3897 839 4323 
Q 1275 4750 2003 4750 
Q 2794 4750 3217 4161 
Q 3641 3572 3641 2478 
Q 3641 1253 3137 581 
Q 2634 -91 1722 -91 
Q 1475 -91 1203 -44 
Q 931 3 647 97 
L 647 872 
L 997 872 
Q 1038 556 1241 387 
Q 1444 219 1784 219 
Q 2391 219 2687 676 
Q 2984 1134 2994 2091 
z
M 1978 4441 
Q 1534 4441 1298 4117 
Q 1063 3794 1063 3188 
Q 1063 2581 1298 2256 
Q 1534 1931 1978 1931 
Q 2422 1931 2658 2245 
Q 2894 2559 2894 3150 
Q 2894 3772 2656 4106 
Q 2419 4441 1978 4441 
z
" transform="scale(0.015625)"/>
        <path id="DejaVuSerif-37" d="M 3609 4347 
L 1784 0 
L 1319 0 
L 3059 4153 
L 903 4153 
L 903 3578 
L 538 3578 
L 538 4666 
L 3609 4666 
L 3609 4347 
z
" transform="scale(0.015625)"/>
        <path id="DejaVuSerif-30" d="M 2034 219 
Q 2513 219 2750 744 
Q 2988 1269 2988 2328 
Q 2988 3391 2750 3916 
Q 2513 4441 2034 4441 
Q 1556 4441 1318 3916 
Q 1081 3391 1081 2328 
Q 1081 1269 1318 744 
Q 1556 219 2034 219 
z
M 2034 -91 
Q 1275 -91 848 546 
Q 422 1184 422 2328 
Q 422 3475 848 4112 
Q 1275 4750 2034 4750 
Q 2797 4750 3222 4112 
Q 3647 3475 3647 2328 
Q 3647 1184 3222 546 
Q 2797 -91 2034 -91 
z
" transform="scale(0.015625)"/>
       </defs>
       <use xlink:href="#DejaVuSerif-31"/>
       <use xlink:href="#DejaVuSerif-39" x="63.623047"/>
       <use xlink:href="#DejaVuSerif-37" x="127.246094"/>
       <use xlink:href="#DejaVuSerif-30" x="190.869141"/>
      </g>
     </g>
    </g>
    <g id="xtick_2">
     <g id="line2d_2">
      <g>
       <use xlink:href="#me0f5ff5d94" x="160.032397" y="143.278125" style="stroke: #000000; stroke-width: 0.8"/>
      </g>
     </g>
     <g id="text_2">
      <!-- 1980 -->
      <g transform="translate(147.307397 157.876562) scale(0.1 -0.1)">
       <defs>
        <path id="DejaVuSerif-38" d="M 2981 1275 
Q 2981 1775 2732 2051 
Q 2484 2328 2034 2328 
Q 1584 2328 1336 2051 
Q 1088 1775 1088 1275 
Q 1088 772 1336 495 
Q 1584 219 2034 219 
Q 2484 219 2732 495 
Q 2981 772 2981 1275 
z
M 2853 3541 
Q 2853 3966 2637 4203 
Q 2422 4441 2034 4441 
Q 1650 4441 1433 4203 
Q 1216 3966 1216 3541 
Q 1216 3113 1433 2875 
Q 1650 2638 2034 2638 
Q 2422 2638 2637 2875 
Q 2853 3113 2853 3541 
z
M 2516 2484 
Q 3047 2413 3344 2092 
Q 3641 1772 3641 1275 
Q 3641 619 3225 264 
Q 2809 -91 2034 -91 
Q 1263 -91 845 264 
Q 428 619 428 1275 
Q 428 1772 725 2092 
Q 1022 2413 1556 2484 
Q 1084 2569 832 2842 
Q 581 3116 581 3541 
Q 581 4103 968 4426 
Q 1356 4750 2034 4750 
Q 2713 4750 3100 4426 
Q 3488 4103 3488 3541 
Q 3488 3116 3236 2842 
Q 2984 2569 2516 2484 
z
" transform="scale(0.015625)"/>
       </defs>
       <use xlink:href="#DejaVuSerif-31"/>
       <use xlink:href="#DejaVuSerif-39" x="63.623047"/>
       <use xlink:href="#DejaVuSerif-38" x="127.246094"/>
       <use xlink:href="#DejaVuSerif-30" x="190.869141"/>
      </g>
     </g>
    </g>
    <g id="xtick_3">
     <g id="line2d_3">
      <g>
       <use xlink:href="#me0f5ff5d94" x="216.271767" y="143.278125" style="stroke: #000000; stroke-width: 0.8"/>
      </g>
     </g>
     <g id="text_3">
      <!-- 1990 -->
      <g transform="translate(203.546767 157.876562) scale(0.1 -0.1)">
       <use xlink:href="#DejaVuSerif-31"/>
       <use xlink:href="#DejaVuSerif-39" x="63.623047"/>
       <use xlink:href="#DejaVuSerif-39" x="127.246094"/>
       <use xlink:href="#DejaVuSerif-30" x="190.869141"/>
      </g>
     </g>
    </g>
    <g id="xtick_4">
     <g id="line2d_4">
      <g>
       <use xlink:href="#me0f5ff5d94" x="272.511137" y="143.278125" style="stroke: #000000; stroke-width: 0.8"/>
      </g>
     </g>
     <g id="text_4">
      <!-- 2000 -->
      <g transform="translate(259.786137 157.876562) scale(0.1 -0.1)">
       <defs>
        <path id="DejaVuSerif-32" d="M 819 3553 
L 469 3553 
L 469 4384 
Q 803 4563 1142 4656 
Q 1481 4750 1806 4750 
Q 2534 4750 2956 4397 
Q 3378 4044 3378 3438 
Q 3378 2753 2422 1800 
Q 2347 1728 2309 1691 
L 1131 513 
L 3078 513 
L 3078 1088 
L 3444 1088 
L 3444 0 
L 434 0 
L 434 341 
L 1850 1753 
Q 2319 2222 2519 2614 
Q 2719 3006 2719 3438 
Q 2719 3909 2473 4175 
Q 2228 4441 1797 4441 
Q 1350 4441 1106 4219 
Q 863 3997 819 3553 
z
" transform="scale(0.015625)"/>
       </defs>
       <use xlink:href="#DejaVuSerif-32"/>
       <use xlink:href="#DejaVuSerif-30" x="63.623047"/>
       <use xlink:href="#DejaVuSerif-30" x="127.246094"/>
       <use xlink:href="#DejaVuSerif-30" x="190.869141"/>
      </g>
     </g>
    </g>
    <g id="xtick_5">
     <g id="line2d_5">
      <g>
       <use xlink:href="#me0f5ff5d94" x="328.750507" y="143.278125" style="stroke: #000000; stroke-width: 0.8"/>
      </g>
     </g>
     <g id="text_5">
      <!-- 2010 -->
      <g transform="translate(316.025507 157.876562) scale(0.1 -0.1)">
       <use xlink:href="#DejaVuSerif-32"/>
       <use xlink:href="#DejaVuSerif-30" x="63.623047"/>
       <use xlink:href="#DejaVuSerif-31" x="127.246094"/>
       <use xlink:href="#DejaVuSerif-30" x="190.869141"/>
      </g>
     </g>
    </g>
    <g id="xtick_6">
     <g id="line2d_6">
      <g>
       <use xlink:href="#me0f5ff5d94" x="384.989877" y="143.278125" style="stroke: #000000; stroke-width: 0.8"/>
      </g>
     </g>
     <g id="text_6">
      <!-- 2020 -->
      <g transform="translate(372.264877 157.876562) scale(0.1 -0.1)">
       <use xlink:href="#DejaVuSerif-32"/>
       <use xlink:href="#DejaVuSerif-30" x="63.623047"/>
       <use xlink:href="#DejaVuSerif-32" x="127.246094"/>
       <use xlink:href="#DejaVuSerif-30" x="190.869141"/>
      </g>
     </g>
    </g>
    <g id="xtick_7">
     <g id="line2d_7">
      <defs>
       <path id="ma539020edb" d="M 0 0 
L 0 2 
" style="stroke: #000000; stroke-width: 0.6"/>
      </defs>
      <g>
       <use xlink:href="#ma539020edb" x="75.673342" y="143.278125" style="stroke: #000000; stroke-width: 0.6"/>
      </g>
     </g>
    </g>
    <g id="xtick_8">
     <g id="line2d_8">
      <g>
       <use xlink:href="#ma539020edb" x="131.912712" y="143.278125" style="stroke: #000000; stroke-width: 0.6"/>
      </g>
     </g>
    </g>
    <g id="xtick_9">
     <g id="line2d_9">
      <g>
       <use xlink:href="#ma539020edb" x="188.152082" y="143.278125" style="stroke: #000000; stroke-width: 0.6"/>
      </g>
     </g>
    </g>
    <g id="xtick_10">
     <g id="line2d_10">
      <g>
       <use xlink:href="#ma539020edb" x="244.391452" y="143.278125" style="stroke: #000000; stroke-width: 0.6"/>
      </g>
     </g>
    </g>
    <g id="xtick_11">
     <g id="line2d_11">
      <g>
       <use xlink:href="#ma539020edb" x="300.630822" y="143.278125" style="stroke: #000000; stroke-width: 0.6"/>
      </g>
     </g>
    </g>
    <g id="xtick_12">
     <g id="line2d_12">
      <g>
       <use xlink:href="#ma539020edb" x="356.870192" y="143.278125" style="stroke: #000000; stroke-width: 0.6"/>
      </g>
     </g>
    </g>
   </g>
   <g id="matplotlib.axis_2">
    <g id="ytick_1">
     <g id="line2d_13">
      <defs>
       <path id="m0013c160ca" d="M 0 0 
L -3.5 0 
" style="stroke: #000000; stroke-width: 0.8"/>
      </defs>
      <g>
       <use xlink:href="#m0013c160ca" x="50.365625" y="137.779943" style="stroke: #000000; stroke-width: 0.8"/>
      </g>
     </g>
     <g id="text_7">
      <!-- 0.0 -->
      <g transform="translate(27.4625 141.579162) scale(0.1 -0.1)">
       <defs>
        <path id="DejaVuSerif-2e" d="M 603 325 
Q 603 500 722 622 
Q 841 744 1019 744 
Q 1191 744 1312 622 
Q 1434 500 1434 325 
Q 1434 153 1312 31 
Q 1191 -91 1019 -91 
Q 841 -91 722 29 
Q 603 150 603 325 
z
" transform="scale(0.015625)"/>
       </defs>
       <use xlink:href="#DejaVuSerif-30"/>
       <use xlink:href="#DejaVuSerif-2e" x="63.623047"/>
       <use xlink:href="#DejaVuSerif-30" x="95.410156"/>
      </g>
     </g>
    </g>
    <g id="ytick_2">
     <g id="line2d_14">
      <g>
       <use xlink:href="#m0013c160ca" x="50.365625" y="115.787216" style="stroke: #000000; stroke-width: 0.8"/>
      </g>
     </g>
     <g id="text_8">
      <!-- 0.2 -->
      <g transform="translate(27.4625 119.586435) scale(0.1 -0.1)">
       <use xlink:href="#DejaVuSerif-30"/>
       <use xlink:href="#DejaVuSerif-2e" x="63.623047"/>
       <use xlink:href="#DejaVuSerif-32" x="95.410156"/>
      </g>
     </g>
    </g>
    <g id="ytick_3">
     <g id="line2d_15">
      <g>
       <use xlink:href="#m0013c160ca" x="50.365625" y="93.794489" style="stroke: #000000; stroke-width: 0.8"/>
      </g>
     </g>
     <g id="text_9">
      <!-- 0.4 -->
      <g transform="translate(27.4625 97.593707) scale(0.1 -0.1)">
       <defs>
        <path id="DejaVuSerif-34" d="M 2234 1581 
L 2234 4063 
L 641 1581 
L 2234 1581 
z
M 3609 0 
L 1484 0 
L 1484 331 
L 2234 331 
L 2234 1247 
L 197 1247 
L 197 1588 
L 2241 4750 
L 2859 4750 
L 2859 1581 
L 3750 1581 
L 3750 1247 
L 2859 1247 
L 2859 331 
L 3609 331 
L 3609 0 
z
" transform="scale(0.015625)"/>
       </defs>
       <use xlink:href="#DejaVuSerif-30"/>
       <use xlink:href="#DejaVuSerif-2e" x="63.623047"/>
       <use xlink:href="#DejaVuSerif-34" x="95.410156"/>
      </g>
     </g>
    </g>
    <g id="ytick_4">
     <g id="line2d_16">
      <g>
       <use xlink:href="#m0013c160ca" x="50.365625" y="71.801761" style="stroke: #000000; stroke-width: 0.8"/>
      </g>
     </g>
     <g id="text_10">
      <!-- 0.6 -->
      <g transform="translate(27.4625 75.60098) scale(0.1 -0.1)">
       <defs>
        <path id="DejaVuSerif-36" d="M 2094 219 
Q 2534 219 2771 542 
Q 3009 866 3009 1472 
Q 3009 2078 2771 2401 
Q 2534 2725 2094 2725 
Q 1647 2725 1412 2412 
Q 1178 2100 1178 1509 
Q 1178 888 1415 553 
Q 1653 219 2094 219 
z
M 1075 2569 
Q 1288 2803 1556 2918 
Q 1825 3034 2163 3034 
Q 2859 3034 3264 2615 
Q 3669 2197 3669 1472 
Q 3669 763 3233 336 
Q 2797 -91 2069 -91 
Q 1278 -91 853 498 
Q 428 1088 428 2181 
Q 428 3406 931 4078 
Q 1434 4750 2350 4750 
Q 2597 4750 2869 4703 
Q 3141 4656 3425 4563 
L 3425 3794 
L 3072 3794 
Q 3034 4109 2831 4275 
Q 2628 4441 2284 4441 
Q 1678 4441 1381 3981 
Q 1084 3522 1075 2569 
z
" transform="scale(0.015625)"/>
       </defs>
       <use xlink:href="#DejaVuSerif-30"/>
       <use xlink:href="#DejaVuSerif-2e" x="63.623047"/>
       <use xlink:href="#DejaVuSerif-36" x="95.410156"/>
      </g>
     </g>
    </g>
    <g id="ytick_5">
     <g id="line2d_17">
      <g>
       <use xlink:href="#m0013c160ca" x="50.365625" y="49.809034" style="stroke: #000000; stroke-width: 0.8"/>
      </g>
     </g>
     <g id="text_11">
      <!-- 0.8 -->
      <g transform="translate(27.4625 53.608253) scale(0.1 -0.1)">
       <use xlink:href="#DejaVuSerif-30"/>
       <use xlink:href="#DejaVuSerif-2e" x="63.623047"/>
       <use xlink:href="#DejaVuSerif-38" x="95.410156"/>
      </g>
     </g>
    </g>
    <g id="ytick_6">
     <g id="line2d_18">
      <g>
       <use xlink:href="#m0013c160ca" x="50.365625" y="27.816307" style="stroke: #000000; stroke-width: 0.8"/>
      </g>
     </g>
     <g id="text_12">
      <!-- 1.0 -->
      <g transform="translate(27.4625 31.615526) scale(0.1 -0.1)">
       <use xlink:href="#DejaVuSerif-31"/>
       <use xlink:href="#DejaVuSerif-2e" x="63.623047"/>
       <use xlink:href="#DejaVuSerif-30" x="95.410156"/>
      </g>
     </g>
    </g>
    <g id="text_13">
     <!-- Prob. of being in $S_t=1$ -->
     <g transform="translate(21.1625 140.848125) rotate(-90) scale(0.1 -0.1)">
      <defs>
       <path id="DejaVuSerif-50" d="M 1581 2375 
L 2406 2375 
Q 2872 2375 3115 2626 
Q 3359 2878 3359 3353 
Q 3359 3831 3115 4081 
Q 2872 4331 2406 4331 
L 1581 4331 
L 1581 2375 
z
M 353 0 
L 353 331 
L 947 331 
L 947 4331 
L 353 4331 
L 353 4666 
L 2559 4666 
Q 3259 4666 3668 4311 
Q 4078 3956 4078 3353 
Q 4078 2753 3668 2397 
Q 3259 2041 2559 2041 
L 1581 2041 
L 1581 331 
L 2303 331 
L 2303 0 
L 353 0 
z
" transform="scale(0.015625)"/>
       <path id="DejaVuSerif-72" d="M 3059 3328 
L 3059 2497 
L 2728 2497 
Q 2713 2744 2591 2866 
Q 2469 2988 2234 2988 
Q 1809 2988 1582 2694 
Q 1356 2400 1356 1850 
L 1356 331 
L 2022 331 
L 2022 0 
L 263 0 
L 263 331 
L 781 331 
L 781 2994 
L 231 2994 
L 231 3322 
L 1356 3322 
L 1356 2731 
Q 1525 3078 1790 3245 
Q 2056 3413 2438 3413 
Q 2578 3413 2733 3391 
Q 2888 3369 3059 3328 
z
" transform="scale(0.015625)"/>
       <path id="DejaVuSerif-6f" d="M 1925 219 
Q 2388 219 2623 584 
Q 2859 950 2859 1663 
Q 2859 2375 2623 2739 
Q 2388 3103 1925 3103 
Q 1463 3103 1227 2739 
Q 991 2375 991 1663 
Q 991 950 1228 584 
Q 1466 219 1925 219 
z
M 1925 -91 
Q 1200 -91 759 389 
Q 319 869 319 1663 
Q 319 2456 758 2934 
Q 1197 3413 1925 3413 
Q 2653 3413 3092 2934 
Q 3531 2456 3531 1663 
Q 3531 869 3092 389 
Q 2653 -91 1925 -91 
z
" transform="scale(0.015625)"/>
       <path id="DejaVuSerif-62" d="M 738 331 
L 738 4531 
L 184 4531 
L 184 4863 
L 1313 4863 
L 1313 2803 
Q 1481 3116 1742 3264 
Q 2003 3413 2388 3413 
Q 3000 3413 3387 2928 
Q 3775 2444 3775 1663 
Q 3775 881 3387 395 
Q 3000 -91 2388 -91 
Q 2003 -91 1742 57 
Q 1481 206 1313 519 
L 1313 0 
L 184 0 
L 184 331 
L 738 331 
z
M 1313 1497 
Q 1313 897 1542 583 
Q 1772 269 2209 269 
Q 2650 269 2876 622 
Q 3103 975 3103 1663 
Q 3103 2353 2876 2703 
Q 2650 3053 2209 3053 
Q 1772 3053 1542 2737 
Q 1313 2422 1313 1825 
L 1313 1497 
z
" transform="scale(0.015625)"/>
       <path id="DejaVuSerif-20" transform="scale(0.015625)"/>
       <path id="DejaVuSerif-66" d="M 2753 4078 
L 2450 4078 
Q 2447 4313 2317 4434 
Q 2188 4556 1941 4556 
Q 1619 4556 1487 4379 
Q 1356 4203 1356 3750 
L 1356 3322 
L 2284 3322 
L 2284 2988 
L 1356 2988 
L 1356 331 
L 2094 331 
L 2094 0 
L 231 0 
L 231 331 
L 781 331 
L 781 2988 
L 231 2988 
L 231 3322 
L 781 3322 
L 781 3738 
Q 781 4294 1070 4578 
Q 1359 4863 1919 4863 
Q 2128 4863 2337 4825 
Q 2547 4788 2753 4709 
L 2753 4078 
z
" transform="scale(0.015625)"/>
       <path id="DejaVuSerif-65" d="M 3469 1600 
L 991 1600 
L 991 1575 
Q 991 903 1244 561 
Q 1497 219 1991 219 
Q 2369 219 2611 417 
Q 2853 616 2950 1006 
L 3413 1006 
Q 3275 459 2904 184 
Q 2534 -91 1931 -91 
Q 1203 -91 761 389 
Q 319 869 319 1663 
Q 319 2450 753 2931 
Q 1188 3413 1894 3413 
Q 2647 3413 3050 2948 
Q 3453 2484 3469 1600 
z
M 2791 1931 
Q 2772 2513 2545 2808 
Q 2319 3103 1894 3103 
Q 1497 3103 1269 2806 
Q 1041 2509 991 1931 
L 2791 1931 
z
" transform="scale(0.015625)"/>
       <path id="DejaVuSerif-69" d="M 622 4353 
Q 622 4497 726 4603 
Q 831 4709 978 4709 
Q 1122 4709 1226 4603 
Q 1331 4497 1331 4353 
Q 1331 4206 1228 4103 
Q 1125 4000 978 4000 
Q 831 4000 726 4103 
Q 622 4206 622 4353 
z
M 1356 331 
L 1900 331 
L 1900 0 
L 231 0 
L 231 331 
L 781 331 
L 781 2988 
L 231 2988 
L 231 3322 
L 1356 3322 
L 1356 331 
z
" transform="scale(0.015625)"/>
       <path id="DejaVuSerif-6e" d="M 263 0 
L 263 331 
L 781 331 
L 781 2988 
L 231 2988 
L 231 3322 
L 1356 3322 
L 1356 2731 
Q 1516 3069 1770 3241 
Q 2025 3413 2363 3413 
Q 2913 3413 3172 3097 
Q 3431 2781 3431 2113 
L 3431 331 
L 3944 331 
L 3944 0 
L 2356 0 
L 2356 331 
L 2853 331 
L 2853 1931 
Q 2853 2541 2703 2767 
Q 2553 2994 2175 2994 
Q 1775 2994 1565 2701 
Q 1356 2409 1356 1850 
L 1356 331 
L 1856 331 
L 1856 0 
L 263 0 
z
" transform="scale(0.015625)"/>
       <path id="DejaVuSerif-67" d="M 3359 2988 
L 3359 72 
Q 3359 -644 2965 -1033 
Q 2572 -1422 1844 -1422 
Q 1516 -1422 1216 -1362 
Q 916 -1303 641 -1184 
L 641 -488 
L 941 -488 
Q 997 -813 1206 -963 
Q 1416 -1113 1806 -1113 
Q 2313 -1113 2548 -827 
Q 2784 -541 2784 72 
L 2784 519 
Q 2616 206 2355 57 
Q 2094 -91 1709 -91 
Q 1097 -91 708 395 
Q 319 881 319 1663 
Q 319 2444 706 2928 
Q 1094 3413 1709 3413 
Q 2094 3413 2355 3264 
Q 2616 3116 2784 2803 
L 2784 3322 
L 3909 3322 
L 3909 2988 
L 3359 2988 
z
M 2784 1825 
Q 2784 2422 2554 2737 
Q 2325 3053 1888 3053 
Q 1444 3053 1217 2703 
Q 991 2353 991 1663 
Q 991 975 1217 622 
Q 1444 269 1888 269 
Q 2325 269 2554 583 
Q 2784 897 2784 1497 
L 2784 1825 
z
" transform="scale(0.015625)"/>
       <path id="DejaVuSerif-Italic-53" d="M 184 225 
L 391 1288 
L 750 1284 
Q 663 753 905 498 
Q 1147 244 1744 244 
Q 2300 244 2636 464 
Q 2972 684 3053 1106 
Q 3119 1444 2976 1625 
Q 2834 1806 2300 1978 
L 1722 2163 
Q 1091 2366 877 2669 
Q 663 2972 766 3500 
Q 881 4094 1367 4422 
Q 1853 4750 2616 4750 
Q 2941 4750 3314 4679 
Q 3688 4609 4097 4475 
L 3906 3481 
L 3553 3481 
Q 3594 3975 3361 4195 
Q 3128 4416 2563 4416 
Q 2069 4416 1772 4214 
Q 1475 4013 1400 3628 
Q 1334 3294 1490 3103 
Q 1647 2913 2241 2725 
L 2784 2553 
Q 3381 2363 3593 2067 
Q 3806 1772 3709 1275 
Q 3578 597 3076 253 
Q 2575 -91 1716 -91 
Q 1331 -91 948 -12 
Q 566 66 184 225 
z
" transform="scale(0.015625)"/>
       <path id="DejaVuSerif-Italic-74" d="M 856 2988 
L 350 2988 
L 416 3322 
L 922 3322 
L 1122 4353 
L 1700 4353 
L 1500 3322 
L 2581 3322 
L 2516 2988 
L 1434 2988 
L 1025 878 
Q 978 631 978 488 
Q 978 388 1000 338 
Q 1059 219 1278 219 
Q 1503 219 1633 351 
Q 1763 484 1825 781 
L 2259 781 
Q 2147 328 1884 118 
Q 1622 -91 1169 -91 
Q 672 -91 506 131 
Q 406 266 406 516 
Q 406 675 447 878 
L 856 2988 
z
" transform="scale(0.015625)"/>
       <path id="DejaVuSerif-3d" d="M 678 2894 
L 4684 2894 
L 4684 2394 
L 678 2394 
L 678 2894 
z
M 678 1619 
L 4684 1619 
L 4684 1119 
L 678 1119 
L 678 1619 
z
" transform="scale(0.015625)"/>
      </defs>
      <use xlink:href="#DejaVuSerif-50" transform="translate(0 0.015625)"/>
      <use xlink:href="#DejaVuSerif-72" transform="translate(67.285156 0.015625)"/>
      <use xlink:href="#DejaVuSerif-6f" transform="translate(115.087891 0.015625)"/>
      <use xlink:href="#DejaVuSerif-62" transform="translate(175.292969 0.015625)"/>
      <use xlink:href="#DejaVuSerif-2e" transform="translate(239.306641 0.015625)"/>
      <use xlink:href="#DejaVuSerif-20" transform="translate(271.09375 0.015625)"/>
      <use xlink:href="#DejaVuSerif-6f" transform="translate(302.880859 0.015625)"/>
      <use xlink:href="#DejaVuSerif-66" transform="translate(363.085938 0.015625)"/>
      <use xlink:href="#DejaVuSerif-20" transform="translate(400.097656 0.015625)"/>
      <use xlink:href="#DejaVuSerif-62" transform="translate(431.884766 0.015625)"/>
      <use xlink:href="#DejaVuSerif-65" transform="translate(495.898438 0.015625)"/>
      <use xlink:href="#DejaVuSerif-69" transform="translate(555.078125 0.015625)"/>
      <use xlink:href="#DejaVuSerif-6e" transform="translate(587.060547 0.015625)"/>
      <use xlink:href="#DejaVuSerif-67" transform="translate(651.464844 0.015625)"/>
      <use xlink:href="#DejaVuSerif-20" transform="translate(715.478516 0.015625)"/>
      <use xlink:href="#DejaVuSerif-69" transform="translate(747.265625 0.015625)"/>
      <use xlink:href="#DejaVuSerif-6e" transform="translate(779.248047 0.015625)"/>
      <use xlink:href="#DejaVuSerif-20" transform="translate(843.652344 0.015625)"/>
      <use xlink:href="#DejaVuSerif-Italic-53" transform="translate(875.439453 0.015625)"/>
      <use xlink:href="#DejaVuSerif-Italic-74" transform="translate(943.945312 -15.55625) scale(0.7)"/>
      <use xlink:href="#DejaVuSerif-3d" transform="translate(993.635352 0.015625)"/>
      <use xlink:href="#DejaVuSerif-31" transform="translate(1096.389258 0.015625)"/>
     </g>
    </g>
   </g>
   <g id="line2d_19">
    <path d="M 50.365625 137.778526 
L 99.575074 137.762892 
L 100.981058 137.699557 
L 102.387042 131.842765 
L 103.793027 36.557952 
L 105.199011 28.405479 
L 106.604995 27.973226 
L 108.010979 29.456595 
L 109.416964 63.871161 
L 110.822948 137.77984 
L 123.476806 137.779943 
L 124.88279 136.470747 
L 126.288775 29.029672 
L 127.694759 27.816423 
L 134.72468 27.816406 
L 136.130664 30.042048 
L 137.536649 101.998515 
L 138.942633 137.408759 
L 140.348617 137.771469 
L 150.190507 137.779276 
L 151.596491 136.819396 
L 153.002475 54.364133 
L 154.40846 30.855824 
L 155.814444 27.823235 
L 169.874286 27.823449 
L 171.280271 33.687979 
L 172.686255 136.542403 
L 174.092239 137.779683 
L 210.64783 137.776813 
L 212.053814 137.660259 
L 213.459798 136.145412 
L 214.865782 127.685071 
L 216.271767 98.686227 
L 217.677751 83.645157 
L 220.489719 28.184569 
L 221.895704 27.95976 
L 223.301688 30.358823 
L 224.707672 60.450836 
L 226.113656 137.225626 
L 227.519641 137.76027 
L 228.925625 137.589495 
L 230.331609 137.281146 
L 231.737594 136.858994 
L 234.549562 136.564086 
L 235.955546 136.538165 
L 237.361531 136.946388 
L 238.767515 137.528613 
L 240.173499 137.698236 
L 242.985468 137.731012 
L 245.797436 137.636525 
L 248.609405 137.777139 
L 303.44279 137.779859 
L 306.254759 137.767549 
L 318.908617 137.779943 
L 330.156491 137.779912 
L 331.562475 137.559642 
L 332.96846 136.935381 
L 334.374444 136.834049 
L 337.186412 135.168738 
L 338.592397 136.051503 
L 339.998381 137.688013 
L 342.810349 137.779932 
L 393.425782 137.779943 
L 394.831767 128.00425 
L 396.237751 43.583199 
L 397.643735 28.990899 
L 399.049719 27.851595 
L 400.455704 27.884897 
L 401.861688 29.346161 
L 403.267672 37.753793 
L 406.079641 69.536677 
L 407.485625 76.851872 
L 407.485625 76.851872 
" clip-path="url(#p6ddcac4d64)" style="fill: none; stroke: #1f77b4; stroke-width: 1.5; stroke-linecap: square"/>
   </g>
   <g id="patch_37">
    <path d="M 50.365625 143.278125 
L 50.365625 22.318125 
" style="fill: none; stroke: #000000; stroke-width: 0.8; stroke-linejoin: miter; stroke-linecap: square"/>
   </g>
   <g id="patch_38">
    <path d="M 407.485625 143.278125 
L 407.485625 22.318125 
" style="fill: none; stroke: #000000; stroke-width: 0.8; stroke-linejoin: miter; stroke-linecap: square"/>
   </g>
   <g id="patch_39">
    <path d="M 50.365625 143.278125 
L 407.485625 143.278125 
" style="fill: none; stroke: #000000; stroke-width: 0.8; stroke-linejoin: miter; stroke-linecap: square"/>
   </g>
   <g id="patch_40">
    <path d="M 50.365625 22.318125 
L 407.485625 22.318125 
" style="fill: none; stroke: #000000; stroke-width: 0.8; stroke-linejoin: miter; stroke-linecap: square"/>
   </g>
   <g id="text_14">
    <!-- United States -->
    <g transform="translate(187.235 16.318125) scale(0.12 -0.12)">
     <defs>
      <path id="DejaVuSerif-55" d="M 897 4331 
L 300 4331 
L 300 4666 
L 2125 4666 
L 2125 4331 
L 1528 4331 
L 1528 1919 
Q 1528 1025 1820 672 
Q 2113 319 2828 319 
Q 3544 319 3836 672 
Q 4128 1025 4128 1919 
L 4128 4331 
L 3531 4331 
L 3531 4666 
L 5106 4666 
L 5106 4331 
L 4513 4331 
L 4513 1856 
Q 4513 791 4103 350 
Q 3694 -91 2713 -91 
Q 1731 -91 1314 353 
Q 897 797 897 1856 
L 897 4331 
z
" transform="scale(0.015625)"/>
      <path id="DejaVuSerif-74" d="M 691 2988 
L 184 2988 
L 184 3322 
L 691 3322 
L 691 4353 
L 1269 4353 
L 1269 3322 
L 2350 3322 
L 2350 2988 
L 1269 2988 
L 1269 878 
Q 1269 456 1350 337 
Q 1431 219 1650 219 
Q 1875 219 1978 351 
Q 2081 484 2088 781 
L 2522 781 
Q 2497 328 2275 118 
Q 2053 -91 1600 -91 
Q 1103 -91 897 129 
Q 691 350 691 878 
L 691 2988 
z
" transform="scale(0.015625)"/>
      <path id="DejaVuSerif-64" d="M 3359 331 
L 3909 331 
L 3909 0 
L 2784 0 
L 2784 519 
Q 2616 206 2355 57 
Q 2094 -91 1709 -91 
Q 1097 -91 708 395 
Q 319 881 319 1663 
Q 319 2444 706 2928 
Q 1094 3413 1709 3413 
Q 2094 3413 2355 3264 
Q 2616 3116 2784 2803 
L 2784 4531 
L 2241 4531 
L 2241 4863 
L 3359 4863 
L 3359 331 
z
M 2784 1497 
L 2784 1825 
Q 2784 2422 2554 2737 
Q 2325 3053 1888 3053 
Q 1444 3053 1217 2703 
Q 991 2353 991 1663 
Q 991 975 1217 622 
Q 1444 269 1888 269 
Q 2325 269 2554 583 
Q 2784 897 2784 1497 
z
" transform="scale(0.015625)"/>
      <path id="DejaVuSerif-53" d="M 594 225 
L 594 1288 
L 953 1284 
Q 969 753 1261 498 
Q 1553 244 2150 244 
Q 2706 244 2998 464 
Q 3291 684 3291 1106 
Q 3291 1444 3114 1625 
Q 2938 1806 2369 1978 
L 1753 2163 
Q 1084 2366 811 2669 
Q 538 2972 538 3500 
Q 538 4094 959 4422 
Q 1381 4750 2144 4750 
Q 2469 4750 2856 4679 
Q 3244 4609 3681 4475 
L 3681 3481 
L 3328 3481 
Q 3275 3975 2998 4195 
Q 2722 4416 2156 4416 
Q 1663 4416 1405 4214 
Q 1147 4013 1147 3628 
Q 1147 3294 1340 3103 
Q 1534 2913 2163 2725 
L 2741 2553 
Q 3375 2363 3645 2067 
Q 3916 1772 3916 1275 
Q 3916 597 3481 253 
Q 3047 -91 2188 -91 
Q 1803 -91 1404 -12 
Q 1006 66 594 225 
z
" transform="scale(0.015625)"/>
      <path id="DejaVuSerif-61" d="M 2547 1044 
L 2547 1747 
L 1806 1747 
Q 1378 1747 1168 1562 
Q 959 1378 959 997 
Q 959 650 1171 447 
Q 1384 244 1747 244 
Q 2106 244 2326 466 
Q 2547 688 2547 1044 
z
M 3122 2075 
L 3122 331 
L 3634 331 
L 3634 0 
L 2547 0 
L 2547 359 
Q 2356 128 2106 18 
Q 1856 -91 1522 -91 
Q 969 -91 644 203 
Q 319 497 319 997 
Q 319 1513 691 1797 
Q 1063 2081 1741 2081 
L 2547 2081 
L 2547 2309 
Q 2547 2688 2317 2895 
Q 2088 3103 1672 3103 
Q 1328 3103 1125 2947 
Q 922 2791 872 2484 
L 575 2484 
L 575 3156 
Q 875 3284 1158 3348 
Q 1441 3413 1709 3413 
Q 2400 3413 2761 3070 
Q 3122 2728 3122 2075 
z
" transform="scale(0.015625)"/>
      <path id="DejaVuSerif-73" d="M 359 184 
L 359 959 
L 691 959 
Q 703 588 923 403 
Q 1144 219 1575 219 
Q 1963 219 2166 364 
Q 2369 509 2369 788 
Q 2369 1006 2220 1140 
Q 2072 1275 1594 1428 
L 1178 1569 
Q 750 1706 558 1912 
Q 366 2119 366 2438 
Q 366 2894 700 3153 
Q 1034 3413 1625 3413 
Q 1888 3413 2178 3344 
Q 2469 3275 2778 3144 
L 2778 2419 
L 2447 2419 
Q 2434 2741 2221 2922 
Q 2009 3103 1644 3103 
Q 1281 3103 1095 2975 
Q 909 2847 909 2591 
Q 909 2381 1050 2254 
Q 1191 2128 1613 1997 
L 2069 1856 
Q 2541 1709 2748 1489 
Q 2956 1269 2956 922 
Q 2956 450 2595 179 
Q 2234 -91 1600 -91 
Q 1278 -91 972 -22 
Q 666 47 359 184 
z
" transform="scale(0.015625)"/>
     </defs>
     <use xlink:href="#DejaVuSerif-55"/>
     <use xlink:href="#DejaVuSerif-6e" x="84.277344"/>
     <use xlink:href="#DejaVuSerif-69" x="148.681641"/>
     <use xlink:href="#DejaVuSerif-74" x="180.664062"/>
     <use xlink:href="#DejaVuSerif-65" x="220.849609"/>
     <use xlink:href="#DejaVuSerif-64" x="280.029297"/>
     <use xlink:href="#DejaVuSerif-20" x="344.042969"/>
     <use xlink:href="#DejaVuSerif-53" x="375.830078"/>
     <use xlink:href="#DejaVuSerif-74" x="444.335938"/>
     <use xlink:href="#DejaVuSerif-61" x="484.521484"/>
     <use xlink:href="#DejaVuSerif-74" x="544.140625"/>
     <use xlink:href="#DejaVuSerif-65" x="584.326172"/>
     <use xlink:href="#DejaVuSerif-73" x="643.505859"/>
    </g>
   </g>
  </g>
  <g id="axes_2">
   <g id="patch_41">
    <path d="M 50.365625 288.430125 
L 407.485625 288.430125 
L 407.485625 167.470125 
L 50.365625 167.470125 
z
" style="fill: #ffffff"/>
   </g>
   <g id="patch_42">
    <path d="M -530.305871 288.430125 
L -521.869966 288.430125 
L -521.869966 167.470125 
L -530.305871 167.470125 
z
" clip-path="url(#pf63fed9f09)" style="fill: #d3d3d3"/>
   </g>
   <g id="patch_43">
    <path d="M -512.028076 288.430125 
L -506.404139 288.430125 
L -506.404139 167.470125 
L -512.028076 167.470125 
z
" clip-path="url(#pf63fed9f09)" style="fill: #d3d3d3"/>
   </g>
   <g id="patch_44">
    <path d="M -486.720359 288.430125 
L -475.472485 288.430125 
L -475.472485 167.470125 
L -486.720359 167.470125 
z
" clip-path="url(#pf63fed9f09)" style="fill: #d3d3d3"/>
   </g>
   <g id="patch_45">
    <path d="M -462.818627 288.430125 
L -454.382721 288.430125 
L -454.382721 167.470125 
L -462.818627 167.470125 
z
" clip-path="url(#pf63fed9f09)" style="fill: #d3d3d3"/>
   </g>
   <g id="patch_46">
    <path d="M -438.916895 288.430125 
L -407.985241 288.430125 
L -407.985241 167.470125 
L -438.916895 167.470125 
z
" clip-path="url(#pf63fed9f09)" style="fill: #d3d3d3"/>
   </g>
   <g id="patch_47">
    <path d="M -391.11343 288.430125 
L -372.835635 288.430125 
L -372.835635 167.470125 
L -391.11343 167.470125 
z
" clip-path="url(#pf63fed9f09)" style="fill: #d3d3d3"/>
   </g>
   <g id="patch_48">
    <path d="M -361.587761 288.430125 
L -357.369808 288.430125 
L -357.369808 167.470125 
L -361.587761 167.470125 
z
" clip-path="url(#pf63fed9f09)" style="fill: #d3d3d3"/>
   </g>
   <g id="patch_49">
    <path d="M -343.309966 288.430125 
L -339.092013 288.430125 
L -339.092013 167.470125 
L -343.309966 167.470125 
z
" clip-path="url(#pf63fed9f09)" style="fill: #d3d3d3"/>
   </g>
   <g id="patch_50">
    <path d="M -329.250123 288.430125 
L -322.220202 288.430125 
L -322.220202 167.470125 
L -329.250123 167.470125 
z
" clip-path="url(#pf63fed9f09)" style="fill: #d3d3d3"/>
   </g>
   <g id="patch_51">
    <path d="M -313.784296 288.430125 
L -305.348391 288.430125 
L -305.348391 167.470125 
L -313.784296 167.470125 
z
" clip-path="url(#pf63fed9f09)" style="fill: #d3d3d3"/>
   </g>
   <g id="patch_52">
    <path d="M -292.694532 288.430125 
L -285.664611 288.430125 
L -285.664611 167.470125 
L -292.694532 167.470125 
z
" clip-path="url(#pf63fed9f09)" style="fill: #d3d3d3"/>
   </g>
   <g id="patch_53">
    <path d="M -274.416737 288.430125 
L -264.574847 288.430125 
L -264.574847 167.470125 
L -274.416737 167.470125 
z
" clip-path="url(#pf63fed9f09)" style="fill: #d3d3d3"/>
   </g>
   <g id="patch_54">
    <path d="M -249.109021 288.430125 
L -243.485084 288.430125 
L -243.485084 167.470125 
L -249.109021 167.470125 
z
" clip-path="url(#pf63fed9f09)" style="fill: #d3d3d3"/>
   </g>
   <g id="patch_55">
    <path d="M -233.643194 288.430125 
L -223.801304 288.430125 
L -223.801304 167.470125 
L -233.643194 167.470125 
z
" clip-path="url(#pf63fed9f09)" style="fill: #d3d3d3"/>
   </g>
   <g id="patch_56">
    <path d="M -216.771383 288.430125 
L -206.929493 288.430125 
L -206.929493 167.470125 
L -216.771383 167.470125 
z
" clip-path="url(#pf63fed9f09)" style="fill: #d3d3d3"/>
   </g>
   <g id="patch_57">
    <path d="M -185.839729 288.430125 
L -183.027761 288.430125 
L -183.027761 167.470125 
L -185.839729 167.470125 
z
" clip-path="url(#pf63fed9f09)" style="fill: #d3d3d3"/>
   </g>
   <g id="patch_58">
    <path d="M -177.403824 288.430125 
L -168.967918 288.430125 
L -168.967918 167.470125 
L -177.403824 167.470125 
z
" clip-path="url(#pf63fed9f09)" style="fill: #d3d3d3"/>
   </g>
   <g id="patch_59">
    <path d="M -159.126029 288.430125 
L -152.096107 288.430125 
L -152.096107 167.470125 
L -159.126029 167.470125 
z
" clip-path="url(#pf63fed9f09)" style="fill: #d3d3d3"/>
   </g>
   <g id="patch_60">
    <path d="M -140.848233 288.430125 
L -133.818312 288.430125 
L -133.818312 167.470125 
L -140.848233 167.470125 
z
" clip-path="url(#pf63fed9f09)" style="fill: #d3d3d3"/>
   </g>
   <g id="patch_61">
    <path d="M -123.976422 288.430125 
L -104.292643 288.430125 
L -104.292643 167.470125 
L -123.976422 167.470125 
z
" clip-path="url(#pf63fed9f09)" style="fill: #d3d3d3"/>
   </g>
   <g id="patch_62">
    <path d="M -80.39091 288.430125 
L -74.766973 288.430125 
L -74.766973 167.470125 
L -80.39091 167.470125 
z
" clip-path="url(#pf63fed9f09)" style="fill: #d3d3d3"/>
   </g>
   <g id="patch_63">
    <path d="M -36.805399 288.430125 
L -32.587446 288.430125 
L -32.587446 167.470125 
L -36.805399 167.470125 
z
" clip-path="url(#pf63fed9f09)" style="fill: #d3d3d3"/>
   </g>
   <g id="patch_64">
    <path d="M -15.715635 288.430125 
L -10.091698 288.430125 
L -10.091698 167.470125 
L -15.715635 167.470125 
z
" clip-path="url(#pf63fed9f09)" style="fill: #d3d3d3"/>
   </g>
   <g id="patch_65">
    <path d="M 9.592082 288.430125 
L 15.216019 288.430125 
L 15.216019 167.470125 
L 9.592082 167.470125 
z
" clip-path="url(#pf63fed9f09)" style="fill: #d3d3d3"/>
   </g>
   <g id="patch_66">
    <path d="M 33.493814 288.430125 
L 37.711767 288.430125 
L 37.711767 167.470125 
L 33.493814 167.470125 
z
" clip-path="url(#pf63fed9f09)" style="fill: #d3d3d3"/>
   </g>
   <g id="patch_67">
    <path d="M 48.959641 288.430125 
L 53.177594 288.430125 
L 53.177594 167.470125 
L 48.959641 167.470125 
z
" clip-path="url(#pf63fed9f09)" style="fill: #d3d3d3"/>
   </g>
   <g id="patch_68">
    <path d="M 102.387042 288.430125 
L 108.010979 288.430125 
L 108.010979 167.470125 
L 102.387042 167.470125 
z
" clip-path="url(#pf63fed9f09)" style="fill: #d3d3d3"/>
   </g>
   <g id="patch_69">
    <path d="M 124.88279 288.430125 
L 131.912712 288.430125 
L 131.912712 167.470125 
L 124.88279 167.470125 
z
" clip-path="url(#pf63fed9f09)" style="fill: #d3d3d3"/>
   </g>
   <g id="patch_70">
    <path d="M 160.032397 288.430125 
L 162.844365 288.430125 
L 162.844365 167.470125 
L 160.032397 167.470125 
z
" clip-path="url(#pf63fed9f09)" style="fill: #d3d3d3"/>
   </g>
   <g id="patch_71">
    <path d="M 168.468302 288.430125 
L 175.498223 288.430125 
L 175.498223 167.470125 
L 168.468302 167.470125 
z
" clip-path="url(#pf63fed9f09)" style="fill: #d3d3d3"/>
   </g>
   <g id="patch_72">
    <path d="M 219.083735 288.430125 
L 221.895704 288.430125 
L 221.895704 167.470125 
L 219.083735 167.470125 
z
" clip-path="url(#pf63fed9f09)" style="fill: #d3d3d3"/>
   </g>
   <g id="patch_73">
    <path d="M 278.135074 288.430125 
L 282.353027 288.430125 
L 282.353027 167.470125 
L 278.135074 167.470125 
z
" clip-path="url(#pf63fed9f09)" style="fill: #d3d3d3"/>
   </g>
   <g id="patch_74">
    <path d="M 316.096649 288.430125 
L 324.532554 288.430125 
L 324.532554 167.470125 
L 316.096649 167.470125 
z
" clip-path="url(#pf63fed9f09)" style="fill: #d3d3d3"/>
   </g>
   <g id="patch_75">
    <path d="M 383.583893 288.430125 
L 386.395861 288.430125 
L 386.395861 167.470125 
L 383.583893 167.470125 
z
" clip-path="url(#pf63fed9f09)" style="fill: #d3d3d3"/>
   </g>
   <g id="matplotlib.axis_3">
    <g id="xtick_13">
     <g id="line2d_20">
      <g>
       <use xlink:href="#me0f5ff5d94" x="103.793027" y="288.430125" style="stroke: #000000; stroke-width: 0.8"/>
      </g>
     </g>
     <g id="text_15">
      <!-- 1970 -->
      <g transform="translate(91.068027 303.028562) scale(0.1 -0.1)">
       <use xlink:href="#DejaVuSerif-31"/>
       <use xlink:href="#DejaVuSerif-39" x="63.623047"/>
       <use xlink:href="#DejaVuSerif-37" x="127.246094"/>
       <use xlink:href="#DejaVuSerif-30" x="190.869141"/>
      </g>
     </g>
    </g>
    <g id="xtick_14">
     <g id="line2d_21">
      <g>
       <use xlink:href="#me0f5ff5d94" x="160.032397" y="288.430125" style="stroke: #000000; stroke-width: 0.8"/>
      </g>
     </g>
     <g id="text_16">
      <!-- 1980 -->
      <g transform="translate(147.307397 303.028562) scale(0.1 -0.1)">
       <use xlink:href="#DejaVuSerif-31"/>
       <use xlink:href="#DejaVuSerif-39" x="63.623047"/>
       <use xlink:href="#DejaVuSerif-38" x="127.246094"/>
       <use xlink:href="#DejaVuSerif-30" x="190.869141"/>
      </g>
     </g>
    </g>
    <g id="xtick_15">
     <g id="line2d_22">
      <g>
       <use xlink:href="#me0f5ff5d94" x="216.271767" y="288.430125" style="stroke: #000000; stroke-width: 0.8"/>
      </g>
     </g>
     <g id="text_17">
      <!-- 1990 -->
      <g transform="translate(203.546767 303.028562) scale(0.1 -0.1)">
       <use xlink:href="#DejaVuSerif-31"/>
       <use xlink:href="#DejaVuSerif-39" x="63.623047"/>
       <use xlink:href="#DejaVuSerif-39" x="127.246094"/>
       <use xlink:href="#DejaVuSerif-30" x="190.869141"/>
      </g>
     </g>
    </g>
    <g id="xtick_16">
     <g id="line2d_23">
      <g>
       <use xlink:href="#me0f5ff5d94" x="272.511137" y="288.430125" style="stroke: #000000; stroke-width: 0.8"/>
      </g>
     </g>
     <g id="text_18">
      <!-- 2000 -->
      <g transform="translate(259.786137 303.028562) scale(0.1 -0.1)">
       <use xlink:href="#DejaVuSerif-32"/>
       <use xlink:href="#DejaVuSerif-30" x="63.623047"/>
       <use xlink:href="#DejaVuSerif-30" x="127.246094"/>
       <use xlink:href="#DejaVuSerif-30" x="190.869141"/>
      </g>
     </g>
    </g>
    <g id="xtick_17">
     <g id="line2d_24">
      <g>
       <use xlink:href="#me0f5ff5d94" x="328.750507" y="288.430125" style="stroke: #000000; stroke-width: 0.8"/>
      </g>
     </g>
     <g id="text_19">
      <!-- 2010 -->
      <g transform="translate(316.025507 303.028562) scale(0.1 -0.1)">
       <use xlink:href="#DejaVuSerif-32"/>
       <use xlink:href="#DejaVuSerif-30" x="63.623047"/>
       <use xlink:href="#DejaVuSerif-31" x="127.246094"/>
       <use xlink:href="#DejaVuSerif-30" x="190.869141"/>
      </g>
     </g>
    </g>
    <g id="xtick_18">
     <g id="line2d_25">
      <g>
       <use xlink:href="#me0f5ff5d94" x="384.989877" y="288.430125" style="stroke: #000000; stroke-width: 0.8"/>
      </g>
     </g>
     <g id="text_20">
      <!-- 2020 -->
      <g transform="translate(372.264877 303.028562) scale(0.1 -0.1)">
       <use xlink:href="#DejaVuSerif-32"/>
       <use xlink:href="#DejaVuSerif-30" x="63.623047"/>
       <use xlink:href="#DejaVuSerif-32" x="127.246094"/>
       <use xlink:href="#DejaVuSerif-30" x="190.869141"/>
      </g>
     </g>
    </g>
    <g id="xtick_19">
     <g id="line2d_26">
      <g>
       <use xlink:href="#ma539020edb" x="75.673342" y="288.430125" style="stroke: #000000; stroke-width: 0.6"/>
      </g>
     </g>
    </g>
    <g id="xtick_20">
     <g id="line2d_27">
      <g>
       <use xlink:href="#ma539020edb" x="131.912712" y="288.430125" style="stroke: #000000; stroke-width: 0.6"/>
      </g>
     </g>
    </g>
    <g id="xtick_21">
     <g id="line2d_28">
      <g>
       <use xlink:href="#ma539020edb" x="188.152082" y="288.430125" style="stroke: #000000; stroke-width: 0.6"/>
      </g>
     </g>
    </g>
    <g id="xtick_22">
     <g id="line2d_29">
      <g>
       <use xlink:href="#ma539020edb" x="244.391452" y="288.430125" style="stroke: #000000; stroke-width: 0.6"/>
      </g>
     </g>
    </g>
    <g id="xtick_23">
     <g id="line2d_30">
      <g>
       <use xlink:href="#ma539020edb" x="300.630822" y="288.430125" style="stroke: #000000; stroke-width: 0.6"/>
      </g>
     </g>
    </g>
    <g id="xtick_24">
     <g id="line2d_31">
      <g>
       <use xlink:href="#ma539020edb" x="356.870192" y="288.430125" style="stroke: #000000; stroke-width: 0.6"/>
      </g>
     </g>
    </g>
   </g>
   <g id="matplotlib.axis_4">
    <g id="ytick_7">
     <g id="line2d_32">
      <path d="M 50.365625 268.984646 
L 407.485625 268.984646 
" clip-path="url(#pf63fed9f09)" style="fill: none; stroke-dasharray: 2.96,1.28; stroke-dashoffset: 0; stroke: #b0b0b0; stroke-width: 0.8"/>
     </g>
     <g id="line2d_33">
      <g>
       <use xlink:href="#m0013c160ca" x="50.365625" y="268.984646" style="stroke: #000000; stroke-width: 0.8"/>
      </g>
     </g>
     <g id="text_21">
      <!-- 0.00 -->
      <g transform="translate(21.1 272.783865) scale(0.1 -0.1)">
       <use xlink:href="#DejaVuSerif-30"/>
       <use xlink:href="#DejaVuSerif-2e" x="63.623047"/>
       <use xlink:href="#DejaVuSerif-30" x="95.410156"/>
       <use xlink:href="#DejaVuSerif-30" x="159.033203"/>
      </g>
     </g>
    </g>
    <g id="ytick_8">
     <g id="line2d_34">
      <path d="M 50.365625 233.732133 
L 407.485625 233.732133 
" clip-path="url(#pf63fed9f09)" style="fill: none; stroke-dasharray: 2.96,1.28; stroke-dashoffset: 0; stroke: #b0b0b0; stroke-width: 0.8"/>
     </g>
     <g id="line2d_35">
      <g>
       <use xlink:href="#m0013c160ca" x="50.365625" y="233.732133" style="stroke: #000000; stroke-width: 0.8"/>
      </g>
     </g>
     <g id="text_22">
      <!-- 0.05 -->
      <g transform="translate(21.1 237.531352) scale(0.1 -0.1)">
       <defs>
        <path id="DejaVuSerif-35" d="M 3219 4666 
L 3219 4153 
L 1081 4153 
L 1081 2816 
Q 1244 2928 1461 2984 
Q 1678 3041 1947 3041 
Q 2703 3041 3140 2622 
Q 3578 2203 3578 1478 
Q 3578 738 3136 323 
Q 2694 -91 1894 -91 
Q 1572 -91 1234 -12 
Q 897 66 544 225 
L 544 1131 
L 897 1131 
Q 925 688 1179 453 
Q 1434 219 1894 219 
Q 2388 219 2653 544 
Q 2919 869 2919 1478 
Q 2919 2084 2655 2407 
Q 2391 2731 1894 2731 
Q 1613 2731 1398 2631 
Q 1184 2531 1019 2322 
L 750 2322 
L 750 4666 
L 3219 4666 
z
" transform="scale(0.015625)"/>
       </defs>
       <use xlink:href="#DejaVuSerif-30"/>
       <use xlink:href="#DejaVuSerif-2e" x="63.623047"/>
       <use xlink:href="#DejaVuSerif-30" x="95.410156"/>
       <use xlink:href="#DejaVuSerif-35" x="159.033203"/>
      </g>
     </g>
    </g>
    <g id="ytick_9">
     <g id="line2d_36">
      <path d="M 50.365625 198.47962 
L 407.485625 198.47962 
" clip-path="url(#pf63fed9f09)" style="fill: none; stroke-dasharray: 2.96,1.28; stroke-dashoffset: 0; stroke: #b0b0b0; stroke-width: 0.8"/>
     </g>
     <g id="line2d_37">
      <g>
       <use xlink:href="#m0013c160ca" x="50.365625" y="198.47962" style="stroke: #000000; stroke-width: 0.8"/>
      </g>
     </g>
     <g id="text_23">
      <!-- 0.10 -->
      <g transform="translate(21.1 202.278838) scale(0.1 -0.1)">
       <use xlink:href="#DejaVuSerif-30"/>
       <use xlink:href="#DejaVuSerif-2e" x="63.623047"/>
       <use xlink:href="#DejaVuSerif-31" x="95.410156"/>
       <use xlink:href="#DejaVuSerif-30" x="159.033203"/>
      </g>
     </g>
    </g>
    <g id="text_24">
     <!-- $\Delta\log P_t$ -->
     <g transform="translate(14.8 245.100125) rotate(-90) scale(0.1 -0.1)">
      <defs>
       <path id="DejaVuSerif-394" d="M 4350 0 
L 244 0 
L 2034 4666 
L 2559 4666 
L 4350 0 
z
M 3506 331 
L 2138 3909 
L 763 331 
L 3506 331 
z
" transform="scale(0.015625)"/>
       <path id="DejaVuSerif-6c" d="M 1313 331 
L 1856 331 
L 1856 0 
L 184 0 
L 184 331 
L 738 331 
L 738 4531 
L 184 4531 
L 184 4863 
L 1313 4863 
L 1313 331 
z
" transform="scale(0.015625)"/>
       <path id="DejaVuSerif-Italic-50" d="M 1594 2375 
L 2419 2375 
Q 2884 2375 3176 2626 
Q 3469 2878 3559 3353 
Q 3653 3831 3458 4081 
Q 3263 4331 2797 4331 
L 1972 4331 
L 1594 2375 
z
M -97 0 
L -34 331 
L 559 331 
L 1338 4331 
L 744 4331 
L 809 4666 
L 3016 4666 
Q 3716 4666 4056 4311 
Q 4397 3956 4278 3353 
Q 4163 2753 3684 2397 
Q 3206 2041 2506 2041 
L 1528 2041 
L 1194 331 
L 1916 331 
L 1853 0 
L -97 0 
z
" transform="scale(0.015625)"/>
      </defs>
      <use xlink:href="#DejaVuSerif-394" transform="translate(0 0.015625)"/>
      <use xlink:href="#DejaVuSerif-6c" transform="translate(72.216797 0.015625)"/>
      <use xlink:href="#DejaVuSerif-6f" transform="translate(104.199219 0.015625)"/>
      <use xlink:href="#DejaVuSerif-67" transform="translate(164.404297 0.015625)"/>
      <use xlink:href="#DejaVuSerif-Italic-50" transform="translate(244.222321 0.015625)"/>
      <use xlink:href="#DejaVuSerif-Italic-74" transform="translate(311.507478 -15.55625) scale(0.7)"/>
     </g>
    </g>
   </g>
   <g id="line2d_38">
    <path d="M 50.365625 252.202265 
L 51.771609 258.242701 
L 53.177594 258.782059 
L 54.583578 260.926782 
L 55.989562 259.890266 
L 57.395546 253.196909 
L 58.801531 248.766032 
L 60.207515 243.852861 
L 61.613499 242.133487 
L 63.019483 245.76299 
L 64.425468 248.554953 
L 65.831452 250.409422 
L 67.237436 251.596047 
L 68.64342 249.451508 
L 70.049405 246.642156 
L 71.455389 244.825215 
L 72.861373 244.607354 
L 74.267357 245.163631 
L 77.079326 245.962778 
L 79.891294 242.203783 
L 82.703263 236.77841 
L 84.109247 236.712195 
L 85.515231 239.027801 
L 88.3272 247.979471 
L 89.733184 251.114187 
L 91.139168 250.453211 
L 92.545153 247.720123 
L 93.951137 243.956028 
L 95.357121 240.892352 
L 96.763105 239.139747 
L 98.16909 239.267463 
L 99.575074 239.611947 
L 100.981058 240.507105 
L 102.387042 241.075869 
L 103.793027 223.845069 
L 105.199011 234.499149 
L 106.604995 236.990174 
L 108.010979 239.093419 
L 109.416964 229.941992 
L 110.822948 248.751297 
L 112.228932 241.171087 
L 113.634916 239.142478 
L 115.040901 240.496461 
L 116.446885 238.624895 
L 117.852869 240.237848 
L 119.258853 237.756682 
L 120.664838 235.698193 
L 122.070822 232.674079 
L 123.476806 232.859645 
L 124.88279 232.405015 
L 126.288775 186.095997 
L 127.694759 194.684855 
L 129.100743 192.14477 
L 130.506727 192.840785 
L 131.912712 198.706886 
L 133.318696 201.959299 
L 134.72468 205.610596 
L 136.130664 207.905002 
L 137.536649 227.357685 
L 138.942633 235.501997 
L 140.348617 232.333338 
L 141.754601 235.909193 
L 143.160586 238.550561 
L 144.56657 237.50253 
L 145.972554 237.0548 
L 147.378538 233.741935 
L 148.784523 232.901414 
L 150.190507 232.692804 
L 151.596491 231.976245 
L 153.002475 202.434951 
L 154.40846 194.948253 
L 155.814444 200.56697 
L 157.220428 204.621348 
L 158.626412 196.660457 
L 160.032397 196.778768 
L 161.438381 193.152758 
L 162.844365 204.137496 
L 164.250349 200.348297 
L 165.656334 195.829696 
L 167.062318 202.74313 
L 168.468302 197.110435 
L 169.874286 194.852291 
L 171.280271 205.735538 
L 172.686255 242.720258 
L 174.092239 251.523731 
L 175.498223 252.006516 
L 176.904208 252.612198 
L 178.310192 250.955827 
L 179.716176 244.792245 
L 181.12216 240.340787 
L 182.528145 236.918251 
L 183.934129 233.935201 
L 185.340113 233.881663 
L 186.746097 235.268411 
L 188.152082 238.860129 
L 189.558066 240.229299 
L 190.96405 243.739826 
L 192.370034 245.602016 
L 193.776019 245.190198 
L 195.182003 248.113748 
L 196.587987 248.942916 
L 197.993971 250.351649 
L 199.399956 251.135766 
L 200.80594 250.105674 
L 202.211924 250.000265 
L 203.617908 248.571637 
L 205.023893 246.640544 
L 206.429877 246.25058 
L 207.835861 244.75294 
L 209.241845 243.01822 
L 210.64783 243.861498 
L 212.053814 242.727362 
L 213.459798 243.161662 
L 214.865782 243.183781 
L 216.271767 238.78201 
L 217.677751 235.363129 
L 219.083735 229.964514 
L 220.489719 226.51448 
L 221.895704 229.503793 
L 223.301688 228.881615 
L 224.707672 234.400503 
L 226.113656 256.675028 
L 227.519641 255.749481 
L 228.925625 252.745638 
L 230.331609 251.663131 
L 231.737594 251.024409 
L 233.143578 249.151778 
L 234.549562 250.66427 
L 235.955546 252.791213 
L 237.361531 252.640118 
L 238.767515 253.830012 
L 240.173499 250.95823 
L 241.579483 249.88417 
L 242.985468 249.099449 
L 244.391452 249.886891 
L 245.797436 251.076589 
L 247.20342 252.87747 
L 248.609405 253.478282 
L 250.015389 252.377191 
L 251.421373 252.92851 
L 252.827357 250.221121 
L 254.233342 249.349319 
L 255.639326 249.216328 
L 257.04531 248.440111 
L 258.451294 248.278555 
L 259.857279 248.704399 
L 261.263263 247.946601 
L 262.669247 248.658924 
L 264.075231 248.67691 
L 265.481216 250.43345 
L 266.8872 248.43753 
L 268.293184 247.259435 
L 269.699168 248.059899 
L 271.105153 246.479796 
L 272.511137 249.715709 
L 273.917121 247.025777 
L 275.323105 246.421793 
L 276.72909 246.705663 
L 278.135074 248.252167 
L 279.541058 252.806203 
L 280.947042 253.918751 
L 282.353027 256.039029 
L 283.759011 255.780817 
L 285.164995 255.331499 
L 286.570979 256.130077 
L 287.976964 255.685783 
L 289.382948 256.007512 
L 290.788932 254.891965 
L 292.194916 254.727516 
L 293.600901 250.279346 
L 295.006885 247.97954 
L 296.412869 249.581785 
L 297.818853 246.438521 
L 299.224838 248.451413 
L 300.630822 248.444285 
L 302.036806 246.375347 
L 303.44279 247.329151 
L 304.848775 249.180597 
L 306.254759 247.303994 
L 307.660743 248.106242 
L 309.066727 248.408401 
L 310.472712 248.355958 
L 311.878696 250.651119 
L 313.28468 251.103971 
L 314.690664 251.161826 
L 316.096649 252.4664 
L 317.502633 250.574991 
L 318.908617 252.979044 
L 320.314601 253.479348 
L 321.720586 254.927254 
L 323.12657 263.57413 
L 324.532554 265.664106 
L 325.938538 271.837372 
L 327.344523 269.75163 
L 330.156491 261.978469 
L 331.562475 258.84739 
L 332.96846 257.959283 
L 334.374444 255.65159 
L 335.780428 258.041465 
L 337.186412 256.223531 
L 338.592397 255.538028 
L 339.998381 257.044585 
L 341.404365 254.070518 
L 342.810349 253.823829 
L 344.216334 255.609667 
L 345.622318 255.675235 
L 347.028302 255.464827 
L 348.434286 255.872522 
L 349.840271 255.43041 
L 351.246255 254.223966 
L 352.652239 255.093284 
L 354.058223 254.468328 
L 355.464208 252.754006 
L 356.870192 253.646617 
L 358.276176 252.985857 
L 359.68216 253.416116 
L 361.088145 255.307513 
L 362.494129 256.129621 
L 363.900113 258.687846 
L 365.306097 258.807753 
L 366.712082 257.633489 
L 368.118066 257.322852 
L 369.52405 255.565166 
L 370.930034 254.741687 
L 372.336019 255.45157 
L 373.742003 252.290572 
L 375.147987 250.7899 
L 376.553971 250.888821 
L 377.959956 250.520707 
L 379.36594 253.597515 
L 380.771924 254.654403 
L 382.177908 255.34948 
L 383.583893 254.9763 
L 384.989877 253.691569 
L 386.395861 268.46978 
L 387.801845 263.82569 
L 389.20783 267.276358 
L 390.613814 259.019138 
L 392.019798 240.834982 
L 393.425782 239.347926 
L 394.831767 228.871886 
L 396.237751 214.290055 
L 397.643735 208.629232 
L 399.049719 207.361014 
L 400.455704 215.001738 
L 403.267672 234.50881 
L 404.673656 248.235165 
L 406.079641 254.154501 
L 407.485625 251.429646 
L 407.485625 251.429646 
" clip-path="url(#pf63fed9f09)" style="fill: none; stroke: #1f77b4; stroke-width: 1.5; stroke-linecap: square"/>
   </g>
   <g id="line2d_39">
    <path d="M 50.365625 259.375635 
L 51.771609 259.440673 
L 53.177594 257.791247 
L 54.583578 262.569654 
L 55.989562 260.211417 
L 57.395546 263.5548 
L 58.801531 264.274874 
L 60.207515 259.586969 
L 61.613499 261.950498 
L 63.019483 259.639907 
L 64.425468 259.658448 
L 65.831452 262.711295 
L 67.237436 258.103668 
L 68.64342 260.449662 
L 70.049405 257.497747 
L 71.455389 258.195778 
L 72.861373 261.44393 
L 74.267357 260.551748 
L 75.673342 261.279102 
L 77.079326 259.25654 
L 78.48531 256.369992 
L 79.891294 257.078146 
L 81.297279 255.588735 
L 82.703263 249.047872 
L 84.109247 249.823894 
L 85.515231 242.74719 
L 86.921216 246.779931 
L 88.3272 251.298151 
L 89.733184 248.640099 
L 91.139168 250.973367 
L 92.545153 243.726413 
L 93.951137 241.823796 
L 95.357121 238.011133 
L 96.763105 236.2808 
L 98.16909 236.655762 
L 99.575074 231.080314 
L 100.981058 231.609215 
L 102.387042 230.12907 
L 103.793027 226.822342 
L 105.199011 227.499136 
L 106.604995 229.856891 
L 108.010979 230.367288 
L 109.416964 232.727287 
L 110.822948 240.276344 
L 112.228932 238.826956 
L 115.040901 246.379372 
L 116.446885 244.789371 
L 117.852869 248.44775 
L 119.258853 246.923512 
L 120.664838 243.771581 
L 122.070822 232.565504 
L 123.476806 229.622783 
L 124.88279 214.352067 
L 126.288775 204.342618 
L 127.694759 201.346301 
L 129.100743 191.993656 
L 130.506727 190.07689 
L 131.912712 190.644278 
L 133.318696 200.587906 
L 134.72468 204.782793 
L 136.130664 217.031103 
L 137.536649 223.313254 
L 138.942633 228.90684 
L 140.348617 230.864537 
L 141.754601 231.473126 
L 143.160586 233.26267 
L 144.56657 221.599099 
L 147.378538 225.31067 
L 148.784523 222.506519 
L 150.190507 224.584247 
L 153.002475 208.687215 
L 154.40846 206.607229 
L 155.814444 198.683532 
L 157.220428 192.550642 
L 158.626412 188.632051 
L 160.032397 177.416186 
L 161.438381 172.968307 
L 162.844365 181.875517 
L 164.250349 185.108785 
L 165.656334 190.374711 
L 167.062318 200.915208 
L 168.468302 196.837352 
L 169.874286 200.047832 
L 171.280271 213.048255 
L 172.686255 223.778545 
L 174.092239 224.204503 
L 175.498223 234.369483 
L 176.904208 243.316955 
L 178.310192 241.332072 
L 179.716176 252.545831 
L 181.12216 249.841834 
L 182.528145 239.368181 
L 183.934129 237.581869 
L 185.340113 239.242952 
L 186.746097 239.531931 
L 188.152082 244.553126 
L 189.558066 244.172899 
L 190.96405 245.014623 
L 192.370034 246.53733 
L 193.776019 241.51168 
L 195.182003 257.870967 
L 196.587987 257.298463 
L 197.993971 258.023424 
L 199.399956 259.426656 
L 200.80594 243.505803 
L 202.211924 241.827539 
L 203.617908 238.924665 
L 205.023893 240.456293 
L 206.429877 241.380197 
L 209.241845 239.565766 
L 210.64783 238.066865 
L 212.053814 234.355992 
L 213.459798 234.160271 
L 214.865782 237.362743 
L 216.271767 233.256724 
L 217.677751 236.524219 
L 219.083735 235.799685 
L 220.489719 225.381866 
L 221.895704 230.253613 
L 223.301688 235.862559 
L 224.707672 238.842925 
L 226.113656 249.181489 
L 227.519641 250.388836 
L 228.925625 246.893833 
L 230.331609 247.069502 
L 231.737594 246.23096 
L 233.143578 246.40907 
L 234.549562 247.074541 
L 235.955546 249.192462 
L 237.361531 249.841834 
L 238.767515 251.912377 
L 240.173499 252.508495 
L 241.579483 250.207872 
L 242.985468 250.819635 
L 245.797436 247.28908 
L 247.20342 249.307548 
L 248.609405 249.896613 
L 252.827357 248.943108 
L 254.233342 247.720691 
L 255.639326 247.883191 
L 257.04531 252.026924 
L 258.451294 253.879022 
L 259.857279 254.428822 
L 261.263263 257.577237 
L 262.669247 258.915455 
L 264.075231 256.783225 
L 265.481216 258.584208 
L 266.8872 257.330657 
L 268.293184 253.082198 
L 269.699168 254.02394 
L 271.105153 251.145073 
L 273.917121 248.049312 
L 275.323105 244.053931 
L 276.72909 245.068367 
L 278.135074 243.224653 
L 280.947042 250.053282 
L 282.353027 254.140934 
L 283.759011 260.60297 
L 285.164995 257.487929 
L 286.570979 258.726319 
L 287.976964 254.836005 
L 289.382948 249.80641 
L 290.788932 253.813324 
L 292.194916 254.638889 
L 295.006885 254.84112 
L 296.412869 253.00333 
L 297.818853 248.557942 
L 299.224838 246.83858 
L 300.630822 249.206867 
L 302.036806 245.672018 
L 303.44279 247.684633 
L 304.848775 238.962582 
L 306.254759 241.204706 
L 307.660743 243.954878 
L 309.066727 240.622843 
L 310.472712 259.138398 
L 311.878696 254.499284 
L 313.28468 250.936216 
L 314.690664 252.828874 
L 316.096649 243.976228 
L 317.502633 239.337058 
L 318.908617 241.98481 
L 320.314601 231.252341 
L 321.720586 243.157681 
L 323.12657 269.78594 
L 324.532554 273.059777 
L 325.938538 282.931943 
L 327.344523 270.565506 
L 328.750507 250.742535 
L 330.156491 253.594993 
L 331.562475 259.594296 
L 332.96846 260.806474 
L 334.374444 257.0941 
L 335.780428 247.615722 
L 337.186412 244.185965 
L 338.592397 244.578235 
L 339.998381 248.0842 
L 341.404365 253.137147 
L 342.810349 259.06065 
L 344.216334 253.947532 
L 345.622318 257.210034 
L 347.028302 261.000851 
L 348.434286 255.814892 
L 349.840271 262.829715 
L 351.246255 258.08633 
L 352.652239 254.918256 
L 354.058223 255.200895 
L 355.464208 257.726926 
L 356.870192 270.607642 
L 358.276176 269.718499 
L 359.68216 267.395238 
L 361.088145 268.085459 
L 362.494129 260.313176 
L 363.900113 260.765143 
L 365.306097 262.888677 
L 368.118066 251.503626 
L 369.52405 253.805747 
L 370.930034 256.925492 
L 372.336019 254.87933 
L 373.742003 253.977619 
L 375.147987 251.774644 
L 376.553971 249.14345 
L 377.959956 251.62992 
L 379.36594 258.573639 
L 380.771924 255.018765 
L 382.177908 256.224264 
L 383.583893 256.864043 
L 384.989877 251.490757 
L 386.395861 266.522147 
L 387.801845 261.83824 
L 390.613814 259.216464 
L 392.019798 240.32444 
L 393.425782 232.857676 
L 394.831767 226.446687 
L 396.237751 217.537521 
L 397.643735 213.080958 
L 399.049719 211.792816 
L 400.455704 216.344497 
L 403.267672 234.981013 
L 404.673656 246.286277 
L 406.079641 246.463757 
L 407.485625 247.419123 
L 407.485625 247.419123 
" clip-path="url(#pf63fed9f09)" style="fill: none; stroke: #ff7f0e; stroke-width: 1.5; stroke-linecap: square"/>
   </g>
   <g id="patch_76">
    <path d="M 50.365625 288.430125 
L 50.365625 167.470125 
" style="fill: none; stroke: #000000; stroke-width: 0.8; stroke-linejoin: miter; stroke-linecap: square"/>
   </g>
   <g id="patch_77">
    <path d="M 407.485625 288.430125 
L 407.485625 167.470125 
" style="fill: none; stroke: #000000; stroke-width: 0.8; stroke-linejoin: miter; stroke-linecap: square"/>
   </g>
   <g id="patch_78">
    <path d="M 50.365625 288.430125 
L 407.485625 288.430125 
" style="fill: none; stroke: #000000; stroke-width: 0.8; stroke-linejoin: miter; stroke-linecap: square"/>
   </g>
   <g id="patch_79">
    <path d="M 50.365625 167.470125 
L 407.485625 167.470125 
" style="fill: none; stroke: #000000; stroke-width: 0.8; stroke-linejoin: miter; stroke-linecap: square"/>
   </g>
   <g id="legend_1">
    <g id="patch_80">
     <path d="M 186.773281 204.826375 
L 271.077969 204.826375 
Q 273.077969 204.826375 273.077969 202.826375 
L 273.077969 174.470125 
Q 273.077969 172.470125 271.077969 172.470125 
L 186.773281 172.470125 
Q 184.773281 172.470125 184.773281 174.470125 
L 184.773281 202.826375 
Q 184.773281 204.826375 186.773281 204.826375 
z
" style="fill: #ffffff; opacity: 0.8; stroke: #cccccc; stroke-linejoin: miter"/>
    </g>
    <g id="line2d_40">
     <path d="M 188.773281 180.568562 
L 198.773281 180.568562 
L 208.773281 180.568562 
" style="fill: none; stroke: #1f77b4; stroke-width: 1.5; stroke-linecap: square"/>
    </g>
    <g id="text_25">
     <!-- Prediction -->
     <g transform="translate(216.773281 184.068562) scale(0.1 -0.1)">
      <defs>
       <path id="DejaVuSerif-63" d="M 3291 997 
Q 3169 466 2822 187 
Q 2475 -91 1925 -91 
Q 1200 -91 759 389 
Q 319 869 319 1663 
Q 319 2459 759 2936 
Q 1200 3413 1925 3413 
Q 2241 3413 2553 3339 
Q 2866 3266 3181 3116 
L 3181 2266 
L 2847 2266 
Q 2781 2703 2561 2903 
Q 2341 3103 1931 3103 
Q 1466 3103 1228 2742 
Q 991 2381 991 1663 
Q 991 944 1227 581 
Q 1463 219 1931 219 
Q 2303 219 2525 412 
Q 2747 606 2828 997 
L 3291 997 
z
" transform="scale(0.015625)"/>
      </defs>
      <use xlink:href="#DejaVuSerif-50"/>
      <use xlink:href="#DejaVuSerif-72" x="67.285156"/>
      <use xlink:href="#DejaVuSerif-65" x="115.087891"/>
      <use xlink:href="#DejaVuSerif-64" x="174.267578"/>
      <use xlink:href="#DejaVuSerif-69" x="238.28125"/>
      <use xlink:href="#DejaVuSerif-63" x="270.263672"/>
      <use xlink:href="#DejaVuSerif-74" x="326.269531"/>
      <use xlink:href="#DejaVuSerif-69" x="366.455078"/>
      <use xlink:href="#DejaVuSerif-6f" x="398.4375"/>
      <use xlink:href="#DejaVuSerif-6e" x="458.642578"/>
     </g>
    </g>
    <g id="line2d_41">
     <path d="M 188.773281 195.246687 
L 198.773281 195.246687 
L 208.773281 195.246687 
" style="fill: none; stroke: #ff7f0e; stroke-width: 1.5; stroke-linecap: square"/>
    </g>
    <g id="text_26">
     <!-- Real -->
     <g transform="translate(216.773281 198.746687) scale(0.1 -0.1)">
      <defs>
       <path id="DejaVuSerif-52" d="M 3066 2316 
Q 3284 2256 3442 2114 
Q 3600 1972 3725 1716 
L 4403 331 
L 4972 331 
L 4972 0 
L 3872 0 
L 3144 1484 
Q 2934 1916 2759 2042 
Q 2584 2169 2278 2169 
L 1581 2169 
L 1581 331 
L 2241 331 
L 2241 0 
L 353 0 
L 353 331 
L 947 331 
L 947 4331 
L 353 4331 
L 353 4666 
L 2719 4666 
Q 3400 4666 3770 4341 
Q 4141 4016 4141 3419 
Q 4141 2938 3870 2661 
Q 3600 2384 3066 2316 
z
M 1581 2503 
L 2503 2503 
Q 2975 2503 3200 2726 
Q 3425 2950 3425 3419 
Q 3425 3888 3200 4109 
Q 2975 4331 2503 4331 
L 1581 4331 
L 1581 2503 
z
" transform="scale(0.015625)"/>
      </defs>
      <use xlink:href="#DejaVuSerif-52"/>
      <use xlink:href="#DejaVuSerif-65" x="75.292969"/>
      <use xlink:href="#DejaVuSerif-61" x="134.472656"/>
      <use xlink:href="#DejaVuSerif-6c" x="194.091797"/>
     </g>
    </g>
   </g>
  </g>
 </g>
 <defs>
  <clipPath id="p6ddcac4d64">
   <rect x="50.365625" y="22.318125" width="357.12" height="120.96"/>
  </clipPath>
  <clipPath id="pf63fed9f09">
   <rect x="50.365625" y="167.470125" width="357.12" height="120.96"/>
  </clipPath>
 </defs>
</svg>
