<?xml version="1.0" encoding="utf-8" standalone="no"?>
<!DOCTYPE svg PUBLIC "-//W3C//DTD SVG 1.1//EN"
  "http://www.w3.org/Graphics/SVG/1.1/DTD/svg11.dtd">
<svg xmlns:xlink="http://www.w3.org/1999/xlink" width="423.065313pt" height="312.30825pt" viewBox="0 0 423.065313 312.30825" xmlns="http://www.w3.org/2000/svg" version="1.1">
 <metadata>
  <rdf:RDF xmlns:dc="http://purl.org/dc/elements/1.1/" xmlns:cc="http://creativecommons.org/ns#" xmlns:rdf="http://www.w3.org/1999/02/22-rdf-syntax-ns#">
   <cc:Work>
    <dc:type rdf:resource="http://purl.org/dc/dcmitype/StillImage"/>
    <dc:date>2024-11-06T21:53:20.842148</dc:date>
    <dc:format>image/svg+xml</dc:format>
    <dc:creator>
     <cc:Agent>
      <dc:title>Matplotlib v3.9.0, https://matplotlib.org/</dc:title>
     </cc:Agent>
    </dc:creator>
   </cc:Work>
  </rdf:RDF>
 </metadata>
 <defs>
  <style type="text/css">*{stroke-linejoin: round; stroke-linecap: butt}</style>
 </defs>
 <g id="figure_1">
  <g id="patch_1">
   <path d="M 0 312.30825 
L 423.065313 312.30825 
L 423.065313 0 
L 0 0 
z
" style="fill: #ffffff"/>
  </g>
  <g id="axes_1">
   <g id="patch_2">
    <path d="M 58.745313 143.278125 
L 415.865313 143.278125 
L 415.865313 22.318125 
L 58.745313 22.318125 
z
" style="fill: #ffffff"/>
   </g>
   <g id="patch_3">
    <path d="M -2642.546995 143.278125 
L -2615.076226 143.278125 
L -2615.076226 22.318125 
L -2642.546995 22.318125 
z
" clip-path="url(#pdfa7411da7)" style="fill: #d3d3d3"/>
   </g>
   <g id="patch_4">
    <path d="M -2583.026995 143.278125 
L -2564.713149 143.278125 
L -2564.713149 22.318125 
L -2583.026995 22.318125 
z
" clip-path="url(#pdfa7411da7)" style="fill: #d3d3d3"/>
   </g>
   <g id="patch_5">
    <path d="M -2500.614688 143.278125 
L -2463.986995 143.278125 
L -2463.986995 22.318125 
L -2500.614688 22.318125 
z
" clip-path="url(#pdfa7411da7)" style="fill: #d3d3d3"/>
   </g>
   <g id="patch_6">
    <path d="M -2422.780841 143.278125 
L -2395.310072 143.278125 
L -2395.310072 22.318125 
L -2422.780841 22.318125 
z
" clip-path="url(#pdfa7411da7)" style="fill: #d3d3d3"/>
   </g>
   <g id="patch_7">
    <path d="M -2344.946995 143.278125 
L -2244.220841 143.278125 
L -2244.220841 22.318125 
L -2344.946995 22.318125 
z
" clip-path="url(#pdfa7411da7)" style="fill: #d3d3d3"/>
   </g>
   <g id="patch_8">
    <path d="M -2189.279303 143.278125 
L -2129.759303 143.278125 
L -2129.759303 22.318125 
L -2189.279303 22.318125 
z
" clip-path="url(#pdfa7411da7)" style="fill: #d3d3d3"/>
   </g>
   <g id="patch_9">
    <path d="M -2093.131611 143.278125 
L -2079.396226 143.278125 
L -2079.396226 22.318125 
L -2093.131611 22.318125 
z
" clip-path="url(#pdfa7411da7)" style="fill: #d3d3d3"/>
   </g>
   <g id="patch_10">
    <path d="M -2033.611611 143.278125 
L -2019.876226 143.278125 
L -2019.876226 22.318125 
L -2033.611611 22.318125 
z
" clip-path="url(#pdfa7411da7)" style="fill: #d3d3d3"/>
   </g>
   <g id="patch_11">
    <path d="M -1987.826995 143.278125 
L -1964.934688 143.278125 
L -1964.934688 22.318125 
L -1987.826995 22.318125 
z
" clip-path="url(#pdfa7411da7)" style="fill: #d3d3d3"/>
   </g>
   <g id="patch_12">
    <path d="M -1937.463918 143.278125 
L -1909.993149 143.278125 
L -1909.993149 22.318125 
L -1937.463918 22.318125 
z
" clip-path="url(#pdfa7411da7)" style="fill: #d3d3d3"/>
   </g>
   <g id="patch_13">
    <path d="M -1868.786995 143.278125 
L -1845.894688 143.278125 
L -1845.894688 22.318125 
L -1868.786995 22.318125 
z
" clip-path="url(#pdfa7411da7)" style="fill: #d3d3d3"/>
   </g>
   <g id="patch_14">
    <path d="M -1809.266995 143.278125 
L -1777.217764 143.278125 
L -1777.217764 22.318125 
L -1809.266995 22.318125 
z
" clip-path="url(#pdfa7411da7)" style="fill: #d3d3d3"/>
   </g>
   <g id="patch_15">
    <path d="M -1726.854688 143.278125 
L -1708.540841 143.278125 
L -1708.540841 22.318125 
L -1726.854688 22.318125 
z
" clip-path="url(#pdfa7411da7)" style="fill: #d3d3d3"/>
   </g>
   <g id="patch_16">
    <path d="M -1676.491611 143.278125 
L -1644.44238 143.278125 
L -1644.44238 22.318125 
L -1676.491611 22.318125 
z
" clip-path="url(#pdfa7411da7)" style="fill: #d3d3d3"/>
   </g>
   <g id="patch_17">
    <path d="M -1621.550072 143.278125 
L -1589.500841 143.278125 
L -1589.500841 22.318125 
L -1621.550072 22.318125 
z
" clip-path="url(#pdfa7411da7)" style="fill: #d3d3d3"/>
   </g>
   <g id="patch_18">
    <path d="M -1520.823918 143.278125 
L -1511.666995 143.278125 
L -1511.666995 22.318125 
L -1520.823918 22.318125 
z
" clip-path="url(#pdfa7411da7)" style="fill: #d3d3d3"/>
   </g>
   <g id="patch_19">
    <path d="M -1493.353149 143.278125 
L -1465.88238 143.278125 
L -1465.88238 22.318125 
L -1493.353149 22.318125 
z
" clip-path="url(#pdfa7411da7)" style="fill: #d3d3d3"/>
   </g>
   <g id="patch_20">
    <path d="M -1433.833149 143.278125 
L -1410.940841 143.278125 
L -1410.940841 22.318125 
L -1433.833149 22.318125 
z
" clip-path="url(#pdfa7411da7)" style="fill: #d3d3d3"/>
   </g>
   <g id="patch_21">
    <path d="M -1374.313149 143.278125 
L -1351.420841 143.278125 
L -1351.420841 22.318125 
L -1374.313149 22.318125 
z
" clip-path="url(#pdfa7411da7)" style="fill: #d3d3d3"/>
   </g>
   <g id="patch_22">
    <path d="M -1319.371611 143.278125 
L -1255.273149 143.278125 
L -1255.273149 22.318125 
L -1319.371611 22.318125 
z
" clip-path="url(#pdfa7411da7)" style="fill: #d3d3d3"/>
   </g>
   <g id="patch_23">
    <path d="M -1177.439303 143.278125 
L -1159.125457 143.278125 
L -1159.125457 22.318125 
L -1177.439303 22.318125 
z
" clip-path="url(#pdfa7411da7)" style="fill: #d3d3d3"/>
   </g>
   <g id="patch_24">
    <path d="M -1035.506995 143.278125 
L -1021.771611 143.278125 
L -1021.771611 22.318125 
L -1035.506995 22.318125 
z
" clip-path="url(#pdfa7411da7)" style="fill: #d3d3d3"/>
   </g>
   <g id="patch_25">
    <path d="M -966.830072 143.278125 
L -948.516226 143.278125 
L -948.516226 22.318125 
L -966.830072 22.318125 
z
" clip-path="url(#pdfa7411da7)" style="fill: #d3d3d3"/>
   </g>
   <g id="patch_26">
    <path d="M -884.417764 143.278125 
L -866.103918 143.278125 
L -866.103918 22.318125 
L -884.417764 22.318125 
z
" clip-path="url(#pdfa7411da7)" style="fill: #d3d3d3"/>
   </g>
   <g id="patch_27">
    <path d="M -806.583918 143.278125 
L -792.848534 143.278125 
L -792.848534 22.318125 
L -806.583918 22.318125 
z
" clip-path="url(#pdfa7411da7)" style="fill: #d3d3d3"/>
   </g>
   <g id="patch_28">
    <path d="M -756.220841 143.278125 
L -742.485457 143.278125 
L -742.485457 22.318125 
L -756.220841 22.318125 
z
" clip-path="url(#pdfa7411da7)" style="fill: #d3d3d3"/>
   </g>
   <g id="patch_29">
    <path d="M -582.239303 143.278125 
L -563.925457 143.278125 
L -563.925457 22.318125 
L -582.239303 22.318125 
z
" clip-path="url(#pdfa7411da7)" style="fill: #d3d3d3"/>
   </g>
   <g id="patch_30">
    <path d="M -508.983918 143.278125 
L -486.091611 143.278125 
L -486.091611 22.318125 
L -508.983918 22.318125 
z
" clip-path="url(#pdfa7411da7)" style="fill: #d3d3d3"/>
   </g>
   <g id="patch_31">
    <path d="M -394.52238 143.278125 
L -385.365457 143.278125 
L -385.365457 22.318125 
L -394.52238 22.318125 
z
" clip-path="url(#pdfa7411da7)" style="fill: #d3d3d3"/>
   </g>
   <g id="patch_32">
    <path d="M -367.051611 143.278125 
L -344.159303 143.278125 
L -344.159303 22.318125 
L -367.051611 22.318125 
z
" clip-path="url(#pdfa7411da7)" style="fill: #d3d3d3"/>
   </g>
   <g id="patch_33">
    <path d="M -202.226995 143.278125 
L -193.070072 143.278125 
L -193.070072 22.318125 
L -202.226995 22.318125 
z
" clip-path="url(#pdfa7411da7)" style="fill: #d3d3d3"/>
   </g>
   <g id="patch_34">
    <path d="M -9.931611 143.278125 
L 3.803774 143.278125 
L 3.803774 22.318125 
L -9.931611 22.318125 
z
" clip-path="url(#pdfa7411da7)" style="fill: #d3d3d3"/>
   </g>
   <g id="patch_35">
    <path d="M 113.686851 143.278125 
L 141.15762 143.278125 
L 141.15762 22.318125 
L 113.686851 22.318125 
z
" clip-path="url(#pdfa7411da7)" style="fill: #d3d3d3"/>
   </g>
   <g id="patch_36">
    <path d="M 333.453005 143.278125 
L 342.609928 143.278125 
L 342.609928 22.318125 
L 333.453005 22.318125 
z
" clip-path="url(#pdfa7411da7)" style="fill: #d3d3d3"/>
   </g>
   <g id="matplotlib.axis_1">
    <g id="xtick_1">
     <g id="line2d_1">
      <defs>
       <path id="m0b5944a448" d="M 0 0 
L 0 3.5 
" style="stroke: #000000; stroke-width: 0.8"/>
      </defs>
      <g>
       <use xlink:href="#m0b5944a448" x="63.323774" y="143.278125" style="stroke: #000000; stroke-width: 0.8"/>
      </g>
     </g>
     <g id="text_1">
      <!-- 2005 -->
      <g transform="translate(50.598774 157.876562) scale(0.1 -0.1)">
       <defs>
        <path id="DejaVuSerif-32" d="M 819 3553 
L 469 3553 
L 469 4384 
Q 803 4563 1142 4656 
Q 1481 4750 1806 4750 
Q 2534 4750 2956 4397 
Q 3378 4044 3378 3438 
Q 3378 2753 2422 1800 
Q 2347 1728 2309 1691 
L 1131 513 
L 3078 513 
L 3078 1088 
L 3444 1088 
L 3444 0 
L 434 0 
L 434 341 
L 1850 1753 
Q 2319 2222 2519 2614 
Q 2719 3006 2719 3438 
Q 2719 3909 2473 4175 
Q 2228 4441 1797 4441 
Q 1350 4441 1106 4219 
Q 863 3997 819 3553 
z
" transform="scale(0.015625)"/>
        <path id="DejaVuSerif-30" d="M 2034 219 
Q 2513 219 2750 744 
Q 2988 1269 2988 2328 
Q 2988 3391 2750 3916 
Q 2513 4441 2034 4441 
Q 1556 4441 1318 3916 
Q 1081 3391 1081 2328 
Q 1081 1269 1318 744 
Q 1556 219 2034 219 
z
M 2034 -91 
Q 1275 -91 848 546 
Q 422 1184 422 2328 
Q 422 3475 848 4112 
Q 1275 4750 2034 4750 
Q 2797 4750 3222 4112 
Q 3647 3475 3647 2328 
Q 3647 1184 3222 546 
Q 2797 -91 2034 -91 
z
" transform="scale(0.015625)"/>
        <path id="DejaVuSerif-35" d="M 3219 4666 
L 3219 4153 
L 1081 4153 
L 1081 2816 
Q 1244 2928 1461 2984 
Q 1678 3041 1947 3041 
Q 2703 3041 3140 2622 
Q 3578 2203 3578 1478 
Q 3578 738 3136 323 
Q 2694 -91 1894 -91 
Q 1572 -91 1234 -12 
Q 897 66 544 225 
L 544 1131 
L 897 1131 
Q 925 688 1179 453 
Q 1434 219 1894 219 
Q 2388 219 2653 544 
Q 2919 869 2919 1478 
Q 2919 2084 2655 2407 
Q 2391 2731 1894 2731 
Q 1613 2731 1398 2631 
Q 1184 2531 1019 2322 
L 750 2322 
L 750 4666 
L 3219 4666 
z
" transform="scale(0.015625)"/>
       </defs>
       <use xlink:href="#DejaVuSerif-32"/>
       <use xlink:href="#DejaVuSerif-30" x="63.623047"/>
       <use xlink:href="#DejaVuSerif-30" x="127.246094"/>
       <use xlink:href="#DejaVuSerif-35" x="190.869141"/>
      </g>
     </g>
    </g>
    <g id="xtick_2">
     <g id="line2d_2">
      <g>
       <use xlink:href="#m0b5944a448" x="99.951466" y="143.278125" style="stroke: #000000; stroke-width: 0.8"/>
      </g>
     </g>
     <g id="text_2">
      <!-- 2007 -->
      <g transform="translate(87.226466 157.876562) scale(0.1 -0.1)">
       <defs>
        <path id="DejaVuSerif-37" d="M 3609 4347 
L 1784 0 
L 1319 0 
L 3059 4153 
L 903 4153 
L 903 3578 
L 538 3578 
L 538 4666 
L 3609 4666 
L 3609 4347 
z
" transform="scale(0.015625)"/>
       </defs>
       <use xlink:href="#DejaVuSerif-32"/>
       <use xlink:href="#DejaVuSerif-30" x="63.623047"/>
       <use xlink:href="#DejaVuSerif-30" x="127.246094"/>
       <use xlink:href="#DejaVuSerif-37" x="190.869141"/>
      </g>
     </g>
    </g>
    <g id="xtick_3">
     <g id="line2d_3">
      <g>
       <use xlink:href="#m0b5944a448" x="136.579159" y="143.278125" style="stroke: #000000; stroke-width: 0.8"/>
      </g>
     </g>
     <g id="text_3">
      <!-- 2009 -->
      <g transform="translate(123.854159 157.876562) scale(0.1 -0.1)">
       <defs>
        <path id="DejaVuSerif-39" d="M 2994 2091 
Q 2784 1856 2512 1740 
Q 2241 1625 1900 1625 
Q 1206 1625 804 2044 
Q 403 2463 403 3188 
Q 403 3897 839 4323 
Q 1275 4750 2003 4750 
Q 2794 4750 3217 4161 
Q 3641 3572 3641 2478 
Q 3641 1253 3137 581 
Q 2634 -91 1722 -91 
Q 1475 -91 1203 -44 
Q 931 3 647 97 
L 647 872 
L 997 872 
Q 1038 556 1241 387 
Q 1444 219 1784 219 
Q 2391 219 2687 676 
Q 2984 1134 2994 2091 
z
M 1978 4441 
Q 1534 4441 1298 4117 
Q 1063 3794 1063 3188 
Q 1063 2581 1298 2256 
Q 1534 1931 1978 1931 
Q 2422 1931 2658 2245 
Q 2894 2559 2894 3150 
Q 2894 3772 2656 4106 
Q 2419 4441 1978 4441 
z
" transform="scale(0.015625)"/>
       </defs>
       <use xlink:href="#DejaVuSerif-32"/>
       <use xlink:href="#DejaVuSerif-30" x="63.623047"/>
       <use xlink:href="#DejaVuSerif-30" x="127.246094"/>
       <use xlink:href="#DejaVuSerif-39" x="190.869141"/>
      </g>
     </g>
    </g>
    <g id="xtick_4">
     <g id="line2d_4">
      <g>
       <use xlink:href="#m0b5944a448" x="173.206851" y="143.278125" style="stroke: #000000; stroke-width: 0.8"/>
      </g>
     </g>
     <g id="text_4">
      <!-- 2011 -->
      <g transform="translate(160.481851 157.876562) scale(0.1 -0.1)">
       <defs>
        <path id="DejaVuSerif-31" d="M 909 0 
L 909 331 
L 1722 331 
L 1722 4213 
L 781 3603 
L 781 4013 
L 1919 4750 
L 2350 4750 
L 2350 331 
L 3163 331 
L 3163 0 
L 909 0 
z
" transform="scale(0.015625)"/>
       </defs>
       <use xlink:href="#DejaVuSerif-32"/>
       <use xlink:href="#DejaVuSerif-30" x="63.623047"/>
       <use xlink:href="#DejaVuSerif-31" x="127.246094"/>
       <use xlink:href="#DejaVuSerif-31" x="190.869141"/>
      </g>
     </g>
    </g>
    <g id="xtick_5">
     <g id="line2d_5">
      <g>
       <use xlink:href="#m0b5944a448" x="209.834543" y="143.278125" style="stroke: #000000; stroke-width: 0.8"/>
      </g>
     </g>
     <g id="text_5">
      <!-- 2013 -->
      <g transform="translate(197.109543 157.876562) scale(0.1 -0.1)">
       <defs>
        <path id="DejaVuSerif-33" d="M 622 4469 
Q 988 4606 1323 4678 
Q 1659 4750 1953 4750 
Q 2638 4750 3022 4454 
Q 3406 4159 3406 3634 
Q 3406 3213 3140 2930 
Q 2875 2647 2388 2547 
Q 2963 2466 3280 2130 
Q 3597 1794 3597 1259 
Q 3597 606 3158 257 
Q 2719 -91 1894 -91 
Q 1528 -91 1179 -12 
Q 831 66 488 225 
L 488 1131 
L 838 1131 
Q 869 681 1141 450 
Q 1413 219 1906 219 
Q 2384 219 2661 495 
Q 2938 772 2938 1253 
Q 2938 1803 2653 2086 
Q 2369 2369 1819 2369 
L 1522 2369 
L 1522 2688 
L 1678 2688 
Q 2225 2688 2498 2914 
Q 2772 3141 2772 3597 
Q 2772 4006 2547 4223 
Q 2322 4441 1900 4441 
Q 1478 4441 1245 4241 
Q 1013 4041 972 3647 
L 622 3647 
L 622 4469 
z
" transform="scale(0.015625)"/>
       </defs>
       <use xlink:href="#DejaVuSerif-32"/>
       <use xlink:href="#DejaVuSerif-30" x="63.623047"/>
       <use xlink:href="#DejaVuSerif-31" x="127.246094"/>
       <use xlink:href="#DejaVuSerif-33" x="190.869141"/>
      </g>
     </g>
    </g>
    <g id="xtick_6">
     <g id="line2d_6">
      <g>
       <use xlink:href="#m0b5944a448" x="246.462236" y="143.278125" style="stroke: #000000; stroke-width: 0.8"/>
      </g>
     </g>
     <g id="text_6">
      <!-- 2015 -->
      <g transform="translate(233.737236 157.876562) scale(0.1 -0.1)">
       <use xlink:href="#DejaVuSerif-32"/>
       <use xlink:href="#DejaVuSerif-30" x="63.623047"/>
       <use xlink:href="#DejaVuSerif-31" x="127.246094"/>
       <use xlink:href="#DejaVuSerif-35" x="190.869141"/>
      </g>
     </g>
    </g>
    <g id="xtick_7">
     <g id="line2d_7">
      <g>
       <use xlink:href="#m0b5944a448" x="283.089928" y="143.278125" style="stroke: #000000; stroke-width: 0.8"/>
      </g>
     </g>
     <g id="text_7">
      <!-- 2017 -->
      <g transform="translate(270.364928 157.876562) scale(0.1 -0.1)">
       <use xlink:href="#DejaVuSerif-32"/>
       <use xlink:href="#DejaVuSerif-30" x="63.623047"/>
       <use xlink:href="#DejaVuSerif-31" x="127.246094"/>
       <use xlink:href="#DejaVuSerif-37" x="190.869141"/>
      </g>
     </g>
    </g>
    <g id="xtick_8">
     <g id="line2d_8">
      <g>
       <use xlink:href="#m0b5944a448" x="319.71762" y="143.278125" style="stroke: #000000; stroke-width: 0.8"/>
      </g>
     </g>
     <g id="text_8">
      <!-- 2019 -->
      <g transform="translate(306.99262 157.876562) scale(0.1 -0.1)">
       <use xlink:href="#DejaVuSerif-32"/>
       <use xlink:href="#DejaVuSerif-30" x="63.623047"/>
       <use xlink:href="#DejaVuSerif-31" x="127.246094"/>
       <use xlink:href="#DejaVuSerif-39" x="190.869141"/>
      </g>
     </g>
    </g>
    <g id="xtick_9">
     <g id="line2d_9">
      <g>
       <use xlink:href="#m0b5944a448" x="356.345313" y="143.278125" style="stroke: #000000; stroke-width: 0.8"/>
      </g>
     </g>
     <g id="text_9">
      <!-- 2021 -->
      <g transform="translate(343.620313 157.876562) scale(0.1 -0.1)">
       <use xlink:href="#DejaVuSerif-32"/>
       <use xlink:href="#DejaVuSerif-30" x="63.623047"/>
       <use xlink:href="#DejaVuSerif-32" x="127.246094"/>
       <use xlink:href="#DejaVuSerif-31" x="190.869141"/>
      </g>
     </g>
    </g>
    <g id="xtick_10">
     <g id="line2d_10">
      <g>
       <use xlink:href="#m0b5944a448" x="392.973005" y="143.278125" style="stroke: #000000; stroke-width: 0.8"/>
      </g>
     </g>
     <g id="text_10">
      <!-- 2023 -->
      <g transform="translate(380.248005 157.876562) scale(0.1 -0.1)">
       <use xlink:href="#DejaVuSerif-32"/>
       <use xlink:href="#DejaVuSerif-30" x="63.623047"/>
       <use xlink:href="#DejaVuSerif-32" x="127.246094"/>
       <use xlink:href="#DejaVuSerif-33" x="190.869141"/>
      </g>
     </g>
    </g>
    <g id="xtick_11">
     <g id="line2d_11">
      <defs>
       <path id="m457c998258" d="M 0 0 
L 0 2 
" style="stroke: #000000; stroke-width: 0.6"/>
      </defs>
      <g>
       <use xlink:href="#m457c998258" x="81.63762" y="143.278125" style="stroke: #000000; stroke-width: 0.6"/>
      </g>
     </g>
    </g>
    <g id="xtick_12">
     <g id="line2d_12">
      <g>
       <use xlink:href="#m457c998258" x="118.265313" y="143.278125" style="stroke: #000000; stroke-width: 0.6"/>
      </g>
     </g>
    </g>
    <g id="xtick_13">
     <g id="line2d_13">
      <g>
       <use xlink:href="#m457c998258" x="154.893005" y="143.278125" style="stroke: #000000; stroke-width: 0.6"/>
      </g>
     </g>
    </g>
    <g id="xtick_14">
     <g id="line2d_14">
      <g>
       <use xlink:href="#m457c998258" x="191.520697" y="143.278125" style="stroke: #000000; stroke-width: 0.6"/>
      </g>
     </g>
    </g>
    <g id="xtick_15">
     <g id="line2d_15">
      <g>
       <use xlink:href="#m457c998258" x="228.148389" y="143.278125" style="stroke: #000000; stroke-width: 0.6"/>
      </g>
     </g>
    </g>
    <g id="xtick_16">
     <g id="line2d_16">
      <g>
       <use xlink:href="#m457c998258" x="264.776082" y="143.278125" style="stroke: #000000; stroke-width: 0.6"/>
      </g>
     </g>
    </g>
    <g id="xtick_17">
     <g id="line2d_17">
      <g>
       <use xlink:href="#m457c998258" x="301.403774" y="143.278125" style="stroke: #000000; stroke-width: 0.6"/>
      </g>
     </g>
    </g>
    <g id="xtick_18">
     <g id="line2d_18">
      <g>
       <use xlink:href="#m457c998258" x="338.031466" y="143.278125" style="stroke: #000000; stroke-width: 0.6"/>
      </g>
     </g>
    </g>
    <g id="xtick_19">
     <g id="line2d_19">
      <g>
       <use xlink:href="#m457c998258" x="374.659159" y="143.278125" style="stroke: #000000; stroke-width: 0.6"/>
      </g>
     </g>
    </g>
    <g id="xtick_20">
     <g id="line2d_20">
      <g>
       <use xlink:href="#m457c998258" x="411.286851" y="143.278125" style="stroke: #000000; stroke-width: 0.6"/>
      </g>
     </g>
    </g>
   </g>
   <g id="matplotlib.axis_2">
    <g id="ytick_1">
     <g id="line2d_21">
      <defs>
       <path id="mcba5dd215a" d="M 0 0 
L -3.5 0 
" style="stroke: #000000; stroke-width: 0.8"/>
      </defs>
      <g>
       <use xlink:href="#mcba5dd215a" x="58.745313" y="137.779943" style="stroke: #000000; stroke-width: 0.8"/>
      </g>
     </g>
     <g id="text_11">
      <!-- 0.0 -->
      <g transform="translate(35.842188 141.579162) scale(0.1 -0.1)">
       <defs>
        <path id="DejaVuSerif-2e" d="M 603 325 
Q 603 500 722 622 
Q 841 744 1019 744 
Q 1191 744 1312 622 
Q 1434 500 1434 325 
Q 1434 153 1312 31 
Q 1191 -91 1019 -91 
Q 841 -91 722 29 
Q 603 150 603 325 
z
" transform="scale(0.015625)"/>
       </defs>
       <use xlink:href="#DejaVuSerif-30"/>
       <use xlink:href="#DejaVuSerif-2e" x="63.623047"/>
       <use xlink:href="#DejaVuSerif-30" x="95.410156"/>
      </g>
     </g>
    </g>
    <g id="ytick_2">
     <g id="line2d_22">
      <g>
       <use xlink:href="#mcba5dd215a" x="58.745313" y="115.787216" style="stroke: #000000; stroke-width: 0.8"/>
      </g>
     </g>
     <g id="text_12">
      <!-- 0.2 -->
      <g transform="translate(35.842188 119.586435) scale(0.1 -0.1)">
       <use xlink:href="#DejaVuSerif-30"/>
       <use xlink:href="#DejaVuSerif-2e" x="63.623047"/>
       <use xlink:href="#DejaVuSerif-32" x="95.410156"/>
      </g>
     </g>
    </g>
    <g id="ytick_3">
     <g id="line2d_23">
      <g>
       <use xlink:href="#mcba5dd215a" x="58.745313" y="93.794489" style="stroke: #000000; stroke-width: 0.8"/>
      </g>
     </g>
     <g id="text_13">
      <!-- 0.4 -->
      <g transform="translate(35.842188 97.593707) scale(0.1 -0.1)">
       <defs>
        <path id="DejaVuSerif-34" d="M 2234 1581 
L 2234 4063 
L 641 1581 
L 2234 1581 
z
M 3609 0 
L 1484 0 
L 1484 331 
L 2234 331 
L 2234 1247 
L 197 1247 
L 197 1588 
L 2241 4750 
L 2859 4750 
L 2859 1581 
L 3750 1581 
L 3750 1247 
L 2859 1247 
L 2859 331 
L 3609 331 
L 3609 0 
z
" transform="scale(0.015625)"/>
       </defs>
       <use xlink:href="#DejaVuSerif-30"/>
       <use xlink:href="#DejaVuSerif-2e" x="63.623047"/>
       <use xlink:href="#DejaVuSerif-34" x="95.410156"/>
      </g>
     </g>
    </g>
    <g id="ytick_4">
     <g id="line2d_24">
      <g>
       <use xlink:href="#mcba5dd215a" x="58.745313" y="71.801761" style="stroke: #000000; stroke-width: 0.8"/>
      </g>
     </g>
     <g id="text_14">
      <!-- 0.6 -->
      <g transform="translate(35.842188 75.60098) scale(0.1 -0.1)">
       <defs>
        <path id="DejaVuSerif-36" d="M 2094 219 
Q 2534 219 2771 542 
Q 3009 866 3009 1472 
Q 3009 2078 2771 2401 
Q 2534 2725 2094 2725 
Q 1647 2725 1412 2412 
Q 1178 2100 1178 1509 
Q 1178 888 1415 553 
Q 1653 219 2094 219 
z
M 1075 2569 
Q 1288 2803 1556 2918 
Q 1825 3034 2163 3034 
Q 2859 3034 3264 2615 
Q 3669 2197 3669 1472 
Q 3669 763 3233 336 
Q 2797 -91 2069 -91 
Q 1278 -91 853 498 
Q 428 1088 428 2181 
Q 428 3406 931 4078 
Q 1434 4750 2350 4750 
Q 2597 4750 2869 4703 
Q 3141 4656 3425 4563 
L 3425 3794 
L 3072 3794 
Q 3034 4109 2831 4275 
Q 2628 4441 2284 4441 
Q 1678 4441 1381 3981 
Q 1084 3522 1075 2569 
z
" transform="scale(0.015625)"/>
       </defs>
       <use xlink:href="#DejaVuSerif-30"/>
       <use xlink:href="#DejaVuSerif-2e" x="63.623047"/>
       <use xlink:href="#DejaVuSerif-36" x="95.410156"/>
      </g>
     </g>
    </g>
    <g id="ytick_5">
     <g id="line2d_25">
      <g>
       <use xlink:href="#mcba5dd215a" x="58.745313" y="49.809034" style="stroke: #000000; stroke-width: 0.8"/>
      </g>
     </g>
     <g id="text_15">
      <!-- 0.8 -->
      <g transform="translate(35.842188 53.608253) scale(0.1 -0.1)">
       <defs>
        <path id="DejaVuSerif-38" d="M 2981 1275 
Q 2981 1775 2732 2051 
Q 2484 2328 2034 2328 
Q 1584 2328 1336 2051 
Q 1088 1775 1088 1275 
Q 1088 772 1336 495 
Q 1584 219 2034 219 
Q 2484 219 2732 495 
Q 2981 772 2981 1275 
z
M 2853 3541 
Q 2853 3966 2637 4203 
Q 2422 4441 2034 4441 
Q 1650 4441 1433 4203 
Q 1216 3966 1216 3541 
Q 1216 3113 1433 2875 
Q 1650 2638 2034 2638 
Q 2422 2638 2637 2875 
Q 2853 3113 2853 3541 
z
M 2516 2484 
Q 3047 2413 3344 2092 
Q 3641 1772 3641 1275 
Q 3641 619 3225 264 
Q 2809 -91 2034 -91 
Q 1263 -91 845 264 
Q 428 619 428 1275 
Q 428 1772 725 2092 
Q 1022 2413 1556 2484 
Q 1084 2569 832 2842 
Q 581 3116 581 3541 
Q 581 4103 968 4426 
Q 1356 4750 2034 4750 
Q 2713 4750 3100 4426 
Q 3488 4103 3488 3541 
Q 3488 3116 3236 2842 
Q 2984 2569 2516 2484 
z
" transform="scale(0.015625)"/>
       </defs>
       <use xlink:href="#DejaVuSerif-30"/>
       <use xlink:href="#DejaVuSerif-2e" x="63.623047"/>
       <use xlink:href="#DejaVuSerif-38" x="95.410156"/>
      </g>
     </g>
    </g>
    <g id="ytick_6">
     <g id="line2d_26">
      <g>
       <use xlink:href="#mcba5dd215a" x="58.745313" y="27.816307" style="stroke: #000000; stroke-width: 0.8"/>
      </g>
     </g>
     <g id="text_16">
      <!-- 1.0 -->
      <g transform="translate(35.842188 31.615526) scale(0.1 -0.1)">
       <use xlink:href="#DejaVuSerif-31"/>
       <use xlink:href="#DejaVuSerif-2e" x="63.623047"/>
       <use xlink:href="#DejaVuSerif-30" x="95.410156"/>
      </g>
     </g>
    </g>
    <g id="text_17">
     <!-- Prob. of being in $S_t=1$ -->
     <g transform="translate(29.542187 140.848125) rotate(-90) scale(0.1 -0.1)">
      <defs>
       <path id="DejaVuSerif-50" d="M 1581 2375 
L 2406 2375 
Q 2872 2375 3115 2626 
Q 3359 2878 3359 3353 
Q 3359 3831 3115 4081 
Q 2872 4331 2406 4331 
L 1581 4331 
L 1581 2375 
z
M 353 0 
L 353 331 
L 947 331 
L 947 4331 
L 353 4331 
L 353 4666 
L 2559 4666 
Q 3259 4666 3668 4311 
Q 4078 3956 4078 3353 
Q 4078 2753 3668 2397 
Q 3259 2041 2559 2041 
L 1581 2041 
L 1581 331 
L 2303 331 
L 2303 0 
L 353 0 
z
" transform="scale(0.015625)"/>
       <path id="DejaVuSerif-72" d="M 3059 3328 
L 3059 2497 
L 2728 2497 
Q 2713 2744 2591 2866 
Q 2469 2988 2234 2988 
Q 1809 2988 1582 2694 
Q 1356 2400 1356 1850 
L 1356 331 
L 2022 331 
L 2022 0 
L 263 0 
L 263 331 
L 781 331 
L 781 2994 
L 231 2994 
L 231 3322 
L 1356 3322 
L 1356 2731 
Q 1525 3078 1790 3245 
Q 2056 3413 2438 3413 
Q 2578 3413 2733 3391 
Q 2888 3369 3059 3328 
z
" transform="scale(0.015625)"/>
       <path id="DejaVuSerif-6f" d="M 1925 219 
Q 2388 219 2623 584 
Q 2859 950 2859 1663 
Q 2859 2375 2623 2739 
Q 2388 3103 1925 3103 
Q 1463 3103 1227 2739 
Q 991 2375 991 1663 
Q 991 950 1228 584 
Q 1466 219 1925 219 
z
M 1925 -91 
Q 1200 -91 759 389 
Q 319 869 319 1663 
Q 319 2456 758 2934 
Q 1197 3413 1925 3413 
Q 2653 3413 3092 2934 
Q 3531 2456 3531 1663 
Q 3531 869 3092 389 
Q 2653 -91 1925 -91 
z
" transform="scale(0.015625)"/>
       <path id="DejaVuSerif-62" d="M 738 331 
L 738 4531 
L 184 4531 
L 184 4863 
L 1313 4863 
L 1313 2803 
Q 1481 3116 1742 3264 
Q 2003 3413 2388 3413 
Q 3000 3413 3387 2928 
Q 3775 2444 3775 1663 
Q 3775 881 3387 395 
Q 3000 -91 2388 -91 
Q 2003 -91 1742 57 
Q 1481 206 1313 519 
L 1313 0 
L 184 0 
L 184 331 
L 738 331 
z
M 1313 1497 
Q 1313 897 1542 583 
Q 1772 269 2209 269 
Q 2650 269 2876 622 
Q 3103 975 3103 1663 
Q 3103 2353 2876 2703 
Q 2650 3053 2209 3053 
Q 1772 3053 1542 2737 
Q 1313 2422 1313 1825 
L 1313 1497 
z
" transform="scale(0.015625)"/>
       <path id="DejaVuSerif-20" transform="scale(0.015625)"/>
       <path id="DejaVuSerif-66" d="M 2753 4078 
L 2450 4078 
Q 2447 4313 2317 4434 
Q 2188 4556 1941 4556 
Q 1619 4556 1487 4379 
Q 1356 4203 1356 3750 
L 1356 3322 
L 2284 3322 
L 2284 2988 
L 1356 2988 
L 1356 331 
L 2094 331 
L 2094 0 
L 231 0 
L 231 331 
L 781 331 
L 781 2988 
L 231 2988 
L 231 3322 
L 781 3322 
L 781 3738 
Q 781 4294 1070 4578 
Q 1359 4863 1919 4863 
Q 2128 4863 2337 4825 
Q 2547 4788 2753 4709 
L 2753 4078 
z
" transform="scale(0.015625)"/>
       <path id="DejaVuSerif-65" d="M 3469 1600 
L 991 1600 
L 991 1575 
Q 991 903 1244 561 
Q 1497 219 1991 219 
Q 2369 219 2611 417 
Q 2853 616 2950 1006 
L 3413 1006 
Q 3275 459 2904 184 
Q 2534 -91 1931 -91 
Q 1203 -91 761 389 
Q 319 869 319 1663 
Q 319 2450 753 2931 
Q 1188 3413 1894 3413 
Q 2647 3413 3050 2948 
Q 3453 2484 3469 1600 
z
M 2791 1931 
Q 2772 2513 2545 2808 
Q 2319 3103 1894 3103 
Q 1497 3103 1269 2806 
Q 1041 2509 991 1931 
L 2791 1931 
z
" transform="scale(0.015625)"/>
       <path id="DejaVuSerif-69" d="M 622 4353 
Q 622 4497 726 4603 
Q 831 4709 978 4709 
Q 1122 4709 1226 4603 
Q 1331 4497 1331 4353 
Q 1331 4206 1228 4103 
Q 1125 4000 978 4000 
Q 831 4000 726 4103 
Q 622 4206 622 4353 
z
M 1356 331 
L 1900 331 
L 1900 0 
L 231 0 
L 231 331 
L 781 331 
L 781 2988 
L 231 2988 
L 231 3322 
L 1356 3322 
L 1356 331 
z
" transform="scale(0.015625)"/>
       <path id="DejaVuSerif-6e" d="M 263 0 
L 263 331 
L 781 331 
L 781 2988 
L 231 2988 
L 231 3322 
L 1356 3322 
L 1356 2731 
Q 1516 3069 1770 3241 
Q 2025 3413 2363 3413 
Q 2913 3413 3172 3097 
Q 3431 2781 3431 2113 
L 3431 331 
L 3944 331 
L 3944 0 
L 2356 0 
L 2356 331 
L 2853 331 
L 2853 1931 
Q 2853 2541 2703 2767 
Q 2553 2994 2175 2994 
Q 1775 2994 1565 2701 
Q 1356 2409 1356 1850 
L 1356 331 
L 1856 331 
L 1856 0 
L 263 0 
z
" transform="scale(0.015625)"/>
       <path id="DejaVuSerif-67" d="M 3359 2988 
L 3359 72 
Q 3359 -644 2965 -1033 
Q 2572 -1422 1844 -1422 
Q 1516 -1422 1216 -1362 
Q 916 -1303 641 -1184 
L 641 -488 
L 941 -488 
Q 997 -813 1206 -963 
Q 1416 -1113 1806 -1113 
Q 2313 -1113 2548 -827 
Q 2784 -541 2784 72 
L 2784 519 
Q 2616 206 2355 57 
Q 2094 -91 1709 -91 
Q 1097 -91 708 395 
Q 319 881 319 1663 
Q 319 2444 706 2928 
Q 1094 3413 1709 3413 
Q 2094 3413 2355 3264 
Q 2616 3116 2784 2803 
L 2784 3322 
L 3909 3322 
L 3909 2988 
L 3359 2988 
z
M 2784 1825 
Q 2784 2422 2554 2737 
Q 2325 3053 1888 3053 
Q 1444 3053 1217 2703 
Q 991 2353 991 1663 
Q 991 975 1217 622 
Q 1444 269 1888 269 
Q 2325 269 2554 583 
Q 2784 897 2784 1497 
L 2784 1825 
z
" transform="scale(0.015625)"/>
       <path id="DejaVuSerif-Italic-53" d="M 184 225 
L 391 1288 
L 750 1284 
Q 663 753 905 498 
Q 1147 244 1744 244 
Q 2300 244 2636 464 
Q 2972 684 3053 1106 
Q 3119 1444 2976 1625 
Q 2834 1806 2300 1978 
L 1722 2163 
Q 1091 2366 877 2669 
Q 663 2972 766 3500 
Q 881 4094 1367 4422 
Q 1853 4750 2616 4750 
Q 2941 4750 3314 4679 
Q 3688 4609 4097 4475 
L 3906 3481 
L 3553 3481 
Q 3594 3975 3361 4195 
Q 3128 4416 2563 4416 
Q 2069 4416 1772 4214 
Q 1475 4013 1400 3628 
Q 1334 3294 1490 3103 
Q 1647 2913 2241 2725 
L 2784 2553 
Q 3381 2363 3593 2067 
Q 3806 1772 3709 1275 
Q 3578 597 3076 253 
Q 2575 -91 1716 -91 
Q 1331 -91 948 -12 
Q 566 66 184 225 
z
" transform="scale(0.015625)"/>
       <path id="DejaVuSerif-Italic-74" d="M 856 2988 
L 350 2988 
L 416 3322 
L 922 3322 
L 1122 4353 
L 1700 4353 
L 1500 3322 
L 2581 3322 
L 2516 2988 
L 1434 2988 
L 1025 878 
Q 978 631 978 488 
Q 978 388 1000 338 
Q 1059 219 1278 219 
Q 1503 219 1633 351 
Q 1763 484 1825 781 
L 2259 781 
Q 2147 328 1884 118 
Q 1622 -91 1169 -91 
Q 672 -91 506 131 
Q 406 266 406 516 
Q 406 675 447 878 
L 856 2988 
z
" transform="scale(0.015625)"/>
       <path id="DejaVuSerif-3d" d="M 678 2894 
L 4684 2894 
L 4684 2394 
L 678 2394 
L 678 2894 
z
M 678 1619 
L 4684 1619 
L 4684 1119 
L 678 1119 
L 678 1619 
z
" transform="scale(0.015625)"/>
      </defs>
      <use xlink:href="#DejaVuSerif-50" transform="translate(0 0.015625)"/>
      <use xlink:href="#DejaVuSerif-72" transform="translate(67.285156 0.015625)"/>
      <use xlink:href="#DejaVuSerif-6f" transform="translate(115.087891 0.015625)"/>
      <use xlink:href="#DejaVuSerif-62" transform="translate(175.292969 0.015625)"/>
      <use xlink:href="#DejaVuSerif-2e" transform="translate(239.306641 0.015625)"/>
      <use xlink:href="#DejaVuSerif-20" transform="translate(271.09375 0.015625)"/>
      <use xlink:href="#DejaVuSerif-6f" transform="translate(302.880859 0.015625)"/>
      <use xlink:href="#DejaVuSerif-66" transform="translate(363.085938 0.015625)"/>
      <use xlink:href="#DejaVuSerif-20" transform="translate(400.097656 0.015625)"/>
      <use xlink:href="#DejaVuSerif-62" transform="translate(431.884766 0.015625)"/>
      <use xlink:href="#DejaVuSerif-65" transform="translate(495.898438 0.015625)"/>
      <use xlink:href="#DejaVuSerif-69" transform="translate(555.078125 0.015625)"/>
      <use xlink:href="#DejaVuSerif-6e" transform="translate(587.060547 0.015625)"/>
      <use xlink:href="#DejaVuSerif-67" transform="translate(651.464844 0.015625)"/>
      <use xlink:href="#DejaVuSerif-20" transform="translate(715.478516 0.015625)"/>
      <use xlink:href="#DejaVuSerif-69" transform="translate(747.265625 0.015625)"/>
      <use xlink:href="#DejaVuSerif-6e" transform="translate(779.248047 0.015625)"/>
      <use xlink:href="#DejaVuSerif-20" transform="translate(843.652344 0.015625)"/>
      <use xlink:href="#DejaVuSerif-Italic-53" transform="translate(875.439453 0.015625)"/>
      <use xlink:href="#DejaVuSerif-Italic-74" transform="translate(943.945312 -15.55625) scale(0.7)"/>
      <use xlink:href="#DejaVuSerif-3d" transform="translate(993.635352 0.015625)"/>
      <use xlink:href="#DejaVuSerif-31" transform="translate(1096.389258 0.015625)"/>
     </g>
    </g>
   </g>
   <g id="line2d_27">
    <path d="M 58.745313 137.669608 
L 63.323774 137.77612 
L 67.902236 137.779041 
L 72.480697 137.779895 
L 77.059159 137.779939 
L 81.63762 137.770659 
L 86.216082 137.779032 
L 90.794543 137.755994 
L 95.373005 137.777419 
L 99.951466 137.745248 
L 104.529928 137.651805 
L 109.108389 137.410212 
L 113.686851 133.918754 
L 118.265313 124.409835 
L 122.843774 93.48341 
L 127.422236 27.839112 
L 132.000697 28.348059 
L 136.579159 137.403492 
L 141.15762 137.57402 
L 145.736082 137.779942 
L 150.314543 137.779943 
L 154.893005 137.779922 
L 159.471466 137.779943 
L 164.049928 137.779943 
L 168.628389 137.779933 
L 173.206851 137.779923 
L 177.785313 137.779943 
L 182.363774 137.767025 
L 186.942236 137.779496 
L 191.520697 137.779649 
L 196.099159 137.765439 
L 200.67762 137.779943 
L 205.256082 137.779943 
L 209.834543 137.779908 
L 214.413005 137.779909 
L 218.991466 137.104084 
L 223.569928 130.192165 
L 228.148389 109.799115 
L 232.726851 27.818073 
L 237.305313 27.816307 
L 241.883774 27.816435 
L 246.462236 27.988465 
L 251.040697 136.930309 
L 255.619159 137.779327 
L 260.19762 137.779708 
L 264.776082 137.779943 
L 269.354543 137.779943 
L 273.933005 137.779931 
L 278.511466 137.779747 
L 283.089928 137.777637 
L 287.668389 137.777886 
L 292.246851 137.77987 
L 296.825313 137.779921 
L 301.403774 137.698208 
L 305.982236 137.779935 
L 310.560697 137.774292 
L 315.139159 137.3951 
L 319.71762 137.779826 
L 324.296082 137.751853 
L 328.874543 137.766423 
L 333.453005 137.77976 
L 338.031466 137.735513 
L 342.609928 137.773498 
L 347.188389 137.647559 
L 351.766851 136.936626 
L 356.345313 137.779943 
L 360.923774 137.779943 
L 365.502236 137.779943 
L 370.080697 137.779943 
L 374.659159 137.779943 
L 379.23762 28.139541 
L 383.816082 27.81665 
L 388.394543 27.816307 
L 392.973005 27.816307 
L 397.551466 27.816308 
L 402.129928 27.816529 
L 406.708389 27.819023 
L 411.286851 28.504717 
L 415.865313 28.573914 
" clip-path="url(#pdfa7411da7)" style="fill: none; stroke: #1f77b4; stroke-width: 1.5; stroke-linecap: square"/>
   </g>
   <g id="patch_37">
    <path d="M 58.745313 143.278125 
L 58.745313 22.318125 
" style="fill: none; stroke: #000000; stroke-width: 0.8; stroke-linejoin: miter; stroke-linecap: square"/>
   </g>
   <g id="patch_38">
    <path d="M 415.865313 143.278125 
L 415.865313 22.318125 
" style="fill: none; stroke: #000000; stroke-width: 0.8; stroke-linejoin: miter; stroke-linecap: square"/>
   </g>
   <g id="patch_39">
    <path d="M 58.745313 143.278125 
L 415.865313 143.278125 
" style="fill: none; stroke: #000000; stroke-width: 0.8; stroke-linejoin: miter; stroke-linecap: square"/>
   </g>
   <g id="patch_40">
    <path d="M 58.745313 22.318125 
L 415.865313 22.318125 
" style="fill: none; stroke: #000000; stroke-width: 0.8; stroke-linejoin: miter; stroke-linecap: square"/>
   </g>
   <g id="text_18">
    <!-- Japan -->
    <g transform="translate(220.039375 16.318125) scale(0.12 -0.12)">
     <defs>
      <path id="DejaVuSerif-4a" d="M -538 -1119 
L -538 -384 
L -181 -384 
Q -172 -694 -34 -845 
Q 103 -997 378 -997 
Q 750 -997 897 -762 
Q 1044 -528 1044 153 
L 1044 4331 
L 319 4331 
L 319 4666 
L 2272 4666 
L 2272 4331 
L 1678 4331 
L 1678 128 
Q 1678 -644 1368 -987 
Q 1059 -1331 372 -1331 
Q 150 -1331 -79 -1278 
Q -309 -1225 -538 -1119 
z
" transform="scale(0.015625)"/>
      <path id="DejaVuSerif-61" d="M 2547 1044 
L 2547 1747 
L 1806 1747 
Q 1378 1747 1168 1562 
Q 959 1378 959 997 
Q 959 650 1171 447 
Q 1384 244 1747 244 
Q 2106 244 2326 466 
Q 2547 688 2547 1044 
z
M 3122 2075 
L 3122 331 
L 3634 331 
L 3634 0 
L 2547 0 
L 2547 359 
Q 2356 128 2106 18 
Q 1856 -91 1522 -91 
Q 969 -91 644 203 
Q 319 497 319 997 
Q 319 1513 691 1797 
Q 1063 2081 1741 2081 
L 2547 2081 
L 2547 2309 
Q 2547 2688 2317 2895 
Q 2088 3103 1672 3103 
Q 1328 3103 1125 2947 
Q 922 2791 872 2484 
L 575 2484 
L 575 3156 
Q 875 3284 1158 3348 
Q 1441 3413 1709 3413 
Q 2400 3413 2761 3070 
Q 3122 2728 3122 2075 
z
" transform="scale(0.015625)"/>
      <path id="DejaVuSerif-70" d="M 1313 1825 
L 1313 1497 
Q 1313 897 1542 583 
Q 1772 269 2209 269 
Q 2650 269 2876 622 
Q 3103 975 3103 1663 
Q 3103 2353 2876 2703 
Q 2650 3053 2209 3053 
Q 1772 3053 1542 2737 
Q 1313 2422 1313 1825 
z
M 738 2988 
L 184 2988 
L 184 3322 
L 1313 3322 
L 1313 2803 
Q 1481 3116 1742 3264 
Q 2003 3413 2388 3413 
Q 3000 3413 3387 2928 
Q 3775 2444 3775 1663 
Q 3775 881 3387 395 
Q 3000 -91 2388 -91 
Q 2003 -91 1742 57 
Q 1481 206 1313 519 
L 1313 -997 
L 1856 -997 
L 1856 -1331 
L 184 -1331 
L 184 -997 
L 738 -997 
L 738 2988 
z
" transform="scale(0.015625)"/>
     </defs>
     <use xlink:href="#DejaVuSerif-4a"/>
     <use xlink:href="#DejaVuSerif-61" x="40.087891"/>
     <use xlink:href="#DejaVuSerif-70" x="99.707031"/>
     <use xlink:href="#DejaVuSerif-61" x="163.720703"/>
     <use xlink:href="#DejaVuSerif-6e" x="223.339844"/>
    </g>
   </g>
  </g>
  <g id="axes_2">
   <g id="patch_41">
    <path d="M 58.745313 288.430125 
L 415.865313 288.430125 
L 415.865313 167.470125 
L 58.745313 167.470125 
z
" style="fill: #ffffff"/>
   </g>
   <g id="patch_42">
    <path d="M -2642.546995 288.430125 
L -2615.076226 288.430125 
L -2615.076226 167.470125 
L -2642.546995 167.470125 
z
" clip-path="url(#p0d75365c1b)" style="fill: #d3d3d3"/>
   </g>
   <g id="patch_43">
    <path d="M -2583.026995 288.430125 
L -2564.713149 288.430125 
L -2564.713149 167.470125 
L -2583.026995 167.470125 
z
" clip-path="url(#p0d75365c1b)" style="fill: #d3d3d3"/>
   </g>
   <g id="patch_44">
    <path d="M -2500.614688 288.430125 
L -2463.986995 288.430125 
L -2463.986995 167.470125 
L -2500.614688 167.470125 
z
" clip-path="url(#p0d75365c1b)" style="fill: #d3d3d3"/>
   </g>
   <g id="patch_45">
    <path d="M -2422.780841 288.430125 
L -2395.310072 288.430125 
L -2395.310072 167.470125 
L -2422.780841 167.470125 
z
" clip-path="url(#p0d75365c1b)" style="fill: #d3d3d3"/>
   </g>
   <g id="patch_46">
    <path d="M -2344.946995 288.430125 
L -2244.220841 288.430125 
L -2244.220841 167.470125 
L -2344.946995 167.470125 
z
" clip-path="url(#p0d75365c1b)" style="fill: #d3d3d3"/>
   </g>
   <g id="patch_47">
    <path d="M -2189.279303 288.430125 
L -2129.759303 288.430125 
L -2129.759303 167.470125 
L -2189.279303 167.470125 
z
" clip-path="url(#p0d75365c1b)" style="fill: #d3d3d3"/>
   </g>
   <g id="patch_48">
    <path d="M -2093.131611 288.430125 
L -2079.396226 288.430125 
L -2079.396226 167.470125 
L -2093.131611 167.470125 
z
" clip-path="url(#p0d75365c1b)" style="fill: #d3d3d3"/>
   </g>
   <g id="patch_49">
    <path d="M -2033.611611 288.430125 
L -2019.876226 288.430125 
L -2019.876226 167.470125 
L -2033.611611 167.470125 
z
" clip-path="url(#p0d75365c1b)" style="fill: #d3d3d3"/>
   </g>
   <g id="patch_50">
    <path d="M -1987.826995 288.430125 
L -1964.934688 288.430125 
L -1964.934688 167.470125 
L -1987.826995 167.470125 
z
" clip-path="url(#p0d75365c1b)" style="fill: #d3d3d3"/>
   </g>
   <g id="patch_51">
    <path d="M -1937.463918 288.430125 
L -1909.993149 288.430125 
L -1909.993149 167.470125 
L -1937.463918 167.470125 
z
" clip-path="url(#p0d75365c1b)" style="fill: #d3d3d3"/>
   </g>
   <g id="patch_52">
    <path d="M -1868.786995 288.430125 
L -1845.894688 288.430125 
L -1845.894688 167.470125 
L -1868.786995 167.470125 
z
" clip-path="url(#p0d75365c1b)" style="fill: #d3d3d3"/>
   </g>
   <g id="patch_53">
    <path d="M -1809.266995 288.430125 
L -1777.217764 288.430125 
L -1777.217764 167.470125 
L -1809.266995 167.470125 
z
" clip-path="url(#p0d75365c1b)" style="fill: #d3d3d3"/>
   </g>
   <g id="patch_54">
    <path d="M -1726.854688 288.430125 
L -1708.540841 288.430125 
L -1708.540841 167.470125 
L -1726.854688 167.470125 
z
" clip-path="url(#p0d75365c1b)" style="fill: #d3d3d3"/>
   </g>
   <g id="patch_55">
    <path d="M -1676.491611 288.430125 
L -1644.44238 288.430125 
L -1644.44238 167.470125 
L -1676.491611 167.470125 
z
" clip-path="url(#p0d75365c1b)" style="fill: #d3d3d3"/>
   </g>
   <g id="patch_56">
    <path d="M -1621.550072 288.430125 
L -1589.500841 288.430125 
L -1589.500841 167.470125 
L -1621.550072 167.470125 
z
" clip-path="url(#p0d75365c1b)" style="fill: #d3d3d3"/>
   </g>
   <g id="patch_57">
    <path d="M -1520.823918 288.430125 
L -1511.666995 288.430125 
L -1511.666995 167.470125 
L -1520.823918 167.470125 
z
" clip-path="url(#p0d75365c1b)" style="fill: #d3d3d3"/>
   </g>
   <g id="patch_58">
    <path d="M -1493.353149 288.430125 
L -1465.88238 288.430125 
L -1465.88238 167.470125 
L -1493.353149 167.470125 
z
" clip-path="url(#p0d75365c1b)" style="fill: #d3d3d3"/>
   </g>
   <g id="patch_59">
    <path d="M -1433.833149 288.430125 
L -1410.940841 288.430125 
L -1410.940841 167.470125 
L -1433.833149 167.470125 
z
" clip-path="url(#p0d75365c1b)" style="fill: #d3d3d3"/>
   </g>
   <g id="patch_60">
    <path d="M -1374.313149 288.430125 
L -1351.420841 288.430125 
L -1351.420841 167.470125 
L -1374.313149 167.470125 
z
" clip-path="url(#p0d75365c1b)" style="fill: #d3d3d3"/>
   </g>
   <g id="patch_61">
    <path d="M -1319.371611 288.430125 
L -1255.273149 288.430125 
L -1255.273149 167.470125 
L -1319.371611 167.470125 
z
" clip-path="url(#p0d75365c1b)" style="fill: #d3d3d3"/>
   </g>
   <g id="patch_62">
    <path d="M -1177.439303 288.430125 
L -1159.125457 288.430125 
L -1159.125457 167.470125 
L -1177.439303 167.470125 
z
" clip-path="url(#p0d75365c1b)" style="fill: #d3d3d3"/>
   </g>
   <g id="patch_63">
    <path d="M -1035.506995 288.430125 
L -1021.771611 288.430125 
L -1021.771611 167.470125 
L -1035.506995 167.470125 
z
" clip-path="url(#p0d75365c1b)" style="fill: #d3d3d3"/>
   </g>
   <g id="patch_64">
    <path d="M -966.830072 288.430125 
L -948.516226 288.430125 
L -948.516226 167.470125 
L -966.830072 167.470125 
z
" clip-path="url(#p0d75365c1b)" style="fill: #d3d3d3"/>
   </g>
   <g id="patch_65">
    <path d="M -884.417764 288.430125 
L -866.103918 288.430125 
L -866.103918 167.470125 
L -884.417764 167.470125 
z
" clip-path="url(#p0d75365c1b)" style="fill: #d3d3d3"/>
   </g>
   <g id="patch_66">
    <path d="M -806.583918 288.430125 
L -792.848534 288.430125 
L -792.848534 167.470125 
L -806.583918 167.470125 
z
" clip-path="url(#p0d75365c1b)" style="fill: #d3d3d3"/>
   </g>
   <g id="patch_67">
    <path d="M -756.220841 288.430125 
L -742.485457 288.430125 
L -742.485457 167.470125 
L -756.220841 167.470125 
z
" clip-path="url(#p0d75365c1b)" style="fill: #d3d3d3"/>
   </g>
   <g id="patch_68">
    <path d="M -582.239303 288.430125 
L -563.925457 288.430125 
L -563.925457 167.470125 
L -582.239303 167.470125 
z
" clip-path="url(#p0d75365c1b)" style="fill: #d3d3d3"/>
   </g>
   <g id="patch_69">
    <path d="M -508.983918 288.430125 
L -486.091611 288.430125 
L -486.091611 167.470125 
L -508.983918 167.470125 
z
" clip-path="url(#p0d75365c1b)" style="fill: #d3d3d3"/>
   </g>
   <g id="patch_70">
    <path d="M -394.52238 288.430125 
L -385.365457 288.430125 
L -385.365457 167.470125 
L -394.52238 167.470125 
z
" clip-path="url(#p0d75365c1b)" style="fill: #d3d3d3"/>
   </g>
   <g id="patch_71">
    <path d="M -367.051611 288.430125 
L -344.159303 288.430125 
L -344.159303 167.470125 
L -367.051611 167.470125 
z
" clip-path="url(#p0d75365c1b)" style="fill: #d3d3d3"/>
   </g>
   <g id="patch_72">
    <path d="M -202.226995 288.430125 
L -193.070072 288.430125 
L -193.070072 167.470125 
L -202.226995 167.470125 
z
" clip-path="url(#p0d75365c1b)" style="fill: #d3d3d3"/>
   </g>
   <g id="patch_73">
    <path d="M -9.931611 288.430125 
L 3.803774 288.430125 
L 3.803774 167.470125 
L -9.931611 167.470125 
z
" clip-path="url(#p0d75365c1b)" style="fill: #d3d3d3"/>
   </g>
   <g id="patch_74">
    <path d="M 113.686851 288.430125 
L 141.15762 288.430125 
L 141.15762 167.470125 
L 113.686851 167.470125 
z
" clip-path="url(#p0d75365c1b)" style="fill: #d3d3d3"/>
   </g>
   <g id="patch_75">
    <path d="M 333.453005 288.430125 
L 342.609928 288.430125 
L 342.609928 167.470125 
L 333.453005 167.470125 
z
" clip-path="url(#p0d75365c1b)" style="fill: #d3d3d3"/>
   </g>
   <g id="matplotlib.axis_3">
    <g id="xtick_21">
     <g id="line2d_28">
      <g>
       <use xlink:href="#m0b5944a448" x="63.323774" y="288.430125" style="stroke: #000000; stroke-width: 0.8"/>
      </g>
     </g>
     <g id="text_19">
      <!-- 2005 -->
      <g transform="translate(50.598774 303.028562) scale(0.1 -0.1)">
       <use xlink:href="#DejaVuSerif-32"/>
       <use xlink:href="#DejaVuSerif-30" x="63.623047"/>
       <use xlink:href="#DejaVuSerif-30" x="127.246094"/>
       <use xlink:href="#DejaVuSerif-35" x="190.869141"/>
      </g>
     </g>
    </g>
    <g id="xtick_22">
     <g id="line2d_29">
      <g>
       <use xlink:href="#m0b5944a448" x="99.951466" y="288.430125" style="stroke: #000000; stroke-width: 0.8"/>
      </g>
     </g>
     <g id="text_20">
      <!-- 2007 -->
      <g transform="translate(87.226466 303.028562) scale(0.1 -0.1)">
       <use xlink:href="#DejaVuSerif-32"/>
       <use xlink:href="#DejaVuSerif-30" x="63.623047"/>
       <use xlink:href="#DejaVuSerif-30" x="127.246094"/>
       <use xlink:href="#DejaVuSerif-37" x="190.869141"/>
      </g>
     </g>
    </g>
    <g id="xtick_23">
     <g id="line2d_30">
      <g>
       <use xlink:href="#m0b5944a448" x="136.579159" y="288.430125" style="stroke: #000000; stroke-width: 0.8"/>
      </g>
     </g>
     <g id="text_21">
      <!-- 2009 -->
      <g transform="translate(123.854159 303.028562) scale(0.1 -0.1)">
       <use xlink:href="#DejaVuSerif-32"/>
       <use xlink:href="#DejaVuSerif-30" x="63.623047"/>
       <use xlink:href="#DejaVuSerif-30" x="127.246094"/>
       <use xlink:href="#DejaVuSerif-39" x="190.869141"/>
      </g>
     </g>
    </g>
    <g id="xtick_24">
     <g id="line2d_31">
      <g>
       <use xlink:href="#m0b5944a448" x="173.206851" y="288.430125" style="stroke: #000000; stroke-width: 0.8"/>
      </g>
     </g>
     <g id="text_22">
      <!-- 2011 -->
      <g transform="translate(160.481851 303.028562) scale(0.1 -0.1)">
       <use xlink:href="#DejaVuSerif-32"/>
       <use xlink:href="#DejaVuSerif-30" x="63.623047"/>
       <use xlink:href="#DejaVuSerif-31" x="127.246094"/>
       <use xlink:href="#DejaVuSerif-31" x="190.869141"/>
      </g>
     </g>
    </g>
    <g id="xtick_25">
     <g id="line2d_32">
      <g>
       <use xlink:href="#m0b5944a448" x="209.834543" y="288.430125" style="stroke: #000000; stroke-width: 0.8"/>
      </g>
     </g>
     <g id="text_23">
      <!-- 2013 -->
      <g transform="translate(197.109543 303.028562) scale(0.1 -0.1)">
       <use xlink:href="#DejaVuSerif-32"/>
       <use xlink:href="#DejaVuSerif-30" x="63.623047"/>
       <use xlink:href="#DejaVuSerif-31" x="127.246094"/>
       <use xlink:href="#DejaVuSerif-33" x="190.869141"/>
      </g>
     </g>
    </g>
    <g id="xtick_26">
     <g id="line2d_33">
      <g>
       <use xlink:href="#m0b5944a448" x="246.462236" y="288.430125" style="stroke: #000000; stroke-width: 0.8"/>
      </g>
     </g>
     <g id="text_24">
      <!-- 2015 -->
      <g transform="translate(233.737236 303.028562) scale(0.1 -0.1)">
       <use xlink:href="#DejaVuSerif-32"/>
       <use xlink:href="#DejaVuSerif-30" x="63.623047"/>
       <use xlink:href="#DejaVuSerif-31" x="127.246094"/>
       <use xlink:href="#DejaVuSerif-35" x="190.869141"/>
      </g>
     </g>
    </g>
    <g id="xtick_27">
     <g id="line2d_34">
      <g>
       <use xlink:href="#m0b5944a448" x="283.089928" y="288.430125" style="stroke: #000000; stroke-width: 0.8"/>
      </g>
     </g>
     <g id="text_25">
      <!-- 2017 -->
      <g transform="translate(270.364928 303.028562) scale(0.1 -0.1)">
       <use xlink:href="#DejaVuSerif-32"/>
       <use xlink:href="#DejaVuSerif-30" x="63.623047"/>
       <use xlink:href="#DejaVuSerif-31" x="127.246094"/>
       <use xlink:href="#DejaVuSerif-37" x="190.869141"/>
      </g>
     </g>
    </g>
    <g id="xtick_28">
     <g id="line2d_35">
      <g>
       <use xlink:href="#m0b5944a448" x="319.71762" y="288.430125" style="stroke: #000000; stroke-width: 0.8"/>
      </g>
     </g>
     <g id="text_26">
      <!-- 2019 -->
      <g transform="translate(306.99262 303.028562) scale(0.1 -0.1)">
       <use xlink:href="#DejaVuSerif-32"/>
       <use xlink:href="#DejaVuSerif-30" x="63.623047"/>
       <use xlink:href="#DejaVuSerif-31" x="127.246094"/>
       <use xlink:href="#DejaVuSerif-39" x="190.869141"/>
      </g>
     </g>
    </g>
    <g id="xtick_29">
     <g id="line2d_36">
      <g>
       <use xlink:href="#m0b5944a448" x="356.345313" y="288.430125" style="stroke: #000000; stroke-width: 0.8"/>
      </g>
     </g>
     <g id="text_27">
      <!-- 2021 -->
      <g transform="translate(343.620313 303.028562) scale(0.1 -0.1)">
       <use xlink:href="#DejaVuSerif-32"/>
       <use xlink:href="#DejaVuSerif-30" x="63.623047"/>
       <use xlink:href="#DejaVuSerif-32" x="127.246094"/>
       <use xlink:href="#DejaVuSerif-31" x="190.869141"/>
      </g>
     </g>
    </g>
    <g id="xtick_30">
     <g id="line2d_37">
      <g>
       <use xlink:href="#m0b5944a448" x="392.973005" y="288.430125" style="stroke: #000000; stroke-width: 0.8"/>
      </g>
     </g>
     <g id="text_28">
      <!-- 2023 -->
      <g transform="translate(380.248005 303.028562) scale(0.1 -0.1)">
       <use xlink:href="#DejaVuSerif-32"/>
       <use xlink:href="#DejaVuSerif-30" x="63.623047"/>
       <use xlink:href="#DejaVuSerif-32" x="127.246094"/>
       <use xlink:href="#DejaVuSerif-33" x="190.869141"/>
      </g>
     </g>
    </g>
    <g id="xtick_31">
     <g id="line2d_38">
      <g>
       <use xlink:href="#m457c998258" x="81.63762" y="288.430125" style="stroke: #000000; stroke-width: 0.6"/>
      </g>
     </g>
    </g>
    <g id="xtick_32">
     <g id="line2d_39">
      <g>
       <use xlink:href="#m457c998258" x="118.265313" y="288.430125" style="stroke: #000000; stroke-width: 0.6"/>
      </g>
     </g>
    </g>
    <g id="xtick_33">
     <g id="line2d_40">
      <g>
       <use xlink:href="#m457c998258" x="154.893005" y="288.430125" style="stroke: #000000; stroke-width: 0.6"/>
      </g>
     </g>
    </g>
    <g id="xtick_34">
     <g id="line2d_41">
      <g>
       <use xlink:href="#m457c998258" x="191.520697" y="288.430125" style="stroke: #000000; stroke-width: 0.6"/>
      </g>
     </g>
    </g>
    <g id="xtick_35">
     <g id="line2d_42">
      <g>
       <use xlink:href="#m457c998258" x="228.148389" y="288.430125" style="stroke: #000000; stroke-width: 0.6"/>
      </g>
     </g>
    </g>
    <g id="xtick_36">
     <g id="line2d_43">
      <g>
       <use xlink:href="#m457c998258" x="264.776082" y="288.430125" style="stroke: #000000; stroke-width: 0.6"/>
      </g>
     </g>
    </g>
    <g id="xtick_37">
     <g id="line2d_44">
      <g>
       <use xlink:href="#m457c998258" x="301.403774" y="288.430125" style="stroke: #000000; stroke-width: 0.6"/>
      </g>
     </g>
    </g>
    <g id="xtick_38">
     <g id="line2d_45">
      <g>
       <use xlink:href="#m457c998258" x="338.031466" y="288.430125" style="stroke: #000000; stroke-width: 0.6"/>
      </g>
     </g>
    </g>
    <g id="xtick_39">
     <g id="line2d_46">
      <g>
       <use xlink:href="#m457c998258" x="374.659159" y="288.430125" style="stroke: #000000; stroke-width: 0.6"/>
      </g>
     </g>
    </g>
    <g id="xtick_40">
     <g id="line2d_47">
      <g>
       <use xlink:href="#m457c998258" x="411.286851" y="288.430125" style="stroke: #000000; stroke-width: 0.6"/>
      </g>
     </g>
    </g>
   </g>
   <g id="matplotlib.axis_4">
    <g id="ytick_7">
     <g id="line2d_48">
      <path d="M 58.745313 273.474937 
L 415.865313 273.474937 
" clip-path="url(#p0d75365c1b)" style="fill: none; stroke-dasharray: 2.96,1.28; stroke-dashoffset: 0; stroke: #b0b0b0; stroke-width: 0.8"/>
     </g>
     <g id="line2d_49">
      <g>
       <use xlink:href="#mcba5dd215a" x="58.745313" y="273.474937" style="stroke: #000000; stroke-width: 0.8"/>
      </g>
     </g>
     <g id="text_29">
      <!-- 0.02 -->
      <g transform="translate(21.1 277.274155) scale(0.1 -0.1)">
       <defs>
        <path id="DejaVuSerif-2212" d="M 678 2259 
L 4684 2259 
L 4684 1753 
L 678 1753 
L 678 2259 
z
" transform="scale(0.015625)"/>
       </defs>
       <use xlink:href="#DejaVuSerif-2212"/>
       <use xlink:href="#DejaVuSerif-30" x="83.789062"/>
       <use xlink:href="#DejaVuSerif-2e" x="147.412109"/>
       <use xlink:href="#DejaVuSerif-30" x="179.199219"/>
       <use xlink:href="#DejaVuSerif-32" x="242.822266"/>
      </g>
     </g>
    </g>
    <g id="ytick_8">
     <g id="line2d_50">
      <path d="M 58.745313 241.534316 
L 415.865313 241.534316 
" clip-path="url(#p0d75365c1b)" style="fill: none; stroke-dasharray: 2.96,1.28; stroke-dashoffset: 0; stroke: #b0b0b0; stroke-width: 0.8"/>
     </g>
     <g id="line2d_51">
      <g>
       <use xlink:href="#mcba5dd215a" x="58.745313" y="241.534316" style="stroke: #000000; stroke-width: 0.8"/>
      </g>
     </g>
     <g id="text_30">
      <!-- 0.00 -->
      <g transform="translate(29.479688 245.333535) scale(0.1 -0.1)">
       <use xlink:href="#DejaVuSerif-30"/>
       <use xlink:href="#DejaVuSerif-2e" x="63.623047"/>
       <use xlink:href="#DejaVuSerif-30" x="95.410156"/>
       <use xlink:href="#DejaVuSerif-30" x="159.033203"/>
      </g>
     </g>
    </g>
    <g id="ytick_9">
     <g id="line2d_52">
      <path d="M 58.745313 209.593695 
L 415.865313 209.593695 
" clip-path="url(#p0d75365c1b)" style="fill: none; stroke-dasharray: 2.96,1.28; stroke-dashoffset: 0; stroke: #b0b0b0; stroke-width: 0.8"/>
     </g>
     <g id="line2d_53">
      <g>
       <use xlink:href="#mcba5dd215a" x="58.745313" y="209.593695" style="stroke: #000000; stroke-width: 0.8"/>
      </g>
     </g>
     <g id="text_31">
      <!-- 0.02 -->
      <g transform="translate(29.479688 213.392914) scale(0.1 -0.1)">
       <use xlink:href="#DejaVuSerif-30"/>
       <use xlink:href="#DejaVuSerif-2e" x="63.623047"/>
       <use xlink:href="#DejaVuSerif-30" x="95.410156"/>
       <use xlink:href="#DejaVuSerif-32" x="159.033203"/>
      </g>
     </g>
    </g>
    <g id="ytick_10">
     <g id="line2d_54">
      <path d="M 58.745313 177.653074 
L 415.865313 177.653074 
" clip-path="url(#p0d75365c1b)" style="fill: none; stroke-dasharray: 2.96,1.28; stroke-dashoffset: 0; stroke: #b0b0b0; stroke-width: 0.8"/>
     </g>
     <g id="line2d_55">
      <g>
       <use xlink:href="#mcba5dd215a" x="58.745313" y="177.653074" style="stroke: #000000; stroke-width: 0.8"/>
      </g>
     </g>
     <g id="text_32">
      <!-- 0.04 -->
      <g transform="translate(29.479688 181.452293) scale(0.1 -0.1)">
       <use xlink:href="#DejaVuSerif-30"/>
       <use xlink:href="#DejaVuSerif-2e" x="63.623047"/>
       <use xlink:href="#DejaVuSerif-30" x="95.410156"/>
       <use xlink:href="#DejaVuSerif-34" x="159.033203"/>
      </g>
     </g>
    </g>
    <g id="text_33">
     <!-- $\Delta\log P_t$ -->
     <g transform="translate(14.8 245.100125) rotate(-90) scale(0.1 -0.1)">
      <defs>
       <path id="DejaVuSerif-394" d="M 4350 0 
L 244 0 
L 2034 4666 
L 2559 4666 
L 4350 0 
z
M 3506 331 
L 2138 3909 
L 763 331 
L 3506 331 
z
" transform="scale(0.015625)"/>
       <path id="DejaVuSerif-6c" d="M 1313 331 
L 1856 331 
L 1856 0 
L 184 0 
L 184 331 
L 738 331 
L 738 4531 
L 184 4531 
L 184 4863 
L 1313 4863 
L 1313 331 
z
" transform="scale(0.015625)"/>
       <path id="DejaVuSerif-Italic-50" d="M 1594 2375 
L 2419 2375 
Q 2884 2375 3176 2626 
Q 3469 2878 3559 3353 
Q 3653 3831 3458 4081 
Q 3263 4331 2797 4331 
L 1972 4331 
L 1594 2375 
z
M -97 0 
L -34 331 
L 559 331 
L 1338 4331 
L 744 4331 
L 809 4666 
L 3016 4666 
Q 3716 4666 4056 4311 
Q 4397 3956 4278 3353 
Q 4163 2753 3684 2397 
Q 3206 2041 2506 2041 
L 1528 2041 
L 1194 331 
L 1916 331 
L 1853 0 
L -97 0 
z
" transform="scale(0.015625)"/>
      </defs>
      <use xlink:href="#DejaVuSerif-394" transform="translate(0 0.015625)"/>
      <use xlink:href="#DejaVuSerif-6c" transform="translate(72.216797 0.015625)"/>
      <use xlink:href="#DejaVuSerif-6f" transform="translate(104.199219 0.015625)"/>
      <use xlink:href="#DejaVuSerif-67" transform="translate(164.404297 0.015625)"/>
      <use xlink:href="#DejaVuSerif-Italic-50" transform="translate(244.222321 0.015625)"/>
      <use xlink:href="#DejaVuSerif-Italic-74" transform="translate(311.507478 -15.55625) scale(0.7)"/>
     </g>
    </g>
   </g>
   <g id="line2d_56">
    <path d="M 58.745313 239.45141 
L 63.323774 238.204875 
L 67.902236 240.419516 
L 72.480697 241.842435 
L 77.059159 239.960197 
L 81.63762 237.866855 
L 86.216082 238.987854 
L 90.794543 238.927656 
L 95.373005 242.605722 
L 99.951466 240.806628 
L 104.529928 235.94262 
L 109.108389 234.704839 
L 113.686851 233.297961 
L 118.265313 235.424831 
L 122.843774 230.681161 
L 127.422236 207.459674 
L 132.000697 216.664824 
L 136.579159 249.449285 
L 141.15762 252.538741 
L 145.736082 263.650733 
L 150.314543 261.049664 
L 154.893005 256.829266 
L 159.471466 252.77941 
L 164.049928 236.653955 
L 168.628389 237.061329 
L 173.206851 231.925527 
L 177.785313 238.787191 
L 182.363774 242.990972 
L 186.942236 249.143506 
L 191.520697 247.631145 
L 196.099159 243.100593 
L 200.67762 238.083532 
L 205.256082 238.717696 
L 209.834543 243.611745 
L 214.413005 242.520416 
L 218.991466 242.166254 
L 223.569928 233.215055 
L 228.148389 223.959688 
L 232.726851 196.550816 
L 237.305313 183.113466 
L 241.883774 192.629845 
L 246.462236 201.90436 
L 251.040697 234.930473 
L 255.619159 230.806378 
L 260.19762 230.192283 
L 264.776082 231.900758 
L 269.354543 234.526899 
L 273.933005 235.971508 
L 278.511466 238.750703 
L 283.089928 239.341031 
L 287.668389 238.550259 
L 292.246851 241.328125 
L 296.825313 238.080417 
L 301.403774 235.303375 
L 305.982236 238.280935 
L 310.560697 237.454462 
L 315.139159 239.217717 
L 319.71762 244.211854 
L 324.296082 244.632598 
L 328.874543 241.571305 
L 333.453005 241.160376 
L 338.031466 238.926486 
L 342.609928 241.839939 
L 347.188389 243.103785 
L 351.766851 253.046782 
L 356.345313 250.834168 
L 360.923774 245.001194 
L 365.502236 244.994992 
L 370.080697 238.02257 
L 374.659159 241.217456 
L 379.23762 185.669513 
L 383.816082 193.102595 
L 388.394543 194.07676 
L 392.973005 191.226702 
L 397.551466 191.841174 
L 402.129928 194.454755 
L 406.708389 196.533611 
L 411.286851 198.538194 
L 415.865313 201.960644 
" clip-path="url(#p0d75365c1b)" style="fill: none; stroke: #1f77b4; stroke-width: 1.5; stroke-linecap: square"/>
   </g>
   <g id="line2d_57">
    <path d="M 58.745313 233.212093 
L 63.323774 238.179207 
L 67.902236 239.859401 
L 72.480697 246.569625 
L 77.059159 254.870769 
L 81.63762 243.210989 
L 86.216082 243.209231 
L 90.794543 236.499006 
L 95.373005 234.852168 
L 99.951466 241.534316 
L 104.529928 241.534316 
L 109.108389 241.534316 
L 113.686851 238.203697 
L 118.265313 229.834402 
L 122.843774 229.846635 
L 127.422236 205.085967 
L 132.000697 213.501043 
L 136.579159 241.534316 
L 141.15762 241.534316 
L 145.736082 277.982664 
L 150.314543 282.931943 
L 154.893005 258.274836 
L 159.471466 256.577106 
L 164.049928 256.688124 
L 168.628389 244.892952 
L 173.206851 249.970844 
L 177.785313 248.265753 
L 182.363774 238.154355 
L 186.942236 244.900031 
L 191.520697 239.843441 
L 196.099159 233.124444 
L 200.67762 249.997669 
L 205.256082 248.2871 
L 209.834543 246.61232 
L 214.413005 253.320576 
L 218.991466 229.69814 
L 223.569928 223.032433 
L 228.148389 219.645303 
L 232.726851 188.350428 
L 237.305313 186.887176 
L 241.883774 197.009142 
L 246.462236 203.527645 
L 251.040697 230.13272 
L 255.619159 238.281706 
L 260.19762 236.66284 
L 264.776082 243.168107 
L 269.354543 246.41075 
L 273.933005 248.046174 
L 278.511466 239.913787 
L 283.089928 233.382021 
L 287.668389 235.035707 
L 292.246851 235.022458 
L 296.825313 238.298183 
L 301.403774 220.531076 
L 305.982236 231.835717 
L 310.560697 226.978995 
L 315.139159 219.063157 
L 319.71762 238.327425 
L 324.296082 227.095966 
L 328.874543 231.903949 
L 333.453005 238.349806 
L 338.031466 228.770763 
L 342.609928 238.343444 
L 347.188389 238.337055 
L 351.766851 251.106958 
L 356.345313 252.696835 
L 360.923774 259.163538 
L 365.502236 246.33261 
L 370.080697 239.934886 
L 374.659159 233.553135 
L 379.23762 203.31839 
L 383.816082 200.420355 
L 388.394543 181.913267 
L 392.973005 172.968307 
L 397.551466 185.872227 
L 402.129928 189.319035 
L 406.708389 190.012718 
L 411.286851 208.324534 
L 415.865313 202.507179 
" clip-path="url(#p0d75365c1b)" style="fill: none; stroke: #ff7f0e; stroke-width: 1.5; stroke-linecap: square"/>
   </g>
   <g id="patch_76">
    <path d="M 58.745313 288.430125 
L 58.745313 167.470125 
" style="fill: none; stroke: #000000; stroke-width: 0.8; stroke-linejoin: miter; stroke-linecap: square"/>
   </g>
   <g id="patch_77">
    <path d="M 415.865313 288.430125 
L 415.865313 167.470125 
" style="fill: none; stroke: #000000; stroke-width: 0.8; stroke-linejoin: miter; stroke-linecap: square"/>
   </g>
   <g id="patch_78">
    <path d="M 58.745313 288.430125 
L 415.865313 288.430125 
" style="fill: none; stroke: #000000; stroke-width: 0.8; stroke-linejoin: miter; stroke-linecap: square"/>
   </g>
   <g id="patch_79">
    <path d="M 58.745313 167.470125 
L 415.865313 167.470125 
" style="fill: none; stroke: #000000; stroke-width: 0.8; stroke-linejoin: miter; stroke-linecap: square"/>
   </g>
   <g id="legend_1">
    <g id="patch_80">
     <path d="M 65.745313 204.826375 
L 150.05 204.826375 
Q 152.05 204.826375 152.05 202.826375 
L 152.05 174.470125 
Q 152.05 172.470125 150.05 172.470125 
L 65.745313 172.470125 
Q 63.745313 172.470125 63.745313 174.470125 
L 63.745313 202.826375 
Q 63.745313 204.826375 65.745313 204.826375 
z
" style="fill: #ffffff; opacity: 0.8; stroke: #cccccc; stroke-linejoin: miter"/>
    </g>
    <g id="line2d_58">
     <path d="M 67.745313 180.568562 
L 77.745313 180.568562 
L 87.745313 180.568562 
" style="fill: none; stroke: #1f77b4; stroke-width: 1.5; stroke-linecap: square"/>
    </g>
    <g id="text_34">
     <!-- Prediction -->
     <g transform="translate(95.745313 184.068562) scale(0.1 -0.1)">
      <defs>
       <path id="DejaVuSerif-64" d="M 3359 331 
L 3909 331 
L 3909 0 
L 2784 0 
L 2784 519 
Q 2616 206 2355 57 
Q 2094 -91 1709 -91 
Q 1097 -91 708 395 
Q 319 881 319 1663 
Q 319 2444 706 2928 
Q 1094 3413 1709 3413 
Q 2094 3413 2355 3264 
Q 2616 3116 2784 2803 
L 2784 4531 
L 2241 4531 
L 2241 4863 
L 3359 4863 
L 3359 331 
z
M 2784 1497 
L 2784 1825 
Q 2784 2422 2554 2737 
Q 2325 3053 1888 3053 
Q 1444 3053 1217 2703 
Q 991 2353 991 1663 
Q 991 975 1217 622 
Q 1444 269 1888 269 
Q 2325 269 2554 583 
Q 2784 897 2784 1497 
z
" transform="scale(0.015625)"/>
       <path id="DejaVuSerif-63" d="M 3291 997 
Q 3169 466 2822 187 
Q 2475 -91 1925 -91 
Q 1200 -91 759 389 
Q 319 869 319 1663 
Q 319 2459 759 2936 
Q 1200 3413 1925 3413 
Q 2241 3413 2553 3339 
Q 2866 3266 3181 3116 
L 3181 2266 
L 2847 2266 
Q 2781 2703 2561 2903 
Q 2341 3103 1931 3103 
Q 1466 3103 1228 2742 
Q 991 2381 991 1663 
Q 991 944 1227 581 
Q 1463 219 1931 219 
Q 2303 219 2525 412 
Q 2747 606 2828 997 
L 3291 997 
z
" transform="scale(0.015625)"/>
       <path id="DejaVuSerif-74" d="M 691 2988 
L 184 2988 
L 184 3322 
L 691 3322 
L 691 4353 
L 1269 4353 
L 1269 3322 
L 2350 3322 
L 2350 2988 
L 1269 2988 
L 1269 878 
Q 1269 456 1350 337 
Q 1431 219 1650 219 
Q 1875 219 1978 351 
Q 2081 484 2088 781 
L 2522 781 
Q 2497 328 2275 118 
Q 2053 -91 1600 -91 
Q 1103 -91 897 129 
Q 691 350 691 878 
L 691 2988 
z
" transform="scale(0.015625)"/>
      </defs>
      <use xlink:href="#DejaVuSerif-50"/>
      <use xlink:href="#DejaVuSerif-72" x="67.285156"/>
      <use xlink:href="#DejaVuSerif-65" x="115.087891"/>
      <use xlink:href="#DejaVuSerif-64" x="174.267578"/>
      <use xlink:href="#DejaVuSerif-69" x="238.28125"/>
      <use xlink:href="#DejaVuSerif-63" x="270.263672"/>
      <use xlink:href="#DejaVuSerif-74" x="326.269531"/>
      <use xlink:href="#DejaVuSerif-69" x="366.455078"/>
      <use xlink:href="#DejaVuSerif-6f" x="398.4375"/>
      <use xlink:href="#DejaVuSerif-6e" x="458.642578"/>
     </g>
    </g>
    <g id="line2d_59">
     <path d="M 67.745313 195.246687 
L 77.745313 195.246687 
L 87.745313 195.246687 
" style="fill: none; stroke: #ff7f0e; stroke-width: 1.5; stroke-linecap: square"/>
    </g>
    <g id="text_35">
     <!-- Real -->
     <g transform="translate(95.745313 198.746687) scale(0.1 -0.1)">
      <defs>
       <path id="DejaVuSerif-52" d="M 3066 2316 
Q 3284 2256 3442 2114 
Q 3600 1972 3725 1716 
L 4403 331 
L 4972 331 
L 4972 0 
L 3872 0 
L 3144 1484 
Q 2934 1916 2759 2042 
Q 2584 2169 2278 2169 
L 1581 2169 
L 1581 331 
L 2241 331 
L 2241 0 
L 353 0 
L 353 331 
L 947 331 
L 947 4331 
L 353 4331 
L 353 4666 
L 2719 4666 
Q 3400 4666 3770 4341 
Q 4141 4016 4141 3419 
Q 4141 2938 3870 2661 
Q 3600 2384 3066 2316 
z
M 1581 2503 
L 2503 2503 
Q 2975 2503 3200 2726 
Q 3425 2950 3425 3419 
Q 3425 3888 3200 4109 
Q 2975 4331 2503 4331 
L 1581 4331 
L 1581 2503 
z
" transform="scale(0.015625)"/>
      </defs>
      <use xlink:href="#DejaVuSerif-52"/>
      <use xlink:href="#DejaVuSerif-65" x="75.292969"/>
      <use xlink:href="#DejaVuSerif-61" x="134.472656"/>
      <use xlink:href="#DejaVuSerif-6c" x="194.091797"/>
     </g>
    </g>
   </g>
  </g>
 </g>
 <defs>
  <clipPath id="pdfa7411da7">
   <rect x="58.745313" y="22.318125" width="357.12" height="120.96"/>
  </clipPath>
  <clipPath id="p0d75365c1b">
   <rect x="58.745313" y="167.470125" width="357.12" height="120.96"/>
  </clipPath>
 </defs>
</svg>
