<?xml version="1.0" encoding="utf-8" standalone="no"?>
<!DOCTYPE svg PUBLIC "-//W3C//DTD SVG 1.1//EN"
  "http://www.w3.org/Graphics/SVG/1.1/DTD/svg11.dtd">
<svg xmlns:xlink="http://www.w3.org/1999/xlink" width="433.456195pt" height="312.30825pt" viewBox="0 0 433.456195 312.30825" xmlns="http://www.w3.org/2000/svg" version="1.1">
 <metadata>
  <rdf:RDF xmlns:dc="http://purl.org/dc/elements/1.1/" xmlns:cc="http://creativecommons.org/ns#" xmlns:rdf="http://www.w3.org/1999/02/22-rdf-syntax-ns#">
   <cc:Work>
    <dc:type rdf:resource="http://purl.org/dc/dcmitype/StillImage"/>
    <dc:date>2024-11-06T21:53:11.347231</dc:date>
    <dc:format>image/svg+xml</dc:format>
    <dc:creator>
     <cc:Agent>
      <dc:title>Matplotlib v3.9.0, https://matplotlib.org/</dc:title>
     </cc:Agent>
    </dc:creator>
   </cc:Work>
  </rdf:RDF>
 </metadata>
 <defs>
  <style type="text/css">*{stroke-linejoin: round; stroke-linecap: butt}</style>
 </defs>
 <g id="figure_1">
  <g id="patch_1">
   <path d="M 0 312.30825 
L 433.456195 312.30825 
L 433.456195 0 
L 0 0 
z
" style="fill: #ffffff"/>
  </g>
  <g id="axes_1">
   <g id="patch_2">
    <path d="M 58.745313 143.278125 
L 415.865313 143.278125 
L 415.865313 22.318125 
L 58.745313 22.318125 
z
" style="fill: #ffffff"/>
   </g>
   <g id="patch_3">
    <path d="M -1143.325276 143.278125 
L -1129.32057 143.278125 
L -1129.32057 22.318125 
L -1143.325276 22.318125 
z
" clip-path="url(#p048830ae19)" style="fill: #d3d3d3"/>
   </g>
   <g id="patch_4">
    <path d="M -1112.981746 143.278125 
L -1103.645276 143.278125 
L -1103.645276 22.318125 
L -1112.981746 22.318125 
z
" clip-path="url(#p048830ae19)" style="fill: #d3d3d3"/>
   </g>
   <g id="patch_5">
    <path d="M -1070.967629 143.278125 
L -1052.294688 143.278125 
L -1052.294688 22.318125 
L -1070.967629 22.318125 
z
" clip-path="url(#p048830ae19)" style="fill: #d3d3d3"/>
   </g>
   <g id="patch_6">
    <path d="M -1031.287629 143.278125 
L -1017.282923 143.278125 
L -1017.282923 22.318125 
L -1031.287629 22.318125 
z
" clip-path="url(#p048830ae19)" style="fill: #d3d3d3"/>
   </g>
   <g id="patch_7">
    <path d="M -991.607629 143.278125 
L -940.25704 143.278125 
L -940.25704 22.318125 
L -991.607629 22.318125 
z
" clip-path="url(#p048830ae19)" style="fill: #d3d3d3"/>
   </g>
   <g id="patch_8">
    <path d="M -912.247629 143.278125 
L -881.904099 143.278125 
L -881.904099 22.318125 
L -912.247629 22.318125 
z
" clip-path="url(#p048830ae19)" style="fill: #d3d3d3"/>
   </g>
   <g id="patch_9">
    <path d="M -863.231158 143.278125 
L -856.228805 143.278125 
L -856.228805 22.318125 
L -863.231158 22.318125 
z
" clip-path="url(#p048830ae19)" style="fill: #d3d3d3"/>
   </g>
   <g id="patch_10">
    <path d="M -832.887629 143.278125 
L -825.885276 143.278125 
L -825.885276 22.318125 
L -832.887629 22.318125 
z
" clip-path="url(#p048830ae19)" style="fill: #d3d3d3"/>
   </g>
   <g id="patch_11">
    <path d="M -809.546452 143.278125 
L -797.875864 143.278125 
L -797.875864 22.318125 
L -809.546452 22.318125 
z
" clip-path="url(#p048830ae19)" style="fill: #d3d3d3"/>
   </g>
   <g id="patch_12">
    <path d="M -783.871158 143.278125 
L -769.866452 143.278125 
L -769.866452 22.318125 
L -783.871158 22.318125 
z
" clip-path="url(#p048830ae19)" style="fill: #d3d3d3"/>
   </g>
   <g id="patch_13">
    <path d="M -748.859393 143.278125 
L -737.188805 143.278125 
L -737.188805 22.318125 
L -748.859393 22.318125 
z
" clip-path="url(#p048830ae19)" style="fill: #d3d3d3"/>
   </g>
   <g id="patch_14">
    <path d="M -718.515864 143.278125 
L -702.17704 143.278125 
L -702.17704 22.318125 
L -718.515864 22.318125 
z
" clip-path="url(#p048830ae19)" style="fill: #d3d3d3"/>
   </g>
   <g id="patch_15">
    <path d="M -676.501746 143.278125 
L -667.165276 143.278125 
L -667.165276 22.318125 
L -676.501746 22.318125 
z
" clip-path="url(#p048830ae19)" style="fill: #d3d3d3"/>
   </g>
   <g id="patch_16">
    <path d="M -650.826452 143.278125 
L -634.487629 143.278125 
L -634.487629 22.318125 
L -650.826452 22.318125 
z
" clip-path="url(#p048830ae19)" style="fill: #d3d3d3"/>
   </g>
   <g id="patch_17">
    <path d="M -622.81704 143.278125 
L -606.478217 143.278125 
L -606.478217 22.318125 
L -622.81704 22.318125 
z
" clip-path="url(#p048830ae19)" style="fill: #d3d3d3"/>
   </g>
   <g id="patch_18">
    <path d="M -571.466452 143.278125 
L -566.798217 143.278125 
L -566.798217 22.318125 
L -571.466452 22.318125 
z
" clip-path="url(#p048830ae19)" style="fill: #d3d3d3"/>
   </g>
   <g id="patch_19">
    <path d="M -557.461746 143.278125 
L -543.45704 143.278125 
L -543.45704 22.318125 
L -557.461746 22.318125 
z
" clip-path="url(#p048830ae19)" style="fill: #d3d3d3"/>
   </g>
   <g id="patch_20">
    <path d="M -527.118217 143.278125 
L -515.447629 143.278125 
L -515.447629 22.318125 
L -527.118217 22.318125 
z
" clip-path="url(#p048830ae19)" style="fill: #d3d3d3"/>
   </g>
   <g id="patch_21">
    <path d="M -496.774688 143.278125 
L -485.104099 143.278125 
L -485.104099 22.318125 
L -496.774688 22.318125 
z
" clip-path="url(#p048830ae19)" style="fill: #d3d3d3"/>
   </g>
   <g id="patch_22">
    <path d="M -468.765276 143.278125 
L -436.087629 143.278125 
L -436.087629 22.318125 
L -468.765276 22.318125 
z
" clip-path="url(#p048830ae19)" style="fill: #d3d3d3"/>
   </g>
   <g id="patch_23">
    <path d="M -396.407629 143.278125 
L -387.071158 143.278125 
L -387.071158 22.318125 
L -396.407629 22.318125 
z
" clip-path="url(#p048830ae19)" style="fill: #d3d3d3"/>
   </g>
   <g id="patch_24">
    <path d="M -324.049982 143.278125 
L -317.047629 143.278125 
L -317.047629 22.318125 
L -324.049982 22.318125 
z
" clip-path="url(#p048830ae19)" style="fill: #d3d3d3"/>
   </g>
   <g id="patch_25">
    <path d="M -289.038217 143.278125 
L -279.701746 143.278125 
L -279.701746 22.318125 
L -289.038217 22.318125 
z
" clip-path="url(#p048830ae19)" style="fill: #d3d3d3"/>
   </g>
   <g id="patch_26">
    <path d="M -247.024099 143.278125 
L -237.687629 143.278125 
L -237.687629 22.318125 
L -247.024099 22.318125 
z
" clip-path="url(#p048830ae19)" style="fill: #d3d3d3"/>
   </g>
   <g id="patch_27">
    <path d="M -207.344099 143.278125 
L -200.341746 143.278125 
L -200.341746 22.318125 
L -207.344099 22.318125 
z
" clip-path="url(#p048830ae19)" style="fill: #d3d3d3"/>
   </g>
   <g id="patch_28">
    <path d="M -181.668805 143.278125 
L -174.666452 143.278125 
L -174.666452 22.318125 
L -181.668805 22.318125 
z
" clip-path="url(#p048830ae19)" style="fill: #d3d3d3"/>
   </g>
   <g id="patch_29">
    <path d="M -92.972335 143.278125 
L -83.635864 143.278125 
L -83.635864 22.318125 
L -92.972335 22.318125 
z
" clip-path="url(#p048830ae19)" style="fill: #d3d3d3"/>
   </g>
   <g id="patch_30">
    <path d="M -55.626452 143.278125 
L -43.955864 143.278125 
L -43.955864 22.318125 
L -55.626452 22.318125 
z
" clip-path="url(#p048830ae19)" style="fill: #d3d3d3"/>
   </g>
   <g id="patch_31">
    <path d="M 2.726489 143.278125 
L 7.394724 143.278125 
L 7.394724 22.318125 
L 2.726489 22.318125 
z
" clip-path="url(#p048830ae19)" style="fill: #d3d3d3"/>
   </g>
   <g id="patch_32">
    <path d="M 16.731195 143.278125 
L 28.401783 143.278125 
L 28.401783 22.318125 
L 16.731195 22.318125 
z
" clip-path="url(#p048830ae19)" style="fill: #d3d3d3"/>
   </g>
   <g id="patch_33">
    <path d="M 100.75943 143.278125 
L 105.427665 143.278125 
L 105.427665 22.318125 
L 100.75943 22.318125 
z
" clip-path="url(#p048830ae19)" style="fill: #d3d3d3"/>
   </g>
   <g id="patch_34">
    <path d="M 198.792371 143.278125 
L 205.794724 143.278125 
L 205.794724 22.318125 
L 198.792371 22.318125 
z
" clip-path="url(#p048830ae19)" style="fill: #d3d3d3"/>
   </g>
   <g id="patch_35">
    <path d="M 261.813548 143.278125 
L 275.818254 143.278125 
L 275.818254 22.318125 
L 261.813548 22.318125 
z
" clip-path="url(#p048830ae19)" style="fill: #d3d3d3"/>
   </g>
   <g id="patch_36">
    <path d="M 373.851195 143.278125 
L 378.51943 143.278125 
L 378.51943 22.318125 
L 373.851195 22.318125 
z
" clip-path="url(#p048830ae19)" style="fill: #d3d3d3"/>
   </g>
   <g id="matplotlib.axis_1">
    <g id="xtick_1">
     <g id="line2d_1">
      <defs>
       <path id="mc72922fc25" d="M 0 0 
L 0 3.5 
" style="stroke: #000000; stroke-width: 0.8"/>
      </defs>
      <g>
       <use xlink:href="#mc72922fc25" x="86.754724" y="143.278125" style="stroke: #000000; stroke-width: 0.8"/>
      </g>
     </g>
     <g id="text_1">
      <!-- 1989 -->
      <g transform="translate(74.029724 157.876562) scale(0.1 -0.1)">
       <defs>
        <path id="DejaVuSerif-31" d="M 909 0 
L 909 331 
L 1722 331 
L 1722 4213 
L 781 3603 
L 781 4013 
L 1919 4750 
L 2350 4750 
L 2350 331 
L 3163 331 
L 3163 0 
L 909 0 
z
" transform="scale(0.015625)"/>
        <path id="DejaVuSerif-39" d="M 2994 2091 
Q 2784 1856 2512 1740 
Q 2241 1625 1900 1625 
Q 1206 1625 804 2044 
Q 403 2463 403 3188 
Q 403 3897 839 4323 
Q 1275 4750 2003 4750 
Q 2794 4750 3217 4161 
Q 3641 3572 3641 2478 
Q 3641 1253 3137 581 
Q 2634 -91 1722 -91 
Q 1475 -91 1203 -44 
Q 931 3 647 97 
L 647 872 
L 997 872 
Q 1038 556 1241 387 
Q 1444 219 1784 219 
Q 2391 219 2687 676 
Q 2984 1134 2994 2091 
z
M 1978 4441 
Q 1534 4441 1298 4117 
Q 1063 3794 1063 3188 
Q 1063 2581 1298 2256 
Q 1534 1931 1978 1931 
Q 2422 1931 2658 2245 
Q 2894 2559 2894 3150 
Q 2894 3772 2656 4106 
Q 2419 4441 1978 4441 
z
" transform="scale(0.015625)"/>
        <path id="DejaVuSerif-38" d="M 2981 1275 
Q 2981 1775 2732 2051 
Q 2484 2328 2034 2328 
Q 1584 2328 1336 2051 
Q 1088 1775 1088 1275 
Q 1088 772 1336 495 
Q 1584 219 2034 219 
Q 2484 219 2732 495 
Q 2981 772 2981 1275 
z
M 2853 3541 
Q 2853 3966 2637 4203 
Q 2422 4441 2034 4441 
Q 1650 4441 1433 4203 
Q 1216 3966 1216 3541 
Q 1216 3113 1433 2875 
Q 1650 2638 2034 2638 
Q 2422 2638 2637 2875 
Q 2853 3113 2853 3541 
z
M 2516 2484 
Q 3047 2413 3344 2092 
Q 3641 1772 3641 1275 
Q 3641 619 3225 264 
Q 2809 -91 2034 -91 
Q 1263 -91 845 264 
Q 428 619 428 1275 
Q 428 1772 725 2092 
Q 1022 2413 1556 2484 
Q 1084 2569 832 2842 
Q 581 3116 581 3541 
Q 581 4103 968 4426 
Q 1356 4750 2034 4750 
Q 2713 4750 3100 4426 
Q 3488 4103 3488 3541 
Q 3488 3116 3236 2842 
Q 2984 2569 2516 2484 
z
" transform="scale(0.015625)"/>
       </defs>
       <use xlink:href="#DejaVuSerif-31"/>
       <use xlink:href="#DejaVuSerif-39" x="63.623047"/>
       <use xlink:href="#DejaVuSerif-38" x="127.246094"/>
       <use xlink:href="#DejaVuSerif-39" x="190.869141"/>
      </g>
     </g>
    </g>
    <g id="xtick_2">
     <g id="line2d_2">
      <g>
       <use xlink:href="#mc72922fc25" x="133.437077" y="143.278125" style="stroke: #000000; stroke-width: 0.8"/>
      </g>
     </g>
     <g id="text_2">
      <!-- 1994 -->
      <g transform="translate(120.712077 157.876562) scale(0.1 -0.1)">
       <defs>
        <path id="DejaVuSerif-34" d="M 2234 1581 
L 2234 4063 
L 641 1581 
L 2234 1581 
z
M 3609 0 
L 1484 0 
L 1484 331 
L 2234 331 
L 2234 1247 
L 197 1247 
L 197 1588 
L 2241 4750 
L 2859 4750 
L 2859 1581 
L 3750 1581 
L 3750 1247 
L 2859 1247 
L 2859 331 
L 3609 331 
L 3609 0 
z
" transform="scale(0.015625)"/>
       </defs>
       <use xlink:href="#DejaVuSerif-31"/>
       <use xlink:href="#DejaVuSerif-39" x="63.623047"/>
       <use xlink:href="#DejaVuSerif-39" x="127.246094"/>
       <use xlink:href="#DejaVuSerif-34" x="190.869141"/>
      </g>
     </g>
    </g>
    <g id="xtick_3">
     <g id="line2d_3">
      <g>
       <use xlink:href="#mc72922fc25" x="180.11943" y="143.278125" style="stroke: #000000; stroke-width: 0.8"/>
      </g>
     </g>
     <g id="text_3">
      <!-- 1999 -->
      <g transform="translate(167.39443 157.876562) scale(0.1 -0.1)">
       <use xlink:href="#DejaVuSerif-31"/>
       <use xlink:href="#DejaVuSerif-39" x="63.623047"/>
       <use xlink:href="#DejaVuSerif-39" x="127.246094"/>
       <use xlink:href="#DejaVuSerif-39" x="190.869141"/>
      </g>
     </g>
    </g>
    <g id="xtick_4">
     <g id="line2d_4">
      <g>
       <use xlink:href="#mc72922fc25" x="226.801783" y="143.278125" style="stroke: #000000; stroke-width: 0.8"/>
      </g>
     </g>
     <g id="text_4">
      <!-- 2004 -->
      <g transform="translate(214.076783 157.876562) scale(0.1 -0.1)">
       <defs>
        <path id="DejaVuSerif-32" d="M 819 3553 
L 469 3553 
L 469 4384 
Q 803 4563 1142 4656 
Q 1481 4750 1806 4750 
Q 2534 4750 2956 4397 
Q 3378 4044 3378 3438 
Q 3378 2753 2422 1800 
Q 2347 1728 2309 1691 
L 1131 513 
L 3078 513 
L 3078 1088 
L 3444 1088 
L 3444 0 
L 434 0 
L 434 341 
L 1850 1753 
Q 2319 2222 2519 2614 
Q 2719 3006 2719 3438 
Q 2719 3909 2473 4175 
Q 2228 4441 1797 4441 
Q 1350 4441 1106 4219 
Q 863 3997 819 3553 
z
" transform="scale(0.015625)"/>
        <path id="DejaVuSerif-30" d="M 2034 219 
Q 2513 219 2750 744 
Q 2988 1269 2988 2328 
Q 2988 3391 2750 3916 
Q 2513 4441 2034 4441 
Q 1556 4441 1318 3916 
Q 1081 3391 1081 2328 
Q 1081 1269 1318 744 
Q 1556 219 2034 219 
z
M 2034 -91 
Q 1275 -91 848 546 
Q 422 1184 422 2328 
Q 422 3475 848 4112 
Q 1275 4750 2034 4750 
Q 2797 4750 3222 4112 
Q 3647 3475 3647 2328 
Q 3647 1184 3222 546 
Q 2797 -91 2034 -91 
z
" transform="scale(0.015625)"/>
       </defs>
       <use xlink:href="#DejaVuSerif-32"/>
       <use xlink:href="#DejaVuSerif-30" x="63.623047"/>
       <use xlink:href="#DejaVuSerif-30" x="127.246094"/>
       <use xlink:href="#DejaVuSerif-34" x="190.869141"/>
      </g>
     </g>
    </g>
    <g id="xtick_5">
     <g id="line2d_5">
      <g>
       <use xlink:href="#mc72922fc25" x="273.484136" y="143.278125" style="stroke: #000000; stroke-width: 0.8"/>
      </g>
     </g>
     <g id="text_5">
      <!-- 2009 -->
      <g transform="translate(260.759136 157.876562) scale(0.1 -0.1)">
       <use xlink:href="#DejaVuSerif-32"/>
       <use xlink:href="#DejaVuSerif-30" x="63.623047"/>
       <use xlink:href="#DejaVuSerif-30" x="127.246094"/>
       <use xlink:href="#DejaVuSerif-39" x="190.869141"/>
      </g>
     </g>
    </g>
    <g id="xtick_6">
     <g id="line2d_6">
      <g>
       <use xlink:href="#mc72922fc25" x="320.166489" y="143.278125" style="stroke: #000000; stroke-width: 0.8"/>
      </g>
     </g>
     <g id="text_6">
      <!-- 2014 -->
      <g transform="translate(307.441489 157.876562) scale(0.1 -0.1)">
       <use xlink:href="#DejaVuSerif-32"/>
       <use xlink:href="#DejaVuSerif-30" x="63.623047"/>
       <use xlink:href="#DejaVuSerif-31" x="127.246094"/>
       <use xlink:href="#DejaVuSerif-34" x="190.869141"/>
      </g>
     </g>
    </g>
    <g id="xtick_7">
     <g id="line2d_7">
      <g>
       <use xlink:href="#mc72922fc25" x="366.848842" y="143.278125" style="stroke: #000000; stroke-width: 0.8"/>
      </g>
     </g>
     <g id="text_7">
      <!-- 2019 -->
      <g transform="translate(354.123842 157.876562) scale(0.1 -0.1)">
       <use xlink:href="#DejaVuSerif-32"/>
       <use xlink:href="#DejaVuSerif-30" x="63.623047"/>
       <use xlink:href="#DejaVuSerif-31" x="127.246094"/>
       <use xlink:href="#DejaVuSerif-39" x="190.869141"/>
      </g>
     </g>
    </g>
    <g id="xtick_8">
     <g id="line2d_8">
      <g>
       <use xlink:href="#mc72922fc25" x="413.531195" y="143.278125" style="stroke: #000000; stroke-width: 0.8"/>
      </g>
     </g>
     <g id="text_8">
      <!-- 2024 -->
      <g transform="translate(400.806195 157.876562) scale(0.1 -0.1)">
       <use xlink:href="#DejaVuSerif-32"/>
       <use xlink:href="#DejaVuSerif-30" x="63.623047"/>
       <use xlink:href="#DejaVuSerif-32" x="127.246094"/>
       <use xlink:href="#DejaVuSerif-34" x="190.869141"/>
      </g>
     </g>
    </g>
    <g id="xtick_9">
     <g id="line2d_9">
      <defs>
       <path id="m097249d6ae" d="M 0 0 
L 0 2 
" style="stroke: #000000; stroke-width: 0.6"/>
      </defs>
      <g>
       <use xlink:href="#m097249d6ae" x="58.745312" y="143.278125" style="stroke: #000000; stroke-width: 0.6"/>
      </g>
     </g>
    </g>
    <g id="xtick_10">
     <g id="line2d_10">
      <g>
       <use xlink:href="#m097249d6ae" x="68.081783" y="143.278125" style="stroke: #000000; stroke-width: 0.6"/>
      </g>
     </g>
    </g>
    <g id="xtick_11">
     <g id="line2d_11">
      <g>
       <use xlink:href="#m097249d6ae" x="77.418254" y="143.278125" style="stroke: #000000; stroke-width: 0.6"/>
      </g>
     </g>
    </g>
    <g id="xtick_12">
     <g id="line2d_12">
      <g>
       <use xlink:href="#m097249d6ae" x="96.091195" y="143.278125" style="stroke: #000000; stroke-width: 0.6"/>
      </g>
     </g>
    </g>
    <g id="xtick_13">
     <g id="line2d_13">
      <g>
       <use xlink:href="#m097249d6ae" x="105.427665" y="143.278125" style="stroke: #000000; stroke-width: 0.6"/>
      </g>
     </g>
    </g>
    <g id="xtick_14">
     <g id="line2d_14">
      <g>
       <use xlink:href="#m097249d6ae" x="114.764136" y="143.278125" style="stroke: #000000; stroke-width: 0.6"/>
      </g>
     </g>
    </g>
    <g id="xtick_15">
     <g id="line2d_15">
      <g>
       <use xlink:href="#m097249d6ae" x="124.100607" y="143.278125" style="stroke: #000000; stroke-width: 0.6"/>
      </g>
     </g>
    </g>
    <g id="xtick_16">
     <g id="line2d_16">
      <g>
       <use xlink:href="#m097249d6ae" x="142.773548" y="143.278125" style="stroke: #000000; stroke-width: 0.6"/>
      </g>
     </g>
    </g>
    <g id="xtick_17">
     <g id="line2d_17">
      <g>
       <use xlink:href="#m097249d6ae" x="152.110018" y="143.278125" style="stroke: #000000; stroke-width: 0.6"/>
      </g>
     </g>
    </g>
    <g id="xtick_18">
     <g id="line2d_18">
      <g>
       <use xlink:href="#m097249d6ae" x="161.446489" y="143.278125" style="stroke: #000000; stroke-width: 0.6"/>
      </g>
     </g>
    </g>
    <g id="xtick_19">
     <g id="line2d_19">
      <g>
       <use xlink:href="#m097249d6ae" x="170.78296" y="143.278125" style="stroke: #000000; stroke-width: 0.6"/>
      </g>
     </g>
    </g>
    <g id="xtick_20">
     <g id="line2d_20">
      <g>
       <use xlink:href="#m097249d6ae" x="189.455901" y="143.278125" style="stroke: #000000; stroke-width: 0.6"/>
      </g>
     </g>
    </g>
    <g id="xtick_21">
     <g id="line2d_21">
      <g>
       <use xlink:href="#m097249d6ae" x="198.792371" y="143.278125" style="stroke: #000000; stroke-width: 0.6"/>
      </g>
     </g>
    </g>
    <g id="xtick_22">
     <g id="line2d_22">
      <g>
       <use xlink:href="#m097249d6ae" x="208.128842" y="143.278125" style="stroke: #000000; stroke-width: 0.6"/>
      </g>
     </g>
    </g>
    <g id="xtick_23">
     <g id="line2d_23">
      <g>
       <use xlink:href="#m097249d6ae" x="217.465313" y="143.278125" style="stroke: #000000; stroke-width: 0.6"/>
      </g>
     </g>
    </g>
    <g id="xtick_24">
     <g id="line2d_24">
      <g>
       <use xlink:href="#m097249d6ae" x="236.138254" y="143.278125" style="stroke: #000000; stroke-width: 0.6"/>
      </g>
     </g>
    </g>
    <g id="xtick_25">
     <g id="line2d_25">
      <g>
       <use xlink:href="#m097249d6ae" x="245.474724" y="143.278125" style="stroke: #000000; stroke-width: 0.6"/>
      </g>
     </g>
    </g>
    <g id="xtick_26">
     <g id="line2d_26">
      <g>
       <use xlink:href="#m097249d6ae" x="254.811195" y="143.278125" style="stroke: #000000; stroke-width: 0.6"/>
      </g>
     </g>
    </g>
    <g id="xtick_27">
     <g id="line2d_27">
      <g>
       <use xlink:href="#m097249d6ae" x="264.147665" y="143.278125" style="stroke: #000000; stroke-width: 0.6"/>
      </g>
     </g>
    </g>
    <g id="xtick_28">
     <g id="line2d_28">
      <g>
       <use xlink:href="#m097249d6ae" x="282.820607" y="143.278125" style="stroke: #000000; stroke-width: 0.6"/>
      </g>
     </g>
    </g>
    <g id="xtick_29">
     <g id="line2d_29">
      <g>
       <use xlink:href="#m097249d6ae" x="292.157077" y="143.278125" style="stroke: #000000; stroke-width: 0.6"/>
      </g>
     </g>
    </g>
    <g id="xtick_30">
     <g id="line2d_30">
      <g>
       <use xlink:href="#m097249d6ae" x="301.493548" y="143.278125" style="stroke: #000000; stroke-width: 0.6"/>
      </g>
     </g>
    </g>
    <g id="xtick_31">
     <g id="line2d_31">
      <g>
       <use xlink:href="#m097249d6ae" x="310.830018" y="143.278125" style="stroke: #000000; stroke-width: 0.6"/>
      </g>
     </g>
    </g>
    <g id="xtick_32">
     <g id="line2d_32">
      <g>
       <use xlink:href="#m097249d6ae" x="329.50296" y="143.278125" style="stroke: #000000; stroke-width: 0.6"/>
      </g>
     </g>
    </g>
    <g id="xtick_33">
     <g id="line2d_33">
      <g>
       <use xlink:href="#m097249d6ae" x="338.83943" y="143.278125" style="stroke: #000000; stroke-width: 0.6"/>
      </g>
     </g>
    </g>
    <g id="xtick_34">
     <g id="line2d_34">
      <g>
       <use xlink:href="#m097249d6ae" x="348.175901" y="143.278125" style="stroke: #000000; stroke-width: 0.6"/>
      </g>
     </g>
    </g>
    <g id="xtick_35">
     <g id="line2d_35">
      <g>
       <use xlink:href="#m097249d6ae" x="357.512371" y="143.278125" style="stroke: #000000; stroke-width: 0.6"/>
      </g>
     </g>
    </g>
    <g id="xtick_36">
     <g id="line2d_36">
      <g>
       <use xlink:href="#m097249d6ae" x="376.185313" y="143.278125" style="stroke: #000000; stroke-width: 0.6"/>
      </g>
     </g>
    </g>
    <g id="xtick_37">
     <g id="line2d_37">
      <g>
       <use xlink:href="#m097249d6ae" x="385.521783" y="143.278125" style="stroke: #000000; stroke-width: 0.6"/>
      </g>
     </g>
    </g>
    <g id="xtick_38">
     <g id="line2d_38">
      <g>
       <use xlink:href="#m097249d6ae" x="394.858254" y="143.278125" style="stroke: #000000; stroke-width: 0.6"/>
      </g>
     </g>
    </g>
    <g id="xtick_39">
     <g id="line2d_39">
      <g>
       <use xlink:href="#m097249d6ae" x="404.194724" y="143.278125" style="stroke: #000000; stroke-width: 0.6"/>
      </g>
     </g>
    </g>
   </g>
   <g id="matplotlib.axis_2">
    <g id="ytick_1">
     <g id="line2d_40">
      <defs>
       <path id="m9188c5d6c6" d="M 0 0 
L -3.5 0 
" style="stroke: #000000; stroke-width: 0.8"/>
      </defs>
      <g>
       <use xlink:href="#m9188c5d6c6" x="58.745313" y="137.780034" style="stroke: #000000; stroke-width: 0.8"/>
      </g>
     </g>
     <g id="text_9">
      <!-- 0.0 -->
      <g transform="translate(35.842188 141.579253) scale(0.1 -0.1)">
       <defs>
        <path id="DejaVuSerif-2e" d="M 603 325 
Q 603 500 722 622 
Q 841 744 1019 744 
Q 1191 744 1312 622 
Q 1434 500 1434 325 
Q 1434 153 1312 31 
Q 1191 -91 1019 -91 
Q 841 -91 722 29 
Q 603 150 603 325 
z
" transform="scale(0.015625)"/>
       </defs>
       <use xlink:href="#DejaVuSerif-30"/>
       <use xlink:href="#DejaVuSerif-2e" x="63.623047"/>
       <use xlink:href="#DejaVuSerif-30" x="95.410156"/>
      </g>
     </g>
    </g>
    <g id="ytick_2">
     <g id="line2d_41">
      <g>
       <use xlink:href="#m9188c5d6c6" x="58.745313" y="115.787286" style="stroke: #000000; stroke-width: 0.8"/>
      </g>
     </g>
     <g id="text_10">
      <!-- 0.2 -->
      <g transform="translate(35.842188 119.586505) scale(0.1 -0.1)">
       <use xlink:href="#DejaVuSerif-30"/>
       <use xlink:href="#DejaVuSerif-2e" x="63.623047"/>
       <use xlink:href="#DejaVuSerif-32" x="95.410156"/>
      </g>
     </g>
    </g>
    <g id="ytick_3">
     <g id="line2d_42">
      <g>
       <use xlink:href="#m9188c5d6c6" x="58.745313" y="93.794538" style="stroke: #000000; stroke-width: 0.8"/>
      </g>
     </g>
     <g id="text_11">
      <!-- 0.4 -->
      <g transform="translate(35.842188 97.593756) scale(0.1 -0.1)">
       <use xlink:href="#DejaVuSerif-30"/>
       <use xlink:href="#DejaVuSerif-2e" x="63.623047"/>
       <use xlink:href="#DejaVuSerif-34" x="95.410156"/>
      </g>
     </g>
    </g>
    <g id="ytick_4">
     <g id="line2d_43">
      <g>
       <use xlink:href="#m9188c5d6c6" x="58.745313" y="71.80179" style="stroke: #000000; stroke-width: 0.8"/>
      </g>
     </g>
     <g id="text_12">
      <!-- 0.6 -->
      <g transform="translate(35.842188 75.601008) scale(0.1 -0.1)">
       <defs>
        <path id="DejaVuSerif-36" d="M 2094 219 
Q 2534 219 2771 542 
Q 3009 866 3009 1472 
Q 3009 2078 2771 2401 
Q 2534 2725 2094 2725 
Q 1647 2725 1412 2412 
Q 1178 2100 1178 1509 
Q 1178 888 1415 553 
Q 1653 219 2094 219 
z
M 1075 2569 
Q 1288 2803 1556 2918 
Q 1825 3034 2163 3034 
Q 2859 3034 3264 2615 
Q 3669 2197 3669 1472 
Q 3669 763 3233 336 
Q 2797 -91 2069 -91 
Q 1278 -91 853 498 
Q 428 1088 428 2181 
Q 428 3406 931 4078 
Q 1434 4750 2350 4750 
Q 2597 4750 2869 4703 
Q 3141 4656 3425 4563 
L 3425 3794 
L 3072 3794 
Q 3034 4109 2831 4275 
Q 2628 4441 2284 4441 
Q 1678 4441 1381 3981 
Q 1084 3522 1075 2569 
z
" transform="scale(0.015625)"/>
       </defs>
       <use xlink:href="#DejaVuSerif-30"/>
       <use xlink:href="#DejaVuSerif-2e" x="63.623047"/>
       <use xlink:href="#DejaVuSerif-36" x="95.410156"/>
      </g>
     </g>
    </g>
    <g id="ytick_5">
     <g id="line2d_44">
      <g>
       <use xlink:href="#m9188c5d6c6" x="58.745313" y="49.809041" style="stroke: #000000; stroke-width: 0.8"/>
      </g>
     </g>
     <g id="text_13">
      <!-- 0.8 -->
      <g transform="translate(35.842188 53.60826) scale(0.1 -0.1)">
       <use xlink:href="#DejaVuSerif-30"/>
       <use xlink:href="#DejaVuSerif-2e" x="63.623047"/>
       <use xlink:href="#DejaVuSerif-38" x="95.410156"/>
      </g>
     </g>
    </g>
    <g id="ytick_6">
     <g id="line2d_45">
      <g>
       <use xlink:href="#m9188c5d6c6" x="58.745313" y="27.816293" style="stroke: #000000; stroke-width: 0.8"/>
      </g>
     </g>
     <g id="text_14">
      <!-- 1.0 -->
      <g transform="translate(35.842188 31.615512) scale(0.1 -0.1)">
       <use xlink:href="#DejaVuSerif-31"/>
       <use xlink:href="#DejaVuSerif-2e" x="63.623047"/>
       <use xlink:href="#DejaVuSerif-30" x="95.410156"/>
      </g>
     </g>
    </g>
    <g id="text_15">
     <!-- Prob. of being in $S_t=1$ -->
     <g transform="translate(29.542187 140.848125) rotate(-90) scale(0.1 -0.1)">
      <defs>
       <path id="DejaVuSerif-50" d="M 1581 2375 
L 2406 2375 
Q 2872 2375 3115 2626 
Q 3359 2878 3359 3353 
Q 3359 3831 3115 4081 
Q 2872 4331 2406 4331 
L 1581 4331 
L 1581 2375 
z
M 353 0 
L 353 331 
L 947 331 
L 947 4331 
L 353 4331 
L 353 4666 
L 2559 4666 
Q 3259 4666 3668 4311 
Q 4078 3956 4078 3353 
Q 4078 2753 3668 2397 
Q 3259 2041 2559 2041 
L 1581 2041 
L 1581 331 
L 2303 331 
L 2303 0 
L 353 0 
z
" transform="scale(0.015625)"/>
       <path id="DejaVuSerif-72" d="M 3059 3328 
L 3059 2497 
L 2728 2497 
Q 2713 2744 2591 2866 
Q 2469 2988 2234 2988 
Q 1809 2988 1582 2694 
Q 1356 2400 1356 1850 
L 1356 331 
L 2022 331 
L 2022 0 
L 263 0 
L 263 331 
L 781 331 
L 781 2994 
L 231 2994 
L 231 3322 
L 1356 3322 
L 1356 2731 
Q 1525 3078 1790 3245 
Q 2056 3413 2438 3413 
Q 2578 3413 2733 3391 
Q 2888 3369 3059 3328 
z
" transform="scale(0.015625)"/>
       <path id="DejaVuSerif-6f" d="M 1925 219 
Q 2388 219 2623 584 
Q 2859 950 2859 1663 
Q 2859 2375 2623 2739 
Q 2388 3103 1925 3103 
Q 1463 3103 1227 2739 
Q 991 2375 991 1663 
Q 991 950 1228 584 
Q 1466 219 1925 219 
z
M 1925 -91 
Q 1200 -91 759 389 
Q 319 869 319 1663 
Q 319 2456 758 2934 
Q 1197 3413 1925 3413 
Q 2653 3413 3092 2934 
Q 3531 2456 3531 1663 
Q 3531 869 3092 389 
Q 2653 -91 1925 -91 
z
" transform="scale(0.015625)"/>
       <path id="DejaVuSerif-62" d="M 738 331 
L 738 4531 
L 184 4531 
L 184 4863 
L 1313 4863 
L 1313 2803 
Q 1481 3116 1742 3264 
Q 2003 3413 2388 3413 
Q 3000 3413 3387 2928 
Q 3775 2444 3775 1663 
Q 3775 881 3387 395 
Q 3000 -91 2388 -91 
Q 2003 -91 1742 57 
Q 1481 206 1313 519 
L 1313 0 
L 184 0 
L 184 331 
L 738 331 
z
M 1313 1497 
Q 1313 897 1542 583 
Q 1772 269 2209 269 
Q 2650 269 2876 622 
Q 3103 975 3103 1663 
Q 3103 2353 2876 2703 
Q 2650 3053 2209 3053 
Q 1772 3053 1542 2737 
Q 1313 2422 1313 1825 
L 1313 1497 
z
" transform="scale(0.015625)"/>
       <path id="DejaVuSerif-20" transform="scale(0.015625)"/>
       <path id="DejaVuSerif-66" d="M 2753 4078 
L 2450 4078 
Q 2447 4313 2317 4434 
Q 2188 4556 1941 4556 
Q 1619 4556 1487 4379 
Q 1356 4203 1356 3750 
L 1356 3322 
L 2284 3322 
L 2284 2988 
L 1356 2988 
L 1356 331 
L 2094 331 
L 2094 0 
L 231 0 
L 231 331 
L 781 331 
L 781 2988 
L 231 2988 
L 231 3322 
L 781 3322 
L 781 3738 
Q 781 4294 1070 4578 
Q 1359 4863 1919 4863 
Q 2128 4863 2337 4825 
Q 2547 4788 2753 4709 
L 2753 4078 
z
" transform="scale(0.015625)"/>
       <path id="DejaVuSerif-65" d="M 3469 1600 
L 991 1600 
L 991 1575 
Q 991 903 1244 561 
Q 1497 219 1991 219 
Q 2369 219 2611 417 
Q 2853 616 2950 1006 
L 3413 1006 
Q 3275 459 2904 184 
Q 2534 -91 1931 -91 
Q 1203 -91 761 389 
Q 319 869 319 1663 
Q 319 2450 753 2931 
Q 1188 3413 1894 3413 
Q 2647 3413 3050 2948 
Q 3453 2484 3469 1600 
z
M 2791 1931 
Q 2772 2513 2545 2808 
Q 2319 3103 1894 3103 
Q 1497 3103 1269 2806 
Q 1041 2509 991 1931 
L 2791 1931 
z
" transform="scale(0.015625)"/>
       <path id="DejaVuSerif-69" d="M 622 4353 
Q 622 4497 726 4603 
Q 831 4709 978 4709 
Q 1122 4709 1226 4603 
Q 1331 4497 1331 4353 
Q 1331 4206 1228 4103 
Q 1125 4000 978 4000 
Q 831 4000 726 4103 
Q 622 4206 622 4353 
z
M 1356 331 
L 1900 331 
L 1900 0 
L 231 0 
L 231 331 
L 781 331 
L 781 2988 
L 231 2988 
L 231 3322 
L 1356 3322 
L 1356 331 
z
" transform="scale(0.015625)"/>
       <path id="DejaVuSerif-6e" d="M 263 0 
L 263 331 
L 781 331 
L 781 2988 
L 231 2988 
L 231 3322 
L 1356 3322 
L 1356 2731 
Q 1516 3069 1770 3241 
Q 2025 3413 2363 3413 
Q 2913 3413 3172 3097 
Q 3431 2781 3431 2113 
L 3431 331 
L 3944 331 
L 3944 0 
L 2356 0 
L 2356 331 
L 2853 331 
L 2853 1931 
Q 2853 2541 2703 2767 
Q 2553 2994 2175 2994 
Q 1775 2994 1565 2701 
Q 1356 2409 1356 1850 
L 1356 331 
L 1856 331 
L 1856 0 
L 263 0 
z
" transform="scale(0.015625)"/>
       <path id="DejaVuSerif-67" d="M 3359 2988 
L 3359 72 
Q 3359 -644 2965 -1033 
Q 2572 -1422 1844 -1422 
Q 1516 -1422 1216 -1362 
Q 916 -1303 641 -1184 
L 641 -488 
L 941 -488 
Q 997 -813 1206 -963 
Q 1416 -1113 1806 -1113 
Q 2313 -1113 2548 -827 
Q 2784 -541 2784 72 
L 2784 519 
Q 2616 206 2355 57 
Q 2094 -91 1709 -91 
Q 1097 -91 708 395 
Q 319 881 319 1663 
Q 319 2444 706 2928 
Q 1094 3413 1709 3413 
Q 2094 3413 2355 3264 
Q 2616 3116 2784 2803 
L 2784 3322 
L 3909 3322 
L 3909 2988 
L 3359 2988 
z
M 2784 1825 
Q 2784 2422 2554 2737 
Q 2325 3053 1888 3053 
Q 1444 3053 1217 2703 
Q 991 2353 991 1663 
Q 991 975 1217 622 
Q 1444 269 1888 269 
Q 2325 269 2554 583 
Q 2784 897 2784 1497 
L 2784 1825 
z
" transform="scale(0.015625)"/>
       <path id="DejaVuSerif-Italic-53" d="M 184 225 
L 391 1288 
L 750 1284 
Q 663 753 905 498 
Q 1147 244 1744 244 
Q 2300 244 2636 464 
Q 2972 684 3053 1106 
Q 3119 1444 2976 1625 
Q 2834 1806 2300 1978 
L 1722 2163 
Q 1091 2366 877 2669 
Q 663 2972 766 3500 
Q 881 4094 1367 4422 
Q 1853 4750 2616 4750 
Q 2941 4750 3314 4679 
Q 3688 4609 4097 4475 
L 3906 3481 
L 3553 3481 
Q 3594 3975 3361 4195 
Q 3128 4416 2563 4416 
Q 2069 4416 1772 4214 
Q 1475 4013 1400 3628 
Q 1334 3294 1490 3103 
Q 1647 2913 2241 2725 
L 2784 2553 
Q 3381 2363 3593 2067 
Q 3806 1772 3709 1275 
Q 3578 597 3076 253 
Q 2575 -91 1716 -91 
Q 1331 -91 948 -12 
Q 566 66 184 225 
z
" transform="scale(0.015625)"/>
       <path id="DejaVuSerif-Italic-74" d="M 856 2988 
L 350 2988 
L 416 3322 
L 922 3322 
L 1122 4353 
L 1700 4353 
L 1500 3322 
L 2581 3322 
L 2516 2988 
L 1434 2988 
L 1025 878 
Q 978 631 978 488 
Q 978 388 1000 338 
Q 1059 219 1278 219 
Q 1503 219 1633 351 
Q 1763 484 1825 781 
L 2259 781 
Q 2147 328 1884 118 
Q 1622 -91 1169 -91 
Q 672 -91 506 131 
Q 406 266 406 516 
Q 406 675 447 878 
L 856 2988 
z
" transform="scale(0.015625)"/>
       <path id="DejaVuSerif-3d" d="M 678 2894 
L 4684 2894 
L 4684 2394 
L 678 2394 
L 678 2894 
z
M 678 1619 
L 4684 1619 
L 4684 1119 
L 678 1119 
L 678 1619 
z
" transform="scale(0.015625)"/>
      </defs>
      <use xlink:href="#DejaVuSerif-50" transform="translate(0 0.015625)"/>
      <use xlink:href="#DejaVuSerif-72" transform="translate(67.285156 0.015625)"/>
      <use xlink:href="#DejaVuSerif-6f" transform="translate(115.087891 0.015625)"/>
      <use xlink:href="#DejaVuSerif-62" transform="translate(175.292969 0.015625)"/>
      <use xlink:href="#DejaVuSerif-2e" transform="translate(239.306641 0.015625)"/>
      <use xlink:href="#DejaVuSerif-20" transform="translate(271.09375 0.015625)"/>
      <use xlink:href="#DejaVuSerif-6f" transform="translate(302.880859 0.015625)"/>
      <use xlink:href="#DejaVuSerif-66" transform="translate(363.085938 0.015625)"/>
      <use xlink:href="#DejaVuSerif-20" transform="translate(400.097656 0.015625)"/>
      <use xlink:href="#DejaVuSerif-62" transform="translate(431.884766 0.015625)"/>
      <use xlink:href="#DejaVuSerif-65" transform="translate(495.898438 0.015625)"/>
      <use xlink:href="#DejaVuSerif-69" transform="translate(555.078125 0.015625)"/>
      <use xlink:href="#DejaVuSerif-6e" transform="translate(587.060547 0.015625)"/>
      <use xlink:href="#DejaVuSerif-67" transform="translate(651.464844 0.015625)"/>
      <use xlink:href="#DejaVuSerif-20" transform="translate(715.478516 0.015625)"/>
      <use xlink:href="#DejaVuSerif-69" transform="translate(747.265625 0.015625)"/>
      <use xlink:href="#DejaVuSerif-6e" transform="translate(779.248047 0.015625)"/>
      <use xlink:href="#DejaVuSerif-20" transform="translate(843.652344 0.015625)"/>
      <use xlink:href="#DejaVuSerif-Italic-53" transform="translate(875.439453 0.015625)"/>
      <use xlink:href="#DejaVuSerif-Italic-74" transform="translate(943.945312 -15.55625) scale(0.7)"/>
      <use xlink:href="#DejaVuSerif-3d" transform="translate(993.635352 0.015625)"/>
      <use xlink:href="#DejaVuSerif-31" transform="translate(1096.389258 0.015625)"/>
     </g>
    </g>
   </g>
   <g id="line2d_46">
    <path d="M 58.745312 33.983351 
L 63.413548 28.254712 
L 65.747665 27.833429 
L 79.752371 27.821052 
L 82.086489 28.383777 
L 84.420607 67.650954 
L 86.754724 123.02736 
L 89.088842 137.178996 
L 91.42296 137.729291 
L 105.427665 137.759695 
L 107.761783 137.337456 
L 110.095901 136.523475 
L 112.430018 135.397636 
L 114.764136 129.952384 
L 117.098254 106.540658 
L 119.432371 61.41617 
L 121.766489 36.907618 
L 124.100607 28.210573 
L 126.434724 27.970554 
L 128.768842 28.155738 
L 135.771195 27.825641 
L 140.43943 27.894756 
L 142.773548 28.076988 
L 145.107665 29.752419 
L 149.775901 27.989741 
L 152.110018 27.83566 
L 163.780607 27.831269 
L 166.114724 29.981252 
L 168.448842 53.540057 
L 170.78296 117.914493 
L 173.117077 135.12976 
L 175.451195 136.359801 
L 177.785313 135.830056 
L 180.11943 134.180645 
L 182.453548 133.339998 
L 184.787665 135.394331 
L 187.121783 137.701356 
L 191.790018 137.779831 
L 196.458254 137.779504 
L 198.792371 137.615625 
L 201.126489 125.759038 
L 203.460607 63.817926 
L 205.794724 28.174254 
L 208.128842 27.83001 
L 226.801783 27.85418 
L 229.135901 33.295086 
L 231.470018 37.91552 
L 233.804136 50.37594 
L 236.138254 55.194206 
L 238.472371 61.187821 
L 240.806489 65.465358 
L 243.140607 95.624216 
L 245.474724 135.871328 
L 247.808842 137.547207 
L 250.14296 137.77598 
L 264.147665 137.686964 
L 266.481783 131.435319 
L 268.815901 122.397511 
L 271.150018 42.814003 
L 273.484136 27.871279 
L 280.486489 27.816637 
L 294.491195 27.820172 
L 329.50296 27.893241 
L 331.837077 27.99271 
L 334.171195 27.970724 
L 338.83943 28.250294 
L 348.175901 27.873263 
L 352.844136 27.92337 
L 355.178254 28.678939 
L 357.512371 31.767671 
L 359.846489 39.031318 
L 362.180607 39.346244 
L 364.514724 35.364377 
L 366.848842 29.789654 
L 369.18296 27.996204 
L 371.517077 27.925239 
L 373.851195 28.128509 
L 376.185313 28.080147 
L 378.51943 27.816307 
L 383.187665 27.816819 
L 385.521783 28.103407 
L 387.855901 137.658315 
L 392.524136 137.777095 
L 413.531195 137.771449 
L 415.865312 137.607617 
L 415.865312 137.607617 
" clip-path="url(#p048830ae19)" style="fill: none; stroke: #1f77b4; stroke-width: 1.5; stroke-linecap: square"/>
   </g>
   <g id="patch_37">
    <path d="M 58.745313 143.278125 
L 58.745313 22.318125 
" style="fill: none; stroke: #000000; stroke-width: 0.8; stroke-linejoin: miter; stroke-linecap: square"/>
   </g>
   <g id="patch_38">
    <path d="M 415.865313 143.278125 
L 415.865313 22.318125 
" style="fill: none; stroke: #000000; stroke-width: 0.8; stroke-linejoin: miter; stroke-linecap: square"/>
   </g>
   <g id="patch_39">
    <path d="M 58.745312 143.278125 
L 415.865312 143.278125 
" style="fill: none; stroke: #000000; stroke-width: 0.8; stroke-linejoin: miter; stroke-linecap: square"/>
   </g>
   <g id="patch_40">
    <path d="M 58.745312 22.318125 
L 415.865312 22.318125 
" style="fill: none; stroke: #000000; stroke-width: 0.8; stroke-linejoin: miter; stroke-linecap: square"/>
   </g>
   <g id="text_16">
    <!-- Switzerland -->
    <g transform="translate(200.947188 16.318125) scale(0.12 -0.12)">
     <defs>
      <path id="DejaVuSerif-53" d="M 594 225 
L 594 1288 
L 953 1284 
Q 969 753 1261 498 
Q 1553 244 2150 244 
Q 2706 244 2998 464 
Q 3291 684 3291 1106 
Q 3291 1444 3114 1625 
Q 2938 1806 2369 1978 
L 1753 2163 
Q 1084 2366 811 2669 
Q 538 2972 538 3500 
Q 538 4094 959 4422 
Q 1381 4750 2144 4750 
Q 2469 4750 2856 4679 
Q 3244 4609 3681 4475 
L 3681 3481 
L 3328 3481 
Q 3275 3975 2998 4195 
Q 2722 4416 2156 4416 
Q 1663 4416 1405 4214 
Q 1147 4013 1147 3628 
Q 1147 3294 1340 3103 
Q 1534 2913 2163 2725 
L 2741 2553 
Q 3375 2363 3645 2067 
Q 3916 1772 3916 1275 
Q 3916 597 3481 253 
Q 3047 -91 2188 -91 
Q 1803 -91 1404 -12 
Q 1006 66 594 225 
z
" transform="scale(0.015625)"/>
      <path id="DejaVuSerif-77" d="M 3072 3322 
L 3922 728 
L 4672 2988 
L 4191 2988 
L 4191 3322 
L 5394 3322 
L 5394 2988 
L 5025 2988 
L 4038 0 
L 3559 0 
L 2741 2484 
L 1919 0 
L 1459 0 
L 475 2988 
L 103 2988 
L 103 3322 
L 1606 3322 
L 1606 2988 
L 1069 2988 
L 1813 728 
L 2669 3322 
L 3072 3322 
z
" transform="scale(0.015625)"/>
      <path id="DejaVuSerif-74" d="M 691 2988 
L 184 2988 
L 184 3322 
L 691 3322 
L 691 4353 
L 1269 4353 
L 1269 3322 
L 2350 3322 
L 2350 2988 
L 1269 2988 
L 1269 878 
Q 1269 456 1350 337 
Q 1431 219 1650 219 
Q 1875 219 1978 351 
Q 2081 484 2088 781 
L 2522 781 
Q 2497 328 2275 118 
Q 2053 -91 1600 -91 
Q 1103 -91 897 129 
Q 691 350 691 878 
L 691 2988 
z
" transform="scale(0.015625)"/>
      <path id="DejaVuSerif-7a" d="M 256 0 
L 256 269 
L 2338 2988 
L 691 2988 
L 691 2413 
L 359 2413 
L 359 3322 
L 3078 3322 
L 3078 3053 
L 997 331 
L 2803 331 
L 2803 934 
L 3138 934 
L 3138 0 
L 256 0 
z
" transform="scale(0.015625)"/>
      <path id="DejaVuSerif-6c" d="M 1313 331 
L 1856 331 
L 1856 0 
L 184 0 
L 184 331 
L 738 331 
L 738 4531 
L 184 4531 
L 184 4863 
L 1313 4863 
L 1313 331 
z
" transform="scale(0.015625)"/>
      <path id="DejaVuSerif-61" d="M 2547 1044 
L 2547 1747 
L 1806 1747 
Q 1378 1747 1168 1562 
Q 959 1378 959 997 
Q 959 650 1171 447 
Q 1384 244 1747 244 
Q 2106 244 2326 466 
Q 2547 688 2547 1044 
z
M 3122 2075 
L 3122 331 
L 3634 331 
L 3634 0 
L 2547 0 
L 2547 359 
Q 2356 128 2106 18 
Q 1856 -91 1522 -91 
Q 969 -91 644 203 
Q 319 497 319 997 
Q 319 1513 691 1797 
Q 1063 2081 1741 2081 
L 2547 2081 
L 2547 2309 
Q 2547 2688 2317 2895 
Q 2088 3103 1672 3103 
Q 1328 3103 1125 2947 
Q 922 2791 872 2484 
L 575 2484 
L 575 3156 
Q 875 3284 1158 3348 
Q 1441 3413 1709 3413 
Q 2400 3413 2761 3070 
Q 3122 2728 3122 2075 
z
" transform="scale(0.015625)"/>
      <path id="DejaVuSerif-64" d="M 3359 331 
L 3909 331 
L 3909 0 
L 2784 0 
L 2784 519 
Q 2616 206 2355 57 
Q 2094 -91 1709 -91 
Q 1097 -91 708 395 
Q 319 881 319 1663 
Q 319 2444 706 2928 
Q 1094 3413 1709 3413 
Q 2094 3413 2355 3264 
Q 2616 3116 2784 2803 
L 2784 4531 
L 2241 4531 
L 2241 4863 
L 3359 4863 
L 3359 331 
z
M 2784 1497 
L 2784 1825 
Q 2784 2422 2554 2737 
Q 2325 3053 1888 3053 
Q 1444 3053 1217 2703 
Q 991 2353 991 1663 
Q 991 975 1217 622 
Q 1444 269 1888 269 
Q 2325 269 2554 583 
Q 2784 897 2784 1497 
z
" transform="scale(0.015625)"/>
     </defs>
     <use xlink:href="#DejaVuSerif-53"/>
     <use xlink:href="#DejaVuSerif-77" x="68.505859"/>
     <use xlink:href="#DejaVuSerif-69" x="154.101562"/>
     <use xlink:href="#DejaVuSerif-74" x="186.083984"/>
     <use xlink:href="#DejaVuSerif-7a" x="226.269531"/>
     <use xlink:href="#DejaVuSerif-65" x="278.955078"/>
     <use xlink:href="#DejaVuSerif-72" x="338.134766"/>
     <use xlink:href="#DejaVuSerif-6c" x="385.9375"/>
     <use xlink:href="#DejaVuSerif-61" x="417.919922"/>
     <use xlink:href="#DejaVuSerif-6e" x="477.539062"/>
     <use xlink:href="#DejaVuSerif-64" x="541.943359"/>
    </g>
   </g>
  </g>
  <g id="axes_2">
   <g id="patch_41">
    <path d="M 58.745313 288.430125 
L 415.865313 288.430125 
L 415.865313 167.470125 
L 58.745313 167.470125 
z
" style="fill: #ffffff"/>
   </g>
   <g id="patch_42">
    <path d="M -1143.325276 288.430125 
L -1129.32057 288.430125 
L -1129.32057 167.470125 
L -1143.325276 167.470125 
z
" clip-path="url(#p1b249a18d1)" style="fill: #d3d3d3"/>
   </g>
   <g id="patch_43">
    <path d="M -1112.981746 288.430125 
L -1103.645276 288.430125 
L -1103.645276 167.470125 
L -1112.981746 167.470125 
z
" clip-path="url(#p1b249a18d1)" style="fill: #d3d3d3"/>
   </g>
   <g id="patch_44">
    <path d="M -1070.967629 288.430125 
L -1052.294688 288.430125 
L -1052.294688 167.470125 
L -1070.967629 167.470125 
z
" clip-path="url(#p1b249a18d1)" style="fill: #d3d3d3"/>
   </g>
   <g id="patch_45">
    <path d="M -1031.287629 288.430125 
L -1017.282923 288.430125 
L -1017.282923 167.470125 
L -1031.287629 167.470125 
z
" clip-path="url(#p1b249a18d1)" style="fill: #d3d3d3"/>
   </g>
   <g id="patch_46">
    <path d="M -991.607629 288.430125 
L -940.25704 288.430125 
L -940.25704 167.470125 
L -991.607629 167.470125 
z
" clip-path="url(#p1b249a18d1)" style="fill: #d3d3d3"/>
   </g>
   <g id="patch_47">
    <path d="M -912.247629 288.430125 
L -881.904099 288.430125 
L -881.904099 167.470125 
L -912.247629 167.470125 
z
" clip-path="url(#p1b249a18d1)" style="fill: #d3d3d3"/>
   </g>
   <g id="patch_48">
    <path d="M -863.231158 288.430125 
L -856.228805 288.430125 
L -856.228805 167.470125 
L -863.231158 167.470125 
z
" clip-path="url(#p1b249a18d1)" style="fill: #d3d3d3"/>
   </g>
   <g id="patch_49">
    <path d="M -832.887629 288.430125 
L -825.885276 288.430125 
L -825.885276 167.470125 
L -832.887629 167.470125 
z
" clip-path="url(#p1b249a18d1)" style="fill: #d3d3d3"/>
   </g>
   <g id="patch_50">
    <path d="M -809.546452 288.430125 
L -797.875864 288.430125 
L -797.875864 167.470125 
L -809.546452 167.470125 
z
" clip-path="url(#p1b249a18d1)" style="fill: #d3d3d3"/>
   </g>
   <g id="patch_51">
    <path d="M -783.871158 288.430125 
L -769.866452 288.430125 
L -769.866452 167.470125 
L -783.871158 167.470125 
z
" clip-path="url(#p1b249a18d1)" style="fill: #d3d3d3"/>
   </g>
   <g id="patch_52">
    <path d="M -748.859393 288.430125 
L -737.188805 288.430125 
L -737.188805 167.470125 
L -748.859393 167.470125 
z
" clip-path="url(#p1b249a18d1)" style="fill: #d3d3d3"/>
   </g>
   <g id="patch_53">
    <path d="M -718.515864 288.430125 
L -702.17704 288.430125 
L -702.17704 167.470125 
L -718.515864 167.470125 
z
" clip-path="url(#p1b249a18d1)" style="fill: #d3d3d3"/>
   </g>
   <g id="patch_54">
    <path d="M -676.501746 288.430125 
L -667.165276 288.430125 
L -667.165276 167.470125 
L -676.501746 167.470125 
z
" clip-path="url(#p1b249a18d1)" style="fill: #d3d3d3"/>
   </g>
   <g id="patch_55">
    <path d="M -650.826452 288.430125 
L -634.487629 288.430125 
L -634.487629 167.470125 
L -650.826452 167.470125 
z
" clip-path="url(#p1b249a18d1)" style="fill: #d3d3d3"/>
   </g>
   <g id="patch_56">
    <path d="M -622.81704 288.430125 
L -606.478217 288.430125 
L -606.478217 167.470125 
L -622.81704 167.470125 
z
" clip-path="url(#p1b249a18d1)" style="fill: #d3d3d3"/>
   </g>
   <g id="patch_57">
    <path d="M -571.466452 288.430125 
L -566.798217 288.430125 
L -566.798217 167.470125 
L -571.466452 167.470125 
z
" clip-path="url(#p1b249a18d1)" style="fill: #d3d3d3"/>
   </g>
   <g id="patch_58">
    <path d="M -557.461746 288.430125 
L -543.45704 288.430125 
L -543.45704 167.470125 
L -557.461746 167.470125 
z
" clip-path="url(#p1b249a18d1)" style="fill: #d3d3d3"/>
   </g>
   <g id="patch_59">
    <path d="M -527.118217 288.430125 
L -515.447629 288.430125 
L -515.447629 167.470125 
L -527.118217 167.470125 
z
" clip-path="url(#p1b249a18d1)" style="fill: #d3d3d3"/>
   </g>
   <g id="patch_60">
    <path d="M -496.774688 288.430125 
L -485.104099 288.430125 
L -485.104099 167.470125 
L -496.774688 167.470125 
z
" clip-path="url(#p1b249a18d1)" style="fill: #d3d3d3"/>
   </g>
   <g id="patch_61">
    <path d="M -468.765276 288.430125 
L -436.087629 288.430125 
L -436.087629 167.470125 
L -468.765276 167.470125 
z
" clip-path="url(#p1b249a18d1)" style="fill: #d3d3d3"/>
   </g>
   <g id="patch_62">
    <path d="M -396.407629 288.430125 
L -387.071158 288.430125 
L -387.071158 167.470125 
L -396.407629 167.470125 
z
" clip-path="url(#p1b249a18d1)" style="fill: #d3d3d3"/>
   </g>
   <g id="patch_63">
    <path d="M -324.049982 288.430125 
L -317.047629 288.430125 
L -317.047629 167.470125 
L -324.049982 167.470125 
z
" clip-path="url(#p1b249a18d1)" style="fill: #d3d3d3"/>
   </g>
   <g id="patch_64">
    <path d="M -289.038217 288.430125 
L -279.701746 288.430125 
L -279.701746 167.470125 
L -289.038217 167.470125 
z
" clip-path="url(#p1b249a18d1)" style="fill: #d3d3d3"/>
   </g>
   <g id="patch_65">
    <path d="M -247.024099 288.430125 
L -237.687629 288.430125 
L -237.687629 167.470125 
L -247.024099 167.470125 
z
" clip-path="url(#p1b249a18d1)" style="fill: #d3d3d3"/>
   </g>
   <g id="patch_66">
    <path d="M -207.344099 288.430125 
L -200.341746 288.430125 
L -200.341746 167.470125 
L -207.344099 167.470125 
z
" clip-path="url(#p1b249a18d1)" style="fill: #d3d3d3"/>
   </g>
   <g id="patch_67">
    <path d="M -181.668805 288.430125 
L -174.666452 288.430125 
L -174.666452 167.470125 
L -181.668805 167.470125 
z
" clip-path="url(#p1b249a18d1)" style="fill: #d3d3d3"/>
   </g>
   <g id="patch_68">
    <path d="M -92.972335 288.430125 
L -83.635864 288.430125 
L -83.635864 167.470125 
L -92.972335 167.470125 
z
" clip-path="url(#p1b249a18d1)" style="fill: #d3d3d3"/>
   </g>
   <g id="patch_69">
    <path d="M -55.626452 288.430125 
L -43.955864 288.430125 
L -43.955864 167.470125 
L -55.626452 167.470125 
z
" clip-path="url(#p1b249a18d1)" style="fill: #d3d3d3"/>
   </g>
   <g id="patch_70">
    <path d="M 2.726489 288.430125 
L 7.394724 288.430125 
L 7.394724 167.470125 
L 2.726489 167.470125 
z
" clip-path="url(#p1b249a18d1)" style="fill: #d3d3d3"/>
   </g>
   <g id="patch_71">
    <path d="M 16.731195 288.430125 
L 28.401783 288.430125 
L 28.401783 167.470125 
L 16.731195 167.470125 
z
" clip-path="url(#p1b249a18d1)" style="fill: #d3d3d3"/>
   </g>
   <g id="patch_72">
    <path d="M 100.75943 288.430125 
L 105.427665 288.430125 
L 105.427665 167.470125 
L 100.75943 167.470125 
z
" clip-path="url(#p1b249a18d1)" style="fill: #d3d3d3"/>
   </g>
   <g id="patch_73">
    <path d="M 198.792371 288.430125 
L 205.794724 288.430125 
L 205.794724 167.470125 
L 198.792371 167.470125 
z
" clip-path="url(#p1b249a18d1)" style="fill: #d3d3d3"/>
   </g>
   <g id="patch_74">
    <path d="M 261.813548 288.430125 
L 275.818254 288.430125 
L 275.818254 167.470125 
L 261.813548 167.470125 
z
" clip-path="url(#p1b249a18d1)" style="fill: #d3d3d3"/>
   </g>
   <g id="patch_75">
    <path d="M 373.851195 288.430125 
L 378.51943 288.430125 
L 378.51943 167.470125 
L 373.851195 167.470125 
z
" clip-path="url(#p1b249a18d1)" style="fill: #d3d3d3"/>
   </g>
   <g id="matplotlib.axis_3">
    <g id="xtick_40">
     <g id="line2d_47">
      <g>
       <use xlink:href="#mc72922fc25" x="86.754724" y="288.430125" style="stroke: #000000; stroke-width: 0.8"/>
      </g>
     </g>
     <g id="text_17">
      <!-- 1989 -->
      <g transform="translate(74.029724 303.028562) scale(0.1 -0.1)">
       <use xlink:href="#DejaVuSerif-31"/>
       <use xlink:href="#DejaVuSerif-39" x="63.623047"/>
       <use xlink:href="#DejaVuSerif-38" x="127.246094"/>
       <use xlink:href="#DejaVuSerif-39" x="190.869141"/>
      </g>
     </g>
    </g>
    <g id="xtick_41">
     <g id="line2d_48">
      <g>
       <use xlink:href="#mc72922fc25" x="133.437077" y="288.430125" style="stroke: #000000; stroke-width: 0.8"/>
      </g>
     </g>
     <g id="text_18">
      <!-- 1994 -->
      <g transform="translate(120.712077 303.028562) scale(0.1 -0.1)">
       <use xlink:href="#DejaVuSerif-31"/>
       <use xlink:href="#DejaVuSerif-39" x="63.623047"/>
       <use xlink:href="#DejaVuSerif-39" x="127.246094"/>
       <use xlink:href="#DejaVuSerif-34" x="190.869141"/>
      </g>
     </g>
    </g>
    <g id="xtick_42">
     <g id="line2d_49">
      <g>
       <use xlink:href="#mc72922fc25" x="180.11943" y="288.430125" style="stroke: #000000; stroke-width: 0.8"/>
      </g>
     </g>
     <g id="text_19">
      <!-- 1999 -->
      <g transform="translate(167.39443 303.028562) scale(0.1 -0.1)">
       <use xlink:href="#DejaVuSerif-31"/>
       <use xlink:href="#DejaVuSerif-39" x="63.623047"/>
       <use xlink:href="#DejaVuSerif-39" x="127.246094"/>
       <use xlink:href="#DejaVuSerif-39" x="190.869141"/>
      </g>
     </g>
    </g>
    <g id="xtick_43">
     <g id="line2d_50">
      <g>
       <use xlink:href="#mc72922fc25" x="226.801783" y="288.430125" style="stroke: #000000; stroke-width: 0.8"/>
      </g>
     </g>
     <g id="text_20">
      <!-- 2004 -->
      <g transform="translate(214.076783 303.028562) scale(0.1 -0.1)">
       <use xlink:href="#DejaVuSerif-32"/>
       <use xlink:href="#DejaVuSerif-30" x="63.623047"/>
       <use xlink:href="#DejaVuSerif-30" x="127.246094"/>
       <use xlink:href="#DejaVuSerif-34" x="190.869141"/>
      </g>
     </g>
    </g>
    <g id="xtick_44">
     <g id="line2d_51">
      <g>
       <use xlink:href="#mc72922fc25" x="273.484136" y="288.430125" style="stroke: #000000; stroke-width: 0.8"/>
      </g>
     </g>
     <g id="text_21">
      <!-- 2009 -->
      <g transform="translate(260.759136 303.028562) scale(0.1 -0.1)">
       <use xlink:href="#DejaVuSerif-32"/>
       <use xlink:href="#DejaVuSerif-30" x="63.623047"/>
       <use xlink:href="#DejaVuSerif-30" x="127.246094"/>
       <use xlink:href="#DejaVuSerif-39" x="190.869141"/>
      </g>
     </g>
    </g>
    <g id="xtick_45">
     <g id="line2d_52">
      <g>
       <use xlink:href="#mc72922fc25" x="320.166489" y="288.430125" style="stroke: #000000; stroke-width: 0.8"/>
      </g>
     </g>
     <g id="text_22">
      <!-- 2014 -->
      <g transform="translate(307.441489 303.028562) scale(0.1 -0.1)">
       <use xlink:href="#DejaVuSerif-32"/>
       <use xlink:href="#DejaVuSerif-30" x="63.623047"/>
       <use xlink:href="#DejaVuSerif-31" x="127.246094"/>
       <use xlink:href="#DejaVuSerif-34" x="190.869141"/>
      </g>
     </g>
    </g>
    <g id="xtick_46">
     <g id="line2d_53">
      <g>
       <use xlink:href="#mc72922fc25" x="366.848842" y="288.430125" style="stroke: #000000; stroke-width: 0.8"/>
      </g>
     </g>
     <g id="text_23">
      <!-- 2019 -->
      <g transform="translate(354.123842 303.028562) scale(0.1 -0.1)">
       <use xlink:href="#DejaVuSerif-32"/>
       <use xlink:href="#DejaVuSerif-30" x="63.623047"/>
       <use xlink:href="#DejaVuSerif-31" x="127.246094"/>
       <use xlink:href="#DejaVuSerif-39" x="190.869141"/>
      </g>
     </g>
    </g>
    <g id="xtick_47">
     <g id="line2d_54">
      <g>
       <use xlink:href="#mc72922fc25" x="413.531195" y="288.430125" style="stroke: #000000; stroke-width: 0.8"/>
      </g>
     </g>
     <g id="text_24">
      <!-- 2024 -->
      <g transform="translate(400.806195 303.028562) scale(0.1 -0.1)">
       <use xlink:href="#DejaVuSerif-32"/>
       <use xlink:href="#DejaVuSerif-30" x="63.623047"/>
       <use xlink:href="#DejaVuSerif-32" x="127.246094"/>
       <use xlink:href="#DejaVuSerif-34" x="190.869141"/>
      </g>
     </g>
    </g>
    <g id="xtick_48">
     <g id="line2d_55">
      <g>
       <use xlink:href="#m097249d6ae" x="58.745312" y="288.430125" style="stroke: #000000; stroke-width: 0.6"/>
      </g>
     </g>
    </g>
    <g id="xtick_49">
     <g id="line2d_56">
      <g>
       <use xlink:href="#m097249d6ae" x="68.081783" y="288.430125" style="stroke: #000000; stroke-width: 0.6"/>
      </g>
     </g>
    </g>
    <g id="xtick_50">
     <g id="line2d_57">
      <g>
       <use xlink:href="#m097249d6ae" x="77.418254" y="288.430125" style="stroke: #000000; stroke-width: 0.6"/>
      </g>
     </g>
    </g>
    <g id="xtick_51">
     <g id="line2d_58">
      <g>
       <use xlink:href="#m097249d6ae" x="96.091195" y="288.430125" style="stroke: #000000; stroke-width: 0.6"/>
      </g>
     </g>
    </g>
    <g id="xtick_52">
     <g id="line2d_59">
      <g>
       <use xlink:href="#m097249d6ae" x="105.427665" y="288.430125" style="stroke: #000000; stroke-width: 0.6"/>
      </g>
     </g>
    </g>
    <g id="xtick_53">
     <g id="line2d_60">
      <g>
       <use xlink:href="#m097249d6ae" x="114.764136" y="288.430125" style="stroke: #000000; stroke-width: 0.6"/>
      </g>
     </g>
    </g>
    <g id="xtick_54">
     <g id="line2d_61">
      <g>
       <use xlink:href="#m097249d6ae" x="124.100607" y="288.430125" style="stroke: #000000; stroke-width: 0.6"/>
      </g>
     </g>
    </g>
    <g id="xtick_55">
     <g id="line2d_62">
      <g>
       <use xlink:href="#m097249d6ae" x="142.773548" y="288.430125" style="stroke: #000000; stroke-width: 0.6"/>
      </g>
     </g>
    </g>
    <g id="xtick_56">
     <g id="line2d_63">
      <g>
       <use xlink:href="#m097249d6ae" x="152.110018" y="288.430125" style="stroke: #000000; stroke-width: 0.6"/>
      </g>
     </g>
    </g>
    <g id="xtick_57">
     <g id="line2d_64">
      <g>
       <use xlink:href="#m097249d6ae" x="161.446489" y="288.430125" style="stroke: #000000; stroke-width: 0.6"/>
      </g>
     </g>
    </g>
    <g id="xtick_58">
     <g id="line2d_65">
      <g>
       <use xlink:href="#m097249d6ae" x="170.78296" y="288.430125" style="stroke: #000000; stroke-width: 0.6"/>
      </g>
     </g>
    </g>
    <g id="xtick_59">
     <g id="line2d_66">
      <g>
       <use xlink:href="#m097249d6ae" x="189.455901" y="288.430125" style="stroke: #000000; stroke-width: 0.6"/>
      </g>
     </g>
    </g>
    <g id="xtick_60">
     <g id="line2d_67">
      <g>
       <use xlink:href="#m097249d6ae" x="198.792371" y="288.430125" style="stroke: #000000; stroke-width: 0.6"/>
      </g>
     </g>
    </g>
    <g id="xtick_61">
     <g id="line2d_68">
      <g>
       <use xlink:href="#m097249d6ae" x="208.128842" y="288.430125" style="stroke: #000000; stroke-width: 0.6"/>
      </g>
     </g>
    </g>
    <g id="xtick_62">
     <g id="line2d_69">
      <g>
       <use xlink:href="#m097249d6ae" x="217.465313" y="288.430125" style="stroke: #000000; stroke-width: 0.6"/>
      </g>
     </g>
    </g>
    <g id="xtick_63">
     <g id="line2d_70">
      <g>
       <use xlink:href="#m097249d6ae" x="236.138254" y="288.430125" style="stroke: #000000; stroke-width: 0.6"/>
      </g>
     </g>
    </g>
    <g id="xtick_64">
     <g id="line2d_71">
      <g>
       <use xlink:href="#m097249d6ae" x="245.474724" y="288.430125" style="stroke: #000000; stroke-width: 0.6"/>
      </g>
     </g>
    </g>
    <g id="xtick_65">
     <g id="line2d_72">
      <g>
       <use xlink:href="#m097249d6ae" x="254.811195" y="288.430125" style="stroke: #000000; stroke-width: 0.6"/>
      </g>
     </g>
    </g>
    <g id="xtick_66">
     <g id="line2d_73">
      <g>
       <use xlink:href="#m097249d6ae" x="264.147665" y="288.430125" style="stroke: #000000; stroke-width: 0.6"/>
      </g>
     </g>
    </g>
    <g id="xtick_67">
     <g id="line2d_74">
      <g>
       <use xlink:href="#m097249d6ae" x="282.820607" y="288.430125" style="stroke: #000000; stroke-width: 0.6"/>
      </g>
     </g>
    </g>
    <g id="xtick_68">
     <g id="line2d_75">
      <g>
       <use xlink:href="#m097249d6ae" x="292.157077" y="288.430125" style="stroke: #000000; stroke-width: 0.6"/>
      </g>
     </g>
    </g>
    <g id="xtick_69">
     <g id="line2d_76">
      <g>
       <use xlink:href="#m097249d6ae" x="301.493548" y="288.430125" style="stroke: #000000; stroke-width: 0.6"/>
      </g>
     </g>
    </g>
    <g id="xtick_70">
     <g id="line2d_77">
      <g>
       <use xlink:href="#m097249d6ae" x="310.830018" y="288.430125" style="stroke: #000000; stroke-width: 0.6"/>
      </g>
     </g>
    </g>
    <g id="xtick_71">
     <g id="line2d_78">
      <g>
       <use xlink:href="#m097249d6ae" x="329.50296" y="288.430125" style="stroke: #000000; stroke-width: 0.6"/>
      </g>
     </g>
    </g>
    <g id="xtick_72">
     <g id="line2d_79">
      <g>
       <use xlink:href="#m097249d6ae" x="338.83943" y="288.430125" style="stroke: #000000; stroke-width: 0.6"/>
      </g>
     </g>
    </g>
    <g id="xtick_73">
     <g id="line2d_80">
      <g>
       <use xlink:href="#m097249d6ae" x="348.175901" y="288.430125" style="stroke: #000000; stroke-width: 0.6"/>
      </g>
     </g>
    </g>
    <g id="xtick_74">
     <g id="line2d_81">
      <g>
       <use xlink:href="#m097249d6ae" x="357.512371" y="288.430125" style="stroke: #000000; stroke-width: 0.6"/>
      </g>
     </g>
    </g>
    <g id="xtick_75">
     <g id="line2d_82">
      <g>
       <use xlink:href="#m097249d6ae" x="376.185313" y="288.430125" style="stroke: #000000; stroke-width: 0.6"/>
      </g>
     </g>
    </g>
    <g id="xtick_76">
     <g id="line2d_83">
      <g>
       <use xlink:href="#m097249d6ae" x="385.521783" y="288.430125" style="stroke: #000000; stroke-width: 0.6"/>
      </g>
     </g>
    </g>
    <g id="xtick_77">
     <g id="line2d_84">
      <g>
       <use xlink:href="#m097249d6ae" x="394.858254" y="288.430125" style="stroke: #000000; stroke-width: 0.6"/>
      </g>
     </g>
    </g>
    <g id="xtick_78">
     <g id="line2d_85">
      <g>
       <use xlink:href="#m097249d6ae" x="404.194724" y="288.430125" style="stroke: #000000; stroke-width: 0.6"/>
      </g>
     </g>
    </g>
   </g>
   <g id="matplotlib.axis_4">
    <g id="ytick_7">
     <g id="line2d_86">
      <path d="M 58.745313 281.031017 
L 415.865313 281.031017 
" clip-path="url(#p1b249a18d1)" style="fill: none; stroke-dasharray: 2.96,1.28; stroke-dashoffset: 0; stroke: #b0b0b0; stroke-width: 0.8"/>
     </g>
     <g id="line2d_87">
      <g>
       <use xlink:href="#m9188c5d6c6" x="58.745313" y="281.031017" style="stroke: #000000; stroke-width: 0.8"/>
      </g>
     </g>
     <g id="text_25">
      <!-- 0.10 -->
      <g transform="translate(21.1 284.830236) scale(0.1 -0.1)">
       <defs>
        <path id="DejaVuSerif-2212" d="M 678 2259 
L 4684 2259 
L 4684 1753 
L 678 1753 
L 678 2259 
z
" transform="scale(0.015625)"/>
       </defs>
       <use xlink:href="#DejaVuSerif-2212"/>
       <use xlink:href="#DejaVuSerif-30" x="83.789062"/>
       <use xlink:href="#DejaVuSerif-2e" x="147.412109"/>
       <use xlink:href="#DejaVuSerif-31" x="179.199219"/>
       <use xlink:href="#DejaVuSerif-30" x="242.822266"/>
      </g>
     </g>
    </g>
    <g id="ytick_8">
     <g id="line2d_88">
      <path d="M 58.745313 250.6505 
L 415.865313 250.6505 
" clip-path="url(#p1b249a18d1)" style="fill: none; stroke-dasharray: 2.96,1.28; stroke-dashoffset: 0; stroke: #b0b0b0; stroke-width: 0.8"/>
     </g>
     <g id="line2d_89">
      <g>
       <use xlink:href="#m9188c5d6c6" x="58.745313" y="250.6505" style="stroke: #000000; stroke-width: 0.8"/>
      </g>
     </g>
     <g id="text_26">
      <!-- 0.05 -->
      <g transform="translate(21.1 254.449719) scale(0.1 -0.1)">
       <defs>
        <path id="DejaVuSerif-35" d="M 3219 4666 
L 3219 4153 
L 1081 4153 
L 1081 2816 
Q 1244 2928 1461 2984 
Q 1678 3041 1947 3041 
Q 2703 3041 3140 2622 
Q 3578 2203 3578 1478 
Q 3578 738 3136 323 
Q 2694 -91 1894 -91 
Q 1572 -91 1234 -12 
Q 897 66 544 225 
L 544 1131 
L 897 1131 
Q 925 688 1179 453 
Q 1434 219 1894 219 
Q 2388 219 2653 544 
Q 2919 869 2919 1478 
Q 2919 2084 2655 2407 
Q 2391 2731 1894 2731 
Q 1613 2731 1398 2631 
Q 1184 2531 1019 2322 
L 750 2322 
L 750 4666 
L 3219 4666 
z
" transform="scale(0.015625)"/>
       </defs>
       <use xlink:href="#DejaVuSerif-2212"/>
       <use xlink:href="#DejaVuSerif-30" x="83.789062"/>
       <use xlink:href="#DejaVuSerif-2e" x="147.412109"/>
       <use xlink:href="#DejaVuSerif-30" x="179.199219"/>
       <use xlink:href="#DejaVuSerif-35" x="242.822266"/>
      </g>
     </g>
    </g>
    <g id="ytick_9">
     <g id="line2d_90">
      <path d="M 58.745313 220.269983 
L 415.865313 220.269983 
" clip-path="url(#p1b249a18d1)" style="fill: none; stroke-dasharray: 2.96,1.28; stroke-dashoffset: 0; stroke: #b0b0b0; stroke-width: 0.8"/>
     </g>
     <g id="line2d_91">
      <g>
       <use xlink:href="#m9188c5d6c6" x="58.745313" y="220.269983" style="stroke: #000000; stroke-width: 0.8"/>
      </g>
     </g>
     <g id="text_27">
      <!-- 0.00 -->
      <g transform="translate(29.479688 224.069201) scale(0.1 -0.1)">
       <use xlink:href="#DejaVuSerif-30"/>
       <use xlink:href="#DejaVuSerif-2e" x="63.623047"/>
       <use xlink:href="#DejaVuSerif-30" x="95.410156"/>
       <use xlink:href="#DejaVuSerif-30" x="159.033203"/>
      </g>
     </g>
    </g>
    <g id="ytick_10">
     <g id="line2d_92">
      <path d="M 58.745313 189.889465 
L 415.865313 189.889465 
" clip-path="url(#p1b249a18d1)" style="fill: none; stroke-dasharray: 2.96,1.28; stroke-dashoffset: 0; stroke: #b0b0b0; stroke-width: 0.8"/>
     </g>
     <g id="line2d_93">
      <g>
       <use xlink:href="#m9188c5d6c6" x="58.745313" y="189.889465" style="stroke: #000000; stroke-width: 0.8"/>
      </g>
     </g>
     <g id="text_28">
      <!-- 0.05 -->
      <g transform="translate(29.479688 193.688684) scale(0.1 -0.1)">
       <use xlink:href="#DejaVuSerif-30"/>
       <use xlink:href="#DejaVuSerif-2e" x="63.623047"/>
       <use xlink:href="#DejaVuSerif-30" x="95.410156"/>
       <use xlink:href="#DejaVuSerif-35" x="159.033203"/>
      </g>
     </g>
    </g>
    <g id="text_29">
     <!-- $\Delta\log v_t$ -->
     <g transform="translate(14.8 244.550125) rotate(-90) scale(0.1 -0.1)">
      <defs>
       <path id="DejaVuSerif-394" d="M 4350 0 
L 244 0 
L 2034 4666 
L 2559 4666 
L 4350 0 
z
M 3506 331 
L 2138 3909 
L 763 331 
L 3506 331 
z
" transform="scale(0.015625)"/>
       <path id="DejaVuSerif-Italic-76" d="M 1681 0 
L 1259 0 
L 619 2988 
L 241 2988 
L 303 3322 
L 1163 3322 
L 1725 703 
Q 2084 1016 2325 1413 
Q 2825 2238 3003 2988 
L 2622 2988 
L 2688 3322 
L 3547 3322 
Q 3206 2034 2775 1313 
Q 2400 688 1681 0 
z
" transform="scale(0.015625)"/>
      </defs>
      <use xlink:href="#DejaVuSerif-394" transform="translate(0 0.015625)"/>
      <use xlink:href="#DejaVuSerif-6c" transform="translate(72.216797 0.015625)"/>
      <use xlink:href="#DejaVuSerif-6f" transform="translate(104.199219 0.015625)"/>
      <use xlink:href="#DejaVuSerif-67" transform="translate(164.404297 0.015625)"/>
      <use xlink:href="#DejaVuSerif-Italic-76" transform="translate(244.222321 0.015625)"/>
      <use xlink:href="#DejaVuSerif-Italic-74" transform="translate(300.716462 -15.55625) scale(0.7)"/>
     </g>
    </g>
   </g>
   <g id="line2d_94">
    <path d="M 58.745312 238.065189 
L 63.413548 240.091123 
L 65.747665 240.240109 
L 79.752371 240.244487 
L 82.086489 240.045479 
L 84.420607 226.158639 
L 86.754724 206.574769 
L 89.088842 201.570042 
L 91.42296 201.37543 
L 98.425312 201.357616 
L 100.75943 201.542953 
L 107.761783 201.514002 
L 112.430018 202.20002 
L 114.764136 204.125733 
L 117.098254 212.405292 
L 119.432371 228.363571 
L 121.766489 237.031022 
L 124.100607 240.106733 
L 126.434724 240.191615 
L 131.10296 240.165747 
L 140.43943 240.218421 
L 142.773548 240.153975 
L 145.107665 239.561459 
L 149.775901 240.18483 
L 156.778254 240.246112 
L 163.780607 240.240873 
L 166.114724 239.480532 
L 168.448842 231.148959 
L 170.78296 208.382935 
L 173.117077 202.294754 
L 175.451195 201.85975 
L 177.785313 202.047094 
L 180.11943 202.630409 
L 182.453548 202.927704 
L 187.121783 201.385309 
L 196.458254 201.357672 
L 198.792371 201.601045 
L 201.126489 205.794128 
L 203.460607 227.699607 
L 205.794724 240.304994 
L 210.46296 240.244222 
L 226.801783 240.232771 
L 229.135901 238.308594 
L 231.470018 236.674577 
L 233.804136 232.267949 
L 236.138254 230.563969 
L 238.472371 228.444326 
L 240.806489 226.931575 
L 243.140607 216.265893 
L 245.474724 202.032499 
L 247.808842 201.439824 
L 252.477077 201.360207 
L 259.47943 201.35808 
L 261.813548 201.5442 
L 264.147665 201.575816 
L 266.481783 203.786711 
L 268.815901 206.982932 
L 271.150018 235.127646 
L 273.484136 240.412141 
L 275.818254 240.431321 
L 278.152371 240.246162 
L 336.505313 240.154029 
L 341.173548 240.13572 
L 350.510018 240.233536 
L 352.844136 240.208302 
L 355.178254 239.941095 
L 357.512371 238.848765 
L 359.846489 236.279975 
L 362.180607 236.168602 
L 364.514724 237.576789 
L 366.848842 239.54829 
L 369.18296 240.182544 
L 376.185313 240.338275 
L 378.51943 240.431582 
L 380.853548 240.245634 
L 385.521783 240.144632 
L 387.855901 201.400531 
L 397.192371 201.357604 
L 415.865312 201.41846 
L 415.865312 201.41846 
" clip-path="url(#p1b249a18d1)" style="fill: none; stroke: #1f77b4; stroke-width: 1.5; stroke-linecap: square"/>
   </g>
   <g id="line2d_95">
    <path d="M 58.745312 222.454717 
L 61.07943 221.962392 
L 65.747665 242.710721 
L 68.081783 247.57095 
L 70.415901 254.701142 
L 72.750018 247.574578 
L 75.084136 248.843863 
L 77.418254 250.593462 
L 79.752371 251.089713 
L 82.086489 245.319981 
L 84.420607 222.637815 
L 86.754724 212.692882 
L 89.088842 201.833111 
L 91.42296 203.052436 
L 93.757077 210.119097 
L 96.091195 191.724895 
L 98.425312 181.122239 
L 100.75943 175.828921 
L 103.093548 187.297015 
L 105.427665 199.756227 
L 107.761783 214.421174 
L 110.095901 217.167073 
L 112.430018 212.165215 
L 114.764136 212.216528 
L 117.098254 216.822012 
L 119.432371 224.174959 
L 121.766489 226.718194 
L 124.100607 240.058842 
L 126.434724 232.435046 
L 128.768842 223.722301 
L 131.10296 227.416592 
L 133.437077 228.163624 
L 135.771195 243.746881 
L 138.105312 237.733772 
L 140.43943 232.338707 
L 142.773548 233.355664 
L 145.107665 213.930119 
L 147.441783 223.707467 
L 149.775901 232.090505 
L 152.110018 239.500642 
L 154.444136 256.632616 
L 156.778254 264.94263 
L 159.112371 260.930161 
L 161.446489 255.97525 
L 163.780607 250.332596 
L 166.114724 234.609029 
L 168.448842 226.475181 
L 170.78296 212.974339 
L 173.117077 206.293053 
L 175.451195 211.536201 
L 177.785313 215.365748 
L 180.11943 221.075911 
L 182.453548 225.891205 
L 184.787665 219.841903 
L 187.121783 200.172668 
L 189.455901 192.008579 
L 191.790018 177.612562 
L 194.124136 172.968307 
L 196.458254 180.896298 
L 201.126489 211.199108 
L 203.460607 224.034595 
L 205.794724 247.710642 
L 208.128842 243.412308 
L 210.46296 244.678037 
L 212.797077 253.936828 
L 215.131195 246.092551 
L 217.465313 256.111758 
L 219.79943 273.695845 
L 222.133548 261.451654 
L 224.467665 263.359498 
L 226.801783 249.833072 
L 229.135901 220.403284 
L 231.470018 226.21282 
L 233.804136 216.264921 
L 236.138254 221.79911 
L 238.472371 219.513952 
L 240.806489 230.45534 
L 243.140607 222.260366 
L 245.474724 202.256427 
L 247.808842 207.983855 
L 250.14296 191.849811 
L 252.477077 198.247393 
L 254.811195 206.193627 
L 257.145313 193.774605 
L 259.47943 189.821043 
L 261.813548 193.209831 
L 264.147665 196.029037 
L 266.481783 218.383942 
L 268.815901 208.302713 
L 273.484136 253.515293 
L 275.818254 257.065832 
L 278.152371 277.068234 
L 280.486489 260.843806 
L 282.820607 238.61882 
L 285.154724 231.852838 
L 287.488842 243.363899 
L 289.82296 239.707649 
L 292.157077 245.691321 
L 294.491195 246.608859 
L 296.825312 246.690938 
L 299.15943 263.319421 
L 301.493548 260.262228 
L 303.827665 257.959967 
L 306.161783 269.836515 
L 308.495901 263.721217 
L 310.830018 264.836232 
L 313.164136 264.678422 
L 315.498254 242.243974 
L 317.832371 233.625646 
L 320.166489 233.792168 
L 322.500607 233.754855 
L 324.834724 233.407931 
L 327.168842 232.017094 
L 329.50296 232.145047 
L 331.837077 226.79784 
L 334.171195 229.765005 
L 336.505313 227.302693 
L 338.83943 223.382325 
L 341.173548 226.083536 
L 343.507665 228.552886 
L 345.841783 232.2993 
L 348.175901 232.386405 
L 350.510018 235.924543 
L 352.844136 234.712257 
L 355.178254 229.279932 
L 357.512371 225.799677 
L 359.846489 213.38697 
L 362.180607 215.408548 
L 364.514724 219.584576 
L 366.848842 227.546195 
L 369.18296 236.231108 
L 371.517077 232.608044 
L 373.851195 224.414991 
L 376.185313 224.963129 
L 378.51943 282.931943 
L 380.853548 251.936641 
L 383.187665 261.730058 
L 385.521783 255.185858 
L 387.855901 180.928521 
L 390.190018 200.092011 
L 392.524136 192.959318 
L 394.858254 179.267517 
L 397.192371 180.59067 
L 399.526489 189.267737 
L 401.860607 194.107962 
L 404.194724 197.255205 
L 406.528842 210.123948 
L 408.86296 201.751344 
L 411.197077 195.304391 
L 415.865312 198.445152 
L 415.865312 198.445152 
" clip-path="url(#p1b249a18d1)" style="fill: none; stroke: #ff7f0e; stroke-width: 1.5; stroke-linecap: square"/>
   </g>
   <g id="patch_76">
    <path d="M 58.745313 288.430125 
L 58.745313 167.470125 
" style="fill: none; stroke: #000000; stroke-width: 0.8; stroke-linejoin: miter; stroke-linecap: square"/>
   </g>
   <g id="patch_77">
    <path d="M 415.865313 288.430125 
L 415.865313 167.470125 
" style="fill: none; stroke: #000000; stroke-width: 0.8; stroke-linejoin: miter; stroke-linecap: square"/>
   </g>
   <g id="patch_78">
    <path d="M 58.745312 288.430125 
L 415.865312 288.430125 
" style="fill: none; stroke: #000000; stroke-width: 0.8; stroke-linejoin: miter; stroke-linecap: square"/>
   </g>
   <g id="patch_79">
    <path d="M 58.745312 167.470125 
L 415.865312 167.470125 
" style="fill: none; stroke: #000000; stroke-width: 0.8; stroke-linejoin: miter; stroke-linecap: square"/>
   </g>
   <g id="legend_1">
    <g id="patch_80">
     <path d="M 65.745313 283.430125 
L 150.05 283.430125 
Q 152.05 283.430125 152.05 281.430125 
L 152.05 253.073875 
Q 152.05 251.073875 150.05 251.073875 
L 65.745313 251.073875 
Q 63.745313 251.073875 63.745313 253.073875 
L 63.745313 281.430125 
Q 63.745313 283.430125 65.745313 283.430125 
z
" style="fill: #ffffff; opacity: 0.8; stroke: #cccccc; stroke-linejoin: miter"/>
    </g>
    <g id="line2d_96">
     <path d="M 67.745313 259.172312 
L 77.745313 259.172312 
L 87.745313 259.172312 
" style="fill: none; stroke: #1f77b4; stroke-width: 1.5; stroke-linecap: square"/>
    </g>
    <g id="text_30">
     <!-- Prediction -->
     <g transform="translate(95.745313 262.672312) scale(0.1 -0.1)">
      <defs>
       <path id="DejaVuSerif-63" d="M 3291 997 
Q 3169 466 2822 187 
Q 2475 -91 1925 -91 
Q 1200 -91 759 389 
Q 319 869 319 1663 
Q 319 2459 759 2936 
Q 1200 3413 1925 3413 
Q 2241 3413 2553 3339 
Q 2866 3266 3181 3116 
L 3181 2266 
L 2847 2266 
Q 2781 2703 2561 2903 
Q 2341 3103 1931 3103 
Q 1466 3103 1228 2742 
Q 991 2381 991 1663 
Q 991 944 1227 581 
Q 1463 219 1931 219 
Q 2303 219 2525 412 
Q 2747 606 2828 997 
L 3291 997 
z
" transform="scale(0.015625)"/>
      </defs>
      <use xlink:href="#DejaVuSerif-50"/>
      <use xlink:href="#DejaVuSerif-72" x="67.285156"/>
      <use xlink:href="#DejaVuSerif-65" x="115.087891"/>
      <use xlink:href="#DejaVuSerif-64" x="174.267578"/>
      <use xlink:href="#DejaVuSerif-69" x="238.28125"/>
      <use xlink:href="#DejaVuSerif-63" x="270.263672"/>
      <use xlink:href="#DejaVuSerif-74" x="326.269531"/>
      <use xlink:href="#DejaVuSerif-69" x="366.455078"/>
      <use xlink:href="#DejaVuSerif-6f" x="398.4375"/>
      <use xlink:href="#DejaVuSerif-6e" x="458.642578"/>
     </g>
    </g>
    <g id="line2d_97">
     <path d="M 67.745313 273.850437 
L 77.745313 273.850437 
L 87.745313 273.850437 
" style="fill: none; stroke: #ff7f0e; stroke-width: 1.5; stroke-linecap: square"/>
    </g>
    <g id="text_31">
     <!-- Real -->
     <g transform="translate(95.745313 277.350437) scale(0.1 -0.1)">
      <defs>
       <path id="DejaVuSerif-52" d="M 3066 2316 
Q 3284 2256 3442 2114 
Q 3600 1972 3725 1716 
L 4403 331 
L 4972 331 
L 4972 0 
L 3872 0 
L 3144 1484 
Q 2934 1916 2759 2042 
Q 2584 2169 2278 2169 
L 1581 2169 
L 1581 331 
L 2241 331 
L 2241 0 
L 353 0 
L 353 331 
L 947 331 
L 947 4331 
L 353 4331 
L 353 4666 
L 2719 4666 
Q 3400 4666 3770 4341 
Q 4141 4016 4141 3419 
Q 4141 2938 3870 2661 
Q 3600 2384 3066 2316 
z
M 1581 2503 
L 2503 2503 
Q 2975 2503 3200 2726 
Q 3425 2950 3425 3419 
Q 3425 3888 3200 4109 
Q 2975 4331 2503 4331 
L 1581 4331 
L 1581 2503 
z
" transform="scale(0.015625)"/>
      </defs>
      <use xlink:href="#DejaVuSerif-52"/>
      <use xlink:href="#DejaVuSerif-65" x="75.292969"/>
      <use xlink:href="#DejaVuSerif-61" x="134.472656"/>
      <use xlink:href="#DejaVuSerif-6c" x="194.091797"/>
     </g>
    </g>
   </g>
  </g>
 </g>
 <defs>
  <clipPath id="p048830ae19">
   <rect x="58.745313" y="22.318125" width="357.12" height="120.96"/>
  </clipPath>
  <clipPath id="p1b249a18d1">
   <rect x="58.745313" y="167.470125" width="357.12" height="120.96"/>
  </clipPath>
 </defs>
</svg>
