<?xml version="1.0" encoding="utf-8" standalone="no"?>
<!DOCTYPE svg PUBLIC "-//W3C//DTD SVG 1.1//EN"
  "http://www.w3.org/Graphics/SVG/1.1/DTD/svg11.dtd">
<svg xmlns:xlink="http://www.w3.org/1999/xlink" width="453.6pt" height="338.4pt" viewBox="0 0 453.6 338.4" xmlns="http://www.w3.org/2000/svg" version="1.1">
 <metadata>
  <rdf:RDF xmlns:dc="http://purl.org/dc/elements/1.1/" xmlns:cc="http://creativecommons.org/ns#" xmlns:rdf="http://www.w3.org/1999/02/22-rdf-syntax-ns#">
   <cc:Work>
    <dc:type rdf:resource="http://purl.org/dc/dcmitype/StillImage"/>
    <dc:date>2026-05-19T20:43:30.738224</dc:date>
    <dc:format>image/svg+xml</dc:format>
    <dc:creator>
     <cc:Agent>
      <dc:title>Matplotlib v3.10.3, https://matplotlib.org/</dc:title>
     </cc:Agent>
    </dc:creator>
   </cc:Work>
  </rdf:RDF>
 </metadata>
 <defs>
  <style type="text/css">*{stroke-linejoin: round; stroke-linecap: butt}</style>
 </defs>
 <g id="figure_1">
  <g id="patch_1">
   <path d="M 0 338.4 
L 453.6 338.4 
L 453.6 0 
L 0 0 
z
" style="fill: #ffffff"/>
  </g>
  <g id="axes_1">
   <g id="patch_2">
    <path d="M 52.382813 143.25256 
L 446.4 143.25256 
L 446.4 22.318125 
L 52.382813 22.318125 
z
" style="fill: #ffffff"/>
   </g>
   <g id="patch_3">
    <path d="M 70.292685 143.25256 
L 70.470473 143.25256 
L 70.470473 22.318125 
L 70.292685 22.318125 
z
" clip-path="url(#pbfee2f940e)" style="fill: #d3d3d3"/>
   </g>
   <g id="patch_4">
    <path d="M 75.700889 143.25256 
L 78.849461 143.25256 
L 78.849461 22.318125 
L 75.700889 22.318125 
z
" clip-path="url(#pbfee2f940e)" style="fill: #d3d3d3"/>
   </g>
   <g id="patch_5">
    <path d="M 82.691981 143.25256 
L 84.079877 143.25256 
L 84.079877 22.318125 
L 82.691981 22.318125 
z
" clip-path="url(#pbfee2f940e)" style="fill: #d3d3d3"/>
   </g>
   <g id="patch_6">
    <path d="M 92.109023 143.25256 
L 97.700751 143.25256 
L 97.700751 22.318125 
L 92.109023 22.318125 
z
" clip-path="url(#pbfee2f940e)" style="fill: #d3d3d3"/>
   </g>
   <g id="patch_7">
    <path d="M 100.837853 143.25256 
L 103.986426 143.25256 
L 103.986426 22.318125 
L 100.837853 22.318125 
z
" clip-path="url(#pbfee2f940e)" style="fill: #d3d3d3"/>
   </g>
   <g id="patch_8">
    <path d="M 109.922259 143.25256 
L 121.260561 143.25256 
L 121.260561 22.318125 
L 109.922259 22.318125 
z
" clip-path="url(#pbfee2f940e)" style="fill: #d3d3d3"/>
   </g>
   <g id="patch_9">
    <path d="M 127.546236 143.25256 
L 134.181753 143.25256 
L 134.181753 22.318125 
L 127.546236 22.318125 
z
" clip-path="url(#pbfee2f940e)" style="fill: #d3d3d3"/>
   </g>
   <g id="patch_10">
    <path d="M 138.018538 143.25256 
L 140.289639 143.25256 
L 140.289639 22.318125 
L 138.018538 22.318125 
z
" clip-path="url(#pbfee2f940e)" style="fill: #d3d3d3"/>
   </g>
   <g id="patch_11">
    <path d="M 145.003895 143.25256 
L 146.747367 143.25256 
L 146.747367 22.318125 
L 145.003895 22.318125 
z
" clip-path="url(#pbfee2f940e)" style="fill: #d3d3d3"/>
   </g>
   <g id="patch_12">
    <path d="M 150.251516 143.25256 
L 153.205095 143.25256 
L 153.205095 22.318125 
L 150.251516 22.318125 
z
" clip-path="url(#pbfee2f940e)" style="fill: #d3d3d3"/>
   </g>
   <g id="patch_13">
    <path d="M 156.353668 143.25256 
L 159.49077 143.25256 
L 159.49077 22.318125 
L 156.353668 22.318125 
z
" clip-path="url(#pbfee2f940e)" style="fill: #d3d3d3"/>
   </g>
   <g id="patch_14">
    <path d="M 163.677397 143.25256 
L 166.825969 143.25256 
L 166.825969 22.318125 
L 163.677397 22.318125 
z
" clip-path="url(#pbfee2f940e)" style="fill: #d3d3d3"/>
   </g>
   <g id="patch_15">
    <path d="M 170.484966 143.25256 
L 174.505275 143.25256 
L 174.505275 22.318125 
L 170.484966 22.318125 
z
" clip-path="url(#pbfee2f940e)" style="fill: #d3d3d3"/>
   </g>
   <g id="patch_16">
    <path d="M 180.257585 143.25256 
L 182.528686 143.25256 
L 182.528686 22.318125 
L 180.257585 22.318125 
z
" clip-path="url(#pbfee2f940e)" style="fill: #d3d3d3"/>
   </g>
   <g id="patch_17">
    <path d="M 185.855047 143.25256 
L 190.041674 143.25256 
L 190.041674 22.318125 
L 185.855047 22.318125 
z
" clip-path="url(#pbfee2f940e)" style="fill: #d3d3d3"/>
   </g>
   <g id="patch_18">
    <path d="M 192.140722 143.25256 
L 196.14956 143.25256 
L 196.14956 22.318125 
L 192.140722 22.318125 
z
" clip-path="url(#pbfee2f940e)" style="fill: #d3d3d3"/>
   </g>
   <g id="patch_19">
    <path d="M 203.828866 143.25256 
L 205.044708 143.25256 
L 205.044708 22.318125 
L 203.828866 22.318125 
z
" clip-path="url(#pbfee2f940e)" style="fill: #d3d3d3"/>
   </g>
   <g id="patch_20">
    <path d="M 206.79965 143.25256 
L 209.936752 143.25256 
L 209.936752 22.318125 
L 206.79965 22.318125 
z
" clip-path="url(#pbfee2f940e)" style="fill: #d3d3d3"/>
   </g>
   <g id="patch_21">
    <path d="M 213.773538 143.25256 
L 216.222427 143.25256 
L 216.222427 22.318125 
L 213.773538 22.318125 
z
" clip-path="url(#pbfee2f940e)" style="fill: #d3d3d3"/>
   </g>
   <g id="patch_22">
    <path d="M 220.936684 143.25256 
L 223.20205 143.25256 
L 223.20205 22.318125 
L 220.936684 22.318125 
z
" clip-path="url(#pbfee2f940e)" style="fill: #d3d3d3"/>
   </g>
   <g id="patch_23">
    <path d="M 226.872517 143.25256 
L 234.374034 143.25256 
L 234.374034 22.318125 
L 226.872517 22.318125 
z
" clip-path="url(#pbfee2f940e)" style="fill: #d3d3d3"/>
   </g>
   <g id="patch_24">
    <path d="M 243.102864 143.25256 
L 245.36823 143.25256 
L 245.36823 22.318125 
L 243.102864 22.318125 
z
" clip-path="url(#pbfee2f940e)" style="fill: #d3d3d3"/>
   </g>
   <g id="patch_25">
    <path d="M 259.33321 143.25256 
L 260.738311 143.25256 
L 260.738311 22.318125 
L 259.33321 22.318125 
z
" clip-path="url(#pbfee2f940e)" style="fill: #d3d3d3"/>
   </g>
   <g id="patch_26">
    <path d="M 267.196039 143.25256 
L 269.117299 143.25256 
L 269.117299 22.318125 
L 267.196039 22.318125 
z
" clip-path="url(#pbfee2f940e)" style="fill: #d3d3d3"/>
   </g>
   <g id="patch_27">
    <path d="M 276.968658 143.25256 
L 278.71213 143.25256 
L 278.71213 22.318125 
L 276.968658 22.318125 
z
" clip-path="url(#pbfee2f940e)" style="fill: #d3d3d3"/>
   </g>
   <g id="patch_28">
    <path d="M 285.525434 143.25256 
L 286.91333 143.25256 
L 286.91333 22.318125 
L 285.525434 22.318125 
z
" clip-path="url(#pbfee2f940e)" style="fill: #d3d3d3"/>
   </g>
   <g id="patch_29">
    <path d="M 291.105691 143.25256 
L 292.849163 143.25256 
L 292.849163 22.318125 
L 291.105691 22.318125 
z
" clip-path="url(#pbfee2f940e)" style="fill: #d3d3d3"/>
   </g>
   <g id="patch_30">
    <path d="M 311.362082 143.25256 
L 313.277607 143.25256 
L 313.277607 22.318125 
L 311.362082 22.318125 
z
" clip-path="url(#pbfee2f940e)" style="fill: #d3d3d3"/>
   </g>
   <g id="patch_31">
    <path d="M 319.563282 143.25256 
L 322.350543 143.25256 
L 322.350543 22.318125 
L 319.563282 22.318125 
z
" clip-path="url(#pbfee2f940e)" style="fill: #d3d3d3"/>
   </g>
   <g id="patch_32">
    <path d="M 332.484473 143.25256 
L 333.528262 143.25256 
L 333.528262 22.318125 
L 332.484473 22.318125 
z
" clip-path="url(#pbfee2f940e)" style="fill: #d3d3d3"/>
   </g>
   <g id="patch_33">
    <path d="M 335.621575 143.25256 
L 338.414571 143.25256 
L 338.414571 22.318125 
L 335.621575 22.318125 
z
" clip-path="url(#pbfee2f940e)" style="fill: #d3d3d3"/>
   </g>
   <g id="patch_34">
    <path d="M 354.472865 143.25256 
L 355.866495 143.25256 
L 355.866495 22.318125 
L 354.472865 22.318125 
z
" clip-path="url(#pbfee2f940e)" style="fill: #d3d3d3"/>
   </g>
   <g id="patch_35">
    <path d="M 376.816833 143.25256 
L 378.216199 143.25256 
L 378.216199 22.318125 
L 376.816833 22.318125 
z
" clip-path="url(#pbfee2f940e)" style="fill: #d3d3d3"/>
   </g>
   <g id="patch_36">
    <path d="M 390.959602 143.25256 
L 394.096704 143.25256 
L 394.096704 22.318125 
L 390.959602 22.318125 
z
" clip-path="url(#pbfee2f940e)" style="fill: #d3d3d3"/>
   </g>
   <g id="patch_37">
    <path d="M 416.440673 143.25256 
L 416.790514 143.25256 
L 416.790514 22.318125 
L 416.440673 22.318125 
z
" clip-path="url(#pbfee2f940e)" style="fill: #d3d3d3"/>
   </g>
   <g id="matplotlib.axis_1">
    <g id="xtick_1">
     <g id="line2d_1">
      <path d="M 80.942774 143.25256 
L 80.942774 22.318125 
" clip-path="url(#pbfee2f940e)" style="fill: none; stroke: #b0b0b0; stroke-width: 0.8; stroke-linecap: square"/>
     </g>
     <g id="line2d_2">
      <defs>
       <path id="m874b69d02f" d="M 0 0 
L 0 3.5 
" style="stroke: #000000; stroke-width: 0.8"/>
      </defs>
      <g>
       <use xlink:href="#m874b69d02f" x="80.942774" y="143.25256" style="stroke: #000000; stroke-width: 0.8"/>
      </g>
     </g>
     <g id="text_1">
      <!-- 1860 -->
      <g transform="translate(57.862584 169.558) rotate(-30) scale(0.1 -0.1)">
       <defs>
        <path id="DejaVuSerif-31" d="M 909 0 
L 909 331 
L 1722 331 
L 1722 4213 
L 781 3603 
L 781 4013 
L 1919 4750 
L 2350 4750 
L 2350 331 
L 3163 331 
L 3163 0 
L 909 0 
z
" transform="scale(0.015625)"/>
        <path id="DejaVuSerif-38" d="M 2981 1275 
Q 2981 1775 2732 2051 
Q 2484 2328 2034 2328 
Q 1584 2328 1336 2051 
Q 1088 1775 1088 1275 
Q 1088 772 1336 495 
Q 1584 219 2034 219 
Q 2484 219 2732 495 
Q 2981 772 2981 1275 
z
M 2853 3541 
Q 2853 3966 2637 4203 
Q 2422 4441 2034 4441 
Q 1650 4441 1433 4203 
Q 1216 3966 1216 3541 
Q 1216 3113 1433 2875 
Q 1650 2638 2034 2638 
Q 2422 2638 2637 2875 
Q 2853 3113 2853 3541 
z
M 2516 2484 
Q 3047 2413 3344 2092 
Q 3641 1772 3641 1275 
Q 3641 619 3225 264 
Q 2809 -91 2034 -91 
Q 1263 -91 845 264 
Q 428 619 428 1275 
Q 428 1772 725 2092 
Q 1022 2413 1556 2484 
Q 1084 2569 832 2842 
Q 581 3116 581 3541 
Q 581 4103 968 4426 
Q 1356 4750 2034 4750 
Q 2713 4750 3100 4426 
Q 3488 4103 3488 3541 
Q 3488 3116 3236 2842 
Q 2984 2569 2516 2484 
z
" transform="scale(0.015625)"/>
        <path id="DejaVuSerif-36" d="M 2094 219 
Q 2534 219 2771 542 
Q 3009 866 3009 1472 
Q 3009 2078 2771 2401 
Q 2534 2725 2094 2725 
Q 1647 2725 1412 2412 
Q 1178 2100 1178 1509 
Q 1178 888 1415 553 
Q 1653 219 2094 219 
z
M 1075 2569 
Q 1288 2803 1556 2918 
Q 1825 3034 2163 3034 
Q 2859 3034 3264 2615 
Q 3669 2197 3669 1472 
Q 3669 763 3233 336 
Q 2797 -91 2069 -91 
Q 1278 -91 853 498 
Q 428 1088 428 2181 
Q 428 3406 931 4078 
Q 1434 4750 2350 4750 
Q 2597 4750 2869 4703 
Q 3141 4656 3425 4563 
L 3425 3794 
L 3072 3794 
Q 3034 4109 2831 4275 
Q 2628 4441 2284 4441 
Q 1678 4441 1381 3981 
Q 1084 3522 1075 2569 
z
" transform="scale(0.015625)"/>
        <path id="DejaVuSerif-30" d="M 2034 219 
Q 2513 219 2750 744 
Q 2988 1269 2988 2328 
Q 2988 3391 2750 3916 
Q 2513 4441 2034 4441 
Q 1556 4441 1318 3916 
Q 1081 3391 1081 2328 
Q 1081 1269 1318 744 
Q 1556 219 2034 219 
z
M 2034 -91 
Q 1275 -91 848 546 
Q 422 1184 422 2328 
Q 422 3475 848 4112 
Q 1275 4750 2034 4750 
Q 2797 4750 3222 4112 
Q 3647 3475 3647 2328 
Q 3647 1184 3222 546 
Q 2797 -91 2034 -91 
z
" transform="scale(0.015625)"/>
       </defs>
       <use xlink:href="#DejaVuSerif-31"/>
       <use xlink:href="#DejaVuSerif-38" transform="translate(63.623047 0)"/>
       <use xlink:href="#DejaVuSerif-36" transform="translate(127.246094 0)"/>
       <use xlink:href="#DejaVuSerif-30" transform="translate(190.869141 0)"/>
      </g>
     </g>
    </g>
    <g id="xtick_2">
     <g id="line2d_3">
      <path d="M 122.837715 143.25256 
L 122.837715 22.318125 
" clip-path="url(#pbfee2f940e)" style="fill: none; stroke: #b0b0b0; stroke-width: 0.8; stroke-linecap: square"/>
     </g>
     <g id="line2d_4">
      <g>
       <use xlink:href="#m874b69d02f" x="122.837715" y="143.25256" style="stroke: #000000; stroke-width: 0.8"/>
      </g>
     </g>
     <g id="text_2">
      <!-- 1880 -->
      <g transform="translate(99.757525 169.558) rotate(-30) scale(0.1 -0.1)">
       <use xlink:href="#DejaVuSerif-31"/>
       <use xlink:href="#DejaVuSerif-38" transform="translate(63.623047 0)"/>
       <use xlink:href="#DejaVuSerif-38" transform="translate(127.246094 0)"/>
       <use xlink:href="#DejaVuSerif-30" transform="translate(190.869141 0)"/>
      </g>
     </g>
    </g>
    <g id="xtick_3">
     <g id="line2d_5">
      <path d="M 164.732656 143.25256 
L 164.732656 22.318125 
" clip-path="url(#pbfee2f940e)" style="fill: none; stroke: #b0b0b0; stroke-width: 0.8; stroke-linecap: square"/>
     </g>
     <g id="line2d_6">
      <g>
       <use xlink:href="#m874b69d02f" x="164.732656" y="143.25256" style="stroke: #000000; stroke-width: 0.8"/>
      </g>
     </g>
     <g id="text_3">
      <!-- 1900 -->
      <g transform="translate(141.652466 169.558) rotate(-30) scale(0.1 -0.1)">
       <defs>
        <path id="DejaVuSerif-39" d="M 2994 2091 
Q 2784 1856 2512 1740 
Q 2241 1625 1900 1625 
Q 1206 1625 804 2044 
Q 403 2463 403 3188 
Q 403 3897 839 4323 
Q 1275 4750 2003 4750 
Q 2794 4750 3217 4161 
Q 3641 3572 3641 2478 
Q 3641 1253 3137 581 
Q 2634 -91 1722 -91 
Q 1475 -91 1203 -44 
Q 931 3 647 97 
L 647 872 
L 997 872 
Q 1038 556 1241 387 
Q 1444 219 1784 219 
Q 2391 219 2687 676 
Q 2984 1134 2994 2091 
z
M 1978 4441 
Q 1534 4441 1298 4117 
Q 1063 3794 1063 3188 
Q 1063 2581 1298 2256 
Q 1534 1931 1978 1931 
Q 2422 1931 2658 2245 
Q 2894 2559 2894 3150 
Q 2894 3772 2656 4106 
Q 2419 4441 1978 4441 
z
" transform="scale(0.015625)"/>
       </defs>
       <use xlink:href="#DejaVuSerif-31"/>
       <use xlink:href="#DejaVuSerif-39" transform="translate(63.623047 0)"/>
       <use xlink:href="#DejaVuSerif-30" transform="translate(127.246094 0)"/>
       <use xlink:href="#DejaVuSerif-30" transform="translate(190.869141 0)"/>
      </g>
     </g>
    </g>
    <g id="xtick_4">
     <g id="line2d_7">
      <path d="M 206.621862 143.25256 
L 206.621862 22.318125 
" clip-path="url(#pbfee2f940e)" style="fill: none; stroke: #b0b0b0; stroke-width: 0.8; stroke-linecap: square"/>
     </g>
     <g id="line2d_8">
      <g>
       <use xlink:href="#m874b69d02f" x="206.621862" y="143.25256" style="stroke: #000000; stroke-width: 0.8"/>
      </g>
     </g>
     <g id="text_4">
      <!-- 1920 -->
      <g transform="translate(183.541672 169.558) rotate(-30) scale(0.1 -0.1)">
       <defs>
        <path id="DejaVuSerif-32" d="M 819 3553 
L 469 3553 
L 469 4384 
Q 803 4563 1142 4656 
Q 1481 4750 1806 4750 
Q 2534 4750 2956 4397 
Q 3378 4044 3378 3438 
Q 3378 2753 2422 1800 
Q 2347 1728 2309 1691 
L 1131 513 
L 3078 513 
L 3078 1088 
L 3444 1088 
L 3444 0 
L 434 0 
L 434 341 
L 1850 1753 
Q 2319 2222 2519 2614 
Q 2719 3006 2719 3438 
Q 2719 3909 2473 4175 
Q 2228 4441 1797 4441 
Q 1350 4441 1106 4219 
Q 863 3997 819 3553 
z
" transform="scale(0.015625)"/>
       </defs>
       <use xlink:href="#DejaVuSerif-31"/>
       <use xlink:href="#DejaVuSerif-39" transform="translate(63.623047 0)"/>
       <use xlink:href="#DejaVuSerif-32" transform="translate(127.246094 0)"/>
       <use xlink:href="#DejaVuSerif-30" transform="translate(190.869141 0)"/>
      </g>
     </g>
    </g>
    <g id="xtick_5">
     <g id="line2d_9">
      <path d="M 248.516803 143.25256 
L 248.516803 22.318125 
" clip-path="url(#pbfee2f940e)" style="fill: none; stroke: #b0b0b0; stroke-width: 0.8; stroke-linecap: square"/>
     </g>
     <g id="line2d_10">
      <g>
       <use xlink:href="#m874b69d02f" x="248.516803" y="143.25256" style="stroke: #000000; stroke-width: 0.8"/>
      </g>
     </g>
     <g id="text_5">
      <!-- 1940 -->
      <g transform="translate(225.436612 169.558) rotate(-30) scale(0.1 -0.1)">
       <defs>
        <path id="DejaVuSerif-34" d="M 2234 1581 
L 2234 4063 
L 641 1581 
L 2234 1581 
z
M 3609 0 
L 1484 0 
L 1484 331 
L 2234 331 
L 2234 1247 
L 197 1247 
L 197 1588 
L 2241 4750 
L 2859 4750 
L 2859 1581 
L 3750 1581 
L 3750 1247 
L 2859 1247 
L 2859 331 
L 3609 331 
L 3609 0 
z
" transform="scale(0.015625)"/>
       </defs>
       <use xlink:href="#DejaVuSerif-31"/>
       <use xlink:href="#DejaVuSerif-39" transform="translate(63.623047 0)"/>
       <use xlink:href="#DejaVuSerif-34" transform="translate(127.246094 0)"/>
       <use xlink:href="#DejaVuSerif-30" transform="translate(190.869141 0)"/>
      </g>
     </g>
    </g>
    <g id="xtick_6">
     <g id="line2d_11">
      <path d="M 290.411744 143.25256 
L 290.411744 22.318125 
" clip-path="url(#pbfee2f940e)" style="fill: none; stroke: #b0b0b0; stroke-width: 0.8; stroke-linecap: square"/>
     </g>
     <g id="line2d_12">
      <g>
       <use xlink:href="#m874b69d02f" x="290.411744" y="143.25256" style="stroke: #000000; stroke-width: 0.8"/>
      </g>
     </g>
     <g id="text_6">
      <!-- 1960 -->
      <g transform="translate(267.331553 169.558) rotate(-30) scale(0.1 -0.1)">
       <use xlink:href="#DejaVuSerif-31"/>
       <use xlink:href="#DejaVuSerif-39" transform="translate(63.623047 0)"/>
       <use xlink:href="#DejaVuSerif-36" transform="translate(127.246094 0)"/>
       <use xlink:href="#DejaVuSerif-30" transform="translate(190.869141 0)"/>
      </g>
     </g>
    </g>
    <g id="xtick_7">
     <g id="line2d_13">
      <path d="M 332.306685 143.25256 
L 332.306685 22.318125 
" clip-path="url(#pbfee2f940e)" style="fill: none; stroke: #b0b0b0; stroke-width: 0.8; stroke-linecap: square"/>
     </g>
     <g id="line2d_14">
      <g>
       <use xlink:href="#m874b69d02f" x="332.306685" y="143.25256" style="stroke: #000000; stroke-width: 0.8"/>
      </g>
     </g>
     <g id="text_7">
      <!-- 1980 -->
      <g transform="translate(309.226494 169.558) rotate(-30) scale(0.1 -0.1)">
       <use xlink:href="#DejaVuSerif-31"/>
       <use xlink:href="#DejaVuSerif-39" transform="translate(63.623047 0)"/>
       <use xlink:href="#DejaVuSerif-38" transform="translate(127.246094 0)"/>
       <use xlink:href="#DejaVuSerif-30" transform="translate(190.869141 0)"/>
      </g>
     </g>
    </g>
    <g id="xtick_8">
     <g id="line2d_15">
      <path d="M 374.201625 143.25256 
L 374.201625 22.318125 
" clip-path="url(#pbfee2f940e)" style="fill: none; stroke: #b0b0b0; stroke-width: 0.8; stroke-linecap: square"/>
     </g>
     <g id="line2d_16">
      <g>
       <use xlink:href="#m874b69d02f" x="374.201625" y="143.25256" style="stroke: #000000; stroke-width: 0.8"/>
      </g>
     </g>
     <g id="text_8">
      <!-- 2000 -->
      <g transform="translate(351.121435 169.558) rotate(-30) scale(0.1 -0.1)">
       <use xlink:href="#DejaVuSerif-32"/>
       <use xlink:href="#DejaVuSerif-30" transform="translate(63.623047 0)"/>
       <use xlink:href="#DejaVuSerif-30" transform="translate(127.246094 0)"/>
       <use xlink:href="#DejaVuSerif-30" transform="translate(190.869141 0)"/>
      </g>
     </g>
    </g>
    <g id="xtick_9">
     <g id="line2d_17">
      <path d="M 416.096566 143.25256 
L 416.096566 22.318125 
" clip-path="url(#pbfee2f940e)" style="fill: none; stroke: #b0b0b0; stroke-width: 0.8; stroke-linecap: square"/>
     </g>
     <g id="line2d_18">
      <g>
       <use xlink:href="#m874b69d02f" x="416.096566" y="143.25256" style="stroke: #000000; stroke-width: 0.8"/>
      </g>
     </g>
     <g id="text_9">
      <!-- 2020 -->
      <g transform="translate(393.016376 169.558) rotate(-30) scale(0.1 -0.1)">
       <use xlink:href="#DejaVuSerif-32"/>
       <use xlink:href="#DejaVuSerif-30" transform="translate(63.623047 0)"/>
       <use xlink:href="#DejaVuSerif-32" transform="translate(127.246094 0)"/>
       <use xlink:href="#DejaVuSerif-30" transform="translate(190.869141 0)"/>
      </g>
     </g>
    </g>
   </g>
   <g id="matplotlib.axis_2">
    <g id="ytick_1">
     <g id="line2d_19">
      <path d="M 52.382813 137.75568 
L 446.4 137.75568 
" clip-path="url(#pbfee2f940e)" style="fill: none; stroke: #b0b0b0; stroke-width: 0.8; stroke-linecap: square"/>
     </g>
     <g id="line2d_20">
      <defs>
       <path id="me9f78fb1ba" d="M 0 0 
L -3.5 0 
" style="stroke: #000000; stroke-width: 0.8"/>
      </defs>
      <g>
       <use xlink:href="#me9f78fb1ba" x="52.382813" y="137.75568" style="stroke: #000000; stroke-width: 0.8"/>
      </g>
     </g>
     <g id="text_10">
      <!-- 0.0 -->
      <g transform="translate(29.479688 141.554899) scale(0.1 -0.1)">
       <defs>
        <path id="DejaVuSerif-2e" d="M 603 325 
Q 603 500 722 622 
Q 841 744 1019 744 
Q 1191 744 1312 622 
Q 1434 500 1434 325 
Q 1434 153 1312 31 
Q 1191 -91 1019 -91 
Q 841 -91 722 29 
Q 603 150 603 325 
z
" transform="scale(0.015625)"/>
       </defs>
       <use xlink:href="#DejaVuSerif-30"/>
       <use xlink:href="#DejaVuSerif-2e" transform="translate(63.623047 0)"/>
       <use xlink:href="#DejaVuSerif-30" transform="translate(95.410156 0)"/>
      </g>
     </g>
    </g>
    <g id="ytick_2">
     <g id="line2d_21">
      <path d="M 52.382813 115.767573 
L 446.4 115.767573 
" clip-path="url(#pbfee2f940e)" style="fill: none; stroke: #b0b0b0; stroke-width: 0.8; stroke-linecap: square"/>
     </g>
     <g id="line2d_22">
      <g>
       <use xlink:href="#me9f78fb1ba" x="52.382813" y="115.767573" style="stroke: #000000; stroke-width: 0.8"/>
      </g>
     </g>
     <g id="text_11">
      <!-- 0.2 -->
      <g transform="translate(29.479688 119.566792) scale(0.1 -0.1)">
       <use xlink:href="#DejaVuSerif-30"/>
       <use xlink:href="#DejaVuSerif-2e" transform="translate(63.623047 0)"/>
       <use xlink:href="#DejaVuSerif-32" transform="translate(95.410156 0)"/>
      </g>
     </g>
    </g>
    <g id="ytick_3">
     <g id="line2d_23">
      <path d="M 52.382813 93.779466 
L 446.4 93.779466 
" clip-path="url(#pbfee2f940e)" style="fill: none; stroke: #b0b0b0; stroke-width: 0.8; stroke-linecap: square"/>
     </g>
     <g id="line2d_24">
      <g>
       <use xlink:href="#me9f78fb1ba" x="52.382813" y="93.779466" style="stroke: #000000; stroke-width: 0.8"/>
      </g>
     </g>
     <g id="text_12">
      <!-- 0.4 -->
      <g transform="translate(29.479688 97.578685) scale(0.1 -0.1)">
       <use xlink:href="#DejaVuSerif-30"/>
       <use xlink:href="#DejaVuSerif-2e" transform="translate(63.623047 0)"/>
       <use xlink:href="#DejaVuSerif-34" transform="translate(95.410156 0)"/>
      </g>
     </g>
    </g>
    <g id="ytick_4">
     <g id="line2d_25">
      <path d="M 52.382813 71.791359 
L 446.4 71.791359 
" clip-path="url(#pbfee2f940e)" style="fill: none; stroke: #b0b0b0; stroke-width: 0.8; stroke-linecap: square"/>
     </g>
     <g id="line2d_26">
      <g>
       <use xlink:href="#me9f78fb1ba" x="52.382813" y="71.791359" style="stroke: #000000; stroke-width: 0.8"/>
      </g>
     </g>
     <g id="text_13">
      <!-- 0.6 -->
      <g transform="translate(29.479688 75.590578) scale(0.1 -0.1)">
       <use xlink:href="#DejaVuSerif-30"/>
       <use xlink:href="#DejaVuSerif-2e" transform="translate(63.623047 0)"/>
       <use xlink:href="#DejaVuSerif-36" transform="translate(95.410156 0)"/>
      </g>
     </g>
    </g>
    <g id="ytick_5">
     <g id="line2d_27">
      <path d="M 52.382813 49.803252 
L 446.4 49.803252 
" clip-path="url(#pbfee2f940e)" style="fill: none; stroke: #b0b0b0; stroke-width: 0.8; stroke-linecap: square"/>
     </g>
     <g id="line2d_28">
      <g>
       <use xlink:href="#me9f78fb1ba" x="52.382813" y="49.803252" style="stroke: #000000; stroke-width: 0.8"/>
      </g>
     </g>
     <g id="text_14">
      <!-- 0.8 -->
      <g transform="translate(29.479688 53.602471) scale(0.1 -0.1)">
       <use xlink:href="#DejaVuSerif-30"/>
       <use xlink:href="#DejaVuSerif-2e" transform="translate(63.623047 0)"/>
       <use xlink:href="#DejaVuSerif-38" transform="translate(95.410156 0)"/>
      </g>
     </g>
    </g>
    <g id="ytick_6">
     <g id="line2d_29">
      <path d="M 52.382813 27.815145 
L 446.4 27.815145 
" clip-path="url(#pbfee2f940e)" style="fill: none; stroke: #b0b0b0; stroke-width: 0.8; stroke-linecap: square"/>
     </g>
     <g id="line2d_30">
      <g>
       <use xlink:href="#me9f78fb1ba" x="52.382813" y="27.815145" style="stroke: #000000; stroke-width: 0.8"/>
      </g>
     </g>
     <g id="text_15">
      <!-- 1.0 -->
      <g transform="translate(29.479688 31.614364) scale(0.1 -0.1)">
       <use xlink:href="#DejaVuSerif-31"/>
       <use xlink:href="#DejaVuSerif-2e" transform="translate(63.623047 0)"/>
       <use xlink:href="#DejaVuSerif-30" transform="translate(95.410156 0)"/>
      </g>
     </g>
    </g>
    <g id="text_16">
     <!-- Prob. of being in $S_t=1$ -->
     <g transform="translate(23.179688 140.835343) rotate(-90) scale(0.1 -0.1)">
      <defs>
       <path id="DejaVuSerif-50" d="M 1581 2375 
L 2406 2375 
Q 2872 2375 3115 2626 
Q 3359 2878 3359 3353 
Q 3359 3831 3115 4081 
Q 2872 4331 2406 4331 
L 1581 4331 
L 1581 2375 
z
M 353 0 
L 353 331 
L 947 331 
L 947 4331 
L 353 4331 
L 353 4666 
L 2559 4666 
Q 3259 4666 3668 4311 
Q 4078 3956 4078 3353 
Q 4078 2753 3668 2397 
Q 3259 2041 2559 2041 
L 1581 2041 
L 1581 331 
L 2303 331 
L 2303 0 
L 353 0 
z
" transform="scale(0.015625)"/>
       <path id="DejaVuSerif-72" d="M 3059 3328 
L 3059 2497 
L 2728 2497 
Q 2713 2744 2591 2866 
Q 2469 2988 2234 2988 
Q 1809 2988 1582 2694 
Q 1356 2400 1356 1850 
L 1356 331 
L 2022 331 
L 2022 0 
L 263 0 
L 263 331 
L 781 331 
L 781 2994 
L 231 2994 
L 231 3322 
L 1356 3322 
L 1356 2731 
Q 1525 3078 1790 3245 
Q 2056 3413 2438 3413 
Q 2578 3413 2733 3391 
Q 2888 3369 3059 3328 
z
" transform="scale(0.015625)"/>
       <path id="DejaVuSerif-6f" d="M 1925 219 
Q 2388 219 2623 584 
Q 2859 950 2859 1663 
Q 2859 2375 2623 2739 
Q 2388 3103 1925 3103 
Q 1463 3103 1227 2739 
Q 991 2375 991 1663 
Q 991 950 1228 584 
Q 1466 219 1925 219 
z
M 1925 -91 
Q 1200 -91 759 389 
Q 319 869 319 1663 
Q 319 2456 758 2934 
Q 1197 3413 1925 3413 
Q 2653 3413 3092 2934 
Q 3531 2456 3531 1663 
Q 3531 869 3092 389 
Q 2653 -91 1925 -91 
z
" transform="scale(0.015625)"/>
       <path id="DejaVuSerif-62" d="M 738 331 
L 738 4531 
L 184 4531 
L 184 4863 
L 1313 4863 
L 1313 2803 
Q 1481 3116 1742 3264 
Q 2003 3413 2388 3413 
Q 3000 3413 3387 2928 
Q 3775 2444 3775 1663 
Q 3775 881 3387 395 
Q 3000 -91 2388 -91 
Q 2003 -91 1742 57 
Q 1481 206 1313 519 
L 1313 0 
L 184 0 
L 184 331 
L 738 331 
z
M 1313 1497 
Q 1313 897 1542 583 
Q 1772 269 2209 269 
Q 2650 269 2876 622 
Q 3103 975 3103 1663 
Q 3103 2353 2876 2703 
Q 2650 3053 2209 3053 
Q 1772 3053 1542 2737 
Q 1313 2422 1313 1825 
L 1313 1497 
z
" transform="scale(0.015625)"/>
       <path id="DejaVuSerif-20" transform="scale(0.015625)"/>
       <path id="DejaVuSerif-66" d="M 2753 4078 
L 2450 4078 
Q 2447 4313 2317 4434 
Q 2188 4556 1941 4556 
Q 1619 4556 1487 4379 
Q 1356 4203 1356 3750 
L 1356 3322 
L 2284 3322 
L 2284 2988 
L 1356 2988 
L 1356 331 
L 2094 331 
L 2094 0 
L 231 0 
L 231 331 
L 781 331 
L 781 2988 
L 231 2988 
L 231 3322 
L 781 3322 
L 781 3738 
Q 781 4294 1070 4578 
Q 1359 4863 1919 4863 
Q 2128 4863 2337 4825 
Q 2547 4788 2753 4709 
L 2753 4078 
z
" transform="scale(0.015625)"/>
       <path id="DejaVuSerif-65" d="M 3469 1600 
L 991 1600 
L 991 1575 
Q 991 903 1244 561 
Q 1497 219 1991 219 
Q 2369 219 2611 417 
Q 2853 616 2950 1006 
L 3413 1006 
Q 3275 459 2904 184 
Q 2534 -91 1931 -91 
Q 1203 -91 761 389 
Q 319 869 319 1663 
Q 319 2450 753 2931 
Q 1188 3413 1894 3413 
Q 2647 3413 3050 2948 
Q 3453 2484 3469 1600 
z
M 2791 1931 
Q 2772 2513 2545 2808 
Q 2319 3103 1894 3103 
Q 1497 3103 1269 2806 
Q 1041 2509 991 1931 
L 2791 1931 
z
" transform="scale(0.015625)"/>
       <path id="DejaVuSerif-69" d="M 622 4353 
Q 622 4497 726 4603 
Q 831 4709 978 4709 
Q 1122 4709 1226 4603 
Q 1331 4497 1331 4353 
Q 1331 4206 1228 4103 
Q 1125 4000 978 4000 
Q 831 4000 726 4103 
Q 622 4206 622 4353 
z
M 1356 331 
L 1900 331 
L 1900 0 
L 231 0 
L 231 331 
L 781 331 
L 781 2988 
L 231 2988 
L 231 3322 
L 1356 3322 
L 1356 331 
z
" transform="scale(0.015625)"/>
       <path id="DejaVuSerif-6e" d="M 263 0 
L 263 331 
L 781 331 
L 781 2988 
L 231 2988 
L 231 3322 
L 1356 3322 
L 1356 2731 
Q 1516 3069 1770 3241 
Q 2025 3413 2363 3413 
Q 2913 3413 3172 3097 
Q 3431 2781 3431 2113 
L 3431 331 
L 3944 331 
L 3944 0 
L 2356 0 
L 2356 331 
L 2853 331 
L 2853 1931 
Q 2853 2541 2703 2767 
Q 2553 2994 2175 2994 
Q 1775 2994 1565 2701 
Q 1356 2409 1356 1850 
L 1356 331 
L 1856 331 
L 1856 0 
L 263 0 
z
" transform="scale(0.015625)"/>
       <path id="DejaVuSerif-67" d="M 3359 2988 
L 3359 72 
Q 3359 -644 2965 -1033 
Q 2572 -1422 1844 -1422 
Q 1516 -1422 1216 -1362 
Q 916 -1303 641 -1184 
L 641 -488 
L 941 -488 
Q 997 -813 1206 -963 
Q 1416 -1113 1806 -1113 
Q 2313 -1113 2548 -827 
Q 2784 -541 2784 72 
L 2784 519 
Q 2616 206 2355 57 
Q 2094 -91 1709 -91 
Q 1097 -91 708 395 
Q 319 881 319 1663 
Q 319 2444 706 2928 
Q 1094 3413 1709 3413 
Q 2094 3413 2355 3264 
Q 2616 3116 2784 2803 
L 2784 3322 
L 3909 3322 
L 3909 2988 
L 3359 2988 
z
M 2784 1825 
Q 2784 2422 2554 2737 
Q 2325 3053 1888 3053 
Q 1444 3053 1217 2703 
Q 991 2353 991 1663 
Q 991 975 1217 622 
Q 1444 269 1888 269 
Q 2325 269 2554 583 
Q 2784 897 2784 1497 
L 2784 1825 
z
" transform="scale(0.015625)"/>
       <path id="DejaVuSerif-Italic-53" d="M 184 225 
L 391 1288 
L 750 1284 
Q 663 753 905 498 
Q 1147 244 1744 244 
Q 2300 244 2636 464 
Q 2972 684 3053 1106 
Q 3119 1444 2976 1625 
Q 2834 1806 2300 1978 
L 1722 2163 
Q 1091 2366 877 2669 
Q 663 2972 766 3500 
Q 881 4094 1367 4422 
Q 1853 4750 2616 4750 
Q 2941 4750 3314 4679 
Q 3688 4609 4097 4475 
L 3906 3481 
L 3553 3481 
Q 3594 3975 3361 4195 
Q 3128 4416 2563 4416 
Q 2069 4416 1772 4214 
Q 1475 4013 1400 3628 
Q 1334 3294 1490 3103 
Q 1647 2913 2241 2725 
L 2784 2553 
Q 3381 2363 3593 2067 
Q 3806 1772 3709 1275 
Q 3578 597 3076 253 
Q 2575 -91 1716 -91 
Q 1331 -91 948 -12 
Q 566 66 184 225 
z
" transform="scale(0.015625)"/>
       <path id="DejaVuSerif-Italic-74" d="M 856 2988 
L 350 2988 
L 416 3322 
L 922 3322 
L 1122 4353 
L 1700 4353 
L 1500 3322 
L 2581 3322 
L 2516 2988 
L 1434 2988 
L 1025 878 
Q 978 631 978 488 
Q 978 388 1000 338 
Q 1059 219 1278 219 
Q 1503 219 1633 351 
Q 1763 484 1825 781 
L 2259 781 
Q 2147 328 1884 118 
Q 1622 -91 1169 -91 
Q 672 -91 506 131 
Q 406 266 406 516 
Q 406 675 447 878 
L 856 2988 
z
" transform="scale(0.015625)"/>
       <path id="DejaVuSerif-3d" d="M 678 2894 
L 4684 2894 
L 4684 2394 
L 678 2394 
L 678 2894 
z
M 678 1619 
L 4684 1619 
L 4684 1119 
L 678 1119 
L 678 1619 
z
" transform="scale(0.015625)"/>
      </defs>
      <use xlink:href="#DejaVuSerif-50" transform="translate(0 0.015625)"/>
      <use xlink:href="#DejaVuSerif-72" transform="translate(67.285156 0.015625)"/>
      <use xlink:href="#DejaVuSerif-6f" transform="translate(115.087891 0.015625)"/>
      <use xlink:href="#DejaVuSerif-62" transform="translate(175.292969 0.015625)"/>
      <use xlink:href="#DejaVuSerif-2e" transform="translate(239.306641 0.015625)"/>
      <use xlink:href="#DejaVuSerif-20" transform="translate(271.09375 0.015625)"/>
      <use xlink:href="#DejaVuSerif-6f" transform="translate(302.880859 0.015625)"/>
      <use xlink:href="#DejaVuSerif-66" transform="translate(363.085938 0.015625)"/>
      <use xlink:href="#DejaVuSerif-20" transform="translate(400.097656 0.015625)"/>
      <use xlink:href="#DejaVuSerif-62" transform="translate(431.884766 0.015625)"/>
      <use xlink:href="#DejaVuSerif-65" transform="translate(495.898438 0.015625)"/>
      <use xlink:href="#DejaVuSerif-69" transform="translate(555.078125 0.015625)"/>
      <use xlink:href="#DejaVuSerif-6e" transform="translate(587.060547 0.015625)"/>
      <use xlink:href="#DejaVuSerif-67" transform="translate(651.464844 0.015625)"/>
      <use xlink:href="#DejaVuSerif-20" transform="translate(715.478516 0.015625)"/>
      <use xlink:href="#DejaVuSerif-69" transform="translate(747.265625 0.015625)"/>
      <use xlink:href="#DejaVuSerif-6e" transform="translate(779.248047 0.015625)"/>
      <use xlink:href="#DejaVuSerif-20" transform="translate(843.652344 0.015625)"/>
      <use xlink:href="#DejaVuSerif-Italic-53" transform="translate(875.439453 0.015625)"/>
      <use xlink:href="#DejaVuSerif-Italic-74" transform="translate(943.945312 -15.55625) scale(0.7)"/>
      <use xlink:href="#DejaVuSerif-3d" transform="translate(993.635352 0.015625)"/>
      <use xlink:href="#DejaVuSerif-31" transform="translate(1096.389258 0.015625)"/>
     </g>
    </g>
   </g>
   <g id="line2d_31">
    <path d="M 290.933638 135.101529 
L 291.28348 137.625561 
L 291.633321 137.751243 
L 291.811109 137.738547 
L 291.983162 137.491386 
L 292.160951 136.141516 
L 292.333004 129.427318 
L 293.026951 35.42925 
L 293.199005 29.121254 
L 293.376793 27.953663 
L 293.548846 27.916063 
L 293.726634 28.105052 
L 293.904422 29.116534 
L 294.426317 43.299624 
L 294.604105 47.50827 
L 294.781894 48.82338 
L 294.942476 48.109684 
L 295.470106 40.229817 
L 295.997736 30.803082 
L 296.169789 28.594615 
L 296.347577 28.0201 
L 296.697419 27.834215 
L 298.44089 27.8932 
L 298.790732 28.16844 
L 299.48468 28.800652 
L 299.834521 28.508503 
L 300.362151 28.085714 
L 300.539939 28.111785 
L 300.711992 28.255392 
L 300.88978 28.697225 
L 301.067568 29.609581 
L 301.228151 31.599641 
L 301.40594 36.183918 
L 301.755781 57.229237 
L 302.455464 130.999628 
L 302.633252 135.886161 
L 302.805305 137.213775 
L 302.983093 137.601291 
L 303.321465 137.715582 
L 304.726565 137.676492 
L 304.898618 137.306213 
L 305.076407 134.374624 
L 305.254195 126.758096 
L 305.592566 89.446391 
L 305.942408 43.296543 
L 306.114461 32.865622 
L 306.292249 29.123017 
L 306.470037 28.13881 
L 306.64209 27.917861 
L 306.819879 27.946065 
L 306.991932 28.552401 
L 307.16972 34.024941 
L 307.347508 48.053066 
L 307.863668 131.390005 
L 308.041456 136.172956 
L 308.213509 137.320197 
L 308.391297 137.612306 
L 308.741139 137.684354 
L 309.956981 137.6745 
L 310.834452 137.751712 
L 312.577924 137.709362 
L 312.755712 137.090735 
L 312.927765 132.759766 
L 313.105554 121.519674 
L 313.793766 28.049638 
L 313.971554 27.826954 
L 315.892814 27.827218 
L 318.163916 28.031107 
L 318.335969 28.236924 
L 318.513757 28.825296 
L 318.685811 30.328773 
L 318.863599 34.684197 
L 319.041387 44.523167 
L 320.079441 136.962941 
L 320.257229 137.610799 
L 320.607071 137.738105 
L 322.522596 137.740616 
L 323.749908 137.659833 
L 324.105485 137.687727 
L 324.271803 137.539311 
L 324.449591 136.917068 
L 324.621644 135.435258 
L 324.799432 131.71075 
L 325.327062 85.748556 
L 325.676903 52.098596 
L 326.026745 39.214125 
L 326.204533 38.431684 
L 326.365116 39.62423 
L 326.892746 56.187731 
L 327.242587 71.886472 
L 327.94227 88.985005 
L 328.120058 92.5447 
L 328.297846 99.251534 
L 328.808271 133.103074 
L 329.158112 137.032122 
L 329.513688 137.616339 
L 329.86353 137.727459 
L 330.551742 137.71165 
L 331.251425 137.003974 
L 331.779055 136.259652 
L 332.650791 137.694949 
L 333.350474 137.739482 
L 333.878103 137.678485 
L 334.227945 137.439923 
L 334.583521 137.609348 
L 335.271734 137.614535 
L 335.621575 137.674193 
L 335.799363 137.580251 
L 335.971417 136.328624 
L 336.149205 133.864537 
L 336.321258 121.323086 
L 336.499046 65.931404 
L 336.837417 40.118368 
L 337.365047 31.219377 
L 337.5371 29.061173 
L 337.714888 28.385158 
L 337.892677 28.255843 
L 338.242518 28.578907 
L 338.592359 28.854173 
L 338.770148 28.695075 
L 338.930731 29.008225 
L 339.108519 31.728493 
L 339.280572 38.432307 
L 339.45836 54.891344 
L 339.808202 118.071311 
L 340.158043 136.538678 
L 340.335831 137.467461 
L 340.685673 137.733343 
L 341.029779 137.719181 
L 341.207567 137.583315 
L 341.37962 136.965505 
L 341.557409 134.565436 
L 341.90725 113.692143 
L 342.784721 31.505234 
L 343.123092 28.744784 
L 343.300881 28.474619 
L 343.472934 28.480231 
L 343.650722 28.620332 
L 344.700246 30.683819 
L 344.878034 30.464064 
L 345.055823 30.054371 
L 345.566247 28.102182 
L 345.916088 27.86085 
L 346.971348 27.85032 
L 347.149136 27.982783 
L 347.309719 28.824275 
L 347.487507 32.667934 
L 347.65956 40.831481 
L 347.837348 55.738559 
L 348.364978 118.609373 
L 348.537031 131.471303 
L 348.886873 137.30015 
L 349.064661 137.623493 
L 349.586555 137.694776 
L 351.341497 137.739943 
L 356.216337 137.722657 
L 357.265861 137.742045 
L 359.881069 137.754017 
L 363.907112 137.63178 
L 364.067695 137.025811 
L 364.245483 133.515894 
L 364.417537 123.928672 
L 365.295008 37.234202 
L 365.644849 30.402562 
L 366.000425 28.78738 
L 366.166744 28.705766 
L 367.222003 31.060201 
L 367.394056 30.833054 
L 368.437845 28.477245 
L 368.95974 28.047495 
L 369.487369 27.864084 
L 371.230841 27.827208 
L 373.146366 27.90586 
L 373.851784 28.209787 
L 374.379414 27.939026 
L 374.72352 27.929262 
L 375.073361 27.927228 
L 375.600991 27.83255 
L 379.609829 27.837308 
L 380.309512 27.864178 
L 381.00346 27.930278 
L 381.175513 28.091923 
L 381.353301 28.747269 
L 381.525354 32.001396 
L 381.703143 41.394647 
L 381.880931 63.930356 
L 382.230772 130.119188 
L 382.402825 136.62404 
L 382.580614 137.551719 
L 382.92472 137.703202 
L 384.329821 137.607807 
L 384.679662 137.619181 
L 385.195821 137.659476 
L 385.367875 137.574312 
L 385.545663 137.119693 
L 385.717716 135.366254 
L 385.895504 129.320762 
L 386.073292 115.549617 
L 386.595187 53.268986 
L 386.950763 33.730775 
L 387.289135 28.664194 
L 387.461188 28.108537 
L 387.811029 27.839982 
L 390.781813 27.815672 
L 394.096704 27.853543 
L 394.274492 27.997844 
L 394.452281 29.505353 
L 394.624334 42.129289 
L 394.802122 68.403956 
L 395.151963 136.889667 
L 395.329752 137.726418 
L 396.017964 137.755541 
L 398.638907 137.649939 
L 399.860484 137.654711 
L 400.210326 137.638416 
L 400.382379 137.550963 
L 400.560167 137.247563 
L 400.737956 136.479429 
L 401.087797 132.302226 
L 401.437638 126.597666 
L 401.776009 124.186042 
L 401.953798 123.939819 
L 402.125851 124.574284 
L 402.303639 126.175894 
L 402.831269 133.583907 
L 403.18111 136.110757 
L 403.353163 136.554753 
L 403.869323 136.148987 
L 404.047111 136.210699 
L 404.396952 135.647055 
L 404.569006 134.947789 
L 404.746794 133.490501 
L 404.924582 130.31693 
L 405.274423 111.829762 
L 406.140424 60.804144 
L 406.840107 30.834045 
L 407.189948 28.63763 
L 407.367737 28.479557 
L 407.717578 28.690393 
L 408.061684 29.291903 
L 408.239473 29.840667 
L 408.411526 30.943917 
L 408.589314 33.453638 
L 408.939155 49.867683 
L 409.816626 129.440785 
L 410.154998 135.737272 
L 410.504839 136.936365 
L 410.85468 137.392586 
L 412.087728 137.631185 
L 412.947994 137.708292 
L 413.30357 137.605096 
L 413.475623 137.124416 
L 413.653412 135.789442 
L 413.825465 131.700303 
L 414.181041 111.243939 
L 415.041307 43.874604 
L 415.396883 30.643268 
L 415.568937 28.632293 
L 415.746725 28.00186 
L 416.096566 27.825025 
L 418.533986 27.865666 
L 418.711774 132.254615 
L 418.883827 137.718576 
L 419.411457 137.723527 
L 427.262815 137.635213 
L 427.612657 137.434565 
L 427.790445 136.932416 
L 428.318075 133.070764 
L 428.490128 130.110212 
L 428.490128 130.110212 
" clip-path="url(#pbfee2f940e)" style="fill: none; stroke: #1f77b4; stroke-width: 1.5; stroke-linecap: square"/>
   </g>
   <g id="patch_38">
    <path d="M 52.382813 143.25256 
L 52.382813 22.318125 
" style="fill: none; stroke: #000000; stroke-width: 0.8; stroke-linejoin: miter; stroke-linecap: square"/>
   </g>
   <g id="patch_39">
    <path d="M 446.4 143.25256 
L 446.4 22.318125 
" style="fill: none; stroke: #000000; stroke-width: 0.8; stroke-linejoin: miter; stroke-linecap: square"/>
   </g>
   <g id="patch_40">
    <path d="M 52.382812 143.25256 
L 446.4 143.25256 
" style="fill: none; stroke: #000000; stroke-width: 0.8; stroke-linejoin: miter; stroke-linecap: square"/>
   </g>
   <g id="patch_41">
    <path d="M 52.382812 22.318125 
L 446.4 22.318125 
" style="fill: none; stroke: #000000; stroke-width: 0.8; stroke-linejoin: miter; stroke-linecap: square"/>
   </g>
   <g id="text_17">
    <!-- United States -->
    <g transform="translate(207.700781 16.318125) scale(0.12 -0.12)">
     <defs>
      <path id="DejaVuSerif-55" d="M 897 4331 
L 300 4331 
L 300 4666 
L 2125 4666 
L 2125 4331 
L 1528 4331 
L 1528 1919 
Q 1528 1025 1820 672 
Q 2113 319 2828 319 
Q 3544 319 3836 672 
Q 4128 1025 4128 1919 
L 4128 4331 
L 3531 4331 
L 3531 4666 
L 5106 4666 
L 5106 4331 
L 4513 4331 
L 4513 1856 
Q 4513 791 4103 350 
Q 3694 -91 2713 -91 
Q 1731 -91 1314 353 
Q 897 797 897 1856 
L 897 4331 
z
" transform="scale(0.015625)"/>
      <path id="DejaVuSerif-74" d="M 691 2988 
L 184 2988 
L 184 3322 
L 691 3322 
L 691 4353 
L 1269 4353 
L 1269 3322 
L 2350 3322 
L 2350 2988 
L 1269 2988 
L 1269 878 
Q 1269 456 1350 337 
Q 1431 219 1650 219 
Q 1875 219 1978 351 
Q 2081 484 2088 781 
L 2522 781 
Q 2497 328 2275 118 
Q 2053 -91 1600 -91 
Q 1103 -91 897 129 
Q 691 350 691 878 
L 691 2988 
z
" transform="scale(0.015625)"/>
      <path id="DejaVuSerif-64" d="M 3359 331 
L 3909 331 
L 3909 0 
L 2784 0 
L 2784 519 
Q 2616 206 2355 57 
Q 2094 -91 1709 -91 
Q 1097 -91 708 395 
Q 319 881 319 1663 
Q 319 2444 706 2928 
Q 1094 3413 1709 3413 
Q 2094 3413 2355 3264 
Q 2616 3116 2784 2803 
L 2784 4531 
L 2241 4531 
L 2241 4863 
L 3359 4863 
L 3359 331 
z
M 2784 1497 
L 2784 1825 
Q 2784 2422 2554 2737 
Q 2325 3053 1888 3053 
Q 1444 3053 1217 2703 
Q 991 2353 991 1663 
Q 991 975 1217 622 
Q 1444 269 1888 269 
Q 2325 269 2554 583 
Q 2784 897 2784 1497 
z
" transform="scale(0.015625)"/>
      <path id="DejaVuSerif-53" d="M 594 225 
L 594 1288 
L 953 1284 
Q 969 753 1261 498 
Q 1553 244 2150 244 
Q 2706 244 2998 464 
Q 3291 684 3291 1106 
Q 3291 1444 3114 1625 
Q 2938 1806 2369 1978 
L 1753 2163 
Q 1084 2366 811 2669 
Q 538 2972 538 3500 
Q 538 4094 959 4422 
Q 1381 4750 2144 4750 
Q 2469 4750 2856 4679 
Q 3244 4609 3681 4475 
L 3681 3481 
L 3328 3481 
Q 3275 3975 2998 4195 
Q 2722 4416 2156 4416 
Q 1663 4416 1405 4214 
Q 1147 4013 1147 3628 
Q 1147 3294 1340 3103 
Q 1534 2913 2163 2725 
L 2741 2553 
Q 3375 2363 3645 2067 
Q 3916 1772 3916 1275 
Q 3916 597 3481 253 
Q 3047 -91 2188 -91 
Q 1803 -91 1404 -12 
Q 1006 66 594 225 
z
" transform="scale(0.015625)"/>
      <path id="DejaVuSerif-61" d="M 2547 1044 
L 2547 1747 
L 1806 1747 
Q 1378 1747 1168 1562 
Q 959 1378 959 997 
Q 959 650 1171 447 
Q 1384 244 1747 244 
Q 2106 244 2326 466 
Q 2547 688 2547 1044 
z
M 3122 2075 
L 3122 331 
L 3634 331 
L 3634 0 
L 2547 0 
L 2547 359 
Q 2356 128 2106 18 
Q 1856 -91 1522 -91 
Q 969 -91 644 203 
Q 319 497 319 997 
Q 319 1513 691 1797 
Q 1063 2081 1741 2081 
L 2547 2081 
L 2547 2309 
Q 2547 2688 2317 2895 
Q 2088 3103 1672 3103 
Q 1328 3103 1125 2947 
Q 922 2791 872 2484 
L 575 2484 
L 575 3156 
Q 875 3284 1158 3348 
Q 1441 3413 1709 3413 
Q 2400 3413 2761 3070 
Q 3122 2728 3122 2075 
z
" transform="scale(0.015625)"/>
      <path id="DejaVuSerif-73" d="M 359 184 
L 359 959 
L 691 959 
Q 703 588 923 403 
Q 1144 219 1575 219 
Q 1963 219 2166 364 
Q 2369 509 2369 788 
Q 2369 1006 2220 1140 
Q 2072 1275 1594 1428 
L 1178 1569 
Q 750 1706 558 1912 
Q 366 2119 366 2438 
Q 366 2894 700 3153 
Q 1034 3413 1625 3413 
Q 1888 3413 2178 3344 
Q 2469 3275 2778 3144 
L 2778 2419 
L 2447 2419 
Q 2434 2741 2221 2922 
Q 2009 3103 1644 3103 
Q 1281 3103 1095 2975 
Q 909 2847 909 2591 
Q 909 2381 1050 2254 
Q 1191 2128 1613 1997 
L 2069 1856 
Q 2541 1709 2748 1489 
Q 2956 1269 2956 922 
Q 2956 450 2595 179 
Q 2234 -91 1600 -91 
Q 1278 -91 972 -22 
Q 666 47 359 184 
z
" transform="scale(0.015625)"/>
     </defs>
     <use xlink:href="#DejaVuSerif-55"/>
     <use xlink:href="#DejaVuSerif-6e" transform="translate(84.277344 0)"/>
     <use xlink:href="#DejaVuSerif-69" transform="translate(148.681641 0)"/>
     <use xlink:href="#DejaVuSerif-74" transform="translate(180.664062 0)"/>
     <use xlink:href="#DejaVuSerif-65" transform="translate(220.849609 0)"/>
     <use xlink:href="#DejaVuSerif-64" transform="translate(280.029297 0)"/>
     <use xlink:href="#DejaVuSerif-20" transform="translate(344.042969 0)"/>
     <use xlink:href="#DejaVuSerif-53" transform="translate(375.830078 0)"/>
     <use xlink:href="#DejaVuSerif-74" transform="translate(444.335938 0)"/>
     <use xlink:href="#DejaVuSerif-61" transform="translate(484.521484 0)"/>
     <use xlink:href="#DejaVuSerif-74" transform="translate(544.140625 0)"/>
     <use xlink:href="#DejaVuSerif-65" transform="translate(584.326172 0)"/>
     <use xlink:href="#DejaVuSerif-73" transform="translate(643.505859 0)"/>
    </g>
   </g>
  </g>
  <g id="axes_2">
   <g id="patch_42">
    <path d="M 52.382813 303.093498 
L 446.4 303.093498 
L 446.4 182.159063 
L 52.382813 182.159063 
z
" style="fill: #ffffff"/>
   </g>
   <g id="patch_43">
    <path d="M 70.292685 303.093498 
L 70.470473 303.093498 
L 70.470473 182.159063 
L 70.292685 182.159063 
z
" clip-path="url(#p5932203b83)" style="fill: #d3d3d3"/>
   </g>
   <g id="patch_44">
    <path d="M 75.700889 303.093498 
L 78.849461 303.093498 
L 78.849461 182.159063 
L 75.700889 182.159063 
z
" clip-path="url(#p5932203b83)" style="fill: #d3d3d3"/>
   </g>
   <g id="patch_45">
    <path d="M 82.691981 303.093498 
L 84.079877 303.093498 
L 84.079877 182.159063 
L 82.691981 182.159063 
z
" clip-path="url(#p5932203b83)" style="fill: #d3d3d3"/>
   </g>
   <g id="patch_46">
    <path d="M 92.109023 303.093498 
L 97.700751 303.093498 
L 97.700751 182.159063 
L 92.109023 182.159063 
z
" clip-path="url(#p5932203b83)" style="fill: #d3d3d3"/>
   </g>
   <g id="patch_47">
    <path d="M 100.837853 303.093498 
L 103.986426 303.093498 
L 103.986426 182.159063 
L 100.837853 182.159063 
z
" clip-path="url(#p5932203b83)" style="fill: #d3d3d3"/>
   </g>
   <g id="patch_48">
    <path d="M 109.922259 303.093498 
L 121.260561 303.093498 
L 121.260561 182.159063 
L 109.922259 182.159063 
z
" clip-path="url(#p5932203b83)" style="fill: #d3d3d3"/>
   </g>
   <g id="patch_49">
    <path d="M 127.546236 303.093498 
L 134.181753 303.093498 
L 134.181753 182.159063 
L 127.546236 182.159063 
z
" clip-path="url(#p5932203b83)" style="fill: #d3d3d3"/>
   </g>
   <g id="patch_50">
    <path d="M 138.018538 303.093498 
L 140.289639 303.093498 
L 140.289639 182.159063 
L 138.018538 182.159063 
z
" clip-path="url(#p5932203b83)" style="fill: #d3d3d3"/>
   </g>
   <g id="patch_51">
    <path d="M 145.003895 303.093498 
L 146.747367 303.093498 
L 146.747367 182.159063 
L 145.003895 182.159063 
z
" clip-path="url(#p5932203b83)" style="fill: #d3d3d3"/>
   </g>
   <g id="patch_52">
    <path d="M 150.251516 303.093498 
L 153.205095 303.093498 
L 153.205095 182.159063 
L 150.251516 182.159063 
z
" clip-path="url(#p5932203b83)" style="fill: #d3d3d3"/>
   </g>
   <g id="patch_53">
    <path d="M 156.353668 303.093498 
L 159.49077 303.093498 
L 159.49077 182.159063 
L 156.353668 182.159063 
z
" clip-path="url(#p5932203b83)" style="fill: #d3d3d3"/>
   </g>
   <g id="patch_54">
    <path d="M 163.677397 303.093498 
L 166.825969 303.093498 
L 166.825969 182.159063 
L 163.677397 182.159063 
z
" clip-path="url(#p5932203b83)" style="fill: #d3d3d3"/>
   </g>
   <g id="patch_55">
    <path d="M 170.484966 303.093498 
L 174.505275 303.093498 
L 174.505275 182.159063 
L 170.484966 182.159063 
z
" clip-path="url(#p5932203b83)" style="fill: #d3d3d3"/>
   </g>
   <g id="patch_56">
    <path d="M 180.257585 303.093498 
L 182.528686 303.093498 
L 182.528686 182.159063 
L 180.257585 182.159063 
z
" clip-path="url(#p5932203b83)" style="fill: #d3d3d3"/>
   </g>
   <g id="patch_57">
    <path d="M 185.855047 303.093498 
L 190.041674 303.093498 
L 190.041674 182.159063 
L 185.855047 182.159063 
z
" clip-path="url(#p5932203b83)" style="fill: #d3d3d3"/>
   </g>
   <g id="patch_58">
    <path d="M 192.140722 303.093498 
L 196.14956 303.093498 
L 196.14956 182.159063 
L 192.140722 182.159063 
z
" clip-path="url(#p5932203b83)" style="fill: #d3d3d3"/>
   </g>
   <g id="patch_59">
    <path d="M 203.828866 303.093498 
L 205.044708 303.093498 
L 205.044708 182.159063 
L 203.828866 182.159063 
z
" clip-path="url(#p5932203b83)" style="fill: #d3d3d3"/>
   </g>
   <g id="patch_60">
    <path d="M 206.79965 303.093498 
L 209.936752 303.093498 
L 209.936752 182.159063 
L 206.79965 182.159063 
z
" clip-path="url(#p5932203b83)" style="fill: #d3d3d3"/>
   </g>
   <g id="patch_61">
    <path d="M 213.773538 303.093498 
L 216.222427 303.093498 
L 216.222427 182.159063 
L 213.773538 182.159063 
z
" clip-path="url(#p5932203b83)" style="fill: #d3d3d3"/>
   </g>
   <g id="patch_62">
    <path d="M 220.936684 303.093498 
L 223.20205 303.093498 
L 223.20205 182.159063 
L 220.936684 182.159063 
z
" clip-path="url(#p5932203b83)" style="fill: #d3d3d3"/>
   </g>
   <g id="patch_63">
    <path d="M 226.872517 303.093498 
L 234.374034 303.093498 
L 234.374034 182.159063 
L 226.872517 182.159063 
z
" clip-path="url(#p5932203b83)" style="fill: #d3d3d3"/>
   </g>
   <g id="patch_64">
    <path d="M 243.102864 303.093498 
L 245.36823 303.093498 
L 245.36823 182.159063 
L 243.102864 182.159063 
z
" clip-path="url(#p5932203b83)" style="fill: #d3d3d3"/>
   </g>
   <g id="patch_65">
    <path d="M 259.33321 303.093498 
L 260.738311 303.093498 
L 260.738311 182.159063 
L 259.33321 182.159063 
z
" clip-path="url(#p5932203b83)" style="fill: #d3d3d3"/>
   </g>
   <g id="patch_66">
    <path d="M 267.196039 303.093498 
L 269.117299 303.093498 
L 269.117299 182.159063 
L 267.196039 182.159063 
z
" clip-path="url(#p5932203b83)" style="fill: #d3d3d3"/>
   </g>
   <g id="patch_67">
    <path d="M 276.968658 303.093498 
L 278.71213 303.093498 
L 278.71213 182.159063 
L 276.968658 182.159063 
z
" clip-path="url(#p5932203b83)" style="fill: #d3d3d3"/>
   </g>
   <g id="patch_68">
    <path d="M 285.525434 303.093498 
L 286.91333 303.093498 
L 286.91333 182.159063 
L 285.525434 182.159063 
z
" clip-path="url(#p5932203b83)" style="fill: #d3d3d3"/>
   </g>
   <g id="patch_69">
    <path d="M 291.105691 303.093498 
L 292.849163 303.093498 
L 292.849163 182.159063 
L 291.105691 182.159063 
z
" clip-path="url(#p5932203b83)" style="fill: #d3d3d3"/>
   </g>
   <g id="patch_70">
    <path d="M 311.362082 303.093498 
L 313.277607 303.093498 
L 313.277607 182.159063 
L 311.362082 182.159063 
z
" clip-path="url(#p5932203b83)" style="fill: #d3d3d3"/>
   </g>
   <g id="patch_71">
    <path d="M 319.563282 303.093498 
L 322.350543 303.093498 
L 322.350543 182.159063 
L 319.563282 182.159063 
z
" clip-path="url(#p5932203b83)" style="fill: #d3d3d3"/>
   </g>
   <g id="patch_72">
    <path d="M 332.484473 303.093498 
L 333.528262 303.093498 
L 333.528262 182.159063 
L 332.484473 182.159063 
z
" clip-path="url(#p5932203b83)" style="fill: #d3d3d3"/>
   </g>
   <g id="patch_73">
    <path d="M 335.621575 303.093498 
L 338.414571 303.093498 
L 338.414571 182.159063 
L 335.621575 182.159063 
z
" clip-path="url(#p5932203b83)" style="fill: #d3d3d3"/>
   </g>
   <g id="patch_74">
    <path d="M 354.472865 303.093498 
L 355.866495 303.093498 
L 355.866495 182.159063 
L 354.472865 182.159063 
z
" clip-path="url(#p5932203b83)" style="fill: #d3d3d3"/>
   </g>
   <g id="patch_75">
    <path d="M 376.816833 303.093498 
L 378.216199 303.093498 
L 378.216199 182.159063 
L 376.816833 182.159063 
z
" clip-path="url(#p5932203b83)" style="fill: #d3d3d3"/>
   </g>
   <g id="patch_76">
    <path d="M 390.959602 303.093498 
L 394.096704 303.093498 
L 394.096704 182.159063 
L 390.959602 182.159063 
z
" clip-path="url(#p5932203b83)" style="fill: #d3d3d3"/>
   </g>
   <g id="patch_77">
    <path d="M 416.440673 303.093498 
L 416.790514 303.093498 
L 416.790514 182.159063 
L 416.440673 182.159063 
z
" clip-path="url(#p5932203b83)" style="fill: #d3d3d3"/>
   </g>
   <g id="matplotlib.axis_3">
    <g id="xtick_10">
     <g id="line2d_32">
      <path d="M 80.942774 303.093498 
L 80.942774 182.159063 
" clip-path="url(#p5932203b83)" style="fill: none; stroke: #b0b0b0; stroke-width: 0.8; stroke-linecap: square"/>
     </g>
     <g id="line2d_33">
      <g>
       <use xlink:href="#m874b69d02f" x="80.942774" y="303.093498" style="stroke: #000000; stroke-width: 0.8"/>
      </g>
     </g>
     <g id="text_18">
      <!-- 1860 -->
      <g transform="translate(57.862584 329.398938) rotate(-30) scale(0.1 -0.1)">
       <use xlink:href="#DejaVuSerif-31"/>
       <use xlink:href="#DejaVuSerif-38" transform="translate(63.623047 0)"/>
       <use xlink:href="#DejaVuSerif-36" transform="translate(127.246094 0)"/>
       <use xlink:href="#DejaVuSerif-30" transform="translate(190.869141 0)"/>
      </g>
     </g>
    </g>
    <g id="xtick_11">
     <g id="line2d_34">
      <path d="M 122.837715 303.093498 
L 122.837715 182.159063 
" clip-path="url(#p5932203b83)" style="fill: none; stroke: #b0b0b0; stroke-width: 0.8; stroke-linecap: square"/>
     </g>
     <g id="line2d_35">
      <g>
       <use xlink:href="#m874b69d02f" x="122.837715" y="303.093498" style="stroke: #000000; stroke-width: 0.8"/>
      </g>
     </g>
     <g id="text_19">
      <!-- 1880 -->
      <g transform="translate(99.757525 329.398938) rotate(-30) scale(0.1 -0.1)">
       <use xlink:href="#DejaVuSerif-31"/>
       <use xlink:href="#DejaVuSerif-38" transform="translate(63.623047 0)"/>
       <use xlink:href="#DejaVuSerif-38" transform="translate(127.246094 0)"/>
       <use xlink:href="#DejaVuSerif-30" transform="translate(190.869141 0)"/>
      </g>
     </g>
    </g>
    <g id="xtick_12">
     <g id="line2d_36">
      <path d="M 164.732656 303.093498 
L 164.732656 182.159063 
" clip-path="url(#p5932203b83)" style="fill: none; stroke: #b0b0b0; stroke-width: 0.8; stroke-linecap: square"/>
     </g>
     <g id="line2d_37">
      <g>
       <use xlink:href="#m874b69d02f" x="164.732656" y="303.093498" style="stroke: #000000; stroke-width: 0.8"/>
      </g>
     </g>
     <g id="text_20">
      <!-- 1900 -->
      <g transform="translate(141.652466 329.398938) rotate(-30) scale(0.1 -0.1)">
       <use xlink:href="#DejaVuSerif-31"/>
       <use xlink:href="#DejaVuSerif-39" transform="translate(63.623047 0)"/>
       <use xlink:href="#DejaVuSerif-30" transform="translate(127.246094 0)"/>
       <use xlink:href="#DejaVuSerif-30" transform="translate(190.869141 0)"/>
      </g>
     </g>
    </g>
    <g id="xtick_13">
     <g id="line2d_38">
      <path d="M 206.621862 303.093498 
L 206.621862 182.159063 
" clip-path="url(#p5932203b83)" style="fill: none; stroke: #b0b0b0; stroke-width: 0.8; stroke-linecap: square"/>
     </g>
     <g id="line2d_39">
      <g>
       <use xlink:href="#m874b69d02f" x="206.621862" y="303.093498" style="stroke: #000000; stroke-width: 0.8"/>
      </g>
     </g>
     <g id="text_21">
      <!-- 1920 -->
      <g transform="translate(183.541672 329.398938) rotate(-30) scale(0.1 -0.1)">
       <use xlink:href="#DejaVuSerif-31"/>
       <use xlink:href="#DejaVuSerif-39" transform="translate(63.623047 0)"/>
       <use xlink:href="#DejaVuSerif-32" transform="translate(127.246094 0)"/>
       <use xlink:href="#DejaVuSerif-30" transform="translate(190.869141 0)"/>
      </g>
     </g>
    </g>
    <g id="xtick_14">
     <g id="line2d_40">
      <path d="M 248.516803 303.093498 
L 248.516803 182.159063 
" clip-path="url(#p5932203b83)" style="fill: none; stroke: #b0b0b0; stroke-width: 0.8; stroke-linecap: square"/>
     </g>
     <g id="line2d_41">
      <g>
       <use xlink:href="#m874b69d02f" x="248.516803" y="303.093498" style="stroke: #000000; stroke-width: 0.8"/>
      </g>
     </g>
     <g id="text_22">
      <!-- 1940 -->
      <g transform="translate(225.436612 329.398938) rotate(-30) scale(0.1 -0.1)">
       <use xlink:href="#DejaVuSerif-31"/>
       <use xlink:href="#DejaVuSerif-39" transform="translate(63.623047 0)"/>
       <use xlink:href="#DejaVuSerif-34" transform="translate(127.246094 0)"/>
       <use xlink:href="#DejaVuSerif-30" transform="translate(190.869141 0)"/>
      </g>
     </g>
    </g>
    <g id="xtick_15">
     <g id="line2d_42">
      <path d="M 290.411744 303.093498 
L 290.411744 182.159063 
" clip-path="url(#p5932203b83)" style="fill: none; stroke: #b0b0b0; stroke-width: 0.8; stroke-linecap: square"/>
     </g>
     <g id="line2d_43">
      <g>
       <use xlink:href="#m874b69d02f" x="290.411744" y="303.093498" style="stroke: #000000; stroke-width: 0.8"/>
      </g>
     </g>
     <g id="text_23">
      <!-- 1960 -->
      <g transform="translate(267.331553 329.398938) rotate(-30) scale(0.1 -0.1)">
       <use xlink:href="#DejaVuSerif-31"/>
       <use xlink:href="#DejaVuSerif-39" transform="translate(63.623047 0)"/>
       <use xlink:href="#DejaVuSerif-36" transform="translate(127.246094 0)"/>
       <use xlink:href="#DejaVuSerif-30" transform="translate(190.869141 0)"/>
      </g>
     </g>
    </g>
    <g id="xtick_16">
     <g id="line2d_44">
      <path d="M 332.306685 303.093498 
L 332.306685 182.159063 
" clip-path="url(#p5932203b83)" style="fill: none; stroke: #b0b0b0; stroke-width: 0.8; stroke-linecap: square"/>
     </g>
     <g id="line2d_45">
      <g>
       <use xlink:href="#m874b69d02f" x="332.306685" y="303.093498" style="stroke: #000000; stroke-width: 0.8"/>
      </g>
     </g>
     <g id="text_24">
      <!-- 1980 -->
      <g transform="translate(309.226494 329.398938) rotate(-30) scale(0.1 -0.1)">
       <use xlink:href="#DejaVuSerif-31"/>
       <use xlink:href="#DejaVuSerif-39" transform="translate(63.623047 0)"/>
       <use xlink:href="#DejaVuSerif-38" transform="translate(127.246094 0)"/>
       <use xlink:href="#DejaVuSerif-30" transform="translate(190.869141 0)"/>
      </g>
     </g>
    </g>
    <g id="xtick_17">
     <g id="line2d_46">
      <path d="M 374.201625 303.093498 
L 374.201625 182.159063 
" clip-path="url(#p5932203b83)" style="fill: none; stroke: #b0b0b0; stroke-width: 0.8; stroke-linecap: square"/>
     </g>
     <g id="line2d_47">
      <g>
       <use xlink:href="#m874b69d02f" x="374.201625" y="303.093498" style="stroke: #000000; stroke-width: 0.8"/>
      </g>
     </g>
     <g id="text_25">
      <!-- 2000 -->
      <g transform="translate(351.121435 329.398938) rotate(-30) scale(0.1 -0.1)">
       <use xlink:href="#DejaVuSerif-32"/>
       <use xlink:href="#DejaVuSerif-30" transform="translate(63.623047 0)"/>
       <use xlink:href="#DejaVuSerif-30" transform="translate(127.246094 0)"/>
       <use xlink:href="#DejaVuSerif-30" transform="translate(190.869141 0)"/>
      </g>
     </g>
    </g>
    <g id="xtick_18">
     <g id="line2d_48">
      <path d="M 416.096566 303.093498 
L 416.096566 182.159063 
" clip-path="url(#p5932203b83)" style="fill: none; stroke: #b0b0b0; stroke-width: 0.8; stroke-linecap: square"/>
     </g>
     <g id="line2d_49">
      <g>
       <use xlink:href="#m874b69d02f" x="416.096566" y="303.093498" style="stroke: #000000; stroke-width: 0.8"/>
      </g>
     </g>
     <g id="text_26">
      <!-- 2020 -->
      <g transform="translate(393.016376 329.398938) rotate(-30) scale(0.1 -0.1)">
       <use xlink:href="#DejaVuSerif-32"/>
       <use xlink:href="#DejaVuSerif-30" transform="translate(63.623047 0)"/>
       <use xlink:href="#DejaVuSerif-32" transform="translate(127.246094 0)"/>
       <use xlink:href="#DejaVuSerif-30" transform="translate(190.869141 0)"/>
      </g>
     </g>
    </g>
   </g>
   <g id="matplotlib.axis_4">
    <g id="ytick_7">
     <g id="line2d_50">
      <path d="M 52.382813 297.681542 
L 446.4 297.681542 
" clip-path="url(#p5932203b83)" style="fill: none; stroke-dasharray: 2.96,1.28; stroke-dashoffset: 0; stroke: #b0b0b0; stroke-width: 0.8"/>
     </g>
     <g id="line2d_51">
      <g>
       <use xlink:href="#me9f78fb1ba" x="52.382813" y="297.681542" style="stroke: #000000; stroke-width: 0.8"/>
      </g>
     </g>
     <g id="text_27">
      <!-- −0.3 -->
      <g transform="translate(21.1 301.480761) scale(0.1 -0.1)">
       <defs>
        <path id="DejaVuSerif-2212" d="M 678 2259 
L 4684 2259 
L 4684 1753 
L 678 1753 
L 678 2259 
z
" transform="scale(0.015625)"/>
        <path id="DejaVuSerif-33" d="M 622 4469 
Q 988 4606 1323 4678 
Q 1659 4750 1953 4750 
Q 2638 4750 3022 4454 
Q 3406 4159 3406 3634 
Q 3406 3213 3140 2930 
Q 2875 2647 2388 2547 
Q 2963 2466 3280 2130 
Q 3597 1794 3597 1259 
Q 3597 606 3158 257 
Q 2719 -91 1894 -91 
Q 1528 -91 1179 -12 
Q 831 66 488 225 
L 488 1131 
L 838 1131 
Q 869 681 1141 450 
Q 1413 219 1906 219 
Q 2384 219 2661 495 
Q 2938 772 2938 1253 
Q 2938 1803 2653 2086 
Q 2369 2369 1819 2369 
L 1522 2369 
L 1522 2688 
L 1678 2688 
Q 2225 2688 2498 2914 
Q 2772 3141 2772 3597 
Q 2772 4006 2547 4223 
Q 2322 4441 1900 4441 
Q 1478 4441 1245 4241 
Q 1013 4041 972 3647 
L 622 3647 
L 622 4469 
z
" transform="scale(0.015625)"/>
       </defs>
       <use xlink:href="#DejaVuSerif-2212"/>
       <use xlink:href="#DejaVuSerif-30" transform="translate(83.789062 0)"/>
       <use xlink:href="#DejaVuSerif-2e" transform="translate(147.412109 0)"/>
       <use xlink:href="#DejaVuSerif-33" transform="translate(179.199219 0)"/>
      </g>
     </g>
    </g>
    <g id="ytick_8">
     <g id="line2d_52">
      <path d="M 52.382813 270.424785 
L 446.4 270.424785 
" clip-path="url(#p5932203b83)" style="fill: none; stroke-dasharray: 2.96,1.28; stroke-dashoffset: 0; stroke: #b0b0b0; stroke-width: 0.8"/>
     </g>
     <g id="line2d_53">
      <g>
       <use xlink:href="#me9f78fb1ba" x="52.382813" y="270.424785" style="stroke: #000000; stroke-width: 0.8"/>
      </g>
     </g>
     <g id="text_28">
      <!-- −0.2 -->
      <g transform="translate(21.1 274.224004) scale(0.1 -0.1)">
       <use xlink:href="#DejaVuSerif-2212"/>
       <use xlink:href="#DejaVuSerif-30" transform="translate(83.789062 0)"/>
       <use xlink:href="#DejaVuSerif-2e" transform="translate(147.412109 0)"/>
       <use xlink:href="#DejaVuSerif-32" transform="translate(179.199219 0)"/>
      </g>
     </g>
    </g>
    <g id="ytick_9">
     <g id="line2d_54">
      <path d="M 52.382813 243.168028 
L 446.4 243.168028 
" clip-path="url(#p5932203b83)" style="fill: none; stroke-dasharray: 2.96,1.28; stroke-dashoffset: 0; stroke: #b0b0b0; stroke-width: 0.8"/>
     </g>
     <g id="line2d_55">
      <g>
       <use xlink:href="#me9f78fb1ba" x="52.382813" y="243.168028" style="stroke: #000000; stroke-width: 0.8"/>
      </g>
     </g>
     <g id="text_29">
      <!-- −0.1 -->
      <g transform="translate(21.1 246.967247) scale(0.1 -0.1)">
       <use xlink:href="#DejaVuSerif-2212"/>
       <use xlink:href="#DejaVuSerif-30" transform="translate(83.789062 0)"/>
       <use xlink:href="#DejaVuSerif-2e" transform="translate(147.412109 0)"/>
       <use xlink:href="#DejaVuSerif-31" transform="translate(179.199219 0)"/>
      </g>
     </g>
    </g>
    <g id="ytick_10">
     <g id="line2d_56">
      <path d="M 52.382813 215.911271 
L 446.4 215.911271 
" clip-path="url(#p5932203b83)" style="fill: none; stroke-dasharray: 2.96,1.28; stroke-dashoffset: 0; stroke: #b0b0b0; stroke-width: 0.8"/>
     </g>
     <g id="line2d_57">
      <g>
       <use xlink:href="#me9f78fb1ba" x="52.382813" y="215.911271" style="stroke: #000000; stroke-width: 0.8"/>
      </g>
     </g>
     <g id="text_30">
      <!-- 0.0 -->
      <g transform="translate(29.479688 219.71049) scale(0.1 -0.1)">
       <use xlink:href="#DejaVuSerif-30"/>
       <use xlink:href="#DejaVuSerif-2e" transform="translate(63.623047 0)"/>
       <use xlink:href="#DejaVuSerif-30" transform="translate(95.410156 0)"/>
      </g>
     </g>
    </g>
    <g id="ytick_11">
     <g id="line2d_58">
      <path d="M 52.382813 188.654515 
L 446.4 188.654515 
" clip-path="url(#p5932203b83)" style="fill: none; stroke-dasharray: 2.96,1.28; stroke-dashoffset: 0; stroke: #b0b0b0; stroke-width: 0.8"/>
     </g>
     <g id="line2d_59">
      <g>
       <use xlink:href="#me9f78fb1ba" x="52.382813" y="188.654515" style="stroke: #000000; stroke-width: 0.8"/>
      </g>
     </g>
     <g id="text_31">
      <!-- 0.1 -->
      <g transform="translate(29.479688 192.453733) scale(0.1 -0.1)">
       <use xlink:href="#DejaVuSerif-30"/>
       <use xlink:href="#DejaVuSerif-2e" transform="translate(63.623047 0)"/>
       <use xlink:href="#DejaVuSerif-31" transform="translate(95.410156 0)"/>
      </g>
     </g>
    </g>
    <g id="text_32">
     <!-- $\Delta\log v_t$ -->
     <g transform="translate(14.8 259.22628) rotate(-90) scale(0.1 -0.1)">
      <defs>
       <path id="DejaVuSerif-394" d="M 4350 0 
L 244 0 
L 2034 4666 
L 2559 4666 
L 4350 0 
z
M 3506 331 
L 2138 3909 
L 763 331 
L 3506 331 
z
" transform="scale(0.015625)"/>
       <path id="DejaVuSerif-6c" d="M 1313 331 
L 1856 331 
L 1856 0 
L 184 0 
L 184 331 
L 738 331 
L 738 4531 
L 184 4531 
L 184 4863 
L 1313 4863 
L 1313 331 
z
" transform="scale(0.015625)"/>
       <path id="DejaVuSerif-Italic-76" d="M 1681 0 
L 1259 0 
L 619 2988 
L 241 2988 
L 303 3322 
L 1163 3322 
L 1725 703 
Q 2084 1016 2325 1413 
Q 2825 2238 3003 2988 
L 2622 2988 
L 2688 3322 
L 3547 3322 
Q 3206 2034 2775 1313 
Q 2400 688 1681 0 
z
" transform="scale(0.015625)"/>
      </defs>
      <use xlink:href="#DejaVuSerif-394" transform="translate(0 0.015625)"/>
      <use xlink:href="#DejaVuSerif-6c" transform="translate(72.216797 0.015625)"/>
      <use xlink:href="#DejaVuSerif-6f" transform="translate(104.199219 0.015625)"/>
      <use xlink:href="#DejaVuSerif-67" transform="translate(164.404297 0.015625)"/>
      <use xlink:href="#DejaVuSerif-Italic-76" transform="translate(244.222321 0.015625)"/>
      <use xlink:href="#DejaVuSerif-Italic-74" transform="translate(300.716462 -15.55625) scale(0.7)"/>
     </g>
    </g>
   </g>
   <g id="line2d_60">
    <path d="M 290.933638 209.841377 
L 291.105691 210.254387 
L 291.633321 222.356483 
L 291.983162 222.39397 
L 292.160951 222.588706 
L 292.333004 223.557311 
L 292.849163 234.751425 
L 293.376793 225.298765 
L 293.726634 225.276925 
L 293.904422 225.131006 
L 294.426317 223.084923 
L 294.604105 222.477774 
L 294.781894 222.288053 
L 294.942476 222.391013 
L 295.470106 223.52778 
L 295.997736 224.887701 
L 296.169789 225.2063 
L 296.51963 225.310307 
L 298.612944 225.29591 
L 299.662468 225.189646 
L 300.711992 225.255237 
L 301.067568 225.059878 
L 301.228151 224.772788 
L 301.40594 224.11145 
L 301.755781 221.075406 
L 302.455464 210.433127 
L 302.633252 209.728185 
L 302.983093 209.480756 
L 304.548777 209.46357 
L 304.898618 209.523325 
L 305.076407 209.946242 
L 305.254195 211.045019 
L 305.592566 216.427688 
L 305.942408 223.085367 
L 306.114461 224.590155 
L 306.292249 225.130071 
L 306.64209 225.30393 
L 306.991932 225.212389 
L 307.16972 224.422909 
L 307.347508 222.39918 
L 307.863668 210.37681 
L 308.041456 209.686811 
L 308.391297 209.479167 
L 310.662399 209.459012 
L 311.184293 209.458854 
L 311.362082 210.12022 
L 311.878241 222.355887 
L 312.755712 222.451769 
L 312.927765 223.076564 
L 313.105554 224.698085 
L 313.277607 227.586488 
L 313.455395 226.808426 
L 313.633183 228.283027 
L 313.793766 225.284919 
L 314.493449 225.318424 
L 318.335969 225.257901 
L 318.513757 225.173021 
L 318.685811 224.956126 
L 318.863599 224.327803 
L 319.041387 222.908412 
L 319.563282 214.688743 
L 320.079441 222.470205 
L 320.429282 222.360867 
L 322.172754 222.356295 
L 322.350543 221.695302 
L 322.872437 209.46725 
L 324.449591 209.579464 
L 324.621644 209.793233 
L 324.799432 210.330539 
L 325.327062 216.961146 
L 325.676903 221.815563 
L 326.026745 223.674306 
L 326.204533 223.787182 
L 326.365116 223.615143 
L 326.892746 221.225656 
L 327.242587 218.960921 
L 327.94227 216.494249 
L 328.120058 215.980719 
L 328.297846 215.013177 
L 328.808271 210.129679 
L 329.158112 209.562866 
L 329.685742 209.464778 
L 331.079372 209.542581 
L 332.128896 209.580033 
L 332.306685 209.531873 
L 332.484473 210.159032 
L 332.828579 218.527885 
L 333.000632 222.357319 
L 333.350474 222.358179 
L 333.528262 221.698083 
L 334.055891 209.494359 
L 335.443787 209.470328 
L 335.621575 210.131335 
L 336.149205 222.917188 
L 336.321258 224.726445 
L 336.499046 232.717371 
L 336.837417 236.441217 
L 337.365047 237.725005 
L 337.714888 238.133875 
L 338.242518 238.105925 
L 338.414571 237.414062 
L 338.930731 225.146631 
L 339.108519 224.754199 
L 339.280572 223.787092 
L 339.45836 221.412675 
L 339.808202 212.298194 
L 340.158043 209.634051 
L 340.507884 209.471704 
L 341.207567 209.483349 
L 341.37962 209.572476 
L 341.557409 209.918715 
L 341.90725 212.929943 
L 342.784721 224.786407 
L 343.123092 225.184636 
L 343.650722 225.20259 
L 344.878034 224.936609 
L 346.271665 225.316027 
L 347.149136 225.294564 
L 347.309719 225.173168 
L 347.487507 224.618673 
L 347.65956 223.440982 
L 348.009402 217.862615 
L 348.537031 210.365082 
L 348.886873 209.524199 
L 349.408767 209.468917 
L 354.295076 209.460816 
L 354.472865 210.121641 
L 355.000494 222.356 
L 355.688707 222.35637 
L 355.866495 221.695409 
L 356.38839 209.465286 
L 363.907112 209.476358 
L 364.067695 209.563776 
L 364.245483 210.070124 
L 364.417537 211.453198 
L 365.295008 223.959934 
L 365.644849 224.945481 
L 366.000425 225.178491 
L 366.344532 225.127376 
L 367.222003 224.850609 
L 368.099474 225.130471 
L 368.95974 225.285228 
L 370.531158 225.31732 
L 376.639045 225.317682 
L 376.816833 225.979474 
L 377.338728 238.213503 
L 378.044146 238.215365 
L 378.216199 237.554246 
L 378.732358 225.318372 
L 381.175513 225.278819 
L 381.353301 225.184277 
L 381.525354 224.71483 
L 381.703143 223.359739 
L 381.880931 220.108688 
L 382.230772 210.560141 
L 382.402825 209.621737 
L 382.758402 209.467888 
L 385.367875 209.484648 
L 385.545663 209.550233 
L 385.717716 209.803187 
L 385.895504 210.675324 
L 386.073292 212.661979 
L 386.595187 221.64672 
L 386.950763 224.465346 
L 387.289135 225.196262 
L 387.638976 225.303755 
L 389.382448 225.318416 
L 390.781813 225.318672 
L 390.959602 225.979809 
L 391.481496 238.215893 
L 393.924651 238.214688 
L 394.096704 237.549471 
L 395.151963 209.583417 
L 395.490335 209.45878 
L 400.560167 209.531786 
L 400.737956 209.642598 
L 401.087797 210.245211 
L 401.437638 211.068163 
L 401.776009 211.41607 
L 401.953798 211.45159 
L 402.125851 211.360061 
L 402.475692 210.730184 
L 403.003322 209.827353 
L 403.353163 209.631732 
L 404.569006 209.863556 
L 404.746794 210.073788 
L 404.924582 210.531614 
L 405.274423 213.198614 
L 406.140424 220.559682 
L 406.840107 224.883234 
L 407.189948 225.200094 
L 407.717578 225.192482 
L 408.239473 225.026541 
L 408.411526 224.867384 
L 408.589314 224.505326 
L 408.939155 222.1374 
L 409.816626 210.658009 
L 410.154998 209.749664 
L 410.682627 209.532284 
L 411.90994 209.48291 
L 413.30357 209.480207 
L 413.475623 209.549551 
L 413.653412 209.742137 
L 413.825465 210.332046 
L 414.181041 213.283126 
L 415.041307 223.001975 
L 415.396883 224.910756 
L 415.746725 225.291812 
L 416.274355 225.317741 
L 416.440673 225.979654 
L 416.790514 233.723121 
L 416.968302 232.498517 
L 417.318144 225.318748 
L 418.533986 225.311459 
L 418.711774 210.252079 
L 418.883827 209.463836 
L 422.720612 209.458517 
L 427.612657 209.504808 
L 427.968233 209.766907 
L 428.318075 210.13434 
L 428.490128 210.561436 
L 428.490128 210.561436 
" clip-path="url(#p5932203b83)" style="fill: none; stroke: #1f77b4; stroke-width: 1.5; stroke-linecap: square"/>
   </g>
   <g id="line2d_61">
    <path d="M 290.933638 215.545758 
L 291.105691 214.315127 
L 291.455533 213.562554 
L 291.811109 216.344121 
L 291.983162 222.227259 
L 292.333004 223.740365 
L 292.510792 229.742295 
L 292.849163 232.659101 
L 293.026951 227.53751 
L 293.376793 229.7305 
L 293.548846 225.745227 
L 293.726634 224.985931 
L 293.904422 225.206962 
L 294.076476 216.675908 
L 294.426317 217.530215 
L 294.604105 213.848176 
L 294.781894 213.904335 
L 294.942476 214.79213 
L 295.120265 217.601008 
L 295.470106 216.573465 
L 295.642159 218.526127 
L 295.819948 218.311959 
L 295.997736 218.407507 
L 296.169789 223.670225 
L 296.347577 223.970004 
L 296.51963 224.799043 
L 296.697419 227.236058 
L 297.03579 226.532852 
L 297.213578 225.885665 
L 297.563419 226.679156 
L 297.735473 224.886159 
L 297.913261 225.372648 
L 298.091049 225.489803 
L 298.263102 222.853678 
L 298.44089 223.274389 
L 298.612944 222.254903 
L 298.790732 219.482484 
L 298.96852 219.167893 
L 299.312626 217.844735 
L 299.48468 217.672618 
L 299.662468 217.918017 
L 299.834521 219.192061 
L 300.190097 219.946155 
L 300.362151 221.83086 
L 300.539939 221.371456 
L 300.711992 221.874284 
L 300.88978 220.875671 
L 301.228151 221.258452 
L 301.577993 219.338029 
L 301.755781 219.346051 
L 301.927834 217.429599 
L 302.105622 217.121065 
L 302.283411 217.217764 
L 302.455464 211.587008 
L 302.633252 211.413711 
L 302.805305 211.653982 
L 303.160882 210.343259 
L 303.321465 210.260025 
L 303.499253 212.047646 
L 303.671306 211.681941 
L 303.849094 210.533406 
L 304.021147 211.040748 
L 304.376724 208.94295 
L 304.548777 209.833862 
L 304.726565 208.215366 
L 304.898618 207.898279 
L 305.076407 212.967669 
L 305.942408 220.46242 
L 306.292249 223.609738 
L 306.470037 224.292588 
L 306.819879 227.420265 
L 306.991932 227.541692 
L 307.16972 221.79587 
L 307.513826 219.265479 
L 307.691615 213.079294 
L 308.041456 210.846828 
L 308.213509 211.122279 
L 308.391297 211.037132 
L 308.569086 211.202577 
L 309.09098 213.450317 
L 309.268768 214.019746 
L 309.60714 212.12559 
L 309.784928 214.491992 
L 310.134769 211.569671 
L 310.484611 204.218952 
L 310.662399 202.260164 
L 310.834452 202.778807 
L 311.01224 202.144344 
L 311.184293 200.728384 
L 311.362082 204.131236 
L 311.53987 202.35215 
L 311.700453 202.657017 
L 312.228082 207.185716 
L 312.755712 221.276058 
L 312.927765 225.887831 
L 313.105554 226.702141 
L 313.277607 228.796068 
L 313.455395 224.061449 
L 313.793766 232.463115 
L 313.971554 232.688404 
L 314.321396 235.557311 
L 314.493449 234.61946 
L 315.021079 229.147123 
L 315.198867 229.17028 
L 315.37092 228.730263 
L 315.548708 230.429938 
L 315.726496 229.511239 
L 315.892814 227.985786 
L 316.070603 224.911999 
L 316.242656 224.022676 
L 316.592497 224.671968 
L 316.770285 226.17305 
L 316.948074 226.503662 
L 317.120127 221.341006 
L 317.469968 221.989493 
L 317.825545 221.553074 
L 317.986128 221.583071 
L 318.335969 222.160934 
L 318.513757 221.781548 
L 318.685811 222.309384 
L 319.21344 218.780019 
L 319.563282 216.145843 
L 319.74107 222.463039 
L 320.079441 221.403556 
L 320.257229 222.017128 
L 320.429282 221.34102 
L 320.607071 221.164303 
L 320.956912 217.266593 
L 321.1347 216.456146 
L 321.306753 217.268878 
L 321.484542 217.122434 
L 321.656595 216.567436 
L 322.012171 214.990608 
L 322.350543 214.358919 
L 322.522596 214.625933 
L 322.700384 215.494477 
L 322.872437 212.209045 
L 323.050225 212.525764 
L 323.228014 213.991436 
L 323.400067 213.092216 
L 323.577855 214.108644 
L 323.749908 214.019343 
L 323.927696 209.098574 
L 324.271803 210.70293 
L 324.449591 213.215548 
L 324.621644 213.145764 
L 324.799432 211.889882 
L 324.971485 216.027311 
L 325.149274 217.380395 
L 325.327062 216.740508 
L 325.499115 218.922081 
L 325.676903 219.469933 
L 326.026745 222.535609 
L 326.204533 222.470507 
L 326.365116 222.56742 
L 326.542904 217.958473 
L 326.714957 218.198781 
L 326.892746 219.002644 
L 327.064799 216.172448 
L 327.242587 216.143696 
L 327.420375 216.656676 
L 327.592428 217.561906 
L 327.770217 217.539062 
L 327.94227 216.792236 
L 328.120058 219.866177 
L 328.297846 219.355374 
L 328.458429 219.432741 
L 328.636217 213.342516 
L 328.808271 213.456458 
L 328.986059 212.723953 
L 329.158112 213.102528 
L 329.513688 212.985918 
L 329.685742 209.391565 
L 329.86353 209.726743 
L 330.035583 209.630627 
L 330.213371 208.12425 
L 330.39116 208.001215 
L 330.551742 207.580229 
L 330.729531 216.231838 
L 330.901584 215.076374 
L 331.079372 215.834801 
L 331.251425 215.599507 
L 331.429213 215.642427 
L 331.607002 216.549247 
L 331.779055 219.728198 
L 331.956843 216.849391 
L 332.306685 214.954282 
L 332.484473 215.703604 
L 332.650791 214.682133 
L 332.828579 218.588043 
L 333.000632 218.833425 
L 333.17842 218.651366 
L 333.350474 221.180475 
L 333.528262 220.843164 
L 333.70605 219.572448 
L 333.878103 213.729172 
L 334.227945 217.698878 
L 334.405733 213.10813 
L 334.583521 212.864079 
L 334.921892 214.626671 
L 335.093945 214.872694 
L 335.271734 214.371783 
L 335.443787 211.540519 
L 335.621575 211.468453 
L 335.799363 212.235995 
L 335.971417 223.164613 
L 336.149205 222.86009 
L 336.321258 223.468785 
L 336.499046 235.527593 
L 336.676834 234.029978 
L 336.837417 233.765769 
L 337.015206 231.609212 
L 337.187259 231.191752 
L 337.365047 231.088394 
L 337.5371 235.559847 
L 337.714888 235.912163 
L 337.892677 234.967672 
L 338.414571 229.823502 
L 338.592359 224.230083 
L 338.770148 226.336744 
L 338.930731 225.885325 
L 339.108519 221.61357 
L 339.280572 221.569733 
L 339.45836 221.284771 
L 339.630413 215.521723 
L 339.808202 214.177561 
L 339.98599 214.036562 
L 340.158043 208.84129 
L 340.507884 211.224355 
L 340.685673 207.465059 
L 340.863461 207.085262 
L 341.557409 211.553702 
L 341.729462 215.702223 
L 341.90725 215.601552 
L 342.085038 215.644136 
L 342.257091 219.408761 
L 342.43488 219.124651 
L 342.606933 219.736351 
L 342.784721 223.171676 
L 342.962509 222.447229 
L 343.123092 220.972313 
L 343.300881 221.485324 
L 343.472934 220.298306 
L 343.650722 220.392296 
L 343.822775 218.390476 
L 344.000563 218.67864 
L 344.350405 218.344961 
L 344.700246 216.289573 
L 344.878034 217.319328 
L 345.055823 216.781916 
L 345.216406 217.573344 
L 345.394194 221.456446 
L 345.566247 221.922848 
L 345.744035 221.530375 
L 345.916088 225.129221 
L 346.271665 226.178574 
L 346.443718 226.882033 
L 346.621506 226.482596 
L 346.793559 226.785863 
L 346.971348 226.817054 
L 347.149136 226.053377 
L 347.309719 224.479741 
L 347.487507 220.945514 
L 347.837348 219.576615 
L 348.009402 216.979142 
L 348.364978 215.968484 
L 348.537031 212.393472 
L 348.714819 212.49666 
L 348.886873 210.362439 
L 349.064661 210.256509 
L 349.408767 212.742995 
L 349.586555 211.716258 
L 349.758609 212.404342 
L 350.10845 212.927957 
L 350.63608 211.425623 
L 350.813868 211.737913 
L 350.985921 212.745113 
L 351.341497 207.80532 
L 351.50208 207.423276 
L 351.679869 207.393098 
L 351.851922 205.803036 
L 352.02971 205.794601 
L 352.201763 206.996693 
L 352.55734 206.367311 
L 352.729393 209.711272 
L 353.257023 208.935634 
L 353.434811 209.09894 
L 353.595394 207.85059 
L 353.773182 208.646665 
L 353.945235 208.498114 
L 354.123023 207.593593 
L 354.472865 208.808428 
L 354.650653 208.767521 
L 354.822706 211.168822 
L 355.172548 209.104032 
L 355.350336 214.276174 
L 355.688707 215.251294 
L 356.038548 214.981105 
L 356.216337 214.548962 
L 356.566178 210.856033 
L 356.743966 209.992901 
L 356.916019 206.944481 
L 357.265861 207.989507 
L 357.443649 203.996678 
L 357.621437 204.224912 
L 357.787755 203.87294 
L 357.965544 202.13112 
L 358.315385 201.640478 
L 358.487438 201.573896 
L 358.843015 203.391014 
L 359.015068 200.930413 
L 359.192856 200.289845 
L 359.364909 199.171294 
L 359.542697 199.921708 
L 359.720486 198.81332 
L 359.881069 198.891961 
L 360.23091 203.404618 
L 360.408698 203.533741 
L 360.580751 204.411172 
L 360.75854 203.97835 
L 361.108381 204.042291 
L 361.458222 206.692193 
L 361.813799 204.624532 
L 361.974382 205.099481 
L 362.324223 202.677573 
L 362.502012 202.442816 
L 362.674065 203.743689 
L 363.029641 203.756254 
L 363.201694 204.546625 
L 363.379483 204.329711 
L 363.551536 204.573522 
L 363.729324 207.757271 
L 364.067695 209.296931 
L 364.417537 214.510843 
L 364.595325 217.073232 
L 364.767378 216.784865 
L 364.945166 218.807527 
L 365.122954 219.438356 
L 365.295008 221.232852 
L 365.822637 220.288356 
L 366.166744 222.659798 
L 366.344532 218.914095 
L 366.516585 218.503516 
L 366.694373 217.463532 
L 366.866426 217.737091 
L 367.044215 216.74506 
L 367.571844 217.682757 
L 367.743897 219.133873 
L 367.921686 218.609322 
L 368.260057 218.484567 
L 368.437845 220.210989 
L 368.609898 219.591263 
L 368.95974 220.196335 
L 369.137528 221.992928 
L 369.315316 222.585759 
L 369.665157 224.487917 
L 369.837211 224.526255 
L 370.014999 225.662119 
L 370.192787 225.73127 
L 370.703211 229.058298 
L 370.881 229.445925 
L 371.053053 227.407029 
L 371.230841 227.560265 
L 371.408629 228.619788 
L 371.580682 227.772377 
L 371.758471 228.285162 
L 371.930524 227.975273 
L 372.108312 226.587305 
L 372.2861 227.14181 
L 372.446683 223.875855 
L 372.624472 223.761047 
L 372.974313 222.711389 
L 373.146366 223.075061 
L 373.673996 217.475111 
L 374.023837 220.309965 
L 374.201625 221.88013 
L 374.379414 221.016075 
L 374.545732 223.620353 
L 374.72352 221.078485 
L 374.895573 220.244461 
L 375.073361 220.490253 
L 375.423203 225.298382 
L 375.773044 227.947196 
L 375.950832 224.709383 
L 376.122886 224.140509 
L 376.300674 228.339981 
L 376.478462 229.501954 
L 376.639045 229.335649 
L 376.816833 235.028037 
L 377.338728 239.211938 
L 377.516516 236.614539 
L 377.866357 241.946698 
L 378.044146 244.091751 
L 378.216199 243.162846 
L 378.393987 237.357383 
L 378.571775 236.215483 
L 379.432041 225.060268 
L 379.609829 226.680623 
L 379.787618 222.274716 
L 379.959671 221.63947 
L 380.137459 223.254686 
L 380.4873 223.378589 
L 380.665089 223.133848 
L 380.825671 223.499277 
L 381.00346 223.075121 
L 381.353301 224.760176 
L 381.525354 222.340212 
L 381.703143 221.46709 
L 381.880931 220.01438 
L 382.402825 208.448529 
L 382.580614 208.866944 
L 382.758402 209.712663 
L 382.92472 211.502518 
L 383.102508 211.459008 
L 383.274561 212.502361 
L 383.45235 211.896132 
L 383.624403 210.860216 
L 383.802191 210.886331 
L 383.979979 212.3364 
L 384.152032 212.784876 
L 384.501874 215.671528 
L 384.85745 212.906313 
L 385.018033 211.444261 
L 385.195821 211.961655 
L 385.367875 210.416306 
L 385.717716 211.7013 
L 386.423134 218.238271 
L 386.950763 220.921629 
L 387.111346 221.35304 
L 387.461188 222.654621 
L 387.638976 223.019587 
L 387.811029 227.213006 
L 387.988817 226.598835 
L 388.166606 226.858018 
L 388.866288 232.571317 
L 389.044077 232.212395 
L 389.554501 235.706483 
L 389.732289 235.63622 
L 389.904342 234.474467 
L 390.259919 239.160031 
L 390.60976 242.123594 
L 390.781813 241.077885 
L 391.13739 248.864398 
L 391.303708 250.424979 
L 391.653549 248.190889 
L 391.831338 247.855474 
L 392.003391 249.519245 
L 392.358967 243.949587 
L 392.53102 247.347555 
L 392.708809 242.587113 
L 393.05865 249.989657 
L 393.397021 241.446772 
L 393.746863 244.236818 
L 393.924651 242.232309 
L 394.452281 231.071698 
L 394.624334 220.82061 
L 394.802122 220.172473 
L 395.329752 201.388232 
L 395.490335 198.762593 
L 395.840176 187.65917 
L 396.017964 187.656082 
L 396.190017 188.035482 
L 396.545594 192.611325 
L 396.895435 195.591134 
L 397.067488 196.174551 
L 397.245277 198.945037 
L 397.423065 199.596448 
L 397.933489 210.941317 
L 398.111277 211.313578 
L 398.283331 213.256487 
L 398.461119 212.850309 
L 398.638907 213.48041 
L 398.81096 213.117116 
L 399.160802 215.351956 
L 399.33859 213.840003 
L 399.516378 214.276423 
L 399.860484 213.207333 
L 400.032538 211.576202 
L 400.210326 212.64209 
L 400.382379 212.014494 
L 400.737956 213.567823 
L 400.910009 215.698067 
L 401.087797 215.970388 
L 401.25985 218.374312 
L 401.437638 218.700102 
L 401.776009 218.487895 
L 401.953798 219.08847 
L 402.303639 219.062469 
L 402.653481 215.963585 
L 402.831269 216.309513 
L 403.003322 214.839943 
L 403.18111 214.504964 
L 403.353163 212.485653 
L 403.530952 215.884313 
L 403.869323 217.331385 
L 404.047111 214.708773 
L 404.219164 215.63874 
L 404.924582 213.377304 
L 405.274423 217.256532 
L 405.446477 218.220038 
L 405.624265 216.802179 
L 405.802053 217.711455 
L 405.962636 217.273285 
L 406.140424 218.329622 
L 406.312477 217.25161 
L 406.490266 217.65297 
L 406.662319 220.853926 
L 406.840107 221.918339 
L 407.017895 221.064897 
L 407.189948 222.142359 
L 407.367737 221.198906 
L 407.53979 219.501478 
L 407.717578 219.766822 
L 407.895366 219.050633 
L 408.239473 220.287846 
L 408.589314 221.558463 
L 408.761367 219.698213 
L 408.939155 219.808731 
L 409.116944 219.341968 
L 409.288997 215.458826 
L 409.466785 215.581741 
L 409.638838 216.040657 
L 409.994415 213.650536 
L 410.154998 213.415702 
L 410.332786 214.854952 
L 410.504839 215.277244 
L 410.85468 213.675855 
L 411.032469 214.444027 
L 411.210257 216.072269 
L 411.560098 214.931714 
L 411.732151 214.890525 
L 412.087728 213.469624 
L 412.248311 213.40077 
L 412.598152 209.852619 
L 412.947994 211.464216 
L 413.125782 210.249143 
L 413.30357 209.950219 
L 413.475623 212.509308 
L 413.653412 212.248713 
L 414.181041 216.799508 
L 414.341624 217.271292 
L 414.519412 217.018747 
L 414.869254 218.577232 
L 415.041307 218.603786 
L 415.746725 224.663087 
L 415.918778 224.939405 
L 416.096566 229.824744 
L 416.274355 229.635042 
L 416.440673 237.845215 
L 416.618461 284.115685 
L 416.790514 295.773123 
L 416.968302 297.596478 
L 417.140355 277.771378 
L 417.318144 274.590502 
L 417.495932 273.808148 
L 417.667985 269.046165 
L 417.845773 268.658981 
L 418.017826 267.555046 
L 418.195615 258.618586 
L 418.373403 259.882342 
L 418.533986 252.677317 
L 418.711774 203.802202 
L 418.883827 194.282517 
L 419.061615 190.970292 
L 419.233669 208.048051 
L 419.411457 211.057757 
L 419.589245 211.042529 
L 419.761298 207.690829 
L 420.11114 209.087721 
L 420.288928 209.904178 
L 420.627299 207.408338 
L 420.805087 207.491947 
L 420.97714 203.826631 
L 421.154929 203.003269 
L 421.326982 202.818691 
L 421.682558 198.838267 
L 421.854612 201.247361 
L 422.204453 195.161737 
L 422.560029 194.71674 
L 422.720612 189.939443 
L 423.070454 193.508813 
L 423.420295 194.526134 
L 423.598083 194.353529 
L 423.775872 195.37111 
L 424.125713 199.548903 
L 424.475554 203.136339 
L 424.653343 202.976862 
L 424.819661 206.891593 
L 425.34729 208.874388 
L 425.519344 204.886754 
L 425.697132 210.787346 
L 425.87492 211.068854 
L 426.046973 208.373652 
L 426.224761 212.010061 
L 426.396815 212.387601 
L 426.574603 210.698596 
L 426.752391 213.67785 
L 426.912974 214.051056 
L 427.090762 210.515529 
L 427.262815 213.828979 
L 427.440604 212.493919 
L 427.612657 212.226439 
L 427.790445 212.920228 
L 428.490128 218.347904 
L 428.490128 218.347904 
" clip-path="url(#p5932203b83)" style="fill: none; stroke: #ff7f0e; stroke-width: 1.5; stroke-linecap: square"/>
   </g>
   <g id="patch_78">
    <path d="M 52.382813 303.093498 
L 52.382813 182.159063 
" style="fill: none; stroke: #000000; stroke-width: 0.8; stroke-linejoin: miter; stroke-linecap: square"/>
   </g>
   <g id="patch_79">
    <path d="M 446.4 303.093498 
L 446.4 182.159063 
" style="fill: none; stroke: #000000; stroke-width: 0.8; stroke-linejoin: miter; stroke-linecap: square"/>
   </g>
   <g id="patch_80">
    <path d="M 52.382812 303.093498 
L 446.4 303.093498 
" style="fill: none; stroke: #000000; stroke-width: 0.8; stroke-linejoin: miter; stroke-linecap: square"/>
   </g>
   <g id="patch_81">
    <path d="M 52.382812 182.159063 
L 446.4 182.159063 
" style="fill: none; stroke: #000000; stroke-width: 0.8; stroke-linejoin: miter; stroke-linecap: square"/>
   </g>
   <g id="legend_1">
    <g id="patch_82">
     <path d="M 59.382813 219.515313 
L 143.6875 219.515313 
Q 145.6875 219.515313 145.6875 217.515313 
L 145.6875 189.159063 
Q 145.6875 187.159063 143.6875 187.159063 
L 59.382813 187.159063 
Q 57.382813 187.159063 57.382813 189.159063 
L 57.382813 217.515313 
Q 57.382813 219.515313 59.382813 219.515313 
z
" style="fill: #ffffff; opacity: 0.8; stroke: #cccccc; stroke-linejoin: miter"/>
    </g>
    <g id="line2d_62">
     <path d="M 61.382813 195.2575 
L 71.382812 195.2575 
L 81.382812 195.2575 
" style="fill: none; stroke: #1f77b4; stroke-width: 1.5; stroke-linecap: square"/>
    </g>
    <g id="text_33">
     <!-- Prediction -->
     <g transform="translate(89.382812 198.7575) scale(0.1 -0.1)">
      <defs>
       <path id="DejaVuSerif-63" d="M 3291 997 
Q 3169 466 2822 187 
Q 2475 -91 1925 -91 
Q 1200 -91 759 389 
Q 319 869 319 1663 
Q 319 2459 759 2936 
Q 1200 3413 1925 3413 
Q 2241 3413 2553 3339 
Q 2866 3266 3181 3116 
L 3181 2266 
L 2847 2266 
Q 2781 2703 2561 2903 
Q 2341 3103 1931 3103 
Q 1466 3103 1228 2742 
Q 991 2381 991 1663 
Q 991 944 1227 581 
Q 1463 219 1931 219 
Q 2303 219 2525 412 
Q 2747 606 2828 997 
L 3291 997 
z
" transform="scale(0.015625)"/>
      </defs>
      <use xlink:href="#DejaVuSerif-50"/>
      <use xlink:href="#DejaVuSerif-72" transform="translate(67.285156 0)"/>
      <use xlink:href="#DejaVuSerif-65" transform="translate(115.087891 0)"/>
      <use xlink:href="#DejaVuSerif-64" transform="translate(174.267578 0)"/>
      <use xlink:href="#DejaVuSerif-69" transform="translate(238.28125 0)"/>
      <use xlink:href="#DejaVuSerif-63" transform="translate(270.263672 0)"/>
      <use xlink:href="#DejaVuSerif-74" transform="translate(326.269531 0)"/>
      <use xlink:href="#DejaVuSerif-69" transform="translate(366.455078 0)"/>
      <use xlink:href="#DejaVuSerif-6f" transform="translate(398.4375 0)"/>
      <use xlink:href="#DejaVuSerif-6e" transform="translate(458.642578 0)"/>
     </g>
    </g>
    <g id="line2d_63">
     <path d="M 61.382813 209.935625 
L 71.382812 209.935625 
L 81.382812 209.935625 
" style="fill: none; stroke: #ff7f0e; stroke-width: 1.5; stroke-linecap: square"/>
    </g>
    <g id="text_34">
     <!-- Real -->
     <g transform="translate(89.382812 213.435625) scale(0.1 -0.1)">
      <defs>
       <path id="DejaVuSerif-52" d="M 3066 2316 
Q 3284 2256 3442 2114 
Q 3600 1972 3725 1716 
L 4403 331 
L 4972 331 
L 4972 0 
L 3872 0 
L 3144 1484 
Q 2934 1916 2759 2042 
Q 2584 2169 2278 2169 
L 1581 2169 
L 1581 331 
L 2241 331 
L 2241 0 
L 353 0 
L 353 331 
L 947 331 
L 947 4331 
L 353 4331 
L 353 4666 
L 2719 4666 
Q 3400 4666 3770 4341 
Q 4141 4016 4141 3419 
Q 4141 2938 3870 2661 
Q 3600 2384 3066 2316 
z
M 1581 2503 
L 2503 2503 
Q 2975 2503 3200 2726 
Q 3425 2950 3425 3419 
Q 3425 3888 3200 4109 
Q 2975 4331 2503 4331 
L 1581 4331 
L 1581 2503 
z
" transform="scale(0.015625)"/>
      </defs>
      <use xlink:href="#DejaVuSerif-52"/>
      <use xlink:href="#DejaVuSerif-65" transform="translate(75.292969 0)"/>
      <use xlink:href="#DejaVuSerif-61" transform="translate(134.472656 0)"/>
      <use xlink:href="#DejaVuSerif-6c" transform="translate(194.091797 0)"/>
     </g>
    </g>
   </g>
  </g>
 </g>
 <defs>
  <clipPath id="pbfee2f940e">
   <rect x="52.382813" y="22.318125" width="394.017187" height="120.934435"/>
  </clipPath>
  <clipPath id="p5932203b83">
   <rect x="52.382813" y="182.159063" width="394.017187" height="120.934435"/>
  </clipPath>
 </defs>
</svg>
