<?xml version="1.0" encoding="utf-8" standalone="no"?>
<!DOCTYPE svg PUBLIC "-//W3C//DTD SVG 1.1//EN"
  "http://www.w3.org/Graphics/SVG/1.1/DTD/svg11.dtd">
<svg xmlns:xlink="http://www.w3.org/1999/xlink" width="416.702812pt" height="312.30825pt" viewBox="0 0 416.702812 312.30825" xmlns="http://www.w3.org/2000/svg" version="1.1">
 <metadata>
  <rdf:RDF xmlns:dc="http://purl.org/dc/elements/1.1/" xmlns:cc="http://creativecommons.org/ns#" xmlns:rdf="http://www.w3.org/1999/02/22-rdf-syntax-ns#">
   <cc:Work>
    <dc:type rdf:resource="http://purl.org/dc/dcmitype/StillImage"/>
    <dc:date>2024-11-06T21:53:34.623438</dc:date>
    <dc:format>image/svg+xml</dc:format>
    <dc:creator>
     <cc:Agent>
      <dc:title>Matplotlib v3.9.0, https://matplotlib.org/</dc:title>
     </cc:Agent>
    </dc:creator>
   </cc:Work>
  </rdf:RDF>
 </metadata>
 <defs>
  <style type="text/css">*{stroke-linejoin: round; stroke-linecap: butt}</style>
 </defs>
 <g id="figure_1">
  <g id="patch_1">
   <path d="M 0 312.30825 
L 416.702812 312.30825 
L 416.702812 0 
L 0 0 
z
" style="fill: #ffffff"/>
  </g>
  <g id="axes_1">
   <g id="patch_2">
    <path d="M 52.382813 143.278125 
L 409.502813 143.278125 
L 409.502813 22.318125 
L 52.382813 22.318125 
z
" style="fill: #ffffff"/>
   </g>
   <g id="patch_3">
    <path d="M -1282.384847 143.278125 
L -1267.188251 143.278125 
L -1267.188251 22.318125 
L -1282.384847 22.318125 
z
" clip-path="url(#p4d625413f0)" style="fill: #d3d3d3"/>
   </g>
   <g id="patch_4">
    <path d="M -1249.45889 143.278125 
L -1239.327826 143.278125 
L -1239.327826 22.318125 
L -1249.45889 22.318125 
z
" clip-path="url(#p4d625413f0)" style="fill: #d3d3d3"/>
   </g>
   <g id="patch_5">
    <path d="M -1203.869102 143.278125 
L -1183.606975 143.278125 
L -1183.606975 22.318125 
L -1203.869102 22.318125 
z
" clip-path="url(#p4d625413f0)" style="fill: #d3d3d3"/>
   </g>
   <g id="patch_6">
    <path d="M -1160.812081 143.278125 
L -1145.615485 143.278125 
L -1145.615485 22.318125 
L -1160.812081 22.318125 
z
" clip-path="url(#p4d625413f0)" style="fill: #d3d3d3"/>
   </g>
   <g id="patch_7">
    <path d="M -1117.75506 143.278125 
L -1062.034209 143.278125 
L -1062.034209 22.318125 
L -1117.75506 22.318125 
z
" clip-path="url(#p4d625413f0)" style="fill: #d3d3d3"/>
   </g>
   <g id="patch_8">
    <path d="M -1031.641017 143.278125 
L -998.71506 143.278125 
L -998.71506 22.318125 
L -1031.641017 22.318125 
z
" clip-path="url(#p4d625413f0)" style="fill: #d3d3d3"/>
   </g>
   <g id="patch_9">
    <path d="M -978.452932 143.278125 
L -970.854634 143.278125 
L -970.854634 22.318125 
L -978.452932 22.318125 
z
" clip-path="url(#p4d625413f0)" style="fill: #d3d3d3"/>
   </g>
   <g id="patch_10">
    <path d="M -945.526975 143.278125 
L -937.928677 143.278125 
L -937.928677 22.318125 
L -945.526975 22.318125 
z
" clip-path="url(#p4d625413f0)" style="fill: #d3d3d3"/>
   </g>
   <g id="patch_11">
    <path d="M -920.199315 143.278125 
L -907.535485 143.278125 
L -907.535485 22.318125 
L -920.199315 22.318125 
z
" clip-path="url(#p4d625413f0)" style="fill: #d3d3d3"/>
   </g>
   <g id="patch_12">
    <path d="M -892.33889 143.278125 
L -877.142294 143.278125 
L -877.142294 22.318125 
L -892.33889 22.318125 
z
" clip-path="url(#p4d625413f0)" style="fill: #d3d3d3"/>
   </g>
   <g id="patch_13">
    <path d="M -854.3474 143.278125 
L -841.68357 143.278125 
L -841.68357 22.318125 
L -854.3474 22.318125 
z
" clip-path="url(#p4d625413f0)" style="fill: #d3d3d3"/>
   </g>
   <g id="patch_14">
    <path d="M -821.421443 143.278125 
L -803.692081 143.278125 
L -803.692081 22.318125 
L -821.421443 22.318125 
z
" clip-path="url(#p4d625413f0)" style="fill: #d3d3d3"/>
   </g>
   <g id="patch_15">
    <path d="M -775.831656 143.278125 
L -765.700592 143.278125 
L -765.700592 22.318125 
L -775.831656 22.318125 
z
" clip-path="url(#p4d625413f0)" style="fill: #d3d3d3"/>
   </g>
   <g id="patch_16">
    <path d="M -747.97123 143.278125 
L -730.241868 143.278125 
L -730.241868 22.318125 
L -747.97123 22.318125 
z
" clip-path="url(#p4d625413f0)" style="fill: #d3d3d3"/>
   </g>
   <g id="patch_17">
    <path d="M -717.578039 143.278125 
L -699.848677 143.278125 
L -699.848677 22.318125 
L -717.578039 22.318125 
z
" clip-path="url(#p4d625413f0)" style="fill: #d3d3d3"/>
   </g>
   <g id="patch_18">
    <path d="M -661.857188 143.278125 
L -656.791656 143.278125 
L -656.791656 22.318125 
L -661.857188 22.318125 
z
" clip-path="url(#p4d625413f0)" style="fill: #d3d3d3"/>
   </g>
   <g id="patch_19">
    <path d="M -646.660592 143.278125 
L -631.463996 143.278125 
L -631.463996 22.318125 
L -646.660592 22.318125 
z
" clip-path="url(#p4d625413f0)" style="fill: #d3d3d3"/>
   </g>
   <g id="patch_20">
    <path d="M -613.734634 143.278125 
L -601.070805 143.278125 
L -601.070805 22.318125 
L -613.734634 22.318125 
z
" clip-path="url(#p4d625413f0)" style="fill: #d3d3d3"/>
   </g>
   <g id="patch_21">
    <path d="M -580.808677 143.278125 
L -568.144847 143.278125 
L -568.144847 22.318125 
L -580.808677 22.318125 
z
" clip-path="url(#p4d625413f0)" style="fill: #d3d3d3"/>
   </g>
   <g id="patch_22">
    <path d="M -550.415485 143.278125 
L -514.956762 143.278125 
L -514.956762 22.318125 
L -550.415485 22.318125 
z
" clip-path="url(#p4d625413f0)" style="fill: #d3d3d3"/>
   </g>
   <g id="patch_23">
    <path d="M -471.899741 143.278125 
L -461.768677 143.278125 
L -461.768677 22.318125 
L -471.899741 22.318125 
z
" clip-path="url(#p4d625413f0)" style="fill: #d3d3d3"/>
   </g>
   <g id="patch_24">
    <path d="M -393.383996 143.278125 
L -385.785698 143.278125 
L -385.785698 22.318125 
L -393.383996 22.318125 
z
" clip-path="url(#p4d625413f0)" style="fill: #d3d3d3"/>
   </g>
   <g id="patch_25">
    <path d="M -355.392507 143.278125 
L -345.261443 143.278125 
L -345.261443 22.318125 
L -355.392507 22.318125 
z
" clip-path="url(#p4d625413f0)" style="fill: #d3d3d3"/>
   </g>
   <g id="patch_26">
    <path d="M -309.802719 143.278125 
L -299.671656 143.278125 
L -299.671656 22.318125 
L -309.802719 22.318125 
z
" clip-path="url(#p4d625413f0)" style="fill: #d3d3d3"/>
   </g>
   <g id="patch_27">
    <path d="M -266.745698 143.278125 
L -259.1474 143.278125 
L -259.1474 22.318125 
L -266.745698 22.318125 
z
" clip-path="url(#p4d625413f0)" style="fill: #d3d3d3"/>
   </g>
   <g id="patch_28">
    <path d="M -238.885273 143.278125 
L -231.286975 143.278125 
L -231.286975 22.318125 
L -238.885273 22.318125 
z
" clip-path="url(#p4d625413f0)" style="fill: #d3d3d3"/>
   </g>
   <g id="patch_29">
    <path d="M -142.640166 143.278125 
L -132.509102 143.278125 
L -132.509102 22.318125 
L -142.640166 22.318125 
z
" clip-path="url(#p4d625413f0)" style="fill: #d3d3d3"/>
   </g>
   <g id="patch_30">
    <path d="M -102.115911 143.278125 
L -89.452081 143.278125 
L -89.452081 22.318125 
L -102.115911 22.318125 
z
" clip-path="url(#p4d625413f0)" style="fill: #d3d3d3"/>
   </g>
   <g id="patch_31">
    <path d="M -38.796762 143.278125 
L -33.73123 143.278125 
L -33.73123 22.318125 
L -38.796762 22.318125 
z
" clip-path="url(#p4d625413f0)" style="fill: #d3d3d3"/>
   </g>
   <g id="patch_32">
    <path d="M -23.600166 143.278125 
L -10.936336 143.278125 
L -10.936336 22.318125 
L -23.600166 22.318125 
z
" clip-path="url(#p4d625413f0)" style="fill: #d3d3d3"/>
   </g>
   <g id="patch_33">
    <path d="M 67.579408 143.278125 
L 72.64494 143.278125 
L 72.64494 22.318125 
L 67.579408 22.318125 
z
" clip-path="url(#p4d625413f0)" style="fill: #d3d3d3"/>
   </g>
   <g id="patch_34">
    <path d="M 173.955578 143.278125 
L 181.553876 143.278125 
L 181.553876 22.318125 
L 173.955578 22.318125 
z
" clip-path="url(#p4d625413f0)" style="fill: #d3d3d3"/>
   </g>
   <g id="patch_35">
    <path d="M 242.340259 143.278125 
L 257.536855 143.278125 
L 257.536855 22.318125 
L 242.340259 22.318125 
z
" clip-path="url(#p4d625413f0)" style="fill: #d3d3d3"/>
   </g>
   <g id="patch_36">
    <path d="M 363.913025 143.278125 
L 368.978557 143.278125 
L 368.978557 22.318125 
L 363.913025 22.318125 
z
" clip-path="url(#p4d625413f0)" style="fill: #d3d3d3"/>
   </g>
   <g id="matplotlib.axis_1">
    <g id="xtick_1">
     <g id="line2d_1">
      <defs>
       <path id="mc8410e6987" d="M 0 0 
L 0 3.5 
" style="stroke: #000000; stroke-width: 0.8"/>
      </defs>
      <g>
       <use xlink:href="#mc8410e6987" x="62.513876" y="143.278125" style="stroke: #000000; stroke-width: 0.8"/>
      </g>
     </g>
     <g id="text_1">
      <!-- 1990 -->
      <g transform="translate(49.788876 157.876562) scale(0.1 -0.1)">
       <defs>
        <path id="DejaVuSerif-31" d="M 909 0 
L 909 331 
L 1722 331 
L 1722 4213 
L 781 3603 
L 781 4013 
L 1919 4750 
L 2350 4750 
L 2350 331 
L 3163 331 
L 3163 0 
L 909 0 
z
" transform="scale(0.015625)"/>
        <path id="DejaVuSerif-39" d="M 2994 2091 
Q 2784 1856 2512 1740 
Q 2241 1625 1900 1625 
Q 1206 1625 804 2044 
Q 403 2463 403 3188 
Q 403 3897 839 4323 
Q 1275 4750 2003 4750 
Q 2794 4750 3217 4161 
Q 3641 3572 3641 2478 
Q 3641 1253 3137 581 
Q 2634 -91 1722 -91 
Q 1475 -91 1203 -44 
Q 931 3 647 97 
L 647 872 
L 997 872 
Q 1038 556 1241 387 
Q 1444 219 1784 219 
Q 2391 219 2687 676 
Q 2984 1134 2994 2091 
z
M 1978 4441 
Q 1534 4441 1298 4117 
Q 1063 3794 1063 3188 
Q 1063 2581 1298 2256 
Q 1534 1931 1978 1931 
Q 2422 1931 2658 2245 
Q 2894 2559 2894 3150 
Q 2894 3772 2656 4106 
Q 2419 4441 1978 4441 
z
" transform="scale(0.015625)"/>
        <path id="DejaVuSerif-30" d="M 2034 219 
Q 2513 219 2750 744 
Q 2988 1269 2988 2328 
Q 2988 3391 2750 3916 
Q 2513 4441 2034 4441 
Q 1556 4441 1318 3916 
Q 1081 3391 1081 2328 
Q 1081 1269 1318 744 
Q 1556 219 2034 219 
z
M 2034 -91 
Q 1275 -91 848 546 
Q 422 1184 422 2328 
Q 422 3475 848 4112 
Q 1275 4750 2034 4750 
Q 2797 4750 3222 4112 
Q 3647 3475 3647 2328 
Q 3647 1184 3222 546 
Q 2797 -91 2034 -91 
z
" transform="scale(0.015625)"/>
       </defs>
       <use xlink:href="#DejaVuSerif-31"/>
       <use xlink:href="#DejaVuSerif-39" x="63.623047"/>
       <use xlink:href="#DejaVuSerif-39" x="127.246094"/>
       <use xlink:href="#DejaVuSerif-30" x="190.869141"/>
      </g>
     </g>
    </g>
    <g id="xtick_2">
     <g id="line2d_2">
      <g>
       <use xlink:href="#mc8410e6987" x="113.169195" y="143.278125" style="stroke: #000000; stroke-width: 0.8"/>
      </g>
     </g>
     <g id="text_2">
      <!-- 1995 -->
      <g transform="translate(100.444195 157.876562) scale(0.1 -0.1)">
       <defs>
        <path id="DejaVuSerif-35" d="M 3219 4666 
L 3219 4153 
L 1081 4153 
L 1081 2816 
Q 1244 2928 1461 2984 
Q 1678 3041 1947 3041 
Q 2703 3041 3140 2622 
Q 3578 2203 3578 1478 
Q 3578 738 3136 323 
Q 2694 -91 1894 -91 
Q 1572 -91 1234 -12 
Q 897 66 544 225 
L 544 1131 
L 897 1131 
Q 925 688 1179 453 
Q 1434 219 1894 219 
Q 2388 219 2653 544 
Q 2919 869 2919 1478 
Q 2919 2084 2655 2407 
Q 2391 2731 1894 2731 
Q 1613 2731 1398 2631 
Q 1184 2531 1019 2322 
L 750 2322 
L 750 4666 
L 3219 4666 
z
" transform="scale(0.015625)"/>
       </defs>
       <use xlink:href="#DejaVuSerif-31"/>
       <use xlink:href="#DejaVuSerif-39" x="63.623047"/>
       <use xlink:href="#DejaVuSerif-39" x="127.246094"/>
       <use xlink:href="#DejaVuSerif-35" x="190.869141"/>
      </g>
     </g>
    </g>
    <g id="xtick_3">
     <g id="line2d_3">
      <g>
       <use xlink:href="#mc8410e6987" x="163.824515" y="143.278125" style="stroke: #000000; stroke-width: 0.8"/>
      </g>
     </g>
     <g id="text_3">
      <!-- 2000 -->
      <g transform="translate(151.099515 157.876562) scale(0.1 -0.1)">
       <defs>
        <path id="DejaVuSerif-32" d="M 819 3553 
L 469 3553 
L 469 4384 
Q 803 4563 1142 4656 
Q 1481 4750 1806 4750 
Q 2534 4750 2956 4397 
Q 3378 4044 3378 3438 
Q 3378 2753 2422 1800 
Q 2347 1728 2309 1691 
L 1131 513 
L 3078 513 
L 3078 1088 
L 3444 1088 
L 3444 0 
L 434 0 
L 434 341 
L 1850 1753 
Q 2319 2222 2519 2614 
Q 2719 3006 2719 3438 
Q 2719 3909 2473 4175 
Q 2228 4441 1797 4441 
Q 1350 4441 1106 4219 
Q 863 3997 819 3553 
z
" transform="scale(0.015625)"/>
       </defs>
       <use xlink:href="#DejaVuSerif-32"/>
       <use xlink:href="#DejaVuSerif-30" x="63.623047"/>
       <use xlink:href="#DejaVuSerif-30" x="127.246094"/>
       <use xlink:href="#DejaVuSerif-30" x="190.869141"/>
      </g>
     </g>
    </g>
    <g id="xtick_4">
     <g id="line2d_4">
      <g>
       <use xlink:href="#mc8410e6987" x="214.479834" y="143.278125" style="stroke: #000000; stroke-width: 0.8"/>
      </g>
     </g>
     <g id="text_4">
      <!-- 2005 -->
      <g transform="translate(201.754834 157.876562) scale(0.1 -0.1)">
       <use xlink:href="#DejaVuSerif-32"/>
       <use xlink:href="#DejaVuSerif-30" x="63.623047"/>
       <use xlink:href="#DejaVuSerif-30" x="127.246094"/>
       <use xlink:href="#DejaVuSerif-35" x="190.869141"/>
      </g>
     </g>
    </g>
    <g id="xtick_5">
     <g id="line2d_5">
      <g>
       <use xlink:href="#mc8410e6987" x="265.135153" y="143.278125" style="stroke: #000000; stroke-width: 0.8"/>
      </g>
     </g>
     <g id="text_5">
      <!-- 2010 -->
      <g transform="translate(252.410153 157.876562) scale(0.1 -0.1)">
       <use xlink:href="#DejaVuSerif-32"/>
       <use xlink:href="#DejaVuSerif-30" x="63.623047"/>
       <use xlink:href="#DejaVuSerif-31" x="127.246094"/>
       <use xlink:href="#DejaVuSerif-30" x="190.869141"/>
      </g>
     </g>
    </g>
    <g id="xtick_6">
     <g id="line2d_6">
      <g>
       <use xlink:href="#mc8410e6987" x="315.790472" y="143.278125" style="stroke: #000000; stroke-width: 0.8"/>
      </g>
     </g>
     <g id="text_6">
      <!-- 2015 -->
      <g transform="translate(303.065472 157.876562) scale(0.1 -0.1)">
       <use xlink:href="#DejaVuSerif-32"/>
       <use xlink:href="#DejaVuSerif-30" x="63.623047"/>
       <use xlink:href="#DejaVuSerif-31" x="127.246094"/>
       <use xlink:href="#DejaVuSerif-35" x="190.869141"/>
      </g>
     </g>
    </g>
    <g id="xtick_7">
     <g id="line2d_7">
      <g>
       <use xlink:href="#mc8410e6987" x="366.445791" y="143.278125" style="stroke: #000000; stroke-width: 0.8"/>
      </g>
     </g>
     <g id="text_7">
      <!-- 2020 -->
      <g transform="translate(353.720791 157.876562) scale(0.1 -0.1)">
       <use xlink:href="#DejaVuSerif-32"/>
       <use xlink:href="#DejaVuSerif-30" x="63.623047"/>
       <use xlink:href="#DejaVuSerif-32" x="127.246094"/>
       <use xlink:href="#DejaVuSerif-30" x="190.869141"/>
      </g>
     </g>
    </g>
    <g id="xtick_8">
     <g id="line2d_8">
      <defs>
       <path id="me5bd21f42d" d="M 0 0 
L 0 2 
" style="stroke: #000000; stroke-width: 0.6"/>
      </defs>
      <g>
       <use xlink:href="#me5bd21f42d" x="52.382812" y="143.278125" style="stroke: #000000; stroke-width: 0.6"/>
      </g>
     </g>
    </g>
    <g id="xtick_9">
     <g id="line2d_9">
      <g>
       <use xlink:href="#me5bd21f42d" x="72.64494" y="143.278125" style="stroke: #000000; stroke-width: 0.6"/>
      </g>
     </g>
    </g>
    <g id="xtick_10">
     <g id="line2d_10">
      <g>
       <use xlink:href="#me5bd21f42d" x="82.776004" y="143.278125" style="stroke: #000000; stroke-width: 0.6"/>
      </g>
     </g>
    </g>
    <g id="xtick_11">
     <g id="line2d_11">
      <g>
       <use xlink:href="#me5bd21f42d" x="92.907068" y="143.278125" style="stroke: #000000; stroke-width: 0.6"/>
      </g>
     </g>
    </g>
    <g id="xtick_12">
     <g id="line2d_12">
      <g>
       <use xlink:href="#me5bd21f42d" x="103.038132" y="143.278125" style="stroke: #000000; stroke-width: 0.6"/>
      </g>
     </g>
    </g>
    <g id="xtick_13">
     <g id="line2d_13">
      <g>
       <use xlink:href="#me5bd21f42d" x="123.300259" y="143.278125" style="stroke: #000000; stroke-width: 0.6"/>
      </g>
     </g>
    </g>
    <g id="xtick_14">
     <g id="line2d_14">
      <g>
       <use xlink:href="#me5bd21f42d" x="133.431323" y="143.278125" style="stroke: #000000; stroke-width: 0.6"/>
      </g>
     </g>
    </g>
    <g id="xtick_15">
     <g id="line2d_15">
      <g>
       <use xlink:href="#me5bd21f42d" x="143.562387" y="143.278125" style="stroke: #000000; stroke-width: 0.6"/>
      </g>
     </g>
    </g>
    <g id="xtick_16">
     <g id="line2d_16">
      <g>
       <use xlink:href="#me5bd21f42d" x="153.693451" y="143.278125" style="stroke: #000000; stroke-width: 0.6"/>
      </g>
     </g>
    </g>
    <g id="xtick_17">
     <g id="line2d_17">
      <g>
       <use xlink:href="#me5bd21f42d" x="173.955578" y="143.278125" style="stroke: #000000; stroke-width: 0.6"/>
      </g>
     </g>
    </g>
    <g id="xtick_18">
     <g id="line2d_18">
      <g>
       <use xlink:href="#me5bd21f42d" x="184.086642" y="143.278125" style="stroke: #000000; stroke-width: 0.6"/>
      </g>
     </g>
    </g>
    <g id="xtick_19">
     <g id="line2d_19">
      <g>
       <use xlink:href="#me5bd21f42d" x="194.217706" y="143.278125" style="stroke: #000000; stroke-width: 0.6"/>
      </g>
     </g>
    </g>
    <g id="xtick_20">
     <g id="line2d_20">
      <g>
       <use xlink:href="#me5bd21f42d" x="204.34877" y="143.278125" style="stroke: #000000; stroke-width: 0.6"/>
      </g>
     </g>
    </g>
    <g id="xtick_21">
     <g id="line2d_21">
      <g>
       <use xlink:href="#me5bd21f42d" x="224.610898" y="143.278125" style="stroke: #000000; stroke-width: 0.6"/>
      </g>
     </g>
    </g>
    <g id="xtick_22">
     <g id="line2d_22">
      <g>
       <use xlink:href="#me5bd21f42d" x="234.741961" y="143.278125" style="stroke: #000000; stroke-width: 0.6"/>
      </g>
     </g>
    </g>
    <g id="xtick_23">
     <g id="line2d_23">
      <g>
       <use xlink:href="#me5bd21f42d" x="244.873025" y="143.278125" style="stroke: #000000; stroke-width: 0.6"/>
      </g>
     </g>
    </g>
    <g id="xtick_24">
     <g id="line2d_24">
      <g>
       <use xlink:href="#me5bd21f42d" x="255.004089" y="143.278125" style="stroke: #000000; stroke-width: 0.6"/>
      </g>
     </g>
    </g>
    <g id="xtick_25">
     <g id="line2d_25">
      <g>
       <use xlink:href="#me5bd21f42d" x="275.266217" y="143.278125" style="stroke: #000000; stroke-width: 0.6"/>
      </g>
     </g>
    </g>
    <g id="xtick_26">
     <g id="line2d_26">
      <g>
       <use xlink:href="#me5bd21f42d" x="285.397281" y="143.278125" style="stroke: #000000; stroke-width: 0.6"/>
      </g>
     </g>
    </g>
    <g id="xtick_27">
     <g id="line2d_27">
      <g>
       <use xlink:href="#me5bd21f42d" x="295.528344" y="143.278125" style="stroke: #000000; stroke-width: 0.6"/>
      </g>
     </g>
    </g>
    <g id="xtick_28">
     <g id="line2d_28">
      <g>
       <use xlink:href="#me5bd21f42d" x="305.659408" y="143.278125" style="stroke: #000000; stroke-width: 0.6"/>
      </g>
     </g>
    </g>
    <g id="xtick_29">
     <g id="line2d_29">
      <g>
       <use xlink:href="#me5bd21f42d" x="325.921536" y="143.278125" style="stroke: #000000; stroke-width: 0.6"/>
      </g>
     </g>
    </g>
    <g id="xtick_30">
     <g id="line2d_30">
      <g>
       <use xlink:href="#me5bd21f42d" x="336.0526" y="143.278125" style="stroke: #000000; stroke-width: 0.6"/>
      </g>
     </g>
    </g>
    <g id="xtick_31">
     <g id="line2d_31">
      <g>
       <use xlink:href="#me5bd21f42d" x="346.183664" y="143.278125" style="stroke: #000000; stroke-width: 0.6"/>
      </g>
     </g>
    </g>
    <g id="xtick_32">
     <g id="line2d_32">
      <g>
       <use xlink:href="#me5bd21f42d" x="356.314727" y="143.278125" style="stroke: #000000; stroke-width: 0.6"/>
      </g>
     </g>
    </g>
    <g id="xtick_33">
     <g id="line2d_33">
      <g>
       <use xlink:href="#me5bd21f42d" x="376.576855" y="143.278125" style="stroke: #000000; stroke-width: 0.6"/>
      </g>
     </g>
    </g>
    <g id="xtick_34">
     <g id="line2d_34">
      <g>
       <use xlink:href="#me5bd21f42d" x="386.707919" y="143.278125" style="stroke: #000000; stroke-width: 0.6"/>
      </g>
     </g>
    </g>
    <g id="xtick_35">
     <g id="line2d_35">
      <g>
       <use xlink:href="#me5bd21f42d" x="396.838983" y="143.278125" style="stroke: #000000; stroke-width: 0.6"/>
      </g>
     </g>
    </g>
    <g id="xtick_36">
     <g id="line2d_36">
      <g>
       <use xlink:href="#me5bd21f42d" x="406.970047" y="143.278125" style="stroke: #000000; stroke-width: 0.6"/>
      </g>
     </g>
    </g>
   </g>
   <g id="matplotlib.axis_2">
    <g id="ytick_1">
     <g id="line2d_37">
      <defs>
       <path id="m19a5352873" d="M 0 0 
L -3.5 0 
" style="stroke: #000000; stroke-width: 0.8"/>
      </defs>
      <g>
       <use xlink:href="#m19a5352873" x="52.382813" y="137.779986" style="stroke: #000000; stroke-width: 0.8"/>
      </g>
     </g>
     <g id="text_8">
      <!-- 0.0 -->
      <g transform="translate(29.479688 141.579205) scale(0.1 -0.1)">
       <defs>
        <path id="DejaVuSerif-2e" d="M 603 325 
Q 603 500 722 622 
Q 841 744 1019 744 
Q 1191 744 1312 622 
Q 1434 500 1434 325 
Q 1434 153 1312 31 
Q 1191 -91 1019 -91 
Q 841 -91 722 29 
Q 603 150 603 325 
z
" transform="scale(0.015625)"/>
       </defs>
       <use xlink:href="#DejaVuSerif-30"/>
       <use xlink:href="#DejaVuSerif-2e" x="63.623047"/>
       <use xlink:href="#DejaVuSerif-30" x="95.410156"/>
      </g>
     </g>
    </g>
    <g id="ytick_2">
     <g id="line2d_38">
      <g>
       <use xlink:href="#m19a5352873" x="52.382813" y="115.787246" style="stroke: #000000; stroke-width: 0.8"/>
      </g>
     </g>
     <g id="text_9">
      <!-- 0.2 -->
      <g transform="translate(29.479688 119.586465) scale(0.1 -0.1)">
       <use xlink:href="#DejaVuSerif-30"/>
       <use xlink:href="#DejaVuSerif-2e" x="63.623047"/>
       <use xlink:href="#DejaVuSerif-32" x="95.410156"/>
      </g>
     </g>
    </g>
    <g id="ytick_3">
     <g id="line2d_39">
      <g>
       <use xlink:href="#m19a5352873" x="52.382813" y="93.794506" style="stroke: #000000; stroke-width: 0.8"/>
      </g>
     </g>
     <g id="text_10">
      <!-- 0.4 -->
      <g transform="translate(29.479688 97.593725) scale(0.1 -0.1)">
       <defs>
        <path id="DejaVuSerif-34" d="M 2234 1581 
L 2234 4063 
L 641 1581 
L 2234 1581 
z
M 3609 0 
L 1484 0 
L 1484 331 
L 2234 331 
L 2234 1247 
L 197 1247 
L 197 1588 
L 2241 4750 
L 2859 4750 
L 2859 1581 
L 3750 1581 
L 3750 1247 
L 2859 1247 
L 2859 331 
L 3609 331 
L 3609 0 
z
" transform="scale(0.015625)"/>
       </defs>
       <use xlink:href="#DejaVuSerif-30"/>
       <use xlink:href="#DejaVuSerif-2e" x="63.623047"/>
       <use xlink:href="#DejaVuSerif-34" x="95.410156"/>
      </g>
     </g>
    </g>
    <g id="ytick_4">
     <g id="line2d_40">
      <g>
       <use xlink:href="#m19a5352873" x="52.382813" y="71.801766" style="stroke: #000000; stroke-width: 0.8"/>
      </g>
     </g>
     <g id="text_11">
      <!-- 0.6 -->
      <g transform="translate(29.479688 75.600985) scale(0.1 -0.1)">
       <defs>
        <path id="DejaVuSerif-36" d="M 2094 219 
Q 2534 219 2771 542 
Q 3009 866 3009 1472 
Q 3009 2078 2771 2401 
Q 2534 2725 2094 2725 
Q 1647 2725 1412 2412 
Q 1178 2100 1178 1509 
Q 1178 888 1415 553 
Q 1653 219 2094 219 
z
M 1075 2569 
Q 1288 2803 1556 2918 
Q 1825 3034 2163 3034 
Q 2859 3034 3264 2615 
Q 3669 2197 3669 1472 
Q 3669 763 3233 336 
Q 2797 -91 2069 -91 
Q 1278 -91 853 498 
Q 428 1088 428 2181 
Q 428 3406 931 4078 
Q 1434 4750 2350 4750 
Q 2597 4750 2869 4703 
Q 3141 4656 3425 4563 
L 3425 3794 
L 3072 3794 
Q 3034 4109 2831 4275 
Q 2628 4441 2284 4441 
Q 1678 4441 1381 3981 
Q 1084 3522 1075 2569 
z
" transform="scale(0.015625)"/>
       </defs>
       <use xlink:href="#DejaVuSerif-30"/>
       <use xlink:href="#DejaVuSerif-2e" x="63.623047"/>
       <use xlink:href="#DejaVuSerif-36" x="95.410156"/>
      </g>
     </g>
    </g>
    <g id="ytick_5">
     <g id="line2d_41">
      <g>
       <use xlink:href="#m19a5352873" x="52.382813" y="49.809026" style="stroke: #000000; stroke-width: 0.8"/>
      </g>
     </g>
     <g id="text_12">
      <!-- 0.8 -->
      <g transform="translate(29.479688 53.608245) scale(0.1 -0.1)">
       <defs>
        <path id="DejaVuSerif-38" d="M 2981 1275 
Q 2981 1775 2732 2051 
Q 2484 2328 2034 2328 
Q 1584 2328 1336 2051 
Q 1088 1775 1088 1275 
Q 1088 772 1336 495 
Q 1584 219 2034 219 
Q 2484 219 2732 495 
Q 2981 772 2981 1275 
z
M 2853 3541 
Q 2853 3966 2637 4203 
Q 2422 4441 2034 4441 
Q 1650 4441 1433 4203 
Q 1216 3966 1216 3541 
Q 1216 3113 1433 2875 
Q 1650 2638 2034 2638 
Q 2422 2638 2637 2875 
Q 2853 3113 2853 3541 
z
M 2516 2484 
Q 3047 2413 3344 2092 
Q 3641 1772 3641 1275 
Q 3641 619 3225 264 
Q 2809 -91 2034 -91 
Q 1263 -91 845 264 
Q 428 619 428 1275 
Q 428 1772 725 2092 
Q 1022 2413 1556 2484 
Q 1084 2569 832 2842 
Q 581 3116 581 3541 
Q 581 4103 968 4426 
Q 1356 4750 2034 4750 
Q 2713 4750 3100 4426 
Q 3488 4103 3488 3541 
Q 3488 3116 3236 2842 
Q 2984 2569 2516 2484 
z
" transform="scale(0.015625)"/>
       </defs>
       <use xlink:href="#DejaVuSerif-30"/>
       <use xlink:href="#DejaVuSerif-2e" x="63.623047"/>
       <use xlink:href="#DejaVuSerif-38" x="95.410156"/>
      </g>
     </g>
    </g>
    <g id="ytick_6">
     <g id="line2d_42">
      <g>
       <use xlink:href="#m19a5352873" x="52.382813" y="27.816286" style="stroke: #000000; stroke-width: 0.8"/>
      </g>
     </g>
     <g id="text_13">
      <!-- 1.0 -->
      <g transform="translate(29.479688 31.615504) scale(0.1 -0.1)">
       <use xlink:href="#DejaVuSerif-31"/>
       <use xlink:href="#DejaVuSerif-2e" x="63.623047"/>
       <use xlink:href="#DejaVuSerif-30" x="95.410156"/>
      </g>
     </g>
    </g>
    <g id="text_14">
     <!-- Prob. of being in $S_t=1$ -->
     <g transform="translate(23.179688 140.848125) rotate(-90) scale(0.1 -0.1)">
      <defs>
       <path id="DejaVuSerif-50" d="M 1581 2375 
L 2406 2375 
Q 2872 2375 3115 2626 
Q 3359 2878 3359 3353 
Q 3359 3831 3115 4081 
Q 2872 4331 2406 4331 
L 1581 4331 
L 1581 2375 
z
M 353 0 
L 353 331 
L 947 331 
L 947 4331 
L 353 4331 
L 353 4666 
L 2559 4666 
Q 3259 4666 3668 4311 
Q 4078 3956 4078 3353 
Q 4078 2753 3668 2397 
Q 3259 2041 2559 2041 
L 1581 2041 
L 1581 331 
L 2303 331 
L 2303 0 
L 353 0 
z
" transform="scale(0.015625)"/>
       <path id="DejaVuSerif-72" d="M 3059 3328 
L 3059 2497 
L 2728 2497 
Q 2713 2744 2591 2866 
Q 2469 2988 2234 2988 
Q 1809 2988 1582 2694 
Q 1356 2400 1356 1850 
L 1356 331 
L 2022 331 
L 2022 0 
L 263 0 
L 263 331 
L 781 331 
L 781 2994 
L 231 2994 
L 231 3322 
L 1356 3322 
L 1356 2731 
Q 1525 3078 1790 3245 
Q 2056 3413 2438 3413 
Q 2578 3413 2733 3391 
Q 2888 3369 3059 3328 
z
" transform="scale(0.015625)"/>
       <path id="DejaVuSerif-6f" d="M 1925 219 
Q 2388 219 2623 584 
Q 2859 950 2859 1663 
Q 2859 2375 2623 2739 
Q 2388 3103 1925 3103 
Q 1463 3103 1227 2739 
Q 991 2375 991 1663 
Q 991 950 1228 584 
Q 1466 219 1925 219 
z
M 1925 -91 
Q 1200 -91 759 389 
Q 319 869 319 1663 
Q 319 2456 758 2934 
Q 1197 3413 1925 3413 
Q 2653 3413 3092 2934 
Q 3531 2456 3531 1663 
Q 3531 869 3092 389 
Q 2653 -91 1925 -91 
z
" transform="scale(0.015625)"/>
       <path id="DejaVuSerif-62" d="M 738 331 
L 738 4531 
L 184 4531 
L 184 4863 
L 1313 4863 
L 1313 2803 
Q 1481 3116 1742 3264 
Q 2003 3413 2388 3413 
Q 3000 3413 3387 2928 
Q 3775 2444 3775 1663 
Q 3775 881 3387 395 
Q 3000 -91 2388 -91 
Q 2003 -91 1742 57 
Q 1481 206 1313 519 
L 1313 0 
L 184 0 
L 184 331 
L 738 331 
z
M 1313 1497 
Q 1313 897 1542 583 
Q 1772 269 2209 269 
Q 2650 269 2876 622 
Q 3103 975 3103 1663 
Q 3103 2353 2876 2703 
Q 2650 3053 2209 3053 
Q 1772 3053 1542 2737 
Q 1313 2422 1313 1825 
L 1313 1497 
z
" transform="scale(0.015625)"/>
       <path id="DejaVuSerif-20" transform="scale(0.015625)"/>
       <path id="DejaVuSerif-66" d="M 2753 4078 
L 2450 4078 
Q 2447 4313 2317 4434 
Q 2188 4556 1941 4556 
Q 1619 4556 1487 4379 
Q 1356 4203 1356 3750 
L 1356 3322 
L 2284 3322 
L 2284 2988 
L 1356 2988 
L 1356 331 
L 2094 331 
L 2094 0 
L 231 0 
L 231 331 
L 781 331 
L 781 2988 
L 231 2988 
L 231 3322 
L 781 3322 
L 781 3738 
Q 781 4294 1070 4578 
Q 1359 4863 1919 4863 
Q 2128 4863 2337 4825 
Q 2547 4788 2753 4709 
L 2753 4078 
z
" transform="scale(0.015625)"/>
       <path id="DejaVuSerif-65" d="M 3469 1600 
L 991 1600 
L 991 1575 
Q 991 903 1244 561 
Q 1497 219 1991 219 
Q 2369 219 2611 417 
Q 2853 616 2950 1006 
L 3413 1006 
Q 3275 459 2904 184 
Q 2534 -91 1931 -91 
Q 1203 -91 761 389 
Q 319 869 319 1663 
Q 319 2450 753 2931 
Q 1188 3413 1894 3413 
Q 2647 3413 3050 2948 
Q 3453 2484 3469 1600 
z
M 2791 1931 
Q 2772 2513 2545 2808 
Q 2319 3103 1894 3103 
Q 1497 3103 1269 2806 
Q 1041 2509 991 1931 
L 2791 1931 
z
" transform="scale(0.015625)"/>
       <path id="DejaVuSerif-69" d="M 622 4353 
Q 622 4497 726 4603 
Q 831 4709 978 4709 
Q 1122 4709 1226 4603 
Q 1331 4497 1331 4353 
Q 1331 4206 1228 4103 
Q 1125 4000 978 4000 
Q 831 4000 726 4103 
Q 622 4206 622 4353 
z
M 1356 331 
L 1900 331 
L 1900 0 
L 231 0 
L 231 331 
L 781 331 
L 781 2988 
L 231 2988 
L 231 3322 
L 1356 3322 
L 1356 331 
z
" transform="scale(0.015625)"/>
       <path id="DejaVuSerif-6e" d="M 263 0 
L 263 331 
L 781 331 
L 781 2988 
L 231 2988 
L 231 3322 
L 1356 3322 
L 1356 2731 
Q 1516 3069 1770 3241 
Q 2025 3413 2363 3413 
Q 2913 3413 3172 3097 
Q 3431 2781 3431 2113 
L 3431 331 
L 3944 331 
L 3944 0 
L 2356 0 
L 2356 331 
L 2853 331 
L 2853 1931 
Q 2853 2541 2703 2767 
Q 2553 2994 2175 2994 
Q 1775 2994 1565 2701 
Q 1356 2409 1356 1850 
L 1356 331 
L 1856 331 
L 1856 0 
L 263 0 
z
" transform="scale(0.015625)"/>
       <path id="DejaVuSerif-67" d="M 3359 2988 
L 3359 72 
Q 3359 -644 2965 -1033 
Q 2572 -1422 1844 -1422 
Q 1516 -1422 1216 -1362 
Q 916 -1303 641 -1184 
L 641 -488 
L 941 -488 
Q 997 -813 1206 -963 
Q 1416 -1113 1806 -1113 
Q 2313 -1113 2548 -827 
Q 2784 -541 2784 72 
L 2784 519 
Q 2616 206 2355 57 
Q 2094 -91 1709 -91 
Q 1097 -91 708 395 
Q 319 881 319 1663 
Q 319 2444 706 2928 
Q 1094 3413 1709 3413 
Q 2094 3413 2355 3264 
Q 2616 3116 2784 2803 
L 2784 3322 
L 3909 3322 
L 3909 2988 
L 3359 2988 
z
M 2784 1825 
Q 2784 2422 2554 2737 
Q 2325 3053 1888 3053 
Q 1444 3053 1217 2703 
Q 991 2353 991 1663 
Q 991 975 1217 622 
Q 1444 269 1888 269 
Q 2325 269 2554 583 
Q 2784 897 2784 1497 
L 2784 1825 
z
" transform="scale(0.015625)"/>
       <path id="DejaVuSerif-Italic-53" d="M 184 225 
L 391 1288 
L 750 1284 
Q 663 753 905 498 
Q 1147 244 1744 244 
Q 2300 244 2636 464 
Q 2972 684 3053 1106 
Q 3119 1444 2976 1625 
Q 2834 1806 2300 1978 
L 1722 2163 
Q 1091 2366 877 2669 
Q 663 2972 766 3500 
Q 881 4094 1367 4422 
Q 1853 4750 2616 4750 
Q 2941 4750 3314 4679 
Q 3688 4609 4097 4475 
L 3906 3481 
L 3553 3481 
Q 3594 3975 3361 4195 
Q 3128 4416 2563 4416 
Q 2069 4416 1772 4214 
Q 1475 4013 1400 3628 
Q 1334 3294 1490 3103 
Q 1647 2913 2241 2725 
L 2784 2553 
Q 3381 2363 3593 2067 
Q 3806 1772 3709 1275 
Q 3578 597 3076 253 
Q 2575 -91 1716 -91 
Q 1331 -91 948 -12 
Q 566 66 184 225 
z
" transform="scale(0.015625)"/>
       <path id="DejaVuSerif-Italic-74" d="M 856 2988 
L 350 2988 
L 416 3322 
L 922 3322 
L 1122 4353 
L 1700 4353 
L 1500 3322 
L 2581 3322 
L 2516 2988 
L 1434 2988 
L 1025 878 
Q 978 631 978 488 
Q 978 388 1000 338 
Q 1059 219 1278 219 
Q 1503 219 1633 351 
Q 1763 484 1825 781 
L 2259 781 
Q 2147 328 1884 118 
Q 1622 -91 1169 -91 
Q 672 -91 506 131 
Q 406 266 406 516 
Q 406 675 447 878 
L 856 2988 
z
" transform="scale(0.015625)"/>
       <path id="DejaVuSerif-3d" d="M 678 2894 
L 4684 2894 
L 4684 2394 
L 678 2394 
L 678 2894 
z
M 678 1619 
L 4684 1619 
L 4684 1119 
L 678 1119 
L 678 1619 
z
" transform="scale(0.015625)"/>
      </defs>
      <use xlink:href="#DejaVuSerif-50" transform="translate(0 0.015625)"/>
      <use xlink:href="#DejaVuSerif-72" transform="translate(67.285156 0.015625)"/>
      <use xlink:href="#DejaVuSerif-6f" transform="translate(115.087891 0.015625)"/>
      <use xlink:href="#DejaVuSerif-62" transform="translate(175.292969 0.015625)"/>
      <use xlink:href="#DejaVuSerif-2e" transform="translate(239.306641 0.015625)"/>
      <use xlink:href="#DejaVuSerif-20" transform="translate(271.09375 0.015625)"/>
      <use xlink:href="#DejaVuSerif-6f" transform="translate(302.880859 0.015625)"/>
      <use xlink:href="#DejaVuSerif-66" transform="translate(363.085938 0.015625)"/>
      <use xlink:href="#DejaVuSerif-20" transform="translate(400.097656 0.015625)"/>
      <use xlink:href="#DejaVuSerif-62" transform="translate(431.884766 0.015625)"/>
      <use xlink:href="#DejaVuSerif-65" transform="translate(495.898438 0.015625)"/>
      <use xlink:href="#DejaVuSerif-69" transform="translate(555.078125 0.015625)"/>
      <use xlink:href="#DejaVuSerif-6e" transform="translate(587.060547 0.015625)"/>
      <use xlink:href="#DejaVuSerif-67" transform="translate(651.464844 0.015625)"/>
      <use xlink:href="#DejaVuSerif-20" transform="translate(715.478516 0.015625)"/>
      <use xlink:href="#DejaVuSerif-69" transform="translate(747.265625 0.015625)"/>
      <use xlink:href="#DejaVuSerif-6e" transform="translate(779.248047 0.015625)"/>
      <use xlink:href="#DejaVuSerif-20" transform="translate(843.652344 0.015625)"/>
      <use xlink:href="#DejaVuSerif-Italic-53" transform="translate(875.439453 0.015625)"/>
      <use xlink:href="#DejaVuSerif-Italic-74" transform="translate(943.945312 -15.55625) scale(0.7)"/>
      <use xlink:href="#DejaVuSerif-3d" transform="translate(993.635352 0.015625)"/>
      <use xlink:href="#DejaVuSerif-31" transform="translate(1096.389258 0.015625)"/>
     </g>
    </g>
   </g>
   <g id="line2d_43">
    <path d="M 52.382812 34.922613 
L 54.915578 29.540962 
L 57.448344 28.050086 
L 59.98111 27.953005 
L 62.513876 28.163635 
L 65.046642 34.982049 
L 67.579408 132.116974 
L 70.112174 137.530647 
L 72.64494 137.739527 
L 75.177706 136.568372 
L 77.710472 136.740952 
L 80.243238 137.462062 
L 82.776004 137.654073 
L 87.841536 137.636377 
L 105.570898 137.739377 
L 118.234727 137.61055 
L 120.767493 136.782126 
L 123.300259 135.831244 
L 125.833025 135.342175 
L 128.365791 131.888559 
L 130.898557 122.210039 
L 133.431323 105.462167 
L 135.964089 91.68559 
L 138.496855 100.911317 
L 141.029621 130.281984 
L 143.562387 137.364504 
L 146.095153 137.737195 
L 148.627919 137.558092 
L 151.160685 136.044857 
L 153.693451 135.469136 
L 156.226217 136.852479 
L 158.758983 137.539377 
L 161.291749 137.770932 
L 166.357281 137.751439 
L 168.890047 137.543884 
L 171.422813 136.365645 
L 173.955578 137.766228 
L 181.553876 137.770958 
L 184.086642 137.252585 
L 191.68494 137.709256 
L 194.217706 137.608161 
L 201.816004 137.618473 
L 204.34877 136.972231 
L 206.881536 134.820728 
L 209.414302 129.170907 
L 211.947068 121.983114 
L 214.479834 109.536926 
L 217.0126 82.503636 
L 219.545366 61.535772 
L 222.078132 37.779134 
L 224.610898 29.590724 
L 227.143664 28.180685 
L 229.67643 27.891612 
L 232.209195 27.834928 
L 234.741961 27.896704 
L 237.274727 28.695002 
L 239.807493 37.017323 
L 242.340259 132.297992 
L 244.873025 137.604232 
L 247.405791 137.589781 
L 249.938557 135.592907 
L 252.471323 107.846446 
L 255.004089 28.354762 
L 257.536855 27.818228 
L 262.602387 27.825517 
L 265.135153 30.670324 
L 267.667919 30.202621 
L 270.200685 36.189641 
L 272.733451 98.967719 
L 275.266217 134.527807 
L 277.798983 137.776335 
L 330.987068 137.7519 
L 338.585366 137.458207 
L 343.650898 137.650241 
L 351.249195 137.760891 
L 363.913025 137.779713 
L 366.445791 137.585757 
L 368.978557 27.823457 
L 376.576855 27.841264 
L 379.109621 137.769869 
L 409.502812 137.750691 
L 409.502812 137.750691 
" clip-path="url(#p4d625413f0)" style="fill: none; stroke: #1f77b4; stroke-width: 1.5; stroke-linecap: square"/>
   </g>
   <g id="patch_37">
    <path d="M 52.382813 143.278125 
L 52.382813 22.318125 
" style="fill: none; stroke: #000000; stroke-width: 0.8; stroke-linejoin: miter; stroke-linecap: square"/>
   </g>
   <g id="patch_38">
    <path d="M 409.502813 143.278125 
L 409.502813 22.318125 
" style="fill: none; stroke: #000000; stroke-width: 0.8; stroke-linejoin: miter; stroke-linecap: square"/>
   </g>
   <g id="patch_39">
    <path d="M 52.382812 143.278125 
L 409.502812 143.278125 
" style="fill: none; stroke: #000000; stroke-width: 0.8; stroke-linejoin: miter; stroke-linecap: square"/>
   </g>
   <g id="patch_40">
    <path d="M 52.382812 22.318125 
L 409.502812 22.318125 
" style="fill: none; stroke: #000000; stroke-width: 0.8; stroke-linejoin: miter; stroke-linecap: square"/>
   </g>
   <g id="text_15">
    <!-- United Kingdom -->
    <g transform="translate(181.142812 16.318125) scale(0.12 -0.12)">
     <defs>
      <path id="DejaVuSerif-55" d="M 897 4331 
L 300 4331 
L 300 4666 
L 2125 4666 
L 2125 4331 
L 1528 4331 
L 1528 1919 
Q 1528 1025 1820 672 
Q 2113 319 2828 319 
Q 3544 319 3836 672 
Q 4128 1025 4128 1919 
L 4128 4331 
L 3531 4331 
L 3531 4666 
L 5106 4666 
L 5106 4331 
L 4513 4331 
L 4513 1856 
Q 4513 791 4103 350 
Q 3694 -91 2713 -91 
Q 1731 -91 1314 353 
Q 897 797 897 1856 
L 897 4331 
z
" transform="scale(0.015625)"/>
      <path id="DejaVuSerif-74" d="M 691 2988 
L 184 2988 
L 184 3322 
L 691 3322 
L 691 4353 
L 1269 4353 
L 1269 3322 
L 2350 3322 
L 2350 2988 
L 1269 2988 
L 1269 878 
Q 1269 456 1350 337 
Q 1431 219 1650 219 
Q 1875 219 1978 351 
Q 2081 484 2088 781 
L 2522 781 
Q 2497 328 2275 118 
Q 2053 -91 1600 -91 
Q 1103 -91 897 129 
Q 691 350 691 878 
L 691 2988 
z
" transform="scale(0.015625)"/>
      <path id="DejaVuSerif-64" d="M 3359 331 
L 3909 331 
L 3909 0 
L 2784 0 
L 2784 519 
Q 2616 206 2355 57 
Q 2094 -91 1709 -91 
Q 1097 -91 708 395 
Q 319 881 319 1663 
Q 319 2444 706 2928 
Q 1094 3413 1709 3413 
Q 2094 3413 2355 3264 
Q 2616 3116 2784 2803 
L 2784 4531 
L 2241 4531 
L 2241 4863 
L 3359 4863 
L 3359 331 
z
M 2784 1497 
L 2784 1825 
Q 2784 2422 2554 2737 
Q 2325 3053 1888 3053 
Q 1444 3053 1217 2703 
Q 991 2353 991 1663 
Q 991 975 1217 622 
Q 1444 269 1888 269 
Q 2325 269 2554 583 
Q 2784 897 2784 1497 
z
" transform="scale(0.015625)"/>
      <path id="DejaVuSerif-4b" d="M 353 0 
L 353 331 
L 947 331 
L 947 4331 
L 353 4331 
L 353 4666 
L 2175 4666 
L 2175 4331 
L 1581 4331 
L 1581 2566 
L 3591 4331 
L 3084 4331 
L 3084 4666 
L 4634 4666 
L 4634 4331 
L 4109 4331 
L 2106 2572 
L 4347 331 
L 4878 331 
L 4878 0 
L 3794 0 
L 1581 2216 
L 1581 331 
L 2175 331 
L 2175 0 
L 353 0 
z
" transform="scale(0.015625)"/>
      <path id="DejaVuSerif-6d" d="M 3316 2675 
Q 3481 3041 3739 3227 
Q 3997 3413 4341 3413 
Q 4863 3413 5119 3089 
Q 5375 2766 5375 2113 
L 5375 331 
L 5894 331 
L 5894 0 
L 4300 0 
L 4300 331 
L 4800 331 
L 4800 2047 
Q 4800 2556 4650 2772 
Q 4500 2988 4153 2988 
Q 3769 2988 3567 2697 
Q 3366 2406 3366 1850 
L 3366 331 
L 3866 331 
L 3866 0 
L 2291 0 
L 2291 331 
L 2791 331 
L 2791 2069 
Q 2791 2566 2641 2777 
Q 2491 2988 2144 2988 
Q 1759 2988 1557 2697 
Q 1356 2406 1356 1850 
L 1356 331 
L 1856 331 
L 1856 0 
L 263 0 
L 263 331 
L 781 331 
L 781 2994 
L 231 2994 
L 231 3322 
L 1356 3322 
L 1356 2731 
Q 1516 3063 1762 3238 
Q 2009 3413 2322 3413 
Q 2709 3413 2968 3220 
Q 3228 3028 3316 2675 
z
" transform="scale(0.015625)"/>
     </defs>
     <use xlink:href="#DejaVuSerif-55"/>
     <use xlink:href="#DejaVuSerif-6e" x="84.277344"/>
     <use xlink:href="#DejaVuSerif-69" x="148.681641"/>
     <use xlink:href="#DejaVuSerif-74" x="180.664062"/>
     <use xlink:href="#DejaVuSerif-65" x="220.849609"/>
     <use xlink:href="#DejaVuSerif-64" x="280.029297"/>
     <use xlink:href="#DejaVuSerif-20" x="344.042969"/>
     <use xlink:href="#DejaVuSerif-4b" x="375.830078"/>
     <use xlink:href="#DejaVuSerif-69" x="450.537109"/>
     <use xlink:href="#DejaVuSerif-6e" x="482.519531"/>
     <use xlink:href="#DejaVuSerif-67" x="546.923828"/>
     <use xlink:href="#DejaVuSerif-64" x="610.9375"/>
     <use xlink:href="#DejaVuSerif-6f" x="674.951172"/>
     <use xlink:href="#DejaVuSerif-6d" x="735.15625"/>
    </g>
   </g>
  </g>
  <g id="axes_2">
   <g id="patch_41">
    <path d="M 52.382813 288.430125 
L 409.502813 288.430125 
L 409.502813 167.470125 
L 52.382813 167.470125 
z
" style="fill: #ffffff"/>
   </g>
   <g id="patch_42">
    <path d="M -1282.384847 288.430125 
L -1267.188251 288.430125 
L -1267.188251 167.470125 
L -1282.384847 167.470125 
z
" clip-path="url(#p2d88e77950)" style="fill: #d3d3d3"/>
   </g>
   <g id="patch_43">
    <path d="M -1249.45889 288.430125 
L -1239.327826 288.430125 
L -1239.327826 167.470125 
L -1249.45889 167.470125 
z
" clip-path="url(#p2d88e77950)" style="fill: #d3d3d3"/>
   </g>
   <g id="patch_44">
    <path d="M -1203.869102 288.430125 
L -1183.606975 288.430125 
L -1183.606975 167.470125 
L -1203.869102 167.470125 
z
" clip-path="url(#p2d88e77950)" style="fill: #d3d3d3"/>
   </g>
   <g id="patch_45">
    <path d="M -1160.812081 288.430125 
L -1145.615485 288.430125 
L -1145.615485 167.470125 
L -1160.812081 167.470125 
z
" clip-path="url(#p2d88e77950)" style="fill: #d3d3d3"/>
   </g>
   <g id="patch_46">
    <path d="M -1117.75506 288.430125 
L -1062.034209 288.430125 
L -1062.034209 167.470125 
L -1117.75506 167.470125 
z
" clip-path="url(#p2d88e77950)" style="fill: #d3d3d3"/>
   </g>
   <g id="patch_47">
    <path d="M -1031.641017 288.430125 
L -998.71506 288.430125 
L -998.71506 167.470125 
L -1031.641017 167.470125 
z
" clip-path="url(#p2d88e77950)" style="fill: #d3d3d3"/>
   </g>
   <g id="patch_48">
    <path d="M -978.452932 288.430125 
L -970.854634 288.430125 
L -970.854634 167.470125 
L -978.452932 167.470125 
z
" clip-path="url(#p2d88e77950)" style="fill: #d3d3d3"/>
   </g>
   <g id="patch_49">
    <path d="M -945.526975 288.430125 
L -937.928677 288.430125 
L -937.928677 167.470125 
L -945.526975 167.470125 
z
" clip-path="url(#p2d88e77950)" style="fill: #d3d3d3"/>
   </g>
   <g id="patch_50">
    <path d="M -920.199315 288.430125 
L -907.535485 288.430125 
L -907.535485 167.470125 
L -920.199315 167.470125 
z
" clip-path="url(#p2d88e77950)" style="fill: #d3d3d3"/>
   </g>
   <g id="patch_51">
    <path d="M -892.33889 288.430125 
L -877.142294 288.430125 
L -877.142294 167.470125 
L -892.33889 167.470125 
z
" clip-path="url(#p2d88e77950)" style="fill: #d3d3d3"/>
   </g>
   <g id="patch_52">
    <path d="M -854.3474 288.430125 
L -841.68357 288.430125 
L -841.68357 167.470125 
L -854.3474 167.470125 
z
" clip-path="url(#p2d88e77950)" style="fill: #d3d3d3"/>
   </g>
   <g id="patch_53">
    <path d="M -821.421443 288.430125 
L -803.692081 288.430125 
L -803.692081 167.470125 
L -821.421443 167.470125 
z
" clip-path="url(#p2d88e77950)" style="fill: #d3d3d3"/>
   </g>
   <g id="patch_54">
    <path d="M -775.831656 288.430125 
L -765.700592 288.430125 
L -765.700592 167.470125 
L -775.831656 167.470125 
z
" clip-path="url(#p2d88e77950)" style="fill: #d3d3d3"/>
   </g>
   <g id="patch_55">
    <path d="M -747.97123 288.430125 
L -730.241868 288.430125 
L -730.241868 167.470125 
L -747.97123 167.470125 
z
" clip-path="url(#p2d88e77950)" style="fill: #d3d3d3"/>
   </g>
   <g id="patch_56">
    <path d="M -717.578039 288.430125 
L -699.848677 288.430125 
L -699.848677 167.470125 
L -717.578039 167.470125 
z
" clip-path="url(#p2d88e77950)" style="fill: #d3d3d3"/>
   </g>
   <g id="patch_57">
    <path d="M -661.857188 288.430125 
L -656.791656 288.430125 
L -656.791656 167.470125 
L -661.857188 167.470125 
z
" clip-path="url(#p2d88e77950)" style="fill: #d3d3d3"/>
   </g>
   <g id="patch_58">
    <path d="M -646.660592 288.430125 
L -631.463996 288.430125 
L -631.463996 167.470125 
L -646.660592 167.470125 
z
" clip-path="url(#p2d88e77950)" style="fill: #d3d3d3"/>
   </g>
   <g id="patch_59">
    <path d="M -613.734634 288.430125 
L -601.070805 288.430125 
L -601.070805 167.470125 
L -613.734634 167.470125 
z
" clip-path="url(#p2d88e77950)" style="fill: #d3d3d3"/>
   </g>
   <g id="patch_60">
    <path d="M -580.808677 288.430125 
L -568.144847 288.430125 
L -568.144847 167.470125 
L -580.808677 167.470125 
z
" clip-path="url(#p2d88e77950)" style="fill: #d3d3d3"/>
   </g>
   <g id="patch_61">
    <path d="M -550.415485 288.430125 
L -514.956762 288.430125 
L -514.956762 167.470125 
L -550.415485 167.470125 
z
" clip-path="url(#p2d88e77950)" style="fill: #d3d3d3"/>
   </g>
   <g id="patch_62">
    <path d="M -471.899741 288.430125 
L -461.768677 288.430125 
L -461.768677 167.470125 
L -471.899741 167.470125 
z
" clip-path="url(#p2d88e77950)" style="fill: #d3d3d3"/>
   </g>
   <g id="patch_63">
    <path d="M -393.383996 288.430125 
L -385.785698 288.430125 
L -385.785698 167.470125 
L -393.383996 167.470125 
z
" clip-path="url(#p2d88e77950)" style="fill: #d3d3d3"/>
   </g>
   <g id="patch_64">
    <path d="M -355.392507 288.430125 
L -345.261443 288.430125 
L -345.261443 167.470125 
L -355.392507 167.470125 
z
" clip-path="url(#p2d88e77950)" style="fill: #d3d3d3"/>
   </g>
   <g id="patch_65">
    <path d="M -309.802719 288.430125 
L -299.671656 288.430125 
L -299.671656 167.470125 
L -309.802719 167.470125 
z
" clip-path="url(#p2d88e77950)" style="fill: #d3d3d3"/>
   </g>
   <g id="patch_66">
    <path d="M -266.745698 288.430125 
L -259.1474 288.430125 
L -259.1474 167.470125 
L -266.745698 167.470125 
z
" clip-path="url(#p2d88e77950)" style="fill: #d3d3d3"/>
   </g>
   <g id="patch_67">
    <path d="M -238.885273 288.430125 
L -231.286975 288.430125 
L -231.286975 167.470125 
L -238.885273 167.470125 
z
" clip-path="url(#p2d88e77950)" style="fill: #d3d3d3"/>
   </g>
   <g id="patch_68">
    <path d="M -142.640166 288.430125 
L -132.509102 288.430125 
L -132.509102 167.470125 
L -142.640166 167.470125 
z
" clip-path="url(#p2d88e77950)" style="fill: #d3d3d3"/>
   </g>
   <g id="patch_69">
    <path d="M -102.115911 288.430125 
L -89.452081 288.430125 
L -89.452081 167.470125 
L -102.115911 167.470125 
z
" clip-path="url(#p2d88e77950)" style="fill: #d3d3d3"/>
   </g>
   <g id="patch_70">
    <path d="M -38.796762 288.430125 
L -33.73123 288.430125 
L -33.73123 167.470125 
L -38.796762 167.470125 
z
" clip-path="url(#p2d88e77950)" style="fill: #d3d3d3"/>
   </g>
   <g id="patch_71">
    <path d="M -23.600166 288.430125 
L -10.936336 288.430125 
L -10.936336 167.470125 
L -23.600166 167.470125 
z
" clip-path="url(#p2d88e77950)" style="fill: #d3d3d3"/>
   </g>
   <g id="patch_72">
    <path d="M 67.579408 288.430125 
L 72.64494 288.430125 
L 72.64494 167.470125 
L 67.579408 167.470125 
z
" clip-path="url(#p2d88e77950)" style="fill: #d3d3d3"/>
   </g>
   <g id="patch_73">
    <path d="M 173.955578 288.430125 
L 181.553876 288.430125 
L 181.553876 167.470125 
L 173.955578 167.470125 
z
" clip-path="url(#p2d88e77950)" style="fill: #d3d3d3"/>
   </g>
   <g id="patch_74">
    <path d="M 242.340259 288.430125 
L 257.536855 288.430125 
L 257.536855 167.470125 
L 242.340259 167.470125 
z
" clip-path="url(#p2d88e77950)" style="fill: #d3d3d3"/>
   </g>
   <g id="patch_75">
    <path d="M 363.913025 288.430125 
L 368.978557 288.430125 
L 368.978557 167.470125 
L 363.913025 167.470125 
z
" clip-path="url(#p2d88e77950)" style="fill: #d3d3d3"/>
   </g>
   <g id="matplotlib.axis_3">
    <g id="xtick_37">
     <g id="line2d_44">
      <g>
       <use xlink:href="#mc8410e6987" x="62.513876" y="288.430125" style="stroke: #000000; stroke-width: 0.8"/>
      </g>
     </g>
     <g id="text_16">
      <!-- 1990 -->
      <g transform="translate(49.788876 303.028562) scale(0.1 -0.1)">
       <use xlink:href="#DejaVuSerif-31"/>
       <use xlink:href="#DejaVuSerif-39" x="63.623047"/>
       <use xlink:href="#DejaVuSerif-39" x="127.246094"/>
       <use xlink:href="#DejaVuSerif-30" x="190.869141"/>
      </g>
     </g>
    </g>
    <g id="xtick_38">
     <g id="line2d_45">
      <g>
       <use xlink:href="#mc8410e6987" x="113.169195" y="288.430125" style="stroke: #000000; stroke-width: 0.8"/>
      </g>
     </g>
     <g id="text_17">
      <!-- 1995 -->
      <g transform="translate(100.444195 303.028562) scale(0.1 -0.1)">
       <use xlink:href="#DejaVuSerif-31"/>
       <use xlink:href="#DejaVuSerif-39" x="63.623047"/>
       <use xlink:href="#DejaVuSerif-39" x="127.246094"/>
       <use xlink:href="#DejaVuSerif-35" x="190.869141"/>
      </g>
     </g>
    </g>
    <g id="xtick_39">
     <g id="line2d_46">
      <g>
       <use xlink:href="#mc8410e6987" x="163.824515" y="288.430125" style="stroke: #000000; stroke-width: 0.8"/>
      </g>
     </g>
     <g id="text_18">
      <!-- 2000 -->
      <g transform="translate(151.099515 303.028562) scale(0.1 -0.1)">
       <use xlink:href="#DejaVuSerif-32"/>
       <use xlink:href="#DejaVuSerif-30" x="63.623047"/>
       <use xlink:href="#DejaVuSerif-30" x="127.246094"/>
       <use xlink:href="#DejaVuSerif-30" x="190.869141"/>
      </g>
     </g>
    </g>
    <g id="xtick_40">
     <g id="line2d_47">
      <g>
       <use xlink:href="#mc8410e6987" x="214.479834" y="288.430125" style="stroke: #000000; stroke-width: 0.8"/>
      </g>
     </g>
     <g id="text_19">
      <!-- 2005 -->
      <g transform="translate(201.754834 303.028562) scale(0.1 -0.1)">
       <use xlink:href="#DejaVuSerif-32"/>
       <use xlink:href="#DejaVuSerif-30" x="63.623047"/>
       <use xlink:href="#DejaVuSerif-30" x="127.246094"/>
       <use xlink:href="#DejaVuSerif-35" x="190.869141"/>
      </g>
     </g>
    </g>
    <g id="xtick_41">
     <g id="line2d_48">
      <g>
       <use xlink:href="#mc8410e6987" x="265.135153" y="288.430125" style="stroke: #000000; stroke-width: 0.8"/>
      </g>
     </g>
     <g id="text_20">
      <!-- 2010 -->
      <g transform="translate(252.410153 303.028562) scale(0.1 -0.1)">
       <use xlink:href="#DejaVuSerif-32"/>
       <use xlink:href="#DejaVuSerif-30" x="63.623047"/>
       <use xlink:href="#DejaVuSerif-31" x="127.246094"/>
       <use xlink:href="#DejaVuSerif-30" x="190.869141"/>
      </g>
     </g>
    </g>
    <g id="xtick_42">
     <g id="line2d_49">
      <g>
       <use xlink:href="#mc8410e6987" x="315.790472" y="288.430125" style="stroke: #000000; stroke-width: 0.8"/>
      </g>
     </g>
     <g id="text_21">
      <!-- 2015 -->
      <g transform="translate(303.065472 303.028562) scale(0.1 -0.1)">
       <use xlink:href="#DejaVuSerif-32"/>
       <use xlink:href="#DejaVuSerif-30" x="63.623047"/>
       <use xlink:href="#DejaVuSerif-31" x="127.246094"/>
       <use xlink:href="#DejaVuSerif-35" x="190.869141"/>
      </g>
     </g>
    </g>
    <g id="xtick_43">
     <g id="line2d_50">
      <g>
       <use xlink:href="#mc8410e6987" x="366.445791" y="288.430125" style="stroke: #000000; stroke-width: 0.8"/>
      </g>
     </g>
     <g id="text_22">
      <!-- 2020 -->
      <g transform="translate(353.720791 303.028562) scale(0.1 -0.1)">
       <use xlink:href="#DejaVuSerif-32"/>
       <use xlink:href="#DejaVuSerif-30" x="63.623047"/>
       <use xlink:href="#DejaVuSerif-32" x="127.246094"/>
       <use xlink:href="#DejaVuSerif-30" x="190.869141"/>
      </g>
     </g>
    </g>
    <g id="xtick_44">
     <g id="line2d_51">
      <g>
       <use xlink:href="#me5bd21f42d" x="52.382812" y="288.430125" style="stroke: #000000; stroke-width: 0.6"/>
      </g>
     </g>
    </g>
    <g id="xtick_45">
     <g id="line2d_52">
      <g>
       <use xlink:href="#me5bd21f42d" x="72.64494" y="288.430125" style="stroke: #000000; stroke-width: 0.6"/>
      </g>
     </g>
    </g>
    <g id="xtick_46">
     <g id="line2d_53">
      <g>
       <use xlink:href="#me5bd21f42d" x="82.776004" y="288.430125" style="stroke: #000000; stroke-width: 0.6"/>
      </g>
     </g>
    </g>
    <g id="xtick_47">
     <g id="line2d_54">
      <g>
       <use xlink:href="#me5bd21f42d" x="92.907068" y="288.430125" style="stroke: #000000; stroke-width: 0.6"/>
      </g>
     </g>
    </g>
    <g id="xtick_48">
     <g id="line2d_55">
      <g>
       <use xlink:href="#me5bd21f42d" x="103.038132" y="288.430125" style="stroke: #000000; stroke-width: 0.6"/>
      </g>
     </g>
    </g>
    <g id="xtick_49">
     <g id="line2d_56">
      <g>
       <use xlink:href="#me5bd21f42d" x="123.300259" y="288.430125" style="stroke: #000000; stroke-width: 0.6"/>
      </g>
     </g>
    </g>
    <g id="xtick_50">
     <g id="line2d_57">
      <g>
       <use xlink:href="#me5bd21f42d" x="133.431323" y="288.430125" style="stroke: #000000; stroke-width: 0.6"/>
      </g>
     </g>
    </g>
    <g id="xtick_51">
     <g id="line2d_58">
      <g>
       <use xlink:href="#me5bd21f42d" x="143.562387" y="288.430125" style="stroke: #000000; stroke-width: 0.6"/>
      </g>
     </g>
    </g>
    <g id="xtick_52">
     <g id="line2d_59">
      <g>
       <use xlink:href="#me5bd21f42d" x="153.693451" y="288.430125" style="stroke: #000000; stroke-width: 0.6"/>
      </g>
     </g>
    </g>
    <g id="xtick_53">
     <g id="line2d_60">
      <g>
       <use xlink:href="#me5bd21f42d" x="173.955578" y="288.430125" style="stroke: #000000; stroke-width: 0.6"/>
      </g>
     </g>
    </g>
    <g id="xtick_54">
     <g id="line2d_61">
      <g>
       <use xlink:href="#me5bd21f42d" x="184.086642" y="288.430125" style="stroke: #000000; stroke-width: 0.6"/>
      </g>
     </g>
    </g>
    <g id="xtick_55">
     <g id="line2d_62">
      <g>
       <use xlink:href="#me5bd21f42d" x="194.217706" y="288.430125" style="stroke: #000000; stroke-width: 0.6"/>
      </g>
     </g>
    </g>
    <g id="xtick_56">
     <g id="line2d_63">
      <g>
       <use xlink:href="#me5bd21f42d" x="204.34877" y="288.430125" style="stroke: #000000; stroke-width: 0.6"/>
      </g>
     </g>
    </g>
    <g id="xtick_57">
     <g id="line2d_64">
      <g>
       <use xlink:href="#me5bd21f42d" x="224.610898" y="288.430125" style="stroke: #000000; stroke-width: 0.6"/>
      </g>
     </g>
    </g>
    <g id="xtick_58">
     <g id="line2d_65">
      <g>
       <use xlink:href="#me5bd21f42d" x="234.741961" y="288.430125" style="stroke: #000000; stroke-width: 0.6"/>
      </g>
     </g>
    </g>
    <g id="xtick_59">
     <g id="line2d_66">
      <g>
       <use xlink:href="#me5bd21f42d" x="244.873025" y="288.430125" style="stroke: #000000; stroke-width: 0.6"/>
      </g>
     </g>
    </g>
    <g id="xtick_60">
     <g id="line2d_67">
      <g>
       <use xlink:href="#me5bd21f42d" x="255.004089" y="288.430125" style="stroke: #000000; stroke-width: 0.6"/>
      </g>
     </g>
    </g>
    <g id="xtick_61">
     <g id="line2d_68">
      <g>
       <use xlink:href="#me5bd21f42d" x="275.266217" y="288.430125" style="stroke: #000000; stroke-width: 0.6"/>
      </g>
     </g>
    </g>
    <g id="xtick_62">
     <g id="line2d_69">
      <g>
       <use xlink:href="#me5bd21f42d" x="285.397281" y="288.430125" style="stroke: #000000; stroke-width: 0.6"/>
      </g>
     </g>
    </g>
    <g id="xtick_63">
     <g id="line2d_70">
      <g>
       <use xlink:href="#me5bd21f42d" x="295.528344" y="288.430125" style="stroke: #000000; stroke-width: 0.6"/>
      </g>
     </g>
    </g>
    <g id="xtick_64">
     <g id="line2d_71">
      <g>
       <use xlink:href="#me5bd21f42d" x="305.659408" y="288.430125" style="stroke: #000000; stroke-width: 0.6"/>
      </g>
     </g>
    </g>
    <g id="xtick_65">
     <g id="line2d_72">
      <g>
       <use xlink:href="#me5bd21f42d" x="325.921536" y="288.430125" style="stroke: #000000; stroke-width: 0.6"/>
      </g>
     </g>
    </g>
    <g id="xtick_66">
     <g id="line2d_73">
      <g>
       <use xlink:href="#me5bd21f42d" x="336.0526" y="288.430125" style="stroke: #000000; stroke-width: 0.6"/>
      </g>
     </g>
    </g>
    <g id="xtick_67">
     <g id="line2d_74">
      <g>
       <use xlink:href="#me5bd21f42d" x="346.183664" y="288.430125" style="stroke: #000000; stroke-width: 0.6"/>
      </g>
     </g>
    </g>
    <g id="xtick_68">
     <g id="line2d_75">
      <g>
       <use xlink:href="#me5bd21f42d" x="356.314727" y="288.430125" style="stroke: #000000; stroke-width: 0.6"/>
      </g>
     </g>
    </g>
    <g id="xtick_69">
     <g id="line2d_76">
      <g>
       <use xlink:href="#me5bd21f42d" x="376.576855" y="288.430125" style="stroke: #000000; stroke-width: 0.6"/>
      </g>
     </g>
    </g>
    <g id="xtick_70">
     <g id="line2d_77">
      <g>
       <use xlink:href="#me5bd21f42d" x="386.707919" y="288.430125" style="stroke: #000000; stroke-width: 0.6"/>
      </g>
     </g>
    </g>
    <g id="xtick_71">
     <g id="line2d_78">
      <g>
       <use xlink:href="#me5bd21f42d" x="396.838983" y="288.430125" style="stroke: #000000; stroke-width: 0.6"/>
      </g>
     </g>
    </g>
    <g id="xtick_72">
     <g id="line2d_79">
      <g>
       <use xlink:href="#me5bd21f42d" x="406.970047" y="288.430125" style="stroke: #000000; stroke-width: 0.6"/>
      </g>
     </g>
    </g>
   </g>
   <g id="matplotlib.axis_4">
    <g id="ytick_7">
     <g id="line2d_80">
      <path d="M 52.382813 270.848109 
L 409.502813 270.848109 
" clip-path="url(#p2d88e77950)" style="fill: none; stroke-dasharray: 2.96,1.28; stroke-dashoffset: 0; stroke: #b0b0b0; stroke-width: 0.8"/>
     </g>
     <g id="line2d_81">
      <g>
       <use xlink:href="#m19a5352873" x="52.382813" y="270.848109" style="stroke: #000000; stroke-width: 0.8"/>
      </g>
     </g>
     <g id="text_23">
      <!-- 0.2 -->
      <g transform="translate(21.1 274.647327) scale(0.1 -0.1)">
       <defs>
        <path id="DejaVuSerif-2212" d="M 678 2259 
L 4684 2259 
L 4684 1753 
L 678 1753 
L 678 2259 
z
" transform="scale(0.015625)"/>
       </defs>
       <use xlink:href="#DejaVuSerif-2212"/>
       <use xlink:href="#DejaVuSerif-30" x="83.789062"/>
       <use xlink:href="#DejaVuSerif-2e" x="147.412109"/>
       <use xlink:href="#DejaVuSerif-32" x="179.199219"/>
      </g>
     </g>
    </g>
    <g id="ytick_8">
     <g id="line2d_82">
      <path d="M 52.382813 237.016762 
L 409.502813 237.016762 
" clip-path="url(#p2d88e77950)" style="fill: none; stroke-dasharray: 2.96,1.28; stroke-dashoffset: 0; stroke: #b0b0b0; stroke-width: 0.8"/>
     </g>
     <g id="line2d_83">
      <g>
       <use xlink:href="#m19a5352873" x="52.382813" y="237.016762" style="stroke: #000000; stroke-width: 0.8"/>
      </g>
     </g>
     <g id="text_24">
      <!-- 0.1 -->
      <g transform="translate(21.1 240.815981) scale(0.1 -0.1)">
       <use xlink:href="#DejaVuSerif-2212"/>
       <use xlink:href="#DejaVuSerif-30" x="83.789062"/>
       <use xlink:href="#DejaVuSerif-2e" x="147.412109"/>
       <use xlink:href="#DejaVuSerif-31" x="179.199219"/>
      </g>
     </g>
    </g>
    <g id="ytick_9">
     <g id="line2d_84">
      <path d="M 52.382813 203.185416 
L 409.502813 203.185416 
" clip-path="url(#p2d88e77950)" style="fill: none; stroke-dasharray: 2.96,1.28; stroke-dashoffset: 0; stroke: #b0b0b0; stroke-width: 0.8"/>
     </g>
     <g id="line2d_85">
      <g>
       <use xlink:href="#m19a5352873" x="52.382813" y="203.185416" style="stroke: #000000; stroke-width: 0.8"/>
      </g>
     </g>
     <g id="text_25">
      <!-- 0.0 -->
      <g transform="translate(29.479688 206.984635) scale(0.1 -0.1)">
       <use xlink:href="#DejaVuSerif-30"/>
       <use xlink:href="#DejaVuSerif-2e" x="63.623047"/>
       <use xlink:href="#DejaVuSerif-30" x="95.410156"/>
      </g>
     </g>
    </g>
    <g id="ytick_10">
     <g id="line2d_86">
      <path d="M 52.382813 169.35407 
L 409.502813 169.35407 
" clip-path="url(#p2d88e77950)" style="fill: none; stroke-dasharray: 2.96,1.28; stroke-dashoffset: 0; stroke: #b0b0b0; stroke-width: 0.8"/>
     </g>
     <g id="line2d_87">
      <g>
       <use xlink:href="#m19a5352873" x="52.382813" y="169.35407" style="stroke: #000000; stroke-width: 0.8"/>
      </g>
     </g>
     <g id="text_26">
      <!-- 0.1 -->
      <g transform="translate(29.479688 173.153288) scale(0.1 -0.1)">
       <use xlink:href="#DejaVuSerif-30"/>
       <use xlink:href="#DejaVuSerif-2e" x="63.623047"/>
       <use xlink:href="#DejaVuSerif-31" x="95.410156"/>
      </g>
     </g>
    </g>
    <g id="text_27">
     <!-- $\Delta\log v_t$ -->
     <g transform="translate(14.8 244.550125) rotate(-90) scale(0.1 -0.1)">
      <defs>
       <path id="DejaVuSerif-394" d="M 4350 0 
L 244 0 
L 2034 4666 
L 2559 4666 
L 4350 0 
z
M 3506 331 
L 2138 3909 
L 763 331 
L 3506 331 
z
" transform="scale(0.015625)"/>
       <path id="DejaVuSerif-6c" d="M 1313 331 
L 1856 331 
L 1856 0 
L 184 0 
L 184 331 
L 738 331 
L 738 4531 
L 184 4531 
L 184 4863 
L 1313 4863 
L 1313 331 
z
" transform="scale(0.015625)"/>
       <path id="DejaVuSerif-Italic-76" d="M 1681 0 
L 1259 0 
L 619 2988 
L 241 2988 
L 303 3322 
L 1163 3322 
L 1725 703 
Q 2084 1016 2325 1413 
Q 2825 2238 3003 2988 
L 2622 2988 
L 2688 3322 
L 3547 3322 
Q 3206 2034 2775 1313 
Q 2400 688 1681 0 
z
" transform="scale(0.015625)"/>
      </defs>
      <use xlink:href="#DejaVuSerif-394" transform="translate(0 0.015625)"/>
      <use xlink:href="#DejaVuSerif-6c" transform="translate(72.216797 0.015625)"/>
      <use xlink:href="#DejaVuSerif-6f" transform="translate(104.199219 0.015625)"/>
      <use xlink:href="#DejaVuSerif-67" transform="translate(164.404297 0.015625)"/>
      <use xlink:href="#DejaVuSerif-Italic-76" transform="translate(244.222321 0.015625)"/>
      <use xlink:href="#DejaVuSerif-Italic-74" transform="translate(300.716462 -15.55625) scale(0.7)"/>
     </g>
    </g>
   </g>
   <g id="line2d_88">
    <path d="M 52.382812 229.784891 
L 54.915578 231.339897 
L 57.448344 231.770679 
L 62.513876 231.73787 
L 65.046642 229.767718 
L 67.579408 225.109913 
L 70.112174 223.545655 
L 72.64494 223.4853 
L 75.177706 200.414771 
L 77.710472 200.364905 
L 80.243238 200.156543 
L 85.30877 200.11206 
L 118.234727 200.113638 
L 125.833025 200.769076 
L 128.365791 201.766984 
L 130.898557 204.563552 
L 133.431323 209.40278 
L 135.964089 213.383465 
L 138.496855 210.717729 
L 141.029621 202.231197 
L 143.562387 200.184732 
L 146.095153 200.077045 
L 148.627919 200.128796 
L 151.160685 200.566039 
L 153.693451 200.732391 
L 156.226217 200.33268 
L 158.758983 200.134204 
L 163.824515 200.066853 
L 168.890047 200.132901 
L 171.422813 200.473348 
L 173.955578 223.477585 
L 181.553876 223.476218 
L 184.086642 200.217071 
L 196.750472 200.103517 
L 201.816004 200.111349 
L 204.34877 200.298078 
L 206.881536 200.919746 
L 209.414302 202.552238 
L 211.947068 204.629121 
L 214.479834 208.225396 
L 217.0126 216.036552 
L 219.545366 222.09513 
L 222.078132 228.959511 
L 224.610898 231.325519 
L 227.143664 231.732943 
L 232.209195 231.832848 
L 234.741961 231.814998 
L 237.274727 231.584334 
L 239.807493 229.179634 
L 242.340259 225.057609 
L 244.873025 223.524393 
L 247.405791 223.528569 
L 249.938557 224.105557 
L 252.471323 232.122782 
L 255.004089 255.091574 
L 257.536855 255.246603 
L 260.069621 231.83817 
L 262.602387 231.835568 
L 265.135153 231.013573 
L 267.667919 231.148713 
L 270.200685 229.418789 
L 272.733451 211.279324 
L 275.266217 201.004384 
L 277.798983 200.065735 
L 336.0526 200.107412 
L 341.118132 200.117941 
L 361.380259 200.067511 
L 363.913025 223.473689 
L 366.445791 223.529731 
L 368.978557 255.245092 
L 371.511323 231.838229 
L 376.576855 231.831018 
L 379.109621 200.067604 
L 409.502812 200.073145 
L 409.502812 200.073145 
" clip-path="url(#p2d88e77950)" style="fill: none; stroke: #1f77b4; stroke-width: 1.5; stroke-linecap: square"/>
   </g>
   <g id="line2d_89">
    <path d="M 52.382812 220.858572 
L 54.915578 222.631307 
L 57.448344 227.227616 
L 59.98111 226.555724 
L 62.513876 230.751906 
L 65.046642 228.30322 
L 67.579408 226.972566 
L 70.112174 225.363113 
L 72.64494 221.378096 
L 75.177706 216.27642 
L 77.710472 214.282582 
L 80.243238 208.762006 
L 82.776004 206.37939 
L 85.30877 208.547502 
L 87.841536 207.878781 
L 90.374302 207.537332 
L 92.907068 197.189761 
L 95.439834 197.367738 
L 97.9726 191.072272 
L 100.505366 190.265727 
L 103.038132 201.524599 
L 105.570898 203.139226 
L 108.103664 204.336841 
L 110.63643 203.045562 
L 113.169195 202.844489 
L 115.701961 202.888017 
L 118.234727 206.14658 
L 120.767493 212.8824 
L 123.300259 214.760894 
L 125.833025 210.586918 
L 128.365791 211.888328 
L 130.898557 213.92111 
L 133.431323 217.061776 
L 135.964089 225.934629 
L 138.496855 220.861179 
L 141.029621 210.023868 
L 143.562387 203.178803 
L 146.095153 200.716153 
L 148.627919 205.813935 
L 151.160685 215.602217 
L 153.693451 217.425733 
L 156.226217 211.613303 
L 158.758983 208.184809 
L 161.291749 195.568984 
L 163.824515 195.829105 
L 166.357281 200.746513 
L 168.890047 206.824331 
L 171.422813 218.992053 
L 173.955578 217.32975 
L 176.488344 214.872853 
L 179.02111 213.718674 
L 181.553876 217.837996 
L 184.086642 213.7551 
L 186.619408 210.558049 
L 189.152174 210.137246 
L 191.68494 203.879323 
L 194.217706 209.064981 
L 196.750472 207.395122 
L 199.283238 207.897634 
L 201.816004 205.9651 
L 204.34877 210.055858 
L 206.881536 211.810459 
L 209.414302 214.90279 
L 214.479834 213.113852 
L 217.0126 217.511902 
L 219.545366 216.030053 
L 222.078132 221.263615 
L 224.610898 224.363431 
L 227.143664 224.858186 
L 229.67643 228.361672 
L 232.209195 233.674581 
L 234.741961 229.775831 
L 237.274727 227.09552 
L 239.807493 227.310655 
L 242.340259 226.962006 
L 244.873025 223.182685 
L 247.405791 227.102823 
L 249.938557 228.113452 
L 252.471323 235.160432 
L 255.004089 262.202147 
L 257.536855 268.782722 
L 260.069621 252.619285 
L 262.602387 243.054156 
L 265.135153 213.667781 
L 267.667919 225.836755 
L 270.200685 226.794736 
L 272.733451 213.90893 
L 275.266217 205.688324 
L 277.798983 185.214063 
L 280.331749 186.3367 
L 282.864515 184.971995 
L 285.397281 184.238055 
L 287.930047 177.667678 
L 290.462812 176.587951 
L 292.995578 183.956454 
L 295.528344 193.24837 
L 298.06111 193.555702 
L 300.593876 194.09504 
L 303.126642 198.785177 
L 305.659408 190.498737 
L 308.192174 191.857935 
L 310.72494 189.397488 
L 313.257706 183.165395 
L 315.790472 190.83272 
L 318.323238 191.57244 
L 320.856004 196.349171 
L 323.38877 192.207824 
L 325.921536 194.541067 
L 328.454302 194.962535 
L 330.987068 201.125478 
L 333.519834 208.382997 
L 336.0526 207.217794 
L 338.585366 211.48687 
L 341.118132 208.329423 
L 343.650898 207.256258 
L 346.183664 207.961573 
L 348.71643 201.305155 
L 351.249195 199.986073 
L 353.781961 197.321131 
L 356.314727 199.777384 
L 358.847493 198.822856 
L 361.380259 197.148251 
L 363.913025 203.529829 
L 366.445791 211.527848 
L 368.978557 282.931943 
L 371.511323 263.136865 
L 374.044089 259.431373 
L 376.576855 253.951492 
L 379.109621 174.876698 
L 381.642387 193.872832 
L 386.707919 182.321713 
L 389.240685 190.486741 
L 391.773451 189.003771 
L 394.306217 194.264431 
L 396.838983 182.000057 
L 399.371749 176.527791 
L 401.904515 178.569039 
L 404.437281 172.968307 
L 406.970047 183.905119 
L 409.502812 193.513457 
L 409.502812 193.513457 
" clip-path="url(#p2d88e77950)" style="fill: none; stroke: #ff7f0e; stroke-width: 1.5; stroke-linecap: square"/>
   </g>
   <g id="patch_76">
    <path d="M 52.382813 288.430125 
L 52.382813 167.470125 
" style="fill: none; stroke: #000000; stroke-width: 0.8; stroke-linejoin: miter; stroke-linecap: square"/>
   </g>
   <g id="patch_77">
    <path d="M 409.502813 288.430125 
L 409.502813 167.470125 
" style="fill: none; stroke: #000000; stroke-width: 0.8; stroke-linejoin: miter; stroke-linecap: square"/>
   </g>
   <g id="patch_78">
    <path d="M 52.382812 288.430125 
L 409.502812 288.430125 
" style="fill: none; stroke: #000000; stroke-width: 0.8; stroke-linejoin: miter; stroke-linecap: square"/>
   </g>
   <g id="patch_79">
    <path d="M 52.382812 167.470125 
L 409.502812 167.470125 
" style="fill: none; stroke: #000000; stroke-width: 0.8; stroke-linejoin: miter; stroke-linecap: square"/>
   </g>
   <g id="legend_1">
    <g id="patch_80">
     <path d="M 59.382813 283.430125 
L 143.6875 283.430125 
Q 145.6875 283.430125 145.6875 281.430125 
L 145.6875 253.073875 
Q 145.6875 251.073875 143.6875 251.073875 
L 59.382813 251.073875 
Q 57.382813 251.073875 57.382813 253.073875 
L 57.382813 281.430125 
Q 57.382813 283.430125 59.382813 283.430125 
z
" style="fill: #ffffff; opacity: 0.8; stroke: #cccccc; stroke-linejoin: miter"/>
    </g>
    <g id="line2d_90">
     <path d="M 61.382813 259.172312 
L 71.382812 259.172312 
L 81.382812 259.172312 
" style="fill: none; stroke: #1f77b4; stroke-width: 1.5; stroke-linecap: square"/>
    </g>
    <g id="text_28">
     <!-- Prediction -->
     <g transform="translate(89.382812 262.672312) scale(0.1 -0.1)">
      <defs>
       <path id="DejaVuSerif-63" d="M 3291 997 
Q 3169 466 2822 187 
Q 2475 -91 1925 -91 
Q 1200 -91 759 389 
Q 319 869 319 1663 
Q 319 2459 759 2936 
Q 1200 3413 1925 3413 
Q 2241 3413 2553 3339 
Q 2866 3266 3181 3116 
L 3181 2266 
L 2847 2266 
Q 2781 2703 2561 2903 
Q 2341 3103 1931 3103 
Q 1466 3103 1228 2742 
Q 991 2381 991 1663 
Q 991 944 1227 581 
Q 1463 219 1931 219 
Q 2303 219 2525 412 
Q 2747 606 2828 997 
L 3291 997 
z
" transform="scale(0.015625)"/>
      </defs>
      <use xlink:href="#DejaVuSerif-50"/>
      <use xlink:href="#DejaVuSerif-72" x="67.285156"/>
      <use xlink:href="#DejaVuSerif-65" x="115.087891"/>
      <use xlink:href="#DejaVuSerif-64" x="174.267578"/>
      <use xlink:href="#DejaVuSerif-69" x="238.28125"/>
      <use xlink:href="#DejaVuSerif-63" x="270.263672"/>
      <use xlink:href="#DejaVuSerif-74" x="326.269531"/>
      <use xlink:href="#DejaVuSerif-69" x="366.455078"/>
      <use xlink:href="#DejaVuSerif-6f" x="398.4375"/>
      <use xlink:href="#DejaVuSerif-6e" x="458.642578"/>
     </g>
    </g>
    <g id="line2d_91">
     <path d="M 61.382813 273.850437 
L 71.382812 273.850437 
L 81.382812 273.850437 
" style="fill: none; stroke: #ff7f0e; stroke-width: 1.5; stroke-linecap: square"/>
    </g>
    <g id="text_29">
     <!-- Real -->
     <g transform="translate(89.382812 277.350437) scale(0.1 -0.1)">
      <defs>
       <path id="DejaVuSerif-52" d="M 3066 2316 
Q 3284 2256 3442 2114 
Q 3600 1972 3725 1716 
L 4403 331 
L 4972 331 
L 4972 0 
L 3872 0 
L 3144 1484 
Q 2934 1916 2759 2042 
Q 2584 2169 2278 2169 
L 1581 2169 
L 1581 331 
L 2241 331 
L 2241 0 
L 353 0 
L 353 331 
L 947 331 
L 947 4331 
L 353 4331 
L 353 4666 
L 2719 4666 
Q 3400 4666 3770 4341 
Q 4141 4016 4141 3419 
Q 4141 2938 3870 2661 
Q 3600 2384 3066 2316 
z
M 1581 2503 
L 2503 2503 
Q 2975 2503 3200 2726 
Q 3425 2950 3425 3419 
Q 3425 3888 3200 4109 
Q 2975 4331 2503 4331 
L 1581 4331 
L 1581 2503 
z
" transform="scale(0.015625)"/>
       <path id="DejaVuSerif-61" d="M 2547 1044 
L 2547 1747 
L 1806 1747 
Q 1378 1747 1168 1562 
Q 959 1378 959 997 
Q 959 650 1171 447 
Q 1384 244 1747 244 
Q 2106 244 2326 466 
Q 2547 688 2547 1044 
z
M 3122 2075 
L 3122 331 
L 3634 331 
L 3634 0 
L 2547 0 
L 2547 359 
Q 2356 128 2106 18 
Q 1856 -91 1522 -91 
Q 969 -91 644 203 
Q 319 497 319 997 
Q 319 1513 691 1797 
Q 1063 2081 1741 2081 
L 2547 2081 
L 2547 2309 
Q 2547 2688 2317 2895 
Q 2088 3103 1672 3103 
Q 1328 3103 1125 2947 
Q 922 2791 872 2484 
L 575 2484 
L 575 3156 
Q 875 3284 1158 3348 
Q 1441 3413 1709 3413 
Q 2400 3413 2761 3070 
Q 3122 2728 3122 2075 
z
" transform="scale(0.015625)"/>
      </defs>
      <use xlink:href="#DejaVuSerif-52"/>
      <use xlink:href="#DejaVuSerif-65" x="75.292969"/>
      <use xlink:href="#DejaVuSerif-61" x="134.472656"/>
      <use xlink:href="#DejaVuSerif-6c" x="194.091797"/>
     </g>
    </g>
   </g>
  </g>
 </g>
 <defs>
  <clipPath id="p4d625413f0">
   <rect x="52.382813" y="22.318125" width="357.12" height="120.96"/>
  </clipPath>
  <clipPath id="p2d88e77950">
   <rect x="52.382813" y="167.470125" width="357.12" height="120.96"/>
  </clipPath>
 </defs>
</svg>
