<?xml version="1.0" encoding="utf-8" standalone="no"?>
<!DOCTYPE svg PUBLIC "-//W3C//DTD SVG 1.1//EN"
  "http://www.w3.org/Graphics/SVG/1.1/DTD/svg11.dtd">
<svg xmlns:xlink="http://www.w3.org/1999/xlink" width="424.073055pt" height="312.30825pt" viewBox="0 0 424.073055 312.30825" xmlns="http://www.w3.org/2000/svg" version="1.1">
 <metadata>
  <rdf:RDF xmlns:dc="http://purl.org/dc/elements/1.1/" xmlns:cc="http://creativecommons.org/ns#" xmlns:rdf="http://www.w3.org/1999/02/22-rdf-syntax-ns#">
   <cc:Work>
    <dc:type rdf:resource="http://purl.org/dc/dcmitype/StillImage"/>
    <dc:date>2024-11-06T21:53:02.698311</dc:date>
    <dc:format>image/svg+xml</dc:format>
    <dc:creator>
     <cc:Agent>
      <dc:title>Matplotlib v3.9.0, https://matplotlib.org/</dc:title>
     </cc:Agent>
    </dc:creator>
   </cc:Work>
  </rdf:RDF>
 </metadata>
 <defs>
  <style type="text/css">*{stroke-linejoin: round; stroke-linecap: butt}</style>
 </defs>
 <g id="figure_1">
  <g id="patch_1">
   <path d="M 0 312.30825 
L 424.073055 312.30825 
L 424.073055 0 
L 0 0 
z
" style="fill: #ffffff"/>
  </g>
  <g id="axes_1">
   <g id="patch_2">
    <path d="M 50.365625 143.278125 
L 407.485625 143.278125 
L 407.485625 22.318125 
L 50.365625 22.318125 
z
" style="fill: #ffffff"/>
   </g>
   <g id="patch_3">
    <path d="M -1822.011197 143.278125 
L -1801.985777 143.278125 
L -1801.985777 22.318125 
L -1822.011197 22.318125 
z
" clip-path="url(#p33149fd379)" style="fill: #d3d3d3"/>
   </g>
   <g id="patch_4">
    <path d="M -1778.622786 143.278125 
L -1765.272506 143.278125 
L -1765.272506 22.318125 
L -1778.622786 22.318125 
z
" clip-path="url(#p33149fd379)" style="fill: #d3d3d3"/>
   </g>
   <g id="patch_5">
    <path d="M -1718.546525 143.278125 
L -1691.845964 143.278125 
L -1691.845964 22.318125 
L -1718.546525 22.318125 
z
" clip-path="url(#p33149fd379)" style="fill: #d3d3d3"/>
   </g>
   <g id="patch_6">
    <path d="M -1661.807833 143.278125 
L -1641.782412 143.278125 
L -1641.782412 22.318125 
L -1661.807833 22.318125 
z
" clip-path="url(#p33149fd379)" style="fill: #d3d3d3"/>
   </g>
   <g id="patch_7">
    <path d="M -1605.069141 143.278125 
L -1531.642599 143.278125 
L -1531.642599 22.318125 
L -1605.069141 22.318125 
z
" clip-path="url(#p33149fd379)" style="fill: #d3d3d3"/>
   </g>
   <g id="patch_8">
    <path d="M -1491.591758 143.278125 
L -1448.203347 143.278125 
L -1448.203347 22.318125 
L -1491.591758 22.318125 
z
" clip-path="url(#p33149fd379)" style="fill: #d3d3d3"/>
   </g>
   <g id="patch_9">
    <path d="M -1421.502786 143.278125 
L -1411.490076 143.278125 
L -1411.490076 22.318125 
L -1421.502786 22.318125 
z
" clip-path="url(#p33149fd379)" style="fill: #d3d3d3"/>
   </g>
   <g id="patch_10">
    <path d="M -1378.114375 143.278125 
L -1368.101665 143.278125 
L -1368.101665 22.318125 
L -1378.114375 22.318125 
z
" clip-path="url(#p33149fd379)" style="fill: #d3d3d3"/>
   </g>
   <g id="patch_11">
    <path d="M -1344.738674 143.278125 
L -1328.050824 143.278125 
L -1328.050824 22.318125 
L -1344.738674 22.318125 
z
" clip-path="url(#p33149fd379)" style="fill: #d3d3d3"/>
   </g>
   <g id="patch_12">
    <path d="M -1308.025403 143.278125 
L -1287.999982 143.278125 
L -1287.999982 22.318125 
L -1308.025403 22.318125 
z
" clip-path="url(#p33149fd379)" style="fill: #d3d3d3"/>
   </g>
   <g id="patch_13">
    <path d="M -1257.961852 143.278125 
L -1241.274001 143.278125 
L -1241.274001 22.318125 
L -1257.961852 22.318125 
z
" clip-path="url(#p33149fd379)" style="fill: #d3d3d3"/>
   </g>
   <g id="patch_14">
    <path d="M -1214.57344 143.278125 
L -1191.21045 143.278125 
L -1191.21045 22.318125 
L -1214.57344 22.318125 
z
" clip-path="url(#p33149fd379)" style="fill: #d3d3d3"/>
   </g>
   <g id="patch_15">
    <path d="M -1154.497179 143.278125 
L -1141.146898 143.278125 
L -1141.146898 22.318125 
L -1154.497179 22.318125 
z
" clip-path="url(#p33149fd379)" style="fill: #d3d3d3"/>
   </g>
   <g id="patch_16">
    <path d="M -1117.783908 143.278125 
L -1094.420917 143.278125 
L -1094.420917 22.318125 
L -1117.783908 22.318125 
z
" clip-path="url(#p33149fd379)" style="fill: #d3d3d3"/>
   </g>
   <g id="patch_17">
    <path d="M -1077.733067 143.278125 
L -1054.370076 143.278125 
L -1054.370076 22.318125 
L -1077.733067 22.318125 
z
" clip-path="url(#p33149fd379)" style="fill: #d3d3d3"/>
   </g>
   <g id="patch_18">
    <path d="M -1004.306525 143.278125 
L -997.631384 143.278125 
L -997.631384 22.318125 
L -1004.306525 22.318125 
z
" clip-path="url(#p33149fd379)" style="fill: #d3d3d3"/>
   </g>
   <g id="patch_19">
    <path d="M -984.281104 143.278125 
L -964.255683 143.278125 
L -964.255683 22.318125 
L -984.281104 22.318125 
z
" clip-path="url(#p33149fd379)" style="fill: #d3d3d3"/>
   </g>
   <g id="patch_20">
    <path d="M -940.892693 143.278125 
L -924.204842 143.278125 
L -924.204842 22.318125 
L -940.892693 22.318125 
z
" clip-path="url(#p33149fd379)" style="fill: #d3d3d3"/>
   </g>
   <g id="patch_21">
    <path d="M -897.504282 143.278125 
L -880.816431 143.278125 
L -880.816431 22.318125 
L -897.504282 22.318125 
z
" clip-path="url(#p33149fd379)" style="fill: #d3d3d3"/>
   </g>
   <g id="patch_22">
    <path d="M -857.45344 143.278125 
L -810.727459 143.278125 
L -810.727459 22.318125 
L -857.45344 22.318125 
z
" clip-path="url(#p33149fd379)" style="fill: #d3d3d3"/>
   </g>
   <g id="patch_23">
    <path d="M -753.988768 143.278125 
L -740.638487 143.278125 
L -740.638487 22.318125 
L -753.988768 22.318125 
z
" clip-path="url(#p33149fd379)" style="fill: #d3d3d3"/>
   </g>
   <g id="patch_24">
    <path d="M -650.524095 143.278125 
L -640.511384 143.278125 
L -640.511384 22.318125 
L -650.524095 22.318125 
z
" clip-path="url(#p33149fd379)" style="fill: #d3d3d3"/>
   </g>
   <g id="patch_25">
    <path d="M -600.460543 143.278125 
L -587.110263 143.278125 
L -587.110263 22.318125 
L -600.460543 22.318125 
z
" clip-path="url(#p33149fd379)" style="fill: #d3d3d3"/>
   </g>
   <g id="patch_26">
    <path d="M -540.384282 143.278125 
L -527.034001 143.278125 
L -527.034001 22.318125 
L -540.384282 22.318125 
z
" clip-path="url(#p33149fd379)" style="fill: #d3d3d3"/>
   </g>
   <g id="patch_27">
    <path d="M -483.64559 143.278125 
L -473.63288 143.278125 
L -473.63288 22.318125 
L -483.64559 22.318125 
z
" clip-path="url(#p33149fd379)" style="fill: #d3d3d3"/>
   </g>
   <g id="patch_28">
    <path d="M -446.932319 143.278125 
L -436.919609 143.278125 
L -436.919609 22.318125 
L -446.932319 22.318125 
z
" clip-path="url(#p33149fd379)" style="fill: #d3d3d3"/>
   </g>
   <g id="patch_29">
    <path d="M -320.104655 143.278125 
L -306.754375 143.278125 
L -306.754375 22.318125 
L -320.104655 22.318125 
z
" clip-path="url(#p33149fd379)" style="fill: #d3d3d3"/>
   </g>
   <g id="patch_30">
    <path d="M -266.703534 143.278125 
L -250.015683 143.278125 
L -250.015683 22.318125 
L -266.703534 22.318125 
z
" clip-path="url(#p33149fd379)" style="fill: #d3d3d3"/>
   </g>
   <g id="patch_31">
    <path d="M -183.264282 143.278125 
L -176.589141 143.278125 
L -176.589141 22.318125 
L -183.264282 22.318125 
z
" clip-path="url(#p33149fd379)" style="fill: #d3d3d3"/>
   </g>
   <g id="patch_32">
    <path d="M -163.238861 143.278125 
L -146.551011 143.278125 
L -146.551011 22.318125 
L -163.238861 22.318125 
z
" clip-path="url(#p33149fd379)" style="fill: #d3d3d3"/>
   </g>
   <g id="patch_33">
    <path d="M -43.086338 143.278125 
L -36.411197 143.278125 
L -36.411197 22.318125 
L -43.086338 22.318125 
z
" clip-path="url(#p33149fd379)" style="fill: #d3d3d3"/>
   </g>
   <g id="patch_34">
    <path d="M 97.091606 143.278125 
L 107.104317 143.278125 
L 107.104317 22.318125 
L 97.091606 22.318125 
z
" clip-path="url(#p33149fd379)" style="fill: #d3d3d3"/>
   </g>
   <g id="patch_35">
    <path d="M 187.205999 143.278125 
L 207.231419 143.278125 
L 207.231419 22.318125 
L 187.205999 22.318125 
z
" clip-path="url(#p33149fd379)" style="fill: #d3d3d3"/>
   </g>
   <g id="patch_36">
    <path d="M 347.409363 143.278125 
L 354.084504 143.278125 
L 354.084504 22.318125 
L 347.409363 22.318125 
z
" clip-path="url(#p33149fd379)" style="fill: #d3d3d3"/>
   </g>
   <g id="matplotlib.axis_1">
    <g id="xtick_1">
     <g id="line2d_1">
      <defs>
       <path id="m4967d2abd1" d="M 0 0 
L 0 3.5 
" style="stroke: #000000; stroke-width: 0.8"/>
      </defs>
      <g>
       <use xlink:href="#m4967d2abd1" x="70.391046" y="143.278125" style="stroke: #000000; stroke-width: 0.8"/>
      </g>
     </g>
     <g id="text_1">
      <!-- 1999 -->
      <g transform="translate(57.666046 157.876562) scale(0.1 -0.1)">
       <defs>
        <path id="DejaVuSerif-31" d="M 909 0 
L 909 331 
L 1722 331 
L 1722 4213 
L 781 3603 
L 781 4013 
L 1919 4750 
L 2350 4750 
L 2350 331 
L 3163 331 
L 3163 0 
L 909 0 
z
" transform="scale(0.015625)"/>
        <path id="DejaVuSerif-39" d="M 2994 2091 
Q 2784 1856 2512 1740 
Q 2241 1625 1900 1625 
Q 1206 1625 804 2044 
Q 403 2463 403 3188 
Q 403 3897 839 4323 
Q 1275 4750 2003 4750 
Q 2794 4750 3217 4161 
Q 3641 3572 3641 2478 
Q 3641 1253 3137 581 
Q 2634 -91 1722 -91 
Q 1475 -91 1203 -44 
Q 931 3 647 97 
L 647 872 
L 997 872 
Q 1038 556 1241 387 
Q 1444 219 1784 219 
Q 2391 219 2687 676 
Q 2984 1134 2994 2091 
z
M 1978 4441 
Q 1534 4441 1298 4117 
Q 1063 3794 1063 3188 
Q 1063 2581 1298 2256 
Q 1534 1931 1978 1931 
Q 2422 1931 2658 2245 
Q 2894 2559 2894 3150 
Q 2894 3772 2656 4106 
Q 2419 4441 1978 4441 
z
" transform="scale(0.015625)"/>
       </defs>
       <use xlink:href="#DejaVuSerif-31"/>
       <use xlink:href="#DejaVuSerif-39" x="63.623047"/>
       <use xlink:href="#DejaVuSerif-39" x="127.246094"/>
       <use xlink:href="#DejaVuSerif-39" x="190.869141"/>
      </g>
     </g>
    </g>
    <g id="xtick_2">
     <g id="line2d_2">
      <g>
       <use xlink:href="#m4967d2abd1" x="137.142447" y="143.278125" style="stroke: #000000; stroke-width: 0.8"/>
      </g>
     </g>
     <g id="text_2">
      <!-- 2004 -->
      <g transform="translate(124.417447 157.876562) scale(0.1 -0.1)">
       <defs>
        <path id="DejaVuSerif-32" d="M 819 3553 
L 469 3553 
L 469 4384 
Q 803 4563 1142 4656 
Q 1481 4750 1806 4750 
Q 2534 4750 2956 4397 
Q 3378 4044 3378 3438 
Q 3378 2753 2422 1800 
Q 2347 1728 2309 1691 
L 1131 513 
L 3078 513 
L 3078 1088 
L 3444 1088 
L 3444 0 
L 434 0 
L 434 341 
L 1850 1753 
Q 2319 2222 2519 2614 
Q 2719 3006 2719 3438 
Q 2719 3909 2473 4175 
Q 2228 4441 1797 4441 
Q 1350 4441 1106 4219 
Q 863 3997 819 3553 
z
" transform="scale(0.015625)"/>
        <path id="DejaVuSerif-30" d="M 2034 219 
Q 2513 219 2750 744 
Q 2988 1269 2988 2328 
Q 2988 3391 2750 3916 
Q 2513 4441 2034 4441 
Q 1556 4441 1318 3916 
Q 1081 3391 1081 2328 
Q 1081 1269 1318 744 
Q 1556 219 2034 219 
z
M 2034 -91 
Q 1275 -91 848 546 
Q 422 1184 422 2328 
Q 422 3475 848 4112 
Q 1275 4750 2034 4750 
Q 2797 4750 3222 4112 
Q 3647 3475 3647 2328 
Q 3647 1184 3222 546 
Q 2797 -91 2034 -91 
z
" transform="scale(0.015625)"/>
        <path id="DejaVuSerif-34" d="M 2234 1581 
L 2234 4063 
L 641 1581 
L 2234 1581 
z
M 3609 0 
L 1484 0 
L 1484 331 
L 2234 331 
L 2234 1247 
L 197 1247 
L 197 1588 
L 2241 4750 
L 2859 4750 
L 2859 1581 
L 3750 1581 
L 3750 1247 
L 2859 1247 
L 2859 331 
L 3609 331 
L 3609 0 
z
" transform="scale(0.015625)"/>
       </defs>
       <use xlink:href="#DejaVuSerif-32"/>
       <use xlink:href="#DejaVuSerif-30" x="63.623047"/>
       <use xlink:href="#DejaVuSerif-30" x="127.246094"/>
       <use xlink:href="#DejaVuSerif-34" x="190.869141"/>
      </g>
     </g>
    </g>
    <g id="xtick_3">
     <g id="line2d_3">
      <g>
       <use xlink:href="#m4967d2abd1" x="203.893849" y="143.278125" style="stroke: #000000; stroke-width: 0.8"/>
      </g>
     </g>
     <g id="text_3">
      <!-- 2009 -->
      <g transform="translate(191.168849 157.876562) scale(0.1 -0.1)">
       <use xlink:href="#DejaVuSerif-32"/>
       <use xlink:href="#DejaVuSerif-30" x="63.623047"/>
       <use xlink:href="#DejaVuSerif-30" x="127.246094"/>
       <use xlink:href="#DejaVuSerif-39" x="190.869141"/>
      </g>
     </g>
    </g>
    <g id="xtick_4">
     <g id="line2d_4">
      <g>
       <use xlink:href="#m4967d2abd1" x="270.645251" y="143.278125" style="stroke: #000000; stroke-width: 0.8"/>
      </g>
     </g>
     <g id="text_4">
      <!-- 2014 -->
      <g transform="translate(257.920251 157.876562) scale(0.1 -0.1)">
       <use xlink:href="#DejaVuSerif-32"/>
       <use xlink:href="#DejaVuSerif-30" x="63.623047"/>
       <use xlink:href="#DejaVuSerif-31" x="127.246094"/>
       <use xlink:href="#DejaVuSerif-34" x="190.869141"/>
      </g>
     </g>
    </g>
    <g id="xtick_5">
     <g id="line2d_5">
      <g>
       <use xlink:href="#m4967d2abd1" x="337.396653" y="143.278125" style="stroke: #000000; stroke-width: 0.8"/>
      </g>
     </g>
     <g id="text_5">
      <!-- 2019 -->
      <g transform="translate(324.671653 157.876562) scale(0.1 -0.1)">
       <use xlink:href="#DejaVuSerif-32"/>
       <use xlink:href="#DejaVuSerif-30" x="63.623047"/>
       <use xlink:href="#DejaVuSerif-31" x="127.246094"/>
       <use xlink:href="#DejaVuSerif-39" x="190.869141"/>
      </g>
     </g>
    </g>
    <g id="xtick_6">
     <g id="line2d_6">
      <g>
       <use xlink:href="#m4967d2abd1" x="404.148055" y="143.278125" style="stroke: #000000; stroke-width: 0.8"/>
      </g>
     </g>
     <g id="text_6">
      <!-- 2024 -->
      <g transform="translate(391.423055 157.876562) scale(0.1 -0.1)">
       <use xlink:href="#DejaVuSerif-32"/>
       <use xlink:href="#DejaVuSerif-30" x="63.623047"/>
       <use xlink:href="#DejaVuSerif-32" x="127.246094"/>
       <use xlink:href="#DejaVuSerif-34" x="190.869141"/>
      </g>
     </g>
    </g>
    <g id="xtick_7">
     <g id="line2d_7">
      <defs>
       <path id="m693121d637" d="M 0 0 
L 0 2 
" style="stroke: #000000; stroke-width: 0.6"/>
      </defs>
      <g>
       <use xlink:href="#m693121d637" x="57.040765" y="143.278125" style="stroke: #000000; stroke-width: 0.6"/>
      </g>
     </g>
    </g>
    <g id="xtick_8">
     <g id="line2d_8">
      <g>
       <use xlink:href="#m693121d637" x="83.741326" y="143.278125" style="stroke: #000000; stroke-width: 0.6"/>
      </g>
     </g>
    </g>
    <g id="xtick_9">
     <g id="line2d_9">
      <g>
       <use xlink:href="#m693121d637" x="97.091606" y="143.278125" style="stroke: #000000; stroke-width: 0.6"/>
      </g>
     </g>
    </g>
    <g id="xtick_10">
     <g id="line2d_10">
      <g>
       <use xlink:href="#m693121d637" x="110.441887" y="143.278125" style="stroke: #000000; stroke-width: 0.6"/>
      </g>
     </g>
    </g>
    <g id="xtick_11">
     <g id="line2d_11">
      <g>
       <use xlink:href="#m693121d637" x="123.792167" y="143.278125" style="stroke: #000000; stroke-width: 0.6"/>
      </g>
     </g>
    </g>
    <g id="xtick_12">
     <g id="line2d_12">
      <g>
       <use xlink:href="#m693121d637" x="150.492728" y="143.278125" style="stroke: #000000; stroke-width: 0.6"/>
      </g>
     </g>
    </g>
    <g id="xtick_13">
     <g id="line2d_13">
      <g>
       <use xlink:href="#m693121d637" x="163.843008" y="143.278125" style="stroke: #000000; stroke-width: 0.6"/>
      </g>
     </g>
    </g>
    <g id="xtick_14">
     <g id="line2d_14">
      <g>
       <use xlink:href="#m693121d637" x="177.193289" y="143.278125" style="stroke: #000000; stroke-width: 0.6"/>
      </g>
     </g>
    </g>
    <g id="xtick_15">
     <g id="line2d_15">
      <g>
       <use xlink:href="#m693121d637" x="190.543569" y="143.278125" style="stroke: #000000; stroke-width: 0.6"/>
      </g>
     </g>
    </g>
    <g id="xtick_16">
     <g id="line2d_16">
      <g>
       <use xlink:href="#m693121d637" x="217.24413" y="143.278125" style="stroke: #000000; stroke-width: 0.6"/>
      </g>
     </g>
    </g>
    <g id="xtick_17">
     <g id="line2d_17">
      <g>
       <use xlink:href="#m693121d637" x="230.59441" y="143.278125" style="stroke: #000000; stroke-width: 0.6"/>
      </g>
     </g>
    </g>
    <g id="xtick_18">
     <g id="line2d_18">
      <g>
       <use xlink:href="#m693121d637" x="243.94469" y="143.278125" style="stroke: #000000; stroke-width: 0.6"/>
      </g>
     </g>
    </g>
    <g id="xtick_19">
     <g id="line2d_19">
      <g>
       <use xlink:href="#m693121d637" x="257.294971" y="143.278125" style="stroke: #000000; stroke-width: 0.6"/>
      </g>
     </g>
    </g>
    <g id="xtick_20">
     <g id="line2d_20">
      <g>
       <use xlink:href="#m693121d637" x="283.995532" y="143.278125" style="stroke: #000000; stroke-width: 0.6"/>
      </g>
     </g>
    </g>
    <g id="xtick_21">
     <g id="line2d_21">
      <g>
       <use xlink:href="#m693121d637" x="297.345812" y="143.278125" style="stroke: #000000; stroke-width: 0.6"/>
      </g>
     </g>
    </g>
    <g id="xtick_22">
     <g id="line2d_22">
      <g>
       <use xlink:href="#m693121d637" x="310.696092" y="143.278125" style="stroke: #000000; stroke-width: 0.6"/>
      </g>
     </g>
    </g>
    <g id="xtick_23">
     <g id="line2d_23">
      <g>
       <use xlink:href="#m693121d637" x="324.046373" y="143.278125" style="stroke: #000000; stroke-width: 0.6"/>
      </g>
     </g>
    </g>
    <g id="xtick_24">
     <g id="line2d_24">
      <g>
       <use xlink:href="#m693121d637" x="350.746933" y="143.278125" style="stroke: #000000; stroke-width: 0.6"/>
      </g>
     </g>
    </g>
    <g id="xtick_25">
     <g id="line2d_25">
      <g>
       <use xlink:href="#m693121d637" x="364.097214" y="143.278125" style="stroke: #000000; stroke-width: 0.6"/>
      </g>
     </g>
    </g>
    <g id="xtick_26">
     <g id="line2d_26">
      <g>
       <use xlink:href="#m693121d637" x="377.447494" y="143.278125" style="stroke: #000000; stroke-width: 0.6"/>
      </g>
     </g>
    </g>
    <g id="xtick_27">
     <g id="line2d_27">
      <g>
       <use xlink:href="#m693121d637" x="390.797775" y="143.278125" style="stroke: #000000; stroke-width: 0.6"/>
      </g>
     </g>
    </g>
   </g>
   <g id="matplotlib.axis_2">
    <g id="ytick_1">
     <g id="line2d_28">
      <defs>
       <path id="mb804c5728f" d="M 0 0 
L -3.5 0 
" style="stroke: #000000; stroke-width: 0.8"/>
      </defs>
      <g>
       <use xlink:href="#mb804c5728f" x="50.365625" y="137.779943" style="stroke: #000000; stroke-width: 0.8"/>
      </g>
     </g>
     <g id="text_7">
      <!-- 0.0 -->
      <g transform="translate(27.4625 141.579162) scale(0.1 -0.1)">
       <defs>
        <path id="DejaVuSerif-2e" d="M 603 325 
Q 603 500 722 622 
Q 841 744 1019 744 
Q 1191 744 1312 622 
Q 1434 500 1434 325 
Q 1434 153 1312 31 
Q 1191 -91 1019 -91 
Q 841 -91 722 29 
Q 603 150 603 325 
z
" transform="scale(0.015625)"/>
       </defs>
       <use xlink:href="#DejaVuSerif-30"/>
       <use xlink:href="#DejaVuSerif-2e" x="63.623047"/>
       <use xlink:href="#DejaVuSerif-30" x="95.410156"/>
      </g>
     </g>
    </g>
    <g id="ytick_2">
     <g id="line2d_29">
      <g>
       <use xlink:href="#mb804c5728f" x="50.365625" y="115.787216" style="stroke: #000000; stroke-width: 0.8"/>
      </g>
     </g>
     <g id="text_8">
      <!-- 0.2 -->
      <g transform="translate(27.4625 119.586435) scale(0.1 -0.1)">
       <use xlink:href="#DejaVuSerif-30"/>
       <use xlink:href="#DejaVuSerif-2e" x="63.623047"/>
       <use xlink:href="#DejaVuSerif-32" x="95.410156"/>
      </g>
     </g>
    </g>
    <g id="ytick_3">
     <g id="line2d_30">
      <g>
       <use xlink:href="#mb804c5728f" x="50.365625" y="93.794489" style="stroke: #000000; stroke-width: 0.8"/>
      </g>
     </g>
     <g id="text_9">
      <!-- 0.4 -->
      <g transform="translate(27.4625 97.593707) scale(0.1 -0.1)">
       <use xlink:href="#DejaVuSerif-30"/>
       <use xlink:href="#DejaVuSerif-2e" x="63.623047"/>
       <use xlink:href="#DejaVuSerif-34" x="95.410156"/>
      </g>
     </g>
    </g>
    <g id="ytick_4">
     <g id="line2d_31">
      <g>
       <use xlink:href="#mb804c5728f" x="50.365625" y="71.801761" style="stroke: #000000; stroke-width: 0.8"/>
      </g>
     </g>
     <g id="text_10">
      <!-- 0.6 -->
      <g transform="translate(27.4625 75.60098) scale(0.1 -0.1)">
       <defs>
        <path id="DejaVuSerif-36" d="M 2094 219 
Q 2534 219 2771 542 
Q 3009 866 3009 1472 
Q 3009 2078 2771 2401 
Q 2534 2725 2094 2725 
Q 1647 2725 1412 2412 
Q 1178 2100 1178 1509 
Q 1178 888 1415 553 
Q 1653 219 2094 219 
z
M 1075 2569 
Q 1288 2803 1556 2918 
Q 1825 3034 2163 3034 
Q 2859 3034 3264 2615 
Q 3669 2197 3669 1472 
Q 3669 763 3233 336 
Q 2797 -91 2069 -91 
Q 1278 -91 853 498 
Q 428 1088 428 2181 
Q 428 3406 931 4078 
Q 1434 4750 2350 4750 
Q 2597 4750 2869 4703 
Q 3141 4656 3425 4563 
L 3425 3794 
L 3072 3794 
Q 3034 4109 2831 4275 
Q 2628 4441 2284 4441 
Q 1678 4441 1381 3981 
Q 1084 3522 1075 2569 
z
" transform="scale(0.015625)"/>
       </defs>
       <use xlink:href="#DejaVuSerif-30"/>
       <use xlink:href="#DejaVuSerif-2e" x="63.623047"/>
       <use xlink:href="#DejaVuSerif-36" x="95.410156"/>
      </g>
     </g>
    </g>
    <g id="ytick_5">
     <g id="line2d_32">
      <g>
       <use xlink:href="#mb804c5728f" x="50.365625" y="49.809034" style="stroke: #000000; stroke-width: 0.8"/>
      </g>
     </g>
     <g id="text_11">
      <!-- 0.8 -->
      <g transform="translate(27.4625 53.608253) scale(0.1 -0.1)">
       <defs>
        <path id="DejaVuSerif-38" d="M 2981 1275 
Q 2981 1775 2732 2051 
Q 2484 2328 2034 2328 
Q 1584 2328 1336 2051 
Q 1088 1775 1088 1275 
Q 1088 772 1336 495 
Q 1584 219 2034 219 
Q 2484 219 2732 495 
Q 2981 772 2981 1275 
z
M 2853 3541 
Q 2853 3966 2637 4203 
Q 2422 4441 2034 4441 
Q 1650 4441 1433 4203 
Q 1216 3966 1216 3541 
Q 1216 3113 1433 2875 
Q 1650 2638 2034 2638 
Q 2422 2638 2637 2875 
Q 2853 3113 2853 3541 
z
M 2516 2484 
Q 3047 2413 3344 2092 
Q 3641 1772 3641 1275 
Q 3641 619 3225 264 
Q 2809 -91 2034 -91 
Q 1263 -91 845 264 
Q 428 619 428 1275 
Q 428 1772 725 2092 
Q 1022 2413 1556 2484 
Q 1084 2569 832 2842 
Q 581 3116 581 3541 
Q 581 4103 968 4426 
Q 1356 4750 2034 4750 
Q 2713 4750 3100 4426 
Q 3488 4103 3488 3541 
Q 3488 3116 3236 2842 
Q 2984 2569 2516 2484 
z
" transform="scale(0.015625)"/>
       </defs>
       <use xlink:href="#DejaVuSerif-30"/>
       <use xlink:href="#DejaVuSerif-2e" x="63.623047"/>
       <use xlink:href="#DejaVuSerif-38" x="95.410156"/>
      </g>
     </g>
    </g>
    <g id="ytick_6">
     <g id="line2d_33">
      <g>
       <use xlink:href="#mb804c5728f" x="50.365625" y="27.816307" style="stroke: #000000; stroke-width: 0.8"/>
      </g>
     </g>
     <g id="text_12">
      <!-- 1.0 -->
      <g transform="translate(27.4625 31.615526) scale(0.1 -0.1)">
       <use xlink:href="#DejaVuSerif-31"/>
       <use xlink:href="#DejaVuSerif-2e" x="63.623047"/>
       <use xlink:href="#DejaVuSerif-30" x="95.410156"/>
      </g>
     </g>
    </g>
    <g id="text_13">
     <!-- Prob. of being in $S_t=1$ -->
     <g transform="translate(21.1625 140.848125) rotate(-90) scale(0.1 -0.1)">
      <defs>
       <path id="DejaVuSerif-50" d="M 1581 2375 
L 2406 2375 
Q 2872 2375 3115 2626 
Q 3359 2878 3359 3353 
Q 3359 3831 3115 4081 
Q 2872 4331 2406 4331 
L 1581 4331 
L 1581 2375 
z
M 353 0 
L 353 331 
L 947 331 
L 947 4331 
L 353 4331 
L 353 4666 
L 2559 4666 
Q 3259 4666 3668 4311 
Q 4078 3956 4078 3353 
Q 4078 2753 3668 2397 
Q 3259 2041 2559 2041 
L 1581 2041 
L 1581 331 
L 2303 331 
L 2303 0 
L 353 0 
z
" transform="scale(0.015625)"/>
       <path id="DejaVuSerif-72" d="M 3059 3328 
L 3059 2497 
L 2728 2497 
Q 2713 2744 2591 2866 
Q 2469 2988 2234 2988 
Q 1809 2988 1582 2694 
Q 1356 2400 1356 1850 
L 1356 331 
L 2022 331 
L 2022 0 
L 263 0 
L 263 331 
L 781 331 
L 781 2994 
L 231 2994 
L 231 3322 
L 1356 3322 
L 1356 2731 
Q 1525 3078 1790 3245 
Q 2056 3413 2438 3413 
Q 2578 3413 2733 3391 
Q 2888 3369 3059 3328 
z
" transform="scale(0.015625)"/>
       <path id="DejaVuSerif-6f" d="M 1925 219 
Q 2388 219 2623 584 
Q 2859 950 2859 1663 
Q 2859 2375 2623 2739 
Q 2388 3103 1925 3103 
Q 1463 3103 1227 2739 
Q 991 2375 991 1663 
Q 991 950 1228 584 
Q 1466 219 1925 219 
z
M 1925 -91 
Q 1200 -91 759 389 
Q 319 869 319 1663 
Q 319 2456 758 2934 
Q 1197 3413 1925 3413 
Q 2653 3413 3092 2934 
Q 3531 2456 3531 1663 
Q 3531 869 3092 389 
Q 2653 -91 1925 -91 
z
" transform="scale(0.015625)"/>
       <path id="DejaVuSerif-62" d="M 738 331 
L 738 4531 
L 184 4531 
L 184 4863 
L 1313 4863 
L 1313 2803 
Q 1481 3116 1742 3264 
Q 2003 3413 2388 3413 
Q 3000 3413 3387 2928 
Q 3775 2444 3775 1663 
Q 3775 881 3387 395 
Q 3000 -91 2388 -91 
Q 2003 -91 1742 57 
Q 1481 206 1313 519 
L 1313 0 
L 184 0 
L 184 331 
L 738 331 
z
M 1313 1497 
Q 1313 897 1542 583 
Q 1772 269 2209 269 
Q 2650 269 2876 622 
Q 3103 975 3103 1663 
Q 3103 2353 2876 2703 
Q 2650 3053 2209 3053 
Q 1772 3053 1542 2737 
Q 1313 2422 1313 1825 
L 1313 1497 
z
" transform="scale(0.015625)"/>
       <path id="DejaVuSerif-20" transform="scale(0.015625)"/>
       <path id="DejaVuSerif-66" d="M 2753 4078 
L 2450 4078 
Q 2447 4313 2317 4434 
Q 2188 4556 1941 4556 
Q 1619 4556 1487 4379 
Q 1356 4203 1356 3750 
L 1356 3322 
L 2284 3322 
L 2284 2988 
L 1356 2988 
L 1356 331 
L 2094 331 
L 2094 0 
L 231 0 
L 231 331 
L 781 331 
L 781 2988 
L 231 2988 
L 231 3322 
L 781 3322 
L 781 3738 
Q 781 4294 1070 4578 
Q 1359 4863 1919 4863 
Q 2128 4863 2337 4825 
Q 2547 4788 2753 4709 
L 2753 4078 
z
" transform="scale(0.015625)"/>
       <path id="DejaVuSerif-65" d="M 3469 1600 
L 991 1600 
L 991 1575 
Q 991 903 1244 561 
Q 1497 219 1991 219 
Q 2369 219 2611 417 
Q 2853 616 2950 1006 
L 3413 1006 
Q 3275 459 2904 184 
Q 2534 -91 1931 -91 
Q 1203 -91 761 389 
Q 319 869 319 1663 
Q 319 2450 753 2931 
Q 1188 3413 1894 3413 
Q 2647 3413 3050 2948 
Q 3453 2484 3469 1600 
z
M 2791 1931 
Q 2772 2513 2545 2808 
Q 2319 3103 1894 3103 
Q 1497 3103 1269 2806 
Q 1041 2509 991 1931 
L 2791 1931 
z
" transform="scale(0.015625)"/>
       <path id="DejaVuSerif-69" d="M 622 4353 
Q 622 4497 726 4603 
Q 831 4709 978 4709 
Q 1122 4709 1226 4603 
Q 1331 4497 1331 4353 
Q 1331 4206 1228 4103 
Q 1125 4000 978 4000 
Q 831 4000 726 4103 
Q 622 4206 622 4353 
z
M 1356 331 
L 1900 331 
L 1900 0 
L 231 0 
L 231 331 
L 781 331 
L 781 2988 
L 231 2988 
L 231 3322 
L 1356 3322 
L 1356 331 
z
" transform="scale(0.015625)"/>
       <path id="DejaVuSerif-6e" d="M 263 0 
L 263 331 
L 781 331 
L 781 2988 
L 231 2988 
L 231 3322 
L 1356 3322 
L 1356 2731 
Q 1516 3069 1770 3241 
Q 2025 3413 2363 3413 
Q 2913 3413 3172 3097 
Q 3431 2781 3431 2113 
L 3431 331 
L 3944 331 
L 3944 0 
L 2356 0 
L 2356 331 
L 2853 331 
L 2853 1931 
Q 2853 2541 2703 2767 
Q 2553 2994 2175 2994 
Q 1775 2994 1565 2701 
Q 1356 2409 1356 1850 
L 1356 331 
L 1856 331 
L 1856 0 
L 263 0 
z
" transform="scale(0.015625)"/>
       <path id="DejaVuSerif-67" d="M 3359 2988 
L 3359 72 
Q 3359 -644 2965 -1033 
Q 2572 -1422 1844 -1422 
Q 1516 -1422 1216 -1362 
Q 916 -1303 641 -1184 
L 641 -488 
L 941 -488 
Q 997 -813 1206 -963 
Q 1416 -1113 1806 -1113 
Q 2313 -1113 2548 -827 
Q 2784 -541 2784 72 
L 2784 519 
Q 2616 206 2355 57 
Q 2094 -91 1709 -91 
Q 1097 -91 708 395 
Q 319 881 319 1663 
Q 319 2444 706 2928 
Q 1094 3413 1709 3413 
Q 2094 3413 2355 3264 
Q 2616 3116 2784 2803 
L 2784 3322 
L 3909 3322 
L 3909 2988 
L 3359 2988 
z
M 2784 1825 
Q 2784 2422 2554 2737 
Q 2325 3053 1888 3053 
Q 1444 3053 1217 2703 
Q 991 2353 991 1663 
Q 991 975 1217 622 
Q 1444 269 1888 269 
Q 2325 269 2554 583 
Q 2784 897 2784 1497 
L 2784 1825 
z
" transform="scale(0.015625)"/>
       <path id="DejaVuSerif-Italic-53" d="M 184 225 
L 391 1288 
L 750 1284 
Q 663 753 905 498 
Q 1147 244 1744 244 
Q 2300 244 2636 464 
Q 2972 684 3053 1106 
Q 3119 1444 2976 1625 
Q 2834 1806 2300 1978 
L 1722 2163 
Q 1091 2366 877 2669 
Q 663 2972 766 3500 
Q 881 4094 1367 4422 
Q 1853 4750 2616 4750 
Q 2941 4750 3314 4679 
Q 3688 4609 4097 4475 
L 3906 3481 
L 3553 3481 
Q 3594 3975 3361 4195 
Q 3128 4416 2563 4416 
Q 2069 4416 1772 4214 
Q 1475 4013 1400 3628 
Q 1334 3294 1490 3103 
Q 1647 2913 2241 2725 
L 2784 2553 
Q 3381 2363 3593 2067 
Q 3806 1772 3709 1275 
Q 3578 597 3076 253 
Q 2575 -91 1716 -91 
Q 1331 -91 948 -12 
Q 566 66 184 225 
z
" transform="scale(0.015625)"/>
       <path id="DejaVuSerif-Italic-74" d="M 856 2988 
L 350 2988 
L 416 3322 
L 922 3322 
L 1122 4353 
L 1700 4353 
L 1500 3322 
L 2581 3322 
L 2516 2988 
L 1434 2988 
L 1025 878 
Q 978 631 978 488 
Q 978 388 1000 338 
Q 1059 219 1278 219 
Q 1503 219 1633 351 
Q 1763 484 1825 781 
L 2259 781 
Q 2147 328 1884 118 
Q 1622 -91 1169 -91 
Q 672 -91 506 131 
Q 406 266 406 516 
Q 406 675 447 878 
L 856 2988 
z
" transform="scale(0.015625)"/>
       <path id="DejaVuSerif-3d" d="M 678 2894 
L 4684 2894 
L 4684 2394 
L 678 2394 
L 678 2894 
z
M 678 1619 
L 4684 1619 
L 4684 1119 
L 678 1119 
L 678 1619 
z
" transform="scale(0.015625)"/>
      </defs>
      <use xlink:href="#DejaVuSerif-50" transform="translate(0 0.015625)"/>
      <use xlink:href="#DejaVuSerif-72" transform="translate(67.285156 0.015625)"/>
      <use xlink:href="#DejaVuSerif-6f" transform="translate(115.087891 0.015625)"/>
      <use xlink:href="#DejaVuSerif-62" transform="translate(175.292969 0.015625)"/>
      <use xlink:href="#DejaVuSerif-2e" transform="translate(239.306641 0.015625)"/>
      <use xlink:href="#DejaVuSerif-20" transform="translate(271.09375 0.015625)"/>
      <use xlink:href="#DejaVuSerif-6f" transform="translate(302.880859 0.015625)"/>
      <use xlink:href="#DejaVuSerif-66" transform="translate(363.085938 0.015625)"/>
      <use xlink:href="#DejaVuSerif-20" transform="translate(400.097656 0.015625)"/>
      <use xlink:href="#DejaVuSerif-62" transform="translate(431.884766 0.015625)"/>
      <use xlink:href="#DejaVuSerif-65" transform="translate(495.898438 0.015625)"/>
      <use xlink:href="#DejaVuSerif-69" transform="translate(555.078125 0.015625)"/>
      <use xlink:href="#DejaVuSerif-6e" transform="translate(587.060547 0.015625)"/>
      <use xlink:href="#DejaVuSerif-67" transform="translate(651.464844 0.015625)"/>
      <use xlink:href="#DejaVuSerif-20" transform="translate(715.478516 0.015625)"/>
      <use xlink:href="#DejaVuSerif-69" transform="translate(747.265625 0.015625)"/>
      <use xlink:href="#DejaVuSerif-6e" transform="translate(779.248047 0.015625)"/>
      <use xlink:href="#DejaVuSerif-20" transform="translate(843.652344 0.015625)"/>
      <use xlink:href="#DejaVuSerif-Italic-53" transform="translate(875.439453 0.015625)"/>
      <use xlink:href="#DejaVuSerif-Italic-74" transform="translate(943.945312 -15.55625) scale(0.7)"/>
      <use xlink:href="#DejaVuSerif-3d" transform="translate(993.635352 0.015625)"/>
      <use xlink:href="#DejaVuSerif-31" transform="translate(1096.389258 0.015625)"/>
     </g>
    </g>
   </g>
   <g id="line2d_34">
    <path d="M 50.365625 137.611675 
L 53.703195 137.241527 
L 57.040765 135.130639 
L 60.378335 133.780217 
L 63.715905 135.159018 
L 67.053475 135.847543 
L 70.391046 136.95243 
L 73.728616 137.37913 
L 77.066186 137.669595 
L 80.403756 136.952545 
L 83.741326 136.936174 
L 87.078896 136.761236 
L 90.416466 137.534039 
L 93.754036 137.759191 
L 97.091606 137.368913 
L 100.429176 136.273005 
L 103.766746 137.779012 
L 107.104317 137.752174 
L 110.441887 137.690825 
L 113.779457 137.777712 
L 117.117027 133.096798 
L 120.454597 129.642374 
L 123.792167 129.613779 
L 127.129737 131.623354 
L 130.467307 134.109641 
L 133.804877 132.656113 
L 137.142447 128.34719 
L 140.480018 125.627346 
L 143.817588 125.22831 
L 147.155158 124.96789 
L 150.492728 125.081454 
L 153.830298 125.917024 
L 157.167868 127.996224 
L 160.505438 128.088285 
L 163.843008 126.3412 
L 167.180578 128.473918 
L 170.518148 134.751006 
L 173.855718 137.756634 
L 177.193289 137.475023 
L 180.530859 137.64654 
L 183.868429 137.762453 
L 187.205999 114.815591 
L 190.543569 56.309705 
L 193.881139 32.302593 
L 197.218709 27.916132 
L 200.556279 30.712714 
L 203.893849 87.49778 
L 207.231419 133.993577 
L 210.568989 137.779942 
L 213.90656 137.779943 
L 217.24413 137.779943 
L 220.5817 137.779915 
L 223.91927 137.660829 
L 227.25684 136.680692 
L 230.59441 137.52862 
L 233.93198 137.716796 
L 237.26955 136.374818 
L 240.60712 137.77119 
L 243.94469 137.717865 
L 247.282261 137.779003 
L 250.619831 137.779919 
L 253.957401 137.779943 
L 257.294971 137.779938 
L 260.632541 137.778697 
L 263.970111 137.779928 
L 267.307681 123.203174 
L 270.645251 100.821848 
L 273.982821 71.445071 
L 277.320391 43.132706 
L 280.657961 31.197095 
L 283.995532 27.932458 
L 287.333102 29.211244 
L 290.670672 55.521477 
L 294.008242 123.464744 
L 297.345812 135.156957 
L 300.683382 137.762783 
L 304.020952 126.429884 
L 307.358522 125.716986 
L 310.696092 131.781452 
L 314.033662 134.829462 
L 317.371232 132.725162 
L 320.708803 131.712852 
L 324.046373 132.390804 
L 327.383943 135.286316 
L 330.721513 131.677805 
L 334.059083 130.414317 
L 337.396653 125.36867 
L 340.734223 121.646933 
L 344.071793 115.935137 
L 347.409363 116.97874 
L 350.746933 123.356032 
L 354.084504 129.557837 
L 357.422074 137.779943 
L 360.759644 137.779943 
L 364.097214 137.779943 
L 367.434784 137.779943 
L 370.772354 136.536269 
L 374.109924 137.779943 
L 377.447494 38.248818 
L 380.785064 27.816307 
L 384.122634 27.816307 
L 387.460204 27.816307 
L 390.797775 27.816307 
L 394.135345 27.816308 
L 397.472915 40.829303 
L 400.810485 137.710006 
L 404.148055 136.657786 
L 407.485625 132.914218 
" clip-path="url(#p33149fd379)" style="fill: none; stroke: #1f77b4; stroke-width: 1.5; stroke-linecap: square"/>
   </g>
   <g id="patch_37">
    <path d="M 50.365625 143.278125 
L 50.365625 22.318125 
" style="fill: none; stroke: #000000; stroke-width: 0.8; stroke-linejoin: miter; stroke-linecap: square"/>
   </g>
   <g id="patch_38">
    <path d="M 407.485625 143.278125 
L 407.485625 22.318125 
" style="fill: none; stroke: #000000; stroke-width: 0.8; stroke-linejoin: miter; stroke-linecap: square"/>
   </g>
   <g id="patch_39">
    <path d="M 50.365625 143.278125 
L 407.485625 143.278125 
" style="fill: none; stroke: #000000; stroke-width: 0.8; stroke-linejoin: miter; stroke-linecap: square"/>
   </g>
   <g id="patch_40">
    <path d="M 50.365625 22.318125 
L 407.485625 22.318125 
" style="fill: none; stroke: #000000; stroke-width: 0.8; stroke-linejoin: miter; stroke-linecap: square"/>
   </g>
   <g id="text_14">
    <!-- Euro area -->
    <g transform="translate(198.720313 16.318125) scale(0.12 -0.12)">
     <defs>
      <path id="DejaVuSerif-45" d="M 353 0 
L 353 331 
L 947 331 
L 947 4331 
L 353 4331 
L 353 4666 
L 4109 4666 
L 4109 3628 
L 3725 3628 
L 3725 4281 
L 1581 4281 
L 1581 2719 
L 3109 2719 
L 3109 3303 
L 3494 3303 
L 3494 1753 
L 3109 1753 
L 3109 2338 
L 1581 2338 
L 1581 384 
L 3775 384 
L 3775 1038 
L 4159 1038 
L 4159 0 
L 353 0 
z
" transform="scale(0.015625)"/>
      <path id="DejaVuSerif-75" d="M 2266 3322 
L 3341 3322 
L 3341 331 
L 3884 331 
L 3884 0 
L 2766 0 
L 2766 588 
Q 2606 256 2353 82 
Q 2100 -91 1766 -91 
Q 1213 -91 952 223 
Q 691 538 691 1209 
L 691 2988 
L 172 2988 
L 172 3322 
L 1269 3322 
L 1269 1388 
Q 1269 781 1417 556 
Q 1566 331 1947 331 
Q 2347 331 2556 625 
Q 2766 919 2766 1478 
L 2766 2988 
L 2266 2988 
L 2266 3322 
z
" transform="scale(0.015625)"/>
      <path id="DejaVuSerif-61" d="M 2547 1044 
L 2547 1747 
L 1806 1747 
Q 1378 1747 1168 1562 
Q 959 1378 959 997 
Q 959 650 1171 447 
Q 1384 244 1747 244 
Q 2106 244 2326 466 
Q 2547 688 2547 1044 
z
M 3122 2075 
L 3122 331 
L 3634 331 
L 3634 0 
L 2547 0 
L 2547 359 
Q 2356 128 2106 18 
Q 1856 -91 1522 -91 
Q 969 -91 644 203 
Q 319 497 319 997 
Q 319 1513 691 1797 
Q 1063 2081 1741 2081 
L 2547 2081 
L 2547 2309 
Q 2547 2688 2317 2895 
Q 2088 3103 1672 3103 
Q 1328 3103 1125 2947 
Q 922 2791 872 2484 
L 575 2484 
L 575 3156 
Q 875 3284 1158 3348 
Q 1441 3413 1709 3413 
Q 2400 3413 2761 3070 
Q 3122 2728 3122 2075 
z
" transform="scale(0.015625)"/>
     </defs>
     <use xlink:href="#DejaVuSerif-45"/>
     <use xlink:href="#DejaVuSerif-75" x="72.998047"/>
     <use xlink:href="#DejaVuSerif-72" x="137.402344"/>
     <use xlink:href="#DejaVuSerif-6f" x="185.205078"/>
     <use xlink:href="#DejaVuSerif-20" x="245.410156"/>
     <use xlink:href="#DejaVuSerif-61" x="277.197266"/>
     <use xlink:href="#DejaVuSerif-72" x="336.816406"/>
     <use xlink:href="#DejaVuSerif-65" x="384.619141"/>
     <use xlink:href="#DejaVuSerif-61" x="443.798828"/>
    </g>
   </g>
  </g>
  <g id="axes_2">
   <g id="patch_41">
    <path d="M 50.365625 288.430125 
L 407.485625 288.430125 
L 407.485625 167.470125 
L 50.365625 167.470125 
z
" style="fill: #ffffff"/>
   </g>
   <g id="patch_42">
    <path d="M -1822.011197 288.430125 
L -1801.985777 288.430125 
L -1801.985777 167.470125 
L -1822.011197 167.470125 
z
" clip-path="url(#pfc5f436525)" style="fill: #d3d3d3"/>
   </g>
   <g id="patch_43">
    <path d="M -1778.622786 288.430125 
L -1765.272506 288.430125 
L -1765.272506 167.470125 
L -1778.622786 167.470125 
z
" clip-path="url(#pfc5f436525)" style="fill: #d3d3d3"/>
   </g>
   <g id="patch_44">
    <path d="M -1718.546525 288.430125 
L -1691.845964 288.430125 
L -1691.845964 167.470125 
L -1718.546525 167.470125 
z
" clip-path="url(#pfc5f436525)" style="fill: #d3d3d3"/>
   </g>
   <g id="patch_45">
    <path d="M -1661.807833 288.430125 
L -1641.782412 288.430125 
L -1641.782412 167.470125 
L -1661.807833 167.470125 
z
" clip-path="url(#pfc5f436525)" style="fill: #d3d3d3"/>
   </g>
   <g id="patch_46">
    <path d="M -1605.069141 288.430125 
L -1531.642599 288.430125 
L -1531.642599 167.470125 
L -1605.069141 167.470125 
z
" clip-path="url(#pfc5f436525)" style="fill: #d3d3d3"/>
   </g>
   <g id="patch_47">
    <path d="M -1491.591758 288.430125 
L -1448.203347 288.430125 
L -1448.203347 167.470125 
L -1491.591758 167.470125 
z
" clip-path="url(#pfc5f436525)" style="fill: #d3d3d3"/>
   </g>
   <g id="patch_48">
    <path d="M -1421.502786 288.430125 
L -1411.490076 288.430125 
L -1411.490076 167.470125 
L -1421.502786 167.470125 
z
" clip-path="url(#pfc5f436525)" style="fill: #d3d3d3"/>
   </g>
   <g id="patch_49">
    <path d="M -1378.114375 288.430125 
L -1368.101665 288.430125 
L -1368.101665 167.470125 
L -1378.114375 167.470125 
z
" clip-path="url(#pfc5f436525)" style="fill: #d3d3d3"/>
   </g>
   <g id="patch_50">
    <path d="M -1344.738674 288.430125 
L -1328.050824 288.430125 
L -1328.050824 167.470125 
L -1344.738674 167.470125 
z
" clip-path="url(#pfc5f436525)" style="fill: #d3d3d3"/>
   </g>
   <g id="patch_51">
    <path d="M -1308.025403 288.430125 
L -1287.999982 288.430125 
L -1287.999982 167.470125 
L -1308.025403 167.470125 
z
" clip-path="url(#pfc5f436525)" style="fill: #d3d3d3"/>
   </g>
   <g id="patch_52">
    <path d="M -1257.961852 288.430125 
L -1241.274001 288.430125 
L -1241.274001 167.470125 
L -1257.961852 167.470125 
z
" clip-path="url(#pfc5f436525)" style="fill: #d3d3d3"/>
   </g>
   <g id="patch_53">
    <path d="M -1214.57344 288.430125 
L -1191.21045 288.430125 
L -1191.21045 167.470125 
L -1214.57344 167.470125 
z
" clip-path="url(#pfc5f436525)" style="fill: #d3d3d3"/>
   </g>
   <g id="patch_54">
    <path d="M -1154.497179 288.430125 
L -1141.146898 288.430125 
L -1141.146898 167.470125 
L -1154.497179 167.470125 
z
" clip-path="url(#pfc5f436525)" style="fill: #d3d3d3"/>
   </g>
   <g id="patch_55">
    <path d="M -1117.783908 288.430125 
L -1094.420917 288.430125 
L -1094.420917 167.470125 
L -1117.783908 167.470125 
z
" clip-path="url(#pfc5f436525)" style="fill: #d3d3d3"/>
   </g>
   <g id="patch_56">
    <path d="M -1077.733067 288.430125 
L -1054.370076 288.430125 
L -1054.370076 167.470125 
L -1077.733067 167.470125 
z
" clip-path="url(#pfc5f436525)" style="fill: #d3d3d3"/>
   </g>
   <g id="patch_57">
    <path d="M -1004.306525 288.430125 
L -997.631384 288.430125 
L -997.631384 167.470125 
L -1004.306525 167.470125 
z
" clip-path="url(#pfc5f436525)" style="fill: #d3d3d3"/>
   </g>
   <g id="patch_58">
    <path d="M -984.281104 288.430125 
L -964.255683 288.430125 
L -964.255683 167.470125 
L -984.281104 167.470125 
z
" clip-path="url(#pfc5f436525)" style="fill: #d3d3d3"/>
   </g>
   <g id="patch_59">
    <path d="M -940.892693 288.430125 
L -924.204842 288.430125 
L -924.204842 167.470125 
L -940.892693 167.470125 
z
" clip-path="url(#pfc5f436525)" style="fill: #d3d3d3"/>
   </g>
   <g id="patch_60">
    <path d="M -897.504282 288.430125 
L -880.816431 288.430125 
L -880.816431 167.470125 
L -897.504282 167.470125 
z
" clip-path="url(#pfc5f436525)" style="fill: #d3d3d3"/>
   </g>
   <g id="patch_61">
    <path d="M -857.45344 288.430125 
L -810.727459 288.430125 
L -810.727459 167.470125 
L -857.45344 167.470125 
z
" clip-path="url(#pfc5f436525)" style="fill: #d3d3d3"/>
   </g>
   <g id="patch_62">
    <path d="M -753.988768 288.430125 
L -740.638487 288.430125 
L -740.638487 167.470125 
L -753.988768 167.470125 
z
" clip-path="url(#pfc5f436525)" style="fill: #d3d3d3"/>
   </g>
   <g id="patch_63">
    <path d="M -650.524095 288.430125 
L -640.511384 288.430125 
L -640.511384 167.470125 
L -650.524095 167.470125 
z
" clip-path="url(#pfc5f436525)" style="fill: #d3d3d3"/>
   </g>
   <g id="patch_64">
    <path d="M -600.460543 288.430125 
L -587.110263 288.430125 
L -587.110263 167.470125 
L -600.460543 167.470125 
z
" clip-path="url(#pfc5f436525)" style="fill: #d3d3d3"/>
   </g>
   <g id="patch_65">
    <path d="M -540.384282 288.430125 
L -527.034001 288.430125 
L -527.034001 167.470125 
L -540.384282 167.470125 
z
" clip-path="url(#pfc5f436525)" style="fill: #d3d3d3"/>
   </g>
   <g id="patch_66">
    <path d="M -483.64559 288.430125 
L -473.63288 288.430125 
L -473.63288 167.470125 
L -483.64559 167.470125 
z
" clip-path="url(#pfc5f436525)" style="fill: #d3d3d3"/>
   </g>
   <g id="patch_67">
    <path d="M -446.932319 288.430125 
L -436.919609 288.430125 
L -436.919609 167.470125 
L -446.932319 167.470125 
z
" clip-path="url(#pfc5f436525)" style="fill: #d3d3d3"/>
   </g>
   <g id="patch_68">
    <path d="M -320.104655 288.430125 
L -306.754375 288.430125 
L -306.754375 167.470125 
L -320.104655 167.470125 
z
" clip-path="url(#pfc5f436525)" style="fill: #d3d3d3"/>
   </g>
   <g id="patch_69">
    <path d="M -266.703534 288.430125 
L -250.015683 288.430125 
L -250.015683 167.470125 
L -266.703534 167.470125 
z
" clip-path="url(#pfc5f436525)" style="fill: #d3d3d3"/>
   </g>
   <g id="patch_70">
    <path d="M -183.264282 288.430125 
L -176.589141 288.430125 
L -176.589141 167.470125 
L -183.264282 167.470125 
z
" clip-path="url(#pfc5f436525)" style="fill: #d3d3d3"/>
   </g>
   <g id="patch_71">
    <path d="M -163.238861 288.430125 
L -146.551011 288.430125 
L -146.551011 167.470125 
L -163.238861 167.470125 
z
" clip-path="url(#pfc5f436525)" style="fill: #d3d3d3"/>
   </g>
   <g id="patch_72">
    <path d="M -43.086338 288.430125 
L -36.411197 288.430125 
L -36.411197 167.470125 
L -43.086338 167.470125 
z
" clip-path="url(#pfc5f436525)" style="fill: #d3d3d3"/>
   </g>
   <g id="patch_73">
    <path d="M 97.091606 288.430125 
L 107.104317 288.430125 
L 107.104317 167.470125 
L 97.091606 167.470125 
z
" clip-path="url(#pfc5f436525)" style="fill: #d3d3d3"/>
   </g>
   <g id="patch_74">
    <path d="M 187.205999 288.430125 
L 207.231419 288.430125 
L 207.231419 167.470125 
L 187.205999 167.470125 
z
" clip-path="url(#pfc5f436525)" style="fill: #d3d3d3"/>
   </g>
   <g id="patch_75">
    <path d="M 347.409363 288.430125 
L 354.084504 288.430125 
L 354.084504 167.470125 
L 347.409363 167.470125 
z
" clip-path="url(#pfc5f436525)" style="fill: #d3d3d3"/>
   </g>
   <g id="matplotlib.axis_3">
    <g id="xtick_28">
     <g id="line2d_35">
      <g>
       <use xlink:href="#m4967d2abd1" x="70.391046" y="288.430125" style="stroke: #000000; stroke-width: 0.8"/>
      </g>
     </g>
     <g id="text_15">
      <!-- 1999 -->
      <g transform="translate(57.666046 303.028562) scale(0.1 -0.1)">
       <use xlink:href="#DejaVuSerif-31"/>
       <use xlink:href="#DejaVuSerif-39" x="63.623047"/>
       <use xlink:href="#DejaVuSerif-39" x="127.246094"/>
       <use xlink:href="#DejaVuSerif-39" x="190.869141"/>
      </g>
     </g>
    </g>
    <g id="xtick_29">
     <g id="line2d_36">
      <g>
       <use xlink:href="#m4967d2abd1" x="137.142447" y="288.430125" style="stroke: #000000; stroke-width: 0.8"/>
      </g>
     </g>
     <g id="text_16">
      <!-- 2004 -->
      <g transform="translate(124.417447 303.028562) scale(0.1 -0.1)">
       <use xlink:href="#DejaVuSerif-32"/>
       <use xlink:href="#DejaVuSerif-30" x="63.623047"/>
       <use xlink:href="#DejaVuSerif-30" x="127.246094"/>
       <use xlink:href="#DejaVuSerif-34" x="190.869141"/>
      </g>
     </g>
    </g>
    <g id="xtick_30">
     <g id="line2d_37">
      <g>
       <use xlink:href="#m4967d2abd1" x="203.893849" y="288.430125" style="stroke: #000000; stroke-width: 0.8"/>
      </g>
     </g>
     <g id="text_17">
      <!-- 2009 -->
      <g transform="translate(191.168849 303.028562) scale(0.1 -0.1)">
       <use xlink:href="#DejaVuSerif-32"/>
       <use xlink:href="#DejaVuSerif-30" x="63.623047"/>
       <use xlink:href="#DejaVuSerif-30" x="127.246094"/>
       <use xlink:href="#DejaVuSerif-39" x="190.869141"/>
      </g>
     </g>
    </g>
    <g id="xtick_31">
     <g id="line2d_38">
      <g>
       <use xlink:href="#m4967d2abd1" x="270.645251" y="288.430125" style="stroke: #000000; stroke-width: 0.8"/>
      </g>
     </g>
     <g id="text_18">
      <!-- 2014 -->
      <g transform="translate(257.920251 303.028562) scale(0.1 -0.1)">
       <use xlink:href="#DejaVuSerif-32"/>
       <use xlink:href="#DejaVuSerif-30" x="63.623047"/>
       <use xlink:href="#DejaVuSerif-31" x="127.246094"/>
       <use xlink:href="#DejaVuSerif-34" x="190.869141"/>
      </g>
     </g>
    </g>
    <g id="xtick_32">
     <g id="line2d_39">
      <g>
       <use xlink:href="#m4967d2abd1" x="337.396653" y="288.430125" style="stroke: #000000; stroke-width: 0.8"/>
      </g>
     </g>
     <g id="text_19">
      <!-- 2019 -->
      <g transform="translate(324.671653 303.028562) scale(0.1 -0.1)">
       <use xlink:href="#DejaVuSerif-32"/>
       <use xlink:href="#DejaVuSerif-30" x="63.623047"/>
       <use xlink:href="#DejaVuSerif-31" x="127.246094"/>
       <use xlink:href="#DejaVuSerif-39" x="190.869141"/>
      </g>
     </g>
    </g>
    <g id="xtick_33">
     <g id="line2d_40">
      <g>
       <use xlink:href="#m4967d2abd1" x="404.148055" y="288.430125" style="stroke: #000000; stroke-width: 0.8"/>
      </g>
     </g>
     <g id="text_20">
      <!-- 2024 -->
      <g transform="translate(391.423055 303.028562) scale(0.1 -0.1)">
       <use xlink:href="#DejaVuSerif-32"/>
       <use xlink:href="#DejaVuSerif-30" x="63.623047"/>
       <use xlink:href="#DejaVuSerif-32" x="127.246094"/>
       <use xlink:href="#DejaVuSerif-34" x="190.869141"/>
      </g>
     </g>
    </g>
    <g id="xtick_34">
     <g id="line2d_41">
      <g>
       <use xlink:href="#m693121d637" x="57.040765" y="288.430125" style="stroke: #000000; stroke-width: 0.6"/>
      </g>
     </g>
    </g>
    <g id="xtick_35">
     <g id="line2d_42">
      <g>
       <use xlink:href="#m693121d637" x="83.741326" y="288.430125" style="stroke: #000000; stroke-width: 0.6"/>
      </g>
     </g>
    </g>
    <g id="xtick_36">
     <g id="line2d_43">
      <g>
       <use xlink:href="#m693121d637" x="97.091606" y="288.430125" style="stroke: #000000; stroke-width: 0.6"/>
      </g>
     </g>
    </g>
    <g id="xtick_37">
     <g id="line2d_44">
      <g>
       <use xlink:href="#m693121d637" x="110.441887" y="288.430125" style="stroke: #000000; stroke-width: 0.6"/>
      </g>
     </g>
    </g>
    <g id="xtick_38">
     <g id="line2d_45">
      <g>
       <use xlink:href="#m693121d637" x="123.792167" y="288.430125" style="stroke: #000000; stroke-width: 0.6"/>
      </g>
     </g>
    </g>
    <g id="xtick_39">
     <g id="line2d_46">
      <g>
       <use xlink:href="#m693121d637" x="150.492728" y="288.430125" style="stroke: #000000; stroke-width: 0.6"/>
      </g>
     </g>
    </g>
    <g id="xtick_40">
     <g id="line2d_47">
      <g>
       <use xlink:href="#m693121d637" x="163.843008" y="288.430125" style="stroke: #000000; stroke-width: 0.6"/>
      </g>
     </g>
    </g>
    <g id="xtick_41">
     <g id="line2d_48">
      <g>
       <use xlink:href="#m693121d637" x="177.193289" y="288.430125" style="stroke: #000000; stroke-width: 0.6"/>
      </g>
     </g>
    </g>
    <g id="xtick_42">
     <g id="line2d_49">
      <g>
       <use xlink:href="#m693121d637" x="190.543569" y="288.430125" style="stroke: #000000; stroke-width: 0.6"/>
      </g>
     </g>
    </g>
    <g id="xtick_43">
     <g id="line2d_50">
      <g>
       <use xlink:href="#m693121d637" x="217.24413" y="288.430125" style="stroke: #000000; stroke-width: 0.6"/>
      </g>
     </g>
    </g>
    <g id="xtick_44">
     <g id="line2d_51">
      <g>
       <use xlink:href="#m693121d637" x="230.59441" y="288.430125" style="stroke: #000000; stroke-width: 0.6"/>
      </g>
     </g>
    </g>
    <g id="xtick_45">
     <g id="line2d_52">
      <g>
       <use xlink:href="#m693121d637" x="243.94469" y="288.430125" style="stroke: #000000; stroke-width: 0.6"/>
      </g>
     </g>
    </g>
    <g id="xtick_46">
     <g id="line2d_53">
      <g>
       <use xlink:href="#m693121d637" x="257.294971" y="288.430125" style="stroke: #000000; stroke-width: 0.6"/>
      </g>
     </g>
    </g>
    <g id="xtick_47">
     <g id="line2d_54">
      <g>
       <use xlink:href="#m693121d637" x="283.995532" y="288.430125" style="stroke: #000000; stroke-width: 0.6"/>
      </g>
     </g>
    </g>
    <g id="xtick_48">
     <g id="line2d_55">
      <g>
       <use xlink:href="#m693121d637" x="297.345812" y="288.430125" style="stroke: #000000; stroke-width: 0.6"/>
      </g>
     </g>
    </g>
    <g id="xtick_49">
     <g id="line2d_56">
      <g>
       <use xlink:href="#m693121d637" x="310.696092" y="288.430125" style="stroke: #000000; stroke-width: 0.6"/>
      </g>
     </g>
    </g>
    <g id="xtick_50">
     <g id="line2d_57">
      <g>
       <use xlink:href="#m693121d637" x="324.046373" y="288.430125" style="stroke: #000000; stroke-width: 0.6"/>
      </g>
     </g>
    </g>
    <g id="xtick_51">
     <g id="line2d_58">
      <g>
       <use xlink:href="#m693121d637" x="350.746933" y="288.430125" style="stroke: #000000; stroke-width: 0.6"/>
      </g>
     </g>
    </g>
    <g id="xtick_52">
     <g id="line2d_59">
      <g>
       <use xlink:href="#m693121d637" x="364.097214" y="288.430125" style="stroke: #000000; stroke-width: 0.6"/>
      </g>
     </g>
    </g>
    <g id="xtick_53">
     <g id="line2d_60">
      <g>
       <use xlink:href="#m693121d637" x="377.447494" y="288.430125" style="stroke: #000000; stroke-width: 0.6"/>
      </g>
     </g>
    </g>
    <g id="xtick_54">
     <g id="line2d_61">
      <g>
       <use xlink:href="#m693121d637" x="390.797775" y="288.430125" style="stroke: #000000; stroke-width: 0.6"/>
      </g>
     </g>
    </g>
   </g>
   <g id="matplotlib.axis_4">
    <g id="ytick_7">
     <g id="line2d_62">
      <path d="M 50.365625 276.340799 
L 407.485625 276.340799 
" clip-path="url(#pfc5f436525)" style="fill: none; stroke-dasharray: 2.96,1.28; stroke-dashoffset: 0; stroke: #b0b0b0; stroke-width: 0.8"/>
     </g>
     <g id="line2d_63">
      <g>
       <use xlink:href="#mb804c5728f" x="50.365625" y="276.340799" style="stroke: #000000; stroke-width: 0.8"/>
      </g>
     </g>
     <g id="text_21">
      <!-- 0.00 -->
      <g transform="translate(21.1 280.140018) scale(0.1 -0.1)">
       <use xlink:href="#DejaVuSerif-30"/>
       <use xlink:href="#DejaVuSerif-2e" x="63.623047"/>
       <use xlink:href="#DejaVuSerif-30" x="95.410156"/>
       <use xlink:href="#DejaVuSerif-30" x="159.033203"/>
      </g>
     </g>
    </g>
    <g id="ytick_8">
     <g id="line2d_64">
      <path d="M 50.365625 255.858051 
L 407.485625 255.858051 
" clip-path="url(#pfc5f436525)" style="fill: none; stroke-dasharray: 2.96,1.28; stroke-dashoffset: 0; stroke: #b0b0b0; stroke-width: 0.8"/>
     </g>
     <g id="line2d_65">
      <g>
       <use xlink:href="#mb804c5728f" x="50.365625" y="255.858051" style="stroke: #000000; stroke-width: 0.8"/>
      </g>
     </g>
     <g id="text_22">
      <!-- 0.02 -->
      <g transform="translate(21.1 259.65727) scale(0.1 -0.1)">
       <use xlink:href="#DejaVuSerif-30"/>
       <use xlink:href="#DejaVuSerif-2e" x="63.623047"/>
       <use xlink:href="#DejaVuSerif-30" x="95.410156"/>
       <use xlink:href="#DejaVuSerif-32" x="159.033203"/>
      </g>
     </g>
    </g>
    <g id="ytick_9">
     <g id="line2d_66">
      <path d="M 50.365625 235.375303 
L 407.485625 235.375303 
" clip-path="url(#pfc5f436525)" style="fill: none; stroke-dasharray: 2.96,1.28; stroke-dashoffset: 0; stroke: #b0b0b0; stroke-width: 0.8"/>
     </g>
     <g id="line2d_67">
      <g>
       <use xlink:href="#mb804c5728f" x="50.365625" y="235.375303" style="stroke: #000000; stroke-width: 0.8"/>
      </g>
     </g>
     <g id="text_23">
      <!-- 0.04 -->
      <g transform="translate(21.1 239.174521) scale(0.1 -0.1)">
       <use xlink:href="#DejaVuSerif-30"/>
       <use xlink:href="#DejaVuSerif-2e" x="63.623047"/>
       <use xlink:href="#DejaVuSerif-30" x="95.410156"/>
       <use xlink:href="#DejaVuSerif-34" x="159.033203"/>
      </g>
     </g>
    </g>
    <g id="ytick_10">
     <g id="line2d_68">
      <path d="M 50.365625 214.892555 
L 407.485625 214.892555 
" clip-path="url(#pfc5f436525)" style="fill: none; stroke-dasharray: 2.96,1.28; stroke-dashoffset: 0; stroke: #b0b0b0; stroke-width: 0.8"/>
     </g>
     <g id="line2d_69">
      <g>
       <use xlink:href="#mb804c5728f" x="50.365625" y="214.892555" style="stroke: #000000; stroke-width: 0.8"/>
      </g>
     </g>
     <g id="text_24">
      <!-- 0.06 -->
      <g transform="translate(21.1 218.691773) scale(0.1 -0.1)">
       <use xlink:href="#DejaVuSerif-30"/>
       <use xlink:href="#DejaVuSerif-2e" x="63.623047"/>
       <use xlink:href="#DejaVuSerif-30" x="95.410156"/>
       <use xlink:href="#DejaVuSerif-36" x="159.033203"/>
      </g>
     </g>
    </g>
    <g id="ytick_11">
     <g id="line2d_70">
      <path d="M 50.365625 194.409807 
L 407.485625 194.409807 
" clip-path="url(#pfc5f436525)" style="fill: none; stroke-dasharray: 2.96,1.28; stroke-dashoffset: 0; stroke: #b0b0b0; stroke-width: 0.8"/>
     </g>
     <g id="line2d_71">
      <g>
       <use xlink:href="#mb804c5728f" x="50.365625" y="194.409807" style="stroke: #000000; stroke-width: 0.8"/>
      </g>
     </g>
     <g id="text_25">
      <!-- 0.08 -->
      <g transform="translate(21.1 198.209025) scale(0.1 -0.1)">
       <use xlink:href="#DejaVuSerif-30"/>
       <use xlink:href="#DejaVuSerif-2e" x="63.623047"/>
       <use xlink:href="#DejaVuSerif-30" x="95.410156"/>
       <use xlink:href="#DejaVuSerif-38" x="159.033203"/>
      </g>
     </g>
    </g>
    <g id="ytick_12">
     <g id="line2d_72">
      <path d="M 50.365625 173.927058 
L 407.485625 173.927058 
" clip-path="url(#pfc5f436525)" style="fill: none; stroke-dasharray: 2.96,1.28; stroke-dashoffset: 0; stroke: #b0b0b0; stroke-width: 0.8"/>
     </g>
     <g id="line2d_73">
      <g>
       <use xlink:href="#mb804c5728f" x="50.365625" y="173.927058" style="stroke: #000000; stroke-width: 0.8"/>
      </g>
     </g>
     <g id="text_26">
      <!-- 0.10 -->
      <g transform="translate(21.1 177.726277) scale(0.1 -0.1)">
       <use xlink:href="#DejaVuSerif-30"/>
       <use xlink:href="#DejaVuSerif-2e" x="63.623047"/>
       <use xlink:href="#DejaVuSerif-31" x="95.410156"/>
       <use xlink:href="#DejaVuSerif-30" x="159.033203"/>
      </g>
     </g>
    </g>
    <g id="text_27">
     <!-- $\Delta\log P_t$ -->
     <g transform="translate(14.8 245.100125) rotate(-90) scale(0.1 -0.1)">
      <defs>
       <path id="DejaVuSerif-394" d="M 4350 0 
L 244 0 
L 2034 4666 
L 2559 4666 
L 4350 0 
z
M 3506 331 
L 2138 3909 
L 763 331 
L 3506 331 
z
" transform="scale(0.015625)"/>
       <path id="DejaVuSerif-6c" d="M 1313 331 
L 1856 331 
L 1856 0 
L 184 0 
L 184 331 
L 738 331 
L 738 4531 
L 184 4531 
L 184 4863 
L 1313 4863 
L 1313 331 
z
" transform="scale(0.015625)"/>
       <path id="DejaVuSerif-Italic-50" d="M 1594 2375 
L 2419 2375 
Q 2884 2375 3176 2626 
Q 3469 2878 3559 3353 
Q 3653 3831 3458 4081 
Q 3263 4331 2797 4331 
L 1972 4331 
L 1594 2375 
z
M -97 0 
L -34 331 
L 559 331 
L 1338 4331 
L 744 4331 
L 809 4666 
L 3016 4666 
Q 3716 4666 4056 4311 
Q 4397 3956 4278 3353 
Q 4163 2753 3684 2397 
Q 3206 2041 2506 2041 
L 1528 2041 
L 1194 331 
L 1916 331 
L 1853 0 
L -97 0 
z
" transform="scale(0.015625)"/>
      </defs>
      <use xlink:href="#DejaVuSerif-394" transform="translate(0 0.015625)"/>
      <use xlink:href="#DejaVuSerif-6c" transform="translate(72.216797 0.015625)"/>
      <use xlink:href="#DejaVuSerif-6f" transform="translate(104.199219 0.015625)"/>
      <use xlink:href="#DejaVuSerif-67" transform="translate(164.404297 0.015625)"/>
      <use xlink:href="#DejaVuSerif-Italic-50" transform="translate(244.222321 0.015625)"/>
      <use xlink:href="#DejaVuSerif-Italic-74" transform="translate(311.507478 -15.55625) scale(0.7)"/>
     </g>
    </g>
   </g>
   <g id="line2d_74">
    <path d="M 50.365625 261.977058 
L 53.703195 258.478428 
L 57.040765 260.456509 
L 60.378335 257.57533 
L 63.715905 256.227883 
L 67.053475 258.74504 
L 70.391046 256.72716 
L 73.728616 257.268624 
L 77.066186 256.824774 
L 80.403756 255.169584 
L 83.741326 255.688661 
L 87.078896 254.064421 
L 90.416466 252.355878 
L 93.754036 258.333183 
L 97.091606 255.731877 
L 100.429176 252.168758 
L 103.766746 252.751376 
L 107.104317 250.943155 
L 110.441887 253.176187 
L 113.779457 260.406243 
L 117.117027 261.389714 
L 120.454597 259.411614 
L 123.792167 258.571421 
L 127.129737 260.205483 
L 130.467307 259.075723 
L 133.804877 261.959126 
L 137.142447 261.161497 
L 140.480018 259.615771 
L 143.817588 257.517466 
L 147.155158 255.286022 
L 150.492728 257.645507 
L 153.830298 257.700212 
L 157.167868 259.723306 
L 160.505438 257.611272 
L 163.843008 258.604773 
L 167.180578 257.831107 
L 170.518148 254.579414 
L 173.855718 259.479276 
L 177.193289 255.235669 
L 180.530859 254.311771 
L 183.868429 256.218932 
L 187.205999 251.862535 
L 190.543569 241.669882 
L 193.881139 238.725619 
L 197.218709 245.351741 
L 200.556279 246.672238 
L 203.893849 265.297839 
L 207.231419 274.396582 
L 210.568989 274.327897 
L 213.90656 273.93264 
L 217.24413 270.231889 
L 220.5817 262.625824 
L 223.91927 257.392058 
L 227.25684 257.271454 
L 230.59441 254.36485 
L 233.93198 254.019994 
L 237.26955 255.360566 
L 240.60712 254.945992 
L 243.94469 259.236296 
L 247.282261 261.399617 
L 250.619831 262.559044 
L 253.957401 262.832623 
L 257.294971 264.069652 
L 260.632541 265.151992 
L 263.970111 263.210796 
L 267.307681 264.422286 
L 270.645251 265.869854 
L 273.982821 270.301973 
L 277.320391 263.993237 
L 280.657961 279.450313 
L 283.995532 273.928288 
L 287.333102 278.204602 
L 290.670672 261.494744 
L 294.008242 257.772862 
L 297.345812 257.746248 
L 300.683382 260.708814 
L 304.020952 260.047775 
L 307.358522 259.325108 
L 310.696092 261.454248 
L 314.033662 259.059137 
L 317.371232 257.631208 
L 320.708803 259.089007 
L 324.046373 256.277751 
L 327.383943 258.031382 
L 330.721513 258.662056 
L 334.059083 257.493849 
L 337.396653 259.411482 
L 340.734223 258.827609 
L 344.071793 258.343178 
L 347.409363 259.192271 
L 350.746933 259.000498 
L 354.084504 268.389903 
L 357.422074 272.142549 
L 360.759644 281.254675 
L 364.097214 271.188496 
L 367.434784 261.389972 
L 370.772354 258.398602 
L 374.109924 243.545876 
L 377.447494 211.178352 
L 380.785064 199.041876 
L 384.122634 193.934185 
L 387.460204 195.377775 
L 390.797775 207.175336 
L 394.135345 210.831749 
L 397.472915 206.76568 
L 400.810485 252.323523 
L 404.148055 251.984729 
L 407.485625 251.704947 
" clip-path="url(#pfc5f436525)" style="fill: none; stroke: #1f77b4; stroke-width: 1.5; stroke-linecap: square"/>
   </g>
   <g id="line2d_75">
    <path d="M 50.365625 261.340038 
L 53.703195 260.952684 
L 57.040765 265.3693 
L 60.378335 262.191353 
L 63.715905 263.358307 
L 67.053475 266.856686 
L 70.391046 268.535686 
L 73.728616 265.408075 
L 77.066186 265.989615 
L 80.403756 262.962206 
L 83.741326 257.493222 
L 87.078896 259.006414 
L 90.416466 255.139745 
L 93.754036 252.235963 
L 97.091606 256.094935 
L 100.429176 248.832978 
L 103.766746 251.229342 
L 107.104317 253.57537 
L 110.441887 249.954246 
L 113.779457 252.508947 
L 117.117027 256.067908 
L 120.454597 253.174259 
L 123.792167 254.817205 
L 127.129737 255.318394 
L 130.467307 256.713872 
L 133.804877 255.691402 
L 137.142447 258.012643 
L 140.480018 255.494086 
L 143.817588 253.002959 
L 147.155158 252.417349 
L 150.492728 256.858831 
L 153.830298 255.304517 
L 157.167868 254.609568 
L 160.505438 251.527416 
L 163.843008 251.687934 
L 167.180578 251.701948 
L 170.518148 251.63571 
L 173.855718 260.204843 
L 177.193289 257.673123 
L 180.530859 257.02461 
L 183.868429 258.340203 
L 187.205999 250.650289 
L 190.543569 244.098277 
L 193.881139 243.474293 
L 197.218709 235.678861 
L 200.556279 244.35686 
L 203.893849 264.873701 
L 207.231419 270.070779 
L 210.568989 282.931943 
L 213.90656 277.676921 
L 217.24413 266.676933 
L 220.5817 259.732801 
L 223.91927 258.894538 
L 227.25684 256.589005 
L 230.59441 253.009912 
L 233.93198 247.856106 
L 237.26955 250.447694 
L 240.60712 245.764048 
L 243.94469 249.474869 
L 247.282261 250.187599 
L 250.619831 251.92509 
L 253.957401 251.194474 
L 257.294971 256.200099 
L 260.632541 264.436303 
L 263.970111 260.002539 
L 267.307681 268.812997 
L 270.645251 268.539196 
L 273.982821 269.059563 
L 277.320391 272.528038 
L 280.657961 272.444006 
L 283.995532 282.473065 
L 287.333102 274.197077 
L 290.670672 270.801581 
L 294.008242 272.356817 
L 297.345812 273.010268 
L 300.683382 278.995593 
L 304.020952 274.603153 
L 307.358522 271.154252 
L 310.696092 258.826706 
L 314.033662 257.097145 
L 317.371232 262.746304 
L 320.708803 262.4369 
L 324.046373 263.146893 
L 327.383943 263.87488 
L 330.721513 254.10966 
L 334.059083 253.187639 
L 337.396653 262.220067 
L 340.734223 258.847191 
L 344.071793 265.940387 
L 347.409363 268.932196 
L 350.746933 262.510239 
L 354.084504 273.130182 
L 357.422074 272.346156 
L 360.759644 279.161446 
L 364.097214 267.061032 
L 367.434784 259.863283 
L 370.772354 254.406527 
L 374.109924 235.667805 
L 377.447494 225.317756 
L 380.785064 202.857094 
L 384.122634 189.341194 
L 387.460204 172.968307 
L 390.797775 191.424061 
L 394.135345 207.445748 
L 397.472915 223.35489 
L 400.810485 247.062246 
L 404.148055 248.370245 
L 407.485625 252.335195 
" clip-path="url(#pfc5f436525)" style="fill: none; stroke: #ff7f0e; stroke-width: 1.5; stroke-linecap: square"/>
   </g>
   <g id="patch_76">
    <path d="M 50.365625 288.430125 
L 50.365625 167.470125 
" style="fill: none; stroke: #000000; stroke-width: 0.8; stroke-linejoin: miter; stroke-linecap: square"/>
   </g>
   <g id="patch_77">
    <path d="M 407.485625 288.430125 
L 407.485625 167.470125 
" style="fill: none; stroke: #000000; stroke-width: 0.8; stroke-linejoin: miter; stroke-linecap: square"/>
   </g>
   <g id="patch_78">
    <path d="M 50.365625 288.430125 
L 407.485625 288.430125 
" style="fill: none; stroke: #000000; stroke-width: 0.8; stroke-linejoin: miter; stroke-linecap: square"/>
   </g>
   <g id="patch_79">
    <path d="M 50.365625 167.470125 
L 407.485625 167.470125 
" style="fill: none; stroke: #000000; stroke-width: 0.8; stroke-linejoin: miter; stroke-linecap: square"/>
   </g>
   <g id="legend_1">
    <g id="patch_80">
     <path d="M 57.365625 204.826375 
L 141.670312 204.826375 
Q 143.670312 204.826375 143.670312 202.826375 
L 143.670312 174.470125 
Q 143.670312 172.470125 141.670312 172.470125 
L 57.365625 172.470125 
Q 55.365625 172.470125 55.365625 174.470125 
L 55.365625 202.826375 
Q 55.365625 204.826375 57.365625 204.826375 
z
" style="fill: #ffffff; opacity: 0.8; stroke: #cccccc; stroke-linejoin: miter"/>
    </g>
    <g id="line2d_76">
     <path d="M 59.365625 180.568562 
L 69.365625 180.568562 
L 79.365625 180.568562 
" style="fill: none; stroke: #1f77b4; stroke-width: 1.5; stroke-linecap: square"/>
    </g>
    <g id="text_28">
     <!-- Prediction -->
     <g transform="translate(87.365625 184.068562) scale(0.1 -0.1)">
      <defs>
       <path id="DejaVuSerif-64" d="M 3359 331 
L 3909 331 
L 3909 0 
L 2784 0 
L 2784 519 
Q 2616 206 2355 57 
Q 2094 -91 1709 -91 
Q 1097 -91 708 395 
Q 319 881 319 1663 
Q 319 2444 706 2928 
Q 1094 3413 1709 3413 
Q 2094 3413 2355 3264 
Q 2616 3116 2784 2803 
L 2784 4531 
L 2241 4531 
L 2241 4863 
L 3359 4863 
L 3359 331 
z
M 2784 1497 
L 2784 1825 
Q 2784 2422 2554 2737 
Q 2325 3053 1888 3053 
Q 1444 3053 1217 2703 
Q 991 2353 991 1663 
Q 991 975 1217 622 
Q 1444 269 1888 269 
Q 2325 269 2554 583 
Q 2784 897 2784 1497 
z
" transform="scale(0.015625)"/>
       <path id="DejaVuSerif-63" d="M 3291 997 
Q 3169 466 2822 187 
Q 2475 -91 1925 -91 
Q 1200 -91 759 389 
Q 319 869 319 1663 
Q 319 2459 759 2936 
Q 1200 3413 1925 3413 
Q 2241 3413 2553 3339 
Q 2866 3266 3181 3116 
L 3181 2266 
L 2847 2266 
Q 2781 2703 2561 2903 
Q 2341 3103 1931 3103 
Q 1466 3103 1228 2742 
Q 991 2381 991 1663 
Q 991 944 1227 581 
Q 1463 219 1931 219 
Q 2303 219 2525 412 
Q 2747 606 2828 997 
L 3291 997 
z
" transform="scale(0.015625)"/>
       <path id="DejaVuSerif-74" d="M 691 2988 
L 184 2988 
L 184 3322 
L 691 3322 
L 691 4353 
L 1269 4353 
L 1269 3322 
L 2350 3322 
L 2350 2988 
L 1269 2988 
L 1269 878 
Q 1269 456 1350 337 
Q 1431 219 1650 219 
Q 1875 219 1978 351 
Q 2081 484 2088 781 
L 2522 781 
Q 2497 328 2275 118 
Q 2053 -91 1600 -91 
Q 1103 -91 897 129 
Q 691 350 691 878 
L 691 2988 
z
" transform="scale(0.015625)"/>
      </defs>
      <use xlink:href="#DejaVuSerif-50"/>
      <use xlink:href="#DejaVuSerif-72" x="67.285156"/>
      <use xlink:href="#DejaVuSerif-65" x="115.087891"/>
      <use xlink:href="#DejaVuSerif-64" x="174.267578"/>
      <use xlink:href="#DejaVuSerif-69" x="238.28125"/>
      <use xlink:href="#DejaVuSerif-63" x="270.263672"/>
      <use xlink:href="#DejaVuSerif-74" x="326.269531"/>
      <use xlink:href="#DejaVuSerif-69" x="366.455078"/>
      <use xlink:href="#DejaVuSerif-6f" x="398.4375"/>
      <use xlink:href="#DejaVuSerif-6e" x="458.642578"/>
     </g>
    </g>
    <g id="line2d_77">
     <path d="M 59.365625 195.246687 
L 69.365625 195.246687 
L 79.365625 195.246687 
" style="fill: none; stroke: #ff7f0e; stroke-width: 1.5; stroke-linecap: square"/>
    </g>
    <g id="text_29">
     <!-- Real -->
     <g transform="translate(87.365625 198.746687) scale(0.1 -0.1)">
      <defs>
       <path id="DejaVuSerif-52" d="M 3066 2316 
Q 3284 2256 3442 2114 
Q 3600 1972 3725 1716 
L 4403 331 
L 4972 331 
L 4972 0 
L 3872 0 
L 3144 1484 
Q 2934 1916 2759 2042 
Q 2584 2169 2278 2169 
L 1581 2169 
L 1581 331 
L 2241 331 
L 2241 0 
L 353 0 
L 353 331 
L 947 331 
L 947 4331 
L 353 4331 
L 353 4666 
L 2719 4666 
Q 3400 4666 3770 4341 
Q 4141 4016 4141 3419 
Q 4141 2938 3870 2661 
Q 3600 2384 3066 2316 
z
M 1581 2503 
L 2503 2503 
Q 2975 2503 3200 2726 
Q 3425 2950 3425 3419 
Q 3425 3888 3200 4109 
Q 2975 4331 2503 4331 
L 1581 4331 
L 1581 2503 
z
" transform="scale(0.015625)"/>
      </defs>
      <use xlink:href="#DejaVuSerif-52"/>
      <use xlink:href="#DejaVuSerif-65" x="75.292969"/>
      <use xlink:href="#DejaVuSerif-61" x="134.472656"/>
      <use xlink:href="#DejaVuSerif-6c" x="194.091797"/>
     </g>
    </g>
   </g>
  </g>
 </g>
 <defs>
  <clipPath id="p33149fd379">
   <rect x="50.365625" y="22.318125" width="357.12" height="120.96"/>
  </clipPath>
  <clipPath id="pfc5f436525">
   <rect x="50.365625" y="167.470125" width="357.12" height="120.96"/>
  </clipPath>
 </defs>
</svg>
