<?xml version="1.0" encoding="utf-8" standalone="no"?>
<!DOCTYPE svg PUBLIC "-//W3C//DTD SVG 1.1//EN"
  "http://www.w3.org/Graphics/SVG/1.1/DTD/svg11.dtd">
<svg xmlns:xlink="http://www.w3.org/1999/xlink" width="426.124687pt" height="277.514502pt" viewBox="0 0 426.124687 277.514502" xmlns="http://www.w3.org/2000/svg" version="1.1">
 <metadata>
  <rdf:RDF xmlns:dc="http://purl.org/dc/elements/1.1/" xmlns:cc="http://creativecommons.org/ns#" xmlns:rdf="http://www.w3.org/1999/02/22-rdf-syntax-ns#">
   <cc:Work>
    <dc:type rdf:resource="http://purl.org/dc/dcmitype/StillImage"/>
    <dc:date>2024-11-06T21:53:33.579926</dc:date>
    <dc:format>image/svg+xml</dc:format>
    <dc:creator>
     <cc:Agent>
      <dc:title>Matplotlib v3.9.0, https://matplotlib.org/</dc:title>
     </cc:Agent>
    </dc:creator>
   </cc:Work>
  </rdf:RDF>
 </metadata>
 <defs>
  <style type="text/css">*{stroke-linejoin: round; stroke-linecap: butt}</style>
 </defs>
 <g id="figure_1">
  <g id="patch_1">
   <path d="M 0 277.514502 
L 426.124687 277.514502 
L 426.124687 0 
L 0 0 
z
" style="fill: #ffffff"/>
  </g>
  <g id="axes_1">
   <g id="patch_2">
    <path d="M 61.804688 242.208 
L 418.924688 242.208 
L 418.924688 7.2 
L 61.804688 7.2 
z
" style="fill: #ffffff"/>
   </g>
   <g id="patch_3">
    <path d="M -5921.487014 242.208 
L -5864.580424 242.208 
L -5864.580424 7.2 
L -5921.487014 7.2 
z
" clip-path="url(#pd9cbe0a942)" style="fill: #d3d3d3"/>
   </g>
   <g id="patch_4">
    <path d="M -5798.224019 242.208 
L -5760.320907 242.208 
L -5760.320907 7.2 
L -5798.224019 7.2 
z
" clip-path="url(#pd9cbe0a942)" style="fill: #d3d3d3"/>
   </g>
   <g id="patch_5">
    <path d="M -5627.400407 242.208 
L -5551.594184 242.208 
L -5551.594184 7.2 
L -5627.400407 7.2 
z
" clip-path="url(#pd9cbe0a942)" style="fill: #d3d3d3"/>
   </g>
   <g id="patch_6">
    <path d="M -5466.338145 242.208 
L -5409.431556 242.208 
L -5409.431556 7.2 
L -5466.338145 7.2 
z
" clip-path="url(#pd9cbe0a942)" style="fill: #d3d3d3"/>
   </g>
   <g id="patch_7">
    <path d="M -5305.172038 242.208 
L -5096.445315 242.208 
L -5096.445315 7.2 
L -5305.172038 7.2 
z
" clip-path="url(#pd9cbe0a942)" style="fill: #d3d3d3"/>
   </g>
   <g id="patch_8">
    <path d="M -4982.632137 242.208 
L -4859.472986 242.208 
L -4859.472986 7.2 
L -4982.632137 7.2 
z
" clip-path="url(#pd9cbe0a942)" style="fill: #d3d3d3"/>
   </g>
   <g id="patch_9">
    <path d="M -4783.666764 242.208 
L -4755.109625 242.208 
L -4755.109625 7.2 
L -4783.666764 7.2 
z
" clip-path="url(#pd9cbe0a942)" style="fill: #d3d3d3"/>
   </g>
   <g id="patch_10">
    <path d="M -4660.403768 242.208 
L -4631.950474 242.208 
L -4631.950474 7.2 
L -4660.403768 7.2 
z
" clip-path="url(#pd9cbe0a942)" style="fill: #d3d3d3"/>
   </g>
   <g id="patch_11">
    <path d="M -4565.38638 242.208 
L -4518.137296 242.208 
L -4518.137296 7.2 
L -4565.38638 7.2 
z
" clip-path="url(#pd9cbe0a942)" style="fill: #d3d3d3"/>
   </g>
   <g id="patch_12">
    <path d="M -4461.230707 242.208 
L -4404.324117 242.208 
L -4404.324117 7.2 
L -4461.230707 7.2 
z
" clip-path="url(#pd9cbe0a942)" style="fill: #d3d3d3"/>
   </g>
   <g id="patch_13">
    <path d="M -4319.068078 242.208 
L -4271.611306 242.208 
L -4271.611306 7.2 
L -4319.068078 7.2 
z
" clip-path="url(#pd9cbe0a942)" style="fill: #d3d3d3"/>
   </g>
   <g id="patch_14">
    <path d="M -4195.805083 242.208 
L -4129.448677 242.208 
L -4129.448677 7.2 
L -4195.805083 7.2 
z
" clip-path="url(#pd9cbe0a942)" style="fill: #d3d3d3"/>
   </g>
   <g id="patch_15">
    <path d="M -4025.18916 242.208 
L -3987.182204 242.208 
L -3987.182204 7.2 
L -4025.18916 7.2 
z
" clip-path="url(#pd9cbe0a942)" style="fill: #d3d3d3"/>
   </g>
   <g id="patch_16">
    <path d="M -3920.721954 242.208 
L -3854.469392 242.208 
L -3854.469392 7.2 
L -3920.721954 7.2 
z
" clip-path="url(#pd9cbe0a942)" style="fill: #d3d3d3"/>
   </g>
   <g id="patch_17">
    <path d="M -3806.908776 242.208 
L -3740.656214 242.208 
L -3740.656214 7.2 
L -3806.908776 7.2 
z
" clip-path="url(#pd9cbe0a942)" style="fill: #d3d3d3"/>
   </g>
   <g id="patch_18">
    <path d="M -3598.493585 242.208 
L -3579.386263 242.208 
L -3579.386263 7.2 
L -3598.493585 7.2 
z
" clip-path="url(#pd9cbe0a942)" style="fill: #d3d3d3"/>
   </g>
   <g id="patch_19">
    <path d="M -3541.483152 242.208 
L -3484.680407 242.208 
L -3484.680407 7.2 
L -3541.483152 7.2 
z
" clip-path="url(#pd9cbe0a942)" style="fill: #d3d3d3"/>
   </g>
   <g id="patch_20">
    <path d="M -3418.324001 242.208 
L -3370.867229 242.208 
L -3370.867229 7.2 
L -3418.324001 7.2 
z
" clip-path="url(#pd9cbe0a942)" style="fill: #d3d3d3"/>
   </g>
   <g id="patch_21">
    <path d="M -3295.061006 242.208 
L -3247.604234 242.208 
L -3247.604234 7.2 
L -3295.061006 7.2 
z
" clip-path="url(#pd9cbe0a942)" style="fill: #d3d3d3"/>
   </g>
   <g id="patch_22">
    <path d="M -3181.247828 242.208 
L -3048.327328 242.208 
L -3048.327328 7.2 
L -3181.247828 7.2 
z
" clip-path="url(#pd9cbe0a942)" style="fill: #d3d3d3"/>
   </g>
   <g id="patch_23">
    <path d="M -2887.265065 242.208 
L -2849.361954 242.208 
L -2849.361954 7.2 
L -2887.265065 7.2 
z
" clip-path="url(#pd9cbe0a942)" style="fill: #d3d3d3"/>
   </g>
   <g id="patch_24">
    <path d="M -2593.178459 242.208 
L -2564.829008 242.208 
L -2564.829008 7.2 
L -2593.178459 7.2 
z
" clip-path="url(#pd9cbe0a942)" style="fill: #d3d3d3"/>
   </g>
   <g id="patch_25">
    <path d="M -2451.01583 242.208 
L -2413.112719 242.208 
L -2413.112719 7.2 
L -2451.01583 7.2 
z
" clip-path="url(#pd9cbe0a942)" style="fill: #d3d3d3"/>
   </g>
   <g id="patch_26">
    <path d="M -2280.399907 242.208 
L -2242.496795 242.208 
L -2242.496795 7.2 
L -2280.399907 7.2 
z
" clip-path="url(#pd9cbe0a942)" style="fill: #d3d3d3"/>
   </g>
   <g id="patch_27">
    <path d="M -2119.2338 242.208 
L -2090.780506 242.208 
L -2090.780506 7.2 
L -2119.2338 7.2 
z
" clip-path="url(#pd9cbe0a942)" style="fill: #d3d3d3"/>
   </g>
   <g id="patch_28">
    <path d="M -2014.870439 242.208 
L -1986.3133 242.208 
L -1986.3133 7.2 
L -2014.870439 7.2 
z
" clip-path="url(#pd9cbe0a942)" style="fill: #d3d3d3"/>
   </g>
   <g id="patch_29">
    <path d="M -1654.531271 242.208 
L -1616.628159 242.208 
L -1616.628159 7.2 
L -1654.531271 7.2 
z
" clip-path="url(#pd9cbe0a942)" style="fill: #d3d3d3"/>
   </g>
   <g id="patch_30">
    <path d="M -1502.814981 242.208 
L -1455.358209 242.208 
L -1455.358209 7.2 
L -1502.814981 7.2 
z
" clip-path="url(#pd9cbe0a942)" style="fill: #d3d3d3"/>
   </g>
   <g id="patch_31">
    <path d="M -1265.738808 242.208 
L -1246.839174 242.208 
L -1246.839174 7.2 
L -1265.738808 7.2 
z
" clip-path="url(#pd9cbe0a942)" style="fill: #d3d3d3"/>
   </g>
   <g id="patch_32">
    <path d="M -1208.936063 242.208 
L -1161.47929 242.208 
L -1161.47929 7.2 
L -1208.936063 7.2 
z
" clip-path="url(#pd9cbe0a942)" style="fill: #d3d3d3"/>
   </g>
   <g id="patch_33">
    <path d="M -867.600372 242.208 
L -848.49305 242.208 
L -848.49305 7.2 
L -867.600372 7.2 
z
" clip-path="url(#pd9cbe0a942)" style="fill: #d3d3d3"/>
   </g>
   <g id="patch_34">
    <path d="M -469.150404 242.208 
L -440.800954 242.208 
L -440.800954 7.2 
L -469.150404 7.2 
z
" clip-path="url(#pd9cbe0a942)" style="fill: #d3d3d3"/>
   </g>
   <g id="patch_35">
    <path d="M -213.278441 242.208 
L -156.371852 242.208 
L -156.371852 7.2 
L -213.278441 7.2 
z
" clip-path="url(#pd9cbe0a942)" style="fill: #d3d3d3"/>
   </g>
   <g id="patch_36">
    <path d="M 241.870428 242.208 
L 260.873905 242.208 
L 260.873905 7.2 
L 241.870428 7.2 
z
" clip-path="url(#pd9cbe0a942)" style="fill: #d3d3d3"/>
   </g>
   <g id="matplotlib.axis_1">
    <g id="xtick_1">
     <g id="line2d_1">
      <defs>
       <path id="m1b2693d5a4" d="M 0 0 
L 0 3.5 
" style="stroke: #000000; stroke-width: 0.8"/>
      </defs>
      <g>
       <use xlink:href="#m1b2693d5a4" x="61.804688" y="242.208" style="stroke: #000000; stroke-width: 0.8"/>
      </g>
     </g>
     <g id="text_1">
      <!-- 2015 -->
      <g transform="translate(38.724497 268.51344) rotate(-30) scale(0.1 -0.1)">
       <defs>
        <path id="DejaVuSerif-32" d="M 819 3553 
L 469 3553 
L 469 4384 
Q 803 4563 1142 4656 
Q 1481 4750 1806 4750 
Q 2534 4750 2956 4397 
Q 3378 4044 3378 3438 
Q 3378 2753 2422 1800 
Q 2347 1728 2309 1691 
L 1131 513 
L 3078 513 
L 3078 1088 
L 3444 1088 
L 3444 0 
L 434 0 
L 434 341 
L 1850 1753 
Q 2319 2222 2519 2614 
Q 2719 3006 2719 3438 
Q 2719 3909 2473 4175 
Q 2228 4441 1797 4441 
Q 1350 4441 1106 4219 
Q 863 3997 819 3553 
z
" transform="scale(0.015625)"/>
        <path id="DejaVuSerif-30" d="M 2034 219 
Q 2513 219 2750 744 
Q 2988 1269 2988 2328 
Q 2988 3391 2750 3916 
Q 2513 4441 2034 4441 
Q 1556 4441 1318 3916 
Q 1081 3391 1081 2328 
Q 1081 1269 1318 744 
Q 1556 219 2034 219 
z
M 2034 -91 
Q 1275 -91 848 546 
Q 422 1184 422 2328 
Q 422 3475 848 4112 
Q 1275 4750 2034 4750 
Q 2797 4750 3222 4112 
Q 3647 3475 3647 2328 
Q 3647 1184 3222 546 
Q 2797 -91 2034 -91 
z
" transform="scale(0.015625)"/>
        <path id="DejaVuSerif-31" d="M 909 0 
L 909 331 
L 1722 331 
L 1722 4213 
L 781 3603 
L 781 4013 
L 1919 4750 
L 2350 4750 
L 2350 331 
L 3163 331 
L 3163 0 
L 909 0 
z
" transform="scale(0.015625)"/>
        <path id="DejaVuSerif-35" d="M 3219 4666 
L 3219 4153 
L 1081 4153 
L 1081 2816 
Q 1244 2928 1461 2984 
Q 1678 3041 1947 3041 
Q 2703 3041 3140 2622 
Q 3578 2203 3578 1478 
Q 3578 738 3136 323 
Q 2694 -91 1894 -91 
Q 1572 -91 1234 -12 
Q 897 66 544 225 
L 544 1131 
L 897 1131 
Q 925 688 1179 453 
Q 1434 219 1894 219 
Q 2388 219 2653 544 
Q 2919 869 2919 1478 
Q 2919 2084 2655 2407 
Q 2391 2731 1894 2731 
Q 1613 2731 1398 2631 
Q 1184 2531 1019 2322 
L 750 2322 
L 750 4666 
L 3219 4666 
z
" transform="scale(0.015625)"/>
       </defs>
       <use xlink:href="#DejaVuSerif-32"/>
       <use xlink:href="#DejaVuSerif-30" x="63.623047"/>
       <use xlink:href="#DejaVuSerif-31" x="127.246094"/>
       <use xlink:href="#DejaVuSerif-35" x="190.869141"/>
      </g>
     </g>
    </g>
    <g id="xtick_2">
     <g id="line2d_2">
      <g>
       <use xlink:href="#m1b2693d5a4" x="99.707799" y="242.208" style="stroke: #000000; stroke-width: 0.8"/>
      </g>
     </g>
     <g id="text_2">
      <!-- 2016 -->
      <g transform="translate(76.627609 268.51344) rotate(-30) scale(0.1 -0.1)">
       <defs>
        <path id="DejaVuSerif-36" d="M 2094 219 
Q 2534 219 2771 542 
Q 3009 866 3009 1472 
Q 3009 2078 2771 2401 
Q 2534 2725 2094 2725 
Q 1647 2725 1412 2412 
Q 1178 2100 1178 1509 
Q 1178 888 1415 553 
Q 1653 219 2094 219 
z
M 1075 2569 
Q 1288 2803 1556 2918 
Q 1825 3034 2163 3034 
Q 2859 3034 3264 2615 
Q 3669 2197 3669 1472 
Q 3669 763 3233 336 
Q 2797 -91 2069 -91 
Q 1278 -91 853 498 
Q 428 1088 428 2181 
Q 428 3406 931 4078 
Q 1434 4750 2350 4750 
Q 2597 4750 2869 4703 
Q 3141 4656 3425 4563 
L 3425 3794 
L 3072 3794 
Q 3034 4109 2831 4275 
Q 2628 4441 2284 4441 
Q 1678 4441 1381 3981 
Q 1084 3522 1075 2569 
z
" transform="scale(0.015625)"/>
       </defs>
       <use xlink:href="#DejaVuSerif-32"/>
       <use xlink:href="#DejaVuSerif-30" x="63.623047"/>
       <use xlink:href="#DejaVuSerif-31" x="127.246094"/>
       <use xlink:href="#DejaVuSerif-36" x="190.869141"/>
      </g>
     </g>
    </g>
    <g id="xtick_3">
     <g id="line2d_3">
      <g>
       <use xlink:href="#m1b2693d5a4" x="137.714754" y="242.208" style="stroke: #000000; stroke-width: 0.8"/>
      </g>
     </g>
     <g id="text_3">
      <!-- 2017 -->
      <g transform="translate(114.634564 268.51344) rotate(-30) scale(0.1 -0.1)">
       <defs>
        <path id="DejaVuSerif-37" d="M 3609 4347 
L 1784 0 
L 1319 0 
L 3059 4153 
L 903 4153 
L 903 3578 
L 538 3578 
L 538 4666 
L 3609 4666 
L 3609 4347 
z
" transform="scale(0.015625)"/>
       </defs>
       <use xlink:href="#DejaVuSerif-32"/>
       <use xlink:href="#DejaVuSerif-30" x="63.623047"/>
       <use xlink:href="#DejaVuSerif-31" x="127.246094"/>
       <use xlink:href="#DejaVuSerif-37" x="190.869141"/>
      </g>
     </g>
    </g>
    <g id="xtick_4">
     <g id="line2d_4">
      <g>
       <use xlink:href="#m1b2693d5a4" x="175.617866" y="242.208" style="stroke: #000000; stroke-width: 0.8"/>
      </g>
     </g>
     <g id="text_4">
      <!-- 2018 -->
      <g transform="translate(152.537675 268.51344) rotate(-30) scale(0.1 -0.1)">
       <defs>
        <path id="DejaVuSerif-38" d="M 2981 1275 
Q 2981 1775 2732 2051 
Q 2484 2328 2034 2328 
Q 1584 2328 1336 2051 
Q 1088 1775 1088 1275 
Q 1088 772 1336 495 
Q 1584 219 2034 219 
Q 2484 219 2732 495 
Q 2981 772 2981 1275 
z
M 2853 3541 
Q 2853 3966 2637 4203 
Q 2422 4441 2034 4441 
Q 1650 4441 1433 4203 
Q 1216 3966 1216 3541 
Q 1216 3113 1433 2875 
Q 1650 2638 2034 2638 
Q 2422 2638 2637 2875 
Q 2853 3113 2853 3541 
z
M 2516 2484 
Q 3047 2413 3344 2092 
Q 3641 1772 3641 1275 
Q 3641 619 3225 264 
Q 2809 -91 2034 -91 
Q 1263 -91 845 264 
Q 428 619 428 1275 
Q 428 1772 725 2092 
Q 1022 2413 1556 2484 
Q 1084 2569 832 2842 
Q 581 3116 581 3541 
Q 581 4103 968 4426 
Q 1356 4750 2034 4750 
Q 2713 4750 3100 4426 
Q 3488 4103 3488 3541 
Q 3488 3116 3236 2842 
Q 2984 2569 2516 2484 
z
" transform="scale(0.015625)"/>
       </defs>
       <use xlink:href="#DejaVuSerif-32"/>
       <use xlink:href="#DejaVuSerif-30" x="63.623047"/>
       <use xlink:href="#DejaVuSerif-31" x="127.246094"/>
       <use xlink:href="#DejaVuSerif-38" x="190.869141"/>
      </g>
     </g>
    </g>
    <g id="xtick_5">
     <g id="line2d_5">
      <g>
       <use xlink:href="#m1b2693d5a4" x="213.520977" y="242.208" style="stroke: #000000; stroke-width: 0.8"/>
      </g>
     </g>
     <g id="text_5">
      <!-- 2019 -->
      <g transform="translate(190.440787 268.51344) rotate(-30) scale(0.1 -0.1)">
       <defs>
        <path id="DejaVuSerif-39" d="M 2994 2091 
Q 2784 1856 2512 1740 
Q 2241 1625 1900 1625 
Q 1206 1625 804 2044 
Q 403 2463 403 3188 
Q 403 3897 839 4323 
Q 1275 4750 2003 4750 
Q 2794 4750 3217 4161 
Q 3641 3572 3641 2478 
Q 3641 1253 3137 581 
Q 2634 -91 1722 -91 
Q 1475 -91 1203 -44 
Q 931 3 647 97 
L 647 872 
L 997 872 
Q 1038 556 1241 387 
Q 1444 219 1784 219 
Q 2391 219 2687 676 
Q 2984 1134 2994 2091 
z
M 1978 4441 
Q 1534 4441 1298 4117 
Q 1063 3794 1063 3188 
Q 1063 2581 1298 2256 
Q 1534 1931 1978 1931 
Q 2422 1931 2658 2245 
Q 2894 2559 2894 3150 
Q 2894 3772 2656 4106 
Q 2419 4441 1978 4441 
z
" transform="scale(0.015625)"/>
       </defs>
       <use xlink:href="#DejaVuSerif-32"/>
       <use xlink:href="#DejaVuSerif-30" x="63.623047"/>
       <use xlink:href="#DejaVuSerif-31" x="127.246094"/>
       <use xlink:href="#DejaVuSerif-39" x="190.869141"/>
      </g>
     </g>
    </g>
    <g id="xtick_6">
     <g id="line2d_6">
      <g>
       <use xlink:href="#m1b2693d5a4" x="251.424088" y="242.208" style="stroke: #000000; stroke-width: 0.8"/>
      </g>
     </g>
     <g id="text_6">
      <!-- 2020 -->
      <g transform="translate(228.343898 268.51344) rotate(-30) scale(0.1 -0.1)">
       <use xlink:href="#DejaVuSerif-32"/>
       <use xlink:href="#DejaVuSerif-30" x="63.623047"/>
       <use xlink:href="#DejaVuSerif-32" x="127.246094"/>
       <use xlink:href="#DejaVuSerif-30" x="190.869141"/>
      </g>
     </g>
    </g>
    <g id="xtick_7">
     <g id="line2d_7">
      <g>
       <use xlink:href="#m1b2693d5a4" x="289.431044" y="242.208" style="stroke: #000000; stroke-width: 0.8"/>
      </g>
     </g>
     <g id="text_7">
      <!-- 2021 -->
      <g transform="translate(266.350854 268.51344) rotate(-30) scale(0.1 -0.1)">
       <use xlink:href="#DejaVuSerif-32"/>
       <use xlink:href="#DejaVuSerif-30" x="63.623047"/>
       <use xlink:href="#DejaVuSerif-32" x="127.246094"/>
       <use xlink:href="#DejaVuSerif-31" x="190.869141"/>
      </g>
     </g>
    </g>
    <g id="xtick_8">
     <g id="line2d_8">
      <g>
       <use xlink:href="#m1b2693d5a4" x="327.334155" y="242.208" style="stroke: #000000; stroke-width: 0.8"/>
      </g>
     </g>
     <g id="text_8">
      <!-- 2022 -->
      <g transform="translate(304.253965 268.51344) rotate(-30) scale(0.1 -0.1)">
       <use xlink:href="#DejaVuSerif-32"/>
       <use xlink:href="#DejaVuSerif-30" x="63.623047"/>
       <use xlink:href="#DejaVuSerif-32" x="127.246094"/>
       <use xlink:href="#DejaVuSerif-32" x="190.869141"/>
      </g>
     </g>
    </g>
    <g id="xtick_9">
     <g id="line2d_9">
      <g>
       <use xlink:href="#m1b2693d5a4" x="365.237267" y="242.208" style="stroke: #000000; stroke-width: 0.8"/>
      </g>
     </g>
     <g id="text_9">
      <!-- 2023 -->
      <g transform="translate(342.157076 268.51344) rotate(-30) scale(0.1 -0.1)">
       <defs>
        <path id="DejaVuSerif-33" d="M 622 4469 
Q 988 4606 1323 4678 
Q 1659 4750 1953 4750 
Q 2638 4750 3022 4454 
Q 3406 4159 3406 3634 
Q 3406 3213 3140 2930 
Q 2875 2647 2388 2547 
Q 2963 2466 3280 2130 
Q 3597 1794 3597 1259 
Q 3597 606 3158 257 
Q 2719 -91 1894 -91 
Q 1528 -91 1179 -12 
Q 831 66 488 225 
L 488 1131 
L 838 1131 
Q 869 681 1141 450 
Q 1413 219 1906 219 
Q 2384 219 2661 495 
Q 2938 772 2938 1253 
Q 2938 1803 2653 2086 
Q 2369 2369 1819 2369 
L 1522 2369 
L 1522 2688 
L 1678 2688 
Q 2225 2688 2498 2914 
Q 2772 3141 2772 3597 
Q 2772 4006 2547 4223 
Q 2322 4441 1900 4441 
Q 1478 4441 1245 4241 
Q 1013 4041 972 3647 
L 622 3647 
L 622 4469 
z
" transform="scale(0.015625)"/>
       </defs>
       <use xlink:href="#DejaVuSerif-32"/>
       <use xlink:href="#DejaVuSerif-30" x="63.623047"/>
       <use xlink:href="#DejaVuSerif-32" x="127.246094"/>
       <use xlink:href="#DejaVuSerif-33" x="190.869141"/>
      </g>
     </g>
    </g>
    <g id="xtick_10">
     <g id="line2d_10">
      <g>
       <use xlink:href="#m1b2693d5a4" x="403.140378" y="242.208" style="stroke: #000000; stroke-width: 0.8"/>
      </g>
     </g>
     <g id="text_10">
      <!-- 2024 -->
      <g transform="translate(380.060188 268.51344) rotate(-30) scale(0.1 -0.1)">
       <defs>
        <path id="DejaVuSerif-34" d="M 2234 1581 
L 2234 4063 
L 641 1581 
L 2234 1581 
z
M 3609 0 
L 1484 0 
L 1484 331 
L 2234 331 
L 2234 1247 
L 197 1247 
L 197 1588 
L 2241 4750 
L 2859 4750 
L 2859 1581 
L 3750 1581 
L 3750 1247 
L 2859 1247 
L 2859 331 
L 3609 331 
L 3609 0 
z
" transform="scale(0.015625)"/>
       </defs>
       <use xlink:href="#DejaVuSerif-32"/>
       <use xlink:href="#DejaVuSerif-30" x="63.623047"/>
       <use xlink:href="#DejaVuSerif-32" x="127.246094"/>
       <use xlink:href="#DejaVuSerif-34" x="190.869141"/>
      </g>
     </g>
    </g>
   </g>
   <g id="matplotlib.axis_2">
    <g id="ytick_1">
     <g id="line2d_11">
      <path d="M 61.804688 224.223007 
L 418.924688 224.223007 
" clip-path="url(#pd9cbe0a942)" style="fill: none; stroke-dasharray: 2.96,1.28; stroke-dashoffset: 0; stroke: #b0b0b0; stroke-width: 0.8"/>
     </g>
     <g id="line2d_12">
      <defs>
       <path id="m403c743d10" d="M 0 0 
L -3.5 0 
" style="stroke: #000000; stroke-width: 0.8"/>
      </defs>
      <g>
       <use xlink:href="#m403c743d10" x="61.804688" y="224.223007" style="stroke: #000000; stroke-width: 0.8"/>
      </g>
     </g>
     <g id="text_11">
      <!-- −5.0% -->
      <g transform="translate(21.020313 228.022226) scale(0.1 -0.1)">
       <defs>
        <path id="DejaVuSerif-2212" d="M 678 2259 
L 4684 2259 
L 4684 1753 
L 678 1753 
L 678 2259 
z
" transform="scale(0.015625)"/>
        <path id="DejaVuSerif-2e" d="M 603 325 
Q 603 500 722 622 
Q 841 744 1019 744 
Q 1191 744 1312 622 
Q 1434 500 1434 325 
Q 1434 153 1312 31 
Q 1191 -91 1019 -91 
Q 841 -91 722 29 
Q 603 150 603 325 
z
" transform="scale(0.015625)"/>
        <path id="DejaVuSerif-25" d="M 1434 4459 
Q 1159 4459 1004 4200 
Q 850 3941 850 3475 
Q 850 3016 1008 2753 
Q 1166 2491 1434 2491 
Q 1700 2491 1854 2752 
Q 2009 3013 2009 3475 
Q 2009 3938 1854 4198 
Q 1700 4459 1434 4459 
z
M 4653 2169 
Q 4381 2169 4226 1906 
Q 4072 1644 4072 1178 
Q 4072 719 4228 458 
Q 4384 197 4653 197 
Q 4922 197 5075 458 
Q 5228 719 5228 1178 
Q 5228 1641 5073 1905 
Q 4919 2169 4653 2169 
z
M 4653 2450 
Q 5147 2450 5437 2106 
Q 5728 1763 5728 1178 
Q 5728 594 5436 251 
Q 5144 -91 4653 -91 
Q 4153 -91 3862 251 
Q 3572 594 3572 1178 
Q 3572 1766 3864 2108 
Q 4156 2450 4653 2450 
z
M 4263 4750 
L 4738 4750 
L 1819 -91 
L 1344 -91 
L 4263 4750 
z
M 1428 4750 
Q 1922 4750 2215 4408 
Q 2509 4066 2509 3481 
Q 2509 2891 2217 2550 
Q 1925 2209 1428 2209 
Q 931 2209 642 2551 
Q 353 2894 353 3481 
Q 353 4063 643 4406 
Q 934 4750 1428 4750 
z
" transform="scale(0.015625)"/>
       </defs>
       <use xlink:href="#DejaVuSerif-2212"/>
       <use xlink:href="#DejaVuSerif-35" x="83.789062"/>
       <use xlink:href="#DejaVuSerif-2e" x="147.412109"/>
       <use xlink:href="#DejaVuSerif-30" x="179.199219"/>
       <use xlink:href="#DejaVuSerif-25" x="242.822266"/>
      </g>
     </g>
    </g>
    <g id="ytick_2">
     <g id="line2d_13">
      <path d="M 61.804688 190.796428 
L 418.924688 190.796428 
" clip-path="url(#pd9cbe0a942)" style="fill: none; stroke-dasharray: 2.96,1.28; stroke-dashoffset: 0; stroke: #b0b0b0; stroke-width: 0.8"/>
     </g>
     <g id="line2d_14">
      <g>
       <use xlink:href="#m403c743d10" x="61.804688" y="190.796428" style="stroke: #000000; stroke-width: 0.8"/>
      </g>
     </g>
     <g id="text_12">
      <!-- 0.0% -->
      <g transform="translate(29.4 194.595647) scale(0.1 -0.1)">
       <use xlink:href="#DejaVuSerif-30"/>
       <use xlink:href="#DejaVuSerif-2e" x="63.623047"/>
       <use xlink:href="#DejaVuSerif-30" x="95.410156"/>
       <use xlink:href="#DejaVuSerif-25" x="159.033203"/>
      </g>
     </g>
    </g>
    <g id="ytick_3">
     <g id="line2d_15">
      <path d="M 61.804688 157.36985 
L 418.924688 157.36985 
" clip-path="url(#pd9cbe0a942)" style="fill: none; stroke-dasharray: 2.96,1.28; stroke-dashoffset: 0; stroke: #b0b0b0; stroke-width: 0.8"/>
     </g>
     <g id="line2d_16">
      <g>
       <use xlink:href="#m403c743d10" x="61.804688" y="157.36985" style="stroke: #000000; stroke-width: 0.8"/>
      </g>
     </g>
     <g id="text_13">
      <!-- 5.0% -->
      <g transform="translate(29.4 161.169068) scale(0.1 -0.1)">
       <use xlink:href="#DejaVuSerif-35"/>
       <use xlink:href="#DejaVuSerif-2e" x="63.623047"/>
       <use xlink:href="#DejaVuSerif-30" x="95.410156"/>
       <use xlink:href="#DejaVuSerif-25" x="159.033203"/>
      </g>
     </g>
    </g>
    <g id="ytick_4">
     <g id="line2d_17">
      <path d="M 61.804688 123.943271 
L 418.924688 123.943271 
" clip-path="url(#pd9cbe0a942)" style="fill: none; stroke-dasharray: 2.96,1.28; stroke-dashoffset: 0; stroke: #b0b0b0; stroke-width: 0.8"/>
     </g>
     <g id="line2d_18">
      <g>
       <use xlink:href="#m403c743d10" x="61.804688" y="123.943271" style="stroke: #000000; stroke-width: 0.8"/>
      </g>
     </g>
     <g id="text_14">
      <!-- 10.0% -->
      <g transform="translate(23.0375 127.74249) scale(0.1 -0.1)">
       <use xlink:href="#DejaVuSerif-31"/>
       <use xlink:href="#DejaVuSerif-30" x="63.623047"/>
       <use xlink:href="#DejaVuSerif-2e" x="127.246094"/>
       <use xlink:href="#DejaVuSerif-30" x="159.033203"/>
       <use xlink:href="#DejaVuSerif-25" x="222.65625"/>
      </g>
     </g>
    </g>
    <g id="ytick_5">
     <g id="line2d_19">
      <path d="M 61.804688 90.516692 
L 418.924688 90.516692 
" clip-path="url(#pd9cbe0a942)" style="fill: none; stroke-dasharray: 2.96,1.28; stroke-dashoffset: 0; stroke: #b0b0b0; stroke-width: 0.8"/>
     </g>
     <g id="line2d_20">
      <g>
       <use xlink:href="#m403c743d10" x="61.804688" y="90.516692" style="stroke: #000000; stroke-width: 0.8"/>
      </g>
     </g>
     <g id="text_15">
      <!-- 15.0% -->
      <g transform="translate(23.0375 94.315911) scale(0.1 -0.1)">
       <use xlink:href="#DejaVuSerif-31"/>
       <use xlink:href="#DejaVuSerif-35" x="63.623047"/>
       <use xlink:href="#DejaVuSerif-2e" x="127.246094"/>
       <use xlink:href="#DejaVuSerif-30" x="159.033203"/>
       <use xlink:href="#DejaVuSerif-25" x="222.65625"/>
      </g>
     </g>
    </g>
    <g id="ytick_6">
     <g id="line2d_21">
      <path d="M 61.804688 57.090114 
L 418.924688 57.090114 
" clip-path="url(#pd9cbe0a942)" style="fill: none; stroke-dasharray: 2.96,1.28; stroke-dashoffset: 0; stroke: #b0b0b0; stroke-width: 0.8"/>
     </g>
     <g id="line2d_22">
      <g>
       <use xlink:href="#m403c743d10" x="61.804688" y="57.090114" style="stroke: #000000; stroke-width: 0.8"/>
      </g>
     </g>
     <g id="text_16">
      <!-- 20.0% -->
      <g transform="translate(23.0375 60.889332) scale(0.1 -0.1)">
       <use xlink:href="#DejaVuSerif-32"/>
       <use xlink:href="#DejaVuSerif-30" x="63.623047"/>
       <use xlink:href="#DejaVuSerif-2e" x="127.246094"/>
       <use xlink:href="#DejaVuSerif-30" x="159.033203"/>
       <use xlink:href="#DejaVuSerif-25" x="222.65625"/>
      </g>
     </g>
    </g>
    <g id="ytick_7">
     <g id="line2d_23">
      <path d="M 61.804688 23.663535 
L 418.924688 23.663535 
" clip-path="url(#pd9cbe0a942)" style="fill: none; stroke-dasharray: 2.96,1.28; stroke-dashoffset: 0; stroke: #b0b0b0; stroke-width: 0.8"/>
     </g>
     <g id="line2d_24">
      <g>
       <use xlink:href="#m403c743d10" x="61.804688" y="23.663535" style="stroke: #000000; stroke-width: 0.8"/>
      </g>
     </g>
     <g id="text_17">
      <!-- 25.0% -->
      <g transform="translate(23.0375 27.462754) scale(0.1 -0.1)">
       <use xlink:href="#DejaVuSerif-32"/>
       <use xlink:href="#DejaVuSerif-35" x="63.623047"/>
       <use xlink:href="#DejaVuSerif-2e" x="127.246094"/>
       <use xlink:href="#DejaVuSerif-30" x="159.033203"/>
       <use xlink:href="#DejaVuSerif-25" x="222.65625"/>
      </g>
     </g>
    </g>
    <g id="text_18">
     <!-- Anuual change [%] -->
     <g transform="translate(14.798437 172.768844) rotate(-90) scale(0.1 -0.1)">
      <defs>
       <path id="DejaVuSerif-41" d="M 1281 1691 
L 2994 1691 
L 2138 3909 
L 1281 1691 
z
M -38 0 
L -38 331 
L 372 331 
L 2034 4666 
L 2559 4666 
L 4225 331 
L 4684 331 
L 4684 0 
L 2988 0 
L 2988 331 
L 3506 331 
L 3116 1356 
L 1153 1356 
L 763 331 
L 1275 331 
L 1275 0 
L -38 0 
z
" transform="scale(0.015625)"/>
       <path id="DejaVuSerif-6e" d="M 263 0 
L 263 331 
L 781 331 
L 781 2988 
L 231 2988 
L 231 3322 
L 1356 3322 
L 1356 2731 
Q 1516 3069 1770 3241 
Q 2025 3413 2363 3413 
Q 2913 3413 3172 3097 
Q 3431 2781 3431 2113 
L 3431 331 
L 3944 331 
L 3944 0 
L 2356 0 
L 2356 331 
L 2853 331 
L 2853 1931 
Q 2853 2541 2703 2767 
Q 2553 2994 2175 2994 
Q 1775 2994 1565 2701 
Q 1356 2409 1356 1850 
L 1356 331 
L 1856 331 
L 1856 0 
L 263 0 
z
" transform="scale(0.015625)"/>
       <path id="DejaVuSerif-75" d="M 2266 3322 
L 3341 3322 
L 3341 331 
L 3884 331 
L 3884 0 
L 2766 0 
L 2766 588 
Q 2606 256 2353 82 
Q 2100 -91 1766 -91 
Q 1213 -91 952 223 
Q 691 538 691 1209 
L 691 2988 
L 172 2988 
L 172 3322 
L 1269 3322 
L 1269 1388 
Q 1269 781 1417 556 
Q 1566 331 1947 331 
Q 2347 331 2556 625 
Q 2766 919 2766 1478 
L 2766 2988 
L 2266 2988 
L 2266 3322 
z
" transform="scale(0.015625)"/>
       <path id="DejaVuSerif-61" d="M 2547 1044 
L 2547 1747 
L 1806 1747 
Q 1378 1747 1168 1562 
Q 959 1378 959 997 
Q 959 650 1171 447 
Q 1384 244 1747 244 
Q 2106 244 2326 466 
Q 2547 688 2547 1044 
z
M 3122 2075 
L 3122 331 
L 3634 331 
L 3634 0 
L 2547 0 
L 2547 359 
Q 2356 128 2106 18 
Q 1856 -91 1522 -91 
Q 969 -91 644 203 
Q 319 497 319 997 
Q 319 1513 691 1797 
Q 1063 2081 1741 2081 
L 2547 2081 
L 2547 2309 
Q 2547 2688 2317 2895 
Q 2088 3103 1672 3103 
Q 1328 3103 1125 2947 
Q 922 2791 872 2484 
L 575 2484 
L 575 3156 
Q 875 3284 1158 3348 
Q 1441 3413 1709 3413 
Q 2400 3413 2761 3070 
Q 3122 2728 3122 2075 
z
" transform="scale(0.015625)"/>
       <path id="DejaVuSerif-6c" d="M 1313 331 
L 1856 331 
L 1856 0 
L 184 0 
L 184 331 
L 738 331 
L 738 4531 
L 184 4531 
L 184 4863 
L 1313 4863 
L 1313 331 
z
" transform="scale(0.015625)"/>
       <path id="DejaVuSerif-20" transform="scale(0.015625)"/>
       <path id="DejaVuSerif-63" d="M 3291 997 
Q 3169 466 2822 187 
Q 2475 -91 1925 -91 
Q 1200 -91 759 389 
Q 319 869 319 1663 
Q 319 2459 759 2936 
Q 1200 3413 1925 3413 
Q 2241 3413 2553 3339 
Q 2866 3266 3181 3116 
L 3181 2266 
L 2847 2266 
Q 2781 2703 2561 2903 
Q 2341 3103 1931 3103 
Q 1466 3103 1228 2742 
Q 991 2381 991 1663 
Q 991 944 1227 581 
Q 1463 219 1931 219 
Q 2303 219 2525 412 
Q 2747 606 2828 997 
L 3291 997 
z
" transform="scale(0.015625)"/>
       <path id="DejaVuSerif-68" d="M 263 0 
L 263 331 
L 781 331 
L 781 4531 
L 231 4531 
L 231 4863 
L 1356 4863 
L 1356 2731 
Q 1516 3069 1770 3241 
Q 2025 3413 2363 3413 
Q 2913 3413 3172 3097 
Q 3431 2781 3431 2113 
L 3431 331 
L 3944 331 
L 3944 0 
L 2356 0 
L 2356 331 
L 2853 331 
L 2853 1931 
Q 2853 2541 2704 2764 
Q 2556 2988 2175 2988 
Q 1775 2988 1565 2697 
Q 1356 2406 1356 1850 
L 1356 331 
L 1856 331 
L 1856 0 
L 263 0 
z
" transform="scale(0.015625)"/>
       <path id="DejaVuSerif-67" d="M 3359 2988 
L 3359 72 
Q 3359 -644 2965 -1033 
Q 2572 -1422 1844 -1422 
Q 1516 -1422 1216 -1362 
Q 916 -1303 641 -1184 
L 641 -488 
L 941 -488 
Q 997 -813 1206 -963 
Q 1416 -1113 1806 -1113 
Q 2313 -1113 2548 -827 
Q 2784 -541 2784 72 
L 2784 519 
Q 2616 206 2355 57 
Q 2094 -91 1709 -91 
Q 1097 -91 708 395 
Q 319 881 319 1663 
Q 319 2444 706 2928 
Q 1094 3413 1709 3413 
Q 2094 3413 2355 3264 
Q 2616 3116 2784 2803 
L 2784 3322 
L 3909 3322 
L 3909 2988 
L 3359 2988 
z
M 2784 1825 
Q 2784 2422 2554 2737 
Q 2325 3053 1888 3053 
Q 1444 3053 1217 2703 
Q 991 2353 991 1663 
Q 991 975 1217 622 
Q 1444 269 1888 269 
Q 2325 269 2554 583 
Q 2784 897 2784 1497 
L 2784 1825 
z
" transform="scale(0.015625)"/>
       <path id="DejaVuSerif-65" d="M 3469 1600 
L 991 1600 
L 991 1575 
Q 991 903 1244 561 
Q 1497 219 1991 219 
Q 2369 219 2611 417 
Q 2853 616 2950 1006 
L 3413 1006 
Q 3275 459 2904 184 
Q 2534 -91 1931 -91 
Q 1203 -91 761 389 
Q 319 869 319 1663 
Q 319 2450 753 2931 
Q 1188 3413 1894 3413 
Q 2647 3413 3050 2948 
Q 3453 2484 3469 1600 
z
M 2791 1931 
Q 2772 2513 2545 2808 
Q 2319 3103 1894 3103 
Q 1497 3103 1269 2806 
Q 1041 2509 991 1931 
L 2791 1931 
z
" transform="scale(0.015625)"/>
       <path id="DejaVuSerif-5b" d="M 550 4863 
L 2003 4863 
L 2003 4531 
L 1147 4531 
L 1147 -513 
L 2003 -513 
L 2003 -844 
L 550 -844 
L 550 4863 
z
" transform="scale(0.015625)"/>
       <path id="DejaVuSerif-5d" d="M 1947 4863 
L 1947 -844 
L 494 -844 
L 494 -513 
L 1350 -513 
L 1350 4531 
L 494 4531 
L 494 4863 
L 1947 4863 
z
" transform="scale(0.015625)"/>
      </defs>
      <use xlink:href="#DejaVuSerif-41"/>
      <use xlink:href="#DejaVuSerif-6e" x="72.216797"/>
      <use xlink:href="#DejaVuSerif-75" x="136.621094"/>
      <use xlink:href="#DejaVuSerif-75" x="201.025391"/>
      <use xlink:href="#DejaVuSerif-61" x="265.429688"/>
      <use xlink:href="#DejaVuSerif-6c" x="325.048828"/>
      <use xlink:href="#DejaVuSerif-20" x="357.03125"/>
      <use xlink:href="#DejaVuSerif-63" x="388.818359"/>
      <use xlink:href="#DejaVuSerif-68" x="444.824219"/>
      <use xlink:href="#DejaVuSerif-61" x="509.228516"/>
      <use xlink:href="#DejaVuSerif-6e" x="568.847656"/>
      <use xlink:href="#DejaVuSerif-67" x="633.251953"/>
      <use xlink:href="#DejaVuSerif-65" x="697.265625"/>
      <use xlink:href="#DejaVuSerif-20" x="756.445312"/>
      <use xlink:href="#DejaVuSerif-5b" x="788.232422"/>
      <use xlink:href="#DejaVuSerif-25" x="827.246094"/>
      <use xlink:href="#DejaVuSerif-5d" x="922.265625"/>
     </g>
    </g>
   </g>
   <g id="line2d_25">
    <path d="M -1 161.198147 
L 1.67893 161.257939 
L 4.794254 161.829008 
L 8.013423 164.67908 
L 11.232591 163.796909 
L 14.347915 162.127688 
L 17.567084 162.984005 
L 20.682408 168.123792 
L 23.901576 168.796813 
L 27.120744 166.113002 
L 30.02838 165.121004 
L 33.247549 162.314505 
L 36.362873 159.932319 
L 39.582041 161.367531 
L 42.697366 160.977034 
L 45.916534 162.170011 
L 49.135702 163.760065 
L 52.251027 162.87431 
L 55.470195 159.349821 
L 58.585519 156.871074 
L 61.804688 154.841429 
L 65.023856 152.487364 
L 67.931492 153.622742 
L 71.15066 155.528206 
L 74.265984 158.306257 
L 77.485153 157.273229 
L 80.600477 155.720705 
L 83.819645 152.967651 
L 87.038814 155.175892 
L 90.154138 155.363799 
L 93.373306 157.796256 
L 96.488631 162.151506 
L 102.926967 165.740112 
L 105.938447 164.55583 
L 109.157616 163.923411 
L 112.27294 162.059645 
L 115.492108 160.674105 
L 118.607432 163.355216 
L 121.826601 163.072963 
L 125.045769 164.264255 
L 128.161093 168.219155 
L 131.380262 167.907427 
L 134.495586 166.742319 
L 137.714754 167.417371 
L 140.933923 169.328748 
L 143.841559 169.92297 
L 147.060727 167.510584 
L 150.176051 166.437913 
L 153.39522 169.054319 
L 156.510544 168.18096 
L 159.729712 166.230365 
L 162.948881 162.077604 
L 166.064205 158.703864 
L 169.283373 160.123922 
L 172.398697 160.229574 
L 175.617866 159.708086 
L 178.837034 160.727203 
L 181.74467 160.903656 
L 184.963838 164.488041 
L 188.079163 167.071466 
L 191.298331 164.178247 
L 194.413655 164.671521 
L 197.632824 167.761323 
L 200.851992 168.519346 
L 203.967316 170.066203 
L 207.186485 170.724874 
L 210.301809 166.455895 
L 213.520977 164.879595 
L 216.740145 162.778681 
L 219.647781 161.571986 
L 222.86695 161.426996 
L 229.201442 157.425112 
L 232.316767 154.345295 
L 235.535935 150.267544 
L 238.755103 147.042882 
L 241.870428 140.17682 
L 245.089596 135.47308 
L 248.20492 134.73889 
L 251.424088 134.468673 
L 254.643257 134.972986 
L 257.654737 112.822317 
L 260.873905 58.48647 
L 263.98923 23.492292 
L 267.208398 17.882182 
L 270.323722 20.965667 
L 273.54289 30.692528 
L 276.762059 33.067559 
L 279.877383 41.199085 
L 283.096551 42.360419 
L 286.211876 45.662554 
L 289.431044 43.98228 
L 292.650212 40.193162 
L 295.557848 61.562413 
L 298.777017 108.740889 
L 301.892341 134.503358 
L 305.111509 143.258084 
L 308.226833 141.638113 
L 311.446002 133.669426 
L 314.66517 133.709967 
L 317.780494 130.585981 
L 320.999663 127.945992 
L 324.114987 126.841636 
L 330.553324 136.729964 
L 333.46096 138.533879 
L 336.680128 144.894498 
L 339.795452 153.98424 
L 343.014621 155.028566 
L 346.129945 158.081267 
L 349.349113 163.26398 
L 355.683606 176.809281 
L 358.902774 186.098231 
L 362.018098 189.756684 
L 365.237267 191.895212 
L 368.456435 192.822355 
L 371.364071 204.31713 
L 374.583239 207.49895 
L 377.698564 203.656028 
L 380.917732 201.723038 
L 384.033056 200.205639 
L 387.252225 200.39052 
L 390.471393 196.936567 
L 396.805886 188.161559 
L 399.92121 185.098785 
L 403.140378 184.144493 
L 403.140378 184.144493 
" clip-path="url(#pd9cbe0a942)" style="fill: none; stroke: #1f77b4; stroke-width: 1.5; stroke-linecap: square"/>
   </g>
   <g id="line2d_26">
    <path d="M -1 176.901773 
L 1.67893 179.507084 
L 4.794254 182.118859 
L 8.013423 177.371676 
L 11.232591 180.885467 
L 14.347915 183.757127 
L 17.567084 182.167178 
L 20.682408 187.967342 
L 23.901576 183.596802 
L 27.120744 183.235179 
L 30.02838 185.657634 
L 33.247549 187.561717 
L 36.362873 182.90432 
L 39.582041 181.276884 
L 42.697366 178.593986 
L 45.916534 178.213661 
L 49.135702 174.968826 
L 52.251027 174.142411 
L 55.470195 169.777641 
L 58.585519 158.307219 
L 61.804688 153.923093 
L 65.023856 153.349513 
L 67.931492 151.399272 
L 71.15066 146.122225 
L 74.265984 148.732193 
L 77.485153 149.847362 
L 80.600477 147.046473 
L 83.819645 150.760253 
L 87.038814 151.691209 
L 90.154138 146.401001 
L 93.373306 148.669006 
L 96.488631 157.814093 
L 99.707799 158.076915 
L 102.926967 157.310976 
L 105.938447 158.559877 
L 109.157616 158.865353 
L 112.27294 158.774174 
L 115.492108 157.397151 
L 118.607432 156.507717 
L 121.826601 157.032643 
L 125.045769 156.519076 
L 128.161093 161.573708 
L 131.380262 159.848623 
L 134.495586 156.565544 
L 137.714754 159.341379 
L 140.933923 159.405165 
L 143.841559 154.757275 
L 147.060727 158.268668 
L 150.176051 159.739921 
L 153.39522 158.833507 
L 156.510544 162.447154 
L 159.729712 158.469292 
L 162.948881 157.845577 
L 166.064205 158.474949 
L 169.283373 160.324365 
L 172.398697 162.35688 
L 175.617866 164.185032 
L 178.837034 166.487887 
L 181.74467 168.890739 
L 184.963838 168.339718 
L 188.079163 164.540401 
L 191.298331 161.173419 
L 197.632824 166.674338 
L 200.851992 166.361824 
L 207.186485 164.635177 
L 210.301809 162.873084 
L 213.520977 163.125047 
L 216.740145 160.729093 
L 219.647781 157.29723 
L 222.86695 156.74254 
L 225.982274 157.172898 
L 229.201442 159.090296 
L 232.316767 155.512358 
L 235.535935 149.725118 
L 238.755103 152.527968 
L 241.870428 151.872988 
L 245.089596 151.332972 
L 248.20492 156.816961 
L 251.424088 155.4894 
L 254.643257 152.795078 
L 257.654737 141.504992 
L 260.873905 136.392722 
L 263.98923 129.870805 
L 267.208398 129.446388 
L 270.323722 127.455878 
L 273.54289 133.031877 
L 276.762059 126.931501 
L 279.877383 123.679597 
L 283.096551 123.078273 
L 286.211876 113.588149 
L 289.431044 110.765691 
L 292.650212 112.93572 
L 295.557848 128.246658 
L 298.777017 133.528694 
L 301.892341 139.28334 
L 305.111509 139.277281 
L 308.226833 136.28139 
L 311.446002 135.190135 
L 314.66517 138.367839 
L 317.780494 138.284912 
L 320.999663 140.604248 
L 324.114987 143.058677 
L 327.334155 146.194956 
L 330.553324 147.365408 
L 333.46096 146.821419 
L 336.680128 145.06347 
L 339.795452 148.271837 
L 343.014621 148.60841 
L 346.129945 151.156589 
L 349.349113 149.925619 
L 352.568282 149.215664 
L 355.683606 158.842707 
L 358.902774 160.360591 
L 362.018098 165.267791 
L 365.237267 169.430205 
L 368.456435 172.592017 
L 371.364071 177.134113 
L 374.583239 182.472978 
L 377.698564 185.11326 
L 380.917732 188.851842 
L 384.033056 194.221767 
L 387.252225 198.77097 
L 390.471393 198.248713 
L 393.586717 196.884801 
L 396.805886 196.282598 
L 399.92121 188.340935 
L 403.140378 190.111839 
L 406.359546 188.787358 
L 409.371027 183.414967 
L 412.590195 182.346161 
L 415.705519 180.422594 
L 418.924687 173.694497 
L 422.040012 173.918153 
L 425.25918 168.446313 
L 427.124687 168.618939 
L 427.124687 168.618939 
" clip-path="url(#pd9cbe0a942)" style="fill: none; stroke: #ff7f0e; stroke-width: 1.5; stroke-linecap: square"/>
   </g>
   <g id="line2d_27">
    <path d="M -1 188.544627 
L 1.67893 189.581066 
L 4.794254 181.653749 
L 8.013423 177.474597 
L 11.232591 175.183244 
L 14.347915 170.207961 
L 17.567084 170.355039 
L 20.682408 167.494293 
L 23.901576 186.169025 
L 27.120744 181.082058 
L 30.02838 176.742569 
L 33.247549 184.54926 
L 36.362873 187.337315 
L 39.582041 189.604639 
L 42.697366 186.417567 
L 45.916534 191.900686 
L 49.135702 194.085593 
L 52.251027 201.059354 
L 55.470195 202.180043 
L 58.585519 202.88549 
L 61.804688 191.198241 
L 65.023856 202.983575 
L 67.931492 209.903397 
L 71.15066 192.412094 
L 74.265984 189.230524 
L 77.485153 184.151221 
L 80.600477 191.036075 
L 83.819645 185.462523 
L 87.038814 191.92569 
L 90.154138 194.61494 
L 93.373306 188.081687 
L 96.488631 185.046524 
L 99.707799 187.08259 
L 102.926967 182.309013 
L 105.938447 175.117348 
L 109.157616 183.083704 
L 112.27294 184.610154 
L 115.492108 179.983914 
L 118.607432 166.102363 
L 121.826601 163.640675 
L 125.045769 153.5937 
L 131.380262 145.540598 
L 134.495586 146.757928 
L 137.714754 149.354426 
L 140.933923 144.624919 
L 143.841559 151.383189 
L 147.060727 141.420719 
L 150.176051 132.47874 
L 153.39522 142.086923 
L 156.510544 152.666674 
L 159.729712 159.967559 
L 162.948881 159.176444 
L 166.064205 152.76438 
L 169.283373 156.955632 
L 172.398697 158.296679 
L 175.617866 158.414332 
L 178.837034 154.951388 
L 181.74467 156.603062 
L 184.963838 171.324926 
L 188.079163 177.689375 
L 191.298331 171.886907 
L 194.413655 173.070121 
L 197.632824 170.690292 
L 200.851992 176.732345 
L 203.967316 183.017726 
L 207.186485 181.521188 
L 210.301809 182.568169 
L 213.520977 174.913967 
L 216.740145 184.713124 
L 219.647781 180.324044 
L 222.86695 174.299246 
L 225.982274 170.668671 
L 229.201442 176.001643 
L 232.316767 175.060856 
L 235.535935 172.99406 
L 238.755103 167.972012 
L 241.870428 164.979546 
L 245.089596 166.744093 
L 248.20492 160.377066 
L 251.424088 165.643783 
L 254.643257 158.399042 
L 257.654737 157.228426 
L 260.873905 135.167593 
L 263.98923 126.249142 
L 267.208398 110.594757 
L 270.323722 102.483513 
L 273.54289 99.143561 
L 276.762059 108.10771 
L 279.877383 107.68305 
L 283.096551 111.075738 
L 286.211876 111.994132 
L 289.431044 107.933637 
L 292.650212 108.467988 
L 295.557848 106.049133 
L 298.777017 125.375819 
L 301.892341 136.21717 
L 305.111509 148.071083 
L 308.226833 150.64771 
L 311.446002 157.384069 
L 314.66517 150.363753 
L 317.780494 151.094037 
L 320.999663 143.95668 
L 324.114987 144.669828 
L 327.334155 148.629085 
L 330.553324 153.281208 
L 333.46096 150.670788 
L 336.680128 154.893804 
L 339.795452 158.285218 
L 343.014621 156.913559 
L 346.129945 164.14454 
L 349.349113 161.396419 
L 352.568282 164.07906 
L 355.683606 154.579267 
L 358.902774 158.450916 
L 362.018098 173.992121 
L 365.237267 180.316844 
L 368.456435 172.571437 
L 371.364071 183.851091 
L 374.583239 189.097622 
L 377.698564 189.534443 
L 380.917732 191.706122 
L 384.033056 190.65584 
L 387.252225 198.346387 
L 390.471393 196.60092 
L 393.586717 218.225086 
L 396.805886 217.938526 
L 399.92121 207.769066 
L 403.140378 198.698425 
L 406.359546 207.118305 
L 409.371027 200.007849 
L 412.590195 189.961945 
L 415.705519 188.166512 
L 418.924687 190.231605 
L 422.040012 185.792259 
L 425.25918 178.522256 
L 427.124687 180.166971 
L 427.124687 180.166971 
" clip-path="url(#pd9cbe0a942)" style="fill: none; stroke: #2ca02c; stroke-width: 1.5; stroke-linecap: square"/>
   </g>
   <g id="line2d_28">
    <path d="M -1 130.367829 
L 1.67893 146.028345 
L 4.794254 148.823295 
L 8.013423 150.887599 
L 11.232591 157.474174 
L 14.347915 160.728945 
L 17.567084 160.278759 
L 20.682408 168.686025 
L 23.901576 163.052679 
L 27.120744 162.482907 
L 30.02838 159.924342 
L 33.247549 166.423412 
L 36.362873 166.132864 
L 39.582041 163.574683 
L 42.697366 167.210904 
L 45.916534 168.767602 
L 49.135702 168.46424 
L 52.251027 168.291053 
L 55.470195 167.009798 
L 58.585519 169.022824 
L 61.804688 171.88813 
L 65.023856 175.469331 
L 67.931492 175.855948 
L 71.15066 180.614508 
L 74.265984 180.820834 
L 77.485153 176.61564 
L 80.600477 177.905765 
L 83.819645 181.367932 
L 87.038814 182.165518 
L 90.154138 181.110054 
L 93.373306 176.747868 
L 96.488631 179.736852 
L 99.707799 181.298347 
L 102.926967 180.093074 
L 105.938447 178.733066 
L 109.157616 174.814845 
L 112.27294 175.687418 
L 115.492108 174.875872 
L 118.607432 172.529595 
L 125.045769 170.378653 
L 128.161093 170.816209 
L 131.380262 177.882856 
L 134.495586 170.219489 
L 137.714754 170.524984 
L 140.933923 169.077283 
L 143.841559 170.6655 
L 147.060727 169.327266 
L 150.176051 164.628121 
L 153.39522 163.834281 
L 156.510544 164.759276 
L 162.948881 162.453442 
L 166.064205 163.326559 
L 169.283373 162.821755 
L 172.398697 167.141411 
L 175.617866 164.687061 
L 178.837034 166.606095 
L 181.74467 169.22701 
L 184.963838 169.183511 
L 188.079163 172.007676 
L 191.298331 175.723974 
L 194.413655 174.987558 
L 197.632824 174.419848 
L 200.851992 175.525542 
L 203.967316 174.039033 
L 207.186485 172.341435 
L 210.301809 169.662962 
L 213.520977 168.617038 
L 216.740145 166.949122 
L 219.647781 165.796746 
L 222.86695 166.304138 
L 225.982274 167.400923 
L 229.201442 165.96651 
L 232.316767 168.872747 
L 235.535935 171.653992 
L 238.755103 172.601368 
L 241.870428 177.97215 
L 245.089596 181.303444 
L 248.20492 185.593278 
L 251.424088 190.311929 
L 254.643257 190.33127 
L 257.654737 181.690762 
L 260.873905 177.025297 
L 263.98923 174.330578 
L 267.208398 170.33103 
L 270.323722 165.682693 
L 273.54289 164.230666 
L 276.762059 162.377023 
L 279.877383 153.808415 
L 283.096551 152.102459 
L 286.211876 147.522524 
L 289.431044 143.71986 
L 292.650212 145.538442 
L 295.557848 152.379265 
L 298.777017 157.894524 
L 301.892341 162.778685 
L 308.226833 168.87326 
L 311.446002 169.637136 
L 314.66517 168.425601 
L 317.780494 173.823958 
L 320.999663 178.376209 
L 324.114987 181.384598 
L 327.334155 183.498452 
L 330.553324 184.318387 
L 333.46096 185.965826 
L 336.680128 189.906178 
L 339.795452 189.155208 
L 343.014621 191.855982 
L 346.129945 192.198505 
L 349.349113 192.132404 
L 352.568282 190.141435 
L 355.683606 191.502271 
L 358.902774 184.943968 
L 362.018098 189.936623 
L 365.237267 191.18561 
L 368.456435 189.267687 
L 371.364071 194.573921 
L 374.583239 191.894891 
L 377.698564 199.044826 
L 380.917732 199.999234 
L 384.033056 201.197422 
L 387.252225 205.485767 
L 390.471393 209.523218 
L 393.586717 207.832243 
L 396.805886 211.59079 
L 399.92121 203.954339 
L 403.140378 204.468975 
L 406.359546 208.305213 
L 409.371027 200.693973 
L 412.590195 196.648314 
L 415.705519 195.088546 
L 418.924687 189.618966 
L 422.040012 188.407322 
L 425.25918 182.748301 
L 427.124687 179.773846 
L 427.124687 179.773846 
" clip-path="url(#pd9cbe0a942)" style="fill: none; stroke: #d62728; stroke-width: 1.5; stroke-linecap: square"/>
   </g>
   <g id="line2d_29">
    <path d="M -1 171.809664 
L 1.67893 170.403428 
L 4.794254 170.722884 
L 8.013423 170.556322 
L 11.232591 170.047759 
L 14.347915 168.70129 
L 17.567084 167.490928 
L 20.682408 168.018409 
L 23.901576 167.696856 
L 27.120744 169.560768 
L 30.02838 171.727443 
L 33.247549 172.259272 
L 36.362873 173.089971 
L 39.582041 174.231041 
L 42.697366 174.475993 
L 45.916534 174.37198 
L 49.135702 174.077326 
L 52.251027 173.450555 
L 55.470195 171.405181 
L 58.585519 171.457611 
L 61.804688 172.278042 
L 67.931492 170.673647 
L 71.15066 170.692047 
L 74.265984 168.647736 
L 77.485153 169.819164 
L 80.600477 169.460045 
L 83.819645 168.627709 
L 87.038814 170.433068 
L 90.154138 171.400726 
L 93.373306 172.974637 
L 96.488631 174.163119 
L 99.707799 173.860323 
L 105.938447 174.184987 
L 109.157616 172.731539 
L 115.492108 171.679654 
L 118.607432 171.590614 
L 121.826601 172.302956 
L 125.045769 171.064163 
L 128.161093 170.329173 
L 131.380262 168.924644 
L 134.495586 168.407475 
L 137.714754 168.039631 
L 140.933923 167.266221 
L 143.841559 167.129173 
L 147.060727 168.49242 
L 150.176051 169.168122 
L 153.39522 168.550209 
L 156.510544 168.339025 
L 159.729712 168.353719 
L 162.948881 167.948104 
L 166.064205 167.82035 
L 169.283373 168.201457 
L 172.398697 170.360963 
L 175.617866 171.362586 
L 178.837034 172.578357 
L 181.74467 173.257275 
L 184.963838 172.499009 
L 188.079163 172.681461 
L 191.298331 172.989024 
L 194.413655 173.814155 
L 197.632824 174.154985 
L 200.851992 174.327859 
L 203.967316 175.23323 
L 207.186485 176.853928 
L 210.301809 176.72919 
L 213.520977 177.126228 
L 216.740145 176.996117 
L 222.86695 176.977313 
L 225.982274 176.226238 
L 229.201442 178.002605 
L 232.316767 178.177804 
L 235.535935 177.9958 
L 241.870428 178.054041 
L 245.089596 176.511578 
L 251.424088 176.011211 
L 254.643257 175.012884 
L 257.654737 173.394969 
L 260.873905 170.568465 
L 263.98923 162.913706 
L 267.208398 151.06844 
L 273.54289 143.025007 
L 276.762059 140.910953 
L 283.096551 140.014312 
L 286.211876 139.735545 
L 289.431044 138.120989 
L 292.650212 136.977396 
L 295.557848 137.263774 
L 298.777017 137.983024 
L 301.892341 144.774025 
L 305.111509 155.993241 
L 308.226833 159.903899 
L 311.446002 163.368806 
L 314.66517 165.785576 
L 317.780494 165.887518 
L 324.114987 168.409139 
L 327.334155 169.043059 
L 333.46096 169.958276 
L 336.680128 169.988542 
L 339.795452 171.662448 
L 343.014621 171.105891 
L 346.129945 170.870669 
L 349.349113 170.960414 
L 352.568282 171.799547 
L 355.683606 173.156717 
L 358.902774 172.956998 
L 362.018098 174.029599 
L 365.237267 175.44782 
L 368.456435 176.398795 
L 371.364071 176.754904 
L 374.583239 176.963808 
L 377.698564 176.826894 
L 380.917732 177.139282 
L 384.033056 177.917223 
L 390.471393 178.569883 
L 393.586717 178.57018 
L 396.805886 179.451002 
L 399.92121 179.333676 
L 403.140378 178.637245 
L 406.359546 178.809273 
L 409.371027 178.41779 
L 412.590195 180.075988 
L 415.705519 182.014838 
L 415.705519 182.014838 
" clip-path="url(#pd9cbe0a942)" style="fill: none; stroke: #9467bd; stroke-width: 1.5; stroke-linecap: square"/>
   </g>
   <g id="patch_37">
    <path d="M 61.804688 242.208 
L 61.804688 7.2 
" style="fill: none; stroke: #000000; stroke-width: 0.8; stroke-linejoin: miter; stroke-linecap: square"/>
   </g>
   <g id="patch_38">
    <path d="M 418.924688 242.208 
L 418.924688 7.2 
" style="fill: none; stroke: #000000; stroke-width: 0.8; stroke-linejoin: miter; stroke-linecap: square"/>
   </g>
   <g id="patch_39">
    <path d="M 61.804688 242.208 
L 418.924687 242.208 
" style="fill: none; stroke: #000000; stroke-width: 0.8; stroke-linejoin: miter; stroke-linecap: square"/>
   </g>
   <g id="patch_40">
    <path d="M 61.804688 7.2 
L 418.924687 7.2 
" style="fill: none; stroke: #000000; stroke-width: 0.8; stroke-linejoin: miter; stroke-linecap: square"/>
   </g>
   <g id="legend_1">
    <g id="patch_41">
     <path d="M 363.552813 88.590625 
L 411.924688 88.590625 
Q 413.924688 88.590625 413.924688 86.590625 
L 413.924688 14.2 
Q 413.924688 12.2 411.924688 12.2 
L 363.552813 12.2 
Q 361.552813 12.2 361.552813 14.2 
L 361.552813 86.590625 
Q 361.552813 88.590625 363.552813 88.590625 
z
" style="fill: #ffffff; opacity: 0.8; stroke: #cccccc; stroke-linejoin: miter"/>
    </g>
    <g id="line2d_30">
     <path d="M 365.552813 20.298438 
L 375.552813 20.298438 
L 385.552813 20.298438 
" style="fill: none; stroke: #1f77b4; stroke-width: 1.5; stroke-linecap: square"/>
    </g>
    <g id="text_19">
     <!-- US -->
     <g transform="translate(393.552813 23.798438) scale(0.1 -0.1)">
      <defs>
       <path id="DejaVuSerif-55" d="M 897 4331 
L 300 4331 
L 300 4666 
L 2125 4666 
L 2125 4331 
L 1528 4331 
L 1528 1919 
Q 1528 1025 1820 672 
Q 2113 319 2828 319 
Q 3544 319 3836 672 
Q 4128 1025 4128 1919 
L 4128 4331 
L 3531 4331 
L 3531 4666 
L 5106 4666 
L 5106 4331 
L 4513 4331 
L 4513 1856 
Q 4513 791 4103 350 
Q 3694 -91 2713 -91 
Q 1731 -91 1314 353 
Q 897 797 897 1856 
L 897 4331 
z
" transform="scale(0.015625)"/>
       <path id="DejaVuSerif-53" d="M 594 225 
L 594 1288 
L 953 1284 
Q 969 753 1261 498 
Q 1553 244 2150 244 
Q 2706 244 2998 464 
Q 3291 684 3291 1106 
Q 3291 1444 3114 1625 
Q 2938 1806 2369 1978 
L 1753 2163 
Q 1084 2366 811 2669 
Q 538 2972 538 3500 
Q 538 4094 959 4422 
Q 1381 4750 2144 4750 
Q 2469 4750 2856 4679 
Q 3244 4609 3681 4475 
L 3681 3481 
L 3328 3481 
Q 3275 3975 2998 4195 
Q 2722 4416 2156 4416 
Q 1663 4416 1405 4214 
Q 1147 4013 1147 3628 
Q 1147 3294 1340 3103 
Q 1534 2913 2163 2725 
L 2741 2553 
Q 3375 2363 3645 2067 
Q 3916 1772 3916 1275 
Q 3916 597 3481 253 
Q 3047 -91 2188 -91 
Q 1803 -91 1404 -12 
Q 1006 66 594 225 
z
" transform="scale(0.015625)"/>
      </defs>
      <use xlink:href="#DejaVuSerif-55"/>
      <use xlink:href="#DejaVuSerif-53" x="84.277344"/>
     </g>
    </g>
    <g id="line2d_31">
     <path d="M 365.552813 34.976563 
L 375.552813 34.976563 
L 385.552813 34.976563 
" style="fill: none; stroke: #ff7f0e; stroke-width: 1.5; stroke-linecap: square"/>
    </g>
    <g id="text_20">
     <!-- EU -->
     <g transform="translate(393.552813 38.476563) scale(0.1 -0.1)">
      <defs>
       <path id="DejaVuSerif-45" d="M 353 0 
L 353 331 
L 947 331 
L 947 4331 
L 353 4331 
L 353 4666 
L 4109 4666 
L 4109 3628 
L 3725 3628 
L 3725 4281 
L 1581 4281 
L 1581 2719 
L 3109 2719 
L 3109 3303 
L 3494 3303 
L 3494 1753 
L 3109 1753 
L 3109 2338 
L 1581 2338 
L 1581 384 
L 3775 384 
L 3775 1038 
L 4159 1038 
L 4159 0 
L 353 0 
z
" transform="scale(0.015625)"/>
      </defs>
      <use xlink:href="#DejaVuSerif-45"/>
      <use xlink:href="#DejaVuSerif-55" x="72.998047"/>
     </g>
    </g>
    <g id="line2d_32">
     <path d="M 365.552813 49.654688 
L 375.552813 49.654688 
L 385.552813 49.654688 
" style="fill: none; stroke: #2ca02c; stroke-width: 1.5; stroke-linecap: square"/>
    </g>
    <g id="text_21">
     <!-- UK -->
     <g transform="translate(393.552813 53.154688) scale(0.1 -0.1)">
      <defs>
       <path id="DejaVuSerif-4b" d="M 353 0 
L 353 331 
L 947 331 
L 947 4331 
L 353 4331 
L 353 4666 
L 2175 4666 
L 2175 4331 
L 1581 4331 
L 1581 2566 
L 3591 4331 
L 3084 4331 
L 3084 4666 
L 4634 4666 
L 4634 4331 
L 4109 4331 
L 2106 2572 
L 4347 331 
L 4878 331 
L 4878 0 
L 3794 0 
L 1581 2216 
L 1581 331 
L 2175 331 
L 2175 0 
L 353 0 
z
" transform="scale(0.015625)"/>
      </defs>
      <use xlink:href="#DejaVuSerif-55"/>
      <use xlink:href="#DejaVuSerif-4b" x="84.277344"/>
     </g>
    </g>
    <g id="line2d_33">
     <path d="M 365.552813 64.332813 
L 375.552813 64.332813 
L 385.552813 64.332813 
" style="fill: none; stroke: #d62728; stroke-width: 1.5; stroke-linecap: square"/>
    </g>
    <g id="text_22">
     <!-- CH -->
     <g transform="translate(393.552813 67.832813) scale(0.1 -0.1)">
      <defs>
       <path id="DejaVuSerif-43" d="M 4513 1234 
Q 4306 581 3820 245 
Q 3334 -91 2591 -91 
Q 2134 -91 1743 65 
Q 1353 222 1050 525 
Q 700 875 529 1320 
Q 359 1766 359 2328 
Q 359 3416 987 4083 
Q 1616 4750 2644 4750 
Q 3025 4750 3456 4650 
Q 3888 4550 4384 4347 
L 4384 3272 
L 4031 3272 
Q 3916 3859 3567 4137 
Q 3219 4416 2591 4416 
Q 1844 4416 1459 3886 
Q 1075 3356 1075 2328 
Q 1075 1303 1459 773 
Q 1844 244 2591 244 
Q 3113 244 3450 492 
Q 3788 741 3938 1234 
L 4513 1234 
z
" transform="scale(0.015625)"/>
       <path id="DejaVuSerif-48" d="M 353 0 
L 353 331 
L 947 331 
L 947 4331 
L 353 4331 
L 353 4666 
L 2175 4666 
L 2175 4331 
L 1581 4331 
L 1581 2719 
L 4000 2719 
L 4000 4331 
L 3406 4331 
L 3406 4666 
L 5228 4666 
L 5228 4331 
L 4634 4331 
L 4634 331 
L 5228 331 
L 5228 0 
L 3406 0 
L 3406 331 
L 4000 331 
L 4000 2338 
L 1581 2338 
L 1581 331 
L 2175 331 
L 2175 0 
L 353 0 
z
" transform="scale(0.015625)"/>
      </defs>
      <use xlink:href="#DejaVuSerif-43"/>
      <use xlink:href="#DejaVuSerif-48" x="76.513672"/>
     </g>
    </g>
    <g id="line2d_34">
     <path d="M 365.552813 79.010938 
L 375.552813 79.010938 
L 385.552813 79.010938 
" style="fill: none; stroke: #9467bd; stroke-width: 1.5; stroke-linecap: square"/>
    </g>
    <g id="text_23">
     <!-- JP -->
     <g transform="translate(393.552813 82.510938) scale(0.1 -0.1)">
      <defs>
       <path id="DejaVuSerif-4a" d="M -538 -1119 
L -538 -384 
L -181 -384 
Q -172 -694 -34 -845 
Q 103 -997 378 -997 
Q 750 -997 897 -762 
Q 1044 -528 1044 153 
L 1044 4331 
L 319 4331 
L 319 4666 
L 2272 4666 
L 2272 4331 
L 1678 4331 
L 1678 128 
Q 1678 -644 1368 -987 
Q 1059 -1331 372 -1331 
Q 150 -1331 -79 -1278 
Q -309 -1225 -538 -1119 
z
" transform="scale(0.015625)"/>
       <path id="DejaVuSerif-50" d="M 1581 2375 
L 2406 2375 
Q 2872 2375 3115 2626 
Q 3359 2878 3359 3353 
Q 3359 3831 3115 4081 
Q 2872 4331 2406 4331 
L 1581 4331 
L 1581 2375 
z
M 353 0 
L 353 331 
L 947 331 
L 947 4331 
L 353 4331 
L 353 4666 
L 2559 4666 
Q 3259 4666 3668 4311 
Q 4078 3956 4078 3353 
Q 4078 2753 3668 2397 
Q 3259 2041 2559 2041 
L 1581 2041 
L 1581 331 
L 2303 331 
L 2303 0 
L 353 0 
z
" transform="scale(0.015625)"/>
      </defs>
      <use xlink:href="#DejaVuSerif-4a"/>
      <use xlink:href="#DejaVuSerif-50" x="40.087891"/>
     </g>
    </g>
   </g>
  </g>
 </g>
 <defs>
  <clipPath id="pd9cbe0a942">
   <rect x="61.804688" y="7.2" width="357.12" height="235.008"/>
  </clipPath>
 </defs>
</svg>
