<?xml version="1.0" encoding="utf-8" standalone="no"?>
<!DOCTYPE svg PUBLIC "-//W3C//DTD SVG 1.1//EN"
  "http://www.w3.org/Graphics/SVG/1.1/DTD/svg11.dtd">
<svg xmlns:xlink="http://www.w3.org/1999/xlink" width="453.6pt" height="338.4pt" viewBox="0 0 453.6 338.4" xmlns="http://www.w3.org/2000/svg" version="1.1">
 <metadata>
  <rdf:RDF xmlns:dc="http://purl.org/dc/elements/1.1/" xmlns:cc="http://creativecommons.org/ns#" xmlns:rdf="http://www.w3.org/1999/02/22-rdf-syntax-ns#">
   <cc:Work>
    <dc:type rdf:resource="http://purl.org/dc/dcmitype/StillImage"/>
    <dc:date>2026-05-19T20:43:02.133905</dc:date>
    <dc:format>image/svg+xml</dc:format>
    <dc:creator>
     <cc:Agent>
      <dc:title>Matplotlib v3.10.3, https://matplotlib.org/</dc:title>
     </cc:Agent>
    </dc:creator>
   </cc:Work>
  </rdf:RDF>
 </metadata>
 <defs>
  <style type="text/css">*{stroke-linejoin: round; stroke-linecap: butt}</style>
 </defs>
 <g id="figure_1">
  <g id="patch_1">
   <path d="M 0 338.4 
L 453.6 338.4 
L 453.6 0 
L 0 0 
z
" style="fill: #ffffff"/>
  </g>
  <g id="axes_1">
   <g id="patch_2">
    <path d="M 61.804688 314.521875 
L 446.4 314.521875 
L 446.4 7.2 
L 61.804688 7.2 
z
" style="fill: #ffffff"/>
   </g>
   <g id="patch_3">
    <path d="M -6476.315625 314.521875 
L -6472.912127 314.521875 
L -6472.912127 7.2 
L -6476.315625 7.2 
z
" clip-path="url(#p50329330c9)" style="fill: #d3d3d3"/>
   </g>
   <g id="patch_4">
    <path d="M -6370.807176 314.521875 
L -6309.544206 314.521875 
L -6309.544206 7.2 
L -6370.807176 7.2 
z
" clip-path="url(#p50329330c9)" style="fill: #d3d3d3"/>
   </g>
   <g id="patch_5">
    <path d="M -6234.667243 314.521875 
L -6207.439256 314.521875 
L -6207.439256 7.2 
L -6234.667243 7.2 
z
" clip-path="url(#p50329330c9)" style="fill: #d3d3d3"/>
   </g>
   <g id="patch_6">
    <path d="M -6050.878332 314.521875 
L -5941.966386 314.521875 
L -5941.966386 7.2 
L -6050.878332 7.2 
z
" clip-path="url(#p50329330c9)" style="fill: #d3d3d3"/>
   </g>
   <g id="patch_7">
    <path d="M -5880.703415 314.521875 
L -5819.440445 314.521875 
L -5819.440445 7.2 
L -5880.703415 7.2 
z
" clip-path="url(#p50329330c9)" style="fill: #d3d3d3"/>
   </g>
   <g id="patch_8">
    <path d="M -5703.721502 314.521875 
L -5482.49411 314.521875 
L -5482.49411 7.2 
L -5703.721502 7.2 
z
" clip-path="url(#p50329330c9)" style="fill: #d3d3d3"/>
   </g>
   <g id="patch_9">
    <path d="M -5359.968169 314.521875 
L -5230.635232 314.521875 
L -5230.635232 7.2 
L -5359.968169 7.2 
z
" clip-path="url(#p50329330c9)" style="fill: #d3d3d3"/>
   </g>
   <g id="patch_10">
    <path d="M -5155.758269 314.521875 
L -5111.51279 314.521875 
L -5111.51279 7.2 
L -5155.758269 7.2 
z
" clip-path="url(#p50329330c9)" style="fill: #d3d3d3"/>
   </g>
   <g id="patch_11">
    <path d="M -5019.618335 314.521875 
L -4985.583352 314.521875 
L -4985.583352 7.2 
L -5019.618335 7.2 
z
" clip-path="url(#p50329330c9)" style="fill: #d3d3d3"/>
   </g>
   <g id="patch_12">
    <path d="M -4917.513385 314.521875 
L -4859.653913 314.521875 
L -4859.653913 7.2 
L -4917.513385 7.2 
z
" clip-path="url(#p50329330c9)" style="fill: #d3d3d3"/>
   </g>
   <g id="patch_13">
    <path d="M -4798.390943 314.521875 
L -4737.127973 314.521875 
L -4737.127973 7.2 
L -4798.390943 7.2 
z
" clip-path="url(#p50329330c9)" style="fill: #d3d3d3"/>
   </g>
   <g id="patch_14">
    <path d="M -4655.444013 314.521875 
L -4594.181043 314.521875 
L -4594.181043 7.2 
L -4655.444013 7.2 
z
" clip-path="url(#p50329330c9)" style="fill: #d3d3d3"/>
   </g>
   <g id="patch_15">
    <path d="M -4522.707577 314.521875 
L -4444.427116 314.521875 
L -4444.427116 7.2 
L -4522.707577 7.2 
z
" clip-path="url(#p50329330c9)" style="fill: #d3d3d3"/>
   </g>
   <g id="patch_16">
    <path d="M -4332.11167 314.521875 
L -4287.866192 314.521875 
L -4287.866192 7.2 
L -4332.11167 7.2 
z
" clip-path="url(#p50329330c9)" style="fill: #d3d3d3"/>
   </g>
   <g id="patch_17">
    <path d="M -4223.199723 314.521875 
L -4141.515763 314.521875 
L -4141.515763 7.2 
L -4223.199723 7.2 
z
" clip-path="url(#p50329330c9)" style="fill: #d3d3d3"/>
   </g>
   <g id="patch_18">
    <path d="M -4100.673783 314.521875 
L -4022.393321 314.521875 
L -4022.393321 7.2 
L -4100.673783 7.2 
z
" clip-path="url(#p50329330c9)" style="fill: #d3d3d3"/>
   </g>
   <g id="patch_19">
    <path d="M -3872.639394 314.521875 
L -3848.814906 314.521875 
L -3848.814906 7.2 
L -3872.639394 7.2 
z
" clip-path="url(#p50329330c9)" style="fill: #d3d3d3"/>
   </g>
   <g id="patch_20">
    <path d="M -3814.779923 314.521875 
L -3753.516952 314.521875 
L -3753.516952 7.2 
L -3814.779923 7.2 
z
" clip-path="url(#p50329330c9)" style="fill: #d3d3d3"/>
   </g>
   <g id="patch_21">
    <path d="M -3678.639989 314.521875 
L -3630.991012 314.521875 
L -3630.991012 7.2 
L -3678.639989 7.2 
z
" clip-path="url(#p50329330c9)" style="fill: #d3d3d3"/>
   </g>
   <g id="patch_22">
    <path d="M -3539.096557 314.521875 
L -3494.851079 314.521875 
L -3494.851079 7.2 
L -3539.096557 7.2 
z
" clip-path="url(#p50329330c9)" style="fill: #d3d3d3"/>
   </g>
   <g id="patch_23">
    <path d="M -3423.377613 314.521875 
L -3277.027185 314.521875 
L -3277.027185 7.2 
L -3423.377613 7.2 
z
" clip-path="url(#p50329330c9)" style="fill: #d3d3d3"/>
   </g>
   <g id="patch_24">
    <path d="M -3106.852268 314.521875 
L -3062.606789 314.521875 
L -3062.606789 7.2 
L -3106.852268 7.2 
z
" clip-path="url(#p50329330c9)" style="fill: #d3d3d3"/>
   </g>
   <g id="patch_25">
    <path d="M -2790.326922 314.521875 
L -2763.098935 314.521875 
L -2763.098935 7.2 
L -2790.326922 7.2 
z
" clip-path="url(#p50329330c9)" style="fill: #d3d3d3"/>
   </g>
   <g id="patch_26">
    <path d="M -2637.169497 314.521875 
L -2599.731015 314.521875 
L -2599.731015 7.2 
L -2637.169497 7.2 
z
" clip-path="url(#p50329330c9)" style="fill: #d3d3d3"/>
   </g>
   <g id="patch_27">
    <path d="M -2446.57359 314.521875 
L -2412.538606 314.521875 
L -2412.538606 7.2 
L -2446.57359 7.2 
z
" clip-path="url(#p50329330c9)" style="fill: #d3d3d3"/>
   </g>
   <g id="patch_28">
    <path d="M -2279.802171 314.521875 
L -2252.574184 314.521875 
L -2252.574184 7.2 
L -2279.802171 7.2 
z
" clip-path="url(#p50329330c9)" style="fill: #d3d3d3"/>
   </g>
   <g id="patch_29">
    <path d="M -2170.890224 314.521875 
L -2136.855241 314.521875 
L -2136.855241 7.2 
L -2170.890224 7.2 
z
" clip-path="url(#p50329330c9)" style="fill: #d3d3d3"/>
   </g>
   <g id="patch_30">
    <path d="M -1776.084416 314.521875 
L -1738.645935 314.521875 
L -1738.645935 7.2 
L -1776.084416 7.2 
z
" clip-path="url(#p50329330c9)" style="fill: #d3d3d3"/>
   </g>
   <g id="patch_31">
    <path d="M -1616.119994 314.521875 
L -1561.664021 314.521875 
L -1561.664021 7.2 
L -1616.119994 7.2 
z
" clip-path="url(#p50329330c9)" style="fill: #d3d3d3"/>
   </g>
   <g id="patch_32">
    <path d="M -1364.261117 314.521875 
L -1343.840127 314.521875 
L -1343.840127 7.2 
L -1364.261117 7.2 
z
" clip-path="url(#p50329330c9)" style="fill: #d3d3d3"/>
   </g>
   <g id="patch_33">
    <path d="M -1302.998147 314.521875 
L -1248.542174 314.521875 
L -1248.542174 7.2 
L -1302.998147 7.2 
z
" clip-path="url(#p50329330c9)" style="fill: #d3d3d3"/>
   </g>
   <g id="patch_34">
    <path d="M -935.420326 314.521875 
L -908.19234 314.521875 
L -908.19234 7.2 
L -935.420326 7.2 
z
" clip-path="url(#p50329330c9)" style="fill: #d3d3d3"/>
   </g>
   <g id="patch_35">
    <path d="M -499.772539 314.521875 
L -472.544552 314.521875 
L -472.544552 7.2 
L -499.772539 7.2 
z
" clip-path="url(#p50329330c9)" style="fill: #d3d3d3"/>
   </g>
   <g id="patch_36">
    <path d="M -224.089173 314.521875 
L -162.826203 314.521875 
L -162.826203 7.2 
L -224.089173 7.2 
z
" clip-path="url(#p50329330c9)" style="fill: #d3d3d3"/>
   </g>
   <g id="patch_37">
    <path d="M 272.821585 314.521875 
L 279.628581 314.521875 
L 279.628581 7.2 
L 272.821585 7.2 
z
" clip-path="url(#p50329330c9)" style="fill: #d3d3d3"/>
   </g>
   <g id="matplotlib.axis_1">
    <g id="xtick_1">
     <g id="line2d_1">
      <path d="M 61.804688 314.521875 
L 61.804688 7.2 
" clip-path="url(#p50329330c9)" style="fill: none; stroke: #b0b0b0; stroke-width: 0.8; stroke-linecap: square"/>
     </g>
     <g id="line2d_2">
      <defs>
       <path id="m910667e22d" d="M 0 0 
L 0 3.5 
" style="stroke: #000000; stroke-width: 0.8"/>
      </defs>
      <g>
       <use xlink:href="#m910667e22d" x="61.804688" y="314.521875" style="stroke: #000000; stroke-width: 0.8"/>
      </g>
     </g>
     <g id="text_1">
      <!-- 2015 -->
      <g transform="translate(49.079687 329.120312) scale(0.1 -0.1)">
       <defs>
        <path id="DejaVuSerif-32" d="M 819 3553 
L 469 3553 
L 469 4384 
Q 803 4563 1142 4656 
Q 1481 4750 1806 4750 
Q 2534 4750 2956 4397 
Q 3378 4044 3378 3438 
Q 3378 2753 2422 1800 
Q 2347 1728 2309 1691 
L 1131 513 
L 3078 513 
L 3078 1088 
L 3444 1088 
L 3444 0 
L 434 0 
L 434 341 
L 1850 1753 
Q 2319 2222 2519 2614 
Q 2719 3006 2719 3438 
Q 2719 3909 2473 4175 
Q 2228 4441 1797 4441 
Q 1350 4441 1106 4219 
Q 863 3997 819 3553 
z
" transform="scale(0.015625)"/>
        <path id="DejaVuSerif-30" d="M 2034 219 
Q 2513 219 2750 744 
Q 2988 1269 2988 2328 
Q 2988 3391 2750 3916 
Q 2513 4441 2034 4441 
Q 1556 4441 1318 3916 
Q 1081 3391 1081 2328 
Q 1081 1269 1318 744 
Q 1556 219 2034 219 
z
M 2034 -91 
Q 1275 -91 848 546 
Q 422 1184 422 2328 
Q 422 3475 848 4112 
Q 1275 4750 2034 4750 
Q 2797 4750 3222 4112 
Q 3647 3475 3647 2328 
Q 3647 1184 3222 546 
Q 2797 -91 2034 -91 
z
" transform="scale(0.015625)"/>
        <path id="DejaVuSerif-31" d="M 909 0 
L 909 331 
L 1722 331 
L 1722 4213 
L 781 3603 
L 781 4013 
L 1919 4750 
L 2350 4750 
L 2350 331 
L 3163 331 
L 3163 0 
L 909 0 
z
" transform="scale(0.015625)"/>
        <path id="DejaVuSerif-35" d="M 3219 4666 
L 3219 4153 
L 1081 4153 
L 1081 2816 
Q 1244 2928 1461 2984 
Q 1678 3041 1947 3041 
Q 2703 3041 3140 2622 
Q 3578 2203 3578 1478 
Q 3578 738 3136 323 
Q 2694 -91 1894 -91 
Q 1572 -91 1234 -12 
Q 897 66 544 225 
L 544 1131 
L 897 1131 
Q 925 688 1179 453 
Q 1434 219 1894 219 
Q 2388 219 2653 544 
Q 2919 869 2919 1478 
Q 2919 2084 2655 2407 
Q 2391 2731 1894 2731 
Q 1613 2731 1398 2631 
Q 1184 2531 1019 2322 
L 750 2322 
L 750 4666 
L 3219 4666 
z
" transform="scale(0.015625)"/>
       </defs>
       <use xlink:href="#DejaVuSerif-32"/>
       <use xlink:href="#DejaVuSerif-30" transform="translate(63.623047 0)"/>
       <use xlink:href="#DejaVuSerif-31" transform="translate(127.246094 0)"/>
       <use xlink:href="#DejaVuSerif-35" transform="translate(190.869141 0)"/>
      </g>
     </g>
    </g>
    <g id="xtick_2">
     <g id="line2d_3">
      <path d="M 102.646668 314.521875 
L 102.646668 7.2 
" clip-path="url(#p50329330c9)" style="fill: none; stroke: #b0b0b0; stroke-width: 0.8; stroke-linecap: square"/>
     </g>
     <g id="line2d_4">
      <g>
       <use xlink:href="#m910667e22d" x="102.646668" y="314.521875" style="stroke: #000000; stroke-width: 0.8"/>
      </g>
     </g>
     <g id="text_2">
      <!-- 2016 -->
      <g transform="translate(89.921668 329.120312) scale(0.1 -0.1)">
       <defs>
        <path id="DejaVuSerif-36" d="M 2094 219 
Q 2534 219 2771 542 
Q 3009 866 3009 1472 
Q 3009 2078 2771 2401 
Q 2534 2725 2094 2725 
Q 1647 2725 1412 2412 
Q 1178 2100 1178 1509 
Q 1178 888 1415 553 
Q 1653 219 2094 219 
z
M 1075 2569 
Q 1288 2803 1556 2918 
Q 1825 3034 2163 3034 
Q 2859 3034 3264 2615 
Q 3669 2197 3669 1472 
Q 3669 763 3233 336 
Q 2797 -91 2069 -91 
Q 1278 -91 853 498 
Q 428 1088 428 2181 
Q 428 3406 931 4078 
Q 1434 4750 2350 4750 
Q 2597 4750 2869 4703 
Q 3141 4656 3425 4563 
L 3425 3794 
L 3072 3794 
Q 3034 4109 2831 4275 
Q 2628 4441 2284 4441 
Q 1678 4441 1381 3981 
Q 1084 3522 1075 2569 
z
" transform="scale(0.015625)"/>
       </defs>
       <use xlink:href="#DejaVuSerif-32"/>
       <use xlink:href="#DejaVuSerif-30" transform="translate(63.623047 0)"/>
       <use xlink:href="#DejaVuSerif-31" transform="translate(127.246094 0)"/>
       <use xlink:href="#DejaVuSerif-36" transform="translate(190.869141 0)"/>
      </g>
     </g>
    </g>
    <g id="xtick_3">
     <g id="line2d_5">
      <path d="M 143.488648 314.521875 
L 143.488648 7.2 
" clip-path="url(#p50329330c9)" style="fill: none; stroke: #b0b0b0; stroke-width: 0.8; stroke-linecap: square"/>
     </g>
     <g id="line2d_6">
      <g>
       <use xlink:href="#m910667e22d" x="143.488648" y="314.521875" style="stroke: #000000; stroke-width: 0.8"/>
      </g>
     </g>
     <g id="text_3">
      <!-- 2017 -->
      <g transform="translate(130.763648 329.120312) scale(0.1 -0.1)">
       <defs>
        <path id="DejaVuSerif-37" d="M 3609 4347 
L 1784 0 
L 1319 0 
L 3059 4153 
L 903 4153 
L 903 3578 
L 538 3578 
L 538 4666 
L 3609 4666 
L 3609 4347 
z
" transform="scale(0.015625)"/>
       </defs>
       <use xlink:href="#DejaVuSerif-32"/>
       <use xlink:href="#DejaVuSerif-30" transform="translate(63.623047 0)"/>
       <use xlink:href="#DejaVuSerif-31" transform="translate(127.246094 0)"/>
       <use xlink:href="#DejaVuSerif-37" transform="translate(190.869141 0)"/>
      </g>
     </g>
    </g>
    <g id="xtick_4">
     <g id="line2d_7">
      <path d="M 184.330628 314.521875 
L 184.330628 7.2 
" clip-path="url(#p50329330c9)" style="fill: none; stroke: #b0b0b0; stroke-width: 0.8; stroke-linecap: square"/>
     </g>
     <g id="line2d_8">
      <g>
       <use xlink:href="#m910667e22d" x="184.330628" y="314.521875" style="stroke: #000000; stroke-width: 0.8"/>
      </g>
     </g>
     <g id="text_4">
      <!-- 2018 -->
      <g transform="translate(171.605628 329.120312) scale(0.1 -0.1)">
       <defs>
        <path id="DejaVuSerif-38" d="M 2981 1275 
Q 2981 1775 2732 2051 
Q 2484 2328 2034 2328 
Q 1584 2328 1336 2051 
Q 1088 1775 1088 1275 
Q 1088 772 1336 495 
Q 1584 219 2034 219 
Q 2484 219 2732 495 
Q 2981 772 2981 1275 
z
M 2853 3541 
Q 2853 3966 2637 4203 
Q 2422 4441 2034 4441 
Q 1650 4441 1433 4203 
Q 1216 3966 1216 3541 
Q 1216 3113 1433 2875 
Q 1650 2638 2034 2638 
Q 2422 2638 2637 2875 
Q 2853 3113 2853 3541 
z
M 2516 2484 
Q 3047 2413 3344 2092 
Q 3641 1772 3641 1275 
Q 3641 619 3225 264 
Q 2809 -91 2034 -91 
Q 1263 -91 845 264 
Q 428 619 428 1275 
Q 428 1772 725 2092 
Q 1022 2413 1556 2484 
Q 1084 2569 832 2842 
Q 581 3116 581 3541 
Q 581 4103 968 4426 
Q 1356 4750 2034 4750 
Q 2713 4750 3100 4426 
Q 3488 4103 3488 3541 
Q 3488 3116 3236 2842 
Q 2984 2569 2516 2484 
z
" transform="scale(0.015625)"/>
       </defs>
       <use xlink:href="#DejaVuSerif-32"/>
       <use xlink:href="#DejaVuSerif-30" transform="translate(63.623047 0)"/>
       <use xlink:href="#DejaVuSerif-31" transform="translate(127.246094 0)"/>
       <use xlink:href="#DejaVuSerif-38" transform="translate(190.869141 0)"/>
      </g>
     </g>
    </g>
    <g id="xtick_5">
     <g id="line2d_9">
      <path d="M 225.172608 314.521875 
L 225.172608 7.2 
" clip-path="url(#p50329330c9)" style="fill: none; stroke: #b0b0b0; stroke-width: 0.8; stroke-linecap: square"/>
     </g>
     <g id="line2d_10">
      <g>
       <use xlink:href="#m910667e22d" x="225.172608" y="314.521875" style="stroke: #000000; stroke-width: 0.8"/>
      </g>
     </g>
     <g id="text_5">
      <!-- 2019 -->
      <g transform="translate(212.447608 329.120312) scale(0.1 -0.1)">
       <defs>
        <path id="DejaVuSerif-39" d="M 2994 2091 
Q 2784 1856 2512 1740 
Q 2241 1625 1900 1625 
Q 1206 1625 804 2044 
Q 403 2463 403 3188 
Q 403 3897 839 4323 
Q 1275 4750 2003 4750 
Q 2794 4750 3217 4161 
Q 3641 3572 3641 2478 
Q 3641 1253 3137 581 
Q 2634 -91 1722 -91 
Q 1475 -91 1203 -44 
Q 931 3 647 97 
L 647 872 
L 997 872 
Q 1038 556 1241 387 
Q 1444 219 1784 219 
Q 2391 219 2687 676 
Q 2984 1134 2994 2091 
z
M 1978 4441 
Q 1534 4441 1298 4117 
Q 1063 3794 1063 3188 
Q 1063 2581 1298 2256 
Q 1534 1931 1978 1931 
Q 2422 1931 2658 2245 
Q 2894 2559 2894 3150 
Q 2894 3772 2656 4106 
Q 2419 4441 1978 4441 
z
" transform="scale(0.015625)"/>
       </defs>
       <use xlink:href="#DejaVuSerif-32"/>
       <use xlink:href="#DejaVuSerif-30" transform="translate(63.623047 0)"/>
       <use xlink:href="#DejaVuSerif-31" transform="translate(127.246094 0)"/>
       <use xlink:href="#DejaVuSerif-39" transform="translate(190.869141 0)"/>
      </g>
     </g>
    </g>
    <g id="xtick_6">
     <g id="line2d_11">
      <path d="M 266.014588 314.521875 
L 266.014588 7.2 
" clip-path="url(#p50329330c9)" style="fill: none; stroke: #b0b0b0; stroke-width: 0.8; stroke-linecap: square"/>
     </g>
     <g id="line2d_12">
      <g>
       <use xlink:href="#m910667e22d" x="266.014588" y="314.521875" style="stroke: #000000; stroke-width: 0.8"/>
      </g>
     </g>
     <g id="text_6">
      <!-- 2020 -->
      <g transform="translate(253.289588 329.120312) scale(0.1 -0.1)">
       <use xlink:href="#DejaVuSerif-32"/>
       <use xlink:href="#DejaVuSerif-30" transform="translate(63.623047 0)"/>
       <use xlink:href="#DejaVuSerif-32" transform="translate(127.246094 0)"/>
       <use xlink:href="#DejaVuSerif-30" transform="translate(190.869141 0)"/>
      </g>
     </g>
    </g>
    <g id="xtick_7">
     <g id="line2d_13">
      <path d="M 306.856568 314.521875 
L 306.856568 7.2 
" clip-path="url(#p50329330c9)" style="fill: none; stroke: #b0b0b0; stroke-width: 0.8; stroke-linecap: square"/>
     </g>
     <g id="line2d_14">
      <g>
       <use xlink:href="#m910667e22d" x="306.856568" y="314.521875" style="stroke: #000000; stroke-width: 0.8"/>
      </g>
     </g>
     <g id="text_7">
      <!-- 2021 -->
      <g transform="translate(294.131568 329.120312) scale(0.1 -0.1)">
       <use xlink:href="#DejaVuSerif-32"/>
       <use xlink:href="#DejaVuSerif-30" transform="translate(63.623047 0)"/>
       <use xlink:href="#DejaVuSerif-32" transform="translate(127.246094 0)"/>
       <use xlink:href="#DejaVuSerif-31" transform="translate(190.869141 0)"/>
      </g>
     </g>
    </g>
    <g id="xtick_8">
     <g id="line2d_15">
      <path d="M 347.698548 314.521875 
L 347.698548 7.2 
" clip-path="url(#p50329330c9)" style="fill: none; stroke: #b0b0b0; stroke-width: 0.8; stroke-linecap: square"/>
     </g>
     <g id="line2d_16">
      <g>
       <use xlink:href="#m910667e22d" x="347.698548" y="314.521875" style="stroke: #000000; stroke-width: 0.8"/>
      </g>
     </g>
     <g id="text_8">
      <!-- 2022 -->
      <g transform="translate(334.973548 329.120312) scale(0.1 -0.1)">
       <use xlink:href="#DejaVuSerif-32"/>
       <use xlink:href="#DejaVuSerif-30" transform="translate(63.623047 0)"/>
       <use xlink:href="#DejaVuSerif-32" transform="translate(127.246094 0)"/>
       <use xlink:href="#DejaVuSerif-32" transform="translate(190.869141 0)"/>
      </g>
     </g>
    </g>
    <g id="xtick_9">
     <g id="line2d_17">
      <path d="M 388.540528 314.521875 
L 388.540528 7.2 
" clip-path="url(#p50329330c9)" style="fill: none; stroke: #b0b0b0; stroke-width: 0.8; stroke-linecap: square"/>
     </g>
     <g id="line2d_18">
      <g>
       <use xlink:href="#m910667e22d" x="388.540528" y="314.521875" style="stroke: #000000; stroke-width: 0.8"/>
      </g>
     </g>
     <g id="text_9">
      <!-- 2023 -->
      <g transform="translate(375.815528 329.120312) scale(0.1 -0.1)">
       <defs>
        <path id="DejaVuSerif-33" d="M 622 4469 
Q 988 4606 1323 4678 
Q 1659 4750 1953 4750 
Q 2638 4750 3022 4454 
Q 3406 4159 3406 3634 
Q 3406 3213 3140 2930 
Q 2875 2647 2388 2547 
Q 2963 2466 3280 2130 
Q 3597 1794 3597 1259 
Q 3597 606 3158 257 
Q 2719 -91 1894 -91 
Q 1528 -91 1179 -12 
Q 831 66 488 225 
L 488 1131 
L 838 1131 
Q 869 681 1141 450 
Q 1413 219 1906 219 
Q 2384 219 2661 495 
Q 2938 772 2938 1253 
Q 2938 1803 2653 2086 
Q 2369 2369 1819 2369 
L 1522 2369 
L 1522 2688 
L 1678 2688 
Q 2225 2688 2498 2914 
Q 2772 3141 2772 3597 
Q 2772 4006 2547 4223 
Q 2322 4441 1900 4441 
Q 1478 4441 1245 4241 
Q 1013 4041 972 3647 
L 622 3647 
L 622 4469 
z
" transform="scale(0.015625)"/>
       </defs>
       <use xlink:href="#DejaVuSerif-32"/>
       <use xlink:href="#DejaVuSerif-30" transform="translate(63.623047 0)"/>
       <use xlink:href="#DejaVuSerif-32" transform="translate(127.246094 0)"/>
       <use xlink:href="#DejaVuSerif-33" transform="translate(190.869141 0)"/>
      </g>
     </g>
    </g>
    <g id="xtick_10">
     <g id="line2d_19">
      <path d="M 429.382508 314.521875 
L 429.382508 7.2 
" clip-path="url(#p50329330c9)" style="fill: none; stroke: #b0b0b0; stroke-width: 0.8; stroke-linecap: square"/>
     </g>
     <g id="line2d_20">
      <g>
       <use xlink:href="#m910667e22d" x="429.382508" y="314.521875" style="stroke: #000000; stroke-width: 0.8"/>
      </g>
     </g>
     <g id="text_10">
      <!-- 2024 -->
      <g transform="translate(416.657508 329.120312) scale(0.1 -0.1)">
       <defs>
        <path id="DejaVuSerif-34" d="M 2234 1581 
L 2234 4063 
L 641 1581 
L 2234 1581 
z
M 3609 0 
L 1484 0 
L 1484 331 
L 2234 331 
L 2234 1247 
L 197 1247 
L 197 1588 
L 2241 4750 
L 2859 4750 
L 2859 1581 
L 3750 1581 
L 3750 1247 
L 2859 1247 
L 2859 331 
L 3609 331 
L 3609 0 
z
" transform="scale(0.015625)"/>
       </defs>
       <use xlink:href="#DejaVuSerif-32"/>
       <use xlink:href="#DejaVuSerif-30" transform="translate(63.623047 0)"/>
       <use xlink:href="#DejaVuSerif-32" transform="translate(127.246094 0)"/>
       <use xlink:href="#DejaVuSerif-34" transform="translate(190.869141 0)"/>
      </g>
     </g>
    </g>
    <g id="xtick_11">
     <g id="line2d_21">
      <defs>
       <path id="m1e6023dc0f" d="M 0 0 
L 0 2 
" style="stroke: #000000; stroke-width: 0.6"/>
      </defs>
      <g>
       <use xlink:href="#m1e6023dc0f" x="72.015183" y="314.521875" style="stroke: #000000; stroke-width: 0.6"/>
      </g>
     </g>
    </g>
    <g id="xtick_12">
     <g id="line2d_22">
      <g>
       <use xlink:href="#m1e6023dc0f" x="82.225678" y="314.521875" style="stroke: #000000; stroke-width: 0.6"/>
      </g>
     </g>
    </g>
    <g id="xtick_13">
     <g id="line2d_23">
      <g>
       <use xlink:href="#m1e6023dc0f" x="92.436173" y="314.521875" style="stroke: #000000; stroke-width: 0.6"/>
      </g>
     </g>
    </g>
    <g id="xtick_14">
     <g id="line2d_24">
      <g>
       <use xlink:href="#m1e6023dc0f" x="112.857163" y="314.521875" style="stroke: #000000; stroke-width: 0.6"/>
      </g>
     </g>
    </g>
    <g id="xtick_15">
     <g id="line2d_25">
      <g>
       <use xlink:href="#m1e6023dc0f" x="123.067658" y="314.521875" style="stroke: #000000; stroke-width: 0.6"/>
      </g>
     </g>
    </g>
    <g id="xtick_16">
     <g id="line2d_26">
      <g>
       <use xlink:href="#m1e6023dc0f" x="133.278153" y="314.521875" style="stroke: #000000; stroke-width: 0.6"/>
      </g>
     </g>
    </g>
    <g id="xtick_17">
     <g id="line2d_27">
      <g>
       <use xlink:href="#m1e6023dc0f" x="153.699143" y="314.521875" style="stroke: #000000; stroke-width: 0.6"/>
      </g>
     </g>
    </g>
    <g id="xtick_18">
     <g id="line2d_28">
      <g>
       <use xlink:href="#m1e6023dc0f" x="163.909638" y="314.521875" style="stroke: #000000; stroke-width: 0.6"/>
      </g>
     </g>
    </g>
    <g id="xtick_19">
     <g id="line2d_29">
      <g>
       <use xlink:href="#m1e6023dc0f" x="174.120133" y="314.521875" style="stroke: #000000; stroke-width: 0.6"/>
      </g>
     </g>
    </g>
    <g id="xtick_20">
     <g id="line2d_30">
      <g>
       <use xlink:href="#m1e6023dc0f" x="194.541123" y="314.521875" style="stroke: #000000; stroke-width: 0.6"/>
      </g>
     </g>
    </g>
    <g id="xtick_21">
     <g id="line2d_31">
      <g>
       <use xlink:href="#m1e6023dc0f" x="204.751618" y="314.521875" style="stroke: #000000; stroke-width: 0.6"/>
      </g>
     </g>
    </g>
    <g id="xtick_22">
     <g id="line2d_32">
      <g>
       <use xlink:href="#m1e6023dc0f" x="214.962113" y="314.521875" style="stroke: #000000; stroke-width: 0.6"/>
      </g>
     </g>
    </g>
    <g id="xtick_23">
     <g id="line2d_33">
      <g>
       <use xlink:href="#m1e6023dc0f" x="235.383103" y="314.521875" style="stroke: #000000; stroke-width: 0.6"/>
      </g>
     </g>
    </g>
    <g id="xtick_24">
     <g id="line2d_34">
      <g>
       <use xlink:href="#m1e6023dc0f" x="245.593598" y="314.521875" style="stroke: #000000; stroke-width: 0.6"/>
      </g>
     </g>
    </g>
    <g id="xtick_25">
     <g id="line2d_35">
      <g>
       <use xlink:href="#m1e6023dc0f" x="255.804093" y="314.521875" style="stroke: #000000; stroke-width: 0.6"/>
      </g>
     </g>
    </g>
    <g id="xtick_26">
     <g id="line2d_36">
      <g>
       <use xlink:href="#m1e6023dc0f" x="276.225083" y="314.521875" style="stroke: #000000; stroke-width: 0.6"/>
      </g>
     </g>
    </g>
    <g id="xtick_27">
     <g id="line2d_37">
      <g>
       <use xlink:href="#m1e6023dc0f" x="286.435578" y="314.521875" style="stroke: #000000; stroke-width: 0.6"/>
      </g>
     </g>
    </g>
    <g id="xtick_28">
     <g id="line2d_38">
      <g>
       <use xlink:href="#m1e6023dc0f" x="296.646073" y="314.521875" style="stroke: #000000; stroke-width: 0.6"/>
      </g>
     </g>
    </g>
    <g id="xtick_29">
     <g id="line2d_39">
      <g>
       <use xlink:href="#m1e6023dc0f" x="317.067063" y="314.521875" style="stroke: #000000; stroke-width: 0.6"/>
      </g>
     </g>
    </g>
    <g id="xtick_30">
     <g id="line2d_40">
      <g>
       <use xlink:href="#m1e6023dc0f" x="327.277558" y="314.521875" style="stroke: #000000; stroke-width: 0.6"/>
      </g>
     </g>
    </g>
    <g id="xtick_31">
     <g id="line2d_41">
      <g>
       <use xlink:href="#m1e6023dc0f" x="337.488053" y="314.521875" style="stroke: #000000; stroke-width: 0.6"/>
      </g>
     </g>
    </g>
    <g id="xtick_32">
     <g id="line2d_42">
      <g>
       <use xlink:href="#m1e6023dc0f" x="357.909043" y="314.521875" style="stroke: #000000; stroke-width: 0.6"/>
      </g>
     </g>
    </g>
    <g id="xtick_33">
     <g id="line2d_43">
      <g>
       <use xlink:href="#m1e6023dc0f" x="368.119538" y="314.521875" style="stroke: #000000; stroke-width: 0.6"/>
      </g>
     </g>
    </g>
    <g id="xtick_34">
     <g id="line2d_44">
      <g>
       <use xlink:href="#m1e6023dc0f" x="378.330033" y="314.521875" style="stroke: #000000; stroke-width: 0.6"/>
      </g>
     </g>
    </g>
    <g id="xtick_35">
     <g id="line2d_45">
      <g>
       <use xlink:href="#m1e6023dc0f" x="398.751023" y="314.521875" style="stroke: #000000; stroke-width: 0.6"/>
      </g>
     </g>
    </g>
    <g id="xtick_36">
     <g id="line2d_46">
      <g>
       <use xlink:href="#m1e6023dc0f" x="408.961518" y="314.521875" style="stroke: #000000; stroke-width: 0.6"/>
      </g>
     </g>
    </g>
    <g id="xtick_37">
     <g id="line2d_47">
      <g>
       <use xlink:href="#m1e6023dc0f" x="419.172013" y="314.521875" style="stroke: #000000; stroke-width: 0.6"/>
      </g>
     </g>
    </g>
    <g id="xtick_38">
     <g id="line2d_48">
      <g>
       <use xlink:href="#m1e6023dc0f" x="439.593003" y="314.521875" style="stroke: #000000; stroke-width: 0.6"/>
      </g>
     </g>
    </g>
   </g>
   <g id="matplotlib.axis_2">
    <g id="ytick_1">
     <g id="line2d_49">
      <path d="M 61.804688 291.002753 
L 446.4 291.002753 
" clip-path="url(#p50329330c9)" style="fill: none; stroke-dasharray: 2.96,1.28; stroke-dashoffset: 0; stroke: #b0b0b0; stroke-width: 0.8"/>
     </g>
     <g id="line2d_50">
      <defs>
       <path id="m05a38cbebf" d="M 0 0 
L -3.5 0 
" style="stroke: #000000; stroke-width: 0.8"/>
      </defs>
      <g>
       <use xlink:href="#m05a38cbebf" x="61.804688" y="291.002753" style="stroke: #000000; stroke-width: 0.8"/>
      </g>
     </g>
     <g id="text_11">
      <!-- −5.0% -->
      <g transform="translate(21.020313 294.801972) scale(0.1 -0.1)">
       <defs>
        <path id="DejaVuSerif-2212" d="M 678 2259 
L 4684 2259 
L 4684 1753 
L 678 1753 
L 678 2259 
z
" transform="scale(0.015625)"/>
        <path id="DejaVuSerif-2e" d="M 603 325 
Q 603 500 722 622 
Q 841 744 1019 744 
Q 1191 744 1312 622 
Q 1434 500 1434 325 
Q 1434 153 1312 31 
Q 1191 -91 1019 -91 
Q 841 -91 722 29 
Q 603 150 603 325 
z
" transform="scale(0.015625)"/>
        <path id="DejaVuSerif-25" d="M 1434 4459 
Q 1159 4459 1004 4200 
Q 850 3941 850 3475 
Q 850 3016 1008 2753 
Q 1166 2491 1434 2491 
Q 1700 2491 1854 2752 
Q 2009 3013 2009 3475 
Q 2009 3938 1854 4198 
Q 1700 4459 1434 4459 
z
M 4653 2169 
Q 4381 2169 4226 1906 
Q 4072 1644 4072 1178 
Q 4072 719 4228 458 
Q 4384 197 4653 197 
Q 4922 197 5075 458 
Q 5228 719 5228 1178 
Q 5228 1641 5073 1905 
Q 4919 2169 4653 2169 
z
M 4653 2450 
Q 5147 2450 5437 2106 
Q 5728 1763 5728 1178 
Q 5728 594 5436 251 
Q 5144 -91 4653 -91 
Q 4153 -91 3862 251 
Q 3572 594 3572 1178 
Q 3572 1766 3864 2108 
Q 4156 2450 4653 2450 
z
M 4263 4750 
L 4738 4750 
L 1819 -91 
L 1344 -91 
L 4263 4750 
z
M 1428 4750 
Q 1922 4750 2215 4408 
Q 2509 4066 2509 3481 
Q 2509 2891 2217 2550 
Q 1925 2209 1428 2209 
Q 931 2209 642 2551 
Q 353 2894 353 3481 
Q 353 4063 643 4406 
Q 934 4750 1428 4750 
z
" transform="scale(0.015625)"/>
       </defs>
       <use xlink:href="#DejaVuSerif-2212"/>
       <use xlink:href="#DejaVuSerif-35" transform="translate(83.789062 0)"/>
       <use xlink:href="#DejaVuSerif-2e" transform="translate(147.412109 0)"/>
       <use xlink:href="#DejaVuSerif-30" transform="translate(179.199219 0)"/>
       <use xlink:href="#DejaVuSerif-25" transform="translate(242.822266 0)"/>
      </g>
     </g>
    </g>
    <g id="ytick_2">
     <g id="line2d_51">
      <path d="M 61.804688 247.290544 
L 446.4 247.290544 
" clip-path="url(#p50329330c9)" style="fill: none; stroke-dasharray: 2.96,1.28; stroke-dashoffset: 0; stroke: #b0b0b0; stroke-width: 0.8"/>
     </g>
     <g id="line2d_52">
      <g>
       <use xlink:href="#m05a38cbebf" x="61.804688" y="247.290544" style="stroke: #000000; stroke-width: 0.8"/>
      </g>
     </g>
     <g id="text_12">
      <!-- 0.0% -->
      <g transform="translate(29.4 251.089763) scale(0.1 -0.1)">
       <use xlink:href="#DejaVuSerif-30"/>
       <use xlink:href="#DejaVuSerif-2e" transform="translate(63.623047 0)"/>
       <use xlink:href="#DejaVuSerif-30" transform="translate(95.410156 0)"/>
       <use xlink:href="#DejaVuSerif-25" transform="translate(159.033203 0)"/>
      </g>
     </g>
    </g>
    <g id="ytick_3">
     <g id="line2d_53">
      <path d="M 61.804688 203.578335 
L 446.4 203.578335 
" clip-path="url(#p50329330c9)" style="fill: none; stroke-dasharray: 2.96,1.28; stroke-dashoffset: 0; stroke: #b0b0b0; stroke-width: 0.8"/>
     </g>
     <g id="line2d_54">
      <g>
       <use xlink:href="#m05a38cbebf" x="61.804688" y="203.578335" style="stroke: #000000; stroke-width: 0.8"/>
      </g>
     </g>
     <g id="text_13">
      <!-- 5.0% -->
      <g transform="translate(29.4 207.377554) scale(0.1 -0.1)">
       <use xlink:href="#DejaVuSerif-35"/>
       <use xlink:href="#DejaVuSerif-2e" transform="translate(63.623047 0)"/>
       <use xlink:href="#DejaVuSerif-30" transform="translate(95.410156 0)"/>
       <use xlink:href="#DejaVuSerif-25" transform="translate(159.033203 0)"/>
      </g>
     </g>
    </g>
    <g id="ytick_4">
     <g id="line2d_55">
      <path d="M 61.804688 159.866126 
L 446.4 159.866126 
" clip-path="url(#p50329330c9)" style="fill: none; stroke-dasharray: 2.96,1.28; stroke-dashoffset: 0; stroke: #b0b0b0; stroke-width: 0.8"/>
     </g>
     <g id="line2d_56">
      <g>
       <use xlink:href="#m05a38cbebf" x="61.804688" y="159.866126" style="stroke: #000000; stroke-width: 0.8"/>
      </g>
     </g>
     <g id="text_14">
      <!-- 10.0% -->
      <g transform="translate(23.0375 163.665345) scale(0.1 -0.1)">
       <use xlink:href="#DejaVuSerif-31"/>
       <use xlink:href="#DejaVuSerif-30" transform="translate(63.623047 0)"/>
       <use xlink:href="#DejaVuSerif-2e" transform="translate(127.246094 0)"/>
       <use xlink:href="#DejaVuSerif-30" transform="translate(159.033203 0)"/>
       <use xlink:href="#DejaVuSerif-25" transform="translate(222.65625 0)"/>
      </g>
     </g>
    </g>
    <g id="ytick_5">
     <g id="line2d_57">
      <path d="M 61.804688 116.153917 
L 446.4 116.153917 
" clip-path="url(#p50329330c9)" style="fill: none; stroke-dasharray: 2.96,1.28; stroke-dashoffset: 0; stroke: #b0b0b0; stroke-width: 0.8"/>
     </g>
     <g id="line2d_58">
      <g>
       <use xlink:href="#m05a38cbebf" x="61.804688" y="116.153917" style="stroke: #000000; stroke-width: 0.8"/>
      </g>
     </g>
     <g id="text_15">
      <!-- 15.0% -->
      <g transform="translate(23.0375 119.953136) scale(0.1 -0.1)">
       <use xlink:href="#DejaVuSerif-31"/>
       <use xlink:href="#DejaVuSerif-35" transform="translate(63.623047 0)"/>
       <use xlink:href="#DejaVuSerif-2e" transform="translate(127.246094 0)"/>
       <use xlink:href="#DejaVuSerif-30" transform="translate(159.033203 0)"/>
       <use xlink:href="#DejaVuSerif-25" transform="translate(222.65625 0)"/>
      </g>
     </g>
    </g>
    <g id="ytick_6">
     <g id="line2d_59">
      <path d="M 61.804688 72.441708 
L 446.4 72.441708 
" clip-path="url(#p50329330c9)" style="fill: none; stroke-dasharray: 2.96,1.28; stroke-dashoffset: 0; stroke: #b0b0b0; stroke-width: 0.8"/>
     </g>
     <g id="line2d_60">
      <g>
       <use xlink:href="#m05a38cbebf" x="61.804688" y="72.441708" style="stroke: #000000; stroke-width: 0.8"/>
      </g>
     </g>
     <g id="text_16">
      <!-- 20.0% -->
      <g transform="translate(23.0375 76.240927) scale(0.1 -0.1)">
       <use xlink:href="#DejaVuSerif-32"/>
       <use xlink:href="#DejaVuSerif-30" transform="translate(63.623047 0)"/>
       <use xlink:href="#DejaVuSerif-2e" transform="translate(127.246094 0)"/>
       <use xlink:href="#DejaVuSerif-30" transform="translate(159.033203 0)"/>
       <use xlink:href="#DejaVuSerif-25" transform="translate(222.65625 0)"/>
      </g>
     </g>
    </g>
    <g id="ytick_7">
     <g id="line2d_61">
      <path d="M 61.804688 28.729499 
L 446.4 28.729499 
" clip-path="url(#p50329330c9)" style="fill: none; stroke-dasharray: 2.96,1.28; stroke-dashoffset: 0; stroke: #b0b0b0; stroke-width: 0.8"/>
     </g>
     <g id="line2d_62">
      <g>
       <use xlink:href="#m05a38cbebf" x="61.804688" y="28.729499" style="stroke: #000000; stroke-width: 0.8"/>
      </g>
     </g>
     <g id="text_17">
      <!-- 25.0% -->
      <g transform="translate(23.0375 32.528718) scale(0.1 -0.1)">
       <use xlink:href="#DejaVuSerif-32"/>
       <use xlink:href="#DejaVuSerif-35" transform="translate(63.623047 0)"/>
       <use xlink:href="#DejaVuSerif-2e" transform="translate(127.246094 0)"/>
       <use xlink:href="#DejaVuSerif-30" transform="translate(159.033203 0)"/>
       <use xlink:href="#DejaVuSerif-25" transform="translate(222.65625 0)"/>
      </g>
     </g>
    </g>
    <g id="text_18">
     <!-- Anuual change [%] -->
     <g transform="translate(14.798437 208.925781) rotate(-90) scale(0.1 -0.1)">
      <defs>
       <path id="DejaVuSerif-41" d="M 1281 1691 
L 2994 1691 
L 2138 3909 
L 1281 1691 
z
M -38 0 
L -38 331 
L 372 331 
L 2034 4666 
L 2559 4666 
L 4225 331 
L 4684 331 
L 4684 0 
L 2988 0 
L 2988 331 
L 3506 331 
L 3116 1356 
L 1153 1356 
L 763 331 
L 1275 331 
L 1275 0 
L -38 0 
z
" transform="scale(0.015625)"/>
       <path id="DejaVuSerif-6e" d="M 263 0 
L 263 331 
L 781 331 
L 781 2988 
L 231 2988 
L 231 3322 
L 1356 3322 
L 1356 2731 
Q 1516 3069 1770 3241 
Q 2025 3413 2363 3413 
Q 2913 3413 3172 3097 
Q 3431 2781 3431 2113 
L 3431 331 
L 3944 331 
L 3944 0 
L 2356 0 
L 2356 331 
L 2853 331 
L 2853 1931 
Q 2853 2541 2703 2767 
Q 2553 2994 2175 2994 
Q 1775 2994 1565 2701 
Q 1356 2409 1356 1850 
L 1356 331 
L 1856 331 
L 1856 0 
L 263 0 
z
" transform="scale(0.015625)"/>
       <path id="DejaVuSerif-75" d="M 2266 3322 
L 3341 3322 
L 3341 331 
L 3884 331 
L 3884 0 
L 2766 0 
L 2766 588 
Q 2606 256 2353 82 
Q 2100 -91 1766 -91 
Q 1213 -91 952 223 
Q 691 538 691 1209 
L 691 2988 
L 172 2988 
L 172 3322 
L 1269 3322 
L 1269 1388 
Q 1269 781 1417 556 
Q 1566 331 1947 331 
Q 2347 331 2556 625 
Q 2766 919 2766 1478 
L 2766 2988 
L 2266 2988 
L 2266 3322 
z
" transform="scale(0.015625)"/>
       <path id="DejaVuSerif-61" d="M 2547 1044 
L 2547 1747 
L 1806 1747 
Q 1378 1747 1168 1562 
Q 959 1378 959 997 
Q 959 650 1171 447 
Q 1384 244 1747 244 
Q 2106 244 2326 466 
Q 2547 688 2547 1044 
z
M 3122 2075 
L 3122 331 
L 3634 331 
L 3634 0 
L 2547 0 
L 2547 359 
Q 2356 128 2106 18 
Q 1856 -91 1522 -91 
Q 969 -91 644 203 
Q 319 497 319 997 
Q 319 1513 691 1797 
Q 1063 2081 1741 2081 
L 2547 2081 
L 2547 2309 
Q 2547 2688 2317 2895 
Q 2088 3103 1672 3103 
Q 1328 3103 1125 2947 
Q 922 2791 872 2484 
L 575 2484 
L 575 3156 
Q 875 3284 1158 3348 
Q 1441 3413 1709 3413 
Q 2400 3413 2761 3070 
Q 3122 2728 3122 2075 
z
" transform="scale(0.015625)"/>
       <path id="DejaVuSerif-6c" d="M 1313 331 
L 1856 331 
L 1856 0 
L 184 0 
L 184 331 
L 738 331 
L 738 4531 
L 184 4531 
L 184 4863 
L 1313 4863 
L 1313 331 
z
" transform="scale(0.015625)"/>
       <path id="DejaVuSerif-20" transform="scale(0.015625)"/>
       <path id="DejaVuSerif-63" d="M 3291 997 
Q 3169 466 2822 187 
Q 2475 -91 1925 -91 
Q 1200 -91 759 389 
Q 319 869 319 1663 
Q 319 2459 759 2936 
Q 1200 3413 1925 3413 
Q 2241 3413 2553 3339 
Q 2866 3266 3181 3116 
L 3181 2266 
L 2847 2266 
Q 2781 2703 2561 2903 
Q 2341 3103 1931 3103 
Q 1466 3103 1228 2742 
Q 991 2381 991 1663 
Q 991 944 1227 581 
Q 1463 219 1931 219 
Q 2303 219 2525 412 
Q 2747 606 2828 997 
L 3291 997 
z
" transform="scale(0.015625)"/>
       <path id="DejaVuSerif-68" d="M 263 0 
L 263 331 
L 781 331 
L 781 4531 
L 231 4531 
L 231 4863 
L 1356 4863 
L 1356 2731 
Q 1516 3069 1770 3241 
Q 2025 3413 2363 3413 
Q 2913 3413 3172 3097 
Q 3431 2781 3431 2113 
L 3431 331 
L 3944 331 
L 3944 0 
L 2356 0 
L 2356 331 
L 2853 331 
L 2853 1931 
Q 2853 2541 2704 2764 
Q 2556 2988 2175 2988 
Q 1775 2988 1565 2697 
Q 1356 2406 1356 1850 
L 1356 331 
L 1856 331 
L 1856 0 
L 263 0 
z
" transform="scale(0.015625)"/>
       <path id="DejaVuSerif-67" d="M 3359 2988 
L 3359 72 
Q 3359 -644 2965 -1033 
Q 2572 -1422 1844 -1422 
Q 1516 -1422 1216 -1362 
Q 916 -1303 641 -1184 
L 641 -488 
L 941 -488 
Q 997 -813 1206 -963 
Q 1416 -1113 1806 -1113 
Q 2313 -1113 2548 -827 
Q 2784 -541 2784 72 
L 2784 519 
Q 2616 206 2355 57 
Q 2094 -91 1709 -91 
Q 1097 -91 708 395 
Q 319 881 319 1663 
Q 319 2444 706 2928 
Q 1094 3413 1709 3413 
Q 2094 3413 2355 3264 
Q 2616 3116 2784 2803 
L 2784 3322 
L 3909 3322 
L 3909 2988 
L 3359 2988 
z
M 2784 1825 
Q 2784 2422 2554 2737 
Q 2325 3053 1888 3053 
Q 1444 3053 1217 2703 
Q 991 2353 991 1663 
Q 991 975 1217 622 
Q 1444 269 1888 269 
Q 2325 269 2554 583 
Q 2784 897 2784 1497 
L 2784 1825 
z
" transform="scale(0.015625)"/>
       <path id="DejaVuSerif-65" d="M 3469 1600 
L 991 1600 
L 991 1575 
Q 991 903 1244 561 
Q 1497 219 1991 219 
Q 2369 219 2611 417 
Q 2853 616 2950 1006 
L 3413 1006 
Q 3275 459 2904 184 
Q 2534 -91 1931 -91 
Q 1203 -91 761 389 
Q 319 869 319 1663 
Q 319 2450 753 2931 
Q 1188 3413 1894 3413 
Q 2647 3413 3050 2948 
Q 3453 2484 3469 1600 
z
M 2791 1931 
Q 2772 2513 2545 2808 
Q 2319 3103 1894 3103 
Q 1497 3103 1269 2806 
Q 1041 2509 991 1931 
L 2791 1931 
z
" transform="scale(0.015625)"/>
       <path id="DejaVuSerif-5b" d="M 550 4863 
L 2003 4863 
L 2003 4531 
L 1147 4531 
L 1147 -513 
L 2003 -513 
L 2003 -844 
L 550 -844 
L 550 4863 
z
" transform="scale(0.015625)"/>
       <path id="DejaVuSerif-5d" d="M 1947 4863 
L 1947 -844 
L 494 -844 
L 494 -513 
L 1350 -513 
L 1350 4531 
L 494 4531 
L 494 4863 
L 1947 4863 
z
" transform="scale(0.015625)"/>
      </defs>
      <use xlink:href="#DejaVuSerif-41"/>
      <use xlink:href="#DejaVuSerif-6e" transform="translate(72.216797 0)"/>
      <use xlink:href="#DejaVuSerif-75" transform="translate(136.621094 0)"/>
      <use xlink:href="#DejaVuSerif-75" transform="translate(201.025391 0)"/>
      <use xlink:href="#DejaVuSerif-61" transform="translate(265.429688 0)"/>
      <use xlink:href="#DejaVuSerif-6c" transform="translate(325.048828 0)"/>
      <use xlink:href="#DejaVuSerif-20" transform="translate(357.03125 0)"/>
      <use xlink:href="#DejaVuSerif-63" transform="translate(388.818359 0)"/>
      <use xlink:href="#DejaVuSerif-68" transform="translate(444.824219 0)"/>
      <use xlink:href="#DejaVuSerif-61" transform="translate(509.228516 0)"/>
      <use xlink:href="#DejaVuSerif-6e" transform="translate(568.847656 0)"/>
      <use xlink:href="#DejaVuSerif-67" transform="translate(633.251953 0)"/>
      <use xlink:href="#DejaVuSerif-65" transform="translate(697.265625 0)"/>
      <use xlink:href="#DejaVuSerif-20" transform="translate(756.445312 0)"/>
      <use xlink:href="#DejaVuSerif-5b" transform="translate(788.232422 0)"/>
      <use xlink:href="#DejaVuSerif-25" transform="translate(827.246094 0)"/>
      <use xlink:href="#DejaVuSerif-5d" transform="translate(922.265625 0)"/>
     </g>
    </g>
   </g>
   <g id="line2d_63">
    <path d="M 58.401189 202.926082 
L 61.804688 200.271899 
L 65.208186 197.193468 
L 68.611684 198.678212 
L 72.015183 201.170002 
L 75.418681 204.802882 
L 78.822179 203.451983 
L 82.225678 201.421735 
L 85.629176 197.821544 
L 89.032674 200.709278 
L 92.436173 200.955006 
L 95.839671 204.135951 
L 99.243169 209.831346 
L 102.646668 212.137834 
L 106.050166 214.524195 
L 109.453664 212.975499 
L 112.857163 212.148481 
L 116.260661 209.711218 
L 119.664159 207.899336 
L 123.067658 211.405447 
L 126.471156 211.036342 
L 129.874654 212.594205 
L 133.278153 217.76606 
L 136.681651 217.358411 
L 140.085149 215.83479 
L 143.488648 216.71756 
L 146.892146 219.217083 
L 150.295644 219.994152 
L 153.699143 216.839456 
L 157.102641 215.436715 
L 160.506139 218.858211 
L 163.909638 217.716112 
L 167.313136 215.165303 
L 170.716634 209.734704 
L 174.120133 205.322836 
L 177.523631 207.179858 
L 180.927129 207.31802 
L 184.330628 206.636066 
L 187.734126 207.968773 
L 191.137624 208.199522 
L 194.541123 212.886852 
L 197.944621 216.265217 
L 201.348119 212.481731 
L 204.751618 213.12679 
L 208.155116 217.167349 
L 211.558614 218.158623 
L 214.962113 220.18146 
L 218.365611 221.042809 
L 221.76911 215.460231 
L 225.172608 213.39889 
L 228.576106 210.651508 
L 231.979605 209.073504 
L 235.383103 208.883899 
L 238.786601 206.262727 
L 242.1901 203.650602 
L 245.593598 199.6231 
L 248.997096 194.290592 
L 252.400595 190.073675 
L 255.804093 181.094871 
L 259.207591 174.943751 
L 262.61109 173.983645 
L 266.014588 173.63028 
L 269.418086 174.289775 
L 272.821585 145.323163 
L 276.225083 74.267735 
L 279.628581 28.505563 
L 283.03208 21.169176 
L 286.435578 25.201475 
L 289.839076 37.92137 
L 293.242575 41.027218 
L 296.646073 51.66088 
L 300.049571 53.179566 
L 303.45307 57.497795 
L 306.856568 55.300487 
L 310.260066 50.345426 
L 313.663565 78.290169 
L 317.067063 139.985847 
L 320.470561 173.675638 
L 323.87406 185.124264 
L 327.277558 183.005815 
L 330.681056 172.585098 
L 334.084555 172.638114 
L 337.488053 168.552852 
L 340.891551 165.100516 
L 344.29505 163.656342 
L 347.698548 169.457005 
L 351.102046 175.087418 
L 354.505545 178.135176 
L 357.909043 185.759377 
L 361.312541 198.25886 
L 364.71604 201.043649 
L 368.119538 206.506896 
L 371.523037 212.618431 
L 374.926535 219.772354 
L 378.330033 227.745741 
L 381.733532 240.955672 
L 385.13703 247.480267 
L 388.540528 249.37313 
L 391.944027 249.715239 
L 395.347525 264.862504 
L 398.751023 269.253652 
L 402.154522 264.309898 
L 405.55802 262.150662 
L 408.961518 259.903597 
L 412.365017 260.449058 
L 415.768515 257.228343 
L 419.172013 252.132783 
L 422.575512 247.353753 
L 425.97901 242.925965 
L 429.382508 241.597203 
L 432.786007 242.111896 
L 436.189505 229.390115 
M 442.996502 224.636771 
L 446.4 221.830211 
L 449.803498 223.473503 
" clip-path="url(#p50329330c9)" style="fill: none; stroke: #1f77b4; stroke-width: 1.5; stroke-linecap: square"/>
   </g>
   <g id="line2d_64">
    <path d="M 58.401189 204.80414 
L 61.804688 199.070984 
L 65.208186 198.320908 
L 68.611684 195.770562 
L 72.015183 188.869725 
L 75.418681 192.282802 
L 78.822179 193.741117 
L 82.225678 190.078371 
L 85.629176 194.934912 
L 89.032674 196.15233 
L 92.436173 189.234283 
L 95.839671 192.200171 
L 99.243169 204.159276 
L 102.646668 204.50297 
L 106.050166 203.501346 
L 109.453664 205.134543 
L 112.857163 205.534017 
L 116.260661 205.414782 
L 119.664159 203.614038 
L 123.067658 202.450918 
L 126.471156 203.137367 
L 129.874654 202.465772 
L 133.278153 209.075754 
L 136.681651 206.819847 
L 140.085149 202.526538 
L 143.488648 206.15652 
L 146.892146 206.239934 
L 150.295644 200.16185 
L 153.699143 204.753727 
L 157.102641 206.677697 
L 160.506139 205.492371 
L 163.909638 210.217968 
L 167.313136 205.016085 
L 170.716634 204.200448 
L 174.120133 205.023483 
L 177.523631 207.441979 
L 180.927129 210.099916 
L 184.330628 212.490604 
L 187.734126 215.502067 
L 191.137624 218.644296 
L 194.541123 217.923721 
L 197.944621 212.955323 
L 201.348119 208.552294 
L 204.751618 212.036635 
L 208.155116 215.74589 
L 211.558614 215.337213 
L 214.962113 214.158641 
L 218.365611 213.079263 
L 221.76911 210.774959 
L 225.172608 211.104453 
L 228.576106 207.971246 
L 231.979605 203.48337 
L 235.383103 202.757996 
L 238.786601 203.32078 
L 242.1901 205.828177 
L 245.593598 201.149278 
L 248.997096 193.581257 
L 252.400595 197.246567 
L 255.804093 196.390044 
L 259.207591 195.683861 
L 262.61109 202.855318 
L 266.014588 201.136367 
L 269.418086 197.613139 
L 272.821585 182.848961 
L 276.225083 176.164268 
L 279.628581 167.636287 
L 283.03208 167.081584 
L 286.435578 164.478699 
L 289.839076 171.770581 
L 293.242575 163.792978 
L 296.646073 159.54029 
L 300.049571 158.75352 
L 303.45307 146.342937 
L 306.856568 142.633767 
L 310.260066 145.471493 
L 313.663565 165.494992 
L 317.067063 172.401953 
L 320.470561 179.926403 
L 323.87406 179.919519 
L 327.277558 176.003476 
L 330.681056 174.575944 
L 334.084555 178.731286 
L 337.488053 178.623012 
L 340.891551 181.656206 
L 344.29505 184.866246 
L 347.698548 189.016654 
L 351.102046 190.523356 
L 354.505545 189.815013 
L 357.909043 187.455638 
L 361.312541 191.649796 
L 364.71604 192.073257 
L 368.119538 195.476172 
L 371.523037 193.916115 
L 374.926535 192.853291 
L 378.330033 205.372285 
L 381.733532 207.3555 
L 385.13703 213.776864 
L 388.540528 219.876196 
L 391.944027 224.060505 
L 395.347525 229.455999 
L 398.751023 236.562944 
L 402.154522 239.982992 
L 405.55802 244.916599 
L 408.961518 251.752743 
L 412.365017 257.657125 
L 415.768515 257.044331 
L 419.172013 255.283852 
L 422.575512 254.539181 
L 425.97901 244.153294 
L 429.382508 246.085727 
L 432.786007 244.415448 
L 436.189505 237.619027 
L 439.593003 236.47213 
L 442.996502 233.986212 
L 446.4 224.968087 
L 449.803498 225.318121 
" clip-path="url(#p50329330c9)" style="fill: none; stroke: #ff7f0e; stroke-width: 1.5; stroke-linecap: square"/>
   </g>
   <g id="line2d_65">
    <path d="M 58.401189 263.070277 
L 61.804688 247.756538 
L 65.208186 263.179854 
L 68.611684 272.194207 
L 72.015183 249.43701 
L 75.418681 245.227802 
L 78.822179 238.64556 
L 82.225678 247.627553 
L 85.629176 240.405999 
L 89.032674 248.765267 
L 92.436173 252.2471 
L 95.839671 243.720441 
L 99.243169 239.783299 
L 102.646668 242.357188 
L 106.050166 236.149505 
L 109.453664 226.77306 
L 112.857163 237.221985 
L 116.260661 239.189455 
L 119.664159 233.20196 
L 123.067658 215.096236 
L 126.471156 211.842468 
L 129.874654 198.690163 
L 133.278153 193.312723 
L 136.681651 188.115059 
L 140.085149 189.713662 
L 143.488648 192.926904 
L 146.892146 186.811475 
L 150.295644 195.736191 
L 153.699143 182.769852 
L 157.102641 171.043159 
L 160.506139 183.610274 
L 163.909638 197.594642 
L 167.313136 207.320723 
L 170.716634 205.893274 
L 174.120133 197.307683 
L 177.523631 202.896942 
L 180.927129 204.738762 
L 184.330628 204.915057 
L 187.734126 200.329406 
L 191.137624 202.580138 
L 194.541123 221.75856 
L 197.944621 230.216201 
L 201.348119 222.583164 
L 204.751618 224.209985 
L 208.155116 221.272046 
L 211.558614 228.772103 
L 214.962113 236.907346 
L 218.365611 235.070778 
L 221.76911 236.44899 
L 225.172608 226.544679 
L 228.576106 239.305998 
L 231.979605 233.737731 
L 235.383103 226.082569 
L 238.786601 220.911912 
L 242.1901 227.859373 
L 245.593598 226.912661 
L 248.997096 224.289381 
L 252.400595 217.152444 
L 255.804093 213.282457 
L 259.207591 215.633453 
L 262.61109 207.302908 
L 266.014588 214.493924 
L 269.418086 204.854316 
L 272.821585 203.579602 
L 276.225083 174.810522 
L 279.628581 162.929318 
L 283.03208 142.4692 
L 286.435578 132.652831 
L 289.839076 128.270377 
L 293.242575 139.673621 
L 296.646073 139.088934 
L 300.049571 143.504358 
L 303.45307 144.821183 
L 306.856568 140.035627 
L 310.260066 140.425358 
L 313.663565 137.630119 
L 317.067063 163.005463 
L 320.470561 176.796913 
L 323.87406 192.286701 
L 327.277558 194.841824 
L 330.681056 203.301212 
L 334.084555 194.357891 
L 337.488053 195.232073 
L 340.891551 186.052658 
L 344.29505 186.836419 
L 347.698548 192.57576 
L 351.102046 198.479888 
L 354.505545 195.417514 
L 357.909043 201.01673 
L 361.312541 204.889524 
L 364.71604 203.355085 
L 368.119538 212.53897 
L 371.523037 208.586333 
L 374.926535 212.423674 
L 378.330033 199.73922 
L 381.733532 204.966565 
L 385.13703 225.011678 
L 388.540528 233.614419 
L 391.944027 223.378927 
L 395.347525 238.418017 
L 398.751023 245.341058 
L 402.154522 245.612632 
L 405.55802 248.336617 
L 408.961518 246.67308 
L 412.365017 256.32074 
L 415.768515 254.361054 
L 419.172013 282.994071 
L 422.575512 281.322657 
L 425.97901 268.103265 
L 429.382508 256.413614 
L 432.786007 267.618449 
L 436.189505 258.773382 
L 439.593003 245.73148 
L 442.996502 243.263012 
L 446.4 245.818526 
L 449.803498 239.717458 
" clip-path="url(#p50329330c9)" style="fill: none; stroke: #2ca02c; stroke-width: 1.5; stroke-linecap: square"/>
   </g>
   <g id="line2d_66">
    <path d="M 58.401189 218.817024 
L 61.804688 222.564008 
L 65.208186 227.247174 
L 68.611684 227.752756 
L 72.015183 233.975564 
L 75.418681 234.245378 
L 78.822179 228.746212 
L 82.225678 230.433319 
L 85.629176 234.960822 
L 89.032674 236.003832 
L 92.436173 234.623594 
L 95.839671 228.919128 
L 99.243169 232.827846 
L 102.646668 234.869826 
L 106.050166 233.29368 
L 109.453664 231.515187 
L 112.857163 226.391297 
L 116.260661 227.532369 
L 119.664159 226.471103 
L 123.067658 223.402858 
L 126.471156 222.045954 
L 129.874654 220.590053 
L 133.278153 221.162249 
L 136.681651 230.40336 
L 140.085149 220.381913 
L 143.488648 220.781411 
L 146.892146 218.888241 
L 150.295644 220.965165 
L 153.699143 219.215146 
L 157.102641 213.070036 
L 160.506139 212.031924 
L 163.909638 213.241548 
L 167.313136 211.772065 
L 170.716634 210.22619 
L 174.120133 211.367973 
L 177.523631 210.707836 
L 180.927129 216.356686 
L 184.330628 213.147112 
L 187.734126 215.656648 
L 191.137624 219.08404 
L 194.541123 219.027156 
L 197.944621 222.72034 
L 201.348119 227.580173 
L 204.751618 226.617155 
L 208.155116 225.874756 
L 211.558614 227.320681 
L 214.962113 225.376762 
L 218.365611 223.156799 
L 221.76911 219.654138 
L 225.172608 218.286375 
L 228.576106 216.105227 
L 231.979605 214.598256 
L 235.383103 215.261777 
L 238.786601 216.696052 
L 242.1901 214.820257 
L 245.593598 218.620767 
L 248.997096 222.257824 
L 252.400595 223.496716 
L 255.804093 230.520131 
L 259.207591 234.876491 
L 262.61109 240.486342 
L 266.014588 246.65696 
L 269.418086 246.682253 
L 272.821585 235.38299 
L 276.225083 229.281924 
L 279.628581 225.758018 
L 283.03208 220.527777 
L 286.435578 214.449109 
L 289.839076 212.550281 
L 293.242575 210.126257 
L 296.646073 198.921018 
L 300.049571 196.690125 
L 303.45307 190.700907 
L 306.856568 185.728132 
L 310.260066 188.106307 
L 313.663565 197.052107 
L 317.067063 204.264456 
L 320.470561 210.651513 
L 323.87406 214.787646 
L 327.277558 218.621439 
L 330.681056 219.620365 
L 334.084555 218.036032 
L 337.488053 225.095506 
L 340.891551 231.048523 
L 344.29505 234.982617 
L 347.698548 237.746921 
L 351.102046 238.819156 
L 354.505545 240.973526 
L 357.909043 246.126357 
L 361.312541 245.144307 
L 364.71604 248.676132 
L 368.119538 249.124051 
L 371.523037 249.03761 
L 374.926535 246.434004 
L 378.330033 248.213581 
L 381.733532 239.637235 
L 385.13703 246.166169 
L 388.540528 247.79948 
L 391.944027 245.291396 
L 395.347525 252.230402 
L 398.751023 248.727012 
L 402.154522 258.077041 
L 405.55802 259.325128 
L 408.961518 260.892009 
L 412.365017 266.499911 
L 415.768515 271.779719 
L 419.172013 269.568417 
L 422.575512 274.4835 
L 425.97901 264.5787 
L 429.382508 265.23437 
L 432.786007 270.251606 
L 436.189505 260.30629 
L 439.593003 255.171922 
L 442.996502 253.131322 
L 446.4 245.969744 
L 449.803498 244.630197 
" clip-path="url(#p50329330c9)" style="fill: none; stroke: #d62728; stroke-width: 1.5; stroke-linecap: square"/>
   </g>
   <g id="line2d_67">
    <path d="M 58.401189 222.001015 
L 61.804688 223.0739 
L 65.208186 222.036365 
L 68.611684 220.975819 
L 72.015183 220.999881 
L 75.418681 218.326519 
L 78.822179 219.858404 
L 82.225678 219.388781 
L 85.629176 218.300329 
L 89.032674 220.661212 
L 92.436173 221.926626 
L 95.839671 223.984843 
L 99.243169 225.53903 
L 102.646668 225.143061 
L 106.050166 225.388512 
L 109.453664 225.567627 
L 112.857163 223.666941 
L 116.260661 222.956671 
L 119.664159 222.291382 
L 123.067658 222.174945 
L 126.471156 223.10648 
L 129.874654 221.4865 
L 133.278153 220.525348 
L 136.681651 218.688634 
L 140.085149 218.012328 
L 143.488648 217.531294 
L 146.892146 216.519901 
L 150.295644 216.340681 
L 153.699143 218.123411 
L 157.102641 219.007031 
L 160.506139 218.198982 
L 163.909638 217.922815 
L 167.313136 217.942031 
L 170.716634 217.411605 
L 174.120133 217.24454 
L 177.523631 217.742916 
L 180.927129 220.56692 
L 184.330628 221.87675 
L 187.734126 223.466624 
L 191.137624 224.354451 
L 194.541123 223.36286 
L 197.944621 223.601454 
L 201.348119 224.003657 
L 204.751618 225.082688 
L 208.155116 225.528394 
L 211.558614 225.754462 
L 214.962113 226.938423 
L 218.365611 229.057822 
L 221.76911 228.894702 
L 225.172608 229.413911 
L 228.576106 229.243765 
L 231.979605 229.249182 
L 235.383103 229.219174 
L 238.786601 228.236988 
L 242.1901 230.559957 
L 245.593598 230.789066 
L 248.997096 230.551058 
L 252.400595 230.544359 
L 255.804093 230.62722 
L 259.207591 228.610128 
L 262.61109 228.296996 
L 266.014588 227.955795 
L 269.418086 226.650274 
L 272.821585 224.534514 
L 276.225083 220.838272 
L 279.628581 210.828082 
L 283.03208 195.337931 
L 286.435578 190.055632 
L 289.839076 184.819468 
L 293.242575 182.054902 
L 296.646073 181.434866 
L 300.049571 180.882358 
L 303.45307 180.517811 
L 306.856568 178.406443 
L 310.260066 176.910957 
L 313.663565 177.285456 
L 317.067063 178.226026 
L 320.470561 187.106673 
L 323.87406 201.778133 
L 327.277558 206.892132 
L 330.681056 211.423219 
L 334.084555 214.583649 
L 337.488053 214.716959 
L 340.891551 216.34698 
L 344.29505 218.014503 
L 347.698548 218.843486 
L 351.102046 219.51256 
L 354.505545 220.040323 
L 357.909043 220.079902 
L 361.312541 222.268883 
L 364.71604 221.541068 
L 368.119538 221.233466 
L 371.523037 221.350827 
L 374.926535 222.448168 
L 378.330033 224.22295 
L 381.733532 223.961776 
L 385.13703 225.364425 
L 388.540528 227.219044 
L 391.944027 228.462642 
L 395.347525 228.928329 
L 398.751023 229.201514 
L 402.154522 229.02247 
L 405.55802 229.430982 
L 408.961518 230.448302 
L 412.365017 230.873279 
L 415.768515 231.301792 
L 419.172013 231.302179 
L 422.575512 232.454037 
L 425.97901 232.30061 
L 429.382508 231.389881 
L 432.786007 231.614843 
L 436.189505 231.102898 
L 439.593003 233.271337 
L 442.996502 235.806787 
" clip-path="url(#p50329330c9)" style="fill: none; stroke: #9467bd; stroke-width: 1.5; stroke-linecap: square"/>
   </g>
   <g id="patch_38">
    <path d="M 61.804688 314.521875 
L 61.804688 7.2 
" style="fill: none; stroke: #000000; stroke-width: 0.8; stroke-linejoin: miter; stroke-linecap: square"/>
   </g>
   <g id="patch_39">
    <path d="M 446.4 314.521875 
L 446.4 7.2 
" style="fill: none; stroke: #000000; stroke-width: 0.8; stroke-linejoin: miter; stroke-linecap: square"/>
   </g>
   <g id="patch_40">
    <path d="M 61.804688 314.521875 
L 446.4 314.521875 
" style="fill: none; stroke: #000000; stroke-width: 0.8; stroke-linejoin: miter; stroke-linecap: square"/>
   </g>
   <g id="patch_41">
    <path d="M 61.804688 7.2 
L 446.4 7.2 
" style="fill: none; stroke: #000000; stroke-width: 0.8; stroke-linejoin: miter; stroke-linecap: square"/>
   </g>
   <g id="legend_1">
    <g id="patch_42">
     <path d="M 391.028125 88.590625 
L 439.4 88.590625 
Q 441.4 88.590625 441.4 86.590625 
L 441.4 14.2 
Q 441.4 12.2 439.4 12.2 
L 391.028125 12.2 
Q 389.028125 12.2 389.028125 14.2 
L 389.028125 86.590625 
Q 389.028125 88.590625 391.028125 88.590625 
z
" style="fill: #ffffff; opacity: 0.8; stroke: #cccccc; stroke-linejoin: miter"/>
    </g>
    <g id="line2d_68">
     <path d="M 393.028125 20.298437 
L 403.028125 20.298437 
L 413.028125 20.298437 
" style="fill: none; stroke: #1f77b4; stroke-width: 1.5; stroke-linecap: square"/>
    </g>
    <g id="text_19">
     <!-- US -->
     <g transform="translate(421.028125 23.798437) scale(0.1 -0.1)">
      <defs>
       <path id="DejaVuSerif-55" d="M 897 4331 
L 300 4331 
L 300 4666 
L 2125 4666 
L 2125 4331 
L 1528 4331 
L 1528 1919 
Q 1528 1025 1820 672 
Q 2113 319 2828 319 
Q 3544 319 3836 672 
Q 4128 1025 4128 1919 
L 4128 4331 
L 3531 4331 
L 3531 4666 
L 5106 4666 
L 5106 4331 
L 4513 4331 
L 4513 1856 
Q 4513 791 4103 350 
Q 3694 -91 2713 -91 
Q 1731 -91 1314 353 
Q 897 797 897 1856 
L 897 4331 
z
" transform="scale(0.015625)"/>
       <path id="DejaVuSerif-53" d="M 594 225 
L 594 1288 
L 953 1284 
Q 969 753 1261 498 
Q 1553 244 2150 244 
Q 2706 244 2998 464 
Q 3291 684 3291 1106 
Q 3291 1444 3114 1625 
Q 2938 1806 2369 1978 
L 1753 2163 
Q 1084 2366 811 2669 
Q 538 2972 538 3500 
Q 538 4094 959 4422 
Q 1381 4750 2144 4750 
Q 2469 4750 2856 4679 
Q 3244 4609 3681 4475 
L 3681 3481 
L 3328 3481 
Q 3275 3975 2998 4195 
Q 2722 4416 2156 4416 
Q 1663 4416 1405 4214 
Q 1147 4013 1147 3628 
Q 1147 3294 1340 3103 
Q 1534 2913 2163 2725 
L 2741 2553 
Q 3375 2363 3645 2067 
Q 3916 1772 3916 1275 
Q 3916 597 3481 253 
Q 3047 -91 2188 -91 
Q 1803 -91 1404 -12 
Q 1006 66 594 225 
z
" transform="scale(0.015625)"/>
      </defs>
      <use xlink:href="#DejaVuSerif-55"/>
      <use xlink:href="#DejaVuSerif-53" transform="translate(84.277344 0)"/>
     </g>
    </g>
    <g id="line2d_69">
     <path d="M 393.028125 34.976562 
L 403.028125 34.976562 
L 413.028125 34.976562 
" style="fill: none; stroke: #ff7f0e; stroke-width: 1.5; stroke-linecap: square"/>
    </g>
    <g id="text_20">
     <!-- EU -->
     <g transform="translate(421.028125 38.476562) scale(0.1 -0.1)">
      <defs>
       <path id="DejaVuSerif-45" d="M 353 0 
L 353 331 
L 947 331 
L 947 4331 
L 353 4331 
L 353 4666 
L 4109 4666 
L 4109 3628 
L 3725 3628 
L 3725 4281 
L 1581 4281 
L 1581 2719 
L 3109 2719 
L 3109 3303 
L 3494 3303 
L 3494 1753 
L 3109 1753 
L 3109 2338 
L 1581 2338 
L 1581 384 
L 3775 384 
L 3775 1038 
L 4159 1038 
L 4159 0 
L 353 0 
z
" transform="scale(0.015625)"/>
      </defs>
      <use xlink:href="#DejaVuSerif-45"/>
      <use xlink:href="#DejaVuSerif-55" transform="translate(72.998047 0)"/>
     </g>
    </g>
    <g id="line2d_70">
     <path d="M 393.028125 49.654687 
L 403.028125 49.654687 
L 413.028125 49.654687 
" style="fill: none; stroke: #2ca02c; stroke-width: 1.5; stroke-linecap: square"/>
    </g>
    <g id="text_21">
     <!-- UK -->
     <g transform="translate(421.028125 53.154687) scale(0.1 -0.1)">
      <defs>
       <path id="DejaVuSerif-4b" d="M 353 0 
L 353 331 
L 947 331 
L 947 4331 
L 353 4331 
L 353 4666 
L 2175 4666 
L 2175 4331 
L 1581 4331 
L 1581 2566 
L 3591 4331 
L 3084 4331 
L 3084 4666 
L 4634 4666 
L 4634 4331 
L 4109 4331 
L 2106 2572 
L 4347 331 
L 4878 331 
L 4878 0 
L 3794 0 
L 1581 2216 
L 1581 331 
L 2175 331 
L 2175 0 
L 353 0 
z
" transform="scale(0.015625)"/>
      </defs>
      <use xlink:href="#DejaVuSerif-55"/>
      <use xlink:href="#DejaVuSerif-4b" transform="translate(84.277344 0)"/>
     </g>
    </g>
    <g id="line2d_71">
     <path d="M 393.028125 64.332812 
L 403.028125 64.332812 
L 413.028125 64.332812 
" style="fill: none; stroke: #d62728; stroke-width: 1.5; stroke-linecap: square"/>
    </g>
    <g id="text_22">
     <!-- CH -->
     <g transform="translate(421.028125 67.832812) scale(0.1 -0.1)">
      <defs>
       <path id="DejaVuSerif-43" d="M 4513 1234 
Q 4306 581 3820 245 
Q 3334 -91 2591 -91 
Q 2134 -91 1743 65 
Q 1353 222 1050 525 
Q 700 875 529 1320 
Q 359 1766 359 2328 
Q 359 3416 987 4083 
Q 1616 4750 2644 4750 
Q 3025 4750 3456 4650 
Q 3888 4550 4384 4347 
L 4384 3272 
L 4031 3272 
Q 3916 3859 3567 4137 
Q 3219 4416 2591 4416 
Q 1844 4416 1459 3886 
Q 1075 3356 1075 2328 
Q 1075 1303 1459 773 
Q 1844 244 2591 244 
Q 3113 244 3450 492 
Q 3788 741 3938 1234 
L 4513 1234 
z
" transform="scale(0.015625)"/>
       <path id="DejaVuSerif-48" d="M 353 0 
L 353 331 
L 947 331 
L 947 4331 
L 353 4331 
L 353 4666 
L 2175 4666 
L 2175 4331 
L 1581 4331 
L 1581 2719 
L 4000 2719 
L 4000 4331 
L 3406 4331 
L 3406 4666 
L 5228 4666 
L 5228 4331 
L 4634 4331 
L 4634 331 
L 5228 331 
L 5228 0 
L 3406 0 
L 3406 331 
L 4000 331 
L 4000 2338 
L 1581 2338 
L 1581 331 
L 2175 331 
L 2175 0 
L 353 0 
z
" transform="scale(0.015625)"/>
      </defs>
      <use xlink:href="#DejaVuSerif-43"/>
      <use xlink:href="#DejaVuSerif-48" transform="translate(76.513672 0)"/>
     </g>
    </g>
    <g id="line2d_72">
     <path d="M 393.028125 79.010937 
L 403.028125 79.010937 
L 413.028125 79.010937 
" style="fill: none; stroke: #9467bd; stroke-width: 1.5; stroke-linecap: square"/>
    </g>
    <g id="text_23">
     <!-- JP -->
     <g transform="translate(421.028125 82.510937) scale(0.1 -0.1)">
      <defs>
       <path id="DejaVuSerif-4a" d="M -538 -1119 
L -538 -384 
L -181 -384 
Q -172 -694 -34 -845 
Q 103 -997 378 -997 
Q 750 -997 897 -762 
Q 1044 -528 1044 153 
L 1044 4331 
L 319 4331 
L 319 4666 
L 2272 4666 
L 2272 4331 
L 1678 4331 
L 1678 128 
Q 1678 -644 1368 -987 
Q 1059 -1331 372 -1331 
Q 150 -1331 -79 -1278 
Q -309 -1225 -538 -1119 
z
" transform="scale(0.015625)"/>
       <path id="DejaVuSerif-50" d="M 1581 2375 
L 2406 2375 
Q 2872 2375 3115 2626 
Q 3359 2878 3359 3353 
Q 3359 3831 3115 4081 
Q 2872 4331 2406 4331 
L 1581 4331 
L 1581 2375 
z
M 353 0 
L 353 331 
L 947 331 
L 947 4331 
L 353 4331 
L 353 4666 
L 2559 4666 
Q 3259 4666 3668 4311 
Q 4078 3956 4078 3353 
Q 4078 2753 3668 2397 
Q 3259 2041 2559 2041 
L 1581 2041 
L 1581 331 
L 2303 331 
L 2303 0 
L 353 0 
z
" transform="scale(0.015625)"/>
      </defs>
      <use xlink:href="#DejaVuSerif-4a"/>
      <use xlink:href="#DejaVuSerif-50" transform="translate(40.087891 0)"/>
     </g>
    </g>
   </g>
  </g>
 </g>
 <defs>
  <clipPath id="p50329330c9">
   <rect x="61.804688" y="7.2" width="384.595312" height="307.321875"/>
  </clipPath>
 </defs>
</svg>
